<svg viewBox="0 0 1112.2000732421875 400" xmlns="http://www.w3.org/2000/svg"><g><g><g><g><g><line x1="50" y1="378" x2="45" y2="378" style="visibility: inherit;" fill="rgb(0, 0, 0)" stroke="rgb(204, 204, 204)" stroke-width="1px"></line><line x1="50" y1="343.6363636363636" x2="45" y2="343.6363636363636" style="visibility: inherit;" fill="rgb(0, 0, 0)" stroke="rgb(204, 204, 204)" stroke-width="1px"></line><line x1="50" y1="309.2727272727273" x2="45" y2="309.2727272727273" style="visibility: inherit;" fill="rgb(0, 0, 0)" stroke="rgb(204, 204, 204)" stroke-width="1px"></line><line x1="50" y1="274.9090909090909" x2="45" y2="274.9090909090909" style="visibility: inherit;" fill="rgb(0, 0, 0)" stroke="rgb(204, 204, 204)" stroke-width="1px"></line><line x1="50" y1="240.5454545454545" x2="45" y2="240.5454545454545" style="visibility: inherit;" fill="rgb(0, 0, 0)" stroke="rgb(204, 204, 204)" stroke-width="1px"></line><line x1="50" y1="206.18181818181822" x2="45" y2="206.18181818181822" style="visibility: inherit;" fill="rgb(0, 0, 0)" stroke="rgb(204, 204, 204)" stroke-width="1px"></line><line x1="50" y1="171.81818181818178" x2="45" y2="171.81818181818178" style="visibility: inherit;" fill="rgb(0, 0, 0)" stroke="rgb(204, 204, 204)" stroke-width="1px"></line><line x1="50" y1="137.4545454545454" x2="45" y2="137.4545454545454" style="visibility: inherit;" fill="rgb(0, 0, 0)" stroke="rgb(204, 204, 204)" stroke-width="1px"></line><line x1="50" y1="103.09090909090907" x2="45" y2="103.09090909090907" style="visibility: inherit;" fill="rgb(0, 0, 0)" stroke="rgb(204, 204, 204)" stroke-width="1px"></line><line x1="50" y1="68.72727272727269" x2="45" y2="68.72727272727269" style="visibility: inherit;" fill="rgb(0, 0, 0)" stroke="rgb(204, 204, 204)" stroke-width="1px"></line><line x1="50" y1="34.36363636363632" x2="45" y2="34.36363636363632" style="visibility: inherit;" fill="rgb(0, 0, 0)" stroke="rgb(204, 204, 204)" stroke-width="1px"></line><line x1="50" y1="0" x2="45" y2="0" style="visibility: inherit;" fill="rgb(0, 0, 0)" stroke="rgb(204, 204, 204)" stroke-width="1px"></line></g><g transform="translate(40, 0)"><text x="0" y="378" dx="0em" dy="0.3em" style="text-anchor: end; visibility: hidden; font-family: &quot;Helvetica Neue&quot;, sans-serif; font-size: 12px; font-weight: 200;" fill="rgb(50, 49, 63)" stroke="none" stroke-width="1px">0.2</text><text x="0" y="343.6363636363636" dx="0em" dy="0.3em" style="text-anchor: end; visibility: inherit; font-family: &quot;Helvetica Neue&quot;, sans-serif; font-size: 12px; font-weight: 200;" fill="rgb(50, 49, 63)" stroke="none" stroke-width="1px">0.22</text><text x="0" y="309.2727272727273" dx="0em" dy="0.3em" style="text-anchor: end; visibility: inherit; font-family: &quot;Helvetica Neue&quot;, sans-serif; font-size: 12px; font-weight: 200;" fill="rgb(50, 49, 63)" stroke="none" stroke-width="1px">0.24</text><text x="0" y="274.9090909090909" dx="0em" dy="0.3em" style="text-anchor: end; visibility: inherit; font-family: &quot;Helvetica Neue&quot;, sans-serif; font-size: 12px; font-weight: 200;" fill="rgb(50, 49, 63)" stroke="none" stroke-width="1px">0.26</text><text x="0" y="240.5454545454545" dx="0em" dy="0.3em" style="text-anchor: end; visibility: inherit; font-family: &quot;Helvetica Neue&quot;, sans-serif; font-size: 12px; font-weight: 200;" fill="rgb(50, 49, 63)" stroke="none" stroke-width="1px">0.28</text><text x="0" y="206.18181818181822" dx="0em" dy="0.3em" style="text-anchor: end; visibility: inherit; font-family: &quot;Helvetica Neue&quot;, sans-serif; font-size: 12px; font-weight: 200;" fill="rgb(50, 49, 63)" stroke="none" stroke-width="1px">0.3</text><text x="0" y="171.81818181818178" dx="0em" dy="0.3em" style="text-anchor: end; visibility: inherit; font-family: &quot;Helvetica Neue&quot;, sans-serif; font-size: 12px; font-weight: 200;" fill="rgb(50, 49, 63)" stroke="none" stroke-width="1px">0.32</text><text x="0" y="137.4545454545454" dx="0em" dy="0.3em" style="text-anchor: end; visibility: inherit; font-family: &quot;Helvetica Neue&quot;, sans-serif; font-size: 12px; font-weight: 200;" fill="rgb(50, 49, 63)" stroke="none" stroke-width="1px">0.34</text><text x="0" y="103.09090909090907" dx="0em" dy="0.3em" style="text-anchor: end; visibility: inherit; font-family: &quot;Helvetica Neue&quot;, sans-serif; font-size: 12px; font-weight: 200;" fill="rgb(50, 49, 63)" stroke="none" stroke-width="1px">0.36</text><text x="0" y="68.72727272727269" dx="0em" dy="0.3em" style="text-anchor: end; visibility: inherit; font-family: &quot;Helvetica Neue&quot;, sans-serif; font-size: 12px; font-weight: 200;" fill="rgb(50, 49, 63)" stroke="none" stroke-width="1px">0.38</text><text x="0" y="34.36363636363632" dx="0em" dy="0.3em" style="text-anchor: end; visibility: inherit; font-family: &quot;Helvetica Neue&quot;, sans-serif; font-size: 12px; font-weight: 200;" fill="rgb(50, 49, 63)" stroke="none" stroke-width="1px">0.4</text><text x="0" y="0" dx="0em" dy="0.3em" style="text-anchor: end; visibility: hidden; font-family: &quot;Helvetica Neue&quot;, sans-serif; font-size: 12px; font-weight: 200;" fill="rgb(50, 49, 63)" stroke="none" stroke-width="1px">0.42</text></g><line x1="50" y1="0" x2="50" y2="378" fill="rgb(0, 0, 0)" stroke="rgb(204, 204, 204)" stroke-width="1px"></line></g></g><g transform="translate(50, 0)" clip-path="url(#clip_0)"><clipPath id="clip_0"><rect width="1062" height="378"></rect></clipPath><g><g><g><line x1="0" y1="0" x2="0" y2="378" fill="rgb(0, 0, 0)" stroke="rgb(60, 60, 60)" stroke-width="1px" opacity="0.25"></line><line x1="88.51666666666667" y1="0" x2="88.51666666666667" y2="378" fill="rgb(0, 0, 0)" stroke="rgb(60, 60, 60)" stroke-width="1px" opacity="0.25"></line><line x1="177.03333333333333" y1="0" x2="177.03333333333333" y2="378" fill="rgb(0, 0, 0)" stroke="rgb(60, 60, 60)" stroke-width="1px" opacity="0.25"></line><line x1="265.55" y1="0" x2="265.55" y2="378" fill="rgb(0, 0, 0)" stroke="rgb(60, 60, 60)" stroke-width="1px" opacity="0.25"></line><line x1="354.06666666666666" y1="0" x2="354.06666666666666" y2="378" fill="rgb(0, 0, 0)" stroke="rgb(60, 60, 60)" stroke-width="1px" opacity="0.25"></line><line x1="442.58333333333337" y1="0" x2="442.58333333333337" y2="378" fill="rgb(0, 0, 0)" stroke="rgb(60, 60, 60)" stroke-width="1px" opacity="0.25"></line><line x1="531.1" y1="0" x2="531.1" y2="378" fill="rgb(0, 0, 0)" stroke="rgb(60, 60, 60)" stroke-width="1px" opacity="0.25"></line><line x1="619.6166666666668" y1="0" x2="619.6166666666668" y2="378" fill="rgb(0, 0, 0)" stroke="rgb(60, 60, 60)" stroke-width="1px" opacity="0.25"></line><line x1="708.1333333333333" y1="0" x2="708.1333333333333" y2="378" fill="rgb(0, 0, 0)" stroke="rgb(60, 60, 60)" stroke-width="1px" opacity="0.25"></line><line x1="796.6500000000001" y1="0" x2="796.6500000000001" y2="378" fill="rgb(0, 0, 0)" stroke="rgb(60, 60, 60)" stroke-width="1px" opacity="0.25"></line><line x1="885.1666666666667" y1="0" x2="885.1666666666667" y2="378" fill="rgb(0, 0, 0)" stroke="rgb(60, 60, 60)" stroke-width="1px" opacity="0.25"></line><line x1="973.6833333333333" y1="0" x2="973.6833333333333" y2="378" fill="rgb(0, 0, 0)" stroke="rgb(60, 60, 60)" stroke-width="1px" opacity="0.25"></line><line x1="1062.2" y1="0" x2="1062.2" y2="378" fill="rgb(0, 0, 0)" stroke="rgb(60, 60, 60)" stroke-width="1px" opacity="0.25"></line></g><g><line x1="0" y1="378" x2="1062.2" y2="378" fill="rgb(0, 0, 0)" stroke="rgb(60, 60, 60)" stroke-width="1px" opacity="0.25"></line><line x1="0" y1="343.6363636363636" x2="1062.2" y2="343.6363636363636" fill="rgb(0, 0, 0)" stroke="rgb(60, 60, 60)" stroke-width="1px" opacity="0.25"></line><line x1="0" y1="309.2727272727273" x2="1062.2" y2="309.2727272727273" fill="rgb(0, 0, 0)" stroke="rgb(60, 60, 60)" stroke-width="1px" opacity="0.25"></line><line x1="0" y1="274.9090909090909" x2="1062.2" y2="274.9090909090909" fill="rgb(0, 0, 0)" stroke="rgb(60, 60, 60)" stroke-width="1px" opacity="0.25"></line><line x1="0" y1="240.5454545454545" x2="1062.2" y2="240.5454545454545" fill="rgb(0, 0, 0)" stroke="rgb(60, 60, 60)" stroke-width="1px" opacity="0.25"></line><line x1="0" y1="206.18181818181822" x2="1062.2" y2="206.18181818181822" fill="rgb(0, 0, 0)" stroke="rgb(60, 60, 60)" stroke-width="1px" opacity="0.25"></line><line x1="0" y1="171.81818181818178" x2="1062.2" y2="171.81818181818178" fill="rgb(0, 0, 0)" stroke="rgb(60, 60, 60)" stroke-width="1px" opacity="0.25"></line><line x1="0" y1="137.4545454545454" x2="1062.2" y2="137.4545454545454" fill="rgb(0, 0, 0)" stroke="rgb(60, 60, 60)" stroke-width="1px" opacity="0.25"></line><line x1="0" y1="103.09090909090907" x2="1062.2" y2="103.09090909090907" fill="rgb(0, 0, 0)" stroke="rgb(60, 60, 60)" stroke-width="1px" opacity="0.25"></line><line x1="0" y1="68.72727272727269" x2="1062.2" y2="68.72727272727269" fill="rgb(0, 0, 0)" stroke="rgb(60, 60, 60)" stroke-width="1px" opacity="0.25"></line><line x1="0" y1="34.36363636363632" x2="1062.2" y2="34.36363636363632" fill="rgb(0, 0, 0)" stroke="rgb(60, 60, 60)" stroke-width="1px" opacity="0.25"></line><line x1="0" y1="0" x2="1062.2" y2="0" fill="rgb(0, 0, 0)" stroke="rgb(60, 60, 60)" stroke-width="1px" opacity="0.25"></line></g></g></g><g><g><line x1="0" y1="721.6363636363637" x2="1062.2" y2="721.6363636363637" fill="rgb(0, 0, 0)" stroke="rgb(153, 153, 153)" stroke-width="1.5px"></line></g></g><g><g><line x1="88.51666666666667" y1="0" x2="88.51666666666667" y2="378" fill="rgb(0, 0, 0)" stroke="rgb(153, 153, 153)" stroke-width="1.5px"></line></g></g><g><g><g><g><g><path stroke="rgb(255, 112, 67)" stroke-width="2px" d="M91.3492,59.22440457344055L94.18173333333334,83.21328840347411L97.01426666666667,66.02384868665382L99.8468,13.053370086961934L102.67933333333333,87.22557110485752L105.51186666666666,61.99921221418617L108.3444,113.99818008497448L111.17693333333334,118.00573261507071L114.00946666666667,130.27904236456868L116.842,137.038850574709L119.67453333333334,146.67785629776924L122.50706666666667,162.53511628966118L125.3396,173.41854754603435L128.17213333333333,178.2509577019891L131.00466666666668,162.74882864712356L133.8372,177.97100155615271L136.66973333333334,187.58816941132605L139.50226666666666,192.34588844391897L142.3348,193.80239304310328L145.16733333333332,199.19087090458365L147.9998666666667,210.09348933080108L150.8324,209.929226526119L153.66493333333335,213.38387612355336L156.4974666666667,214.63246399110508L159.33,216.91122374445774L162.16253333333336,225.15448538552675L164.99506666666667,228.40391891023734L167.82760000000002,227.36214832917452L170.66013333333336,230.22546023598937L173.49266666666668,226.3569270533547L176.32520000000002,226.36892760327805L179.15773333333334,232.8334604770387L181.99026666666668,232.35081167256675L184.8228,231.83341911375717L187.65533333333335,237.27638212439308L190.4878666666667,240.17074305621193L193.3204,241.60772103997547L196.15293333333335,241.50705352815342L198.98546666666667,240.7590412747386L201.818,239.69832326667887L204.65053333333336,236.4962104007408L207.48306666666667,240.530990706748L210.31560000000002,241.64965886571622L213.14813333333333,240.79207095621507L215.98066666666668,242.71958998686773L218.8132,244.87138650589506L221.64573333333334,244.34563386590898L224.47826666666668,244.14658932126554L230.14333333333335,244.4368137888601L232.97586666666666,245.4691962793249L227.3108,245.20472954513966L235.8084,245.893947526633L238.64093333333332,247.05657713571642L241.47346666666667,248.03950618463344L244.306,248.19317207477016L247.13853333333333,248.41263416525805L249.97106666666667,247.82284873440372L252.8036,247.51790734644004L255.63613333333333,246.91548525457833L258.4686666666667,246.39421123272643L261.3012,247.34954533916854L264.13373333333334,248.9124875294114L266.9662666666667,251.03883861470257L269.7988,250.80541151111748L272.6313333333333,250.04794979166962L275.4638666666667,252.61847295180442L278.2964,253.63691508371755L281.12893333333335,254.12557425161313L283.96146666666664,253.56531434727432L286.79400000000004,254.07402273765388L289.6265333333333,256.55639444883167L292.4590666666667,258.3684713949164L295.2916,257.8394461845079L298.12413333333336,258.02257754628914L300.95666666666665,257.28803922115384L303.7892,257.5528991578036L306.62173333333334,258.3439457674625L309.4542666666667,257.53969046931866L312.28679999999997,259.0070854917096L315.1193333333334,259.04090964067984L317.95186666666666,260.4058558835421L320.7844,261.42597408288475L323.6169333333333,262.3449105520874L326.4494666666667,263.21111633462607L329.28200000000004,263.5112134953771L332.1145333333333,264.60865311917655L334.94706666666673,263.8904574249033L337.7796,264.7650242059849L340.61213333333336,264.5228912166691L343.44466666666665,265.55167062428615L346.27720000000005,265.5310189837192L349.10973333333334,266.2170515816097L351.9422666666667,267.57539829389947L354.7748,267.6949567500558L357.6073333333334,268.6822684023061L360.43986666666666,269.1236444906009L363.27240000000006,270.2545148987752L366.10493333333335,270.8141257572146L368.9374666666667,270.1457472348011L371.77,270.8479704229654L374.6025333333334,270.9340152747741L377.43506666666667,270.8353150631267L380.2676,271.4509148534034L383.10013333333336,270.9067524180161L385.9326666666667,271.186338328074L388.7652,270.8963702297133L391.59773333333334,271.3166429342748L394.4302666666667,271.2051192305854L397.2628,272.11785672261044L400.0953333333333,271.61972837403846L402.9278666666667,271.9612742075618L405.7604,272.42544828491145L408.59293333333335,273.99203155914665L411.42546666666664,273.62442747631286L414.25800000000004,273.6331287334121L417.0905333333333,272.92945772115615L419.92306666666667,273.84773592140255L422.7556,273.3442646950967L425.58813333333336,273.247511731128L428.42066666666665,274.310316499906L431.25320000000005,273.89317113238553L434.08573333333334,273.2498030676344L436.9182666666667,273.8305330790963L439.75079999999997,273.3906718706853L442.58333333333337,274.3162118549405L445.4158666666667,274.6799075465135L448.2484,273.80916160658273L451.0809333333334,275.1470640944475L453.9134666666667,275.5684755424977L456.74600000000004,275.70219037680477L459.5785333333333,275.8318954578317L462.4110666666667,276.189195495673L465.2436,276.4716312102606L468.07613333333336,276.68629623199905L470.9086666666667,276.95206472066116L473.74120000000005,277.3456285430646L476.57373333333334,277.3772848285001L479.4062666666667,278.0532986648165L482.2388,279.0715016747639L485.07133333333337,279.2501502712632L487.90386666666666,278.99138230157365L490.73640000000006,279.6087697314501L493.56893333333335,279.26076580442907L496.4014666666667,278.99071375023436L499.234,279.26457105319435L502.0665333333334,279.6552944088054L504.89906666666667,280.37810664512665L507.7316,280.49654816665924L510.56413333333336,280.90628735345865L513.3966666666666,281.05575229404224L516.2292,280.76818744656487L519.0617333333333,280.4851924127793L521.8942666666667,280.85206913018794L524.7268,279.9735543378674L527.5593333333334,280.4409341351093L530.3918666666667,280.81228016592536L533.2244000000001,280.74997911197244L536.0569333333334,280.2887475115936L538.8894666666666,280.68185883434955L541.722,281.88918562586673L544.5545333333334,283.23364894780866L547.3870666666667,283.53689038043916L550.2196,283.10506652844066L553.0521333333335,283.05480697405926L555.8846666666667,283.1124222649545L558.7172,283.63931616028634L561.5497333333333,284.4543950548409L564.3822666666667,285.58893793150656L567.2148000000001,286.48680750465843L570.0473333333333,286.8602900589737L572.8798666666667,287.06133980662986L575.7124000000001,287.4079714241856L578.5449333333333,286.5800515516145L581.3774666666667,287.00666949795243L584.21,287.4389527546654L587.0425333333334,286.583600755356L589.8750666666667,286.0563275741872L592.7076000000001,285.7947037597537L595.5401333333333,285.9473972373519L598.3726666666668,285.71693580264014L601.2052,286.01655264459055L604.0377333333333,285.8980533172249L606.8702666666667,286.3951489174248L609.7028,286.15896579650905L612.5353333333334,285.62546492466004L615.3678666666667,285.5695784848775L618.2004,285.6808402748027L621.0329333333334,285.2670565362948L623.8654666666667,284.6302113722631L626.698,285.05655728318146L629.5305333333333,284.7798546970895L632.3630666666668,284.7641081344424L635.1956,284.6941367153695L638.0281333333334,284.4456384048653L640.8606666666667,284.79538481919565L643.6932,284.45061061718707L646.5257333333334,284.84909931582615L649.3582666666666,285.160169107336L652.1908,285.5867757734835L655.0233333333334,286.07238637382966L657.8558666666667,286.04123699198493L660.6884,285.67815806109803L663.5209333333333,286.1932188298219L666.3534666666667,286.7092760147395L669.186,286.55281901916254L672.0185333333334,285.9088167256459L674.8510666666666,285.890783799829L677.6836000000001,286.10479493673967L680.5161333333334,286.62762676787884L683.3486666666666,286.78715941528355L686.1812000000001,286.5628443724588L689.0137333333333,286.52081249340824L691.8462666666667,286.0296909378994L694.6788,285.16443574423664L697.5113333333334,284.9864765931683L700.3438666666667,285.3102581549762L703.1764000000001,285.6830679408508L706.0089333333333,285.7180903004001L708.8414666666667,285.8080195086157L711.6740000000001,285.606480560904L714.5065333333333,285.5475330622187L717.3390666666667,283.4843784939726L720.1716000000001,283.3803176006943L723.0041333333334,283.1328448577636L725.8366666666667,283.15150219682175L728.6692,283.6843261713889L731.5017333333334,283.0253479406547L734.3342666666667,282.20829399877846L737.1668,282.8667709519316L739.9993333333333,282.87852542295184L742.8318666666668,283.0079135131443L745.6644,283.04326565590577L748.4969333333333,283.29938357090543L751.3294666666667,282.56768337096844L754.162,282.9049877225721L756.9945333333334,282.8679162951872L759.8270666666667,282.57455992044436L762.6596,282.62412193921216L765.4921333333334,282.9908466896855L768.3246666666668,283.2163563657055L771.1572,283.4666288887315L773.9897333333333,283.74064185258374L776.8222666666667,284.11056264594436L779.6548,284.34944095705293L782.4873333333334,284.38646591648194L785.3198666666666,284.6145738573385L788.1524000000001,285.0046244049872L790.9849333333334,284.9618746840335L793.8174666666666,285.18210690169474L796.6500000000001,285.35949567499154L799.4825333333334,285.66340247696826L802.3150666666667,285.58127148917623L805.1476,285.77220264726344L807.9801333333335,285.5314459126091L810.8126666666667,285.3872839012009L813.6452,285.30567817579515L816.4777333333334,285.54593494963814L819.3102666666667,285.2280798822684L822.1428000000001,285.7261696971941L824.9753333333333,285.21526189477765L827.8078666666667,284.72696443116064L830.6404000000001,284.88292112811814L833.4729333333333,285.3109341139095L836.3054666666667,284.90521564038505L839.138,284.3891325420267L841.9705333333334,284.19715262179045L844.8030666666667,284.5248558200966L847.6356000000001,284.68049395629373L850.4681333333333,284.9222576411848L853.3006666666668,285.45146581933744L856.1332000000001,285.33867808641423L858.9657333333333,285.6484992556361L861.7982666666667,285.98538346876995L864.6308,286.41375304399185L867.4633333333334,286.77922151824725L870.2958666666667,286.9554651389556L873.1283999999999,286.75880107061664L875.9609333333334,286.30478171971083L878.7934666666667,286.223126486559L881.626,286.9161249194685L884.4585333333333,286.50325894511093L887.2910666666668,286.7151457830322L890.1236,286.5037618067403L892.9561333333334,286.4873387852263L895.7886666666667,287.02889018761607L898.6212,287.1882527628721L901.4537333333334,287.3563516597018L904.2862666666667,287.5138430733496L907.1188,287.5051666391835L909.9513333333334,287.92236485037995L912.7838666666667,287.85575305349283L915.6164,287.9261438076761L918.4489333333335,287.7129540609926L921.2814666666667,287.5660103329719L924.114,287.6820913776585L926.9465333333334,287.8302688029131L929.7790666666667,287.3797031976078L932.6116000000001,287.715894566618L935.4441333333334,287.7517311554145L938.2766666666666,287.72587970758354L941.1092000000001,287.11250565025006L943.9417333333334,286.49895965244167L946.7742666666667,286.557045989683L949.6068,286.4994821724805L952.4393333333334,286.1568805139663L955.2718666666667,285.9715559474189L958.1044,285.54106142684356L960.9369333333333,285.5464711351713L963.7694666666667,285.95375484524624L966.6020000000001,286.00695103569547L969.4345333333333,286.36479737634056L972.2670666666667,286.7066541026151L975.0996000000001,286.93007953293613L977.9321333333334,286.763494109249L980.7646666666667,286.7173542887005L983.5972,286.1535510951496L986.4297333333334,285.7688898467769L989.2622666666667,285.9145150415567L992.0948000000001,285.4415345034464L994.9273333333333,285.1844528017502L997.7598666666668,285.4875411172299L1000.5924,285.77265271420833L1003.4249333333333,286.0753279060568L1006.2574666666667,286.0852611478308L1009.09,286.1254335899152L1011.9225333333334,286.4335962420254L1014.7550666666667,286.88831959506706L1017.5876,287.34440663439756L1020.4201333333334,286.2951861541715L1023.2526666666668,285.99379266210883" style="fill: none;" fill="none"></path></g></g></g></g><g opacity="0.2"><g><g><g><path stroke="rgb(255, 112, 67)" stroke-width="2px" d="M91.3492,59.22440457344055L94.18173333333334,107.17818334969604L97.01426666666667,31.696520382707774L99.8468,-145.54045466943228L108.3444,424.90182712945074L111.17693333333334,145.94661299748853L114.00946666666667,228.02471062270078L116.842,197.5737428556789L119.67453333333334,242.5393554730849L122.50706666666667,335.9218778014183L125.3396,303.1739198782227L128.17213333333333,240.63429457491094L131.00466666666668,-52.6602869250558L133.8372,404.48543122139847L136.66973333333334,340.16143711046743L139.50226666666666,272.50304876674306L142.3348,219.77181926640597L145.16733333333332,300.5542563199997L147.9998666666667,425.87074343724686L150.8324,206.5174005681818L153.66493333333335,288.5182286284187L156.4974666666667,243.00788862054998L159.33,270.92304234071213L162.16253333333336,428.5782761627978L164.99506666666667,311.75808721238917L167.82760000000002,199.6247403079813L170.66013333333336,309.24608386646617L173.49266666666668,115.83667591485113L176.32520000000002,226.723417412151L179.15773333333334,430.0594041726806L181.99026666666668,217.15827480229464L184.8228,215.04664967276832L187.65533333333335,419.1339024522088L190.4878666666667,339.6704246130857L193.3204,292.3929721550508L196.15293333333335,237.85228300094604L198.98546666666667,212.88207773728803L201.818,199.14729734984311L204.65053333333336,111.00361568277532L207.48306666666667,402.52890848571604L210.31560000000002,287.6372326937589L213.14813333333333,204.71582660891792L215.98066666666668,325.64925013888967L218.8132,339.50743652473795L221.64573333333334,220.7209189263257L224.47826666666668,235.01261368664828L230.14333333333335,258.0315704128959L232.97586666666666,294.81126887148076L227.3108,232.3131458759308L235.8084,280.14520844546234L238.64093333333332,305.9381118308414L241.47346666666667,298.7522471113639L244.306,256.2669158415361L247.13853333333333,260.151081236926L249.97106666666667,215.71913555535403L252.8036,230.63103506781837L255.63613333333333,212.98643517494202L258.4686666666667,216.5441123355519L261.3012,302.9552198702639L264.13373333333334,341.35468606515366L266.9662666666667,378.8030299706893L269.7988,236.56051407077095L272.6313333333333,203.11334083297035L275.4638666666667,414.30450343543833L278.2964,318.6503378261219L281.12893333333335,285.776669643142L283.96146666666664,216.75313444571063L286.79400000000004,287.9737572669983L289.6265333333333,424.29322049292654L292.4590666666667,382.50049898841166L295.2916,221.10757398605347L298.12413333333336,270.9081926562569L300.95666666666665,204.92182757637718L303.7892,276.68082826787776L306.62173333333334,316.20569572123617L309.4542666666667,197.9671570821242L312.28679999999997,369.05672121047974L315.1193333333334,261.6088593981483L317.95186666666666,365.29335031726146L320.7844,340.7563205903227L323.6169333333333,334.65333070538264L326.4494666666667,332.1674935275858L329.28200000000004,287.6770708127455L332.1145333333333,353.98989852450114L334.94706666666673,204.73784510655835L337.7796,337.5984583822164L340.61213333333336,244.1364646391435L343.44466666666665,353.1110532337969L346.27720000000005,263.7544851844961L349.10973333333334,325.858553880995L351.9422666666667,386.9046593687751L354.7748,278.3069711273367L357.6073333333334,357.2147891358896L360.43986666666666,309.1033220724626L363.27240000000006,373.71563048796224L366.10493333333335,322.5196791399609L368.9374666666667,207.78459071029314L371.77,337.00290922685105L374.6025333333334,279.1179687218233L377.43506666666667,261.3584629947489L380.2676,331.1145484880968L383.10013333333336,217.67591432007876L385.9326666666667,298.78783514824784L388.7652,242.00886329737577L391.59773333333334,313.5634760043838L394.4302666666667,259.89428410746837L397.2628,365.50777464021337L400.0953333333333,220.20532764088026L402.9278666666667,307.5199360630729L405.7604,321.1664376367222L408.59293333333335,439.8929420276122L411.42546666666664,234.3669084418904L414.25800000000004,274.57012484290385L417.0905333333333,196.5273521596735L419.92306666666667,374.368786177852L422.7556,217.78298566558144L425.58813333333336,262.4842226938768L428.42066666666665,393.48560426993805L431.25320000000005,226.74753534793854L434.08573333333334,199.96653907949275L436.9182666666667,340.4929691173814L439.75079999999997,222.50974263928154L442.58333333333337,382.1955683989959L445.4158666666667,317.3925951556726L448.2484,170.7805083990097L451.0809333333334,434.62901052019816L453.9134666666667,326.1727271188389L456.74600000000004,291.87656157666987L459.5785333333333,291.63512618975204L462.4110666666667,320.03594140031123L465.2436,311.3787545832721L468.07613333333336,303.4053445295854L470.9086666666667,310.2643113678152L473.74120000000005,327.0199784257195L476.57373333333334,281.40046763420105L479.4062666666667,364.5570107915185L482.2388,410.24913141944194L485.07133333333337,302.42134811119604L487.90386666666666,245.20354248176923L490.73640000000006,360.7584103020755L493.56893333333335,233.2170820127834L496.4014666666667,243.0266299464486L499.234,315.9725300723856L502.0665333333334,332.36599284410477L504.89906666666667,378.51397318189794L507.7316,296.6795383962718L510.56413333333336,337.24342290921646L513.3966666666666,301.7352158806541L516.2292,240.73419710722837L519.0617333333333,240.84408477219668L521.8942666666667,332.5581938461824L524.7268,155.40540114316073L527.5593333333334,347.1132400794463L530.3918666666667,334.10325230793524L533.2244000000001,271.7560072270307L536.0569333333334,213.30974864959717L538.8894666666666,338.1042181524364L541.722,459.2749806046486L544.5545333333334,481.91373420303523L547.3870666666667,328.60697444460607L550.2196,218.55685904893008L553.0521333333335,275.4994078549472L555.8846666666667,291.82248824292964L558.7172,363.7398941029202L561.5497333333333,409.0563945228403L567.2148000000001,425.2637753865936L570.0473333333333,344.9020708582618L572.8798666666667,318.4754699902101L575.7124000000001,341.861469951543L578.5449333333333,155.82237004150045L581.3774666666667,354.74346880479294L584.21,356.4384834766388L587.0425333333334,149.3373592224988L589.8750666666667,201.01011345603249L592.7076000000001,243.37708249959078L595.5401333333333,310.83169732852417L598.3726666666668,247.96619826013392L601.2052,335.3455308242278L604.0377333333333,266.2894287326119L606.8702666666667,369.0661686821418L609.7028,246.68313431739807L612.5353333333334,196.01191449165344L615.3678666666667,276.1357424367558L618.2004,304.55460769479924L621.0329333333334,214.73214359716937L623.8654666666667,175.54387752576307L626.698,358.4389920017936L629.5305333333333,236.92515063285828L632.3630666666668,282.02778999371964L635.1956,272.4772922450846L638.0281333333334,240.85355784676293L640.8606666666667,346.4366577321833L643.6932,223.40200385180387L646.5257333333334,355.73637503385544L649.3582666666666,340.7518912878904L652.1908,362.17619672688573L655.0233333333334,373.65282656387853L657.8558666666667,280.39790911024267L660.6884,219.6022768345746L663.5209333333333,380.3487285050479L666.3534666666667,381.468138683926L669.186,257.69647960229355L672.0185333333334,166.60687656836078L674.8510666666666,282.5354955846613L677.6836000000001,326.09865791689265L680.5161333333334,384.7577278343114L683.3486666666666,316.8592098517852L686.1812000000001,244.09744581309232L689.0137333333333,278.52966518835586L691.8462666666667,192.25986008210614L694.6788,119.26208847219294L697.5113333333334,250.72127557884562L700.3438666666667,347.91399651223963L703.1764000000001,358.066853788766L706.0089333333333,292.546128728173L708.8414666666667,303.4131278124723L711.6740000000001,245.99006369980899L714.5065333333333,273.9129494970495L717.3390666666667,-125.378372409127L720.1716000000001,262.6748619187962L723.0041333333334,233.69411532445386L725.8366666666667,286.8936731490222L728.6692,390.9802064733072L731.5017333333334,149.79990129037336L734.3342666666667,116.37367122823542L737.1668,417.03973850336945L739.9993333333333,285.28299444372004L742.8318666666668,309.57805112275213L745.6644,290.3309654539282L748.4969333333333,336.3001095056534L751.3294666666667,130.5709936835549L754.162,353.24039910598236L756.9945333333334,275.1084003014998L759.8270666666667,220.9397213459015L762.6596,293.0763136690313L765.4921333333334,360.6188744740053L768.3246666666668,331.12962859869003L771.1572,336.8380265235901L773.9897333333333,342.3900675123388L776.8222666666667,363.5783653801138L779.6548,335.85351804711604L782.4873333333334,292.3983487649397L785.3198666666666,334.15369002927434L788.1524000000001,370.0184174992822L790.9849333333334,275.61093410578644L793.8174666666666,333.5268541249362L796.6500000000001,324.43764390186834L799.4825333333334,352.84969878738576L802.3150666666667,267.3602445992557L805.1476,328.2792828733271L807.9801333333335,231.74476140195674L810.8126666666667,253.0687034563585L813.6452,266.9478842236779L816.4777333333334,339.7793905735016L819.3102666666667,213.23247908462176L822.1428000000001,398.93052270737564L824.9753333333333,168.70339598438954L827.8078666666667,172.99490358612752L830.6404000000001,320.68899467858404L833.4729333333333,383.9076858108694L836.3054666666667,191.13235938549042L839.138,164.71164718541232L841.9705333333334,239.5305533734235L844.8030666666667,361.02035361528397L847.6356000000001,321.13013271851975L850.4681333333333,341.72695229270244L853.3006666666668,410.19833525744355L856.1332000000001,258.6658567623659L858.9657333333333,359.15338983860886L861.7982666666667,366.1675870852037L864.6308,388.69647862152624L867.4633333333334,374.3207551295107L870.2958666666667,329.3053704662757L873.1283999999999,239.35281801223755L875.9609333333334,176.51904094219208L878.7934666666667,266.41636793179947L881.626,455.5379807027904L884.4585333333333,185.731836383993L887.2910666666668,338.5919790809805L890.1236,234.5906266190789L892.9561333333334,282.4416865435514L895.7886666666667,420.8424354574897L898.6212,326.6854508790103L901.4537333333334,329.1450706828724L904.2862666666667,326.78376603126526L907.1188,285.3352243683555L909.9513333333334,392.5744481140917L912.7838666666667,271.09668123722076L915.6164,305.68858592618597L918.4489333333335,233.75735449790955L921.2814666666667,250.2668240287087L924.114,317.23380594361913L926.9465333333334,325.66333173621786L929.7790666666667,172.00499289686027L932.6116000000001,374.0529743541371L935.4441333333334,296.9814990487966L938.2766666666666,281.04863252423024L941.1092000000001,128.22796950557014L943.9417333333334,127.11588175730273L946.7742666666667,301.68928427045995L949.6068,271.4608569470319L952.4393333333334,196.39897919784892L955.2718666666667,237.28195270625028L958.1044,172.12194696339694L960.9369333333333,286.9757048541849L963.7694666666667,393.85653914646673L966.6020000000001,300.13941246271133L969.4345333333333,381.69510842995214L972.2670666666667,378.02777403051203L975.0996000000001,346.7778420339931L977.9321333333334,242.01936048811132L980.7646666666667,274.2906947461042L983.5972,133.89522356336764L986.4297333333334,181.60848865725777L989.2622666666667,325.45364395054906L992.0948000000001,156.6770973964171L994.9273333333333,215.00957666743884L997.7598666666668,368.4407665404407L1000.5924,364.0125650330024L1003.4249333333333,369.3543293692849L1006.2574666666667,288.8255146850239L1009.09,297.236734401096L1011.9225333333334,371.8909627090801L1014.7550666666667,413.3169738162648L1020.4201333333334,-6.936162666841028L1023.2526666666668,201.5448557138443" style="fill: none;" fill="none"></path></g></g></g></g></g></g><g transform="translate(50, 378)" clip-path="url(#clip_1)"><clipPath id="clip_1"><rect width="1062" height="22"></rect></clipPath><g><g><line x1="0" y1="0" x2="0" y2="5" style="visibility: inherit;" fill="rgb(0, 0, 0)" stroke="rgb(204, 204, 204)" stroke-width="1px"></line><line x1="88.51666666666667" y1="0" x2="88.51666666666667" y2="5" style="visibility: inherit;" fill="rgb(0, 0, 0)" stroke="rgb(204, 204, 204)" stroke-width="1px"></line><line x1="177.03333333333333" y1="0" x2="177.03333333333333" y2="5" style="visibility: inherit;" fill="rgb(0, 0, 0)" stroke="rgb(204, 204, 204)" stroke-width="1px"></line><line x1="265.55" y1="0" x2="265.55" y2="5" style="visibility: inherit;" fill="rgb(0, 0, 0)" stroke="rgb(204, 204, 204)" stroke-width="1px"></line><line x1="354.06666666666666" y1="0" x2="354.06666666666666" y2="5" style="visibility: inherit;" fill="rgb(0, 0, 0)" stroke="rgb(204, 204, 204)" stroke-width="1px"></line><line x1="442.58333333333337" y1="0" x2="442.58333333333337" y2="5" style="visibility: inherit;" fill="rgb(0, 0, 0)" stroke="rgb(204, 204, 204)" stroke-width="1px"></line><line x1="531.1" y1="0" x2="531.1" y2="5" style="visibility: inherit;" fill="rgb(0, 0, 0)" stroke="rgb(204, 204, 204)" stroke-width="1px"></line><line x1="619.6166666666668" y1="0" x2="619.6166666666668" y2="5" style="visibility: inherit;" fill="rgb(0, 0, 0)" stroke="rgb(204, 204, 204)" stroke-width="1px"></line><line x1="708.1333333333333" y1="0" x2="708.1333333333333" y2="5" style="visibility: inherit;" fill="rgb(0, 0, 0)" stroke="rgb(204, 204, 204)" stroke-width="1px"></line><line x1="796.6500000000001" y1="0" x2="796.6500000000001" y2="5" style="visibility: inherit;" fill="rgb(0, 0, 0)" stroke="rgb(204, 204, 204)" stroke-width="1px"></line><line x1="885.1666666666667" y1="0" x2="885.1666666666667" y2="5" style="visibility: inherit;" fill="rgb(0, 0, 0)" stroke="rgb(204, 204, 204)" stroke-width="1px"></line><line x1="973.6833333333333" y1="0" x2="973.6833333333333" y2="5" style="visibility: inherit;" fill="rgb(0, 0, 0)" stroke="rgb(204, 204, 204)" stroke-width="1px"></line><line x1="1062.2" y1="0" x2="1062.2" y2="5" style="visibility: inherit;" fill="rgb(0, 0, 0)" stroke="rgb(204, 204, 204)" stroke-width="1px"></line></g><g transform="translate(0, 8)"><text x="0" y="0" dx="0em" dy="0.95em" style="text-anchor: middle; visibility: hidden; font-family: &quot;Helvetica Neue&quot;, sans-serif; font-size: 12px; font-weight: 200;" fill="rgb(50, 49, 63)" stroke="none" stroke-width="1px">-2k</text><text x="88.51666666666667" y="0" dx="0em" dy="0.95em" style="text-anchor: middle; visibility: inherit; font-family: &quot;Helvetica Neue&quot;, sans-serif; font-size: 12px; font-weight: 200;" fill="rgb(50, 49, 63)" stroke="none" stroke-width="1px">0</text><text x="177.03333333333333" y="0" dx="0em" dy="0.95em" style="text-anchor: middle; visibility: inherit; font-family: &quot;Helvetica Neue&quot;, sans-serif; font-size: 12px; font-weight: 200;" fill="rgb(50, 49, 63)" stroke="none" stroke-width="1px">2k</text><text x="265.55" y="0" dx="0em" dy="0.95em" style="text-anchor: middle; visibility: inherit; font-family: &quot;Helvetica Neue&quot;, sans-serif; font-size: 12px; font-weight: 200;" fill="rgb(50, 49, 63)" stroke="none" stroke-width="1px">4k</text><text x="354.06666666666666" y="0" dx="0em" dy="0.95em" style="text-anchor: middle; visibility: inherit; font-family: &quot;Helvetica Neue&quot;, sans-serif; font-size: 12px; font-weight: 200;" fill="rgb(50, 49, 63)" stroke="none" stroke-width="1px">6k</text><text x="442.58333333333337" y="0" dx="0em" dy="0.95em" style="text-anchor: middle; visibility: inherit; font-family: &quot;Helvetica Neue&quot;, sans-serif; font-size: 12px; font-weight: 200;" fill="rgb(50, 49, 63)" stroke="none" stroke-width="1px">8k</text><text x="531.1" y="0" dx="0em" dy="0.95em" style="text-anchor: middle; visibility: inherit; font-family: &quot;Helvetica Neue&quot;, sans-serif; font-size: 12px; font-weight: 200;" fill="rgb(50, 49, 63)" stroke="none" stroke-width="1px">10k</text><text x="619.6166666666668" y="0" dx="0em" dy="0.95em" style="text-anchor: middle; visibility: inherit; font-family: &quot;Helvetica Neue&quot;, sans-serif; font-size: 12px; font-weight: 200;" fill="rgb(50, 49, 63)" stroke="none" stroke-width="1px">12k</text><text x="708.1333333333333" y="0" dx="0em" dy="0.95em" style="text-anchor: middle; visibility: inherit; font-family: &quot;Helvetica Neue&quot;, sans-serif; font-size: 12px; font-weight: 200;" fill="rgb(50, 49, 63)" stroke="none" stroke-width="1px">14k</text><text x="796.6500000000001" y="0" dx="0em" dy="0.95em" style="text-anchor: middle; visibility: inherit; font-family: &quot;Helvetica Neue&quot;, sans-serif; font-size: 12px; font-weight: 200;" fill="rgb(50, 49, 63)" stroke="none" stroke-width="1px">16k</text><text x="885.1666666666667" y="0" dx="0em" dy="0.95em" style="text-anchor: middle; visibility: inherit; font-family: &quot;Helvetica Neue&quot;, sans-serif; font-size: 12px; font-weight: 200;" fill="rgb(50, 49, 63)" stroke="none" stroke-width="1px">18k</text><text x="973.6833333333333" y="0" dx="0em" dy="0.95em" style="text-anchor: middle; visibility: inherit; font-family: &quot;Helvetica Neue&quot;, sans-serif; font-size: 12px; font-weight: 200;" fill="rgb(50, 49, 63)" stroke="none" stroke-width="1px">20k</text><text x="1062.2" y="0" dx="0em" dy="0.95em" style="text-anchor: middle; visibility: hidden; font-family: &quot;Helvetica Neue&quot;, sans-serif; font-size: 12px; font-weight: 200;" fill="rgb(50, 49, 63)" stroke="none" stroke-width="1px">22k</text></g><line x1="0" y1="0" x2="1062.2" y2="0" fill="rgb(0, 0, 0)" stroke="rgb(204, 204, 204)" stroke-width="1px"></line></g></g></g></g></svg>