<svg viewBox="0 0 1129 400" xmlns="http://www.w3.org/2000/svg"><g><g><g><g><g><line x1="50" y1="375.49342145239376" x2="45" y2="375.49342145239376" style="visibility: inherit;" fill="rgb(0, 0, 0)" stroke="rgb(204, 204, 204)" stroke-width="1px"></line><line x1="50" y1="348.2393864054564" x2="45" y2="348.2393864054564" style="visibility: inherit;" fill="rgb(0, 0, 0)" stroke="rgb(204, 204, 204)" stroke-width="1px"></line><line x1="50" y1="320.985351358519" x2="45" y2="320.985351358519" style="visibility: inherit;" fill="rgb(0, 0, 0)" stroke="rgb(204, 204, 204)" stroke-width="1px"></line><line x1="50" y1="293.7313163115816" x2="45" y2="293.7313163115816" style="visibility: inherit;" fill="rgb(0, 0, 0)" stroke="rgb(204, 204, 204)" stroke-width="1px"></line><line x1="50" y1="266.47728126464426" x2="45" y2="266.47728126464426" style="visibility: inherit;" fill="rgb(0, 0, 0)" stroke="rgb(204, 204, 204)" stroke-width="1px"></line><line x1="50" y1="239.22324621770684" x2="45" y2="239.22324621770684" style="visibility: inherit;" fill="rgb(0, 0, 0)" stroke="rgb(204, 204, 204)" stroke-width="1px"></line><line x1="50" y1="211.96921117076948" x2="45" y2="211.96921117076948" style="visibility: inherit;" fill="rgb(0, 0, 0)" stroke="rgb(204, 204, 204)" stroke-width="1px"></line><line x1="50" y1="184.7151761238321" x2="45" y2="184.7151761238321" style="visibility: inherit;" fill="rgb(0, 0, 0)" stroke="rgb(204, 204, 204)" stroke-width="1px"></line><line x1="50" y1="157.46114107689473" x2="45" y2="157.46114107689473" style="visibility: inherit;" fill="rgb(0, 0, 0)" stroke="rgb(204, 204, 204)" stroke-width="1px"></line><line x1="50" y1="130.20710602995734" x2="45" y2="130.20710602995734" style="visibility: inherit;" fill="rgb(0, 0, 0)" stroke="rgb(204, 204, 204)" stroke-width="1px"></line><line x1="50" y1="102.95307098301993" x2="45" y2="102.95307098301993" style="visibility: inherit;" fill="rgb(0, 0, 0)" stroke="rgb(204, 204, 204)" stroke-width="1px"></line><line x1="50" y1="75.69903593608257" x2="45" y2="75.69903593608257" style="visibility: inherit;" fill="rgb(0, 0, 0)" stroke="rgb(204, 204, 204)" stroke-width="1px"></line><line x1="50" y1="48.445000889145206" x2="45" y2="48.445000889145206" style="visibility: inherit;" fill="rgb(0, 0, 0)" stroke="rgb(204, 204, 204)" stroke-width="1px"></line><line x1="50" y1="21.190965842207845" x2="45" y2="21.190965842207845" style="visibility: inherit;" fill="rgb(0, 0, 0)" stroke="rgb(204, 204, 204)" stroke-width="1px"></line></g><g transform="translate(40, 0)"><text x="0" y="375.49342145239376" dx="0em" dy="0.3em" style="text-anchor: end; visibility: hidden; font-family: &quot;Helvetica Neue&quot;, sans-serif; font-size: 12px; font-weight: 200;" fill="rgb(50, 49, 63)" stroke="none" stroke-width="1px">-0.1</text><text x="0" y="348.2393864054564" dx="0em" dy="0.3em" style="text-anchor: end; visibility: inherit; font-family: &quot;Helvetica Neue&quot;, sans-serif; font-size: 12px; font-weight: 200;" fill="rgb(50, 49, 63)" stroke="none" stroke-width="1px">0</text><text x="0" y="320.985351358519" dx="0em" dy="0.3em" style="text-anchor: end; visibility: inherit; font-family: &quot;Helvetica Neue&quot;, sans-serif; font-size: 12px; font-weight: 200;" fill="rgb(50, 49, 63)" stroke="none" stroke-width="1px">0.1</text><text x="0" y="293.7313163115816" dx="0em" dy="0.3em" style="text-anchor: end; visibility: inherit; font-family: &quot;Helvetica Neue&quot;, sans-serif; font-size: 12px; font-weight: 200;" fill="rgb(50, 49, 63)" stroke="none" stroke-width="1px">0.2</text><text x="0" y="266.47728126464426" dx="0em" dy="0.3em" style="text-anchor: end; visibility: inherit; font-family: &quot;Helvetica Neue&quot;, sans-serif; font-size: 12px; font-weight: 200;" fill="rgb(50, 49, 63)" stroke="none" stroke-width="1px">0.3</text><text x="0" y="239.22324621770684" dx="0em" dy="0.3em" style="text-anchor: end; visibility: inherit; font-family: &quot;Helvetica Neue&quot;, sans-serif; font-size: 12px; font-weight: 200;" fill="rgb(50, 49, 63)" stroke="none" stroke-width="1px">0.4</text><text x="0" y="211.96921117076948" dx="0em" dy="0.3em" style="text-anchor: end; visibility: inherit; font-family: &quot;Helvetica Neue&quot;, sans-serif; font-size: 12px; font-weight: 200;" fill="rgb(50, 49, 63)" stroke="none" stroke-width="1px">0.5</text><text x="0" y="184.7151761238321" dx="0em" dy="0.3em" style="text-anchor: end; visibility: inherit; font-family: &quot;Helvetica Neue&quot;, sans-serif; font-size: 12px; font-weight: 200;" fill="rgb(50, 49, 63)" stroke="none" stroke-width="1px">0.6</text><text x="0" y="157.46114107689473" dx="0em" dy="0.3em" style="text-anchor: end; visibility: inherit; font-family: &quot;Helvetica Neue&quot;, sans-serif; font-size: 12px; font-weight: 200;" fill="rgb(50, 49, 63)" stroke="none" stroke-width="1px">0.7</text><text x="0" y="130.20710602995734" dx="0em" dy="0.3em" style="text-anchor: end; visibility: inherit; font-family: &quot;Helvetica Neue&quot;, sans-serif; font-size: 12px; font-weight: 200;" fill="rgb(50, 49, 63)" stroke="none" stroke-width="1px">0.8</text><text x="0" y="102.95307098301993" dx="0em" dy="0.3em" style="text-anchor: end; visibility: inherit; font-family: &quot;Helvetica Neue&quot;, sans-serif; font-size: 12px; font-weight: 200;" fill="rgb(50, 49, 63)" stroke="none" stroke-width="1px">0.9</text><text x="0" y="75.69903593608257" dx="0em" dy="0.3em" style="text-anchor: end; visibility: inherit; font-family: &quot;Helvetica Neue&quot;, sans-serif; font-size: 12px; font-weight: 200;" fill="rgb(50, 49, 63)" stroke="none" stroke-width="1px">1</text><text x="0" y="48.445000889145206" dx="0em" dy="0.3em" style="text-anchor: end; visibility: inherit; font-family: &quot;Helvetica Neue&quot;, sans-serif; font-size: 12px; font-weight: 200;" fill="rgb(50, 49, 63)" stroke="none" stroke-width="1px">1.1</text><text x="0" y="21.190965842207845" dx="0em" dy="0.3em" style="text-anchor: end; visibility: inherit; font-family: &quot;Helvetica Neue&quot;, sans-serif; font-size: 12px; font-weight: 200;" fill="rgb(50, 49, 63)" stroke="none" stroke-width="1px">1.2</text></g><line x1="50" y1="0" x2="50" y2="378" fill="rgb(0, 0, 0)" stroke="rgb(204, 204, 204)" stroke-width="1px"></line></g></g><g transform="translate(50, 0)" clip-path="url(#clip_0)"><clipPath id="clip_0"><rect width="1079" height="378"></rect></clipPath><g><g><g><line x1="34.47560879586426" y1="0" x2="34.47560879586426" y2="378" fill="rgb(0, 0, 0)" stroke="rgb(60, 60, 60)" stroke-width="1px" opacity="0.25"></line><line x1="193.10746520820797" y1="0" x2="193.10746520820797" y2="378" fill="rgb(0, 0, 0)" stroke="rgb(60, 60, 60)" stroke-width="1px" opacity="0.25"></line><line x1="351.73932162055166" y1="0" x2="351.73932162055166" y2="378" fill="rgb(0, 0, 0)" stroke="rgb(60, 60, 60)" stroke-width="1px" opacity="0.25"></line><line x1="510.3711780328954" y1="0" x2="510.3711780328954" y2="378" fill="rgb(0, 0, 0)" stroke="rgb(60, 60, 60)" stroke-width="1px" opacity="0.25"></line><line x1="669.0030344452391" y1="0" x2="669.0030344452391" y2="378" fill="rgb(0, 0, 0)" stroke="rgb(60, 60, 60)" stroke-width="1px" opacity="0.25"></line><line x1="827.6348908575828" y1="0" x2="827.6348908575828" y2="378" fill="rgb(0, 0, 0)" stroke="rgb(60, 60, 60)" stroke-width="1px" opacity="0.25"></line><line x1="986.2667472699266" y1="0" x2="986.2667472699266" y2="378" fill="rgb(0, 0, 0)" stroke="rgb(60, 60, 60)" stroke-width="1px" opacity="0.25"></line></g><g><line x1="0" y1="375.49342145239376" x2="1079" y2="375.49342145239376" fill="rgb(0, 0, 0)" stroke="rgb(60, 60, 60)" stroke-width="1px" opacity="0.25"></line><line x1="0" y1="348.2393864054564" x2="1079" y2="348.2393864054564" fill="rgb(0, 0, 0)" stroke="rgb(60, 60, 60)" stroke-width="1px" opacity="0.25"></line><line x1="0" y1="320.985351358519" x2="1079" y2="320.985351358519" fill="rgb(0, 0, 0)" stroke="rgb(60, 60, 60)" stroke-width="1px" opacity="0.25"></line><line x1="0" y1="293.7313163115816" x2="1079" y2="293.7313163115816" fill="rgb(0, 0, 0)" stroke="rgb(60, 60, 60)" stroke-width="1px" opacity="0.25"></line><line x1="0" y1="266.47728126464426" x2="1079" y2="266.47728126464426" fill="rgb(0, 0, 0)" stroke="rgb(60, 60, 60)" stroke-width="1px" opacity="0.25"></line><line x1="0" y1="239.22324621770684" x2="1079" y2="239.22324621770684" fill="rgb(0, 0, 0)" stroke="rgb(60, 60, 60)" stroke-width="1px" opacity="0.25"></line><line x1="0" y1="211.96921117076948" x2="1079" y2="211.96921117076948" fill="rgb(0, 0, 0)" stroke="rgb(60, 60, 60)" stroke-width="1px" opacity="0.25"></line><line x1="0" y1="184.7151761238321" x2="1079" y2="184.7151761238321" fill="rgb(0, 0, 0)" stroke="rgb(60, 60, 60)" stroke-width="1px" opacity="0.25"></line><line x1="0" y1="157.46114107689473" x2="1079" y2="157.46114107689473" fill="rgb(0, 0, 0)" stroke="rgb(60, 60, 60)" stroke-width="1px" opacity="0.25"></line><line x1="0" y1="130.20710602995734" x2="1079" y2="130.20710602995734" fill="rgb(0, 0, 0)" stroke="rgb(60, 60, 60)" stroke-width="1px" opacity="0.25"></line><line x1="0" y1="102.95307098301993" x2="1079" y2="102.95307098301993" fill="rgb(0, 0, 0)" stroke="rgb(60, 60, 60)" stroke-width="1px" opacity="0.25"></line><line x1="0" y1="75.69903593608257" x2="1079" y2="75.69903593608257" fill="rgb(0, 0, 0)" stroke="rgb(60, 60, 60)" stroke-width="1px" opacity="0.25"></line><line x1="0" y1="48.445000889145206" x2="1079" y2="48.445000889145206" fill="rgb(0, 0, 0)" stroke="rgb(60, 60, 60)" stroke-width="1px" opacity="0.25"></line><line x1="0" y1="21.190965842207845" x2="1079" y2="21.190965842207845" fill="rgb(0, 0, 0)" stroke="rgb(60, 60, 60)" stroke-width="1px" opacity="0.25"></line></g></g></g><g><g><line x1="0" y1="348.2393864054564" x2="1079" y2="348.2393864054564" fill="rgb(0, 0, 0)" stroke="rgb(153, 153, 153)" stroke-width="1.5px"></line></g></g><g><g><line x1="34.47560879586426" y1="0" x2="34.47560879586426" y2="378" fill="rgb(0, 0, 0)" stroke="rgb(153, 153, 153)" stroke-width="1.5px"></line></g></g><g><g><g><g><g><path stroke="rgb(255, 112, 67)" stroke-width="2px" d="M34.47560879586426,209.16443880380817L37.64824592411114,207.8289644192567L40.82088305235801,215.57167050649676L43.99352018060488,224.7673343657189L47.16615730885176,231.65185114208023L50.338794437098635,236.90274722156983L53.51143156534552,240.40053768549177L56.68406869359239,242.38024991794572L59.85670582183926,243.5941896559655L63.02934295008613,245.20521009728003L66.20198007833301,246.51256405935345L69.37461720657988,247.20159055654054L72.54725433482675,247.3401077589857L75.71989146307364,247.55694882529605L78.89252859132051,247.91765589498812L82.06516571956739,248.26882898294568L85.23780284781425,248.57856875097892L88.41043997606113,249.29684642032268L91.583077104308,250.4340696444405L94.75571423255488,250.9831910662395L97.92835136080174,251.14179208903926L101.10098848904862,251.24309017697672L104.27362561729551,251.3636649653012L107.44626274554238,252.1892128235645L110.61889987378925,252.66718233750615L113.79153700203612,253.17344357928653L116.964174130283,253.22856860074788L120.13681125852987,252.98434382344254L123.30944838677674,252.65120832676618L126.48208551502361,252.85192800745233L129.65472264327047,252.9477044581185L132.82735977151737,252.7946047594378L135.99999689976423,252.92774727075243L139.17263402801112,252.79073463287585L142.34527115625798,252.5449785848341L145.51790828450487,252.3949251118595L148.69054541275176,251.72496271186395L151.8631825409986,251.61186205691467L155.03581966924548,251.64050271218545L158.20845679749235,251.66050534039329L161.38109392573924,251.62905238063018L164.5537310539861,251.52182753029635L167.726368182233,250.95593463017096L170.89900531047985,250.94353096161805L174.07164243872674,250.10133966646367L177.24427956697363,249.61849599012783L180.41691669522046,250.76175585524396L183.58955382346736,251.52582092430555L186.76219095171422,251.6587908379251L189.9348280799611,251.55615249957367L193.10746520820797,251.7571073521114L196.28010233645486,250.7291281496603L199.45273946470172,250.75049278711842L202.62537659294858,250.86423592362587L205.79801372119545,251.8873261459084L208.9706508494423,247.48426553312106L212.1432879776892,243.7782381505996L215.31592510593606,241.32679367547507L218.48856223418295,251.71262325728694L221.66119936242984,260.23599727439716L224.8338364906767,268.06166198676027L228.00647361892356,273.05250234057564L231.17911074717043,274.08339342748405L234.35174787541732,276.34215151610397L237.52438500366418,279.1316389074543L240.69702213191107,280.4588197153954L243.86965926015793,280.74857655471305L247.04229638840482,280.5815930916799L250.2149335166517,281.6257110964504L253.38757064489855,283.9024448444031L256.56020777314546,281.82481374298084L259.7328449013923,283.2982004119445L262.9054820296392,283.1404645750301L266.078119157886,283.9602575730153L269.2507562861329,285.32465691305663L272.4233934143798,283.7565223943666L275.5960305426267,282.9071439111804L278.7686676708735,282.86397008631315L281.9413047991205,283.3789525130845L285.1139419273673,283.4220284684188L288.2865790556142,283.5769930141705L291.45921618386103,283.891716886502L294.6318533121079,284.56293663526867L297.8044904403548,284.42531348600215L300.97712756860165,284.64056404738017L304.1497646968486,284.0513410349282L307.3224018250954,284.2110014848115L310.4950389533423,284.66568552196316L313.66767608158915,285.53553871938135L316.84031320983604,283.61049390498715L320.01295033808293,282.96540945857413L323.18558746632976,284.30390093529826L326.35822459457665,285.6535663795868L329.53086172282354,287.2069056135397L332.70349885107044,284.8962802543484L335.87613597931727,282.63724789637405L339.0487731075642,284.9089857430296L342.22141023581105,286.82924620998836L345.3940473640579,288.94555096468497L348.5666844923048,286.3427256942868L351.73932162055166,284.44473365221035L354.91195874879855,283.0626214352252L358.0845958770454,283.59306403762605L361.25723300529233,282.6696351478154L364.42987013353917,282.3115038600843L367.602507261786,283.2749377127851L370.7751443900329,282.39504592809965L373.9477815182798,280.8275674263137L377.1204186465267,278.7606038311918L380.2930557747735,277.58050662745075L383.4656929030204,279.7389514266157L386.6383300312673,279.68677773616037L389.8109671595141,280.2692256381938L392.983604287761,280.5981585373486L396.1562414160079,282.75319657808063L399.3288785442548,281.5415567110312L402.5015156725016,282.9713503923297L405.6741528007485,283.28022306741155L408.8467899289954,284.2929861485977L412.0194270572423,284.7868990655526L415.19206418548913,284.9216029595591L418.364701313736,285.2844009080903L421.5373384419829,286.2975043739394L424.70997557022974,287.6751438353136L427.88261269847663,289.2158192792393L431.0552498267235,285.7932299202614L434.2278869549704,285.659721730588L437.40052408321725,285.8121248925647L440.5731612114641,284.33579436970916L443.74579833971103,249.8012969966867L446.91843546795786,230.00330551922127L450.09107259620475,206.75721900358178L453.26370972445164,193.96861233367196L456.43634685269853,178.02074326023862L459.60898398094537,166.03499580961957L462.78162110919226,161.9877409572588L465.95425823743915,152.94257123859717L469.126895365686,151.07759290287711L472.2995324939329,144.2511105191668L475.47216962217976,143.38480446687035L478.64480675042665,142.96300014192565L481.8174438786735,140.45258829552625L484.9900810069204,138.46965248776493L488.16271813516727,136.52259742482778L491.3353552634141,137.36280973422004L494.507992391661,135.53140290457725L497.6806295199078,136.72534160882572L500.8532666481548,136.2227477996711L504.0259037764016,134.10707441506105L507.1985409046485,135.48858298606288L510.3711780328954,136.11378256395233L513.5438151611422,135.82308342523746L516.716452289389,134.145261746737L519.889089417636,134.62833358682488L523.0617265458828,135.88818253426965L526.2343636741298,136.87963183220197L529.4070008023766,137.49844696590407L532.5796379306236,137.2162825463576L535.7522750588704,136.80228827215518L538.9249121871172,135.98292750021722L542.0975493153641,135.28553088099716L545.2701864436109,135.89306799688964L548.4428235718578,132.7995844839605L551.6154607001048,132.21583654979725L554.7880978283516,132.29848313606416L557.9607349565985,132.65012973438536L561.1333720848454,133.30612384663831L564.3060092130922,133.47650265623741L567.4786463413391,134.5865112702713L570.6512834695859,132.3679880391235L573.8239205978329,131.19414104958886L576.9965577260798,130.7305547183972L580.1691948543266,132.82151677563857L583.3418319825735,133.42929880104865L586.5144691108203,133.50079147857954L589.6871062390671,134.08620058451322L592.8597433673141,134.37290920104266L596.032380495561,133.67113806321476L599.2050176238079,135.3044444025002L602.3776547520547,136.54159152341168L605.5502918803016,136.86915369674404L608.7229290085485,133.98256712638187L611.8955661367953,135.03151967254684L615.0682032650421,133.57902650940656L618.2408403932891,134.65034931727337L621.413477521536,135.88945622876125L624.5861146497829,132.69049390978813L627.7587517780297,134.01031751282343L630.9313889062765,131.07876600427426L634.1040260345235,131.96872245916367L637.2766631627703,131.18124927850633L640.4493002910172,129.91931730249152L643.6219374192641,129.65325131591885L646.7945745475109,130.73654131432764L649.9672116757579,129.49575867106333L653.1398488040047,131.42079563850874L656.3124859322515,130.76547816755945L659.4851230604984,130.1101199508297L662.6577601887453,131.40876809586177L665.8303973169923,130.32170106226414L669.0030344452391,129.73693347573098L672.1756715734859,130.506105601071L675.3483087017328,128.5130365147303L678.5209458299797,128.01699390063087L681.6935829582266,130.35040812465758L684.8662200864734,128.17992620123428L688.0388572147203,130.67424423876142L691.2114943429673,132.62459371590455L694.3841314712141,132.09327446709585L697.556768599461,132.31855172005453L700.7294057277078,131.85928581262635L703.9020428559546,131.50510274656435L707.0746799842016,131.1935360516415L710.2473171124485,131.5987382451519L713.4199542406953,132.87567918142037L716.5925913689422,133.76073770870113L719.765228497189,132.4861939387824L722.937865625436,132.8212507529277L726.1105027536828,132.25576590202135L729.2831398819296,131.77657756344894L732.4557770101766,130.69448837060497L735.6284141384235,130.84696800192955L738.8010512666704,131.34080846573832L741.9736883949172,130.8751894450241L745.146325523164,131.3579176640305L748.3189626514109,130.9334066951909L751.4915997796578,131.21273612138182L754.6642369079046,130.69673250177726L757.8368740361516,130.4307002065609L761.0095111643984,131.67126882010734L764.1821482926454,131.98683427115319L767.3547854208922,131.75746319888495L770.527422549139,133.61558356854783L773.7000596773859,133.32284655918576L776.8726968056327,134.02754044177382L780.0453339338798,134.4548760515958L783.2179710621266,135.3867509820627L786.3906081903734,133.85729849685657L789.5632453186203,132.9836629618923L792.7358824468671,133.0829949133482L795.908519575114,132.5451564871305L799.0811567033609,132.5249727131113L802.2537938316078,132.62055329056392L805.4264309598547,131.98070899462795L808.5990680881016,131.53105714482214L811.7717052163484,131.38938138294472L814.9443423445954,130.89868681810276L818.1169794728422,130.97455599487745L821.289616601089,131.2837493141024L824.462253729336,129.80366517269428L827.6348908575828,129.2513336124683L830.8075279858298,130.7629939910771L833.9801651140766,131.65443033153517L837.1528022423236,133.5397493620692L840.3254393705704,133.4568683243273L843.4980764988172,132.54945342852673L846.6707136270641,163.56875967566435L849.8433507553109,188.65798829347705L853.015987883558,207.24549929893007L856.1886250118048,221.37525957407078L859.3612621400516,234.8242642914672L862.5338992682985,242.95986276479292L865.7065363965454,253.00443761751177L868.8791735247922,257.59795410353263L872.0518106530391,261.3449748539517L875.224447781286,265.7057524434767L878.3970849095329,271.187643541175L881.5697220377798,275.0857082689724L884.7423591660266,276.61029549658423L887.9149962942735,279.25558621476625L891.0876334225203,279.0226785727621L894.2602705507671,277.7487538815218L897.4329076790141,278.1334915727874L900.605544807261,280.46796685189946L903.7781819355079,282.4147439063932L906.9508190637547,284.5151306749623L910.1234561920016,283.66351564992215L913.2960933202485,285.57373189772727L916.4687304484953,286.9816374758762L919.6413675767421,285.5481892593874L922.8140047049891,286.45856238649907L925.986641833236,286.4996666414899L929.1592789614829,284.7199144483392L932.3319160897297,285.91213985549257L935.5045532179765,284.32955850949725L938.6771903462235,284.8196113835117L941.8498274744703,283.39538334049354L945.0224646027173,282.9265809157407L948.1951017309641,281.9278605797432L951.3677388592109,281.964688054843L954.5403759874579,283.35249772816144L957.7130131157047,282.36681418259684L960.8856502439515,281.75693923108383L964.0582873721984,281.69823159412886L967.2309245004454,283.1198324567898L970.4035616286923,283.4708816403629L973.5761987569391,283.4194971639996L976.7488358851859,283.80362470536323L979.9214730134328,283.44290526443984L983.0941101416797,282.6798050091762L986.2667472699266,283.9447354956246L989.4393843981735,286.00288460458086L992.6120215264203,287.3333938744263L995.7846586546673,288.37428225595215L998.9572957829141,289.2962988510012L1002.129932911161,285.6220804716147L1005.3025700394078,287.0199622011632L1008.4752071676546,287.11632996644425L1011.6478442959016,284.5229294481144L1014.8204814241485,284.022642525127L1017.9931185523953,284.82714863641075L1021.1657556806422,285.15520485676825L1024.338392808889,285.3925891794471L1027.5110299371358,285.8390560332682L1030.6836670653827,284.60253309404163L1033.8563041936297,284.3202113383103L1037.0289413218766,284.3541086561452L1040.2015784501234,283.72327023441187L1043.3742155783702,284.5145611566131L1046.546852706617,284.0920419910117L1049.7194898348641,283.39690544064297L1052.892126963111,282.68389298648367L1056.0647640913578,283.7048986936627L1059.2374012196046,285.28184257576004L1062.4100383478517,287.24357791795535L1065.5826754760985,285.80185888994606L1068.7553126043454,285.80660685888563L1071.9279497325922,284.1701840746493L1075.100586860839,283.5442910144929L1078.2732239890859,284.6072130376126L1081.4458611173327,285.82482804216556" style="fill: none;" fill="none"></path></g></g></g></g><g opacity="0.2"><g><g><g><path stroke="rgb(255, 112, 67)" stroke-width="2px" d="M34.47560879586426,209.16443880380817L37.64824592411114,206.7605849116155L40.82088305235801,226.72116727212256L43.99352018060488,242.71727021892056L47.16615730885176,247.91032596113507L50.338794437098635,251.02387703021967L53.51143156534552,250.724000407682L56.68406869359239,248.63839586067542L59.85670582183926,247.63528744021497L63.02934295008613,250.78438184895896L66.20198007833301,251.18047565650693L69.37461720657988,249.7209488435693L72.54725433482675,247.8561012500825L75.71989146307364,248.3766292357799L78.89252859132051,249.29702791498084L82.06516571956739,249.62409811639867L85.23780284781425,249.78265422551453L88.41043997606113,252.10526039681758L91.583077104308,254.90101697149782L94.75571423255488,253.1480220586439L97.92835136080174,251.7688819990447L101.10098848904862,251.64454528891994L104.27362561729551,251.84240537898L107.44626274554238,255.47191155893836L110.61889987378925,254.57003180442283L113.79153700203612,255.1908381428247L116.964174130283,253.4484022659757L120.13681125852987,252.00980671133377L123.30944838677674,251.32124385112232L126.48208551502361,253.65356433554985L129.65472264327047,253.3303359987707L132.82735977151737,252.1828124551055L135.99999689976423,253.45989537055016L139.17263402801112,252.24303144967467L142.34527115625798,251.56245284514995L145.51790828450487,251.7949546956413L148.69054541275176,249.0459827727979L151.8631825409986,251.15957688755273L155.03581966924548,251.75504153954296L158.20845679749235,251.74050255919786L161.38109392573924,251.5032572648397L164.5537310539861,251.0929737373683L167.726368182233,248.69255559304491L170.89900531047985,250.89391966400615L174.07164243872674,246.73275789886839L177.24427956697363,247.68720540801726L180.41691669522046,255.33463596853994L183.58955382346736,254.58199600444988L186.76219095171422,252.19065863109063L189.9348280799611,251.14560647068478L193.10746520820797,252.56091528976827L196.28010233645486,246.61725828964614L199.45273946470172,250.83595055633955L202.62537659294858,251.31920514493984L205.79801372119545,255.9796631110699L208.9706508494423,229.8721054509997L212.1432879776892,228.95418408409216L215.31592510593606,231.52104512519352L218.48856223418295,293.2558421080498L221.66119936242984,294.32942803267497L224.8338364906767,299.3642728650276L228.00647361892356,293.0158392808274L231.17911074717043,278.2069537307374L234.35174787541732,285.3771767813564L237.52438500366418,290.2895814688975L240.69702213191107,285.7675402812879L243.86965926015793,281.90760344636226L247.04229638840482,279.91365945421313L250.2149335166517,285.8021820417192L253.38757064489855,293.00937796302594L256.56020777314546,273.5142907047926L259.7328449013923,289.19174631197046L262.9054820296392,282.5095212938185L266.078119157886,287.2394292886866L269.2507562861329,290.78225390538057L272.4233934143798,277.48398465782094L275.5960305426267,279.50963012499074L278.7686676708735,282.6912747928035L281.9413047991205,285.4388821633016L285.1139419273673,283.5943322859504L288.2865790556142,284.1968511862254L291.45921618386103,285.1506123580339L294.6318533121079,287.24781559997507L297.8044904403548,283.874820893916L300.97712756860165,285.50156628666116L304.1497646968486,281.69444899876595L307.3224018250954,284.84964328138653L310.4950389533423,286.4844216638308L313.66767608158915,289.01495149874006L316.84031320983604,275.91031466567085L320.01295033808293,280.3850716778172L323.18558746632976,289.65786683406907L326.35822459457665,291.052228150186L329.53086172282354,293.4202625433161L332.70349885107044,275.6537788247654L335.87613597931727,273.601118470094L339.0487731075642,293.9959371251326L342.22141023581105,294.51028807476723L345.3940473640579,297.41076998077705L348.5666844923048,275.9314246153452L351.73932162055166,276.8527654854512L354.91195874879855,277.53417256818545L358.0845958770454,285.7148344469529L361.25723300529233,278.97591958895805L364.42987013353917,280.8789787092793L367.602507261786,287.12867312333117L370.7751443900329,278.8754787895458L373.9477815182798,274.55765341943766L377.1204186465267,270.49274945098716L380.2930557747735,272.8601178126154L383.4656929030204,288.3727306230868L386.6383300312673,279.47808297434244L389.8109671595141,282.59901724629503L392.983604287761,281.9138901339528L396.1562414160079,291.3733487409319L399.3288785442548,276.694997242868L402.5015156725016,288.6905251174912L405.6741528007485,284.51571376773325L408.8467899289954,288.3440384733275L412.0194270572423,286.7625507333662L415.19206418548913,285.46041853558387L418.364701313736,286.7355927022123L421.5373384419829,290.3499182373298L424.70997557022974,293.1857016808038L427.88261269847663,295.3785210549365L431.0552498267235,272.1028724843601L434.2278869549704,285.1256889718948L437.40052408321725,286.42173754047127L440.5731612114641,278.43047227828924L443.74579833971103,111.66330750464033L446.91843546795786,150.81133960937953L450.09107259620475,113.77287294104252L453.26370972445164,142.81418565404093L456.43634685269853,114.22926696651359L459.60898398094537,118.0920060071482L462.78162110919226,145.79872154781708L465.95425823743915,116.76189236395305L469.126895365686,143.61767955999747L472.2995324939329,116.94518098432638L475.47216962217976,139.91958025768452L478.64480675042665,141.2757828421471L481.8174438786735,130.41094090992908L484.9900810069204,130.53790925671964L488.16271813516727,128.73437717307948L491.3353552634141,140.723658971789L494.507992391661,128.20577558600607L497.6806295199078,141.50109642581972L500.8532666481548,134.21237256305247L504.0259037764016,125.64438087662111L507.1985409046485,141.01461727007026L510.3711780328954,138.61458087551014L513.5438151611422,134.6602868703781L516.716452289389,127.43397503273485L519.889089417636,136.56062094717655L523.0617265458828,140.9275783240488L526.2343636741298,140.84542902393108L529.4070008023766,139.97370750071244L532.5796379306236,136.08762486817176L535.7522750588704,135.1463111753458L538.9249121871172,132.70548441246538L542.0975493153641,132.49594440411693L545.2701864436109,138.32321646045943L548.4428235718578,120.42565043224403L551.6154607001048,129.8808448131442L554.7880978283516,132.62906948113184L557.9607349565985,134.05671612767026L561.1333720848454,135.9301002956502L564.3060092130922,134.15801789463367L567.4786463413391,139.02654572640694L570.6512834695859,123.49389511453245L573.8239205978329,126.49875309145017L576.9965577260798,128.87620939363072L580.1691948543266,141.18536500460405L583.3418319825735,135.860426902689L586.5144691108203,133.78676218870328L589.6871062390671,136.4278370082479L592.8597433673141,135.51974366716027L596.032380495561,130.86405351190322L599.2050176238079,141.83766975964193L602.3776547520547,141.4901800070578L605.5502918803016,138.17940239007345L608.7229290085485,122.43622084493308L611.8955661367953,139.22732985720677L615.0682032650421,127.76905385684557L618.2408403932891,138.9356405487406L621.413477521536,140.84588387471283L624.5861146497829,119.89464463389567L627.7587517780297,139.2896119249646L630.9313889062765,119.3525599700776L634.1040260345235,135.52854827872127L637.2766631627703,128.03135655587678L640.4493002910172,124.87158939843252L643.6219374192641,128.58898736962814L646.7945745475109,135.06970130796293L649.9672116757579,124.53262809800614L653.1398488040047,139.12094350829022L656.3124859322515,128.14420828376242L659.4851230604984,127.48868708391075L662.6577601887453,136.60336067599L665.8303973169923,125.97343292787369L669.0030344452391,127.39786312959828L672.1756715734859,133.5827941024312L675.3483087017328,120.54076016936767L678.5209458299797,126.03282344423323L681.6935829582266,139.68406502076414L684.8662200864734,119.4979985075413L688.0388572147203,140.65151638886974L691.2114943429673,140.425991624477L694.3841314712141,129.9679974718611L697.556768599461,133.2196607318891L700.7294057277078,130.0222221829137L703.9020428559546,130.08837048231638L707.0746799842016,129.94726927195006L710.2473171124485,133.21954701919367L713.4199542406953,137.98344292649426L716.5925913689422,137.30097181782406L719.765228497189,127.3880188591076L722.937865625436,134.16147800950912L726.1105027536828,129.99382649839603L729.2831398819296,129.85982420915917L732.4557770101766,126.3661315992293L735.6284141384235,131.45688652722765L738.8010512666704,133.3161703209734L741.9736883949172,129.01271336216726L745.146325523164,133.28883054005624L748.3189626514109,129.23536281983252L751.4915997796578,132.33005382614536L754.6642369079046,128.632718023359L757.8368740361516,129.36657102569583L761.0095111643984,136.6335432742931L764.1821482926454,133.24909607533647L767.3547854208922,130.83997890981217L770.527422549139,141.0480650471995L773.7000596773859,132.15189852173742L776.8726968056327,136.84631597212612L780.0453339338798,136.16421849088383L783.2179710621266,139.11425070393025L786.3906081903734,127.739488556032L789.5632453186203,129.48912082203515L792.7358824468671,133.48032271917185L795.908519575114,130.39380278225968L799.0811567033609,132.4442376170347L802.2537938316078,133.0028756003742L805.4264309598547,129.42133181088403L808.5990680881016,129.73244974559918L811.7717052163484,130.82267833543497L814.9443423445954,128.93590855873506L818.1169794728422,131.27803270197631L821.289616601089,132.52052259100205L824.462253729336,123.88332860706194L827.6348908575828,127.04200737156418L830.8075279858298,136.8096355055124L833.9801651140766,135.22017569336742L837.1528022423236,141.08102548420538L840.3254393705704,133.12534417335965L843.4980764988172,128.9197938453246L846.6707136270641,287.6459846642148L849.8433507553109,289.01490276472776L853.015987883558,281.5955433207421L856.1886250118048,277.8943006746339L859.3612621400516,288.6202831610528L862.5338992682985,275.50225665809586L865.7065363965454,293.18273702838707L868.8791735247922,275.9720200476161L872.0518106530391,276.333057855628L875.224447781286,283.1488628015766L878.3970849095329,293.11520793196837L881.5697220377798,290.6779671801619L884.7423591660266,282.70864440703144L887.9149962942735,289.83674908749424L891.0876334225203,278.09104800474574L894.2602705507671,272.6530551165603L897.4329076790141,279.6724423378501L900.605544807261,289.80586796834774L903.7781819355079,290.201852124368L906.9508190637547,292.9166777492388L910.1234561920016,280.2570555497615L913.2960933202485,293.2145968889478L916.4687304484953,292.6132597884718L919.6413675767421,279.81439639343216L922.8140047049891,290.10005489494586L925.986641833236,286.6640836614533L929.1592789614829,277.60090567573616L932.3319160897297,290.6810414841064L935.5045532179765,277.9992331255159L938.6771903462235,286.77982287956945L941.8498274744703,277.6984711684209L945.0224646027173,281.0513712167292L948.1951017309641,277.9329792357532L951.3677388592109,282.1119979552422L954.5403759874579,288.90373642143516L957.7130131157047,278.42408000033856L960.8856502439515,279.31743942503175L964.0582873721984,281.4634010463091L967.2309245004454,288.8062359074335L970.4035616286923,284.8750783746552L973.5761987569391,283.21395925854654L976.7488358851859,285.34013487081785L979.9214730134328,282.0000275007462L983.0941101416797,279.6274039881217L986.2667472699266,289.00445744141837L989.4393843981735,294.23548104040566L992.6120215264203,292.6554309538081L995.7846586546673,292.53783578205565L998.9572957829141,292.98436523119756L1002.129932911161,270.92520695406876L1005.3025700394078,292.61148911935715L1008.4752071676546,287.5018010275686L1011.6478442959016,274.14932737479484L1014.8204814241485,282.0214948331776L1017.9931185523953,288.0451730815457L1021.1657556806422,286.4674297381984L1024.338392808889,286.3421264701624L1027.5110299371358,287.6249234485528L1030.6836670653827,279.65644133713505L1033.8563041936297,283.19092431538513L1037.0289413218766,284.4896979274844L1040.2015784501234,281.19991654747895L1043.3742155783702,287.6797248454179L1046.546852706617,282.4019653286061L1049.7194898348641,280.616359239168L1052.892126963111,279.83184316984637L1056.0647640913578,287.7889215223788L1059.2374012196046,291.5896181041496L1062.4100383478517,295.0905192867366L1065.5826754760985,280.0349827779088L1068.7553126043454,285.8255987346438L1071.9279497325922,277.62449293770385L1075.100586860839,281.0407187738674L1078.2732239890859,288.8589011300915L1081.4458611173327,290.69528806037755" style="fill: none;" fill="none"></path></g></g></g></g></g></g><g transform="translate(50, 378)" clip-path="url(#clip_1)"><clipPath id="clip_1"><rect width="1079" height="22"></rect></clipPath><g><g><line x1="34.47560879586426" y1="0" x2="34.47560879586426" y2="5" style="visibility: inherit;" fill="rgb(0, 0, 0)" stroke="rgb(204, 204, 204)" stroke-width="1px"></line><line x1="193.10746520820797" y1="0" x2="193.10746520820797" y2="5" style="visibility: inherit;" fill="rgb(0, 0, 0)" stroke="rgb(204, 204, 204)" stroke-width="1px"></line><line x1="351.73932162055166" y1="0" x2="351.73932162055166" y2="5" style="visibility: inherit;" fill="rgb(0, 0, 0)" stroke="rgb(204, 204, 204)" stroke-width="1px"></line><line x1="510.3711780328954" y1="0" x2="510.3711780328954" y2="5" style="visibility: inherit;" fill="rgb(0, 0, 0)" stroke="rgb(204, 204, 204)" stroke-width="1px"></line><line x1="669.0030344452391" y1="0" x2="669.0030344452391" y2="5" style="visibility: inherit;" fill="rgb(0, 0, 0)" stroke="rgb(204, 204, 204)" stroke-width="1px"></line><line x1="827.6348908575828" y1="0" x2="827.6348908575828" y2="5" style="visibility: inherit;" fill="rgb(0, 0, 0)" stroke="rgb(204, 204, 204)" stroke-width="1px"></line><line x1="986.2667472699266" y1="0" x2="986.2667472699266" y2="5" style="visibility: inherit;" fill="rgb(0, 0, 0)" stroke="rgb(204, 204, 204)" stroke-width="1px"></line></g><g transform="translate(0, 8)"><text x="34.47560879586426" y="0" dx="0em" dy="0.95em" style="text-anchor: middle; visibility: inherit; font-family: &quot;Helvetica Neue&quot;, sans-serif; font-size: 12px; font-weight: 200;" fill="rgb(50, 49, 63)" stroke="none" stroke-width="1px">0</text><text x="193.10746520820797" y="0" dx="0em" dy="0.95em" style="text-anchor: middle; visibility: inherit; font-family: &quot;Helvetica Neue&quot;, sans-serif; font-size: 12px; font-weight: 200;" fill="rgb(50, 49, 63)" stroke="none" stroke-width="1px">50</text><text x="351.73932162055166" y="0" dx="0em" dy="0.95em" style="text-anchor: middle; visibility: inherit; font-family: &quot;Helvetica Neue&quot;, sans-serif; font-size: 12px; font-weight: 200;" fill="rgb(50, 49, 63)" stroke="none" stroke-width="1px">100</text><text x="510.3711780328954" y="0" dx="0em" dy="0.95em" style="text-anchor: middle; visibility: inherit; font-family: &quot;Helvetica Neue&quot;, sans-serif; font-size: 12px; font-weight: 200;" fill="rgb(50, 49, 63)" stroke="none" stroke-width="1px">150</text><text x="669.0030344452391" y="0" dx="0em" dy="0.95em" style="text-anchor: middle; visibility: inherit; font-family: &quot;Helvetica Neue&quot;, sans-serif; font-size: 12px; font-weight: 200;" fill="rgb(50, 49, 63)" stroke="none" stroke-width="1px">200</text><text x="827.6348908575828" y="0" dx="0em" dy="0.95em" style="text-anchor: middle; visibility: inherit; font-family: &quot;Helvetica Neue&quot;, sans-serif; font-size: 12px; font-weight: 200;" fill="rgb(50, 49, 63)" stroke="none" stroke-width="1px">250</text><text x="986.2667472699266" y="0" dx="0em" dy="0.95em" style="text-anchor: middle; visibility: inherit; font-family: &quot;Helvetica Neue&quot;, sans-serif; font-size: 12px; font-weight: 200;" fill="rgb(50, 49, 63)" stroke="none" stroke-width="1px">300</text></g><line x1="0" y1="0" x2="1079" y2="0" fill="rgb(0, 0, 0)" stroke="rgb(204, 204, 204)" stroke-width="1px"></line></g></g></g></g></svg>