<svg viewBox="0 0 1112.2000732421875 400" xmlns="http://www.w3.org/2000/svg"><g><g><g><g><g><line x1="50" y1="365.2457570667078" x2="45" y2="365.2457570667078" style="visibility: inherit;" fill="rgb(0, 0, 0)" stroke="rgb(204, 204, 204)" stroke-width="1px"></line><line x1="50" y1="319.1141061254691" x2="45" y2="319.1141061254691" style="visibility: inherit;" fill="rgb(0, 0, 0)" stroke="rgb(204, 204, 204)" stroke-width="1px"></line><line x1="50" y1="272.98245518423016" x2="45" y2="272.98245518423016" style="visibility: inherit;" fill="rgb(0, 0, 0)" stroke="rgb(204, 204, 204)" stroke-width="1px"></line><line x1="50" y1="226.8508042429912" x2="45" y2="226.8508042429912" style="visibility: inherit;" fill="rgb(0, 0, 0)" stroke="rgb(204, 204, 204)" stroke-width="1px"></line><line x1="50" y1="180.71915330175224" x2="45" y2="180.71915330175224" style="visibility: inherit;" fill="rgb(0, 0, 0)" stroke="rgb(204, 204, 204)" stroke-width="1px"></line><line x1="50" y1="134.58750236051333" x2="45" y2="134.58750236051333" style="visibility: inherit;" fill="rgb(0, 0, 0)" stroke="rgb(204, 204, 204)" stroke-width="1px"></line><line x1="50" y1="88.45585141927432" x2="45" y2="88.45585141927432" style="visibility: inherit;" fill="rgb(0, 0, 0)" stroke="rgb(204, 204, 204)" stroke-width="1px"></line><line x1="50" y1="42.324200478035664" x2="45" y2="42.324200478035664" style="visibility: inherit;" fill="rgb(0, 0, 0)" stroke="rgb(204, 204, 204)" stroke-width="1px"></line></g><g transform="translate(40, 0)"><text x="0" y="365.2457570667078" dx="0em" dy="0.3em" style="text-anchor: end; visibility: inherit; font-family: &quot;Helvetica Neue&quot;, sans-serif; font-size: 12px; font-weight: 200;" fill="rgb(50, 49, 63)" stroke="none" stroke-width="1px">0.56</text><text x="0" y="319.1141061254691" dx="0em" dy="0.3em" style="text-anchor: end; visibility: inherit; font-family: &quot;Helvetica Neue&quot;, sans-serif; font-size: 12px; font-weight: 200;" fill="rgb(50, 49, 63)" stroke="none" stroke-width="1px">0.58</text><text x="0" y="272.98245518423016" dx="0em" dy="0.3em" style="text-anchor: end; visibility: inherit; font-family: &quot;Helvetica Neue&quot;, sans-serif; font-size: 12px; font-weight: 200;" fill="rgb(50, 49, 63)" stroke="none" stroke-width="1px">0.6</text><text x="0" y="226.8508042429912" dx="0em" dy="0.3em" style="text-anchor: end; visibility: inherit; font-family: &quot;Helvetica Neue&quot;, sans-serif; font-size: 12px; font-weight: 200;" fill="rgb(50, 49, 63)" stroke="none" stroke-width="1px">0.62</text><text x="0" y="180.71915330175224" dx="0em" dy="0.3em" style="text-anchor: end; visibility: inherit; font-family: &quot;Helvetica Neue&quot;, sans-serif; font-size: 12px; font-weight: 200;" fill="rgb(50, 49, 63)" stroke="none" stroke-width="1px">0.64</text><text x="0" y="134.58750236051333" dx="0em" dy="0.3em" style="text-anchor: end; visibility: inherit; font-family: &quot;Helvetica Neue&quot;, sans-serif; font-size: 12px; font-weight: 200;" fill="rgb(50, 49, 63)" stroke="none" stroke-width="1px">0.66</text><text x="0" y="88.45585141927432" dx="0em" dy="0.3em" style="text-anchor: end; visibility: inherit; font-family: &quot;Helvetica Neue&quot;, sans-serif; font-size: 12px; font-weight: 200;" fill="rgb(50, 49, 63)" stroke="none" stroke-width="1px">0.68</text><text x="0" y="42.324200478035664" dx="0em" dy="0.3em" style="text-anchor: end; visibility: inherit; font-family: &quot;Helvetica Neue&quot;, sans-serif; font-size: 12px; font-weight: 200;" fill="rgb(50, 49, 63)" stroke="none" stroke-width="1px">0.7</text></g><line x1="50" y1="0" x2="50" y2="378" fill="rgb(0, 0, 0)" stroke="rgb(204, 204, 204)" stroke-width="1px"></line></g></g><g transform="translate(50, 0)" clip-path="url(#clip_0)"><clipPath id="clip_0"><rect width="1062" height="378"></rect></clipPath><g><g><g><line x1="16.008493809469066" y1="0" x2="16.008493809469066" y2="378" fill="rgb(0, 0, 0)" stroke="rgb(60, 60, 60)" stroke-width="1px" opacity="0.25"></line><line x1="127.98114357498987" y1="0" x2="127.98114357498987" y2="378" fill="rgb(0, 0, 0)" stroke="rgb(60, 60, 60)" stroke-width="1px" opacity="0.25"></line><line x1="239.95379334051069" y1="0" x2="239.95379334051069" y2="378" fill="rgb(0, 0, 0)" stroke="rgb(60, 60, 60)" stroke-width="1px" opacity="0.25"></line><line x1="351.9264431060315" y1="0" x2="351.9264431060315" y2="378" fill="rgb(0, 0, 0)" stroke="rgb(60, 60, 60)" stroke-width="1px" opacity="0.25"></line><line x1="463.89909287155234" y1="0" x2="463.89909287155234" y2="378" fill="rgb(0, 0, 0)" stroke="rgb(60, 60, 60)" stroke-width="1px" opacity="0.25"></line><line x1="575.8717426370731" y1="0" x2="575.8717426370731" y2="378" fill="rgb(0, 0, 0)" stroke="rgb(60, 60, 60)" stroke-width="1px" opacity="0.25"></line><line x1="687.8443924025939" y1="0" x2="687.8443924025939" y2="378" fill="rgb(0, 0, 0)" stroke="rgb(60, 60, 60)" stroke-width="1px" opacity="0.25"></line><line x1="799.8170421681148" y1="0" x2="799.8170421681148" y2="378" fill="rgb(0, 0, 0)" stroke="rgb(60, 60, 60)" stroke-width="1px" opacity="0.25"></line><line x1="911.7896919336355" y1="0" x2="911.7896919336355" y2="378" fill="rgb(0, 0, 0)" stroke="rgb(60, 60, 60)" stroke-width="1px" opacity="0.25"></line><line x1="1023.7623416991563" y1="0" x2="1023.7623416991563" y2="378" fill="rgb(0, 0, 0)" stroke="rgb(60, 60, 60)" stroke-width="1px" opacity="0.25"></line></g><g><line x1="0" y1="365.2457570667078" x2="1062.2" y2="365.2457570667078" fill="rgb(0, 0, 0)" stroke="rgb(60, 60, 60)" stroke-width="1px" opacity="0.25"></line><line x1="0" y1="319.1141061254691" x2="1062.2" y2="319.1141061254691" fill="rgb(0, 0, 0)" stroke="rgb(60, 60, 60)" stroke-width="1px" opacity="0.25"></line><line x1="0" y1="272.98245518423016" x2="1062.2" y2="272.98245518423016" fill="rgb(0, 0, 0)" stroke="rgb(60, 60, 60)" stroke-width="1px" opacity="0.25"></line><line x1="0" y1="226.8508042429912" x2="1062.2" y2="226.8508042429912" fill="rgb(0, 0, 0)" stroke="rgb(60, 60, 60)" stroke-width="1px" opacity="0.25"></line><line x1="0" y1="180.71915330175224" x2="1062.2" y2="180.71915330175224" fill="rgb(0, 0, 0)" stroke="rgb(60, 60, 60)" stroke-width="1px" opacity="0.25"></line><line x1="0" y1="134.58750236051333" x2="1062.2" y2="134.58750236051333" fill="rgb(0, 0, 0)" stroke="rgb(60, 60, 60)" stroke-width="1px" opacity="0.25"></line><line x1="0" y1="88.45585141927432" x2="1062.2" y2="88.45585141927432" fill="rgb(0, 0, 0)" stroke="rgb(60, 60, 60)" stroke-width="1px" opacity="0.25"></line><line x1="0" y1="42.324200478035664" x2="1062.2" y2="42.324200478035664" fill="rgb(0, 0, 0)" stroke="rgb(60, 60, 60)" stroke-width="1px" opacity="0.25"></line></g></g></g><g><g><line x1="0" y1="1656.9319834213975" x2="1062.2" y2="1656.9319834213975" fill="rgb(0, 0, 0)" stroke="rgb(153, 153, 153)" stroke-width="1.5px"></line></g></g><g><g><line x1="239.95379334051069" y1="0" x2="239.95379334051069" y2="378" fill="rgb(0, 0, 0)" stroke="rgb(153, 153, 153)" stroke-width="1.5px"></line></g></g><g><g><g><g><g><path style="fill: none;" stroke="rgb(255, 112, 67)" stroke-width="2px" d="M239.95379334051069,-23.843468839145316L240.51365658933827,108.06149477826L241.6333830869935,152.27260993953655L242.1932463358211,174.69470445554484L242.7531095846487,135.82939834219223L243.31297283347632,110.1236594742233L243.8728360823039,129.18168653673234L244.43269933113152,143.54341380705722L244.9925625799591,154.76671291625496L245.5524258287867,163.84778341025168L246.11228907761432,147.6440125279229L246.6721523264419,155.8151330736883L247.23201557526951,142.8202489338504L247.79187882409715,131.79968991706917L248.35174207292474,122.25946154855635L248.91160532175235,130.1578101795327L249.47146857057996,122.07675500241967L250.03133181940754,115.00440853850841L250.59119506823515,108.86556899391587L251.15105831706276,103.59234022376916L251.71092156589035,98.99270307666245L252.27078481471796,106.22641200506513L252.83064806354557,112.82466632960114L253.39051131237318,108.5007228620434L253.9503745612008,104.68926135864916L254.5102378100284,101.23855786966521L255.07010105885598,107.19515150676398L256.1898275565112,103.94986152452651L256.7496908053388,101.13596726596825L257.3095540541664,98.56384140505338L257.869417302994,103.98080925025084L258.4292805518216,109.11830875462442L258.98914380064923,113.96985612001174L259.5490070494768,111.48584030079684L260.1088702983044,109.23875297167677L260.66873354713204,107.21244749856129L261.2285967959596,105.3152798400912L261.78846004478726,109.79002151467648L262.34832329361484,114.05586608678857L263.46804979127006,112.36813793759524L264.02791304009764,110.87612017097177L264.5877762889252,109.53327965238668L265.14763953775287,113.55472345766839L265.70750278658045,112.254175322494L266.26736603540803,116.1182330809973L266.82722928423567,114.90727670051825L267.3870925330633,118.53603004220548L267.9469557818909,117.39357651090984L268.50681903071853,120.91609931147508L269.06668227954606,119.85899266511001L269.6265455283737,123.19603766715449L270.1864087772013,122.23746565860739L270.7462720260289,121.28381613944362L271.3061352748565,124.45699986676036L271.8659985236841,123.58603103324876L272.42586177251167,126.62599709566445L272.9857250213393,129.57746729867003L273.54558827016695,132.43800449010286L274.1054515189945,135.23124787528263L274.66531476782217,134.41990979391L275.2251780166497,133.68382023073372L275.78504126547733,132.98138259078303L276.3449045143049,135.6676301104105L276.90476776313255,138.26742913320996L277.46463101196014,137.60960374135283L278.0244942607878,140.14647776631938L278.58435750961536,142.6138312893256L279.14422075844294,145.03109947170717L279.7040840072706,144.4006916525222L280.26394725609816,146.71322720562102L280.8238105049258,146.07757141942196L281.3836737537534,145.4904146563414L281.94353700258097,144.9402665505871L282.50340025140855,144.43053589052204L283.0632635002362,143.9389798830645L283.62312674906383,146.1185003917425L284.1829899978914,145.6143744266031L284.74285324671905,145.131848890582L285.3027164955466,144.69214931785982L285.8625797443742,144.2893535456692L286.4224429932018,143.91327104909715L286.98230624202944,145.9733641281409L287.542169490857,147.99614886251305L288.10203273968466,147.60260834573685L288.66189598851224,147.23329769868366L289.2217592373399,146.91059465822877L289.78162248616746,146.60049148149758L290.34148573499505,148.55784421043575L290.9013489838227,148.29034631972334L291.46121223265027,148.05088245465984L292.0210754814779,149.95241819193328L292.5809387303055,149.7321355640628L293.1408019791331,151.59125137475567L293.70066522796066,153.41823335973857L294.2605284767883,153.19566058841565L294.82039172561593,152.9833623590446L295.3802549744435,152.7648014360365L295.94011822327116,154.50417671547726L296.4999814720987,156.2131992244055L297.0598447209263,157.88386492603058L297.6197079697539,159.52061834806278L298.17957121858154,161.1264872510911L298.7394344674091,160.84553431517637L299.29929771623677,162.41047899894065L299.8591609650643,163.95101357873693L300.41902421389193,165.46094521548648L300.97888746271957,166.9466374589463L301.53875071154715,168.40503918979266L302.0986139603748,168.1031582250305L302.6584772092024,169.53179383392063L303.21834045802996,169.22859344592123L303.77820370685754,168.9473151066495L304.3380669556852,170.34702980838955L304.89793020451276,170.07437616549782L305.4577934533404,171.4466423256136L306.017656702168,171.19085891157823L306.57751995099557,170.94859155675675L307.1373831998232,172.29007908386293L307.6972464486508,172.0452923655773L308.2571096974784,173.36259772549258L308.816972946306,174.661617165752L309.3768361951336,175.9494269233361L309.9366994439612,175.7094030343603L310.4965626927888,176.97576891103543L311.05642594161645,176.75750289668494L312.1761524392717,176.54379586822395L312.7360156880992,176.34083510372682L313.29587893692684,176.15065968278302L313.8557421857544,175.9728098280859L314.41560543458206,175.81042445054814L314.97546868340964,175.66050391042828L315.5353319322373,176.89115361861252L316.0951951810648,176.74039362625712L316.65505842989245,177.9475496660561L317.2149216787201,177.79250891814385L317.77478492754767,178.97253240294467L318.3346481763753,180.13176732620468L318.8945114252029,179.96003024910326L319.4543746740305,179.79678068810205L320.01423792285806,179.63878174342358L320.5741011716857,179.49216439329126L321.1339644205133,179.35833463653827L321.6938276693409,180.4915175031946L322.25369091816845,181.60927525551568L322.8135541669961,181.47331353785103L323.3734174158237,181.3420642176582L323.9332806646513,181.21948044388088L324.49314391347895,181.10492423767602L325.6128704111341,182.19665476846157L326.1727336599617,182.08581570385974L326.73259690878933,183.15856381479546L327.2924601576169,184.21828794013882L327.85232340644455,185.26421044133278L328.4121866552722,186.30009135426408L328.9720499040997,187.32540983192783L329.53191315292736,188.33890896255926L330.09177640175494,189.3414640266196L330.6516396505826,189.2023801977133L331.21150289941016,190.18619083578577L331.7713661482378,190.04371869534685L332.33122939706533,191.01087502518328L332.89109264589297,190.86633795846404L333.4509558947206,190.72700071046623L334.0108191435482,191.67663331789126L334.57068239237583,192.61537914878332L335.1305456412034,192.47049536731672L335.690408890031,193.39565606380478L336.2502721388586,194.30974727276498L336.8101353876862,194.16394597884553L337.3699986365138,195.06771693223033L337.92986188534144,194.91599403120875L338.48972513416896,195.80286488878596L339.0495883829966,196.68198017710793L339.60945163182424,196.5301168285456L340.1693148806518,196.3829293971516L340.72917812947946,196.24006447171112L341.28904137830705,196.10133393451352L341.84890462713463,196.96191874304446L342.4087678759622,196.82429437490308L342.96863112478985,197.67461233894167L343.52849437361743,198.51521878196098L344.0883576224451,198.37004782869943L344.6482208712727,199.1982343823293L345.20808412010024,200.01591720726037L345.7679473689279,199.86291516426135L346.32781061775546,200.66969294866166L346.8876738665831,200.51649062173806L347.4475371154107,201.31415288566498L348.0074003642383,202.1055495335912L348.56726361306585,202.88892694024673L350.2468533595487,202.7406686953872L350.80671660837635,203.51772857250887L351.36657985720393,204.28738629565152L351.9264431060315,204.1388785598274L352.4863063548591,203.99507275128374L353.04616960368674,204.75485735196006L353.6060328525143,204.60822405479865L354.7257593501695,205.358312076162L355.2856225989971,206.10216743151125L355.84548584782476,206.83839908288175L356.40534909665234,206.68810617248437L356.96521234548,206.53961434009958L358.08493884313515,206.39275872941195L358.64480209196273,207.11572836938262L359.20466534079037,207.83233501156994L359.76452858961795,208.54215640527568L360.3243918384456,208.39042101000715L360.88425508727323,209.09145177285887L361.44411833610076,208.9400465542204L362.0039815849284,209.6346771604309L362.563844833756,210.32403379553872L363.1237080825836,210.17322447518032L363.6835713314112,210.024253382046L364.24343458023884,210.7040443951498L364.80329782906637,211.3776916129833L365.9230243267216,212.04759716896368L366.4828875755492,211.89687590910322L367.04275082437687,212.56184606890682L367.60261407320445,212.41210254908535L368.16247732203203,213.06966270252659L368.7223405708596,212.91981743276457L369.28220381968725,212.77091135965247L369.84206706851484,213.42048889086036L370.4019303173425,214.06389414727528L370.96179356617,213.91328493599704L371.52165681499764,213.76546118004978L372.0815200638252,214.40175317280767L372.64138331265286,215.03281321406462L373.2012465614805,214.8827611698526L373.7611098103081,214.7346590043402L374.32097305913567,214.5873910183067L374.88083630796325,215.2079992062702L375.4406995567909,215.0600895655308L376.0005628056185,215.67325444500267L376.5604260544461,215.52523280639937L377.1202893032737,215.3789720775891L377.6801525521013,215.23473479024932L378.2400158009289,215.09254379680056L378.7998790497565,215.69542790201908L379.35974229858414,216.29342323779812L379.9196055474117,216.14836798247578L380.47946879623936,216.00538553345348L381.0393320450669,216.59707342766293L381.5991952938945,217.18411678417476L382.1590585427221,217.76651565837088L382.71892179154975,218.3439700997398L383.2787850403774,218.19435866435984L383.83864828920497,218.04644665410143L384.39851153803255,217.8997954663704L384.95837478686013,218.46999854637684L385.5182380356878,218.32408613342534L386.07810128451536,218.17939456743372L386.637964533343,218.03572434823238L387.1978277821705,218.5973724657457L387.75769103099816,219.15456932228346L388.31755427982574,219.70781975720743L389.437280777481,219.56068484790262L389.9971440263086,219.41470402366153L390.5570072751362,219.96225743674927L391.11687052396377,219.81636291304085L391.6767337727914,220.35971829448616L392.236597021619,220.8993359273973L392.79646027044663,221.4348468280935L393.3563235192742,221.966286420778L393.9161867681018,222.49403315096777L394.47605001692943,222.34309517882116L395.035913265757,222.19334900896703L395.59577651458466,222.044791260897L396.15563976341224,221.89788706801636L396.7155030122399,221.75201254353087L397.2753662610674,221.607966731493L397.83522950989504,222.12485074773963L398.3950927587226,222.63710282982885L398.95495600755027,223.1446104967641L399.51481925637785,222.99417308268443L400.0746825052055,223.49661881579485L400.63454575403307,223.99513779832932L401.7542722516883,223.8437146956334L402.8739987493435,223.69289125332358L403.43386199817104,224.18178873873228L403.9937252469987,224.66605126864397L404.55358849582626,225.14454428448798L405.1134517446539,225.61797415099116L405.67331499348154,226.0863919752703L406.2331782423091,226.55101520525267L406.7930414911367,226.3868147497213L407.3529047399643,226.22152392045186L407.9127679887919,226.0555303974942L408.4726312376195,226.50060425829608L409.03249448644715,226.937275723298L409.59235773527473,226.76258314923973L410.1522209841023,227.19206859019454L410.7120842329299,227.0131767370308L411.8318107305852,226.83209815636312L412.39167397941276,227.24233318967768L412.9515372282404,227.64708163301157L413.5114004770679,227.4623318893261L414.07126372589556,227.27823548890532L415.1909902235508,227.09226728682583L415.75085347237837,227.4792941699313L416.310716721206,227.85886925116165L416.8705799700336,228.23315331032686L417.43044321886117,228.0337576417858L417.9903064676888,228.3971458651545L418.5501697165164,228.19767084400283L419.11003296534403,228.55282849472079L419.66989621417156,228.89995210187516L420.2297594629992,228.69711596274118L420.7896227118268,228.49034580457882L421.3494859606544,228.280976178265L421.909349209482,228.07389329973083L422.46921245830964,227.86941859680886L423.0290757071372,227.66838411106707L423.5889389559648,227.998023338626L424.14880220479245,228.32292159336788L424.70866545362003,228.6432500898931L425.26852870244767,228.96067784920172L425.82839195127525,228.75735465530315L426.38825520010283,229.062713195209L426.9481184489304,228.85058677917024L427.50798169775805,228.6385034780297L428.0678449465857,228.4257360441907L428.6277081954133,228.71048681728075L429.1875714442409,228.988937941254L429.74743469306844,229.26725734936386L430.3072979418961,229.54123024118522L430.86716119072366,229.8125410501015L431.4270244395513,229.5914794889208L431.9868876883789,229.85279428434438L432.5467509372065,230.1118168511962L433.10661418603405,229.88837298123752L433.6664774348617,229.665747453836L434.22634068368933,229.44395547567638L434.7862039325169,229.22738632936927L435.34606718134455,229.48124293554858L435.9059304301721,229.7332353978421L436.4657936789997,229.9827898152887L437.0256569278273,229.77836978077684L437.58552017665494,230.02850384276894L438.1453834254825,229.94296779311966L438.70524667431016,230.1871328394767L439.26510992313774,230.43023769580762L439.8249731719653,230.67039910606928L440.38483642079296,230.90652598341305L440.94469966962055,230.82928829836905L441.5045629184482,231.06312125495253L442.06442616727577,231.29449065426L442.62428941610335,231.52238998222015L443.18415266493093,231.748935649298L443.7440159137586,231.68344623745267L444.3038791625862,231.90676044368786L444.8637424114138,232.1274594360729L445.42360566024144,232.3459715009731L445.98346890906896,232.29024390752215L447.1031954067242,232.24041147972474L447.6630586555518,232.19148500027228L448.2229219043794,232.14616326439818L448.78278515320704,232.10056857122453L449.34264840203457,232.3089014839122L449.9025116508622,232.26633768254274L450.46237489968985,232.224490691489L451.02223814851743,232.42723076233975L451.58210139734507,232.62611041542786L452.1419646461726,232.82176886462102L452.70182789500024,233.0155318175653L453.2616911438278,232.97759783492577L453.82155439265546,232.94172675484936L454.38141764148304,232.90522748857737L454.9412808903107,232.87041309778098L455.5011441391382,233.0568502753611L456.06100738796584,233.24366051274876L456.6208706367935,233.4286050908607L457.18073388562107,233.40438512428625L457.7405971344487,233.58679611779542L458.3004603832763,233.76797158267127L458.86032363210387,233.94779674031653L459.42018688093145,233.9287245372594L459.9800501297591,233.9117972587763L461.0997766274143,234.0864708474645L461.65963987624195,234.25902435840695L462.2195031250695,234.4297303601233L462.7793663738971,234.59908992329602L463.3392296227247,234.58985138715423L463.89909287155234,234.58256735690694L464.4589561203799,234.57848689967705L465.01881936920756,234.74695757839424L465.5786826180351,234.91407920117027L466.1385458668627,234.91479400301887L466.69840911569037,234.91587523323375L467.25827236451795,234.91855983452746L467.8181356133456,235.0815094150856L468.3779988621731,235.24295132945304L468.93786211100075,235.24826053325287L469.49772535982834,235.40732453070007L470.057588608656,235.56569363297325L470.61745185748356,235.72321597097815L471.1773151063112,235.73292675278444L471.7371783551387,235.74392495881347L472.29704160396636,235.89888390437994L472.856904852794,235.91153929934504L473.9766313504492,236.06361422088222L474.5364945992768,236.07867444870743L475.0963578481044,236.22912517225782L475.656221096932,236.246220484108L476.2160843457596,236.26447235519186L476.7759475945872,236.4130855101954L477.33581084341483,236.43260222453515L477.8956740922425,236.57886104651888L478.45553734107,236.59895228566418L479.01540058989764,236.74366672912222L479.5752638387252,236.7648362390542L480.13512708755286,236.90787973924625L480.69499033638044,236.93030255065128L481.8147168340356,236.9536885790545L482.93444333169083,236.9786118929826L483.49430658051847,237.00436708776488L484.0541698293461,237.03074502175144L484.61403307817363,237.1694237380649L485.1738963270013,237.30714464595354L485.73375957582886,237.4437858439704L486.2936228246565,237.471218825006L486.8534860734841,237.60655565387455L487.4133493223117,237.74114313102288L487.97321257113924,237.8748966447554L488.5330758199669,238.00792878113182L489.0929390687945,238.14006115787743L489.6528023176221,238.1695851320339L490.21266556644974,238.1995780695624L490.7725288152773,238.23009759976173L491.3323920641049,238.26120440675942L491.8922553129325,238.2925449783486L492.45211856176013,238.4216066194161L493.0119818105877,238.45370042791694L493.57184505941535,238.48643444332376L494.131708308243,238.51967715842358L494.6915715570705,238.55332383061872L495.25143480589816,238.58733852154222L495.81129805472574,238.6218646070646L496.3711613035534,238.74778496562124L496.93102455238096,238.7827932903549L497.4908878012086,238.90761624558598L498.0507510500361,239.03157792015384L498.61061429886377,239.15477388997826L499.17047754769135,239.18980822572755L499.730340796519,239.31197347449418L500.2902040453466,239.34718766626395L500.85006729417415,239.46826984313262L501.4099305430018,239.588744666014L501.9697937918294,239.62421513083405L502.529657040657,239.65984956943194L503.0895202894846,239.77868588363316L503.64938353831224,239.81405280916383L504.20924678713976,239.84981325068654L504.7691100359674,239.88564207342714L505.32897328479504,239.92171185140666L505.8888365336226,240.0384868254614L506.44869978245026,240.15456997114916L507.00856303127784,240.19047712254041L507.5684262801054,240.30558766507662L508.128289528933,240.34161050337502L508.68815277776065,240.4557399730679L509.24801602658823,240.56929720570642L509.80787927541587,240.68231888624933L510.36774252424345,240.7181267592517L510.92760577307104,240.75404987126106L511.4874690218987,240.86583369247907L512.0473322707263,240.90167158282964L512.6071955195539,241.01261430559006L513.1670587683815,241.1229986092448L513.7269220172091,241.23283572568786L514.2867852660366,241.26844752937876L514.8466485148642,241.30408062087363L515.4065117636919,241.33980130030866L515.9663750125195,241.4481054515471L517.0861015101747,241.48401544013885L517.6459647590023,241.5915183854799L518.20582800783,241.6985581307521L518.7656912566575,241.80509526608924L519.3255545054851,241.91112461751092L519.8854177543127,242.0167001695587L521.0051442519679,242.12174377036047L521.5650075007956,242.15708702908515L522.1248707496231,242.19249099314663L522.6847339984507,242.22793745706213L523.2445972472784,242.26337688100247L523.8044604961059,242.3668454226595L524.3643237449336,242.46986860049336L524.9241869937612,242.57241035553488L525.4840502425888,242.67447006950889L526.0439134914163,242.70904360436418L526.603776740244,242.81034189773672L527.1636399890715,242.91116041083856L527.7235032378992,242.94525153891323L528.2833664867268,243.04534545525843L528.8432297355544,243.0792406277697L529.403092984382,243.17860338968077L529.9629562332096,243.27753709191649L530.5228194820372,243.31104190705076L531.0826827308648,243.40931123585L531.6425459796925,243.50715771791732L532.20240922852,243.60457202077757L532.7622724773476,243.6374012732374L533.3221357261752,243.73414826747955L533.8819989750028,243.83048107574808L536.1214519703133,243.863240914269L536.6813152191409,243.95889195936553L537.2411784679684,243.99134721707688L537.801041716796,244.0237689318376L538.3609049656236,244.11853372807025L538.9207682144513,244.15075155909415L539.4806314632789,244.1829027452713L540.0404947121065,244.2768101459463L540.600357960934,244.3703160839606L541.1602212097617,244.40199696220995L541.7200844585893,244.433641571709L542.2799477074168,244.52631808926702L542.8398109562445,244.61860128422597L543.3996742050721,244.71051926012976L543.9595374538998,244.74148798738182L544.5194007027274,244.77241154401915L545.0792639515548,244.80324046843256L545.6391272003825,244.89411071409108L546.1989904492101,244.98461279301014L546.7588536980378,245.01492767864605L547.3187169468653,245.10485722850086L547.878580195693,245.1349028037491L548.4384434445205,245.224246246174L548.9983066933481,245.2540015289025L549.5581699421758,245.28367717747602L550.677896439831,245.37223502980964L551.2377596886586,245.40167178371453L551.7976229374862,245.48968102209835L552.3574861863137,245.57735593328078L552.9173494351413,245.66469607251994L553.477212683969,245.75169237244577L554.0370759327966,245.78023146614424L554.5969391816241,245.80871664483865L555.1568024304518,245.8949711205073L555.7166656792793,245.92314606064832L556.276528928107,245.951259261233L556.8363921769346,245.97931469942532L557.3962554257622,246.06465421898102L557.9561186745898,246.09239995655648L558.5159819234174,246.17720885306372L559.0758451722451,246.2616930057184L559.6357084210725,246.34586007709606L560.1955716699002,246.37293268894075L560.7554349187278,246.4565877448021L561.3152981675554,246.53991972935586L561.8751614163831,246.6229336503232L562.4350246652106,246.70563091314543L562.9948879140383,246.7880236040226L563.5547511628658,246.8701036708973L564.1146144116935,246.89589318618334L564.674477660521,246.97749961223977L565.2343409093486,247.00304759078486L565.7942041581763,247.02852562083325L566.3540674070039,247.05395304807325L566.9139306558316,247.1347477376632L567.473793904659,247.1599164596765L568.0336571534866,247.2402437465576L568.5935204023143,247.3202700474106L569.1533836511419,247.40000079497358L569.7132468999695,247.42448697057011L570.8329733976246,247.50375061440266L571.3928366464523,247.582722317654L571.9526998952798,247.60676529377182L572.5125631441075,247.68529360712716L573.0724263929351,247.76353408872635L573.6322896417628,247.78712999296255L574.1921528905904,247.81065998009583L574.7520161394178,247.8882965678702L575.3118793882455,247.9115624849433L575.8717426370731,247.9887613948895L576.4316058859008,248.01175972796906L576.9914691347283,248.0346942240136L577.5513323835559,248.111309372285L578.1111956323836,248.13399357138928L578.6710588812111,248.21018014759025L579.2309221300388,248.2860954694213L580.3506486276939,248.3617365716176L580.9105118765216,248.38379776977226L581.4703751253492,248.40578831866566L582.0302383741767,248.42771138027388L582.5901016230043,248.44957040750944L583.149964871832,248.52435266055952L583.7098281206596,248.54596748741403L584.2696913694872,248.56751164326462L584.8295546183148,248.58899691400262L585.3894178671424,248.6630875279306L585.94928111597,248.7369177223213L586.5091443647976,248.75797603379294L587.0690076136251,248.77897324343127L587.6288708624528,248.85226771098462L588.1887341112804,248.8730287789432L588.7485973601081,248.89373374786132L589.3084606089357,248.9665028054967L589.8683238577632,248.98696358134902L590.4281871065908,249.0593442968834L590.9880503554184,249.13147596817612L591.5479136042461,249.15152172464045L592.1077768530736,249.2232717794407L592.6676401019013,249.2947758079704L593.2275033507289,249.31441225096347L593.7873665995564,249.33398848076118L594.3472298483841,249.35350540281553L594.9070930972116,249.4243710601456L595.4669563460393,249.4436541301306L596.0268195948669,249.5141494426615L596.5866828436945,249.58440472245135L597.146546092522,249.6032832380144L597.7064093413496,249.67317636221836L598.2662725901773,249.69183216557016L598.8261358390049,249.7613676489349L599.3859990878326,249.83066904795157L599.9458623366601,249.89973780202354L600.5057255854877,249.96857504297944L601.0655888343153,250.03718308785736L601.6254520831429,250.05495909213954L602.1853153319705,250.07268099281708L602.7451785807981,250.1408222640577L603.3050418296257,250.20873565927928L603.8649050784534,250.22607571019353L604.4247683272808,250.24336372827958L604.9846315761085,250.2605973038527L605.5444948249361,250.32793674677276L606.6642213225914,250.34496254272574L607.2240845714189,250.41196483196302L607.7839478202466,250.47874565388048L608.3438110690741,250.49540151784197L608.9036743179018,250.5618509344646L609.4635375667293,250.62808314124862L610.0234008155569,250.6443743137353L610.5832640643846,250.66061531796754L611.1431273132122,250.72640909735475L611.7029905620399,250.7424421911391L612.2628538108673,250.80791479947567L612.8227170596949,250.87317381829888L613.3825803085226,250.93822199712588L613.9424435573502,251.0030597437634L614.5023068061778,251.0676871726027L615.6220333038331,251.08291534465997L616.1818965526606,251.14722846825165L616.7417598014882,251.16226240998014L617.3016230503158,251.2262674421591L617.8614862991434,251.24110971010174L618.4213495479711,251.30480760767952L618.9812127967987,251.36830267651317L619.5410760456261,251.382807674648L620.1009392944538,251.44599877399463L620.6608025432814,251.46031238647495L621.2206657921091,251.5232030113644L621.7805290409366,251.58589367068458L622.3403922897643,251.64838585498995L622.9002555385919,251.6622241881593L623.4601187874194,251.72442283558053L624.0199820362471,251.73807808868565L624.5798452850746,251.7999845786456L625.1397085339023,251.86169617731142L625.6995717827299,251.92321320242343L626.2594350315575,251.93640514305991L626.819298280385,251.99763532333827L627.3791615292126,252.01064711939532L627.9390247780403,252.0715945964088L628.4988880268679,252.1323520908058L629.0587512756955,252.19292045924334L629.6186145245231,252.25330083559368L630.1784777733507,252.26573247966905L631.2982042710059,252.27812953242255L631.8580675198335,252.2904896170945L632.4179307686611,252.35041684717245L632.9777940174887,252.4101588029997L633.5376572663164,252.4222149750159L634.097520515144,252.48168569896794L634.6573837639716,252.49357452730197L635.2172470127991,252.50542853507307L635.7771102616267,252.56454529879312L636.3369735104544,252.6234807910539L636.8968367592819,252.6822360923964L637.4567000081096,252.69366464503423L638.0165632569372,252.70505918566528L638.5764265057649,252.71642042032354L639.1362897545924,252.7747468600815L639.6961530034199,252.78594625501626L640.2560162522476,252.7971125180311L640.8158795010752,252.80824634817554L641.3757427499029,252.8193473345542L641.9356059987304,252.83041617341792L642.4954692475579,252.88815904889327L643.0553324963856,252.89907006304873L643.6151957452132,252.9565590302102L644.1750589940409,252.96731344633713L644.7349222428684,252.97803587194784L645.294785491696,252.98872754413514L645.8546487405237,252.99938777317718L646.4145119893512,253.0100166949524L646.9743752381788,253.06694062002L647.5342384870064,253.12369516577684L648.0941017358341,253.18028051361551L648.6539649846617,253.23669711647807L649.2138282334892,253.24680637088713L649.7736914823168,253.30298017910675L650.3335547311444,253.35898766912862L650.8934179799721,253.3688272224274L651.4532812287997,253.42459483119404L652.0131444776272,253.43428729950625L652.5730077264549,253.44395149140757L653.1328709752825,253.45358779783675L653.6927342241102,253.50897174463057L654.2525974729376,253.56419293183677L654.8124607217653,253.57356669823463L655.3723239705929,253.58291357401754L655.9321872194205,253.6378300249516L656.4920504682482,253.69258591980775L657.0519137170756,253.74718193307325L657.6117769659033,253.80161900426748L658.1716402147309,253.8104778945508L659.2913667123861,253.8646877088398L659.8512299612137,253.91874057877016L660.4110932100414,253.92734879031426L660.970956458869,253.98117705528827L661.5308197076965,253.98964841314233L662.0906829565241,253.99809612936193L662.6505462053517,254.00652003554322L663.2104094541794,254.05999197007685L663.770272703007,254.11331020540723L664.3301359518346,254.1214888381656L664.8899992006621,254.1745882750969L665.4498624494897,254.2275356596155L666.0097256983174,254.23547157207463L666.569588947145,254.24338508174066L667.1294521959726,254.25127654543365L667.6893154448002,254.30388015541797L668.2491786936278,254.31164180275204L668.8090419424555,254.31938139055384L669.3689051912829,254.32709927268377L669.9287684401106,254.3793638131224L670.4886316889382,254.38695371352196L671.0484949377659,254.39452241245453L671.6083581865934,254.4465145359161L672.168221435421,254.453955934951L672.7280846842486,254.46137662956914L673.2879479330762,254.46877644145914L673.8478111819039,254.52043846210887L674.4076744307314,254.57195545616332L675.5274009283867,254.5791262645698L676.0872641772143,254.58627699216174L676.6471274260418,254.63752943358975L677.2069906748694,254.64455683308336L677.766853923697,254.69560701590154L678.3267171725247,254.74651493490546L678.8865804213523,254.797281158574L679.4464436701799,254.80398215074922L680.0063069190074,254.81066479626443L680.5661701678351,254.81732942754616L681.1260334166627,254.823975857275L681.6858966654902,254.87437120181855L682.2457599143179,254.92462728959552L682.8056231631455,254.97474467196884L683.3654864119732,254.98107261097135L683.9253496608007,255.0309961256428L684.4852129096282,255.03720778763665L685.0450761584559,255.08693886900215L685.6049394072835,255.09303525968045L686.1648026561112,255.0991152016079L686.7246659049387,255.14860060725087L687.2845291537664,255.15456680010544L687.8443924025939,255.2038630744712L688.4042556514215,255.20971624084046L688.9641189002492,255.25882477031735L689.5239821490767,255.2645658796337L690.0838453979044,255.31348803678412L690.643708646732,255.31911804793293L691.2035718955595,255.36785519166938L691.7634351443871,255.41646034724118L692.3232983932147,255.46493402586248L692.8831616420424,255.51327673611772L694.0028881396975,255.56148872978218L694.5627513885252,255.56663288707523L695.1226146373527,255.6146647192494L695.6824778861804,255.6197021088992L696.242341135008,255.66755507948085L696.8022043838356,255.67248685760953L697.3620676326632,255.67740541859325L697.9219308814908,255.72503178015103L698.4817941303185,255.7725307969921L699.0416573791459,255.777253688471L699.6015206279736,255.824577667006L700.1613838768012,255.87177529238085L700.7212471256288,255.91884729694456L701.2811103744565,255.96579440952956L701.840973623284,256.01261660178557L702.4008368721117,256.0593145982006L702.9607001209392,256.06348744118975L703.5205633697669,256.11001574466485L704.0804266185944,256.11408937936193L704.640289867422,256.1604491901665L705.2001531162497,256.1644246922693L705.7600163650773,256.16838972079137L706.319879613905,256.1723443150904L706.8797428627324,256.21844715154873L707.43960611156,256.264428938009L707.9994693603877,256.3102901276756L708.5593326092153,256.3139756167315L709.1191958580429,256.3596727520128L709.6790591068705,256.36326307447746L710.238922355698,256.36684427074925L710.7987856045257,256.3704161268919L711.3586488533533,256.3739786776166L711.9185121021809,256.37753220503794L712.4783753510085,256.3810764953086L713.0382385998362,256.4263969892165L713.5981018486638,256.47159968893834L714.1579650974912,256.4749666563773L714.7178283463189,256.4783249101932L715.8375548439742,256.4816747288868L716.3974180928018,256.526635105978L716.9572813416293,256.5298931854062L717.517144590457,256.53314286995595L718.0770078392845,256.5779049998806L718.6368710881122,256.62255204601627L719.1967343369397,256.6256287982331L719.7565975857674,256.6701208246651L720.8763240834226,256.7144988348179L721.4361873322501,256.7587632442758L721.9960505810777,256.80291446661124L722.5559138299054,256.805659016524L723.115777078733,256.80839656360115L724.2355035763882,256.81112713324575L724.7953668252158,256.8138507507386L725.3552300740434,256.81656744123893L725.915093322871,256.8604116874063L726.4749565716985,256.8630418509681L727.0348198205262,256.8656653467171L727.5946830693538,256.90932196127255L728.1545463181815,256.9118597796449L728.714409567009,256.95536821621124L729.2742728158366,256.99876682311606L729.8341360646642,257.0011418617951L730.3939993134918,257.04439396087935L730.9538625623195,257.0466851926354L731.513725811147,257.08979176410463L732.0735890599747,257.1327900958309L732.6334523088022,257.17568057354504L733.1933155576298,257.17773481628916L733.7531788064575,257.22048205802315L734.313042055285,257.26312241369465L734.8729053041127,257.3056562624325L735.4327685529403,257.3480839815781L735.992631801768,257.3904057066672L736.5524950505954,257.3920761279492L737.112358299423,257.3937423942794L737.6722215482507,257.43589018258854L738.2320847970783,257.4779333519902L738.791948045906,257.51987227056276L739.3518112947335,257.561707304667L739.911674543561,257.56307278620636L740.4715377923887,257.6047712025364L741.0314010412163,257.60605998931675L741.5912642900439,257.6073460734219L742.1511275388715,257.60862898825803L742.7109907876991,257.609908744886L743.2708540365268,257.6111853543154L743.8307172853542,257.6124588275044L744.3905805341819,257.61372917536164L744.9504437830095,257.6550970844932L745.5103070318372,257.6562920717692L746.0701702806648,257.69752674051074L746.6300335294923,257.73866062430335L747.18989677832,257.7397092535021L747.7497600271475,257.7807113552524L748.3096232759752,257.82161354537726L748.8694865248027,257.86241616822394L749.4293497736303,257.90311980242376L749.989213022458,257.903882974496L750.5490762712856,257.90464429441545L751.1089395201133,257.9054037685371L752.2286660177684,257.94591763447545L752.788529266596,257.94660547479725L753.3483925154236,257.9869914857131L753.9082557642512,258.02727997414274L755.0279822619065,258.0674712728094L755.587845510734,258.06794996728917L756.1477087595616,258.10801536068277L756.7075720083892,258.14798439117334L757.2674352572168,258.1878573860596L757.8272985060445,258.18813010090463L758.3871617548721,258.18840216178313L758.9470250036995,258.18867357090863L759.5068882525272,258.22836621730744L760.6266147501825,258.2285695056977L761.1864779990101,258.22877230852754L761.7463412478377,258.22897462743344L762.3062044966653,258.26848902558487L762.8660677454928,258.30790932040827L763.4259309943205,258.3472358280036L763.985794243148,258.3864688630634L764.5456574919757,258.3864044648987L765.1055207408033,258.386340219499L765.6653839896309,258.3862761263532L766.785110487286,258.3862121849532L767.3449737361137,258.42524540508276L767.9048369849413,258.4641863905105L768.464700233769,258.50303544835265L769.0245634825965,258.50277565812246L770.1442899802518,258.54150723685916L770.7041532290793,258.58014764716614L771.2640164779069,258.5797591864699L772.3837429755621,258.57937163839244L772.9436062243898,258.5789849999153L773.5034694732174,258.57859926803206L774.063332722045,258.61704768155556L774.6231959708725,258.6554061133984L775.1830592197001,258.69367485993916L775.7429224685278,258.69309890467173L776.3027857173553,258.7312537495449L776.862648966183,258.7693196399382L777.4225122150106,258.76861894190273L777.9823754638383,258.76791987437787L778.5422387126658,258.80584906686585L779.1021019614933,258.84369016596753L779.661965210321,258.84286787738995L780.2218284591486,258.84204749503283L780.7816917079763,258.8797537782088L781.3415549568037,258.8788733701962L781.9014182056313,258.8779949973779L782.461281454459,258.87711865314327L783.0211447032866,258.8762443309101L783.5810079521143,258.87537202412454L784.1408712009418,258.8745017262606L784.7007344497695,258.8736334308204L785.260597698597,258.87276713133434L785.8204609474246,258.9102017977471L786.3803241962522,258.9092763966543L786.9401874450798,258.9083531168563L787.5000506939075,258.9074319515282L788.0599139427351,258.9065128938739L788.6197771915625,258.90559593712675L789.1796404403902,258.9046810745481L789.7395036892178,258.94189486299376L790.2993669380455,258.9790238182395L790.8592301868731,259.01606821151654L791.4190934357006,259.0149748004941L791.9789566845283,259.013883875169L792.5388199333559,259.0508005157111L793.0986831821835,259.04965242733465L793.658546431011,259.0864638250915L794.2184096798387,259.08525898074845L794.7782729286663,259.08405708719977L795.3381361774939,259.1207426715588L795.8979994263216,259.15734538815394L796.457862675149,259.1560284004619L797.5775891728043,259.19252773069985L798.1374524216319,259.22894483781226L799.2571789192871,259.2275139730037L799.8170421681148,259.26382874358546L800.3769054169423,259.3000619280882L800.93676866577,259.33621378307106L801.4966319145975,259.37228456402335L802.0564951634251,259.3706257176696L802.6163584122528,259.36897058476814L803.736084909908,259.3673193761336L804.2959481587355,259.3656718572432L804.8558114075631,259.40158360606677L805.4156746563908,259.39988255836056L805.9755379052184,259.39818552350584L806.535401154046,259.43397865345366L807.0952644028736,259.46969215654167L807.6551276517012,259.5053262803708L808.7748541493563,259.5408812715225L809.334717398184,259.5763573755634L809.8945806470116,259.5743827678547L810.4544438958393,259.572412533546L811.0143071446669,259.57044665910723L811.5741703934943,259.6057892163096L812.134033642322,259.6410537025323L812.6938968911496,259.63898134597594L813.2537601399773,259.6369135591878L813.8136233888048,259.6720644666348L814.3734866376324,259.66994600248665L814.9333498864601,259.66783241742706L815.4932131352876,259.7028706738459L816.0530763841153,259.73783200374294L816.6129396329428,259.7727166427389L817.1728028817705,259.7704441299732L817.7326661305981,259.7681763742978L818.2925293794257,259.802950402917L818.8523926282533,259.8006337856195L819.4122558770808,259.7983220092325L819.9721191259085,259.79601527766863L820.5319823747361,259.83066279039855L821.0918456235636,259.82830761081436L821.6517088723913,259.8628630359926L822.2115721212189,259.86045930354544L822.7714353700466,259.85806101216576L823.3312986188741,259.8556677095645L823.8911618677016,259.8900988252574L824.4510251165293,259.9244553182174L825.0108883653569,259.958737413638L826.130614863012,259.9929453358126" fill="none"></path></g></g></g></g><g opacity="0.2"><g><g><g><path style="fill: none;" stroke="rgb(255, 112, 67)" stroke-width="2px" d="M239.95379334051069,-23.843468839145316L240.51365658933827,239.8345534320926L241.6333830869935,240.5622511276816L242.1932463358211,241.8265451024854L242.7531095846487,-19.243561508894686L243.31297283347632,-18.0199625119663L243.8728360823039,243.1302967078643L244.43269933113152,243.6741795878473L244.9925625799591,244.15000836631575L245.5524258287867,245.16985750780057L246.11228907761432,-13.505157179367188L246.6721523264419,245.15995872939845L247.23201557526951,-12.108467043435098L248.35174207292474,-10.306339442116212L248.91160532175235,247.68964654327294L249.47146857057996,-6.126580261822085L250.59119506823515,-0.5897260592043381L251.15105831706276,4.396921043895702L251.71092156589035,7.959793853491135L252.27078481471796,256.4743999260521L252.83064806354557,256.32853042765424L253.39051131237318,10.234725606544487L253.9503745612008,14.348905379924531L254.5102378100284,16.083528811862266L255.07010105885598,259.99314068193814L256.1898275565112,17.543186177074517L256.7496908053388,23.479153625544313L257.3095540541664,25.080693481186927L257.869417302994,263.99513430009426L258.4292805518216,265.8578919191261L258.98914380064923,266.6840274666028L259.5490070494768,30.892101301430046L260.1088702983044,34.16021048749582L260.66873354713204,37.553979166055115L261.2285967959596,38.2661412788741L261.78846004478726,272.2471409285928L262.34832329361484,273.0356061249281L263.46804979127006,47.84664645875688L264.02791304009764,52.4031091504649L264.5877762889252,55.617737436552545L265.14763953775287,278.8731357215102L265.70750278658045,57.54387473396457L266.26736603540803,282.365617218024L266.82722928423567,61.6493930762428L267.3870925330633,281.5941999178256L267.9469557818909,64.9674086034193L268.50681903071853,285.9188662152841L269.06668227954606,69.33524457335358L269.6265455283737,285.8622232055386L270.1864087772013,74.60043230204656L270.7462720260289,72.98610652430125L271.3061352748565,288.1726255811995L271.8659985236841,77.82454691743624L272.42586177251167,289.2257456167581L272.9857250213393,290.23445863254057L273.54558827016695,290.8472205122383L274.1054515189945,292.5496729143691L274.66531476782217,87.95965865390434L275.2251780166497,90.83937827072037L275.78504126547733,91.43481728821439L276.3449045143049,297.07382709323696L276.90476776313255,296.92025854497075L277.46463101196014,96.84876165900585L278.0244942607878,299.7159760284021L278.58435750961536,300.1201761464886L279.14422075844294,301.60073093277197L279.7040840072706,102.97940508271728L280.26394725609816,300.81790254080454L280.8238105049258,103.12554954718189L281.3836737537534,105.26863507124028L281.94353700258097,106.74176577372208L282.50340025140855,108.56451583004537L283.0632635002362,108.8953000083161L283.62312674906383,303.52136890884947L284.1829899978914,108.73966921454945L284.74285324671905,109.39037641145535L285.3027164955466,111.71617688685285L285.8625797443742,113.70885597241244L286.4224429932018,115.01370744205826L286.98230624202944,306.1782285285845L287.542169490857,307.1631569795952L288.10203273968466,116.27387692586115L288.66189598851224,117.49390136392213L289.2217592373399,120.6279645924592L289.78162248616746,121.05952383418486L290.34148573499505,311.5650887418035L290.9013489838227,125.76831772685881L291.46121223265027,127.67012052736564L292.0210754814779,313.52985877159045L292.5809387303055,130.58146124185507L293.1408019791331,314.9125256381196L293.70066522796066,315.58124311239595L294.2605284767883,133.23749596338993L294.82039172561593,133.75346978760032L295.3802549744435,132.7690912687231L295.94011822327116,315.2147133454509L296.4999814720987,315.66868232161465L297.0598447209263,315.2736935667635L297.6197079697539,315.196565585047L298.17957121858154,315.3164507901393L298.7394344674091,133.6157117881708L299.29929771623677,315.4958661486777L299.8591609650643,316.0368618849601L300.41902421389193,315.8849431330942L300.97888746271957,316.29203039488135L301.53875071154715,316.3174647560534L302.0986139603748,137.2151550846408L302.6584772092024,316.98865692493035L303.21834045802996,137.66211242610308L303.77820370685754,139.41144654261063L304.3380669556852,318.57658596027005L304.89793020451276,140.9568933206412L305.4577934533404,319.2193191412409L306.017656702168,143.41880199906785L306.57751995099557,144.42833991305048L307.1373831998232,320.3318318472122L307.6972464486508,144.81397982163296L308.2571096974784,321.075752540738L308.816972946306,321.476378099957L309.3768361951336,322.63824721490556L309.9366994439612,148.15687977784805L310.4965626927888,323.46259548294853L311.05642594161645,151.31678981665735L312.1761524392717,151.44588638498496L312.7360156880992,152.32605276457323L313.29587893692684,153.48118521088702L313.8557421857544,154.61610765129643L314.41560543458206,156.16801613189511L314.97546868340964,157.3942273064574L315.5353319322373,327.91264630683384L316.0951951810648,158.1074892835433L316.65505842989245,328.2005357786954L317.2149216787201,158.3592207176305L317.77478492754767,327.9112714765002L318.3346481763753,327.45840236460333L318.8945114252029,157.9843044856503L319.4543746740305,158.76493314908393L320.01423792285806,159.1458986345321L320.5741011716857,160.34805027825593L321.1339644205133,161.76770008075962L321.6938276693409,330.42061180143696L322.25369091816845,330.4662561685134L322.8135541669961,163.2489422822098L323.3734174158237,163.6358195380926L323.9332806646513,164.5763409693271L324.49314391347895,165.4527953070146L325.6128704111341,332.3042668415399L326.1727336599617,166.7504976589255L326.73259690878933,332.5036172399159L327.2924601576169,332.66131027918294L327.85232340644455,332.672308921852L328.4121866552722,333.1818210434943L328.9720499040997,333.5883583731479L329.53191315292736,333.7837217635564L330.09177640175494,334.0733985148517L330.6516396505826,169.00494444000776L331.21150289941016,333.8928832920464L331.7713661482378,169.1110813417638L332.33122939706533,333.9338532359885L332.89109264589297,169.38412264602223L333.4509558947206,169.89913408899903L334.0108191435482,334.43264168102854L334.57068239237583,334.53149198201635L335.1305456412034,170.4446667653824L335.690408890031,334.8259806394793L336.2502721388586,334.821306216345L336.8101353876862,171.628533165669L337.3699986365138,335.51999499189446L337.92986188534144,171.20920991391264L338.48972513416896,335.1243188218765L339.0495883829966,335.52521934716225L339.60945163182424,172.4178232602045L340.1693148806518,172.88939006463872L340.72917812947946,173.31654984929673L341.28904137830705,173.7248744583841L341.84890462713463,336.49035024136873L342.4087678759622,174.3957916611943L342.96863112478985,336.9609546645694L343.52849437361743,336.9128356028924L344.0883576224451,174.34794756558406L344.6482208712727,336.93235819362997L345.20808412010024,336.68406383537683L345.7679473689279,174.16275791964443L346.32781061775546,336.8567425252804L346.8876738665831,174.52818782232262L347.4475371154107,337.28623952150565L348.0074003642383,337.6652802444867L348.56726361306585,337.72343556759915L350.2468533595487,177.0999454444061L350.80671660837635,338.54929614900914L351.36657985720393,338.6678065237678L351.9264431060315,178.0873485900173L352.4863063548591,178.64992916253763L353.04616960368674,339.288679902434L353.6060328525143,178.52358225487728L354.7257593501695,339.40760272629274L355.2856225989971,339.6477855855775L355.84548584782476,339.6186391825046L356.40534909665234,179.45956674601084L356.96521234548,179.51593478968957L358.08493884313515,179.54686847219617L358.64480209196273,339.86803340502456L359.20466534079037,340.00056704918626L359.76452858961795,340.03713753606075L360.3243918384456,180.15784307246022L360.88425508727323,340.09831748590716L361.44411833610076,180.52286052603827L362.0039815849284,340.57318388314206L362.563844833756,340.8271150457631L363.1237080825836,181.50118979144756L363.6835713314112,181.58120491686466L364.24343458023884,341.0458505518432L364.80329782906637,341.0853081824183L365.9230243267216,341.5750227472564L366.4828875755492,182.6332250881564L367.04275082437687,342.205932387358L367.60261407320445,183.09736780878902L368.16247732203203,342.3259550754837L368.7223405708596,183.34456230277522L369.28220381968725,183.2616600336575L369.84206706851484,342.66980014192393L370.4019303173425,342.5998212779423L370.96179356617,183.70504281625233L371.52165681499764,183.99788167731498L372.0815200638252,343.0407293659366L372.64138331265286,343.1168949664196L373.2012465614805,184.30776843451463L373.7611098103081,184.4392022144094L374.32097305913567,184.34557626868937L374.88083630796325,343.14384164095867L375.4406995567909,184.45185065347877L376.0005628056185,343.0465036533378L376.5604260544461,184.6594500338565L377.1202893032737,184.76476203741234L377.6801525521013,184.93015412654773L378.2400158009289,185.10571996015196L378.7998790497565,343.3134957041283L379.35974229858414,343.34745401336886L379.9196055474117,185.21488148864196L380.47946879623936,185.40158344794858L381.0393320450669,343.70573479831216L381.5991952938945,343.75536617335615L382.1590585427221,343.79262407539744L382.71892179154975,343.75206658055544L383.2787850403774,185.5856732296213L383.83864828920497,185.69263502957753L384.39851153803255,185.70734571414735L384.95837478686013,344.08381314005976L385.5182380356878,186.06645139729082L386.07810128451536,186.0790998363602L386.637964533343,186.05036588238738L387.1978277821705,344.0733644295242L387.75769103099816,344.0682775572898L388.31755427982574,344.1654780618772L389.437280777481,186.347741683551L389.9971440263086,186.34939147995135L390.5570072751362,344.40854806486254L391.11687052396377,186.54530480249326L391.6767337727914,344.69011331718946L392.236597021619,344.79006348244417L392.79646027044663,344.7947379055785L393.3563235192742,344.7968001510789L393.9161867681018,344.8762653443626L394.47605001692943,187.22543336853872L395.035913265757,187.23821929064147L395.59577651458466,187.2533424243114L396.15563976341224,187.3813391283721L396.7155030122399,187.36594102863546L397.2753662610674,187.54301917560667L397.83522950989504,344.7552802750034L398.3950927587226,344.55881702032804L398.95495600755027,344.32330858417765L399.51481925637785,186.9595411820152L400.0746825052055,344.23023257059106L400.63454575403307,344.16341581637676L401.7542722516883,187.22832051223938L402.8739987493435,187.1082978241137L403.43386199817104,343.1413669463581L403.9937252469987,342.86378870199877L404.55358849582626,342.2952963590438L405.1134517446539,341.8861468517563L405.67331499348154,341.47658489536866L406.2331782423091,341.3561497581429L406.7930414911367,185.69057278407706L407.3529047399643,185.13087935525732L407.9127679887919,184.66563677035782L408.4726312376195,337.8118371580514L409.03249448644715,336.4741272434319L409.59235773527473,182.8111281333278L410.1522209841023,335.5686639857049L410.7120842329299,181.73793557489824L411.8318107305852,180.86835538887885L412.39167397941276,331.6792689718729L412.9515372282404,330.98855421225846L413.5114004770679,180.1541310305594L414.07126372589556,180.00056248229325L415.1909902235508,179.1958742880211L415.75085347237837,327.4456164425006L416.310716721206,326.1815974337635L416.8705799700336,325.46228620320966L417.43044321886117,176.08862025098975L417.9903064676888,323.3328114994541L418.5501697165164,175.9373889142907L419.11003296534403,321.8620180085395L419.66989621417156,320.35396661558354L420.2297594629992,175.10822874008L420.7896227118268,173.71016377381432L421.3494859606544,172.6584185685893L421.909349209482,172.90698789290914L422.46921245830964,173.24753336654865L423.0290757071372,173.81836292107076L423.5889389559648,316.53771257550056L424.14880220479245,315.82651284391505L424.70866545362003,315.14982135370366L425.26852870244767,314.9152752987868L425.82839195127525,173.55247073454723L426.38825520010283,312.193661170338L426.9481184489304,170.94702976928988L427.50798169775805,170.5927359923141L428.0678449465857,170.0384044017955L428.6277081954133,307.057707493006L429.1875714442409,305.8044121608712L429.74743469306844,306.2476574604327L430.3072979418961,305.51734758720977L430.86716119072366,305.2462310454185L431.4270244395513,167.96942223271958L431.9868876883789,302.8838600831465L432.5467509372065,302.68863417577137L433.10661418603405,167.11991456957122L433.6664774348617,166.96730840253858L434.22634068368933,166.82116393807397L434.7862039325169,167.9240528317099L435.34606718134455,301.521128256455L435.9059304301721,301.42434020096755L436.4657936789997,301.15858549747736L437.0256569278273,171.32950756810504L437.58552017665494,301.72652790829886L438.1453834254825,205.36411989221887L438.70524667431016,300.52190156997455L439.26510992313774,300.6324379287982L439.8249731719653,300.1931796372042L440.38483642079296,299.4289114547407L440.94469966962055,208.36070008739324L441.5045629184482,299.2511458926027L442.06442616727577,298.9277857981335L442.62428941610335,298.3023754793664L443.18415266493093,298.29220173489756L443.7440159137586,212.4010514718575L444.3038791625862,297.81568554126227L444.8637424114138,297.419871888211L445.42360566024144,297.1450433045188L445.98346890906896,215.7252537355353L447.1031954067242,217.39278544719198L447.6630586555518,217.5794874064986L448.2229219043794,218.57898905904574L448.78278515320704,218.41978370641166L449.34264840203457,294.96524981055256L449.9025116508622,219.4355083568956L450.46237489968985,219.58055295709332L451.02223814851743,293.82579043004216L451.58210139734507,292.99401807819754L452.1419646461726,292.347985304426L452.70182789500024,292.0996909461729L453.2616911438278,221.3840553887458L453.82155439265546,221.953785079001L454.38141764148304,221.69957895031325L454.9412808903107,222.15794738354467L455.5011441391382,290.55286933780866L456.06100738796584,290.98374116436753L456.6208706367935,290.71963625727767L457.18073388562107,225.88497493497525L457.7405971344487,290.34430757619737L458.3004603832763,290.2656672811139L458.86032363210387,290.1479818045554L459.42018688093145,227.95505696831808L459.9800501297591,228.59834008142235L461.0997766274143,289.0360190307175L461.65963987624195,288.6597279684037L462.2195031250695,288.36468937880727L462.7793663738971,288.2243192017439L463.3392296227247,231.65829995497694L463.89909287155234,232.26624992850697L464.4589561203799,233.27812505405674L465.01881936920756,288.5498790247469L465.5786826180351,288.39974755231475L466.1385458668627,235.1440447828559L466.69840911569037,235.26338005581476L467.25827236451795,235.7832034049593L467.8181356133456,287.6738371361595L468.3779988621731,287.4578512907466L468.93786211100075,236.96899456771297L469.49772535982834,287.06794940812983L470.057588608656,287.107407038705L470.61745185748356,287.0954460148024L471.1773151063112,238.90640547386073L471.7371783551387,239.34552628242133L472.29704160396636,286.7476139403947L472.856904852794,240.07281152891025L473.9766313504492,286.1699102342044L474.5364945992768,241.0508658282528L475.0963578481044,286.0016310013684L475.656221096932,241.91315941350393L476.2160843457596,242.32698334392578L476.7759475945872,285.87528409370805L477.33581084341483,242.94125753699052L477.8956740922425,285.45224880005094L478.45553734107,243.32593506433946L479.01540058989764,285.2933184134836L479.5752638387252,243.88095407002484L480.13512708755286,285.0866814143394L480.69499033638044,244.4974279916234L481.8147168340356,244.86134558093457L482.93444333169083,245.4225513231213L483.49430658051847,245.74714876489074L484.0541698293461,246.002317274812L484.61403307817363,284.42772523543175L485.1738963270013,284.3296998326441L485.73375957582886,284.187542376147L486.2936228246565,246.87382222329842L486.8534860734841,284.0818179234911L487.4133493223117,284.04730968211703L487.97321257113924,283.981730275203L488.5330758199669,283.95313380426353L489.0929390687945,283.86088268887715L489.6528023176221,248.4048332828259L490.21266556644974,248.61696960330465L490.7725288152773,248.8502783109212L491.3323920641049,249.1059967529759L491.8922553129325,249.23921781230442L492.45211856176013,283.58426682575134L493.0119818105877,249.70514781237074L493.57184505941535,249.9835509549303L494.131708308243,250.21699714558025L494.6915715570705,250.4145602645225L495.25143480589816,250.60029984259558L495.81129805472574,250.83773304121303L496.3711613035534,283.38161683457463L496.93102455238096,251.21443655262695L497.4908878012086,283.31328776699337L498.0507510500361,283.21058794107137L498.61061429886377,283.1400591449563L499.17047754769135,251.7207865645019L499.730340796519,283.08602831284475L500.2902040453466,251.987641132259L500.85006729417415,283.00931278022836L501.4099305430018,282.9884153591572L501.9697937918294,252.42469969531916L502.529657040657,252.54224768884433L503.0895202894846,282.8155991862202L503.64938353831224,252.6448100317329L504.20924678713976,252.84608519257597L504.7691100359674,252.92953739382716L505.32897328479504,253.0762317904252L505.8888365336226,282.69997595516213L506.44869978245026,282.63687124284866L507.00856303127784,253.35394751781794L507.5684262801054,282.5776160554693L508.128289528933,253.59303051283575L508.68815277776065,282.51162419945524L509.24801602658823,282.48591487221637L509.80787927541587,282.4724415349468L510.36774252424345,253.9807326669187L510.92760577307104,254.08192017947368L511.4874690218987,282.4090618565666L512.0473322707263,254.24291281154143L512.6071955195539,282.3823901480942L513.1670587683815,282.3536561941214L513.7269220172091,282.3278093838492L514.2867852660366,254.61466693375428L514.8466485148642,254.68052130673505L515.4065117636919,254.77139759178783L515.9663750125195,282.23982024249705L517.0861015101747,255.03151549091012L517.6459647590023,282.21521077952514L518.20582800783,282.2136984661581L518.7656912566575,282.1961006378877L519.3255545054851,282.1753406998499L519.8854177543127,282.1739658695163L521.0051442519679,282.1416573566761L521.5650075007956,255.6441398875745L522.1248707496231,255.72456746209173L522.6847339984507,255.79812088494077L523.2445972472784,255.8527016491858L523.8044604961059,282.1057742849684L524.3643237449336,282.1010998618341L524.9241869937612,282.08143978806316L525.4840502425888,282.06040488395865L526.0439134914163,256.07253701953283L526.603776740244,282.02658405775145L527.1636399890715,282.00334942511313L527.7235032378992,256.1848606577902L528.2833664867268,281.9788774451746L528.8432297355544,256.2841234078781L529.403092984382,281.94890614390147L529.9629562332096,281.9406571618997L530.5228194820372,256.42504351707487L531.0826827308648,281.9322706968646L531.6425459796925,281.92374674879613L532.20240922852,281.9105483775933L532.7622724773476,256.5666510414385L533.3221357261752,281.89487531179L533.8819989750028,281.88607639765473L536.1214519703133,256.82456921202703L536.6813152191409,281.8606420364826L537.2411784679684,256.87131344337035L537.801041716796,256.9099461757453L538.3609049656236,281.8402945475449L538.9207682144513,256.99463572429676L539.4806314632789,257.0195201533354L540.0404947121065,281.8264087611753L540.600357960934,281.8154101185063L541.1602212097617,257.1077842607543L541.7200844585893,257.1438048154953L542.2799477074168,281.80551134010415L542.8398109562445,281.79465018046847L543.3996742050721,281.7942377313684L543.9595374538998,257.2540662082522L544.5194007027274,257.2851373737922L545.0792639515548,257.2959985334279L545.6391272003825,281.77127806479683L546.1989904492101,281.76605370952905L546.7588536980378,257.35332895834017L547.3187169468653,281.76014193909447L547.878580195693,257.3992482914833L548.4384434445205,281.7462561527248L548.9983066933481,257.4349938801576L549.5581699421758,257.44956708169406L550.677896439831,281.7297581887213L551.2377596886586,257.5042853289724L551.7976229374862,281.72549621468704L552.3574861863137,281.727008528054L552.9173494351413,281.7275584601875L553.477212683969,281.72357145221997L554.0370759327966,257.59749882559237L554.5969391816241,257.6203210091306L555.1568024304518,281.711472945284L555.7166656792793,257.6390187016679L556.276528928107,257.6578538772386L556.8363921769346,257.6782013661763L557.3962554257622,281.7001993365483L557.9561186745898,257.6944243641131L558.5159819234174,281.6897506260127L559.0758451722451,281.6872759314122L559.6357084210725,281.6872759314122L560.1955716699002,257.75629172912636L560.7554349187278,281.6798518476106L561.3152981675554,281.67531490750963L561.8751614163831,281.6721527977423L562.4350246652106,281.66885320494157L562.9948879140383,281.6699530692085L563.5547511628658,281.6669284424745L564.1146144116935,257.8438684213784L564.674477660521,281.6673408915746L565.2343409093486,257.877826730619L565.7942041581763,257.8881379581212L566.3540674070039,257.9065606845918L566.9139306558316,281.6647287139407L567.473793904659,257.930895181497L568.0336571534866,281.66225401934014L568.5935204023143,281.6589544265395L569.1533836511419,281.6573046301391L569.7132468999695,257.9592166863697L570.8329733976246,281.65056796150435L571.3928366464523,281.6486431990372L571.9526998952798,257.9918001652767L572.5125631441075,281.64905564813733L573.0724263929351,281.64713088567026L573.6322896417628,258.0191592889159L574.1921528905904,258.0274082709177L574.7520161394178,281.64204401343585L575.3118793882455,258.03991922695366L575.8717426370731,281.6392943527686L576.4316058859008,258.04954303928906L576.9914691347283,258.05751705522414L577.5513323835559,281.6366821751347L578.1111956323836,258.0729151549607L578.6710588812111,281.63352006536735L579.2309221300388,281.6329701332339L580.3506486276939,281.6304954386334L580.9105118765216,258.099174414333L581.4703751253492,258.10233652410034L582.0302383741767,258.10673598116796L582.5901016230043,258.1125102685692L583.149964871832,281.62403373606537L583.7098281206596,258.12502122460523L584.2696913694872,258.12722095313904L584.8295546183148,258.13450755390727L585.3894178671424,281.6212840753981L585.94928111597,281.6201842111312L586.5091443647976,258.148805789377L587.0690076136251,258.15416762767813L587.6288708624528,281.6185344147308L588.1887341112804,258.16571620248055L588.7485973601081,258.1727278371821L589.3084606089357,281.6182594486641L589.8683238577632,258.1790520567167L590.4281871065908,281.6164721692304L590.9880503554184,281.61619720316367L591.5479136042461,258.19018818241915L592.1077768530736,281.61482237283L592.6676401019013,281.6144099237299L593.2275033507289,258.2007743759881L593.7873665995564,258.20379900272206L594.3472298483841,258.2070985955228L594.9070930972116,281.61028543272903L595.4669563460393,258.2121854677572L596.0268195948669,281.6086356363287L596.5866828436945,281.60781073812853L597.146546092522,258.21864717032526L597.7064093413496,281.6073982890284L598.2662725901773,258.2257962880601L598.8261358390049,281.6075357720618L599.3859990878326,281.6071233229617L599.9458623366601,281.606848356895L600.5057255854877,281.60657339082826L601.0655888343153,281.606848356895L601.6254520831429,258.24408153149733L602.1853153319705,258.2464187430645L602.7451785807981,281.6057484926281L603.3050418296257,281.6049235944279L603.8649050784534,258.2516430983323L604.4247683272808,258.25411779293285L604.9846315761085,258.25535514023306L605.5444948249361,281.60313631499423L606.6642213225914,258.26154187673444L607.2240845714189,281.6021739337607L607.7839478202466,281.60148651859384L608.3438110690741,258.26662874896886L608.9036743179018,281.6009365864604L609.4635375667293,281.6009365864604L610.0234008155569,258.27144065513653L610.5832640643846,258.2728154854702L611.1431273132122,281.5990118239933L611.7029905620399,258.2741903158038L612.2628538108673,281.59914930702666L612.8227170596949,281.59846189185987L613.3825803085226,281.5985993748932L613.9424435573502,281.59846189185987L614.5023068061778,281.5979119597264L615.6220333038331,258.2847765093727L616.1818965526606,281.5966746124261L616.7417598014882,258.2880761021734L617.3016230503158,281.5970870615262L617.8614862991434,258.2916506610409L618.4213495479711,281.5966746124261L618.9812127967987,281.59694957849285L619.5410760456261,258.2959126350751L620.1009392944538,281.5959871972593L620.6608025432814,258.29714998237534L621.2206657921091,281.5954372651259L621.7805290409366,281.59516229905915L622.3403922897643,281.59516229905915L622.9002555385919,258.30086202427617L623.4601187874194,281.59516229905915L624.0199820362471,258.30306175281L624.5798452850746,281.59461236692573L625.1397085339023,281.59447488389236L625.6995717827299,281.59406243479225L626.2594350315575,258.3059488965106L626.819298280385,281.59337501962546L627.3791615292126,258.3066363116774L627.9390247780403,281.5935125026588L628.4988880268679,281.5935125026588L629.0587512756955,281.5935125026588L629.6186145245231,281.5936499856922L630.1784777733507,258.31296053121207L631.2982042710059,258.31488529367914L631.8580675198335,258.315572708846L632.4179307686611,281.59337501962546L632.9777940174887,281.5932375365921L633.5376572663164,258.31763495434643L634.097520515144,281.59296257052534L634.6573837639716,258.31928475074676L635.2172470127991,258.3201096489469L635.7771102616267,281.592825087492L636.3369735104544,281.5926876044586L636.8968367592819,281.5926876044586L637.4567000081096,258.3228593096142L638.0165632569372,258.32327175871427L638.5764265057649,258.3239591738811L639.1362897545924,281.59227515535855L639.6961530034199,258.32492155511466L640.2560162522476,258.3253340042147L640.8158795010752,258.32602141938156L641.3757427499029,258.3264338684816L641.9356059987304,258.32712128364847L642.4954692475579,281.59186270625844L643.0553324963856,258.3283586309487L643.6151957452132,281.59172522322507L644.1750589940409,258.3294584952156L644.7349222428684,258.32959597824896L645.294785491696,258.3302833934158L645.8546487405237,258.3305583594825L646.4145119893512,258.33083332554924L646.9743752381788,281.59131277412496L647.5342384870064,281.5914502571584L648.0941017358341,281.59131277412496L648.6539649846617,281.5910378080583L649.2138282334892,258.33262060498294L649.7736914823168,281.5910378080583L650.3335547311444,281.5910378080583L650.8934179799721,258.33358298621647L651.4532812287997,281.5909003250249L652.0131444776272,258.3344078844167L652.5730077264549,258.33454536745L653.1328709752825,258.33482033351675L653.6927342241102,281.59076284199153L654.2525974729376,281.59062535895816L654.8124607217653,258.3356452317169L655.3723239705929,258.33592019778365L655.9321872194205,281.59048787592485L656.4920504682482,281.5903503928914L657.0519137170756,281.5902129098581L657.6117769659033,281.5902129098581L658.1716402147309,258.33702006205056L659.2913667123861,281.5902129098581L659.8512299612137,281.5903503928914L660.4110932100414,258.3383948923842L660.970956458869,281.5902129098581L661.5308197076965,258.3388073414843L662.0906829565241,258.33921979058437L662.6505462053517,258.3394947566511L663.2104094541794,281.59007542682474L663.770272703007,281.59007542682474L664.3301359518346,258.3401821718179L664.8899992006621,281.58993794379137L665.4498624494897,281.58993794379137L666.0097256983174,258.34045713788464L666.569588947145,258.340594620918L667.1294521959726,258.3408695869847L667.6893154448002,281.58993794379137L668.2491786936278,258.3414195191182L668.8090419424555,258.3414195191182L669.3689051912829,258.34155700215155L669.9287684401106,281.589800460758L670.4886316889382,258.34210693428497L671.0484949377659,258.34224441731834L671.6083581865934,281.58966297772463L672.168221435421,258.3423819003517L672.7280846842486,258.3425193833851L673.2879479330762,258.3425193833851L673.8478111819039,281.58966297772463L674.4076744307314,281.58966297772463L675.5274009283867,258.3432067985519L676.0872641772143,258.3432067985519L676.6471274260418,281.5893880116579L677.2069906748694,258.34334428158525L677.766853923697,281.5893880116579L678.3267171725247,281.5893880116579L678.8865804213523,281.5893880116579L679.4464436701799,258.343619247652L680.0063069190074,258.3437567306853L680.5661701678351,258.34403169675204L681.1260334166627,258.3441691797854L681.6858966654902,281.5892505286246L682.2457599143179,281.5892505286246L682.8056231631455,281.5892505286246L683.3654864119732,258.34444414585215L683.9253496608007,281.5892505286246L684.4852129096282,258.3445816288855L685.0450761584559,281.5892505286246L685.6049394072835,258.3447191119189L686.1648026561112,258.34485659495226L686.7246659049387,281.5891130455912L687.2845291537664,258.34513156101895L687.8443924025939,281.5891130455912L688.4042556514215,258.3452690440523L688.9641189002492,281.5891130455912L689.5239821490767,258.3454065270857L690.0838453979044,281.5891130455912L690.643708646732,258.34554401011906L691.2035718955595,281.5891130455912L691.7634351443871,281.5891130455912L692.3232983932147,281.5891130455912L692.8831616420424,281.5891130455912L694.0028881396975,281.58897556255783L694.5627513885252,258.34609394225254L695.1226146373527,281.58897556255783L695.6824778861804,258.34609394225254L696.242341135008,281.58897556255783L696.8022043838356,258.34623142528585L697.3620676326632,258.34623142528585L697.9219308814908,281.58897556255783L698.4817941303185,281.58897556255783L699.0416573791459,258.3463689083192L699.6015206279736,281.58897556255783L700.1613838768012,281.58883807952446L700.7212471256288,281.58883807952446L701.2811103744565,281.58897556255783L701.840973623284,281.58883807952446L702.4008368721117,281.58883807952446L702.9607001209392,258.34664387438596L703.5205633697669,281.58883807952446L704.0804266185944,258.34664387438596L704.640289867422,281.58883807952446L705.2001531162497,258.34678135741933L705.7600163650773,258.34678135741933L706.319879613905,258.34678135741933L706.8797428627324,281.58883807952446L707.43960611156,281.58883807952446L707.9994693603877,281.58883807952446L708.5593326092153,258.3470563234861L709.1191958580429,281.5887005964911L709.6790591068705,258.3470563234861L710.238922355698,258.3471938065194L710.7987856045257,258.3471938065194L711.3586488533533,258.3471938065194L711.9185121021809,258.34733128955276L712.4783753510085,258.34733128955276L713.0382385998362,281.58883807952446L713.5981018486638,281.5887005964911L714.1579650974912,258.34733128955276L714.7178283463189,258.34733128955276L715.8375548439742,258.3474687725861L716.3974180928018,281.5887005964911L716.9572813416293,258.3474687725861L717.517144590457,258.3474687725861L718.0770078392845,281.5887005964911L718.6368710881122,281.5887005964911L719.1967343369397,258.3474687725861L719.7565975857674,281.5887005964911L720.8763240834226,281.5887005964911L721.4361873322501,281.5887005964911L721.9960505810777,281.5887005964911L722.5559138299054,258.3476062556195L723.115777078733,258.3476062556195L724.2355035763882,258.3476062556195L724.7953668252158,258.3476062556195L725.3552300740434,258.3476062556195L725.915093322871,281.5887005964911L726.4749565716985,258.3476062556195L727.0348198205262,258.3476062556195L727.5946830693538,281.5887005964911L728.1545463181815,258.3476062556195L728.714409567009,281.5887005964911L729.2742728158366,281.5887005964911L729.8341360646642,258.34788122168624L730.3939993134918,281.5887005964911L730.9538625623195,258.34788122168624L731.513725811147,281.5887005964911L732.0735890599747,281.5887005964911L732.6334523088022,281.5887005964911L733.1933155576298,258.34788122168624L733.7531788064575,281.5887005964911L734.313042055285,281.5887005964911L734.8729053041127,281.5887005964911L735.4327685529403,281.5887005964911L735.992631801768,281.5885631134578L736.5524950505954,258.34788122168624L737.112358299423,258.34788122168624L737.6722215482507,281.5885631134578L738.2320847970783,281.5885631134578L738.791948045906,281.5885631134578L739.3518112947335,281.5885631134578L739.911674543561,258.34788122168624L740.4715377923887,281.5885631134578L741.0314010412163,258.34788122168624L741.5912642900439,258.3481561877529L742.1511275388715,258.3481561877529L742.7109907876991,258.3481561877529L743.2708540365268,258.3481561877529L743.8307172853542,258.3481561877529L744.3905805341819,258.3481561877529L744.9504437830095,281.5885631134578L745.5103070318372,258.3481561877529L746.0701702806648,281.5885631134578L746.6300335294923,281.5885631134578L747.18989677832,258.3481561877529L747.7497600271475,281.5885631134578L748.3096232759752,281.5885631134578L748.8694865248027,281.5885631134578L749.4293497736303,281.5887005964911L749.989213022458,258.3482936707863L750.5490762712856,258.3482936707863L751.1089395201133,258.3482936707863L752.2286660177684,281.5885631134578L752.788529266596,258.3482936707863L753.3483925154236,281.5885631134578L753.9082557642512,281.5885631134578L755.0279822619065,281.5885631134578L755.587845510734,258.3482936707863L756.1477087595616,281.5885631134578L756.7075720083892,281.5885631134578L757.2674352572168,281.5885631134578L757.8272985060445,258.3482936707863L758.3871617548721,258.3482936707863L758.9470250036995,258.3482936707863L759.5068882525272,281.5885631134578L760.6266147501825,258.3482936707863L761.1864779990101,258.3482936707863L761.7463412478377,258.3482936707863L762.3062044966653,281.5885631134578L762.8660677454928,281.5885631134578L763.4259309943205,281.5885631134578L763.985794243148,281.5885631134578L764.5456574919757,258.3482936707863L765.1055207408033,258.3482936707863L765.6653839896309,258.3482936707863L766.785110487286,258.3482936707863L767.3449737361137,281.5885631134578L767.9048369849413,281.5885631134578L768.464700233769,281.5885631134578L769.0245634825965,258.3482936707863L770.1442899802518,281.5885631134578L770.7041532290793,281.5885631134578L771.2640164779069,258.3482936707863L772.3837429755621,258.3482936707863L772.9436062243898,258.3482936707863L773.5034694732174,258.3482936707863L774.063332722045,281.5885631134578L774.6231959708725,281.5885631134578L775.1830592197001,281.5885631134578L775.7429224685278,258.3482936707863L776.3027857173553,281.5885631134578L776.862648966183,281.5885631134578L777.4225122150106,258.3482936707863L777.9823754638383,258.3482936707863L778.5422387126658,281.5885631134578L779.1021019614933,281.5885631134578L779.661965210321,258.3482936707863L780.2218284591486,258.3482936707863L780.7816917079763,281.5885631134578L781.3415549568037,258.3482936707863L781.9014182056313,258.3482936707863L782.461281454459,258.3482936707863L783.0211447032866,258.3482936707863L783.5810079521143,258.3482936707863L784.1408712009418,258.3482936707863L784.7007344497695,258.3482936707863L785.260597698597,258.3482936707863L785.8204609474246,281.5885631134578L786.3803241962522,258.3482936707863L786.9401874450798,258.3482936707863L787.5000506939075,258.3482936707863L788.0599139427351,258.3482936707863L788.6197771915625,258.3482936707863L789.1796404403902,258.3482936707863L789.7395036892178,281.5885631134578L790.2993669380455,281.5885631134578L790.8592301868731,281.5885631134578L791.4190934357006,258.3482936707863L791.9789566845283,258.3482936707863L792.5388199333559,281.5885631134578L793.0986831821835,258.3482936707863L793.658546431011,281.5885631134578L794.2184096798387,258.3482936707863L794.7782729286663,258.34843115381966L795.3381361774939,281.5885631134578L795.8979994263216,281.5885631134578L796.457862675149,258.34843115381966L797.5775891728043,281.5885631134578L798.1374524216319,281.5885631134578L799.2571789192871,258.34843115381966L799.8170421681148,281.5885631134578L800.3769054169423,281.5885631134578L800.93676866577,281.5885631134578L801.4966319145975,281.5885631134578L802.0564951634251,258.3482936707863L802.6163584122528,258.3482936707863L803.736084909908,258.34843115381966L804.2959481587355,258.34843115381966L804.8558114075631,281.5885631134578L805.4156746563908,258.3482936707863L805.9755379052184,258.34843115381966L806.535401154046,281.5885631134578L807.0952644028736,281.5885631134578L807.6551276517012,281.5885631134578L808.7748541493563,281.5885631134578L809.334717398184,281.5885631134578L809.8945806470116,258.34843115381966L810.4544438958393,258.34843115381966L811.0143071446669,258.34843115381966L811.5741703934943,281.5885631134578L812.134033642322,281.5885631134578L812.6938968911496,258.34843115381966L813.2537601399773,258.34843115381966L813.8136233888048,281.5885631134578L814.3734866376324,258.3482936707863L814.9333498864601,258.34843115381966L815.4932131352876,281.5885631134578L816.0530763841153,281.5885631134578L816.6129396329428,281.5885631134578L817.1728028817705,258.34843115381966L817.7326661305981,258.3482936707863L818.2925293794257,281.5885631134578L818.8523926282533,258.34843115381966L819.4122558770808,258.3482936707863L819.9721191259085,258.3482936707863L820.5319823747361,281.5885631134578L821.0918456235636,258.34843115381966L821.6517088723913,281.5885631134578L822.2115721212189,258.3482936707863L822.7714353700466,258.34843115381966L823.3312986188741,258.3482936707863L823.8911618677016,281.5885631134578L824.4510251165293,281.5885631134578L825.0108883653569,281.5885631134578L826.130614863012,281.5885631134578" fill="none"></path></g></g></g></g></g></g><g transform="translate(50, 378)" clip-path="url(#clip_1)"><clipPath id="clip_1"><rect width="1062" height="22"></rect></clipPath><g><g><line x1="16.008493809469066" y1="0" x2="16.008493809469066" y2="5" style="visibility: inherit;" fill="rgb(0, 0, 0)" stroke="rgb(204, 204, 204)" stroke-width="1px"></line><line x1="127.98114357498987" y1="0" x2="127.98114357498987" y2="5" style="visibility: inherit;" fill="rgb(0, 0, 0)" stroke="rgb(204, 204, 204)" stroke-width="1px"></line><line x1="239.95379334051069" y1="0" x2="239.95379334051069" y2="5" style="visibility: inherit;" fill="rgb(0, 0, 0)" stroke="rgb(204, 204, 204)" stroke-width="1px"></line><line x1="351.9264431060315" y1="0" x2="351.9264431060315" y2="5" style="visibility: inherit;" fill="rgb(0, 0, 0)" stroke="rgb(204, 204, 204)" stroke-width="1px"></line><line x1="463.89909287155234" y1="0" x2="463.89909287155234" y2="5" style="visibility: inherit;" fill="rgb(0, 0, 0)" stroke="rgb(204, 204, 204)" stroke-width="1px"></line><line x1="575.8717426370731" y1="0" x2="575.8717426370731" y2="5" style="visibility: inherit;" fill="rgb(0, 0, 0)" stroke="rgb(204, 204, 204)" stroke-width="1px"></line><line x1="687.8443924025939" y1="0" x2="687.8443924025939" y2="5" style="visibility: inherit;" fill="rgb(0, 0, 0)" stroke="rgb(204, 204, 204)" stroke-width="1px"></line><line x1="799.8170421681148" y1="0" x2="799.8170421681148" y2="5" style="visibility: inherit;" fill="rgb(0, 0, 0)" stroke="rgb(204, 204, 204)" stroke-width="1px"></line><line x1="911.7896919336355" y1="0" x2="911.7896919336355" y2="5" style="visibility: inherit;" fill="rgb(0, 0, 0)" stroke="rgb(204, 204, 204)" stroke-width="1px"></line><line x1="1023.7623416991563" y1="0" x2="1023.7623416991563" y2="5" style="visibility: inherit;" fill="rgb(0, 0, 0)" stroke="rgb(204, 204, 204)" stroke-width="1px"></line></g><g transform="translate(0, 8)"><text x="16.008493809469066" y="0" dx="0em" dy="0.95em" style="text-anchor: middle; visibility: inherit; font-family: &quot;Helvetica Neue&quot;, sans-serif; font-size: 12px; font-weight: 200;" fill="rgb(50, 49, 63)" stroke="none" stroke-width="1px">-400</text><text x="127.98114357498987" y="0" dx="0em" dy="0.95em" style="text-anchor: middle; visibility: inherit; font-family: &quot;Helvetica Neue&quot;, sans-serif; font-size: 12px; font-weight: 200;" fill="rgb(50, 49, 63)" stroke="none" stroke-width="1px">-200</text><text x="239.95379334051069" y="0" dx="0em" dy="0.95em" style="text-anchor: middle; visibility: inherit; font-family: &quot;Helvetica Neue&quot;, sans-serif; font-size: 12px; font-weight: 200;" fill="rgb(50, 49, 63)" stroke="none" stroke-width="1px">0</text><text x="351.9264431060315" y="0" dx="0em" dy="0.95em" style="text-anchor: middle; visibility: inherit; font-family: &quot;Helvetica Neue&quot;, sans-serif; font-size: 12px; font-weight: 200;" fill="rgb(50, 49, 63)" stroke="none" stroke-width="1px">200</text><text x="463.89909287155234" y="0" dx="0em" dy="0.95em" style="text-anchor: middle; visibility: inherit; font-family: &quot;Helvetica Neue&quot;, sans-serif; font-size: 12px; font-weight: 200;" fill="rgb(50, 49, 63)" stroke="none" stroke-width="1px">400</text><text x="575.8717426370731" y="0" dx="0em" dy="0.95em" style="text-anchor: middle; visibility: inherit; font-family: &quot;Helvetica Neue&quot;, sans-serif; font-size: 12px; font-weight: 200;" fill="rgb(50, 49, 63)" stroke="none" stroke-width="1px">600</text><text x="687.8443924025939" y="0" dx="0em" dy="0.95em" style="text-anchor: middle; visibility: inherit; font-family: &quot;Helvetica Neue&quot;, sans-serif; font-size: 12px; font-weight: 200;" fill="rgb(50, 49, 63)" stroke="none" stroke-width="1px">800</text><text x="799.8170421681148" y="0" dx="0em" dy="0.95em" style="text-anchor: middle; visibility: inherit; font-family: &quot;Helvetica Neue&quot;, sans-serif; font-size: 12px; font-weight: 200;" fill="rgb(50, 49, 63)" stroke="none" stroke-width="1px">1k</text><text x="911.7896919336355" y="0" dx="0em" dy="0.95em" style="text-anchor: middle; visibility: inherit; font-family: &quot;Helvetica Neue&quot;, sans-serif; font-size: 12px; font-weight: 200;" fill="rgb(50, 49, 63)" stroke="none" stroke-width="1px">1.2k</text><text x="1023.7623416991563" y="0" dx="0em" dy="0.95em" style="text-anchor: middle; visibility: inherit; font-family: &quot;Helvetica Neue&quot;, sans-serif; font-size: 12px; font-weight: 200;" fill="rgb(50, 49, 63)" stroke="none" stroke-width="1px">1.4k</text></g><line x1="0" y1="0" x2="1062.2" y2="0" fill="rgb(0, 0, 0)" stroke="rgb(204, 204, 204)" stroke-width="1px"></line></g></g></g></g></svg>