<svg viewBox="0 0 1129 400" xmlns="http://www.w3.org/2000/svg"><g><g><g><g><g><line x1="50" y1="364.82541236483064" x2="45" y2="364.82541236483064" style="visibility: inherit;" fill="rgb(0, 0, 0)" stroke="rgb(204, 204, 204)" stroke-width="1px"></line><line x1="50" y1="314.6582991678913" x2="45" y2="314.6582991678913" style="visibility: inherit;" fill="rgb(0, 0, 0)" stroke="rgb(204, 204, 204)" stroke-width="1px"></line><line x1="50" y1="264.49118597095196" x2="45" y2="264.49118597095196" style="visibility: inherit;" fill="rgb(0, 0, 0)" stroke="rgb(204, 204, 204)" stroke-width="1px"></line><line x1="50" y1="214.32407277401262" x2="45" y2="214.32407277401262" style="visibility: inherit;" fill="rgb(0, 0, 0)" stroke="rgb(204, 204, 204)" stroke-width="1px"></line><line x1="50" y1="164.15695957707328" x2="45" y2="164.15695957707328" style="visibility: inherit;" fill="rgb(0, 0, 0)" stroke="rgb(204, 204, 204)" stroke-width="1px"></line><line x1="50" y1="113.98984638013394" x2="45" y2="113.98984638013394" style="visibility: inherit;" fill="rgb(0, 0, 0)" stroke="rgb(204, 204, 204)" stroke-width="1px"></line><line x1="50" y1="63.8227331831946" x2="45" y2="63.8227331831946" style="visibility: inherit;" fill="rgb(0, 0, 0)" stroke="rgb(204, 204, 204)" stroke-width="1px"></line><line x1="50" y1="13.655619986255317" x2="45" y2="13.655619986255317" style="visibility: inherit;" fill="rgb(0, 0, 0)" stroke="rgb(204, 204, 204)" stroke-width="1px"></line></g><g transform="translate(40, 0)"><text x="0" y="364.82541236483064" dx="0em" dy="0.3em" style="text-anchor: end; visibility: inherit; font-family: &quot;Helvetica Neue&quot;, sans-serif; font-size: 12px; font-weight: 200;" fill="rgb(50, 49, 63)" stroke="none" stroke-width="1px">-0.2</text><text x="0" y="314.6582991678913" dx="0em" dy="0.3em" style="text-anchor: end; visibility: inherit; font-family: &quot;Helvetica Neue&quot;, sans-serif; font-size: 12px; font-weight: 200;" fill="rgb(50, 49, 63)" stroke="none" stroke-width="1px">0</text><text x="0" y="264.49118597095196" dx="0em" dy="0.3em" style="text-anchor: end; visibility: inherit; font-family: &quot;Helvetica Neue&quot;, sans-serif; font-size: 12px; font-weight: 200;" fill="rgb(50, 49, 63)" stroke="none" stroke-width="1px">0.2</text><text x="0" y="214.32407277401262" dx="0em" dy="0.3em" style="text-anchor: end; visibility: inherit; font-family: &quot;Helvetica Neue&quot;, sans-serif; font-size: 12px; font-weight: 200;" fill="rgb(50, 49, 63)" stroke="none" stroke-width="1px">0.4</text><text x="0" y="164.15695957707328" dx="0em" dy="0.3em" style="text-anchor: end; visibility: inherit; font-family: &quot;Helvetica Neue&quot;, sans-serif; font-size: 12px; font-weight: 200;" fill="rgb(50, 49, 63)" stroke="none" stroke-width="1px">0.6</text><text x="0" y="113.98984638013394" dx="0em" dy="0.3em" style="text-anchor: end; visibility: inherit; font-family: &quot;Helvetica Neue&quot;, sans-serif; font-size: 12px; font-weight: 200;" fill="rgb(50, 49, 63)" stroke="none" stroke-width="1px">0.8</text><text x="0" y="63.8227331831946" dx="0em" dy="0.3em" style="text-anchor: end; visibility: inherit; font-family: &quot;Helvetica Neue&quot;, sans-serif; font-size: 12px; font-weight: 200;" fill="rgb(50, 49, 63)" stroke="none" stroke-width="1px">1</text><text x="0" y="13.655619986255317" dx="0em" dy="0.3em" style="text-anchor: end; visibility: inherit; font-family: &quot;Helvetica Neue&quot;, sans-serif; font-size: 12px; font-weight: 200;" fill="rgb(50, 49, 63)" stroke="none" stroke-width="1px">1.2</text></g><line x1="50" y1="0" x2="50" y2="378" fill="rgb(0, 0, 0)" stroke="rgb(204, 204, 204)" stroke-width="1px"></line></g></g><g transform="translate(50, 0)" clip-path="url(#clip_0)"><clipPath id="clip_0"><rect width="1079" height="378"></rect></clipPath><g><g><g><line x1="22.622109113897768" y1="0" x2="22.622109113897768" y2="378" fill="rgb(0, 0, 0)" stroke="rgb(60, 60, 60)" stroke-width="1px" opacity="0.25"></line><line x1="125.74750678797369" y1="0" x2="125.74750678797369" y2="378" fill="rgb(0, 0, 0)" stroke="rgb(60, 60, 60)" stroke-width="1px" opacity="0.25"></line><line x1="228.8729044620496" y1="0" x2="228.8729044620496" y2="378" fill="rgb(0, 0, 0)" stroke="rgb(60, 60, 60)" stroke-width="1px" opacity="0.25"></line><line x1="331.9983021361255" y1="0" x2="331.9983021361255" y2="378" fill="rgb(0, 0, 0)" stroke="rgb(60, 60, 60)" stroke-width="1px" opacity="0.25"></line><line x1="435.1236998102014" y1="0" x2="435.1236998102014" y2="378" fill="rgb(0, 0, 0)" stroke="rgb(60, 60, 60)" stroke-width="1px" opacity="0.25"></line><line x1="538.2490974842773" y1="0" x2="538.2490974842773" y2="378" fill="rgb(0, 0, 0)" stroke="rgb(60, 60, 60)" stroke-width="1px" opacity="0.25"></line><line x1="641.3744951583532" y1="0" x2="641.3744951583532" y2="378" fill="rgb(0, 0, 0)" stroke="rgb(60, 60, 60)" stroke-width="1px" opacity="0.25"></line><line x1="744.4998928324292" y1="0" x2="744.4998928324292" y2="378" fill="rgb(0, 0, 0)" stroke="rgb(60, 60, 60)" stroke-width="1px" opacity="0.25"></line><line x1="847.625290506505" y1="0" x2="847.625290506505" y2="378" fill="rgb(0, 0, 0)" stroke="rgb(60, 60, 60)" stroke-width="1px" opacity="0.25"></line><line x1="950.7506881805809" y1="0" x2="950.7506881805809" y2="378" fill="rgb(0, 0, 0)" stroke="rgb(60, 60, 60)" stroke-width="1px" opacity="0.25"></line><line x1="1053.8760858546568" y1="0" x2="1053.8760858546568" y2="378" fill="rgb(0, 0, 0)" stroke="rgb(60, 60, 60)" stroke-width="1px" opacity="0.25"></line></g><g><line x1="0" y1="364.82541236483064" x2="1079" y2="364.82541236483064" fill="rgb(0, 0, 0)" stroke="rgb(60, 60, 60)" stroke-width="1px" opacity="0.25"></line><line x1="0" y1="314.6582991678913" x2="1079" y2="314.6582991678913" fill="rgb(0, 0, 0)" stroke="rgb(60, 60, 60)" stroke-width="1px" opacity="0.25"></line><line x1="0" y1="264.49118597095196" x2="1079" y2="264.49118597095196" fill="rgb(0, 0, 0)" stroke="rgb(60, 60, 60)" stroke-width="1px" opacity="0.25"></line><line x1="0" y1="214.32407277401262" x2="1079" y2="214.32407277401262" fill="rgb(0, 0, 0)" stroke="rgb(60, 60, 60)" stroke-width="1px" opacity="0.25"></line><line x1="0" y1="164.15695957707328" x2="1079" y2="164.15695957707328" fill="rgb(0, 0, 0)" stroke="rgb(60, 60, 60)" stroke-width="1px" opacity="0.25"></line><line x1="0" y1="113.98984638013394" x2="1079" y2="113.98984638013394" fill="rgb(0, 0, 0)" stroke="rgb(60, 60, 60)" stroke-width="1px" opacity="0.25"></line><line x1="0" y1="63.8227331831946" x2="1079" y2="63.8227331831946" fill="rgb(0, 0, 0)" stroke="rgb(60, 60, 60)" stroke-width="1px" opacity="0.25"></line><line x1="0" y1="13.655619986255317" x2="1079" y2="13.655619986255317" fill="rgb(0, 0, 0)" stroke="rgb(60, 60, 60)" stroke-width="1px" opacity="0.25"></line></g></g></g><g><g><line x1="0" y1="314.6582991678913" x2="1079" y2="314.6582991678913" fill="rgb(0, 0, 0)" stroke="rgb(153, 153, 153)" stroke-width="1.5px"></line></g></g><g><g><line x1="22.622109113897768" y1="0" x2="22.622109113897768" y2="378" fill="rgb(0, 0, 0)" stroke="rgb(153, 153, 153)" stroke-width="1.5px"></line></g></g><g><g><g><g><g><path stroke="rgb(255, 112, 67)" stroke-width="2px" d="M22.622109113897768,186.65911249380068L23.65336309063853,185.42999367697178L24.684617067379286,192.55607999887323L25.715871044120046,201.01941228989193L26.747125020860807,207.35565446157648L27.778378997601564,212.1883755164854L28.809632974342325,215.40760617059848L29.840886951083082,217.22965651088455L30.872140927823843,218.34691955370775L31.903394904564603,219.82964027199438L32.934648881305364,221.0328781428427L33.96590285804612,221.66703140162704L34.99715683478688,221.79451726129557L36.02841081152764,221.99408936686822L37.0596647882684,222.32607016099675L38.09091876500916,222.6492762481861L39.122172741749914,222.93434871502922L40.15342671849067,223.5954236179334L41.18468069523143,224.64207975740507L42.21593467197219,225.1474698121036L43.24718864871296,225.29344004092007L44.278442625453714,225.38667087142719L45.30969660219447,225.49764322917446L46.34095057893523,226.25744545265547L47.372204555675985,226.69735005153967L48.40345853241675,227.16329325921294L49.43471250915751,227.21402819051525L50.465966485898264,226.98925317963202L51.49722046263902,226.68264819173027L52.52847443937978,226.86738279936714L53.55972841612055,226.9555317291292L54.59098239286131,226.8146247056205L55.622236369602064,226.93716390807148L56.65349034634282,226.8110627912657L57.68474432308358,226.58487845819886L58.715998299824335,226.44677506265862L59.7472522765651,225.8301676593808L60.778506253305856,225.72607420404992L61.809760230046614,225.75243395211163L62.84101420678737,225.77084359515734L63.872268183528135,225.74189551113793L64.90352216026889,225.6432099184365L65.93477613700965,225.122384045698L66.9660301137504,225.1109681903342L67.99728409049118,224.33584799318317L69.02853806723193,223.8914574043135L70.05979204397269,224.94366943398214L71.09104602071345,225.64688528336788L72.1222999974542,225.76926563359586L73.15355397419496,225.67480128859972L74.18480795093572,225.85975233928585L75.21606192767649,224.91364015948113L76.24731590441723,224.93330334300472L77.278569881158,225.0379881134381L78.30982385789875,225.97960066555254L79.34107783463952,221.92719448433448L80.37233181138029,218.5163106484233L81.40358578812103,216.2600962517701L82.4348397648618,225.81881090406935L83.46609374160255,233.66339370437424L84.49734771834332,240.8658319266464L85.52860169508408,245.45920777991927L86.55985567182483,246.40799994521848L87.59110964856559,248.486873266566L88.62236362530635,251.05420924970213L89.65361760204712,252.27569498034927L90.68487157878788,252.54237593479513L91.71612555552863,252.3886908331657L92.74737953226939,253.3496565405568L93.77863350901015,255.4450739614291L94.8098874857509,253.53290289268597L95.84114146249166,254.88895082609218L96.87239543923242,254.74377688080168L97.90364941597319,255.49828255412962L98.93490339271393,256.75402277791295L99.9661573694547,255.31077259914736L100.99741134619546,254.52903759294261L102.02866532293622,254.48930207936579L103.05991929967699,254.96327192738613L104.09117327641773,255.0029173656414L105.1224272531585,255.1455407220517L106.15368122989925,255.43520036514388L107.18493520664002,256.0529649834546L108.21618918338078,255.92630197564893L109.24744316012153,256.1244102421819L110.2786971368623,255.58211223909706L111.30995111360305,255.7290575235031L112.34120509034382,256.14753107285725L113.37245906708458,256.9481102117709L114.40371304382533,255.176373642368L115.43496702056609,254.58266294248347L116.46622099730685,255.81455857390674L117.4974749740476,257.0567382916074L118.52872895078836,258.4863714642506L119.55998292752912,256.3597615191428L120.59123690426989,254.28063577092112L121.62249088101065,256.3714551580442L122.6537448577514,258.1387883996655L123.68499883449216,260.0865531986254L124.71625281123292,257.69101379047834L125.74750678797369,255.9441755432655L126.77876076471443,254.67213307467404L127.8100147414552,255.16033186860113L128.84126871819595,254.31044374075748L129.87252269493672,253.98083359642416L130.9037766716775,254.86754074020973L131.93503064841823,254.05772247499968L132.966284625159,252.61507606874392L133.99753860189975,250.71272295897785L135.0287925786405,249.6266072718601L136.06004655538126,251.61315613302077L137.09130053212203,251.5651374922861L138.1225545088628,252.1011999465669L139.15380848560355,252.4039370267401L140.1850624623443,254.38735043959667L141.21631643908506,253.27220410879625L142.24757041582583,254.58813074744705L143.2788243925666,254.87240517557456L144.31007836930735,255.8045130276421L145.3413323460481,256.2590913161713L146.37258632278886,256.3830675546816L147.40384029952963,256.7169727125827L148.43509427627038,257.64939384148954L149.46634825301115,258.91731975932714L150.4976022297519,260.33529767089243L151.52885620649266,257.1852791965128L152.56011018323343,257.0624034378861L153.59136415997418,257.202669396033L154.62261813671495,255.8439120537048L155.6538721134557,224.0597003593981L156.68512609019646,205.83839702190096L157.7163800669372,184.4436007723273L158.74763404367798,172.6734632984527L159.77888802041875,157.99566326482423L160.8101419971595,146.9644462712748L161.84139597390026,143.2395099092725L162.872649950641,134.91468658714544L163.90390392738178,133.19823287457083L164.93515790412255,126.91540330656903L165.9664118808633,126.11808882242201L166.99766585760403,125.72987648468899L168.0289198343448,123.41939080702036L169.06017381108558,121.59437361307266L170.09142778782632,119.80237966474874L171.12268176456706,120.57567848017459L172.15393574130783,118.89012267946276L173.1851897180486,119.98897754669775L174.21644369478938,119.52640970174343L175.24769767153012,117.57922599131871L176.27895164827086,118.85071288756416L177.31020562501163,119.4261223258481L178.3414596017524,119.15857411559142L179.37271357849318,117.61437213000193L180.4039675552339,118.05897271193788L181.43522153197466,119.21848881017172L182.46647550871543,120.13098028295252L183.4977294854562,120.70051372647652L184.52898346219698,120.44082054065728L185.5602374389377,120.0597962706542L186.59149141567846,119.30568840141297L187.62274539241923,118.66383160700946L188.65399936916,119.22298520044666L189.68525334590075,116.37586297985246L190.7165073226415,115.83860402643114L191.74776129938226,115.91466873834355L192.77901527612303,116.23831062610287L193.8102692528638,116.84206215921063L194.84152322960455,116.99887220610452L195.8727772063453,118.02048107418426L196.90403118308606,115.97863835483372L197.93528515982683,114.89827512240856L198.96653913656758,114.47160824696448L199.99779311330835,116.3960486102992L201.0290470900491,116.95542760895574L202.06030106678986,117.0212266959582L203.09155504353063,117.56001452743556L204.12280902027138,117.82389001587615L205.15406299701215,117.17800708424551L206.1853169737529,118.6812388784935L207.21657095049366,119.81986109625217L208.2478249272344,120.12133661355261L209.27907890397518,117.46463431279739L210.31033288071592,118.4300495445429L211.3415868574567,117.09323118338011L212.37284083419743,118.07923513619215L213.4040948109382,119.2196610691717L214.43534878767898,116.27546024730657L215.46660276441972,117.49017469196468L216.4978567411605,114.79208840641536L217.52911071790123,115.61116980364505L218.560364694642,114.88641003641135L219.59161867138278,113.7249767994881L220.62287264812352,113.48009998687559L221.65412662486426,114.47711807762238L222.68538060160503,113.33514986612198L223.7166345783458,115.10687921349762L224.74788855508658,114.50375043479704L225.77914253182732,113.90058415526073L226.81039650856806,115.09580952982674L227.84165048530883,114.0953152024137L228.8729044620496,113.55711780050626L229.90415843879038,114.26503398637391L230.9354124155311,112.43069051591942L231.96666639227186,111.97415213675515L232.99792036901263,114.12173606901496L234.0291743457534,112.12410870563997L235.06042832249418,114.41978226594551L236.0916822992349,116.2148082653053L237.12293627597566,115.72580264003199L238.15419025271643,115.93313908453291L239.1854442294572,115.5104485595196L240.21669820619795,115.1844722052482L241.2479521829387,114.8977183057674L242.27920615967946,115.27065068577053L243.31046013642023,116.44589758747259L244.341714113161,117.2604711221353L245.37296808990175,116.08743047934888L246.4042220666425,116.39580377331589L247.43547604338326,115.8753534532492L248.46673002012403,115.43432709545641L249.49798399686478,114.43841417956901L250.52923797360552,114.57875051713717L251.5604919503463,115.03326212260146L252.59174592708706,114.6047244385743L253.62299990382783,115.04900876499687L254.65425388056858,114.65830533722112L255.68550785730932,114.91538930513303L256.7167618340501,114.44047959084389L257.74801581079083,114.19563378644881L258.77926978753163,115.33740501329964L259.8105237642724,115.62783921279333L260.8417777410131,115.4167349758103L261.87303171775386,117.12687688246518L262.90428569449466,116.85745309511947L263.9355396712354,117.50602600764597L264.9667936479762,117.89932912540638L265.9980476247169,118.756990661425L267.0293016014577,117.34934192569591L268.06055557819843,116.54528167003207L269.09180955493923,116.6367029447934L270.12306353168,116.14169732152953L271.1543175084207,116.12312095890621L272.1855714851615,116.21108961456099L273.21682546190226,115.62220174589578L274.24807943864295,115.20835962656241L275.27933341538375,115.07796675132158L276.3105873921245,114.62635050922836L277.3418413688653,114.69617755635846L278.37309534560603,114.98074709291666L279.4043493223468,113.61853506568588L280.4356032990876,113.11019052410916L281.4668572758283,114.5014640951307L282.4981112525691,115.32190752162893L283.5293652293098,117.05708202063903L284.56061920605055,116.98080152868403L285.59187318279135,116.14565205970047L286.6231271595321,144.6946182056428L287.6543811362729,167.7857709455219L288.68563511301363,184.89299501443463L289.7168890897544,197.8974782395389L290.7481430664952,210.27542045766955L291.7793970432359,217.7631096903515L292.8106510199767,227.0077467282L293.8419049967174,231.23544110683682L294.87315897345815,234.68405364831582L295.90441295019895,238.69754417519763L296.9356669269397,243.7428640839359L297.9669209036805,247.33049164278395L298.99817488042123,248.73366258415996L300.029428857162,251.1682855430961L301.0606828339028,250.95392638452145L302.09193681064346,249.78145551773483L303.12319078738426,250.135553163746L304.154444764125,252.28411364994514L305.18569874086575,254.07585173008246L306.21695271760655,256.00896623211287L307.2482066943473,255.2251727995473L308.2794606710881,256.98326173150235L309.31071464782883,258.27904340911374L310.3419686245696,256.9597532780433L311.3732226013103,257.7976253883677L312.40447657805106,257.8354561501145L313.4357305547918,256.197441273005L314.4669845315326,257.2947192880572L315.49823850827335,255.83817280987188L316.52949248501415,256.28919846462037L317.5607464617549,254.97839422353653L318.59200043849563,254.5469266579252L319.62325441523643,253.62774320377275L320.6545083919771,253.6616377832159L321.6857623687179,254.93892396959652L322.71701634545866,254.03173907162568L323.7482703221994,253.47043382497435L324.7795242989402,253.41640159335117L325.81077827568095,254.72478787954975L326.84203225242175,255.04787992995023L327.8732862291625,255.00058765125019L328.90454020590323,255.35412373896094L329.935794182644,255.022131558831L330.9670481593847,254.31980368663716L331.9983021361255,255.48399663624315L333.02955611286626,257.37823723488043L334.060810089607,258.60278635274426L335.0920640663478,259.560779640187L336.12331804308855,260.4093679467188L337.15457201982935,257.0277598833347L338.1858259965701,258.31431599954675L339.2170799733108,258.40300915234167L340.2483339500516,256.0161439203863L341.2795879267923,255.5556992439699L342.3108419035331,256.29613545979794L343.34209588027386,256.5980656788149L344.3733498570146,256.81654500061995L345.4046038337554,257.2274557732037L346.43585781049615,256.08940802805404L347.46711178723695,255.8295700361138L348.49836576397763,255.8607678124791L349.5296197407184,255.28016860106754L350.5608737174592,256.00844206951746L351.5921276941999,255.61957182017463L352.6233816709407,254.97979510546762L353.65463564768146,254.32356610236707L354.6858896244222,255.2632601476444L355.717143601163,256.7146181227507L356.7483975779037,258.5201232306156L357.7796515546445,257.19322096546915L358.81090553138523,257.1975908118944L359.842159508126,255.69149076260902L360.8734134848668,255.11544307014867L361.9046674616075,256.09371526656895L362.9359214383483,257.2143608821356L363.96717541508906,257.82853288948775L364.9984293918298,256.3605450622434L366.0296833685706,256.9528430324146L367.0609373453113,257.7435147792708L368.0921913220521,256.58763271744124L369.12344529879283,257.9099995173381L370.1546992755336,256.23390346642867L371.1859532522744,255.6765274511514L372.2172072290151,255.92311795140338L373.2484612057559,255.71978597752076L374.27971518249666,255.99021471412217L375.31096915923735,256.5963099196819L376.34222313597814,257.4533372770887L377.3734771127189,258.5784495014662L378.4047310894597,260.131180291844L379.43598506620043,256.63710260623515L380.4672390429412,255.38719311160736L381.498493019682,256.1518867769872L382.5297469964227,256.70318972573654L383.5610009731635,256.73333471893005L384.5922549499042,254.7317534622885L385.62350892664494,253.85907438868747L386.65476290338574,254.26602197542974L387.6860168801265,253.74256633423124L388.7172708568673,252.30877184990885L389.74852483360803,253.7967346677389L390.7797788103488,255.25693918730133L391.8110327870896,256.05182804498713L392.8422867638303,257.7323921966207L393.873540740571,255.55703654965345L394.9047947173118,257.6470247551615L395.93604869405254,258.2255884691395L396.96730267079334,257.13324232368507L397.9985566475341,257.2736149383221L399.02981062427483,257.7276988134666L400.06106460101563,259.1312413365715L401.0923185777564,259.96991507527844L402.1235725544972,259.03641594701344L403.15482653123786,259.14985628691954L404.1860805079786,256.6483467389106L405.2173344847194,254.45476503632466L406.24858846146014,254.85325723355805L407.27984243820094,256.2198953402679L408.3110964149417,257.6692593147865L409.34235039168243,258.1993238465823L410.37360436842323,258.7825382105224L411.404858345164,259.8002777668531L412.4361123219047,257.5193677729975L413.46736629864546,255.64824842921163L414.4986202753862,254.47215879625156L415.529874252127,256.14940735100015L416.56112822886774,254.3121960036376L417.59238220560854,256.5269598865302L418.6236361823493,255.45404568607364L419.65489015909003,228.331898663401L420.68614413583083,205.53021077445214L421.7173981125715,187.12431911520005L422.7486520893123,173.3363226055L423.77990606605306,161.1928170972388L424.8111600427938,151.09429019845808L425.8424140195346,142.7389147030023L426.87366799627534,139.58988655290887L427.90492197301614,136.63474473232625L428.9361759497569,134.36095304445553L429.96742992649763,131.39110805060616L430.9986839032384,127.01539698325445L432.0299378799791,124.14872212547655L433.0611918567199,124.10500308056632L434.09244583346066,120.76240496891262L435.1236998102014,118.44196763056863L436.1549537869422,116.86070355158051L437.18620776368294,117.32370087930326L438.21746174042374,116.69883095540047L439.2487157171645,116.43962760852202L440.2799696939052,116.09932095195052L441.311223670646,116.10847670591511L442.3424776473867,115.74377944197352L443.3737316241275,115.84719357184156L444.40498560086826,114.91580691322571L445.436239577609,114.76254647920473L446.4674935543498,115.14858490570566L447.49874753109054,115.38074410918028L448.53000150783134,115.18483912466837L449.56125548457203,115.8449341875828L450.5925094613128,117.20735181919275L451.6237634380536,117.66814932537892L452.6550174147943,115.614061228281L453.6862713915351,115.66574574851938L454.71752536827586,112.96603730036679L455.7487793450166,113.64033954844871L456.7800333217574,114.81215333480043L457.8112872984981,117.10606951855539L458.8425412752389,114.25821940583654L459.87379525197963,113.07836875891451L460.9050492287204,111.98058300964794L461.9363032054612,113.09855340786567L462.9675571822019,113.03521278356953L463.9988111589427,113.85475521037034L465.03006513568346,114.02345117899381L466.0613191124242,113.45657378351058L467.09257308916494,112.53564789357358L468.1238270659057,111.83231660758298L469.1550810426465,112.82625931895694L470.18633501938723,112.22356107260214L471.217588996128,112.4274753388002L472.2488429728688,113.8833837865451L473.2800969496095,114.99127295692864L474.3113509263503,113.40948201299778L475.34260490309106,115.64907271212559L476.37385887983174,114.46164293561168L477.40511285657254,115.84274291005448L478.4363668333133,116.0895810389174L479.46762081005403,116.82904793782524L480.49887478679483,115.92513027072533L481.5301287635356,115.79591424344653L482.5613827402764,115.95644987202053L483.5926367170171,116.77483549881862L484.62389069375786,116.31771849253636L485.6551446704986,114.29438749775363L486.68639864723934,113.73270807073402L487.71765262398014,115.51386607663437L488.7489066007209,116.5253295299878L489.78016057746163,114.79585637027776L490.81141455420243,115.35934497959022L491.8426685309432,115.0002630347658L492.873922507684,114.64935720210644L493.9051764844247,112.98241795153126L494.9364304611654,113.90207263374396L495.9676844379062,114.0043718437056L496.99893841464694,114.35978396572341L498.03019239138774,115.35586929396595L499.0614463681285,115.18991336411142L500.09270034486923,115.4506221316471L501.12395432161003,115.76640251431058L502.1552082983508,115.63587545512524L503.18646227509157,114.91215494351854L504.21771625183226,115.47772572353165L505.248970228573,114.80511327519497L506.2802242053138,114.71172481376146L507.31147818205454,114.43296626711413L508.34273215879534,114.48385213449171L509.3739861355361,113.71032231439563L510.40524011227683,113.05744315068017L511.43649408901763,114.22837545667153L512.4677480657583,113.48399295580197L513.4990020424991,115.38653003746765L514.5302560192399,114.77657604278704L515.5615099959806,115.52444464706991L516.5927639727214,115.59999698715797L517.6240179494621,114.7556124494613L518.6552719262029,115.30502839540776L519.6865259029437,116.03751334679708L520.7177798796844,117.48597163437586L521.7490338564252,118.44179087794828L522.780287833166,117.46996048484715L523.8115418099068,116.096565664102L524.8427957866475,115.81538351414764L525.8740497633883,115.18907914392543L526.9053037401289,115.30194020390348L527.9365577168697,114.37693893373478L528.9678116936105,115.49820445784258L529.9990656703512,114.58824028029511L531.030319647092,116.2201651057967L532.0615736238328,117.15621579252303L533.0928276005735,117.53657785345018L534.1240815773143,117.18245691399687L535.1553355540551,116.30269441162994L536.1865895307958,115.86257756624013L537.2178435075366,114.45311597642262L538.2490974842773,113.96131555165908L539.2803514610181,113.8078441773954L540.3116054377589,116.0783816420618L541.3428594144997,117.69592191915302L542.3741133912404,118.94513114833296L543.4053673679812,120.301393012598L544.436621344722,121.16391719670878L545.4678753214625,118.82627646467938L546.4991292982033,119.56601625663393L547.5303832749441,117.79947579357696L548.5616372516849,118.39592520082579L549.5928912284256,119.43385654404767L550.6241452051664,147.9634310052725L551.6553991819072,167.99483941621514L552.6866531586479,184.59912914420173L553.7179071353887,198.44944170823416L554.7491611121295,210.28063312130078L555.7804150888702,217.14176285073458L556.811669065611,226.31798720245266L557.8429230423518,230.07203137866344L558.8741770190926,234.47635228122562L559.9054309958333,238.83524275253296L560.9366849725741,241.92985492596856L561.9679389493149,243.37000495983048L562.9991929260555,244.2077525450081L564.0304469027963,247.64958065297668L565.061700879537,248.05260420460098L566.0929548562777,250.59474345269382L567.1242088330185,253.66088251272998L568.1554628097593,255.78762500761383L569.1867167865001,253.78066616560687L570.2179707632408,253.48822438989086L571.2492247399816,253.96343410264873L572.2804787167224,254.37108025107483L573.3117326934631,255.4740829408869L574.3429866702039,254.40389581680444L575.3742406469447,256.2253495396902L576.4054946236854,258.25918917178393L577.4367486004262,258.66024812356886L578.468002577167,258.85246764946794L579.4992565539078,257.39009779796413L580.5305105306485,257.0210787535108L581.5617645073893,257.19368967245174L582.59301848413,257.3484696647157L583.6242724608707,258.0914676822291L584.6555264376115,256.7720267308959L585.6867804143523,257.27978572261554L586.7180343910929,256.97000466722585L587.7492883678337,255.79590774922704L588.7805423445745,255.6050231847172L589.8117963213153,255.35470442162205L590.843050298056,255.5492640241084L591.8743042747968,255.64080271655092L592.9055582515376,255.4531804497664L593.9368122282783,255.53378574144642L594.9680662050191,256.7923728844917L595.9993201817599,257.80888073839117L597.0305741585006,259.2766447460748L598.0618281352414,256.5750904334234L599.0930821119822,254.4768189519752L600.124336088723,254.2980249950957L601.1555900654636,254.28480158153369L602.1868440422044,254.35012067598137L603.2180980189452,254.04596289168526L604.2493519956859,254.35472720395563L605.2806059724267,253.6924336824967L606.3118599491675,253.54735372162128L607.3431139259081,253.87244787149734L608.3743679026489,254.97540775396766L609.4056218793897,254.63507603985516L610.4368758561304,256.193161603779L611.4681298328712,257.23628497276354L612.499383809612,258.0101425546917L613.5306377863528,259.15825879182233L614.5618917630935,257.0158026315165L615.5931457398343,258.90369257621694L616.6243997165751,256.81304821201707L617.6556536933158,255.28450453136804L618.6869076700565,254.83875046801074L619.7181616467973,256.94044914013125L620.749415623538,258.0220680657305L621.7806696002788,258.7477570772229L622.8119235770196,258.85389922210834L623.8431775537604,257.62058786603137L624.874431530501,257.8986012741839L625.9056855072419,256.4095309538392L626.9369394839827,255.20803179157383L627.9681934607233,256.32946074430026L628.9994474374641,255.61533020614092L630.0307014142049,255.25145770399817L631.0619553909456,256.7810373632673L632.0932093676864,258.2581737676438L633.1244633444272,256.655758330029L634.155717321168,258.07888460631324L635.1869712979087,256.5667126305484L636.2182252746495,255.17432658836515L637.2494792513902,256.3273196686033L638.2807332281309,255.614539820112L639.3119872048717,256.4127448580316L640.3432411816125,257.12155823916027L641.3744951583532,258.43463293357865L642.405749135094,255.86789812627575L643.4370031118348,256.64221839906L644.4682570885756,255.92885217081223L645.4995110653163,256.45183571975474L646.530765042057,257.27604182951785L647.5620190187979,258.10351760826916L648.5932729955385,258.7377305518813L649.6245269722793,259.2041225548783L650.6557809490201,259.8947759610823L651.6870349257608,260.7329092094089L652.7182889025016,261.37980075915664L653.7495428792424,261.37241253629827L654.7807968559832,259.06262406541305L655.8120508327238,258.19408522134074L656.8433048094646,258.30155431468216L657.8745587862054,257.34051053368955L658.9058127629461,258.6122758818119L659.9370667396869,257.31859866983626L660.9683207164277,257.83468195016303L661.9995746931684,255.97524113911348L663.0308286699092,256.9825828994467L664.06208264665,257.43927203934345L665.0933366233908,255.68597595185597L666.1245906001315,254.749546046881L667.1558445768723,254.49806367522638L668.187098553613,253.84423806590232L669.2183525303537,255.74720036822993L670.2496065070945,257.6103311048892L671.2808604838353,255.87720733878007L672.312114460576,255.02367433896643L673.3433684373167,255.53176704086104L674.3746224140575,255.61692104711878L675.4058763907983,255.6270943125309L676.437130367539,256.7033821790889L677.4683843442798,255.6476195438937L678.4996383210206,256.53733256663713L679.5308922977613,257.25765568425004L680.5621462745021,257.6867936944411L681.5934002512429,256.42822633608677L682.6246542279836,255.08791958620395L683.6559082047244,228.0827742084618L684.6871621814652,206.79788492645295L685.7184161582059,186.67344329723832L686.7496701349467,174.5100574104874L687.7809241116875,159.85034153506965L688.8121780884283,152.554019852729L689.8434320651689,146.65362722973873L690.8746860419097,138.88509547541804L691.9059400186504,136.0524713503399L692.9371939953911,130.33178119049376L693.9684479721319,126.35695456284046L694.9997019488727,123.99352657634972L696.0309559256134,120.57558499476715L697.0622099023542,120.40916160175885L698.093463879095,117.72893765022911L699.1247178558358,116.4533676816227L700.1559718325765,114.28891471294406L701.1872258093173,112.6018344484965L702.2184797860581,114.35081749716284L703.2497337627988,112.80401200694257L704.2809877395396,112.44787316669823L705.3122417162804,113.50358520686638L706.343495693021,114.58041508709317L707.3747496697619,115.29382556717138L708.4060036465027,116.34112193486055L709.4372576232435,117.10026014045798L710.468511599984,116.12514563873981L711.4997655767248,115.30814907583425L712.5310195534656,115.43165812331199L713.5622735302063,116.2101631331821L714.5935275069471,116.65427320969837L715.6247814836879,117.30950752688045L716.6560354604286,116.08269479603189L717.6872894371694,115.97379487829369L718.7185434139102,116.81012128544154L719.749797390651,117.03438522774923L720.7810513673917,117.88565386753822L721.8123053441325,118.43336298695237L722.8435593208733,118.30237396399684L723.874813297614,117.71506128781937L724.9060672743548,117.27454793002278L725.9373212510956,117.09583157253377L726.9685752278363,116.73752273061234L727.999829204577,115.99833985428018L729.0310831813177,115.94136495698001L730.0623371580585,115.69243397659955L731.0935911347992,116.81942182956709L732.12484511154,117.04926227294499L733.1560990882808,117.18624541181777L734.1873530650215,117.73661925756528L735.2186070417623,118.51014244760097L736.2498610185031,116.67474816569813L737.2811149952438,115.20025799171026L738.3123689719846,114.84762763756936L739.3436229487254,115.60330869405732L740.3748769254662,117.54838096543648L741.4061309022069,118.14757105447057L742.4373848789477,116.82745789358341L743.4686388556885,117.0613037163468L744.4998928324292,115.34050270643064L745.53114680917,114.53552997907212L746.5624007859108,114.1681207245814L747.5936547626513,115.2970258084431L748.6249087393921,113.82516220411622L749.6561627161329,115.65493529378239L750.6874166928737,115.38888228438714L751.7186706696144,116.41603701569369L752.7499246463552,115.09793087439482L753.781178623096,117.30318687718847L754.8124325998367,118.523909157704L755.8436865765775,118.17455767796577L756.8749405533183,118.91472332347138L757.906194530059,119.48102655307434L758.9374485067998,119.01350235124016L759.9687024835406,117.42975557429935L760.9999564602814,116.60604528871175L762.0312104370221,115.90944249162817L763.0624644137629,114.83913583774785L764.0937183905037,113.89422830314192L765.1249723672443,112.69931204677778L766.156226343985,112.45257506713972L767.1874803207259,112.31643659605282L768.2187342974665,113.57298547428525L769.2499882742073,114.00855394519493L770.2812422509481,114.45727886250108L771.3124962276888,114.69501245214252L772.3437502044296,115.61436684809894L773.3750041811704,114.06126132887766L774.4062581579112,111.87065250965094L775.4375121346519,113.97383388617351L776.4687661113927,112.14806333066844L777.5000200881335,111.67258987897765L778.5312740648742,112.36793303552844L779.562528041615,114.23381639173579L780.5937820183558,115.54153777933084L781.6250359950965,116.14682289800402L782.6562899718373,114.8010379495334L783.687543948578,113.61312696950131L784.7187979253188,113.42333881427095L785.7500519020595,111.93760115111479L786.7813058788003,111.852245703932L787.812559855541,111.65401653065737L788.8438138322817,113.77589488355471L789.8750678090225,115.16087156811443L790.9063217857633,116.00925034322972L791.937575762504,114.60976327468637L792.9688297392448,116.10799486167218L794.0000837159856,114.63800933449755L795.0313376927264,116.48063266817445L796.0625916694671,114.60161865386709L797.0938456462079,116.13263996586869L798.1250996229487,118.8465252672147L799.1563535996894,119.89390105219826L800.1876075764302,121.71046193455777L801.218861553171,122.37451798269285L802.2501155299116,118.57183395645404L803.2813695066524,118.87830216649775L804.3126234833932,119.43788356366372L805.343877460134,119.10518008307338L806.3751314368747,118.90856918688576L807.4063854136155,118.41920459059509L808.4376393903563,117.83123331444779L809.4688933670969,117.60461981394513L810.5001473438377,116.99536063611981L811.5314013205785,116.37199221009263L812.5626552973192,116.01796599494168L813.59390927406,114.44015294090701L814.6251632508008,141.32266914049504L815.6564172275416,164.10973608344634L816.6876712042823,182.87452204568166L817.7189251810231,199.0861896628197L818.7501791577639,209.47301968377795L819.7814331345045,216.94063673493278L820.8126871112453,223.81231005298153L821.8439410879861,230.63039600716894L822.8751950647268,237.06199853138477L823.9064490414676,239.3001940222263L824.9377030182084,240.69942386202666L825.9689569949492,245.70066203308315L827.0002109716899,246.11754673485453L828.0314649484307,250.49687527898402L829.0627189251715,253.49685689891092L830.0939729019121,255.88155034804726L831.1252268786529,257.889647760114L832.1564808553937,256.47610032062823L833.1877348321344,255.4073597062713L834.2189888088752,255.8778136027732L835.250242785616,254.84120588890738L836.2814967623568,257.0235418971838L837.3127507390975,257.68559732374774L838.3440047158383,258.47987374209254L839.375258692579,259.0202187013642L840.4065126693197,258.5469999508875L841.4377666460605,257.872011607521L842.4690206228013,257.5232841403215L843.500274599542,256.5122535914002L844.5315285762828,255.31478031718737L845.5627825530236,258.0318295827233L846.5940365297644,259.77310503407546L847.625290506505,257.50788295844035L848.6565444832459,258.8516611013605L849.6877984599867,259.3524110770526L850.7190524367273,258.10146020562246L851.7503064134681,258.2860568513155L852.7815603902089,257.7607433987946L853.8128143669496,256.61270508658646L854.8440683436904,256.1522389349366L855.8753223204312,257.23951362617885L856.9065762971718,257.555929397207L857.9378302739126,257.45314831639996L858.9690842506534,258.36273158457874L860.0003382273942,256.95533389280996L861.0315922041349,255.65316479566462L862.0628461808757,254.7510192008741L863.0941001576165,254.46829594391397L864.1253541343572,254.16884265982407L865.156608111098,255.8475740378604L866.1878620878388,255.60361215478736L867.2191160645795,257.1927946976676L868.2503700413203,256.6982120090172L869.281624018061,256.5856401340832L870.3128779948019,257.5524827824431L871.3441319715425,255.72415786074652L872.3753859482833,254.74215948118018L873.4066399250241,254.511110003397L874.4378939017648,254.78047624673442L875.4691478785055,255.2366304366221L876.5004018552463,256.4135623661293L877.531655831987,255.77727054709024L878.5629098087278,255.80377691352425L879.5941637854686,255.7475733863804L880.6254177622094,256.291374325949L881.6566717389501,256.4532527275393L882.6879257156909,255.7713254735524L883.7191796924317,255.26598083434453L884.7504336691724,255.34312618978134L885.7816876459132,254.46869379309192L886.812941622654,252.99596919639316L887.8441955993947,253.02418884974145L888.8754495761355,252.91176334059384L889.9067035528763,253.00688971340477L890.937957529617,254.30585339725866L891.9692115063577,255.73391688014402L893.0004654830985,257.23342062760025L894.0317194598392,255.57666871081915L895.0629734365799,254.5608926879798L896.0942274133207,254.009560911071L897.1254813900615,254.05806782236021L898.1567353668022,253.90201667950652L899.187989343543,254.66158289480478L900.2192433202838,254.42482780116006L901.2504972970246,255.02453041594916L902.2817512737653,254.75172597606522L903.3130052505061,255.18123895483114L904.3442592272469,256.051882808082L905.3755132039876,255.5852427305847L906.4067671807284,255.20991527853081L907.4380211574692,255.51491546783654L908.4692751342099,257.00375911334635L909.5005291109507,258.44412641695527L910.5317830876915,256.6338806028401L911.5630370644323,257.49549812472344L912.5942910411728,255.64755585317397L913.6255450179136,254.40077154945266L914.6567989946544,255.96417002780504L915.6880529713951,257.67229489006803L916.7193069481359,255.32934678379223L917.7505609248767,253.77282786942231L918.7818149016174,251.90096397936864L919.8130688783582,250.42853666472905L920.844322855099,250.39308474955834L921.8755768318398,252.20945249549095L922.9068308085805,251.81994344136348L923.9380847853213,253.90368857864215L924.9693387620621,256.0843303172662L926.0005927388028,257.4251153299847L927.0318467155436,255.79622285960508L928.0631006922844,256.11338306445606L929.094354669025,255.74242478391005L930.1256086457657,255.43484562172438L931.1568626225065,255.98283700348384L932.1881165992472,255.6346120072787L933.219370575988,255.84530382873822L934.2506245527288,256.43409601452356L935.2818785294696,256.4683754512594L936.3131325062103,255.97455753417654L937.3443864829511,255.33326454787104L938.3756404596919,257.2404691678777L939.4068944364326,255.64989337945366L940.4381484131734,256.7057816329617L941.4694023899142,255.81815160280212L942.5006563666549,256.2617537290139L943.5319103433957,257.1304118797266L944.5631643201365,256.6455996300342L945.5944182968773,258.078189023375L946.625672273618,256.0725246444364L947.6569262503588,227.2899678436977L948.6881802270996,204.05523085593703L949.7194342038401,186.87757440367534L950.7506881805809,173.4398508853477L951.7819421573217,163.31113284445524L952.8131961340624,153.362070090971L953.8444501108032,148.016302360017L954.875704087544,140.01049593504274L955.9069580642848,133.60025913422533L956.9382120410255,128.45699015046654L957.9694660177663,127.15086585947071L959.0007199945071,123.13247369285372L960.0319739712478,120.7810316577411L961.0632279479886,118.46578573704267L962.0944819247294,119.1527173341363L963.1257359014701,119.23512569678525L964.1569898782109,116.26197874105219L965.1882438549517,114.06709490661802L966.2194978316925,112.92601636485159L967.250751808433,114.47093366557306L968.2820057851739,113.1418321406793L969.3132597619147,111.71065851013077L970.3445137386553,112.94715712332612L971.3757677153961,113.69513714767749L972.4070216921369,113.35411616598446L973.4382756688776,113.97476006695047L974.4695296456184,113.36993927691162L975.5007836223592,115.24987204365596L976.5320375991,116.46135047367909L977.5632915758407,117.71269978631756L978.5945455525815,115.8276419997855L979.6257995293223,116.85746523297558L980.657053506063,118.5374100840221L981.6883074828038,116.99867642070114L982.7195614595446,117.40711959485873L983.7508154362853,117.11554409244593L984.7820694130261,116.18662725879216L985.8133233897668,115.76820183575245L986.8445773665076,116.02636592830788L987.8758313432483,116.73042045825315L988.907085319989,115.78218732441104" style="fill: none;" fill="none"></path></g></g></g></g><g opacity="0.2"><g><g><g><path stroke="rgb(255, 112, 67)" stroke-width="2px" d="M22.622109113897768,186.65911249380068L23.65336309063853,184.44669862350875L24.684617067379286,202.81764430241134L25.715871044120046,217.53983692196047L26.747125020860807,222.31932397422662L27.778378997601564,225.18491559503087L28.809632974342325,224.90892078468346L29.840886951083082,222.9894112659363L30.872140927823843,222.06618918906997L31.903394904564603,224.96449352087313L32.934648881305364,225.32904289577567L33.96590285804612,223.98575103619396L34.99715683478688,222.26941765369904L36.02841081152764,222.7484914190274L37.0596647882684,223.5955906585761L38.09091876500916,223.89661338401135L39.122172741749914,224.04254227601547L40.15342671849067,226.1801788958224L41.18468069523143,228.7532847920965L42.21593467197219,227.13989627778395L43.24718864871296,225.87058926755242L44.278442625453714,225.75615458291543L45.30969660219447,225.9382573342714L46.34095057893523,229.2787140238107L47.372204555675985,228.44865888414262L48.40345853241675,229.02002495522805L49.43471250915751,227.4163545680404L50.465966485898264,226.09232702661322L51.49722046263902,225.45860048131553L52.52847443937978,227.60517777807738L53.55972841612055,227.3076909558191L54.59098239286131,226.25155480181365L55.622236369602064,227.42693237564174L56.65349034634282,226.30697802835525L57.68474432308358,225.68059988226045L58.715998299824335,225.89458556606854L59.7472522765651,223.3645384484402L60.778506253305856,225.30980847955078L61.809760230046614,225.8578510455364L62.84101420678737,225.8444699320336L63.872268183528135,225.62611856650173L64.90352216026889,225.2485095238398L65.93477613700965,223.0392577826047L66.9660301137504,225.06530787657044L67.99728409049118,221.2355360108096L69.02853806723193,222.1139724725949L70.05979204397269,229.15237089570448L71.09104602071345,228.4596702697234L72.1222999974542,226.2587761178157L73.15355397419496,225.29695064981627L74.18480795093572,226.59954598319183L75.21606192767649,221.1292346510279L76.24731590441723,225.01195535865472L77.278569881158,225.45672413523218L78.30982385789875,229.74602885531795L79.34107783463952,205.71764556872014L80.37233181138029,204.8728263513046L81.40358578812103,207.2352656779579L82.4348397648618,264.0535779589691L83.46609374160255,265.041664796653L84.49734771834332,269.6755406649172L85.52860169508408,263.8326886671611L86.55985567182483,250.2031648841247L87.59110964856559,256.8023600273064L88.62236362530635,261.32354673607495L89.65361760204712,257.1616354493731L90.68487157878788,253.60909932403865L91.71612555552863,251.77395062421812L92.74737953226939,257.1935183818252L93.77863350901015,263.8267419209089L94.8098874857509,245.88421987630792L95.84114146249166,260.3131418456745L96.87239543923242,254.1630811607941L97.90364941597319,258.5163049931733L98.93490339271393,261.7769833344995L99.9661573694547,249.53777219536457L100.99741134619546,251.4020977030071L102.02866532293622,254.33036003054337L103.05991929967699,256.8591512671279L104.09117327641773,255.16149911515998L105.1224272531585,255.7160341376133L106.15368122989925,256.59383892113544L107.18493520664002,258.52402342875524L108.21618918338078,255.41964994900957L109.24744316012153,256.916843302579L110.2786971368623,253.41292023931635L111.30995111360305,256.3168386584048L112.34120509034382,257.82142526407154L113.37245906708458,260.15042675793273L114.40371304382533,248.08942738156261L115.43496702056609,252.20782014745083L116.46622099730685,260.74214109212124L117.4974749740476,262.02545715637746L118.52872895078836,264.2049041492687L119.55998292752912,247.85332174532175L120.59123690426989,245.9641327832043L121.62249088101065,264.7347327023775L122.6537448577514,265.20812136333785L123.68499883449216,267.87761239198505L124.71625281123292,248.10885616033002L125.74750678797369,248.95682255583753L126.77876076471443,249.58396320113752L127.8100147414552,257.113127044055L128.84126871819595,250.91089122973736L129.87252269493672,252.66239301920086L130.9037766716775,258.41436931511544L131.93503064841823,250.8184494143323L132.966284625159,246.84449044396737L133.99753860189975,243.10331052017366L135.0287925786405,245.2821445235078L136.06004655538126,259.5593515774898L137.09130053212203,251.3730629293508L138.1225545088628,254.24544976366008L139.15380848560355,253.61488534741918L140.1850624623443,262.32100409095193L141.21631643908506,248.8116187856266L142.24757041582583,259.85183730201993L143.2788243925666,256.0095028880795L144.31007836930735,259.53294443589846L145.3413323460481,258.07740447028283L146.37258632278886,256.8789725087215L147.40384029952963,258.05259334418474L148.43509427627038,261.3790783571113L149.46634825301115,263.9890234306713L150.4976022297519,266.0072093171483L151.52885620649266,244.58520529900377L152.56011018323343,256.5709004033795L153.59136415997418,257.76373322862037L154.62261813671495,250.4088826843942L155.6538721134557,96.92285358221147L156.68512609019646,132.95318367193082L157.7163800669372,98.8644157740498L158.74763404367798,125.59291340296181L159.77888802041875,99.28446313031793L160.8101419971595,102.83957829708169L161.84139597390026,128.3397644612645L162.872649950641,101.61539329863933L163.90390392738178,126.33241802427295L164.93515790412255,101.7840850345629L165.9664118808633,122.92883088583378L166.99766585760403,124.17702713375704L168.0289198343448,114.17744809634615L169.06017381108558,114.29430483728197L170.09142778782632,112.63440387145317L171.12268176456706,123.66887374187797L172.15393574130783,112.14789947661541L173.1851897180486,124.3843970156378L174.21644369478938,117.67613832192615L175.24769767153012,109.79049114961987L176.27895164827086,123.93666047254604L177.31020562501163,121.72776007898392L178.3414596017524,118.08838127456482L179.37271357849318,111.43756418764383L180.4039675552339,119.83737503968183L181.43522153197466,123.85655320310715L182.46647550871543,123.78094617407538L183.4977294854562,122.97864750057255L184.52898346219698,119.40204779738036L185.5602374389377,118.53569919064194L186.59149141567846,116.28925692444807L187.62274539241923,116.09640442939548L188.65399936916,121.45959957419569L189.68525334590075,104.98737409747537L190.7165073226415,113.68956821274611L191.74776129938226,116.21892758599336L192.77901527612303,117.53287817714022L193.8102692528638,119.25706829164153L194.84152322960455,117.6261123936801L195.8727772063453,122.10691654650344L196.90403118308606,107.81126747743133L197.93528515982683,110.57682219270822L198.96653913656758,112.76494074518791L199.99779311330835,124.09381006363822L201.0290470900491,119.19294360358197L202.06030106678986,117.28442304396833L203.09155504353063,119.7151658533449L204.12280902027138,118.87939196963794L205.15406299701215,114.59447535772318L206.1853169737529,124.69416605548545L207.21657095049366,124.37434996728712L208.2478249272344,121.3272386827544L209.27907890397518,106.83782510977642L210.31033288071592,122.29171047152477L211.3415868574567,111.74595773872915L212.37284083419743,122.02325094744035L213.4040948109382,123.78136480109L214.43534878767898,104.49865695984607L215.46660276441972,122.34903247059691L216.4978567411605,103.99974326421813L217.52911071790123,118.88749539256366L218.560364694642,111.98737096747675L219.59161867138278,109.07924385179501L220.62287264812352,112.50059273642557L221.65412662486426,118.46519044060955L222.68538060160503,108.76727702012062L223.7166345783458,122.19379660300012L224.74788855508658,112.09123531999478L225.77914253182732,111.48791903711566L226.81039650856806,119.87671102809054L227.84165048530883,110.09333789276161L228.8729044620496,111.40432819287662L229.90415843879038,117.09669872984472L230.9354124155311,105.09331663410165L231.96666639227186,110.14799862009806L232.99792036901263,122.71207179805387L234.0291743457534,104.13359925214007L235.06042832249418,123.60247650716764L236.0916822992349,123.39491226274438L237.12293627597566,113.76978013893864L238.15419025271643,116.76248486253672L239.1854442294572,113.81968645946625L240.21669820619795,113.88056678816258L241.2479521829387,113.7507027078442L242.27920615967946,116.76238020578302L243.31046013642023,121.14688519428091L244.341714113161,120.51876526078604L245.37296808990175,111.39526790820321L246.4042220666425,117.62929694918415L247.43547604338326,113.79355217298269L248.46673002012403,113.67022166428518L249.49798399686478,110.4547625160194L250.52923797360552,115.14009586740997L251.5604919503463,116.85130854445833L252.59174592708706,112.89057370246576L253.62299990382783,116.82614607068723L254.65425388056858,113.09549162611802L255.68550785730932,115.94372517678073L256.7167618340501,112.5408407336875L257.74801581079083,113.21625056886865L258.77926978753163,119.90448992070293L259.8105237642724,116.78957601076797L260.8417777410131,114.5723180278784L261.87303171775386,123.9674445090848L262.90428569449466,115.77975794573632L263.9355396712354,120.10031765775227L264.9667936479762,119.47254159644797L265.9980476247169,122.18763680549938L267.0293016014577,111.71874698277946L268.06055557819843,113.32904064737681L269.09180955493923,117.00238804383866L270.12306353168,114.16167482847419L271.1543175084207,116.04881550841304L272.1855714851615,116.56296423717993L273.21682546190226,113.26665027123488L274.24807943864295,113.55299114922911L275.27933341538375,114.55639525035832L276.3105873921245,112.81988554085564L277.3418413688653,114.97548574487888L278.37309534560603,116.11902523914927L279.4043493223468,108.16968695676275L280.4356032990876,111.0768123578024L281.4668572758283,120.06655837921681L282.4981112525691,118.6036812276219L283.5293652293098,123.99778001667931L284.56061920605055,116.67567956086401L285.59187318279135,112.80505418376652L286.6231271595321,258.8904827894119L287.6543811362729,260.15038190503833L288.68563511301363,253.3218912900856L289.7168890897544,249.91541113995612L290.7481430664952,259.78718933019206L291.7793970432359,247.7138666210793L292.8106510199767,263.98629487959386L293.8419049967174,248.1462186213841L294.87315897345815,248.47850381423194L295.90441295019895,254.7515062827249L296.9356669269397,263.9241437188889L297.9669209036805,261.6810018781763L298.99817488042123,254.34634634966386L300.029428857162,260.9067773788408L301.0606828339028,250.09648975022282L302.09193681064346,245.09157205058835L303.12319078738426,251.55194374779077L304.154444764125,260.87835559474166L305.18569874086575,261.2428040506317L306.21695271760655,263.7414242402346L307.2482066943473,252.08999906928494L308.2794606710881,264.0156174593227L309.31071464782883,263.4621701195591L310.3419686245696,251.68259275376155L311.3732226013103,261.1491138296652L312.40447657805106,257.9867791971019L313.4357305547918,249.64538176456693L314.4669845315326,261.6838313482661L315.49823850827335,250.0119868971305L316.52949248501415,258.0933010836145L317.5607464617549,249.7351772592011L318.59200043849563,252.8210563954798L319.62325441523643,249.9510093871629L320.6545083919771,253.79721610098846L321.6857623687179,260.04806871511903L322.71701634545866,250.40299947974242L323.7482703221994,251.22521283836892L324.7795242989402,253.20027266685855L325.81077827568095,259.95833302434414L326.84203225242175,256.3402481315522L327.8732862291625,254.81141853644993L328.90454020590323,256.768268089804L329.935794182644,253.69416283831123L330.9670481593847,251.51049219786182L331.9983021361255,260.14076843466705L333.02955611286626,264.95519962942967L334.060810089607,263.5009828241996L335.0920640663478,263.3927527899577L336.12331804308855,263.80372117284645L337.15457201982935,243.5013276297979L338.1858259965701,263.46054046439514L339.2170799733108,258.75778176352134L340.2483339500516,246.46868299256477L341.2795879267923,253.71392053830442L342.3108419035331,259.2578803231103L343.34209588027386,257.80578655488284L344.3733498570146,257.6904622878398L345.4046038337554,258.8710988635389L346.43585781049615,251.53721704745533L347.46711178723695,254.79021806835283L348.49836576397763,255.98555891794024L349.5296197407184,252.95777175542128L350.5608737174592,258.9215359433172L351.5921276941999,254.06409082280328L352.6233816709407,252.4206882466396L353.65463564768146,251.69865008996487L354.6858896244222,259.0220363287536L355.717143601163,262.52005002317605L356.7483975779037,265.7421436620752L357.7796515546445,251.8856119048833L358.81090553138523,257.2150701975953L359.842159508126,249.6670905654675L360.8734134848668,252.81125230030727L361.9046674616075,260.00680405225023L362.9359214383483,261.6969433444023L363.96717541508906,260.2852209188964L364.9984293918298,250.48859375326566L366.0296833685706,259.3220349130995L367.0609373453113,260.9062017666957L368.0921913220521,251.96410447012295L369.12344529879283,263.19946671692566L370.1546992755336,249.5295192627908L371.1859532522744,253.44702339004238L372.2172072290151,256.9094799524113L373.2484612057559,254.90645808199037L374.27971518249666,257.07192966052776L375.31096915923735,259.02069074192093L376.34222313597814,260.88144670671556L377.3734771127189,263.0788983989763L378.4047310894597,266.34210345335504L379.43598506620043,242.66079186379974L380.4672390429412,250.3875551330962L381.498493019682,259.21066143850686L382.5297469964227,258.9084015207338L383.5610009731635,256.85391469170406L384.5922549499042,246.72542843572242L385.62350892664494,250.3683580942833L386.65476290338574,255.89381232239867L387.6860168801265,251.64874376943726L388.7172708568673,246.57359391261934L389.74852483360803,259.74858593905896L390.7797788103488,261.09775726555125L391.8110327870896,259.2313834757301L392.8422867638303,264.45464880315524L393.873540740571,246.8556139617842L394.9047947173118,266.00697757719377L395.93604869405254,260.53984332505144L396.96730267079334,252.7638577418673L397.9985566475341,257.83510539687046L399.02981062427483,259.54403431404444L400.06106460101563,264.74541142899136L401.0923185777564,263.32461003010604L402.1235725544972,255.30241943395356L403.15482653123786,259.60361764654374L404.1860805079786,246.64230854687486L405.2173344847194,245.680438225981L406.24858846146014,256.4472260224914L407.27984243820094,261.68644776710744L408.3110964149417,263.46671521286066L409.34235039168243,260.31958197376537L410.37360436842323,261.11539566628295L411.404858345164,263.8712359921762L412.4361123219047,248.39572779757492L413.46736629864546,248.16377105406815L414.4986202753862,249.76780026441116L415.529874252127,262.85840156999456L416.56112822886774,246.96335061418742L417.59238220560854,265.3860154181005L418.6236361823493,251.1623888842476L419.65489015909003,119.8433105727105L420.68614413583083,114.3234592186567L421.7173981125715,113.50075247819154L422.7486520893123,118.18433656669964L423.77990606605306,112.61879506419405L424.8111600427938,110.70018260333535L425.8424140195346,109.31741272117932L426.87366799627534,126.99377395253504L427.90492197301614,124.8141774499957L428.9361759497569,125.26578629297262L429.96742992649763,119.51172807520857L430.9986839032384,109.51255271384747L432.0299378799791,112.68202269436523L433.0611918567199,123.93012690092513L434.09244583346066,107.39201252229799L435.1236998102014,109.16021827719271L436.1549537869422,110.53564723562823L437.18620776368294,119.17569019019402L438.21746174042374,114.19935125978924L439.2487157171645,115.40281422100833L440.2799696939052,114.73809432566452L441.311223670646,116.14509972177365L442.3424776473867,114.28499038620691L443.3737316241275,116.26085009131373L444.40498560086826,111.19026027876208L445.436239577609,114.14950474312087L446.4674935543498,116.69273861170944L447.49874753109054,116.309380923079L448.53000150783134,114.40121918662078L449.56125548457203,118.48531443924054L450.5925094613128,122.6570223456325L451.6237634380536,119.51133935012354L452.6550174147943,107.39770883988962L453.6862713915351,115.87248382947274L454.71752536827586,102.16720350775643L455.7487793450166,116.33754854077642L456.7800333217574,119.49940848020714L457.8112872984981,126.2817342535754L458.8425412752389,102.86681895496105L459.87379525197963,108.35896617122637L460.9050492287204,107.58944001258169L461.9363032054612,117.57043500073678L462.9675571822019,112.78185028638518L463.9988111589427,117.1329249175734L465.03006513568346,114.69823505348762L466.0613191124242,111.18906420157748L467.09257308916494,108.85194433382577L468.1238270659057,109.01899146362052L469.1550810426465,116.80203016445267L470.18633501938723,109.81276808718309L471.217588996128,113.24313240359265L472.2488429728688,119.70701757752482L473.2800969496095,119.42282963846287L474.3113509263503,107.08231823727431L475.34260490309106,124.60743550863688L476.37385887983174,109.71192382955616L477.40511285657254,121.36714280782576L478.4363668333133,117.07693355436908L479.46762081005403,119.78691553345635L480.49887478679483,112.30945960232577L481.5301287635356,115.27905013433138L482.5613827402764,116.59859238631634L483.5926367170171,120.04837800601086L484.62389069375786,114.48925046740766L485.6551446704986,106.20106351862279L486.68639864723934,111.48599036265546L487.71765262398014,122.63849810023595L488.7489066007209,120.57118334340129L489.78016057746163,107.87796373143783L490.81141455420243,117.61329941684005L491.8426685309432,113.56393525546827L492.873922507684,113.2457338714691L493.9051764844247,106.31466094923059L494.9364304611654,117.58069136259479L495.9676844379062,114.41356868355183L496.99893841464694,115.78143245379476L498.03019239138774,119.3402106069363L499.0614463681285,114.52608964469346L500.09270034486923,116.49345720178962L501.12395432161003,117.02952404496438L502.1552082983508,115.11376721838388L503.18646227509157,112.0172728970918L504.21771625183226,117.74000884358406L505.248970228573,112.1146634818482L506.2802242053138,114.33817096802733L507.31147818205454,113.31793208052477L508.34273215879534,114.68739560400212L509.3739861355361,110.61620303401133L510.40524011227683,110.44592649581813L511.43649408901763,118.91210468063684L512.4677480657583,110.50646295232389L513.4990020424991,122.99667836413045L514.5302560192399,112.33676006406438L515.5615099959806,118.51591906420157L516.5927639727214,115.90220634751012L517.6240179494621,111.37807429867456L518.6552719262029,117.50269217919379L519.6865259029437,118.96745315235444L520.7177798796844,123.27980478469104L521.7490338564252,122.2650678522377L522.780287833166,113.58263891244246L523.8115418099068,110.60298638112147L524.8427957866475,114.6906549143302L525.8740497633883,112.68386166303651L526.9053037401289,115.75338444381578L527.9365577168697,110.67693385305961L528.9678116936105,119.98326655427394L529.9990656703512,110.94838357010553L531.030319647092,122.74786440780318L532.0615736238328,120.90041853942836L533.0928276005735,119.05802609715857L534.1240815773143,115.76597315618375L535.1553355540551,112.78364440216211L536.1865895307958,114.1021101846809L537.2178435075366,108.81526961715286L538.2490974842773,111.99411385260493L539.2803514610181,113.19395868034059L540.3116054377589,125.16053150072744L541.3428594144997,124.16608302751794L542.3741133912404,123.94196806505275L543.4053673679812,125.72644046965809L544.436621344722,124.6140139331522L545.4678753214625,109.47571353656167L546.4991292982033,122.52497542445221L547.5303832749441,110.73331394134885L548.5616372516849,120.78172282982126L549.5928912284256,123.5855819169351L550.6241452051664,262.0817288501719L551.6553991819072,248.12047305998547L552.6866531586479,251.0162880561482L553.7179071353887,253.85069196436388L554.7491611121295,257.60539877356723L555.7804150888702,244.58628176846992L556.811669065611,263.0228846093249L557.8429230423518,245.08820808350666L558.8741770190926,252.09363589147438L559.9054309958333,256.2708046377623L560.9366849725741,254.308303619711L561.9679389493149,249.13060509527813L562.9991929260555,247.55874288571854L564.0304469027963,261.4168930848508L565.061700879537,249.6646984110983L566.0929548562777,260.7633004450651L567.1242088330185,265.9254387528746L568.1554628097593,264.2945949871492L569.1867167865001,245.75283079757918L570.2179707632408,252.31845728702672L571.2492247399816,255.86427295368017L572.2804787167224,256.00166484477916L573.3117326934631,259.88609370013523L574.3429866702039,250.12314732047466L575.3742406469447,263.5111644312335L576.4054946236854,266.39454770015874L577.4367486004262,260.26448393070837L578.468002577167,259.6213457530643L579.4992565539078,251.54061839194907L580.5305105306485,255.5450025756973L581.5617645073893,257.88413334821564L582.59301848413,257.96758963377135L583.6242724608707,261.0634597522827L584.6555264376115,251.49426292556325L585.6867804143523,259.3108216894939L586.7180343910929,255.7308804456672L587.7492883678337,251.09952007723183L588.7805423445745,254.84148492667794L589.8117963213153,254.35342936924144L590.843050298056,256.32750243405377L591.8743042747968,256.006957486321L592.9055582515376,254.70269138262825L593.9368122282783,255.85620690816648L594.9680662050191,261.82672145667306L595.9993201817599,261.874912153989L597.0305741585006,265.1477007768093L598.0618281352414,245.76887318281769L599.0930821119822,246.0837330261823L600.124336088723,253.5828491675778L601.1555900654636,254.23190792728565L602.1868440422044,254.61139705377212L603.2180980189452,252.8293317545008L604.2493519956859,255.5897844530371L605.2806059724267,251.04325959666102L606.3118599491675,252.96703387811954L607.3431139259081,255.17282447100172L608.3743679026489,259.38724728384886L609.4056218793897,253.27374918340527L610.4368758561304,262.4255038594743L611.4681298328712,261.4087784487016L612.499383809612,261.10557288240443L613.5306377863528,263.75072374034494L614.5618917630935,248.4459779902931L615.5931457398343,266.4552523550186L616.6243997165751,248.4504707552178L617.6556536933158,249.17032980877178L618.6869076700565,253.05573421458155L619.7181616467973,265.34724382861333L620.749415623538,262.34854376812746L621.7806696002788,261.65051312319247L622.8119235770196,259.2784678016503L623.8431775537604,252.68734244172344L624.874431530501,259.01065490679383L625.9056855072419,250.45324967246057L626.9369394839827,250.40203514251232L627.9681934607233,260.8151765552061L628.9994474374641,252.75880805350357L630.0307014142049,253.79596769542704L631.0619553909456,262.8993560003437L632.0932093676864,264.1667193851502L633.1244633444272,250.24609657956955L634.155717321168,263.7713897114501L635.1869712979087,250.51802472748932L636.2182252746495,249.60478241963204L637.2494792513902,260.939291989556L638.2807332281309,252.7634204261467L639.3119872048717,259.60556500970995L640.3432411816125,259.956811763675L641.3744951583532,263.68693171125227L642.405749135094,245.60095889706406L643.4370031118348,259.7394994901972L644.4682570885756,253.07538725782106L645.4995110653163,258.5437699155248L646.530765042057,260.5728662685701L647.5620190187979,261.41342072327427L648.5932729955385,261.2745823263302L649.6245269722793,261.06969056686626L650.6557809490201,262.6573895858983L651.6870349257608,264.08544220271517L652.7182889025016,263.9673669581475L653.7495428792424,261.34285964486503L654.7807968559832,249.82347018187207L655.8120508327238,254.71992984505135L656.8433048094646,258.731430688048L657.8745587862054,253.49633540971888L658.9058127629461,263.69933727430134L659.9370667396869,252.14388982193378L660.9683207164277,259.89901507147016L661.9995746931684,248.53747789491533L663.0308286699092,261.0119499407795L664.06208264665,259.2660285989304L665.0933366233908,248.67279160190608L666.1245906001315,251.0038264269811L667.1558445768723,253.49213418860796L668.187098553613,251.228935628606L669.2183525303537,263.35904957754025L670.2496065070945,265.0628540515265L671.2808604838353,248.94471227434343L672.312114460576,251.60954233971185L673.3433684373167,257.5641378484396L674.3746224140575,255.95753707214968L675.4058763907983,255.66778737417934L676.437130367539,261.008533645321L677.4683843442798,251.42456900311282L678.4996383210206,260.09618465761093L679.5308922977613,260.1389481547018L680.5621462745021,259.4033457352054L681.5934002512429,251.39395690266937L682.6246542279836,249.7266925866728L683.6559082047244,120.062192697493L684.6871621814652,121.65832779841764L685.7184161582059,106.17567678037955L686.7496701349467,125.85651386348377L687.7809241116875,101.21147803339852L688.8121780884283,123.36873312336638L689.8434320651689,123.05205673777763L690.8746860419097,107.81096845813516L691.9059400186504,124.7219748500275L692.9371939953911,107.44902055110913L693.9684479721319,110.45764805222723L694.9997019488727,114.53981463038679L696.0309559256134,106.90381866843694L697.0622099023542,119.74346802972559L698.093463879095,107.00804184411038L699.1247178558358,111.35108780719696L700.1559718325765,105.63110283822931L701.1872258093173,105.85351339070644L702.2184797860581,121.34674969182822L703.2497337627988,106.61679004606157L704.2809877395396,111.02331780572098L705.3122417162804,117.72643336753879L706.343495693021,118.88773460800059L707.3747496697619,118.14746748748428L708.4060036465027,120.53030740561746L709.4372576232435,120.1368129628475L710.468511599984,112.22468763186703L711.4997655767248,112.04016282421219L712.5310195534656,115.92569431322283L713.5622735302063,119.32418317266263L714.5935275069471,118.43071351576333L715.6247814836879,119.93044479560888L716.6560354604286,111.1754438726378L717.6872894371694,115.53819520734066L718.7185434139102,120.15542691403289L719.749797390651,117.93144099697992L720.7810513673917,121.29072842669439L721.8123053441325,120.62419946460886L722.8435593208733,117.77841787217466L723.874813297614,115.36581058310963L724.9060672743548,115.51249449883653L725.9373212510956,116.38096614257756L726.9685752278363,115.30428736292657L727.999829204577,113.04160834895163L729.0310831813177,115.71346536777963L730.0623371580585,114.69671005507723L731.0935911347992,121.32737324143767L732.12484511154,117.96862404645634L733.1560990882808,117.73417796730911L734.1873530650215,119.93811464055517L735.2186070417623,121.6042352077439L736.2498610185031,109.33317103808645L737.2811149952438,109.30229729575888L738.3123689719846,113.43710622100582L739.3436229487254,118.62603292000921L740.3748769254662,125.32867005095318L741.4061309022069,120.54433141060696L742.4373848789477,111.54700525003511L743.4686388556885,117.99668700740006L744.4998928324292,108.45729866676567L745.53114680917,111.31563906963822L746.5624007859108,112.69848370661833L747.5936547626513,119.81264614389016L748.6249087393921,107.9377077868088L749.6561627161329,122.974027652447L750.6874166928737,114.32467024680608L751.7186706696144,120.52465594092018L752.7499246463552,109.82550630919911L753.781178623096,126.124210888363L754.8124325998367,123.4067982797664L755.8436865765775,116.7771517590129L756.8749405533183,121.87538590549366L757.906194530059,121.74623947148604L758.9374485067998,117.1434055439035L759.9687024835406,111.09476846653627L760.9999564602814,113.31120414636143L762.0312104370221,113.12303130329354L763.0624644137629,110.55790922222673L764.0937183905037,110.11459816471796L765.1249723672443,107.91964702132128L766.156226343985,111.46562714858754L767.1874803207259,111.77188271170547L768.2187342974665,118.59918098721482L769.2499882742073,115.75082782883368L770.2812422509481,116.25217853172535L771.3124962276888,115.64594681070872L772.3437502044296,119.29178443192467L773.3750041811704,107.84883925199267L774.4062581579112,103.10821723274375L775.4375121346519,122.38655939226388L776.4687661113927,104.8449811086482L777.5000200881335,109.77069607221466L778.5312740648742,115.14930566173149L779.562528041615,121.69734981656535L780.5937820183558,120.77242332971099L781.6250359950965,118.56796337269662L782.6562899718373,109.41789815565085L783.687543948578,108.86148304937296L784.7187979253188,112.66418619334979L785.7500519020595,105.99465049848976L786.7813058788003,111.51082391520083L787.812559855541,110.86109983755904L788.8438138322817,122.26340829514405L789.8750678090225,120.70077830635319L790.9063217857633,119.40276544369112L791.937575762504,109.01181500051297L792.9688297392448,122.10092120961559L794.0000837159856,108.75806722579915L795.0313376927264,123.85112600288207L796.0625916694671,107.0855625966376L797.0938456462079,122.25672521387509L798.1250996229487,129.702066472599L799.1563535996894,124.08340419213215L800.1876075764302,128.9767054639958L801.218861553171,125.03074217523306L802.2501155299116,103.3610978514987L803.2813695066524,120.10417500667262L804.3126234833932,121.67620915232749L805.343877460134,117.77436616071179L806.3751314368747,118.12212560213544L807.4063854136155,116.46174620543275L808.4376393903563,115.47934820985819L809.4688933670969,116.69816581193459L810.5001473438377,114.55832392481858L811.5314013205785,113.87851850598395L812.5626552973192,114.60186113433815L813.59390927406,108.12890072476779L814.6251632508008,248.85273393884736L815.6564172275416,255.25800385525153L816.6876712042823,257.93366589462306L817.7189251810231,263.9328601313717L818.7501791577639,251.02033976761103L819.7814331345045,246.8111049395521L820.8126871112453,251.29900332517659L821.8439410879861,257.90273982391864L822.8751950647268,262.788408628248L823.9064490414676,248.25297598559243L824.9377030182084,246.29634322122808L825.9689569949492,265.7056147173091L827.0002109716899,247.78508554194008L828.0314649484307,268.014189455502L829.0627189251715,265.4967833786185L830.0939729019121,265.42032414459266L831.1252268786529,265.92203740838085L832.1564808553937,250.82191056268522L833.1877348321344,251.13239724884363L834.2189888088752,257.75962918878076L835.250242785616,250.6947750334442L836.2814967623568,265.7528859302894L837.3127507390975,260.3338190300034L838.3440047158383,261.6569794154717L839.375258692579,261.1815985384508L840.4065126693197,256.6541249489807L841.4377666460605,255.17205823405533L842.4690206228013,256.12837427152317L843.500274599542,252.46813139571515L844.5315285762828,250.52488722033598L845.5627825530236,268.90002664486707L846.5940365297644,266.73820683948395L847.625290506505,248.4469946559L848.6565444832459,264.22677367304095L849.6877984599867,261.355410979821L850.7190524367273,253.09765671990192L851.7503064134681,259.02444343408763L852.7815603902089,255.65948958871115L853.8128143669496,252.02055183775386L854.8440683436904,254.31037432833688L855.8753223204312,261.588612391148L856.9065762971718,258.82159248131995L857.9378302739126,257.0420239931715L858.9690842506534,262.0010646572939L860.0003382273942,251.3257431257349L861.0315922041349,250.44448840708338L862.0628461808757,251.14243682171193L863.0941001576165,253.33740291607342L864.1253541343572,252.97102952346435L865.156608111098,262.5624995500059L866.1878620878388,254.6277646224952L867.2191160645795,263.5495248691885L868.2503700413203,254.71988125441572L869.281624018061,256.1353526343471L870.3128779948019,261.4198533758828L871.3441319715425,248.41085817396018L872.3753859482833,250.8141659629149L873.4066399250241,253.58691209226424L874.4378939017648,255.85794122008417L875.4691478785055,257.06124719617276L876.5004018552463,261.1212900841583L877.531655831987,253.2321032709338L878.5629098087278,255.90980237926038L879.5941637854686,255.52275927780488L880.6254177622094,258.46657808422344L881.6566717389501,257.1007663339003L882.6879257156909,253.04361645760503L883.7191796924317,253.24460227751297L884.7504336691724,255.6517076115288L885.7816876459132,250.9709642063341L886.812941622654,247.1050708095982L887.8441955993947,253.13706746313463L888.8754495761355,252.46206130400327L889.9067035528763,253.38739520464867L890.937957529617,259.50170813267425L891.9692115063577,261.44617081168525L893.0004654830985,263.2314356174254L894.0317194598392,248.94966104369473L895.0629734365799,250.49778859662229L896.0942274133207,251.8042338034358L897.1254813900615,254.25209546751705L898.1567353668022,253.27781210809172L899.187989343543,257.6998477559977L900.2192433202838,253.47780742658114L901.2504972970246,257.4233408751057L902.2817512737653,253.66050821652942L903.3130052505061,256.89929086989497L904.3442592272469,259.53445822108523L905.3755132039876,253.7186824205956L906.4067671807284,253.70860547031532L907.4380211574692,256.7349162250595L908.4692751342099,262.95913369538545L909.5005291109507,264.2055956313911L910.5317830876915,249.3928973463794L911.5630370644323,260.9419682122566L912.5942910411728,248.25578676697623L913.6255450179136,249.41363433456746L914.6567989946544,262.21776394121457L915.6880529713951,264.5047943391198L916.7193069481359,245.95755435868895L917.7505609248767,247.5467522119429L918.7818149016174,244.41350841915386L919.8130688783582,244.53882740617075L920.844322855099,250.25127708887538L921.8755768318398,259.47492347922156L922.9068308085805,250.26190722485356L923.9380847853213,262.23866912775674L924.9693387620621,264.8068972717624L926.0005927388028,262.78825538085874L927.0318467155436,249.28065297808672L928.0631006922844,257.38202388386003L929.094354669025,254.25859166172592L930.1256086457657,254.2045289729818L931.1568626225065,258.1748025305217L932.1881165992472,254.2417120224582L933.219370575988,256.68807111457625L934.2506245527288,258.7892647576648L935.2818785294696,256.60549319820296L936.3131325062103,253.99928586584494L937.3443864829511,252.76809260264906L938.3756404596919,264.8692876479043L939.4068944364326,249.2875902257574L940.4381484131734,260.92933464699416L941.4694023899142,252.26763148216344L942.5006563666549,258.0361622338612L943.5319103433957,260.60504448257717L944.5631643201365,254.70635063126488L945.5944182968773,263.8085465967381L946.625672273618,248.04986712868183L947.6569262503588,112.159740640743L948.6881802270996,111.11628290489432L949.7194342038401,118.16694859462848L950.7506881805809,119.6889568120373L951.7819421573217,122.79626068088524L952.8131961340624,113.565819077034L953.8444501108032,126.63323143620093L954.875704087544,107.98727023514579L955.9069580642848,107.95931193095566L956.9382120410255,107.88391421543122L957.9694660177663,121.92636869548744L959.0007199945071,107.05890502638573L960.0319739712478,111.37526351729076L961.0632279479886,109.20480205424877L962.0944819247294,121.90044372251111L963.1257359014701,119.56475914738093L964.1569898782109,104.36939091812002L965.1882438549517,105.28755956888136L966.2194978316925,108.36170219778614L967.250751808433,120.65060286845903L968.2820057851739,107.82542604110404L969.3132597619147,105.98596398793654L970.3445137386553,117.89315157610781L971.3757677153961,116.6870572450826L972.4070216921369,111.9900322392125L973.4382756688776,116.45733567081453L974.4695296456184,110.9506561167563L975.5007836223592,122.76960311063334L976.5320375991,121.30726419377152L977.5632915758407,122.71809703687134L978.5945455525815,108.28741085365743L979.6257995293223,120.97675816573576L980.657053506063,125.25718948820824L981.6883074828038,110.84374176741744L982.7195614595446,119.04089229148917L983.7508154362853,115.94924208279474L984.7820694130261,112.47095992417701L985.8133233897668,114.09450014359385L986.8445773665076,117.05902229852967L987.8758313432483,119.54663857803422L988.907085319989,111.98925478904249" style="fill: none;" fill="none"></path></g></g></g></g></g></g><g transform="translate(50, 378)" clip-path="url(#clip_1)"><clipPath id="clip_1"><rect width="1079" height="22"></rect></clipPath><g><g><line x1="22.622109113897768" y1="0" x2="22.622109113897768" y2="5" style="visibility: inherit;" fill="rgb(0, 0, 0)" stroke="rgb(204, 204, 204)" stroke-width="1px"></line><line x1="125.74750678797369" y1="0" x2="125.74750678797369" y2="5" style="visibility: inherit;" fill="rgb(0, 0, 0)" stroke="rgb(204, 204, 204)" stroke-width="1px"></line><line x1="228.8729044620496" y1="0" x2="228.8729044620496" y2="5" style="visibility: inherit;" fill="rgb(0, 0, 0)" stroke="rgb(204, 204, 204)" stroke-width="1px"></line><line x1="331.9983021361255" y1="0" x2="331.9983021361255" y2="5" style="visibility: inherit;" fill="rgb(0, 0, 0)" stroke="rgb(204, 204, 204)" stroke-width="1px"></line><line x1="435.1236998102014" y1="0" x2="435.1236998102014" y2="5" style="visibility: inherit;" fill="rgb(0, 0, 0)" stroke="rgb(204, 204, 204)" stroke-width="1px"></line><line x1="538.2490974842773" y1="0" x2="538.2490974842773" y2="5" style="visibility: inherit;" fill="rgb(0, 0, 0)" stroke="rgb(204, 204, 204)" stroke-width="1px"></line><line x1="641.3744951583532" y1="0" x2="641.3744951583532" y2="5" style="visibility: inherit;" fill="rgb(0, 0, 0)" stroke="rgb(204, 204, 204)" stroke-width="1px"></line><line x1="744.4998928324292" y1="0" x2="744.4998928324292" y2="5" style="visibility: inherit;" fill="rgb(0, 0, 0)" stroke="rgb(204, 204, 204)" stroke-width="1px"></line><line x1="847.625290506505" y1="0" x2="847.625290506505" y2="5" style="visibility: inherit;" fill="rgb(0, 0, 0)" stroke="rgb(204, 204, 204)" stroke-width="1px"></line><line x1="950.7506881805809" y1="0" x2="950.7506881805809" y2="5" style="visibility: inherit;" fill="rgb(0, 0, 0)" stroke="rgb(204, 204, 204)" stroke-width="1px"></line><line x1="1053.8760858546568" y1="0" x2="1053.8760858546568" y2="5" style="visibility: inherit;" fill="rgb(0, 0, 0)" stroke="rgb(204, 204, 204)" stroke-width="1px"></line></g><g transform="translate(0, 8)"><text x="22.622109113897768" y="0" dx="0em" dy="0.95em" style="text-anchor: middle; visibility: inherit; font-family: &quot;Helvetica Neue&quot;, sans-serif; font-size: 12px; font-weight: 200;" fill="rgb(50, 49, 63)" stroke="none" stroke-width="1px">0</text><text x="125.74750678797369" y="0" dx="0em" dy="0.95em" style="text-anchor: middle; visibility: inherit; font-family: &quot;Helvetica Neue&quot;, sans-serif; font-size: 12px; font-weight: 200;" fill="rgb(50, 49, 63)" stroke="none" stroke-width="1px">100</text><text x="228.8729044620496" y="0" dx="0em" dy="0.95em" style="text-anchor: middle; visibility: inherit; font-family: &quot;Helvetica Neue&quot;, sans-serif; font-size: 12px; font-weight: 200;" fill="rgb(50, 49, 63)" stroke="none" stroke-width="1px">200</text><text x="331.9983021361255" y="0" dx="0em" dy="0.95em" style="text-anchor: middle; visibility: inherit; font-family: &quot;Helvetica Neue&quot;, sans-serif; font-size: 12px; font-weight: 200;" fill="rgb(50, 49, 63)" stroke="none" stroke-width="1px">300</text><text x="435.1236998102014" y="0" dx="0em" dy="0.95em" style="text-anchor: middle; visibility: inherit; font-family: &quot;Helvetica Neue&quot;, sans-serif; font-size: 12px; font-weight: 200;" fill="rgb(50, 49, 63)" stroke="none" stroke-width="1px">400</text><text x="538.2490974842773" y="0" dx="0em" dy="0.95em" style="text-anchor: middle; visibility: inherit; font-family: &quot;Helvetica Neue&quot;, sans-serif; font-size: 12px; font-weight: 200;" fill="rgb(50, 49, 63)" stroke="none" stroke-width="1px">500</text><text x="641.3744951583532" y="0" dx="0em" dy="0.95em" style="text-anchor: middle; visibility: inherit; font-family: &quot;Helvetica Neue&quot;, sans-serif; font-size: 12px; font-weight: 200;" fill="rgb(50, 49, 63)" stroke="none" stroke-width="1px">600</text><text x="744.4998928324292" y="0" dx="0em" dy="0.95em" style="text-anchor: middle; visibility: inherit; font-family: &quot;Helvetica Neue&quot;, sans-serif; font-size: 12px; font-weight: 200;" fill="rgb(50, 49, 63)" stroke="none" stroke-width="1px">700</text><text x="847.625290506505" y="0" dx="0em" dy="0.95em" style="text-anchor: middle; visibility: inherit; font-family: &quot;Helvetica Neue&quot;, sans-serif; font-size: 12px; font-weight: 200;" fill="rgb(50, 49, 63)" stroke="none" stroke-width="1px">800</text><text x="950.7506881805809" y="0" dx="0em" dy="0.95em" style="text-anchor: middle; visibility: inherit; font-family: &quot;Helvetica Neue&quot;, sans-serif; font-size: 12px; font-weight: 200;" fill="rgb(50, 49, 63)" stroke="none" stroke-width="1px">900</text><text x="1053.8760858546568" y="0" dx="0em" dy="0.95em" style="text-anchor: middle; visibility: inherit; font-family: &quot;Helvetica Neue&quot;, sans-serif; font-size: 12px; font-weight: 200;" fill="rgb(50, 49, 63)" stroke="none" stroke-width="1px">1k</text></g><line x1="0" y1="0" x2="1079" y2="0" fill="rgb(0, 0, 0)" stroke="rgb(204, 204, 204)" stroke-width="1px"></line></g></g></g></g></svg>