<svg viewBox="0 0 1112.2000732421875 400" xmlns="http://www.w3.org/2000/svg"><g><g><g><g><g><line x1="50" y1="378" x2="45" y2="378" style="visibility: inherit;" fill="rgb(0, 0, 0)" stroke="rgb(204, 204, 204)" stroke-width="1px"></line><line x1="50" y1="330.75" x2="45" y2="330.75" style="visibility: inherit;" fill="rgb(0, 0, 0)" stroke="rgb(204, 204, 204)" stroke-width="1px"></line><line x1="50" y1="283.5" x2="45" y2="283.5" style="visibility: inherit;" fill="rgb(0, 0, 0)" stroke="rgb(204, 204, 204)" stroke-width="1px"></line><line x1="50" y1="236.25000000000003" x2="45" y2="236.25000000000003" style="visibility: inherit;" fill="rgb(0, 0, 0)" stroke="rgb(204, 204, 204)" stroke-width="1px"></line><line x1="50" y1="189" x2="45" y2="189" style="visibility: inherit;" fill="rgb(0, 0, 0)" stroke="rgb(204, 204, 204)" stroke-width="1px"></line><line x1="50" y1="141.75" x2="45" y2="141.75" style="visibility: inherit;" fill="rgb(0, 0, 0)" stroke="rgb(204, 204, 204)" stroke-width="1px"></line><line x1="50" y1="94.50000000000006" x2="45" y2="94.50000000000006" style="visibility: inherit;" fill="rgb(0, 0, 0)" stroke="rgb(204, 204, 204)" stroke-width="1px"></line><line x1="50" y1="47.25000000000006" x2="45" y2="47.25000000000006" style="visibility: inherit;" fill="rgb(0, 0, 0)" stroke="rgb(204, 204, 204)" stroke-width="1px"></line><line x1="50" y1="0" x2="45" y2="0" style="visibility: inherit;" fill="rgb(0, 0, 0)" stroke="rgb(204, 204, 204)" stroke-width="1px"></line></g><g transform="translate(40, 0)"><text x="0" y="378" dx="0em" dy="0.3em" style="text-anchor: end; visibility: hidden; font-family: &quot;Helvetica Neue&quot;, sans-serif; font-size: 12px; font-weight: 200;" fill="rgb(50, 49, 63)" stroke="none" stroke-width="1px">-1</text><text x="0" y="330.75" dx="0em" dy="0.3em" style="text-anchor: end; visibility: inherit; font-family: &quot;Helvetica Neue&quot;, sans-serif; font-size: 12px; font-weight: 200;" fill="rgb(50, 49, 63)" stroke="none" stroke-width="1px">-0.8</text><text x="0" y="283.5" dx="0em" dy="0.3em" style="text-anchor: end; visibility: inherit; font-family: &quot;Helvetica Neue&quot;, sans-serif; font-size: 12px; font-weight: 200;" fill="rgb(50, 49, 63)" stroke="none" stroke-width="1px">-0.6</text><text x="0" y="236.25000000000003" dx="0em" dy="0.3em" style="text-anchor: end; visibility: inherit; font-family: &quot;Helvetica Neue&quot;, sans-serif; font-size: 12px; font-weight: 200;" fill="rgb(50, 49, 63)" stroke="none" stroke-width="1px">-0.4</text><text x="0" y="189" dx="0em" dy="0.3em" style="text-anchor: end; visibility: inherit; font-family: &quot;Helvetica Neue&quot;, sans-serif; font-size: 12px; font-weight: 200;" fill="rgb(50, 49, 63)" stroke="none" stroke-width="1px">-0.2</text><text x="0" y="141.75" dx="0em" dy="0.3em" style="text-anchor: end; visibility: inherit; font-family: &quot;Helvetica Neue&quot;, sans-serif; font-size: 12px; font-weight: 200;" fill="rgb(50, 49, 63)" stroke="none" stroke-width="1px">0</text><text x="0" y="94.50000000000006" dx="0em" dy="0.3em" style="text-anchor: end; visibility: inherit; font-family: &quot;Helvetica Neue&quot;, sans-serif; font-size: 12px; font-weight: 200;" fill="rgb(50, 49, 63)" stroke="none" stroke-width="1px">0.2</text><text x="0" y="47.25000000000006" dx="0em" dy="0.3em" style="text-anchor: end; visibility: inherit; font-family: &quot;Helvetica Neue&quot;, sans-serif; font-size: 12px; font-weight: 200;" fill="rgb(50, 49, 63)" stroke="none" stroke-width="1px">0.4</text><text x="0" y="0" dx="0em" dy="0.3em" style="text-anchor: end; visibility: hidden; font-family: &quot;Helvetica Neue&quot;, sans-serif; font-size: 12px; font-weight: 200;" fill="rgb(50, 49, 63)" stroke="none" stroke-width="1px">0.6</text></g><line x1="50" y1="0" x2="50" y2="378" fill="rgb(0, 0, 0)" stroke="rgb(204, 204, 204)" stroke-width="1px"></line></g></g><g transform="translate(50, 0)" clip-path="url(#clip_0)"><clipPath id="clip_0"><rect width="1062" height="378"></rect></clipPath><g><g><g><line x1="0" y1="0" x2="0" y2="378" fill="rgb(0, 0, 0)" stroke="rgb(60, 60, 60)" stroke-width="1px" opacity="0.25"></line><line x1="118.02222222222223" y1="0" x2="118.02222222222223" y2="378" fill="rgb(0, 0, 0)" stroke="rgb(60, 60, 60)" stroke-width="1px" opacity="0.25"></line><line x1="236.04444444444445" y1="0" x2="236.04444444444445" y2="378" fill="rgb(0, 0, 0)" stroke="rgb(60, 60, 60)" stroke-width="1px" opacity="0.25"></line><line x1="354.06666666666666" y1="0" x2="354.06666666666666" y2="378" fill="rgb(0, 0, 0)" stroke="rgb(60, 60, 60)" stroke-width="1px" opacity="0.25"></line><line x1="472.0888888888889" y1="0" x2="472.0888888888889" y2="378" fill="rgb(0, 0, 0)" stroke="rgb(60, 60, 60)" stroke-width="1px" opacity="0.25"></line><line x1="590.1111111111112" y1="0" x2="590.1111111111112" y2="378" fill="rgb(0, 0, 0)" stroke="rgb(60, 60, 60)" stroke-width="1px" opacity="0.25"></line><line x1="708.1333333333333" y1="0" x2="708.1333333333333" y2="378" fill="rgb(0, 0, 0)" stroke="rgb(60, 60, 60)" stroke-width="1px" opacity="0.25"></line><line x1="826.1555555555556" y1="0" x2="826.1555555555556" y2="378" fill="rgb(0, 0, 0)" stroke="rgb(60, 60, 60)" stroke-width="1px" opacity="0.25"></line><line x1="944.1777777777778" y1="0" x2="944.1777777777778" y2="378" fill="rgb(0, 0, 0)" stroke="rgb(60, 60, 60)" stroke-width="1px" opacity="0.25"></line><line x1="1062.2" y1="0" x2="1062.2" y2="378" fill="rgb(0, 0, 0)" stroke="rgb(60, 60, 60)" stroke-width="1px" opacity="0.25"></line></g><g><line x1="0" y1="378" x2="1062.2" y2="378" fill="rgb(0, 0, 0)" stroke="rgb(60, 60, 60)" stroke-width="1px" opacity="0.25"></line><line x1="0" y1="330.75" x2="1062.2" y2="330.75" fill="rgb(0, 0, 0)" stroke="rgb(60, 60, 60)" stroke-width="1px" opacity="0.25"></line><line x1="0" y1="283.5" x2="1062.2" y2="283.5" fill="rgb(0, 0, 0)" stroke="rgb(60, 60, 60)" stroke-width="1px" opacity="0.25"></line><line x1="0" y1="236.25000000000003" x2="1062.2" y2="236.25000000000003" fill="rgb(0, 0, 0)" stroke="rgb(60, 60, 60)" stroke-width="1px" opacity="0.25"></line><line x1="0" y1="189" x2="1062.2" y2="189" fill="rgb(0, 0, 0)" stroke="rgb(60, 60, 60)" stroke-width="1px" opacity="0.25"></line><line x1="0" y1="141.75" x2="1062.2" y2="141.75" fill="rgb(0, 0, 0)" stroke="rgb(60, 60, 60)" stroke-width="1px" opacity="0.25"></line><line x1="0" y1="94.50000000000006" x2="1062.2" y2="94.50000000000006" fill="rgb(0, 0, 0)" stroke="rgb(60, 60, 60)" stroke-width="1px" opacity="0.25"></line><line x1="0" y1="47.25000000000006" x2="1062.2" y2="47.25000000000006" fill="rgb(0, 0, 0)" stroke="rgb(60, 60, 60)" stroke-width="1px" opacity="0.25"></line><line x1="0" y1="0" x2="1062.2" y2="0" fill="rgb(0, 0, 0)" stroke="rgb(60, 60, 60)" stroke-width="1px" opacity="0.25"></line></g></g></g><g><g><line x1="0" y1="141.75" x2="1062.2" y2="141.75" fill="rgb(0, 0, 0)" stroke="rgb(153, 153, 153)" stroke-width="1.5px"></line></g></g><g><g><line x1="118.02222222222223" y1="0" x2="118.02222222222223" y2="378" fill="rgb(0, 0, 0)" stroke="rgb(153, 153, 153)" stroke-width="1.5px"></line></g></g><g><g><g><g><g><path stroke="rgb(255, 112, 67)" stroke-width="2px" d="M118.39989333333334,220.59036395698786L118.77756444444445,233.85438753519495L119.15523555555556,239.19810662830605L119.91057777777777,211.80625942282202L120.66592000000001,217.05505964530172L121.04359111111113,221.17700388656743L121.79893333333334,200.6033312495344L122.17660444444445,184.87313057899746L122.55427555555556,172.570531673138L122.93194666666666,188.9073613478192L123.30961777777779,201.1051436307768L123.6872888888889,186.2753057967977L124.06496000000001,175.3196090018919L124.44263111111111,166.72327029011623L125.19797333333334,184.7766153945599L125.95331555555556,198.89498439565145L126.33098666666667,183.57161500139551L128.21934222222222,197.93880358345524L128.59701333333334,182.29696038665483L129.35235555555556,195.89840878988142L129.73002666666667,206.2375908125747L130.4853688888889,212.96046151744017L131.61838222222224,198.6369717855876L131.99605333333335,203.6820387042705L132.75139555555555,192.69532507431836L133.12906666666666,183.93249549133694L133.50673777777777,192.45221701534993L133.88440888888888,184.22146163602025L134.63975111111114,178.51342810144433L135.39509333333334,184.39600069448272L135.77276444444445,181.17800057293067L136.90577777777779,176.5904508563433L137.2834488888889,185.58241128574736L137.66112,178.23567641357263L138.0387911111111,189.17136664048994L138.4164622222222,178.9039923059375L139.54947555555557,192.4432311394598L139.9271466666667,179.61252933292988L140.6824888888889,194.87451588651578L141.4378311111111,207.8780725099218L141.81550222222222,188.6182405138273L142.19317333333333,173.65848439673832L142.57084444444445,162.11433000863485L142.94851555555556,181.82899841477698L143.70385777777776,197.04059655698103L144.0815288888889,209.51433914489854L144.4592,219.40780549602405L144.83687111111112,227.70175287533047L145.59221333333335,204.6475589191741L146.34755555555557,187.1791267081531L146.72522666666666,201.8930474325671L147.48056888888888,184.19030144695216L148.61358222222225,198.7449074273753L148.99125333333336,182.35562825602477L149.36892444444447,169.32857815535507L149.74659555555556,188.21465952759576L150.12426666666667,173.48880369488376L150.50193777777778,190.80946310399503L152.39029333333332,176.57668405350128L154.2786488888889,191.41642545971342L155.41166222222222,202.26602140523332L156.16700444444444,211.01303934939475L156.54467555555556,193.3969835350893L156.92234666666667,205.00322667498446L159.56604444444446,215.39938794010735L160.6990577777778,192.35740809788993L161.4544,173.79246437794754L161.8320711111111,194.45059752676343L162.20974222222222,211.14139470198145L163.7204266666667,225.7359968483069L164.09809777777778,199.75320223691975L164.4757688888889,178.31456939716657L165.60878222222223,162.26584252559005L165.98645333333334,150.36504517425354L167.11946666666665,141.55387348899114L168.63015111111113,168.4976091908946L169.38549333333336,154.45613095760197L170.14083555555555,142.82485955238786L170.51850666666667,171.89085166612642L170.89617777777778,155.273654199998L171.2738488888889,182.4845968876861L171.65152,204.2171949571138L172.02919111111112,221.5593833800711L172.78453333333331,192.5870093607539L173.53987555555557,213.15943353293346L174.6728888888889,229.45839108252562L175.05056000000002,197.87144240468047L175.42823111111113,218.86697414849056L176.18357333333333,235.42209427168623L176.56124444444444,205.4676441253117L176.93891555555555,181.71854474433263L177.69425777777778,163.70262164135437L178.07192888888892,150.68164932212449L178.82727111111112,183.51921951616666L179.20494222222223,207.846752986415L179.96028444444445,182.84209314603754L180.33795555555557,210.44340039692733L180.71562666666668,228.87015401373836L181.47096888888888,199.5620603265785L182.98165333333336,175.98255294238433L183.35932444444447,157.34871346674143L183.73699555555558,188.92843146602902L184.1146666666667,212.57656399407958L184.8700088888889,233.50203030033435L185.24768,249.91420233470782L186.00302222222223,217.22069459639368L186.75836444444445,235.6689777522551L187.13603555555557,252.4732089849556L187.51370666666665,219.1726285499228L187.8913777777778,190.77503025701725L188.64672000000002,214.8082471945272L189.02439111111113,234.36600290515173L191.6680888888889,248.4531160978992L193.17877333333334,258.48060171180356L194.6894577777778,222.57028658129198L195.0671288888889,193.87872910705835L195.44480000000001,170.5506579335973L196.95548444444444,200.20296227012906L197.33315555555555,223.92752689853947L197.7108266666667,193.88541592961764L198.0884977777778,218.3822415742438L199.2215111111111,237.40819727724852L199.59918222222223,202.83244174151787L200.35452444444445,176.1557852975265L200.73219555555556,154.9921659173144L201.10986666666668,139.32237768191428L201.86520888888887,127.52673379181385L202.24288,118.2084040274238L202.62055111111113,159.20391588365632L203.37589333333335,143.00377909183584L203.75356444444446,130.04416762953275L204.13123555555558,119.98483287369112L204.5089066666667,110.56061252112829L204.88657777777777,102.83827990879473L205.2642488888889,148.731965128212L206.39726222222222,131.5375163341078L206.77493333333334,118.15509247984227L207.5302755555556,107.98127799492164L209.04096,99.75235687111746L209.41863111111113,146.23122765872773L210.17397333333335,182.86984396345224L210.92931555555555,211.35889902635623L211.30698666666666,234.17639799266217L213.19534222222225,252.07463654980455L214.32835555555556,266.3673688816281L214.70602666666667,277.4509501988687L215.0836977777778,232.10521636019186L215.4613688888889,196.33980073100238L216.2167111111111,222.41095597831017L217.72739555555557,188.24531952528852L218.4827377777778,160.73862830226273L219.23808,195.57149225136143L219.6157511111111,223.06659509204005L219.99342222222222,244.82341800679643L220.37109333333333,261.8496965552723L221.50410666666667,274.5915548937999L221.8817777777778,283.5649817543873L222.63712,235.50978665539517L223.39246222222224,254.03774780859356L224.14780444444446,269.20454149024425L226.03616,279.9304160485872L226.79150222222225,288.3397580373628L227.16917333333336,239.60013303841873L228.30218666666667,257.00869534511787L228.67985777777778,269.6562518509313L229.0575288888889,225.27966878998998L229.4352,244.2452054611819L229.81287111111112,205.53317856677057L230.19054222222223,228.90798837176516L230.56821333333335,247.42607205249178L230.94588444444443,262.3297601595323L231.32355555555554,273.552744201974L232.83424000000002,285.01099162479545L233.21191111111114,236.09814549683213L233.96725333333333,197.66253104623723L235.10026666666667,224.90047040954602L236.61095111111112,245.55592788354969L236.98862222222223,262.0099155213733L237.36629333333335,274.7650726093931L237.74396444444446,282.5747510106014L238.49930666666668,235.58412410006787L239.2546488888889,252.60493726097081L239.63232,210.7043138077131L240.0099911111111,178.6469555402922L240.38766222222222,207.80535712355027L241.52067555555558,177.71915408272483L241.8983466666667,152.66715988511658L242.6536888888889,190.58229882525347L244.16437333333334,163.91853400313295L244.91971555555557,198.48179003331174L245.67505777777777,226.31261162887043L246.05272888888888,188.5323193362873L246.43040000000002,218.76351578196494L246.80807111111113,182.32543362984563L247.18574222222225,213.85147947866562L247.94108444444447,179.74508066906776L248.31875555555555,152.1616168490749L249.4517688888889,186.99579061352136L250.20711111111112,159.87828147182148L250.58478222222223,139.3334108333299L251.34012444444446,122.74803996737245L252.09546666666668,166.4864465140721L252.4731377777778,142.54427436159042L252.8508088888889,123.76254127974278L253.60615111111113,108.40720287461869L253.98382222222222,96.43021338383687L254.36149333333333,87.09744437556083L254.73916444444444,79.78631259318831L255.49450666666667,133.26209475839565L255.8721777777778,115.25406485027213L256.62752,101.02643238666718L257.0051911111111,89.66982158188705L257.76053333333334,81.34688874362354L258.51587555555557,74.11278617839292L258.8935466666667,129.7402338050047L259.2712177777778,174.5890036372079L259.6488888888889,147.36153762471181L260.02656,126.26313014757253L260.78190222222224,109.38267941491762L261.15957333333336,95.57305693547801L262.2925866666667,146.5268805355236L262.6702577777778,124.64833709741703L263.0479288888889,169.55820079946108L263.42560000000003,142.67351114574035L264.1809422222222,123.67622941210249L264.5586133333333,167.02985506213642L264.9362844444444,200.17319927079262L265.31395555555554,225.7862046760853L267.2023111111111,191.0154949961638L268.7129955555556,222.06284042166405L269.0906666666667,183.59805641228164L269.84600888888895,216.04044179297227L270.22368,178.5976469806397L270.9790222222222,149.9146700217346L273.62272,127.45864767101679L274.0003911111111,110.90146844259675L275.13340444444447,158.05426160801454L275.5110755555556,194.91520848341727L275.88874666666663,163.25557829577878L276.26641777777775,138.71906217067897L277.02176,180.08302918171253L277.77710222222225,212.35481905141145L278.5324444444445,237.61922419043938L279.2877866666667,196.7953705806982L281.17614222222227,226.21970199518705L282.68682666666666,188.50537460749692L283.0644977777778,217.82266258946345L283.4421688888889,182.17559709223616L283.81984,154.7868632982649L284.5751822222222,189.13027526241083L284.95285333333334,216.02027150829736L286.0858666666667,183.02083740288816L286.4635377777778,156.31666451053778L287.21887999999996,190.90893527028462L288.35189333333335,161.8980410033273L289.4849066666667,138.55329038003796L289.8625777777778,120.44757559459583L290.2402488888889,106.38006993062697L290.61792,153.46367770369503L290.99559111111114,190.2495849963786L291.75093333333336,218.6363200874164L292.1286044444445,241.38554032319783L292.5062755555556,201.36245999359826L292.8839466666667,171.27663805843284L293.26161777777776,204.13860394953466L293.63928888888887,228.76285630986334L294.01696,248.33089760883414L294.7723022222222,208.15623662413876L295.52764444444443,176.0373298941743L295.90531555555555,151.48730943033203L297.0383288888889,186.4978118879496L297.41600000000005,214.13554113335806L298.9266844444445,236.65005662671777L300.0596977777778,198.24744445770875L300.4373688888889,168.49318136778663L301.1927111111111,145.3280857517236L301.57038222222224,126.62328634910475L302.32572444444446,168.69006753055606L303.0810666666667,201.25542959258144L304.21408,170.1236048395435L304.59175111111114,145.62969551743717L306.85777777777776,129.32973350230725L307.99079111111115,116.36632333038898L308.36846222222226,106.96131501316688L308.7461333333334,149.1679144013027L309.5014755555556,181.4449194514495L309.8791466666667,206.40404222712417L310.2568177777778,226.4434104552786L311.01216,192.93702917612504L311.3898311111111,166.1392917835478L311.7675022222222,197.98283024483396L312.14517333333333,170.02295903176835L312.90051555555556,202.44019005833894L313.27818666666667,172.86460192962693L314.7888711111111,149.66596995613452L315.16654222222223,184.3007605221988L317.4325688888889,210.25825411212406L318.18791111111113,231.21880913798336L318.56558222222225,246.91613588633683L318.94325333333336,210.38203563505604L319.3209244444445,182.14291411888314L319.6985955555556,207.87227400670042L320.0762666666667,178.70636246646117L320.4539377777778,155.57338020460782L320.8316088888889,187.5984359920046L321.20928000000004,163.28112089559306L321.58695111111115,144.56578577593388L321.96462222222226,178.4250224209948L322.3422933333333,205.80063464137294L323.09763555555554,227.41322667325764L323.47530666666665,244.40783590230302L323.85297777777777,257.3026476178146L324.2306488888889,218.32830677403612L324.9859911111111,237.02439944267604L325.3636622222222,200.71361453415773L325.74133333333333,172.90128735864477L326.4966755555556,200.53382103138824L327.25201777777784,222.60641924544709L328.00736000000006,241.0310589827652L328.3850311111111,255.98797978646218L329.51804444444446,269.01633166602903L329.89571555555557,224.25247666363603L330.2733866666667,244.34091740851233L331.0287288888889,204.83023589863504L331.4064,174.38452211288177L331.78407111111113,204.28815036501985L332.53941333333336,174.5996850662448L333.2947555555556,151.02915416910284L333.6724266666667,132.52010334041128L334.42776888888886,118.62396602815909L334.80544,106.5823450635666L335.1831111111111,97.21807083337973L335.5607822222222,89.09006477028021L335.9384533333333,83.83440818835498L336.3161244444445,133.65968684480313L336.6937955555556,173.5203802639191L337.0714666666667,204.28771850385647L337.4491377777778,174.9764761186078L338.20448000000005,152.5381435220627L338.58215111111116,134.3224790849281L338.9598222222223,172.5433642978776L340.09283555555555,202.64792425550385L340.47050666666667,226.14303229631875L340.8481777777778,191.32297755020633L341.60352,163.84020067899104L341.9811911111111,196.5331742391975L342.3588622222222,167.9165120246809L342.73653333333334,200.4329026897106L343.49187555555557,169.15305943866557L344.2472177777778,201.47117138912904L344.6248888888889,170.57248839537127L345.00256,202.50336506810052L345.7579022222222,228.23589151280746L346.51324444444447,247.20428165244638L347.2685866666667,262.1998865521645L347.6462577777778,218.34350646005052L348.0239288888889,239.35746749255418L349.15694222222226,255.53511115552448L350.6676266666667,214.48782178212468L351.0452977777778,234.77630054999167L351.80064,199.46918388003797L352.1783111111111,222.87067485327762L352.9336533333333,242.08282511288039L354.4443377777778,203.76925694945973L354.8220088888889,228.59108535851297L355.5773511111111,192.6409319637946L356.3326933333334,217.43262296675712L357.8433777777778,183.97974132925623L358.9763911111111,156.60137796415606L359.35406222222224,134.8837965632105L360.10940444444446,175.38524187112063L360.4870755555556,148.86316710388954L360.8647466666667,128.1359417390529L361.2424177777778,171.00950975784502L361.6200888888889,204.5817930736979L361.99776,230.7770485918335L362.37543111111114,250.95283265173424L362.7531022222222,266.6547026694524L363.1307733333333,220.66021776346705L364.64145777777776,242.15920960811425L365.0191288888889,202.34767013472012L365.77447111111115,228.0473190843439L366.5298133333334,191.12467294956363L366.9074844444445,219.55404711714553L367.2851555555556,242.15886662728352L367.6628266666667,259.13575346521395L368.04049777777783,272.3299106998811L368.41816888888894,225.17329158151801L368.79584,188.01281404741337L369.1735111111111,217.07860523137916L369.5511822222222,240.01492212953497L370.30652444444445,199.3237879399433L370.68419555555556,226.15777018635194L371.0618666666667,189.08755387408542L371.4395377777778,217.01240441847517L371.8172088888889,182.56064339976177L372.5725511111111,156.15785798554637L372.95022222222224,190.84736008660883L373.32789333333335,162.9396851247954L374.0832355555556,195.28821276025545L374.46090666666663,166.64573449914172L374.83857777777774,144.624917993021L375.2162488888889,128.7007084143319L375.59392,168.76323193175L375.97159111111114,147.5534629611995L376.34926222222225,183.17303745614996L376.72693333333336,158.77256503393411L377.1046044444445,190.98836090764794L378.2376177777778,166.74436626240504L378.99296000000004,195.6008073800706L379.74830222222226,171.6956359987866L380.88131555555555,199.3453242084689L381.25898666666666,221.39058213151725L381.63665777777777,189.66884792582536L382.0143288888889,213.95129188326553L382.392,233.20042550139402L382.7696711111111,198.17662553982422L383.1473422222222,221.34557908842214L383.52501333333333,239.54059515077094L383.90268444444445,253.1152542263125L384.28035555555556,263.64149470442294L384.6580266666667,271.7617710899678L385.03569777777784,277.4309162140569L386.54638222222223,237.6283982967936L388.0570666666667,246.0408444832809L388.4347377777778,252.25495391544797L389.19008,258.35962340978693L389.56775111111114,264.1902110082568L389.94542222222225,227.4459109601735L390.32309333333336,241.40095972758849L390.7007644444445,252.3156775927915L391.0784355555556,218.12942134213552L392.21144888888887,192.0811114635876L392.58912,172.0927969192632L392.9667911111111,195.28807692440415L394.47747555555554,174.45112054679097L394.8551466666667,197.54522128907712L395.61048888888894,173.67971018729523L395.98816000000005,154.36900914568562L396.36583111111116,139.5155354340162L396.7435022222223,171.2098799218278L397.4988444444445,194.50854383240647L398.6318577777778,174.0837573161427L399.0095288888889,158.14052510933092L399.7648711111111,183.25845874775763L400.14254222222223,202.08933776784096L400.52021333333334,215.41177795669103L400.89788444444446,194.2600791950349L401.27555555555557,179.70883332034904L401.6532266666667,193.73230350954057L402.4085688888889,204.65529144164324L403.5415822222222,214.83051162153544L403.9192533333333,224.24913605422097L404.6745955555556,198.4862565950648L405.4299377777778,214.89047965459258L405.8076088888889,228.0986184537152L406.18528000000003,200.08547928117724L406.56295111111115,177.8009737176304L407.3182933333334,199.59850538229043L407.6959644444445,178.10620640043257L408.0736355555556,161.13319526308842L408.4513066666667,187.27299543418442L408.8289777777778,207.8153696159472L409.20664888888894,224.8411848493477L409.58432,238.67571583734272L409.9619911111111,250.32718075777257L411.09500444444444,260.39740628023173L411.47267555555555,268.7611976460522L412.98336,227.97740130628088L413.3610311111111,196.51826751171913L414.11637333333334,172.61867316380292L414.8717155555556,198.28412244955464L415.2493866666667,176.65490022237088L415.6270577777778,159.21225610024578L416.0047288888889,144.83159847863993L416.3824,175.4455781278018L416.76007111111113,158.53483508347512L417.13774222222224,146.6357086511409L417.51541333333336,175.5179634692432L418.2707555555556,157.6038030042914L418.6484266666667,186.0476384483779L419.0260977777778,166.17696891620133L419.78144000000003,193.23107340246236L420.9144533333333,214.3785326624172L421.2921244444444,230.23367349301313L421.66979555555554,200.88862138020468L422.04746666666665,178.25375194288554L422.42513777777776,161.31862882317978L423.18048,184.4311725206354L423.5581511111111,201.88884790127685L423.93582222222227,215.5930336126697L424.6911644444445,192.30984713844276L425.0688355555556,209.61185417438398L425.82417777777783,224.5220241622247L426.9571911111111,199.92956724540645L427.71253333333334,181.03292373975674L428.09020444444445,166.69050819108352L428.46787555555557,156.04871965132924L429.6008888888889,176.91529412630805L430.73390222222224,166.06581590505252L431.11157333333335,184.53322587497388L431.8669155555556,170.88861208845825L432.2445866666667,160.6887918889671L432.62225777777775,183.1733379536775L433.3776,199.70362840006197L433.75527111111114,211.49010196708485L435.2659555555556,218.95914307816093L436.0212977777778,199.43613757480628L436.39896888888893,209.76750587320467L436.77664000000004,217.11181180156444L437.15431111111116,199.06290093653033L437.9096533333334,186.057137338204L438.28732444444444,197.7558344237727L438.66499555555555,208.1793908708067L439.04266666666666,191.2139646143551L439.7980088888889,179.5824092104355L440.5533511111111,167.08702106509276L441.30869333333334,182.00156996703112L441.68636444444445,169.76624566321394L442.06403555555556,158.95788143627368L442.4417066666667,178.45525437932338L442.8193777777778,165.17738236241144L444.33006222222224,183.24105805966045L444.70773333333335,199.41606571101065L445.08540444444446,177.4442022780189L445.4630755555556,160.1584334716165L446.5960888888889,183.50169185316133L446.97376,199.3630837076027L447.35143111111114,177.07498672291908L447.72910222222225,195.44616288879084L448.10677333333336,210.50234341488675L448.8621155555556,221.9849523425439L449.2397866666667,197.8845354516457L449.6174577777778,213.01983364576944L449.99512888888887,225.07900020369635L450.7504711111111,199.82132826928682L451.5058133333333,178.18025245073068L451.88348444444443,160.96129251143293L452.26115555555555,147.36480485218974L452.63882666666666,137.98912379031785L453.0164977777778,130.90157388981706L453.77184000000005,125.25042923972259L454.14951111111117,119.00532757424861L454.5271822222223,148.7056635604771L455.2825244444445,136.92873447201228L455.6601955555556,130.26123483280307L456.4155377777778,159.1990542208937L456.7932088888889,148.1999699677603L458.30389333333335,140.32303210073874L458.68156444444446,167.6387503421681L459.4369066666667,154.07131643224042L459.8145777777778,141.91737251051464L460.1922488888889,131.45753014687597L460.56992,124.26095102392483L460.94759111111114,120.47850587356106L461.32526222222225,116.41419347550783L461.7029333333333,147.16079740488584L462.45827555555553,173.87164569331463L462.83594666666664,156.549828502419L463.2136177777778,177.85136576349973L464.34663111111115,165.06851501458198L464.72430222222226,182.1256995561556L465.1019733333334,196.94984444939354L465.4796444444445,208.62834022578332L466.2349866666667,186.1906170754861L468.50101333333333,175.70725679453741L468.87868444444445,169.01912043852374L469.25635555555556,180.51470673070642L470.0116977777778,186.8802252274952L471.52238222222223,179.64427194505478L472.65539555555563,180.61127245537162L473.7884088888889,182.52810813009467L474.92142222222225,184.3267812963694L475.29909333333336,185.31822941356674L476.0544355555556,184.99414277832616L476.4321066666667,185.54716282762874L476.8097777777778,186.34178831981578L477.1874488888889,183.7277117557933L477.94279111111115,185.41434145977084L478.32046222222226,186.52822340806148L478.6981333333334,185.8409314341853L479.07580444444443,185.93635966854245L479.45347555555554,186.09037403498547L479.83114666666665,187.11881160936332L480.20881777777777,185.2026323013637L480.5864888888889,183.11771486601913L480.96416,182.93026053557813L481.7195022222222,183.48479443768872L482.09717333333333,184.13451805452516L482.8525155555556,182.78295731821336L483.60785777777784,178.71799828706637L483.98552888888895,174.56780865515609L484.7408711111111,180.40538358171474L485.49621333333334,181.98076735851765L485.87388444444446,187.57380837668458L486.25155555555557,190.00700744885307L486.6292266666667,187.45525406799186L487.76224,187.16691124761502L488.13991111111113,187.56489257237814L488.51758222222225,186.02448025207406L488.89525333333336,184.0614205412087L489.6505955555556,182.82278954178437L490.0282666666667,181.46719364905894L490.78360888888886,176.97583527788714L493.0496355555556,182.94834343083875L493.4273066666667,178.06668923482786L494.18264888888893,182.85721604254584L494.56032000000005,185.22250127841323L495.3156622222223,177.9952238214199L495.6933333333334,183.44501350464827L496.0710044444445,186.5839204091405L496.44867555555555,180.39653282030764L497.2040177777778,175.10919840143305L497.5816888888889,180.113246492881L497.95936,186.13127634795106L498.71470222222223,184.0322343629818L499.09237333333334,187.45941114197663L499.47004444444445,185.0389254579424L499.84771555555557,182.55277873253945L500.9807288888889,181.59042395163976L501.73607111111113,180.44035958223657L503.6244266666667,181.67997067591497L504.0020977777778,181.34393851010108L504.3797688888889,179.46148568580466L504.75744000000003,180.14234679097137L505.89045333333337,184.0416366162672L507.4011377777778,187.34641493394196L508.15648,183.6494288586283L508.9118222222222,181.82626395923526L510.42250666666666,186.79048030375498L511.1778488888889,190.72893049597155L511.93319111111117,187.0425684114449L512.6885333333333,184.0836151190698L513.4438755555556,181.10544019224614L515.7099022222222,179.44049525283125L516.4652444444445,177.65736480022468L517.2205866666667,178.64926643795863L520.9972977777778,184.25743455291305L521.75264,188.8572020258452L522.5079822222223,191.15053291838518L523.2633244444445,188.47699561864795L524.7740088888889,190.55956902579436L525.5293511111112,191.86385620231115L526.2846933333334,188.47887273066382L527.0400355555556,191.07117680192138L527.7953777777778,193.1026284726506L531.572088888889,189.64917729504077L532.3274311111112,187.82285230397645L533.0827733333334,184.58718459775446L533.8381155555556,181.44992860400004L534.5934577777778,179.79951284311733L535.3488,181.19263964364495L538.3701688888889,179.4827607206719L539.1255111111111,176.32096276346851L539.8808533333333,179.17503539425303L540.6361955555556,182.03407346090725L541.3915377777778,183.61272111199662L542.14688,182.76829686906564L542.9022222222222,185.9625206473774L544.4129066666667,189.84391707671966L545.1682488888889,191.72761752653864L545.9235911111111,186.79167179455973L546.6789333333334,185.8881986597106L547.4342755555556,184.68716187554733L548.1896177777778,183.83526014365538L548.94496,185.928596718663L551.9663288888889,188.30027880767764L553.4770133333334,189.03233526831693L554.2323555555556,182.7388539262191L556.4983822222223,181.43859125824036L558.0090666666666,184.01465202365756L558.7644088888889,186.55579795682578L560.2750933333333,188.18822978163428L561.7857777777778,187.64380643479194L562.54112,186.86032460099088L563.2964622222222,182.713552399435L564.8071466666667,185.96644165171875L567.0731733333334,182.69932733719835L567.8285155555557,185.6614483451477L570.0945422222222,184.60077574699216L571.6052266666667,184.25736401643195L573.8712533333334,182.53505480671032L576.13728,179.18535179337115L576.8926222222223,182.01882546493133L577.6479644444445,179.46664463555115L578.4033066666667,182.23234298296728L579.1586488888889,176.6453034698557L579.9139911111112,171.85153539462038L580.6693333333333,165.93916895950144L581.4246755555555,161.67261147776796L582.1800177777777,160.3946578349609L582.93536,168.7225210270256L584.4460444444444,171.69332421524174L585.2013866666667,174.72197311930935L585.956728888889,177.11518170442326L588.2227555555556,176.8835385470272L588.9780977777779,180.46877108092926L590.4887822222223,178.76683481875924L591.2441244444445,180.83761586777118L592.7548088888889,184.28254868900137L596.53152,189.78446931903238L597.2868622222222,195.1452099386105L598.0422044444445,198.09679561269223L598.7975466666667,186.95622815940578L599.5528888888889,180.17921046666032L601.0635733333334,176.16897830311063L601.8189155555556,183.8237726807976L602.5742577777778,177.44455847203588L603.3296,183.15647986540566L604.8402844444445,177.3616147885157L605.5956266666667,171.03777767193384L606.3509688888889,166.73474874345837L607.8616533333334,163.92956511811397L608.6169955555556,160.7497218906579L609.3723377777778,157.447075987609L610.12768,154.77356894582576L617.6811022222222,155.44444944850318L619.9471288888889,157.08440343160888L620.7024711111111,169.166298849588L621.4578133333333,176.6436696629125L622.2131555555555,175.90173808315663L623.7238400000001,180.37739049919517L624.4791822222223,179.86692882909105L625.2345244444446,180.47207132283162L626.745208888889,177.53685839086515L629.0112355555556,176.97352979645558L629.7665777777778,176.91261160692056L630.52192,173.2587357751994L631.2772622222222,170.28563101165275L632.0326044444445,168.98867928404349L632.7879466666667,175.73266552025197L633.5432888888889,181.9937386898847L634.2986311111111,178.8185559000561L635.8093155555556,181.03569015341793L637.32,182.67962866621332L638.0753422222223,181.30940670239468L639.5860266666666,182.74961089400287L641.0967111111111,181.64280530999883L642.6073955555555,178.62074678551542L643.3627377777779,176.04830643517886L644.1180800000001,175.85857167113105L644.8734222222223,179.73132384664626L645.6287644444445,179.82659859944187L646.3841066666668,179.03831760049104L649.4054755555557,177.44327815481637L653.1821866666667,177.6718010032877L653.9375288888889,178.38217219405558L655.4482133333333,180.11259241299095L656.2035555555556,180.75766010156795L656.9588977777778,179.70939644772318L659.2249244444445,182.11056292921185L659.9802666666667,183.23100011707214L660.7356088888889,182.00253861051016L661.4909511111111,181.2229765699272L662.2462933333333,181.82933131125478L663.0016355555556,182.73182044075912L663.7569777777778,178.906515800092L664.51232,176.39697169310696L666.7783466666667,182.99464016222882L667.533688888889,188.892923832206L668.2890311111112,192.49973410477477L669.7997155555556,188.2212508335642L670.5550577777778,190.69350821359373L672.0657422222223,186.57749392144447L672.8210844444445,187.94992565663813L675.0871111111111,188.27090008657768L675.8424533333333,188.8178749035527L676.5977955555555,187.67384845522506L677.3531377777778,187.37655574984694L678.10848,185.5911190807914L678.8638222222222,186.52522829435014L679.6191644444444,187.6377634003331L681.1298488888889,188.7760006217905L681.8851911111111,190.3472603731612L682.6405333333335,186.64825890261554L683.3958755555557,185.26951466421608L684.1512177777779,187.16819932723655L684.9065600000001,189.03318270435076L686.4172444444445,187.80865209871013L688.6832711111111,189.85169442552862L689.4386133333334,190.2640024496772L690.9492977777778,185.97577070341256L693.9706666666667,187.908356780709L694.7260088888889,186.34794333968821L696.2366933333334,183.4490196204231L696.9920355555555,184.48197326785862L699.2580622222222,188.18481432386122L700.7687466666666,190.52612864552694L701.5240888888889,192.06907799120415L702.2794311111112,192.29386260424405L703.7901155555556,194.4066017856537L704.5454577777779,192.3968719554479L705.3008000000001,192.89377585860242L706.0561422222223,192.2667588822982L707.5668266666668,186.53234648065202L708.3221688888889,187.52899239847895L709.0775111111111,185.878200129494L709.8328533333333,186.32874845726136L710.5881955555556,187.30302032812244L712.09888,188.0329591312937L712.8542222222222,186.51889741394706L713.6095644444445,184.99916764982515L715.1202488888889,183.67087059943412L715.8755911111111,184.39177037075603L718.1416177777778,181.09681020482216L719.6523022222221,180.17972457416508L720.4076444444444,178.68828995967647L721.9183288888889,176.58949924201752L722.6736711111112,180.6415386448606L723.4290133333334,183.01639007958897L724.1843555555556,182.6444002401694L724.9396977777778,179.95400220146675L725.6950400000001,177.33019635609162L726.4503822222223,175.8763509318065L728.716408888889,175.301495878132L729.4717511111112,178.78573498431146L730.2270933333334,181.76110545358543L730.9824355555556,186.73903797846432L731.7377777777778,190.41430981490592L732.49312,193.89978951326802L733.2484622222222,187.86662026948272L734.7591466666667,182.59059562647064L735.5144888888889,185.36201165466548L736.2698311111111,181.4595804794237L737.0251733333333,186.52141872592148L737.7805155555556,190.14355842334373L738.5358577777778,182.65258034928954L740.8018844444446,189.09091819439342L743.0679111111112,180.81156139361133L744.5785955555556,170.74181504905903L746.08928,184.52964091270832L746.8446222222223,172.3807866091455L747.5999644444445,162.84803699654947L748.3553066666667,178.7486427417288L749.1106488888889,189.9909069082058L752.1320177777778,200.30414248266194L755.1533866666666,204.72920701072175L756.6640711111111,205.15305442188563L757.4194133333333,195.02200871836882L758.1747555555555,186.45711006295338L759.68544,180.44547111953653L760.4407822222223,175.71035838708008L761.1961244444445,169.1269403068159L763.4621511111112,163.21538584473902L764.2174933333334,158.23054651350586L765.7281777777779,154.13125317495883L766.48352,151.11219786251115L767.2388622222222,151.3799682110465L768.7495466666667,163.67183220044615L769.5048888888889,159.57825421789067L770.2602311111111,170.07428681310063L771.7709155555556,178.95946607674742L772.5262577777778,185.9280295071285L774.0369422222223,175.14682818718714L774.7922844444445,167.92657307605262L775.5476266666667,178.89621081287723L776.3029688888889,186.7845955689311L777.0583111111112,176.70534580496258L777.8136533333333,185.45164787177288L779.3243377777777,176.02857853689656L780.07968,172.7134547278173L782.3457066666667,167.61482321687507L786.1224177777779,165.1093319934872L789.1437866666668,160.71943274452437L795.1865244444444,157.65260175254173L795.9418666666667,171.06759985708615L796.6972088888889,168.221801319756L797.4525511111111,177.75842407325322L798.2078933333333,183.69827807208532L800.4739200000001,179.2275908654563L801.2292622222222,175.64669603279384L802.7399466666667,172.91858648384127L803.4952888888889,170.6561965752243L805.0059733333334,171.41370766194746L805.7613155555556,170.7070619470231L806.5166577777778,171.4742621060708L807.272,175.69056676845733L808.7826844444445,175.71363680584662L809.5380266666667,179.52992563981164L810.293368888889,177.2839904841038L811.0487111111112,178.55664144454656L811.8040533333334,181.37194636891172L813.3147377777777,181.8701702218786L814.07008,184.13588750077358L814.8254222222222,184.44030355900858L816.3361066666666,185.82050403176925L817.8467911111111,180.67685648409147L818.6021333333334,183.78556005040824L822.3788444444446,187.77776599780276L823.889528888889,189.55349622876344L826.9108977777778,192.19547681847345L827.66624,194.9891659628753L828.4215822222222,185.76546556951152L831.4429511111111,176.17232275289606L832.9536355555556,185.30997056186746L835.2196622222223,191.4936498159472L835.9750044444444,179.43991568581714L838.2410311111112,167.07116253378166L838.9963733333334,159.0559309340795L841.2624000000001,174.97536644471737L842.0177422222223,164.6177571467825L844.283768888889,179.1695874530798L845.0391111111112,191.96733080885335L845.7944533333334,200.87779202852658L846.5497955555556,208.3174699311625L847.3051377777779,212.99128788814983L848.06048,217.94419989694435L848.8158222222222,219.51938601053124L850.3265066666667,222.42596695579505L851.0818488888889,204.3251992845516L851.8371911111111,191.54806400585738L852.5925333333333,183.6740057382547L853.3478755555556,176.6615365154117L854.1032177777778,187.9349602166905L854.85856,197.44850629990358L855.6139022222222,206.4851762283799L856.3692444444445,213.49590459753801L859.3906133333334,218.7827635086811L861.65664,222.7600549004402L862.4119822222223,202.7621604967319L863.1673244444445,188.68033072807668L863.9226666666667,199.35426232792767L865.4333511111112,206.39167466692072L866.1886933333334,214.98680978333914L866.9440355555556,217.61435096155006L867.6993777777778,199.12334457855505L868.4547200000001,184.3812677148373L869.2100622222223,173.29261885565222L869.9654044444445,167.48392164423984L870.7207466666666,177.9017606305359L871.4760888888889,183.5452920681893L873.7421155555555,177.97618146388768L875.2528,185.35462556444554L876.0081422222222,175.75980720535009L879.0295111111112,186.69354789490367L879.7848533333334,193.53373872191753L880.5401955555557,202.12390706095766L882.0508800000001,211.13865062488938L882.8062222222222,194.3169881609615L885.0722488888889,181.69092952091012L887.3382755555556,167.35666792979214L888.84896,155.44253322232177L891.8703288888889,178.69423989621805L892.6256711111112,192.55060729637296L893.3810133333334,179.4348959809672L894.1363555555555,192.4962328469471L896.4023822222222,178.94813410563225L897.9130666666667,189.2678122597885L898.668408888889,199.3392018818395L899.4237511111112,204.77449658345074L900.1790933333334,210.11302266522088L900.9344355555556,214.28748136559878L902.4451200000001,216.37969353763717L903.2004622222223,216.9422334631612L905.466488888889,201.89588299341088L906.2218311111111,207.31858553220894L906.9771733333333,193.13737035910927L907.7325155555556,198.5077069244381L908.4878577777778,205.40388558326117L909.2432,190.5951254013385L913.0199111111111,198.77010466929576L913.7752533333334,208.1860309565027L914.5305955555556,215.4041986012543L918.3073066666667,199.7861484615151L919.8179911111112,185.94843303000795L920.5733333333334,194.992517381807L921.3286755555556,202.6183209481652L922.0840177777778,186.94732578283396L923.5947022222223,178.88079286622275L924.3500444444445,189.27051458742164L925.1053866666667,178.52769300996755L925.860728888889,170.94677742161986L926.6160711111112,164.91771688046703L927.3714133333334,162.42768789578147L928.1267555555556,175.83141755970274L929.63744,188.1553324631533L931.1481244444444,198.24869685296974L931.9034666666666,184.3155016512532L932.6588088888889,192.71462132052605L934.1694933333333,201.80762712372635L934.9248355555555,184.94869592679058L936.4355200000001,196.88693322183778L937.9462044444446,183.4920380089994L938.7015466666668,194.81402967463322L939.456888888889,202.05271263173498L940.2122311111112,186.44863282253098L940.9675733333333,196.8138381086333L941.7229155555556,205.58536667380596L943.2336,211.91712063582267L943.9889422222222,199.124122278794L944.7442844444445,186.62988667765867L945.4996266666667,194.21775660213913L946.2549688888889,182.25715568287043L947.0103111111112,192.8516149598604L947.7656533333334,180.6170564943171L948.5209955555556,189.8684260801431L950.03168,181.0131420203834L950.7870222222223,188.15440597910256L951.5423644444445,180.299632300167L952.2977066666666,187.64644648665546" style="fill: none;" fill="none"></path></g></g></g></g><g opacity="0.2"><g><g><g><path stroke="rgb(255, 112, 67)" stroke-width="2px" d="M118.39989333333334,220.59036395698786L118.77756444444445,244.24011799693108L119.15523555555556,246.65841407328844L119.91057777777777,160.41538256406784L120.66592000000001,228.87544072419405L121.04359111111113,231.6728274822235L121.79893333333334,143.47486893832684L122.17660444444445,138.3555464744568L122.55427555555556,134.4509378001094L122.93194666666666,241.33428885787725L123.30961777777779,241.30592148005962L123.6872888888889,136.39413486421108L124.06496000000001,137.88756570965052L124.44263111111111,136.9949332550168L125.19797333333334,247.79748856276274L125.95331555555556,248.53951129317284L126.33098666666667,129.38406224548817L128.21934222222222,248.96959847956896L128.59701333333334,126.54729630053043L129.35235555555556,244.5061616152525L129.73002666666667,243.2644956484437L130.4853688888889,237.07604902982712L131.61838222222224,147.191340431571L131.99605333333335,221.82056046277285L132.75139555555555,153.16382463276386L133.12906666666666,152.38344363123178L133.50673777777777,223.14073133468628L133.88440888888888,154.56267642974854L134.63975111111114,157.93899285793304L135.39509333333334,205.60443940758705L135.77276444444445,169.57405346632004L136.90577777777779,160.04564206302166L137.2834488888889,218.01512847840786L137.66112,151.73476076871157L138.0387911111111,228.62092289328575L138.4164622222222,141.86336389929056L139.54947555555557,241.28948121517897L139.9271466666667,133.32100226730108L140.6824888888889,249.9392079859972L141.4378311111111,254.79536651819944L141.81550222222222,119.1269985884428L142.19317333333333,119.68165158480406L142.57084444444445,120.46105391532183L142.94851555555556,252.96341407299042L143.70385777777776,251.9273675903678L144.0815288888889,254.52253556996584L144.4592,255.10588686168194L144.83687111111112,257.6284571662545L145.59221333333335,121.46188936382532L146.34755555555557,124.14826384931803L146.72522666666666,254.98495410382748L147.48056888888888,120.31381673365831L148.61358222222225,251.26206140220165L148.99125333333336,123.21841373294592L149.36892444444447,122.32322546839714L149.74659555555556,256.3611134067178L150.12426666666667,120.35363245010376L150.50193777777778,253.30745565891266L152.39029333333332,125.2206549346447L154.2786488888889,244.96256026625633L155.41166222222222,241.41454692184925L156.16700444444444,242.5748494192958L156.54467555555556,129.83307509869337L156.92234666666667,246.88196647167206L159.56604444444446,252.91179797798395L160.6990577777778,109.21515937149525L161.4544,106.80467858165503L161.8320711111111,268.99122896790504L162.20974222222222,271.36670994758606L163.7204266666667,278.3976233303547L164.09809777777778,105.9996195808053L164.4757688888889,100.95766141265631L165.60878222222223,104.35730400681496L165.98645333333334,107.42345917224884L167.11946666666665,109.76056779921055L168.63015111111113,265.718553096056L169.38549333333336,103.7903366535902L170.14083555555555,100.85580217838287L170.51850666666667,276.76952312886715L170.89617777777778,95.31390506029129L171.2738488888889,280.66970314085484L171.65152,282.63481821119785L172.02919111111112,284.1351138353348L172.78453333333331,88.04613921046257L173.53987555555557,287.39080730080605L174.6728888888889,288.26983693242073L175.05056000000002,83.89641569182277L175.42823111111113,294.62504486739635L176.18357333333333,295.15785026550293L176.56124444444444,97.38315354287624L176.93891555555555,96.02478985860944L177.69425777777778,98.6958576478064L178.07192888888892,103.69814091548324L178.82727111111112,302.00685757398605L179.20494222222223,295.62766867876053L179.96028444444445,92.61790580302477L180.33795555555557,310.0370574295521L180.71562666666668,295.3593156784773L181.47096888888888,93.80981444567442L182.98165333333336,90.90073597803712L183.35932444444447,90.11232494562864L183.73699555555558,302.8773678392172L184.1146666666667,297.9060007184744L184.8700088888889,309.00728429853916L185.24768,309.1341594904661L186.00302222222223,99.2528763525188L186.75836444444445,302.23582434654236L187.13603555555557,313.1078313589096L187.51370666666665,99.01431297138333L187.8913777777778,88.30812028795481L188.64672000000002,301.5271820425987L189.02439111111113,304.9361536949873L191.6680888888889,299.28357522189617L193.17877333333334,294.6627272218466L194.6894577777778,92.99527852982283L195.0671288888889,90.35112771391869L195.44480000000001,86.37609697133303L196.95548444444444,307.1972216963768L197.33315555555555,309.53275318443775L197.7108266666667,85.48461920768023L198.0884977777778,306.7740133702755L199.2215111111111,306.059456795454L199.59918222222223,78.07291831076145L200.35452444444445,79.89854107797146L200.73219555555556,78.62758538872004L201.10986666666668,82.7811602242291L201.86520888888887,84.96457173675299L202.24288,84.58512197434902L202.62055111111113,307.12781350314617L203.37589333333335,84.54890762642026L203.75356444444446,83.282067283988L204.13123555555558,83.6877862662077L204.5089066666667,76.55524599552155L204.88657777777777,74.97382628917694L205.2642488888889,314.32991686463356L206.39726222222222,69.49487391114235L206.77493333333334,69.86736032366753L207.5302755555556,71.27115476131439L209.04096,70.05998249351978L209.41863111111113,313.9407015144825L210.17397333333335,315.0727774500847L210.92931555555555,314.15581199526787L211.30698666666666,316.5086638480425L213.19534222222225,316.656760007143L214.32835555555556,317.9397625029087L214.70602666666667,317.44378048181534L215.0836977777778,68.48443481326103L215.4613688888889,67.28763281553984L216.2167111111111,316.48337329924107L217.72739555555557,64.96562670171261L218.4827377777778,61.48637379705906L219.23808,321.25873866677284L219.6157511111111,322.2770352959633L219.99342222222222,323.3284518420696L220.37109333333333,323.2855311334133L221.50410666666667,320.567937746644L221.8817777777778,315.94375240802765L222.63712,62.11246977746487L223.39246222222224,320.89209611713886L224.14780444444446,323.9308062493801L226.03616,318.6325348466635L226.79150222222225,318.683144107461L227.16917333333336,63.73319122195244L228.30218666666667,319.823922470212L228.67985777777778,315.2923658788204L229.0575288888889,65.1558690816164L229.4352,312.67845529317856L229.81287111111112,65.84876815974712L230.19054222222223,313.25119610130787L230.56821333333335,314.24477952718735L230.94588444444443,316.10666240751743L231.32355555555554,314.04858063161373L232.83424000000002,326.3557277172804L233.21191111111114,59.606170758605L233.96725333333333,58.975498259067535L235.10026666666667,323.18298894166946L236.61095111111112,320.0869103819132L236.98862222222223,321.3807557076216L237.36629333333335,320.7894412726164L237.74396444444446,310.7543739974499L238.49930666666668,66.02808322012424L239.2546488888889,314.0210511088371L239.63232,59.514506600797176L240.0099911111111,62.97455220669508L240.38766222222222,313.01746974885464L241.52067555555558,69.15926016122103L241.8983466666667,62.27217621356249L242.6536888888889,327.3913024663925L244.16437333333334,67.70780655741692L244.91971555555557,323.19621156156063L245.67505777777777,326.7344241142273L246.05272888888888,52.20988216996193L246.43040000000002,327.8465886712074L246.80807111111113,50.846086509525776L247.18574222222225,327.60675090551376L247.94108444444447,56.679134733974934L248.31875555555555,52.63234417140484L249.4517688888889,312.6877632290125L250.20711111111112,62.030310697853565L250.58478222222223,65.2014582529664L251.34012444444446,62.90313034504652L252.09546666666668,324.30751714110374L252.4731377777778,56.153855949640274L252.8508088888889,55.99250900745392L253.60615111111113,53.000613145530224L253.98382222222222,53.213702917099L254.36149333333333,53.422061271965504L254.73916444444444,53.40559284389019L255.49450666666667,326.2184884697199L255.8721777777778,50.27578181773424L256.62752,49.68893828988075L257.0051911111111,48.6918203830719L257.76053333333334,51.3152923732996L258.51587555555557,48.010010562837124L258.8935466666667,330.46047109365463L259.2712177777778,336.41659247875214L259.6488888888889,49.11681003123522L260.02656,50.133853398263454L260.78190222222224,48.47303460538387L261.15957333333336,45.74386614561081L262.2925866666667,330.3833039402962L262.6702577777778,45.70409971475601L263.0479288888889,331.6062343418598L263.42560000000003,45.665621750056744L264.1809422222222,55.12843403220177L264.5586133333333,323.4625227302313L264.9362844444444,319.76416017115116L265.31395555555554,318.2054822444916L267.2023111111111,65.55251951515675L268.7129955555556,334.0908195376396L269.0906666666667,44.80577125400305L269.84600888888895,333.10213650763035L270.22368,43.49300026148558L270.9790222222222,46.41802965849638L273.62272,46.43069605529308L274.0003911111111,51.158282563090324L275.13340444444447,328.1954461634159L275.5110755555556,327.9203762412071L275.88874666666663,49.01829517632723L276.26641777777775,50.18407541513443L277.02176,329.3364216685295L277.77710222222225,328.8009548485279L278.5324444444445,328.78064918518066L279.2877866666667,49.49086654186249L281.17614222222227,332.39136788249016L282.68682666666666,52.420958273112774L283.0644977777778,323.60808420181274L283.4421688888889,53.55047135800123L283.81984,55.960233986377716L284.5751822222222,313.0514345616102L284.95285333333334,313.04730865359306L286.0858666666667,63.9491465985775L286.4635377777778,59.96013282984495L287.21887999999996,315.7280505001545L288.35189333333335,57.218178279697895L289.4849066666667,54.318545043468475L289.8625777777778,55.11681671440601L290.2402488888889,55.62036055326462L290.61792,323.3552209585905L290.99559111111114,322.98398780822754L291.75093333333336,321.064032420516L292.1286044444445,323.47143638134L292.5062755555556,56.94738212227821L292.8839466666667,62.71811927855015L293.26161777777776,322.71426889300346L293.63928888888887,317.6144212782383L294.01696,318.9381618350744L294.7723022222222,63.194211043417454L295.52764444444443,60.142841555178165L295.90531555555555,62.90359503775835L297.0383288888889,312.82603043317795L297.41600000000005,313.8606194704771L298.9266844444445,317.88906875252724L300.0596977777778,59.67949363589287L300.4373688888889,61.131024688482285L301.1927111111111,61.7415886670351L301.57038222222224,59.13085348159075L302.32572444444446,320.47942082583904L303.0810666666667,318.76086044311523L304.21408,57.790799394249916L304.59175111111114,57.24844667315483L306.85777777777776,70.51466318964958L307.99079111111115,69.59051612019539L308.36846222222226,73.02527117729187L308.7461333333334,301.4617730230093L309.5014755555556,297.90987315773964L309.8791466666667,296.4639184176922L310.2568177777778,298.7513612508774L311.01216,72.03612345457077L311.3898311111111,69.44515179097652L311.7675022222222,312.8837086558342L312.14517333333333,69.13549746572971L312.90051555555556,319.4111204445362L313.27818666666667,66.14715720713139L314.7888711111111,65.9584638029337L315.16654222222223,309.2732997536659L317.4325688888889,303.92054665088654L318.18791111111113,306.85067358613014L318.56558222222225,303.5567204207182L318.94325333333336,78.55622689425945L319.3209244444445,80.24783509969711L319.6985955555556,300.7113928645849L320.0762666666667,73.46715170145035L320.4539377777778,72.10275757312775L320.8316088888889,303.15428245067596L321.20928000000004,75.53707610070705L321.58695111111115,77.03533693403006L321.96462222222226,300.5991343706846L322.3422933333333,304.57991744577885L323.09763555555554,305.3978329449892L323.47530666666665,305.7293982356787L323.85297777777777,303.83093136548996L324.2306488888889,77.69739027321339L324.9859911111111,304.4854158461094L325.3636622222222,69.69359341263771L325.74133333333333,72.54620819538832L326.4966755555556,300.2401522099972L327.25201777777784,302.25086349248886L328.00736000000006,307.51259315013885L328.3850311111111,309.95696130394936L329.51804444444446,316.0264677107334L329.89571555555557,62.731285572052L330.2733866666667,316.82593631744385L331.0287288888889,62.26404409110546L331.4064,64.52740739285946L331.78407111111113,312.1892606019974L332.53941333333336,67.47494622319937L333.2947555555556,65.97972701489925L333.6724266666667,65.73398905992508L334.42776888888886,68.48260420560837L334.80544,63.13262517750263L335.1831111111111,63.42900759726763L335.5607822222222,59.76182169467211L335.9384533333333,64.8704491853714L336.3161244444445,313.44398725032806L336.6937955555556,317.34951826930046L337.0714666666667,315.305349111557L337.4491377777778,69.21286880224943L338.20448000000005,71.57402175664902L338.58215111111116,68.59498943388462L338.9598222222223,310.4555906653404L340.09283555555555,311.2740553468466L340.47050666666667,310.9203115403652L340.8481777777778,65.68195051699877L341.60352,64.67423620820045L341.9811911111111,314.49906501173973L342.3588622222222,64.65915481746197L342.73653333333334,317.76163029670715L343.49187555555557,56.286159597337246L344.2472177777778,318.0844509154558L344.6248888888889,59.080927178263664L345.00256,317.7193855047226L345.7579022222222,321.08643624186516L346.51324444444447,315.6478276401758L347.2685866666667,316.30845169723034L347.6462577777778,60.09675248712301L348.0239288888889,315.1820365637541L349.15694222222226,313.9088207781315L350.6676266666667,66.37709560990334L351.0452977777778,307.98311564326286L351.80064,72.07069377601147L352.1783111111111,307.31015610694885L352.9336533333333,311.40592950582504L354.4443377777778,65.52260316163301L354.8220088888889,318.15556298196316L355.5773511111111,62.92217570543289L356.3326933333334,306.88835594058037L357.8433777777778,63.271878093481064L358.9763911111111,57.81216821819544L359.35406222222224,56.52035768330097L360.10940444444446,321.526401668787L360.4870755555556,53.16369916498661L360.8647466666667,53.34599952399731L361.2424177777778,325.70998790860176L361.6200888888889,325.7204927802086L361.99776,325.2972562909126L362.37543111111114,323.75301200151443L362.7531022222222,323.31168065965176L363.1307733333333,54.698551028966904L364.64145777777776,319.7339129000902L365.0191288888889,58.69589406251907L365.77447111111115,320.77923211455345L366.5298133333334,57.89687606692314L366.9074844444445,322.1356138139963L367.2851555555556,323.7237222790718L367.6628266666667,320.3933681845665L368.04049777777783,319.93832136690617L368.41816888888894,55.018301859498024L368.79584,53.92685133218765L369.1735111111111,321.9565522223711L369.5511822222222,322.77591812610626L370.30652444444445,52.49817471206188L370.68419555555556,322.98269230127335L371.0618666666667,55.32728026807308L371.4395377777778,317.7735010832548L371.8172088888889,58.24852875620127L372.5725511111111,60.888821214437485L372.95022222222224,316.0173146724701L373.32789333333335,62.24056302756071L374.0832355555556,312.01124104857445L374.46090666666663,63.295225381851196L374.83857777777774,65.16731742024422L375.2162488888889,71.24146371334791L375.59392,313.32063245773315L375.97159111111114,71.02236109972L376.34926222222225,311.6989675462246L376.72693333333336,70.72846408188343L377.1046044444445,307.2324538528919L378.2376177777778,79.26488327980042L378.99296000000004,299.72335758805275L379.74830222222226,85.43872728198767L380.88131555555555,299.11355401575565L381.25898666666666,300.93637454509735L381.63665777777777,75.20747519284487L382.0143288888889,301.56951132416725L382.392,302.65697675943375L382.7696711111111,71.80042567849159L383.1473422222222,304.9459967315197L383.52501333333333,305.19357937574387L383.90268444444445,302.09662775695324L384.28035555555556,301.62327486276627L384.6580266666667,301.06212320923805L385.03569777777784,297.8868638277054L386.54638222222223,94.00917465984821L388.0570666666667,276.39543141424656L388.4347377777778,274.6772934794426L389.19008,280.3870714008808L389.56775111111114,285.2286906838417L389.94542222222225,94.86163935810328L390.32309333333336,291.7548914551735L390.7007644444445,291.6991987377405L391.0784355555556,94.77532620728016L392.21144888888887,98.09112697094679L392.58912,99.969062872231L392.9667911111111,278.98348818719387L394.47747555555554,99.26523647457361L394.8551466666667,280.87554793059826L395.61048888888894,87.56590745598078L395.98816000000005,84.69030446559191L396.36583111111116,85.91982153430581L396.7435022222223,285.5724224746227L397.4988444444445,278.5769947171211L398.6318577777778,100.38510366529226L399.0095288888889,100.61264115571976L399.7648711111111,273.8913713693619L400.14254222222223,270.0367030799389L400.52021333333334,263.4830713570118L400.89788444444446,117.9385117739439L401.27555555555557,127.20364659279585L401.6532266666667,244.33311990648508L402.4085688888889,244.06865342706442L403.5415822222222,251.5457070171833L403.9192533333333,258.23431085050106L404.6745955555556,105.52618923783302L405.4299377777778,274.08175456523895L405.8076088888889,275.7574787288904L406.18528000000003,99.00581120699644L406.56295111111115,97.39190525561571L407.3182933333334,278.25042839348316L407.6959644444445,100.55565293133259L408.0736355555556,99.88956521451473L408.4513066666667,281.59310388565063L408.8289777777778,281.9383142441511L409.20664888888894,286.2753476500511L409.58432,288.59478387236595L409.9619911111111,292.3691025674343L411.09500444444444,296.7337499856949L411.47267555555555,298.940223634243L412.98336,80.81743571162224L413.3610311111111,83.00443451106548L414.11637333333334,86.38188802823424L414.8717155555556,290.8926330059767L415.2493866666667,98.61028730124235L415.6270577777778,96.27405173331499L416.0047288888889,92.94194447994232L416.3824,285.9098457098007L416.76007111111113,97.51588667929173L417.13774222222224,103.70015106350183L417.51541333333336,279.7336571216583L418.2707555555556,92.96422860771418L418.6484266666667,288.6813856959343L419.0260977777778,94.47773277014494L419.78144000000003,290.85026147961617L420.9144533333333,290.68480271101L421.2921244444444,287.4436977803707L421.66979555555554,95.00301859527826L422.04746666666665,96.58046729117632L422.42513777777776,100.21170991659164L423.18048,267.8280467838049L423.5581511111111,264.8812894821167L423.93582222222227,265.04177744686604L424.6911644444445,108.29724340885878L425.0688355555556,272.04259845614433L425.82417777777783,278.32231494784355L426.9571911111111,111.19272961467505L427.71253333333334,112.84826076775789L428.09020444444445,114.93884287029505L428.46787555555557,117.65000800788403L429.6008888888889,252.20804902911186L430.73390222222224,126.91769863665104L431.11157333333335,251.1690876558423L431.8669155555556,121.6548213288188L432.2445866666667,123.88483236730099L432.62225777777775,264.3042115420103L433.3776,259.349791623652L433.75527111111114,254.0191747918725L435.2659555555556,245.90964625775814L436.0212977777778,128.9913757815957L436.39896888888893,247.04612973332405L436.77664000000004,243.6122336536646L437.15431111111116,133.93710735440254L437.9096533333334,139.1285064741969L438.28732444444444,239.96818381547928L438.66499555555555,245.79065676033497L439.04266666666666,129.9977030530572L439.7980088888889,137.6123268082738L440.5533511111111,121.99997536092997L441.30869333333334,235.8176611661911L441.68636444444445,125.6175870001316L442.06403555555556,119.95811558514833L442.4417066666667,248.8075263351202L442.8193777777778,117.2669040709734L444.33006222222224,248.42012751102448L444.70773333333335,257.78026382625103L445.08540444444446,98.16323883086443L445.4630755555556,97.78628151118755L446.5960888888889,267.73105274140835L446.97376,256.5956635326147L447.35143111111114,96.65295935422182L447.72910222222225,261.7347847223282L448.10677333333336,264.8294832855463L448.8621155555556,263.41759192943573L449.2397866666667,110.9231233522296L449.6174577777778,267.6324533969164L449.99512888888887,268.5920297652483L450.7504711111111,108.68419866263866L451.5058133333333,100.09286827594042L451.88348444444443,98.8302066475153L452.26115555555555,98.30466735363007L452.63882666666666,104.15890134125948L453.0164977777778,105.32760351151228L453.77184000000005,104.85943264514208L454.14951111111117,96.47115889191628L454.5271822222223,255.87323534488678L455.2825244444445,94.43410094082355L455.6601955555556,106.20292968302965L456.4155377777778,263.61524122953415L456.7932088888889,108.5120300129056L458.30389333333335,111.90071712434292L458.68156444444446,266.2019180059433L459.4369066666667,105.11601343005896L459.8145777777778,98.0623582676053L460.1922488888889,93.71533396840096L460.56992,98.29357105493546L460.94759111111114,106.83032821118832L461.32526222222225,101.74895565211773L461.7029333333333,258.1036125048995L462.45827555555553,270.25226417183876L462.83594666666664,94.04760333895683L463.2136177777778,254.71359468251467L464.34663111111115,118.94421945512295L464.72430222222226,243.67305207252502L465.1019733333334,250.4397313222289L465.4796444444445,250.76779733598232L466.2349866666667,105.2286943718791L468.50101333333333,137.88020103424788L468.87868444444445,144.8863519281149L469.25635555555556,221.99417247623205L470.0116977777778,209.8488933518529L471.52238222222223,153.53481839597225L472.65539555555563,184.10049549490213L473.7884088888889,189.44461657851934L474.92142222222225,190.8169245645404L475.29909333333336,188.895666629076L476.0544355555556,183.82474261522293L476.4321066666667,187.54262226819992L476.8097777777778,189.2090314552188L477.1874488888889,174.29535254091024L477.94279111111115,191.5001988708973L478.32046222222226,190.54743799567223L478.6981333333334,183.36097928881645L479.07580444444443,186.28069288283587L479.45347555555554,186.64610329270363L479.83114666666665,190.82971769571304L480.20881777777777,178.28849221765995L480.5864888888889,175.59471785277128L480.96416,182.25387002527714L481.7195022222222,185.48571630567312L482.09717333333333,186.47891248762608L482.8525155555556,177.90612756460905L483.60785777777784,164.05042722076178L483.98552888888895,159.5927004441619L484.7408711111111,201.46907559782267L485.49621333333334,187.6652166545391L485.87388444444446,207.75514993071556L486.25155555555557,198.78670732676983L486.6292266666667,178.2477752789855L487.76224,186.1264853104949L488.13991111111113,189.0009265691042L488.51758222222225,180.46621828526258L488.89525333333336,176.97812213748693L489.6505955555556,178.3534435853362L490.0282666666667,176.575803861022L490.78360888888886,160.76968963444233L493.0496355555556,204.49891432374716L493.4273066666667,160.45224114507437L494.18264888888893,200.1428496390581L494.56032000000005,193.7571480050683L495.3156622222223,151.9170752093196L495.6933333333334,203.10946199297905L496.0710044444445,197.9100222811103L496.44867555555555,158.0706135481596L497.2040177777778,156.03093641996384L497.5816888888889,198.16932785511017L497.95936,207.84610296785831L498.71470222222223,176.4582718089223L499.09237333333334,199.82567574083805L499.47004444444445,176.30509923398495L499.84771555555557,173.582028105855L500.9807288888889,178.11796407401562L501.73607111111113,176.29058814793825L503.6244266666667,186.15285310149193L504.0020977777778,180.13143534958363L504.3797688888889,172.66904070228338L504.75744000000003,182.59909446537495L505.89045333333337,198.11142432689667L507.4011377777778,199.27102978527546L508.15648,170.3096127435565L508.9118222222222,175.24774729460478L510.42250666666666,204.70283697545528L511.1778488888889,204.94002036005259L511.93319111111117,173.7410867884755L512.6885333333333,173.40683895349503L513.4438755555556,170.35930670052767L515.7099022222222,173.4328828677535L516.4652444444445,171.22330422699451L517.2205866666667,182.22834008932114L520.9972977777778,204.4933591336012L521.75264,205.45451968163252L522.5079822222223,199.42554715275764L523.2633244444445,178.8300845324993L524.7740088888889,198.07410809397697L525.5293511111112,196.57010900974274L526.2846933333334,176.264854028821L527.0400355555556,200.42497444152832L527.7953777777778,200.4327052384615L531.572088888889,177.18810691684484L532.3274311111112,181.23293309658766L533.0827733333334,172.91194121539593L533.8381155555556,170.1297837048769L534.5934577777778,173.8443260192871L535.3488,186.21945201605558L538.3701688888889,173.31301327049732L539.1255111111111,164.91226322203875L539.8808533333333,189.4733712002635L540.6361955555556,192.35032602399588L541.3915377777778,189.30894742906094L542.14688,179.72136515378952L542.9022222222222,197.4882221147418L544.4129066666667,203.849140137434L545.1682488888889,198.52456431090832L545.9235911111111,168.98132383078337L546.6789333333334,182.6282011270523L547.4342755555556,180.3534669354558L548.1896177777778,180.76134744286537L548.94496,193.48197247087955L551.9663288888889,196.8580072671175L553.4770133333334,191.6738108843565L554.2323555555556,160.03011710196733L556.4983822222223,176.74686006456614L558.0090666666666,193.3098390251398L558.7644088888889,195.72500194609165L560.2750933333333,194.07852526009083L561.7857777777778,185.67936643213034L562.54112,184.03329107165337L563.2964622222222,167.75077528506517L564.8071466666667,197.70382545143366L567.0731733333334,170.91061531752348L567.8285155555557,196.34965456277132L570.0945422222222,180.7735561877489L571.6052266666667,183.0182332098484L573.8712533333334,176.32045521587133L576.13728,167.0986353904009L576.8926222222223,192.24283415079117L577.6479644444445,170.25762348622084L578.4033066666667,192.21179831027985L579.1586488888889,156.48561711609364L579.9139911111112,154.55420634895563L580.6693333333333,144.60560712218285L581.4246755555555,146.27761374413967L582.1800177777777,155.7834241837263L582.93536,198.7719075679779L584.4460444444444,182.41285829991102L585.2013866666667,185.65023160725832L585.956728888889,185.75058411061764L588.2227555555556,176.04770171642303L588.9780977777779,193.40534745901823L590.4887822222223,172.62574683129787L591.2441244444445,188.30960462987423L592.7548088888889,196.71288232505322L596.53152,209.637021638453L597.2868622222222,214.48834314197302L598.0422044444445,208.74698723852634L598.7975466666667,146.75777509063482L599.5528888888889,155.72573187947273L601.0635733333334,161.69887791574L601.8189155555556,211.4445284307003L602.5742577777778,154.42647217959166L603.3296,203.76677687466145L604.8402844444445,156.4520325064659L605.5956266666667,148.2195082604885L606.3509688888889,151.2081512734294L607.8616533333334,153.80763526260853L608.6169955555556,149.27590969204903L609.3723377777778,145.5301555171609L610.12768,145.126767039299L617.6811022222222,157.86518416553736L619.9471288888889,163.0018410757184L620.7024711111111,212.76134084165096L621.4578133333333,203.62422886490822L622.2131555555555,173.22463012486696L623.7238400000001,196.52686442434788L624.4791822222223,178.02503257244825L625.2345244444446,182.65560391545296L626.745208888889,166.9457444474101L629.0112355555556,174.94087408483028L629.7665777777778,176.69280081242323L630.52192,160.07447413355112L631.2772622222222,159.55779216438532L632.0326044444445,164.30889493972063L632.7879466666667,200.06695687025785L633.5432888888889,204.5855372697115L634.2986311111111,167.3615599349141L635.8093155555556,189.03576444089413L637.32,188.6114436686039L638.0753422222223,176.36524173617363L639.5860266666666,187.94629237800837L641.0967111111111,177.64912433177233L642.6073955555555,167.71626833081245L643.3627377777779,166.76618295907974L644.1180800000001,175.17395268380642L644.8734222222223,193.70535589009523L645.6287644444445,180.17037800699472L646.3841066666668,176.1939672678709L649.4054755555557,171.68790540844202L653.1821866666667,178.49637883901596L653.9375288888889,180.94540096074343L655.4482133333333,186.35645891726017L656.2035555555556,183.0852545723319L656.9588977777778,175.92695201933384L659.2249244444445,190.77467977255583L659.9802666666667,187.27386794239283L660.7356088888889,177.56988718360662L661.4909511111111,178.41008681058884L662.2462933333333,184.01723805069923L663.0016355555556,185.9882673919201L663.7569777777778,165.1036884561181L664.51232,167.341796413064L666.7783466666667,206.800973854959L667.533688888889,210.17567089945078L668.2890311111112,205.51416932791471L669.7997155555556,172.78322133421898L670.5550577777778,199.61414198577404L672.0657422222223,171.72570041567087L672.8210844444445,192.9020641297102L675.0871111111111,189.42907049506903L675.8424533333333,190.79152136296034L676.5977955555555,183.54586362093687L677.3531377777778,186.30383598804474L678.10848,179.14873699843884L678.8638222222222,189.89576983451843L679.6191644444444,191.65211818367243L681.1298488888889,192.88309621810913L681.8851911111111,196.01682896912098L682.6405333333335,173.30117064714432L683.3958755555557,180.29459881782532L684.1512177777779,194.0192135721445L684.9065600000001,195.76259277015924L686.4172444444445,183.3901845216751L688.6832711111111,197.22359369695187L689.4386133333334,191.75173140317202L690.9492977777778,170.50256583094597L693.9706666666667,194.88169732689857L694.7260088888889,180.71751143038273L696.2366933333334,172.98884785920382L696.9920355555555,188.2091746777296L699.2580622222222,201.5457569360733L700.7687466666666,198.97428124397993L701.5240888888889,197.63649429380894L702.2794311111112,193.1049517840147L703.7901155555556,202.0299878641963L704.5454577777779,185.14517399668694L705.3008000000001,194.68675169348717L706.0561422222223,190.00429670512676L707.5668266666668,165.84089528024197L708.3221688888889,191.1251848116517L709.0775111111111,179.92165475338697L709.8328533333333,187.9544597044587L710.5881955555556,190.81848058104515L712.09888,190.66679361462593L712.8542222222222,181.05571619421244L713.6095644444445,179.51553444564342L715.1202488888889,178.87798308581114L715.8755911111111,186.99298936128616L718.1416177777778,169.20762214064598L719.6523022222221,176.87060914188623L720.4076444444444,173.30675400048494L721.9183288888889,169.01644333451986L722.6736711111112,195.26249188184738L723.4290133333334,191.5855544731021L724.1843555555556,181.30215118825436L724.9396977777778,170.24625259637833L725.6950400000001,167.86273102462292L726.4503822222223,170.6304478570819L728.716408888889,173.22724930197L729.4717511111112,191.3578972890973L730.2270933333334,192.49711963534355L730.9824355555556,204.70088667422533L731.7377777777778,203.67577455192804L732.49312,206.47642824053764L733.2484622222222,166.09716627001762L734.7591466666667,163.55314265191555L735.5144888888889,195.3620980605483L736.2698311111111,167.37845785170794L737.0251733333333,204.78602401167154L737.7805155555556,203.21330673247576L738.5358577777778,155.62292213737965L740.8018844444446,212.3223400041461L743.0679111111112,150.9372002184391L744.5785955555556,134.40720035880804L746.08928,234.2801830843091L746.8446222222223,128.54413720965385L747.5999644444445,128.4510648921132L748.3553066666667,236.12271784991026L749.1106488888889,230.55631171166897L752.1320177777778,237.5173381268978L755.1533866666666,220.6961449161172L756.6640711111111,206.682420887053L757.4194133333333,158.46620786190033L758.1747555555555,155.55242966115475L759.68544,158.75370479375124L760.4407822222223,158.62467511743307L761.1961244444445,145.37202621996403L763.4621511111112,141.88475384563208L764.2174933333334,140.2437760233879L765.7281777777779,139.33979380130768L766.48352,140.21855588257313L767.2388622222222,152.3461626023054L768.7495466666667,208.0245027244091L769.5048888888889,144.80741753429174L770.2602311111111,207.9470680207014L771.7709155555556,211.01981337368488L772.5262577777778,211.07266160845757L774.0369422222223,136.24507411569357L774.7922844444445,141.87376315891743L775.5476266666667,218.4778990522027L776.3029688888889,215.2482142969966L777.0583111111112,140.33643997460604L777.8136533333333,217.01088528335094L779.3243377777777,142.02736522257328L780.07968,160.75151029229164L782.3457066666667,149.21745698153973L786.1224177777779,156.06878071278334L789.1437866666668,144.87938153743744L795.1865244444444,146.58657103031874L795.9418666666667,219.472869515419L796.6972088888889,157.95332088321447L797.4525511111111,212.16937161237L798.2078933333333,205.1310231462121L800.4739200000001,163.09603288024664L801.2292622222222,162.72577136009932L802.7399466666667,163.07476262748241L803.4952888888889,162.4928265362978L805.0059733333334,174.14703107625246L805.7613155555556,168.15727579593658L806.5166577777778,174.24254655092955L807.272,190.9042375087738L808.7826844444445,175.79688030481339L809.5380266666667,193.30022129416466L810.293368888889,169.17999404668808L811.0487111111112,183.14874145388603L811.8040533333334,191.5303968563676L813.3147377777777,183.66790882498026L814.07008,192.3112636730075L814.8254222222222,185.53872647881508L816.3361066666666,190.80067440122366L817.8467911111111,162.11705911159515L818.6021333333334,195.00267937034369L822.3788444444446,202.18282248079777L823.889528888889,195.96085461974144L826.9108977777778,201.72852198779583L827.66624,205.06962034106255L828.4215822222222,152.48363419622183L831.4429511111111,141.55743415653706L832.9536355555556,218.28129883110523L835.2196622222223,213.8061883226037L835.9750044444444,135.9464879259467L838.2410311111112,122.44105323404074L838.9963733333334,130.13461138308048L841.2624000000001,232.41738490015268L842.0177422222223,127.24444802105427L844.283768888889,231.67688298225403L845.0391111111112,238.14536328613758L845.7944533333334,233.02936407923698L846.5497955555556,235.16202199459076L847.3051377777779,229.85580153018236L848.06048,235.81576719135046L848.8158222222222,225.2031220793724L850.3265066666667,232.9137682467699L851.0818488888889,139.0122910514474L851.8371911111111,145.44439154863358L852.5925333333333,155.26208120584488L853.3478755555556,151.35847936570644L854.1032177777778,228.6127978116274L854.85856,231.7761864066124L855.6139022222222,239.09214652329683L856.3692444444445,238.79268023371696L859.3906133333334,237.8593097180128L861.65664,237.11129526793957L862.4119822222223,130.6038594916463L863.1673244444445,137.86893575638533L863.9226666666667,237.86895561218262L865.4333511111112,231.7847339361906L866.1886933333334,246.00059225410223L866.9440355555556,227.09529447555542L867.6993777777778,132.40233998000622L868.4547200000001,131.18750649690628L869.2100622222223,133.28150338679552L869.9654044444445,146.52442894130945L870.7207466666666,215.492396235466L871.4760888888889,203.90881794691086L873.7421155555555,157.88118790090084L875.2528,211.97822801023722L876.0081422222222,141.13887275755405L879.0295111111112,226.14570900052786L879.7848533333334,218.2151646092534L880.5401955555557,233.11976793408394L882.0508800000001,243.66650412976742L882.8062222222222,133.61946876347065L885.0722488888889,136.13238613307476L887.3382755555556,115.63442449271679L888.84896,112.45282135158777L891.8703288888889,262.5932552218437L892.6256711111112,242.54846754670143L893.3810133333334,132.10954132676125L894.1363555555555,239.62538845092058L896.4023822222222,130.06259809434414L897.9130666666667,226.50425463169813L898.668408888889,235.67974600195885L899.4237511111112,224.38664290308952L900.1790933333334,229.37599926441908L900.9344355555556,229.35015953332186L902.4451200000001,223.92901211231947L903.2004622222223,218.97204342484474L905.466488888889,147.60421286523342L906.2218311111111,226.88529561460018L906.9771733333333,141.96736353635788L907.7325155555556,217.88546513020992L908.4878577777778,230.28733208030462L909.2432,137.16075110435486L913.0199111111111,228.26784092187881L913.7752533333334,242.16147004812956L914.5305955555556,241.44947632402182L918.3073066666667,143.4316173121333L919.8179911111112,136.01787458360195L920.5733333333334,227.62624110281467L921.3286755555556,230.1344693005085L922.0840177777778,130.4017533659935L923.5947022222223,149.7743630334735L924.3500444444445,226.75969480723143L925.1053866666667,139.76442436873913L925.860728888889,143.59259813278913L926.6160711111112,143.16308829188347L927.3714133333334,153.44292893260717L928.1267555555556,224.19602736085653L929.63744,232.62365213781595L931.1481244444444,234.66853241622448L931.9034666666666,134.04042403399944L932.6588088888889,223.02112224698067L934.1694933333333,234.61787386983633L934.9248355555555,124.1166999489069L936.4355200000001,239.96361433714628L937.9462044444446,135.15930551290512L938.7015466666668,235.66711480915546L939.456888888889,228.1720156520605L940.2122311111112,130.1445107460022L940.9675733333333,234.2145557999611L941.7229155555556,237.2356287315488L943.2336,234.76395636051893L943.9889422222222,152.96321115642786L944.7442844444445,141.54699969291687L945.4996266666667,221.59702918678522L946.2549688888889,139.0997800156474L947.0103111111112,231.07954866439104L947.7656533333334,136.47116120159626L948.5209955555556,223.25009606033564L950.03168,149.06066543608904L950.7870222222223,213.9221925213933L951.5423644444445,151.9572922512889L952.2977066666666,214.15591887384653" style="fill: none;" fill="none"></path></g></g></g></g></g></g><g transform="translate(50, 378)" clip-path="url(#clip_1)"><clipPath id="clip_1"><rect width="1062" height="22"></rect></clipPath><g><g><line x1="0" y1="0" x2="0" y2="5" style="visibility: inherit;" fill="rgb(0, 0, 0)" stroke="rgb(204, 204, 204)" stroke-width="1px"></line><line x1="118.02222222222223" y1="0" x2="118.02222222222223" y2="5" style="visibility: inherit;" fill="rgb(0, 0, 0)" stroke="rgb(204, 204, 204)" stroke-width="1px"></line><line x1="236.04444444444445" y1="0" x2="236.04444444444445" y2="5" style="visibility: inherit;" fill="rgb(0, 0, 0)" stroke="rgb(204, 204, 204)" stroke-width="1px"></line><line x1="354.06666666666666" y1="0" x2="354.06666666666666" y2="5" style="visibility: inherit;" fill="rgb(0, 0, 0)" stroke="rgb(204, 204, 204)" stroke-width="1px"></line><line x1="472.0888888888889" y1="0" x2="472.0888888888889" y2="5" style="visibility: inherit;" fill="rgb(0, 0, 0)" stroke="rgb(204, 204, 204)" stroke-width="1px"></line><line x1="590.1111111111112" y1="0" x2="590.1111111111112" y2="5" style="visibility: inherit;" fill="rgb(0, 0, 0)" stroke="rgb(204, 204, 204)" stroke-width="1px"></line><line x1="708.1333333333333" y1="0" x2="708.1333333333333" y2="5" style="visibility: inherit;" fill="rgb(0, 0, 0)" stroke="rgb(204, 204, 204)" stroke-width="1px"></line><line x1="826.1555555555556" y1="0" x2="826.1555555555556" y2="5" style="visibility: inherit;" fill="rgb(0, 0, 0)" stroke="rgb(204, 204, 204)" stroke-width="1px"></line><line x1="944.1777777777778" y1="0" x2="944.1777777777778" y2="5" style="visibility: inherit;" fill="rgb(0, 0, 0)" stroke="rgb(204, 204, 204)" stroke-width="1px"></line><line x1="1062.2" y1="0" x2="1062.2" y2="5" style="visibility: inherit;" fill="rgb(0, 0, 0)" stroke="rgb(204, 204, 204)" stroke-width="1px"></line></g><g transform="translate(0, 8)"><text x="0" y="0" dx="0em" dy="0.95em" style="text-anchor: middle; visibility: hidden; font-family: &quot;Helvetica Neue&quot;, sans-serif; font-size: 12px; font-weight: 200;" fill="rgb(50, 49, 63)" stroke="none" stroke-width="1px">-5k</text><text x="118.02222222222223" y="0" dx="0em" dy="0.95em" style="text-anchor: middle; visibility: inherit; font-family: &quot;Helvetica Neue&quot;, sans-serif; font-size: 12px; font-weight: 200;" fill="rgb(50, 49, 63)" stroke="none" stroke-width="1px">0</text><text x="236.04444444444445" y="0" dx="0em" dy="0.95em" style="text-anchor: middle; visibility: inherit; font-family: &quot;Helvetica Neue&quot;, sans-serif; font-size: 12px; font-weight: 200;" fill="rgb(50, 49, 63)" stroke="none" stroke-width="1px">5k</text><text x="354.06666666666666" y="0" dx="0em" dy="0.95em" style="text-anchor: middle; visibility: inherit; font-family: &quot;Helvetica Neue&quot;, sans-serif; font-size: 12px; font-weight: 200;" fill="rgb(50, 49, 63)" stroke="none" stroke-width="1px">10k</text><text x="472.0888888888889" y="0" dx="0em" dy="0.95em" style="text-anchor: middle; visibility: inherit; font-family: &quot;Helvetica Neue&quot;, sans-serif; font-size: 12px; font-weight: 200;" fill="rgb(50, 49, 63)" stroke="none" stroke-width="1px">15k</text><text x="590.1111111111112" y="0" dx="0em" dy="0.95em" style="text-anchor: middle; visibility: inherit; font-family: &quot;Helvetica Neue&quot;, sans-serif; font-size: 12px; font-weight: 200;" fill="rgb(50, 49, 63)" stroke="none" stroke-width="1px">20k</text><text x="708.1333333333333" y="0" dx="0em" dy="0.95em" style="text-anchor: middle; visibility: inherit; font-family: &quot;Helvetica Neue&quot;, sans-serif; font-size: 12px; font-weight: 200;" fill="rgb(50, 49, 63)" stroke="none" stroke-width="1px">25k</text><text x="826.1555555555556" y="0" dx="0em" dy="0.95em" style="text-anchor: middle; visibility: inherit; font-family: &quot;Helvetica Neue&quot;, sans-serif; font-size: 12px; font-weight: 200;" fill="rgb(50, 49, 63)" stroke="none" stroke-width="1px">30k</text><text x="944.1777777777778" y="0" dx="0em" dy="0.95em" style="text-anchor: middle; visibility: inherit; font-family: &quot;Helvetica Neue&quot;, sans-serif; font-size: 12px; font-weight: 200;" fill="rgb(50, 49, 63)" stroke="none" stroke-width="1px">35k</text><text x="1062.2" y="0" dx="0em" dy="0.95em" style="text-anchor: middle; visibility: hidden; font-family: &quot;Helvetica Neue&quot;, sans-serif; font-size: 12px; font-weight: 200;" fill="rgb(50, 49, 63)" stroke="none" stroke-width="1px">40k</text></g><line x1="0" y1="0" x2="1062.2" y2="0" fill="rgb(0, 0, 0)" stroke="rgb(204, 204, 204)" stroke-width="1px"></line></g></g></g></g></svg>