<svg viewBox="0 0 1129 400" xmlns="http://www.w3.org/2000/svg"><g><g><g><g><g><line x1="50" y1="367.61853758178074" x2="45" y2="367.61853758178074" style="visibility: inherit;" fill="rgb(0, 0, 0)" stroke="rgb(204, 204, 204)" stroke-width="1px"></line><line x1="50" y1="327.8502223961413" x2="45" y2="327.8502223961413" style="visibility: inherit;" fill="rgb(0, 0, 0)" stroke="rgb(204, 204, 204)" stroke-width="1px"></line><line x1="50" y1="288.08190721050187" x2="45" y2="288.08190721050187" style="visibility: inherit;" fill="rgb(0, 0, 0)" stroke="rgb(204, 204, 204)" stroke-width="1px"></line><line x1="50" y1="248.31359202486246" x2="45" y2="248.31359202486246" style="visibility: inherit;" fill="rgb(0, 0, 0)" stroke="rgb(204, 204, 204)" stroke-width="1px"></line><line x1="50" y1="208.54527683922302" x2="45" y2="208.54527683922302" style="visibility: inherit;" fill="rgb(0, 0, 0)" stroke="rgb(204, 204, 204)" stroke-width="1px"></line><line x1="50" y1="168.77696165358358" x2="45" y2="168.77696165358358" style="visibility: inherit;" fill="rgb(0, 0, 0)" stroke="rgb(204, 204, 204)" stroke-width="1px"></line><line x1="50" y1="129.00864646794417" x2="45" y2="129.00864646794417" style="visibility: inherit;" fill="rgb(0, 0, 0)" stroke="rgb(204, 204, 204)" stroke-width="1px"></line><line x1="50" y1="89.24033128230474" x2="45" y2="89.24033128230474" style="visibility: inherit;" fill="rgb(0, 0, 0)" stroke="rgb(204, 204, 204)" stroke-width="1px"></line><line x1="50" y1="49.4720160966653" x2="45" y2="49.4720160966653" style="visibility: inherit;" fill="rgb(0, 0, 0)" stroke="rgb(204, 204, 204)" stroke-width="1px"></line><line x1="50" y1="9.703700911025862" x2="45" y2="9.703700911025862" style="visibility: inherit;" fill="rgb(0, 0, 0)" stroke="rgb(204, 204, 204)" stroke-width="1px"></line></g><g transform="translate(40, 0)"><text x="0" y="367.61853758178074" dx="0em" dy="0.3em" style="text-anchor: end; visibility: inherit; font-family: &quot;Helvetica Neue&quot;, sans-serif; font-size: 12px; font-weight: 200;" fill="rgb(50, 49, 63)" stroke="none" stroke-width="1px">-0.1</text><text x="0" y="327.8502223961413" dx="0em" dy="0.3em" style="text-anchor: end; visibility: inherit; font-family: &quot;Helvetica Neue&quot;, sans-serif; font-size: 12px; font-weight: 200;" fill="rgb(50, 49, 63)" stroke="none" stroke-width="1px">0</text><text x="0" y="288.08190721050187" dx="0em" dy="0.3em" style="text-anchor: end; visibility: inherit; font-family: &quot;Helvetica Neue&quot;, sans-serif; font-size: 12px; font-weight: 200;" fill="rgb(50, 49, 63)" stroke="none" stroke-width="1px">0.1</text><text x="0" y="248.31359202486246" dx="0em" dy="0.3em" style="text-anchor: end; visibility: inherit; font-family: &quot;Helvetica Neue&quot;, sans-serif; font-size: 12px; font-weight: 200;" fill="rgb(50, 49, 63)" stroke="none" stroke-width="1px">0.2</text><text x="0" y="208.54527683922302" dx="0em" dy="0.3em" style="text-anchor: end; visibility: inherit; font-family: &quot;Helvetica Neue&quot;, sans-serif; font-size: 12px; font-weight: 200;" fill="rgb(50, 49, 63)" stroke="none" stroke-width="1px">0.3</text><text x="0" y="168.77696165358358" dx="0em" dy="0.3em" style="text-anchor: end; visibility: inherit; font-family: &quot;Helvetica Neue&quot;, sans-serif; font-size: 12px; font-weight: 200;" fill="rgb(50, 49, 63)" stroke="none" stroke-width="1px">0.4</text><text x="0" y="129.00864646794417" dx="0em" dy="0.3em" style="text-anchor: end; visibility: inherit; font-family: &quot;Helvetica Neue&quot;, sans-serif; font-size: 12px; font-weight: 200;" fill="rgb(50, 49, 63)" stroke="none" stroke-width="1px">0.5</text><text x="0" y="89.24033128230474" dx="0em" dy="0.3em" style="text-anchor: end; visibility: inherit; font-family: &quot;Helvetica Neue&quot;, sans-serif; font-size: 12px; font-weight: 200;" fill="rgb(50, 49, 63)" stroke="none" stroke-width="1px">0.6</text><text x="0" y="49.4720160966653" dx="0em" dy="0.3em" style="text-anchor: end; visibility: inherit; font-family: &quot;Helvetica Neue&quot;, sans-serif; font-size: 12px; font-weight: 200;" fill="rgb(50, 49, 63)" stroke="none" stroke-width="1px">0.7</text><text x="0" y="9.703700911025862" dx="0em" dy="0.3em" style="text-anchor: end; visibility: inherit; font-family: &quot;Helvetica Neue&quot;, sans-serif; font-size: 12px; font-weight: 200;" fill="rgb(50, 49, 63)" stroke="none" stroke-width="1px">0.8</text></g><line x1="50" y1="0" x2="50" y2="378" fill="rgb(0, 0, 0)" stroke="rgb(204, 204, 204)" stroke-width="1px"></line></g></g><g transform="translate(50, 0)" clip-path="url(#clip_0)"><clipPath id="clip_0"><rect width="1079" height="378"></rect></clipPath><g><g><g><line x1="11.955162300576966" y1="0" x2="11.955162300576966" y2="378" fill="rgb(0, 0, 0)" stroke="rgb(60, 60, 60)" stroke-width="1px" opacity="0.25"></line><line x1="175.70407094929902" y1="0" x2="175.70407094929902" y2="378" fill="rgb(0, 0, 0)" stroke="rgb(60, 60, 60)" stroke-width="1px" opacity="0.25"></line><line x1="339.4529795980211" y1="0" x2="339.4529795980211" y2="378" fill="rgb(0, 0, 0)" stroke="rgb(60, 60, 60)" stroke-width="1px" opacity="0.25"></line><line x1="503.2018882467432" y1="0" x2="503.2018882467432" y2="378" fill="rgb(0, 0, 0)" stroke="rgb(60, 60, 60)" stroke-width="1px" opacity="0.25"></line><line x1="666.9507968954653" y1="0" x2="666.9507968954653" y2="378" fill="rgb(0, 0, 0)" stroke="rgb(60, 60, 60)" stroke-width="1px" opacity="0.25"></line><line x1="830.6997055441873" y1="0" x2="830.6997055441873" y2="378" fill="rgb(0, 0, 0)" stroke="rgb(60, 60, 60)" stroke-width="1px" opacity="0.25"></line><line x1="994.4486141929094" y1="0" x2="994.4486141929094" y2="378" fill="rgb(0, 0, 0)" stroke="rgb(60, 60, 60)" stroke-width="1px" opacity="0.25"></line></g><g><line x1="0" y1="367.61853758178074" x2="1079" y2="367.61853758178074" fill="rgb(0, 0, 0)" stroke="rgb(60, 60, 60)" stroke-width="1px" opacity="0.25"></line><line x1="0" y1="327.8502223961413" x2="1079" y2="327.8502223961413" fill="rgb(0, 0, 0)" stroke="rgb(60, 60, 60)" stroke-width="1px" opacity="0.25"></line><line x1="0" y1="288.08190721050187" x2="1079" y2="288.08190721050187" fill="rgb(0, 0, 0)" stroke="rgb(60, 60, 60)" stroke-width="1px" opacity="0.25"></line><line x1="0" y1="248.31359202486246" x2="1079" y2="248.31359202486246" fill="rgb(0, 0, 0)" stroke="rgb(60, 60, 60)" stroke-width="1px" opacity="0.25"></line><line x1="0" y1="208.54527683922302" x2="1079" y2="208.54527683922302" fill="rgb(0, 0, 0)" stroke="rgb(60, 60, 60)" stroke-width="1px" opacity="0.25"></line><line x1="0" y1="168.77696165358358" x2="1079" y2="168.77696165358358" fill="rgb(0, 0, 0)" stroke="rgb(60, 60, 60)" stroke-width="1px" opacity="0.25"></line><line x1="0" y1="129.00864646794417" x2="1079" y2="129.00864646794417" fill="rgb(0, 0, 0)" stroke="rgb(60, 60, 60)" stroke-width="1px" opacity="0.25"></line><line x1="0" y1="89.24033128230474" x2="1079" y2="89.24033128230474" fill="rgb(0, 0, 0)" stroke="rgb(60, 60, 60)" stroke-width="1px" opacity="0.25"></line><line x1="0" y1="49.4720160966653" x2="1079" y2="49.4720160966653" fill="rgb(0, 0, 0)" stroke="rgb(60, 60, 60)" stroke-width="1px" opacity="0.25"></line><line x1="0" y1="9.703700911025862" x2="1079" y2="9.703700911025862" fill="rgb(0, 0, 0)" stroke="rgb(60, 60, 60)" stroke-width="1px" opacity="0.25"></line></g></g></g><g><g><line x1="0" y1="327.8502223961413" x2="1079" y2="327.8502223961413" fill="rgb(0, 0, 0)" stroke="rgb(153, 153, 153)" stroke-width="1.5px"></line></g></g><g><g><line x1="11.955162300576966" y1="0" x2="11.955162300576966" y2="378" fill="rgb(0, 0, 0)" stroke="rgb(153, 153, 153)" stroke-width="1.5px"></line></g></g><g><g><g><g><g><path stroke="rgb(255, 112, 67)" stroke-width="2px" d="M13.592651387064185,129.016587228549L15.557638290848852,154.01390527842463L16.540131742741185,145.51020676655L16.86762956003863,152.79141104391277L17.85012301193096,157.14663432022977L19.815109915715624,152.24455862750915L23.745083723284953,148.7209309230061L25.055074992474733,152.09051379157688L25.710070627069616,154.69937730272048L26.365066261664506,156.78092955068297L26.692564078961954,153.99319191230097L27.347559713556837,151.6720732973999L29.312546617341503,149.71141187357506L29.64004443463895,148.03138965764592L29.967542251936393,146.57659857748826L30.29504006923384,148.54518306561818L33.242520424910836,150.450656426135L34.22501387680316,149.16865978490372L35.2075073286955,147.90257315734667L35.53500514599294,149.49776051155428L35.86250296329038,150.9067340377237L36.19000078058784,152.18146262005183L37.82748986707505,153.34263462269575L40.447472405454604,154.40825603589002L40.774970222752046,155.38185622867593L42.739957126536716,154.03491973300697L45.35993966491627,154.97348212311758L46.3424331168086,153.73100184104598L46.66993093410604,154.63616006070384L48.96241565518815,155.53453972939985L50.59990474167537,154.50119111147202L53.21988728005493,153.43049700653566L54.20238073194726,152.42669687055331L54.52987854924471,151.4839932677207L57.4773589049217,150.59737259469867L58.13235453951659,149.75544280133485L58.45985235681403,148.9548149522247L58.787350174111474,148.29268910609235L61.079834895193585,149.22745147906005L62.717323981680806,150.1030590279432L63.372319616275696,149.354022802972L63.69981743357314,148.5421132314478L65.00980870276291,149.41138184455966L66.64729778925013,150.23851317312588L66.97479560654759,151.1086608929177L67.95728905843991,151.85684206748311L69.92227596222459,152.57196516005303L70.24977377952202,153.2522574775889L70.9047694141169,152.48103980382683L71.88726286600924,153.15163707576366L72.54225850060412,152.3998624301456L72.86975631790158,153.13579879088138L73.52475195249646,152.32562900110122L74.17974758709134,151.6279020387855L74.5072454043888,150.95317960421514L76.7997301254709,151.62727834957983L79.41971266385046,152.2750321709461L79.7472104811479,152.8944845688201L80.07470829844534,152.20556243314303L81.38469956763512,151.54621123554605L84.65967774060957,152.17376643227811L84.987175557907,151.52501146360163L85.64217119250188,152.14207397499473L86.95216246169167,151.50371678581217L87.934655913584,150.88839090336322L88.26215373088144,150.34305540649632L88.58965154817889,149.83444648461435L89.57214500007122,149.21670353354986L93.50211880764054,149.87112758132645L95.4671057114252,150.50096952890422L96.44959916331754,151.11210338349667L97.10459479791243,150.53468709083995L97.43209261520988,151.13895928657016L98.08708824980476,151.7224944154019L99.39707951899454,152.28892800325056L100.70707078818431,151.71361843990366L101.36206642277921,151.1420620966669L102.99955550926643,150.5804154943951L107.58452495143065,151.16240893085052L109.22201403791787,150.60942120111116L109.5495118552153,151.20464279580236L110.8595031244051,151.76173249653905L111.18700094170252,151.20220437015297L112.49699221089232,151.7549028368924L112.82449002818974,152.29185987281974L113.47948566278464,152.77608307816575L114.46197911467696,152.203757972813L116.09946820116419,151.64532814239706L116.42696601846164,152.2369785710909L116.75446383575907,152.8752232163623L118.39195292224629,152.3017057097018L118.71945073954375,151.74981225376138L119.0469485568412,152.272797684513L120.02944200873351,152.7777894978894L122.97692236441053,153.27032958602973L123.63191799900541,153.80931991665932L125.59690490279007,153.1743798087638L127.56189180657474,153.65245624768366L127.88938962387218,153.08244230053282L129.85437652765685,153.55938199001199L130.8368699795492,154.02477415416934L132.14686124873896,153.4613672702962L133.45685251792875,153.92726242107898L134.11184815252363,154.37951410562752L135.4218394217134,153.80286302733938L135.74933723901086,154.25891880111146L136.07683505630828,153.68535791496018L136.7318306909032,153.12757733375415L138.3693197773904,152.58507726806647L140.00680886387764,152.05738063160769L140.33430668117506,151.54151215955557L145.57427175793418,151.038526313264L147.8667564790163,151.5458727836517L149.83174338280097,151.0556353857394L150.1592412000984,150.6216830460704L150.81423683469325,150.22077531532048L152.77922373847792,150.7400455710483L155.72670409415494,151.25151419793383L156.3816997287498,151.7468986876743L156.70919754604728,151.24793097768998L157.69169099793962,151.80041928647736L159.65667790172424,152.22662385367795L162.27666044010383,152.6968002419559L162.60415825740125,152.18120641003082L163.5866517092936,152.65315098877764L163.91414952659102,153.1112336822829L166.86162988226803,152.60698578750493L167.18912769956546,153.06343222458727L170.79160368983736,153.49364212730026L171.7740971417297,152.961323522713L172.10159495902715,152.44452962737088L172.756590593622,151.94136148462843L173.41158622821692,152.41334497669502L177.99655567038113,152.87108270564428L179.63404475686835,152.30399635090922L180.28904039146323,152.76277797425243L181.27153384335557,153.21188073175819L181.92652947795045,152.6972680659797L183.56401856443767,152.19614601759568L183.89151638173513,152.65493091316227L185.85650328551978,152.15258418041384L186.5114989201147,151.66150304498754L186.83899673741212,151.18111282481362L187.493992372007,150.71215123434726L187.82149018930446,151.2008133852948L188.8039836411968,151.67713445361326L189.45897927579168,151.19933973525303L191.0964683622789,151.67828765355497L191.42396617957635,151.20000890293483L194.37144653525334,150.7347549416466L195.02644216984822,151.2704070405622L196.336433439038,151.69048500092327L196.66393125633545,152.20497978019682L196.9914290736329,152.7102616078186L198.30142034282267,153.15201413881599L199.61141161201243,153.58285527435248L199.9389094293099,153.06981090430108L200.92140288120223,153.50881823371517L201.5763985157971,152.99779182057358L202.23139415039202,153.43071516709162L202.55889196768945,153.85393949662068L202.88638978498687,153.34063722379324L203.21388760228433,153.7650414997048L203.8688832368792,153.2512791470113L204.19638105417667,153.67707252450484L205.8338701406639,153.1703500944179L206.16136795796132,153.5970194755043L208.45385267904342,154.0328040432042L209.10884831363833,154.4410870611331L211.073835217423,153.9154847163141L211.72883085201786,154.32034770112188L213.36631993850511,153.74711409396275L215.0038090249923,153.27591795630514L215.65880465958722,152.7767819846759L219.58877846715652,152.28500625531464L221.88126318823862,152.77969330825113L222.2087610055361,153.2590668825514L222.86375664013096,153.65807146734986L223.19125445742844,153.15146416251545L223.51875227472587,152.65516409050878L223.8462500920233,152.16971495515548L224.5012457266182,151.69240253309576L225.48373917851055,151.23017277615241L226.7937304477003,151.6920923563027L227.12122826499774,152.14323378011017L228.4312195341875,152.58462917460977L229.41371298607984,153.01848505796406L230.72370425526964,152.52467370290444L231.70619770716195,152.95817429821105L232.03369552445943,152.46842205534344L232.6886911590543,151.98763846250029L233.01618897635177,152.43380603328555L233.67118461094663,152.86944306762487L233.99868242824408,152.38543942425935L234.32618024554154,151.90882521176692L235.30867369743387,152.35373792184237L235.6361715147313,151.87784741848392L235.96366933202873,152.32392793278132L236.61866496662364,151.8492075595454L237.27366060121852,151.3843952288803L237.60115841851598,150.9287189306993L239.89364313959808,151.34116528930355L240.87613659149042,150.88682853599204L242.1861278606802,150.442766494643L243.16862131257253,150.05346879914026L243.8236169471674,150.58528863596422L244.4786125817623,150.19612927531085L245.78860385095206,150.67496411131532L247.09859512014185,151.1462997766581L248.08108857203416,150.69884473976953L248.40858638933162,150.26468836520021L248.73608420662907,150.71181024168095L249.0635820239265,150.27129669927868L251.02856892771118,149.81679383161284L252.99355583149585,149.39431854991042L253.64855146609074,149.8829568233733L253.97604928338816,150.3668027113453L255.28604055257796,149.9340097688929L256.26853400447027,150.41939972992438L256.5960318217677,149.98526795094747L257.5785252736601,150.46657501357302L257.9060230909575,150.0331591487688L258.23352090825495,150.5129822961261L258.88851654284986,150.07751419672982L259.5435121774447,150.55852127267153L261.5084990812294,151.02757905113307L262.4909925331217,151.48717399392172L262.81849035041915,151.94777370026108L263.80098380231146,152.38842644268988L264.128481619609,152.82162992948727L264.4559794369064,153.26015154931315L265.1109750715013,152.7759588211734L265.43847288879874,153.20494978104207L267.4034597925834,153.6199502682776L268.7134510617732,154.027154668106L269.0409488790706,154.42530724436736L269.6959445136655,154.81548880874163L270.3509401482604,154.29760359356803L271.00593578285526,154.7400815438142L271.3334336001527,155.12400693786816L271.6609314174502,154.59765955385603L271.9884292347476,154.04231981155866L272.315927052045,153.5379385502299L273.29842050393734,153.94563144307588L273.9534161385323,154.34531694730092L274.60841177312716,154.7377775463524L275.59090522501947,155.1211136942565L276.2459008596144,154.59475764562936L276.57339867691184,154.98001866619882L276.9008964942093,155.35878741644416L278.8658833979939,155.7298027743547L279.19338121529137,156.09290959194237L279.8483768498862,155.53997351640015L280.8308703017786,155.90727094538295L282.14086157096835,156.2620090569027L283.1233550228607,155.71957770354678L284.10584847475303,156.08036557941278L284.43334629205043,155.54252608337703L285.0883419266454,155.9455338476845L285.74333756124025,155.353769108352L286.3983331958351,155.67433733793288L288.0358222823224,156.0394949220574L289.01831573421475,155.49185361371L289.6733113688096,154.9593397565172L294.58577862827127,154.43757988043345L295.89576989746104,153.92438968197698L296.5507655320559,153.4224327810975L296.87826334935335,153.83291561865775L298.18825461854317,153.33361400526465L298.843250253138,153.74426365818852L300.15324152232785,153.23319357709494L300.8082371569227,152.69719144692246L301.46323279151756,153.07255503075567L302.4457262434099,153.48833347770963L303.1007218780048,152.9968328833423L303.42821969530223,153.4927741600783L304.0832153298971,153.01065114198462L305.3932065990869,152.57875232993078L306.7031978682767,152.1458677053217L308.9956825893588,152.58005083606977L309.32318040665626,153.0056565226128L309.65067822395366,152.47730154785938L309.9781760412511,151.9566037541778L310.633171675846,152.34542584523538L311.61566512773834,152.8252870840887L311.9431629450358,152.29647636079557L312.2706607623332,151.7800035073875L313.25315421422556,152.22086051275264L313.580652031523,152.6534787944369L313.90814984882047,153.07758507426132L314.23564766611787,153.49424412343737L316.85563020449746,153.9011717282111L317.18312802179486,154.3012184721549L318.1656214736872,154.73972330456502L320.45810619476936,155.12274612313317L321.44059964666167,154.59860866310956L324.06058218504126,154.96946200937765L324.38808000233865,154.44932520836008L325.04307563693357,154.83672243884823L325.37057345423096,155.17364748020975L325.6980712715284,155.54369096594553L326.6805647234208,155.01180046392525L327.00806254071824,154.4906480351794L327.6630581753131,153.97971962161995L328.31805380990795,154.37689460320422L329.9555428963952,154.7654667303902L330.2830407136926,154.19911500472244L331.59303198288245,153.68942497321413L331.92052980017985,154.09075792808926L332.2480276174773,154.483814291806L332.57552543477476,154.87033915073476L333.5580188866671,154.35211599363495L333.8855167039645,154.741003237912L334.213014521262,155.12230898514855L335.19550797315435,155.49600239418598L335.52300579045175,154.96419263839348L338.14298832883134,155.34197115342144L339.4529795980211,155.73786745277977L340.107975232616,156.09878071089767L340.76297086721087,155.52567175690237L341.09046868450827,154.99699747848453L342.07296213640063,155.37329318004117L343.05545558829294,155.7418001778771L343.3829534055904,156.10250590189952L343.7104512228879,155.55971725470948L344.0379490401853,155.02691363972684L345.0204424920776,154.5057446751424L347.64042503045715,154.0665044175008L348.2954206650521,153.5631757921863L349.60541193424183,153.07107935484535L349.9329097515393,152.58853022044912L350.91540320343165,153.0152237790182L351.5703988380265,153.43104368521395L352.22539447262136,153.83919691999563L353.86288355910864,153.33945162188468L356.1553682801907,152.84947247238338L356.48286609748817,153.2695536050535L357.46535954938054,152.77992752392905L358.1203551839754,152.3042084534029L360.08534208776007,152.74270033796049L360.4128399050575,153.1615744094463L361.06783553965244,153.57515383773233L361.7228311742473,153.13121710883536L363.03282244343706,153.5344860394067L364.3428137126268,153.93996449290555L364.99780934722173,154.33734840600158L366.63529843370895,154.7264000230367L366.9627962510064,155.10213926404964L367.2902940683038,154.57962118973197L369.58277878938594,154.96374135781264L369.9102766066834,154.4419337923274L371.875263510468,153.93314785791947L373.18525477965784,154.33020595191434L373.5127525969553,154.7211110671529L373.8402504142527,154.25308054541492L376.78773076992974,154.66821213412535L377.4427264045246,154.155596652443L378.4252198564169,154.54893726828212L380.3902067602016,154.93475182058L380.7177045774991,154.46545197439897L382.0276958466888,153.93423953567225L383.01018929858117,154.33145684658223L383.3376871158786,153.82498268505617L383.6651849331761,154.18014328840164L388.2501543753403,154.57421508851658L389.2326478272326,154.06224951464912L390.21514127912496,153.61036640618832L390.54263909642236,153.15936168866847L390.8701369137198,152.6761168175528L391.8526303656122,152.20267860547065L392.18012818290964,151.7385846087566L392.50762600020704,152.17989658560748L398.40258671156107,152.66287786775493L399.0575823461559,153.08626748849966L399.3850801634534,152.6037438136545L400.04007579804824,153.027702474508L400.36757361534575,153.44284055944178L402.33256051913037,152.95244571021516L402.6600583364278,153.36995330791854L403.31505397102273,153.77840145066446L403.9700496056176,153.2986856861326L404.62504524021244,152.81248507492106L405.28004087480736,153.23773639469528L406.26253432669967,153.64960735207134L406.91752996129463,154.0573356746217L407.5725255958895,154.4626695506453L408.22752123048434,154.798360068948L408.88251686507925,155.1779034303032L409.53751249967416,155.54864561794338L412.81249067264855,155.86383137348648L414.1224819418384,155.32543802244533L415.4324732110281,154.79938001510385L415.7599710283256,154.29502654781913L416.08746884562305,153.78910521194942L416.7424644802179,153.2917817820742L417.7249579321102,152.80096957007294L418.7074513840026,153.21915031098277L419.36244701859744,153.63324071482975L420.3449404704898,154.0362005745045L422.3099273742745,153.53113508363734L422.96492300886933,153.0405593493198L423.61991864346425,152.55776378810583L423.94741646076164,152.0869610523764L424.929909912654,152.52088554923415L425.25740772995147,152.05044143155666L425.5849055472489,152.48536713011174L426.5673989991413,152.92107743960753L429.1873815375208,152.4429684776595L430.824870624008,151.9760645572624L431.4798662586029,152.4135846960056L433.4448531623876,152.88904665360926L434.75484443157734,153.35639949621333L435.08234224887474,152.91685786029026L435.40984006617225,153.38374730074432L435.7373378834697,153.78995336077583L437.7023247872544,153.29420437452794L438.68481823914664,153.70228431089674L440.97730296022877,154.10453323935505L441.6322985948236,154.49666256609402L442.614792046716,153.98794397411913L442.94228986401345,153.48827894389396L443.92478331590576,153.00445203710518L445.88977021969043,152.51975216196544L446.54476585428534,152.04554471731902L447.52725930617765,151.58279135640876L448.50975275807,151.13122916846137L448.8372505753675,151.5844175064973L449.1647483926649,151.13996072567724L449.49224620996233,150.6961467915669L449.81974402725973,151.15912354980406L451.7847309310444,151.71036113092597L453.7497178348291,152.1511356763473L455.71470473861376,151.68928466463694L457.0246960078035,152.13198482162787L457.67969164239844,151.68099086564337L459.3171807288856,152.172334214185L460.6271719980754,152.55577237501862L462.9196567191575,152.93148146549854L463.5746523537524,152.45300675524757L464.5571458056448,151.98391786794093L465.21214144023963,152.42039021747178L465.5396392575371,151.95042057561446L466.52213270942946,151.4913524858489L466.84963052672686,151.04125238547877L467.5046261613217,150.60628900770246L467.83212397861917,151.09942293540604L468.81461743051153,151.50764642200923L474.38208032456805,151.05819420929384L474.70957814186556,150.61705251546488L475.03707595916296,151.08382965554972L476.6745650456502,150.64246642232803L477.65705849754255,150.21074195460298L478.9670497667323,149.78800064889714L479.2945475840298,149.3813204276659L479.62204540132717,149.87018065873997L480.93203667051694,149.44982511589131L481.25953448781445,149.04007210595452L481.58703230511185,148.64026477447112L482.24202793970676,149.14270714153463L482.8970235743016,148.73940569407148L483.5520192088965,149.24015335518902L484.2070148434914,149.73335157999648L486.82699738187097,149.31876419855283L488.4644864683582,148.91299080302576L488.79198428565564,149.41085039437556L491.7394646413326,149.89740561815165L492.0669624586301,149.47944343723435L495.66943844890193,149.07181128543482L498.28942098728146,149.56591638412286L498.616918804579,150.05711631773562L499.5994122564713,149.6361822674249L500.25440789106614,150.1689106755686L500.5819057083636,150.6405764532139L503.2018882467432,150.23461032215982L503.52938606404064,150.7053833621814L503.85688388133804,151.16670459007278L504.1843816986355,151.61870857019622L505.16687515052786,152.06442585552136L505.8218707851227,151.60346009007756L506.14936860242017,151.14455912700535L506.4768664197176,150.70084893626515L509.09684895809715,150.26648668845715L510.7343380445844,150.73632937051832L511.06183586188183,151.1993800251691L512.0443293137741,150.7552021923324L514.3368140348563,151.21936940835045L514.9918096694511,150.82462877122248L518.2667878424256,150.38837591864072L519.9042769289129,150.8573454361757L520.2317747462102,151.314730051205L520.8867703808052,150.86860112440587L521.2142681981026,150.47631549424165L523.1792551018873,150.94254881587258L523.5067529191847,151.39695004657412L525.4717398229693,150.99937808663776L525.7992376402668,150.61894152668597L528.7467179959439,150.18226597347723L530.0567092651336,149.75848108043812L530.7117048997285,149.3432916000083L532.0216961689182,148.93677307268683L534.9691765245952,149.4405768747457L535.6241721591902,149.0336326967769L536.6066656110825,149.52989345825975L537.2616612456774,150.01703230776093L537.5891590629748,149.61163596524085L539.226648149462,150.0908595831556L540.2091416013544,150.56367682686664L541.8466306878415,151.02774606315657L542.5016263224364,150.58723095928556L543.8116175916263,151.04142841341834L544.4666132262212,151.49782728489475L544.7941110435186,151.94336715482072L545.121608860816,151.48138799525353L545.7766044954109,151.032251842382L546.4316001300058,150.59156774505072L548.069089216493,150.15831493983674L549.0515826683853,149.73607041124848L549.7065783029802,150.20770482850136L550.6890717548725,150.70048852634295L551.6715652067649,151.16265828811873L552.9815564759547,150.71928123216364L555.2740411970368,150.28595930426894L555.6015390143342,149.86914235461612L555.9290368316316,149.48778232979694L558.2215215527137,149.07856257892928L558.8765171873087,149.56835988031733L559.5315128219036,150.0515873980295L560.5140062737959,150.5276471600201L560.8415040910934,150.09717577557768L562.806490994878,150.5365649095811L563.1339888121754,151.10167558747688L564.4439800813652,150.65982210150497L565.753971350555,150.22682976557283L566.7364648024474,150.70427281766518L567.0639626197448,151.16795698203626L567.3914604370422,151.6204022478254L567.7189582543397,151.16658580836125L568.3739538889345,151.61857789558653L569.3564473408268,151.16960266129962L571.648932061909,151.618576259963L571.9764298792064,152.0616162867299L573.6139189656936,151.60844607821028L574.2689146002886,152.05114012024694L574.5964124175861,151.54108827769625L574.9239102348835,151.9856947774489L577.8713905905604,152.4218604202082L579.1813818597502,152.84842423198936L579.8363774943451,153.26763056504726L580.1638753116425,152.78212111053912L580.8188709462374,152.35500517990337L582.4563600327245,151.88802613152203L582.7838578500222,151.43053342621434L583.438853484617,150.98284198648187L583.7663513019145,151.39099177630177L584.0938491192119,151.83995098329962L585.0763425711042,151.38342883674196L585.7313382056991,150.98402958152604L586.0588360229965,151.34068062172543L586.3863338402939,151.80654295737992L589.333814195971,151.34911360313149L590.3163076478633,151.74814178679344L593.2637880035403,151.29355135157152L595.2287749073249,150.8487967687278L595.5562727246223,151.30734504681234L597.521259628407,150.84173874789872L597.8487574457046,150.40660156381307L598.176255263002,150.87527876774402L598.8312508975969,150.48728668992L600.7962378013816,150.95206396405683L602.7612247051661,151.40859085176646L603.0887225224636,150.95992671776386L605.7087050608432,150.52426524433528L606.0362028781407,150.9891099309681L607.018696330033,150.5492477256538L608.0011897819253,151.06326332037918L609.3111810511151,151.46800304555546L609.96617668571,151.8646487827768L611.2761679548997,151.40744947899995L613.2411548586845,151.0088317682219L614.5511461278742,151.46378535670854L614.8786439451716,151.01378345688084L615.8611373970639,151.4693534862036L616.5161330316588,151.02001074345722L617.4986264835511,151.4256946382439L618.8086177527409,151.02684490501406L619.4636133873358,150.58654886904029L620.1186090219308,151.05083468740887L620.4461068392282,150.62479523588166L620.7736046565255,151.09432825493977L623.0660893776078,150.65276196083227L623.7210850122026,150.21955350476537L624.0485828295001,150.69060343072124L626.0135697332846,150.25744181506028L626.3410675505822,150.7159297784713L626.6685653678796,151.17919003434105L627.3235610024745,151.63210549894166L627.9785566370693,151.17913734313132L631.9085304446387,151.63015744398692L634.8560108003156,151.12755541982455L636.1660020695055,151.5546791026374L637.8034911559927,151.10385346871038L638.1309889732901,151.55716887008225L639.7684780597774,152.00758585738242L640.0959758770748,151.54767800630248L640.4234736943723,151.14594393737664L641.733464963562,151.60184895174382L642.0609627808594,152.04466893533905L644.0259496846442,152.47875285211245L645.335940953834,152.90458689550576L645.6634387711314,152.42668753294788L645.9909365884288,151.9583369972611L646.6459322230237,152.3937885276835L646.9734300403211,152.82137623360273L648.6109191268084,152.339839887699L649.5934125787007,152.7685083962176L650.2484082132955,153.194464481874L651.2309016651878,153.60607544604028L652.2133951170802,154.03146457743327L653.1958885689726,153.53091818206883L653.8508842035675,153.92881964489382L655.8158711073521,154.32576987851402L656.1433689246495,153.864374535461L656.7983645592444,154.26334274996523L657.4533601938394,153.7574819721185L660.4008405495163,153.31185218905696L660.7283383668138,152.87524125279518L661.0558361841112,152.4473455241261L661.3833340014087,151.97834870059893L665.968303443573,151.5189252942249L667.2782947127627,151.06872335940162L668.5882859819525,150.67706202120996L668.9157837992499,150.29319460653215L669.8982772511422,150.7634766208928L670.2257750684397,151.2729948570365L671.208268520332,151.77807654009146L671.8632641549269,152.26691629691982L672.5182597895217,152.69849523326707L674.1557488760089,153.12004378426928L675.1382423279014,152.68801507230523L675.7932379624963,152.26376889861137L676.1207357797937,151.7794880067491L676.7757314143886,152.22312939150368L677.7582248662809,152.6547860705409L678.7407183181733,152.18304883376646L679.3957139527681,151.71902643469627L680.3782074046604,151.26479368180722L681.3607008565527,150.8199717870798L681.6881986738503,150.38372731401986L682.6706921257424,149.95446126927118L683.6531855776349,150.43122341768142L686.2731681160144,150.00266343148093L686.6006659333118,149.63221563689385L687.2556615679067,149.21974063988847L688.893150654394,149.710970071944L690.5306397408812,149.24745538673608L690.8581375581787,149.7412385301917L691.1856353754761,149.3265428348161L691.8406310100711,148.92450755913634L692.1681288273685,148.52540081679527L692.8231244619634,149.03611011428438L693.4781200965582,148.636381068506L694.4606135484505,149.13938874697794L694.7881113657479,149.62905492399932L696.0981026349378,149.2198409370222L697.735591721425,148.8165833340371L698.3905873560199,148.41360823881305L700.3555742598045,148.96555029359146L700.683072077102,148.56626707420403L701.0105698943995,148.17905228263092L701.3380677116969,147.7956256443079L701.6655655289943,147.4185856576707L702.6480589808866,147.9466993572926L703.3030546154815,147.56800988749893L704.2855480673738,147.1977437696728L704.6130458846712,147.72933892127568L705.5955393365637,148.25013645517936L706.2505349711586,148.76241692487415L706.9055306057534,148.36734059706956L707.2330284230509,148.87664738540713L707.5605262403483,149.37478241220492L708.870517509538,148.94966482817253L710.1805087787279,148.5515954570721L710.5080065960253,148.16073513155288L710.8355044133227,147.78731481750827L712.1454956825125,148.30705442014437L712.47299349981,147.9215301005227L713.1279891344049,147.54702841182112L713.4554869517023,148.07202219273836L714.1104825862973,148.58609936639255L714.4379804035947,148.19605112329674L714.7654782208921,147.8605515123954L715.420473855487,147.48298734183285L715.7479716727844,147.1130413120291L716.4029673073793,147.64624071125976L717.3854607592716,148.15556409134084L718.0404563938664,148.66785160868247L718.367954211164,148.27793927440126L720.3329411149487,147.89345624278863L720.660438932246,147.5053765652227L720.9879367495435,147.1365628851578L722.2979280187334,147.669343943636L722.9529236533282,147.2958438679216L723.6079192879231,147.902016244337L724.9179105571128,148.41959534436864L727.210395278195,148.92491635385778L728.1928887300872,148.5307533220267L728.8478843646822,149.04565800926468L729.5028799992771,148.69437783468015L729.8303778165745,149.1464801136782L731.1403690857642,149.58960433652388L731.7953647203592,150.07269323714274L732.1228625376566,149.65140969285392L732.4503603549541,150.30117315077408L733.4328538068464,149.87536600049876L734.7428450760361,149.4087028822112L735.0703428933335,148.95149108093864L736.052836345226,149.45128155172793L737.0353297971183,149.0425613861277L740.3103079700927,149.53915372455685L740.6378057873902,149.13123470818195L741.6202992392825,149.62418120854377L741.9477970565799,150.10560357956223L742.6027926911748,150.6302723172476L743.5852861430672,150.19792873431908L744.240281777662,150.66935951886254L744.5677795949596,151.1300987425549L745.2227752295544,151.5834258459181L745.5502730468519,152.02764136253884L745.8777708641493,151.5675618435872L746.2052686814467,152.0129086207123L746.8602643160416,152.448108511033L747.5152599506365,151.9790768404212L747.8427577679339,151.52046877620072L749.1527490371237,151.06996858064707L749.4802468544212,150.63221979876374L750.135242489016,150.18029212591202L751.1177359409083,150.70918699056284L751.7727315755033,150.27528293879095L752.7552250273956,150.7463292581243L756.6851988349649,150.31772185023274L757.9951901041547,149.89109125886162L758.977683556047,150.4230214360708L760.6151726425343,150.00995115345336L761.2701682771291,149.589877527615L762.2526617290215,149.1790606112452L764.2176486328061,148.77560480591922L764.5451464501035,149.2757325521607L765.2001420846984,148.8666483684515L766.1826355365909,148.47036241896822L767.1651289884832,148.06690573613633L767.4926268057806,147.68305102297873L767.8201246230781,147.3086696796118L770.7676049787551,146.94357792736247L771.0951027960525,146.5864825341577L771.4226006133499,147.1309518872982L771.7500984306474,146.76856590211926L772.4050940652422,147.31434672139503L773.0600896998371,146.9482312122569L774.0425831517294,146.5904252784877L775.6800722382167,146.2402431418424L776.3350678728116,145.89555803941386L776.662565690109,146.4510839052105L776.9900635074065,146.10225262676244L777.3175613247039,145.76895740718876L779.9375438630835,146.27960798122356L782.8850242187605,145.93419721862108L784.5225133052477,145.59618344555616L787.1424958436272,145.2677163282968L787.4699936609246,145.83783327276274L788.452487112817,146.37336582705555L789.7624783820067,146.02594480205332L790.7449718338991,146.5722609380216L792.0549631030889,146.22122562829293L793.0374565549813,145.87774791737266L794.0199500068736,145.5403478200242L794.347447824171,145.19527862176938L794.6749456414684,145.76807453084368L795.3299412760633,146.37757298668038L797.9499238144429,146.03053668788735L798.6049194490378,146.57904554139546L799.2599150836327,147.1230700392631L799.9149107182275,147.67402837264422L801.5523998047148,147.30027600153653L803.189888891202,147.82972986860113L805.8098714295816,148.35643443914273L806.1373692468791,148.00418378847706L806.4648670641765,148.51948743448625L807.7748583333662,148.1293729678409L808.7573517852585,148.66158313015154L809.7398452371509,149.16092633220757L812.3598277755304,148.75785935527585L813.0148234101252,148.3519921802114L814.3248146793152,148.86471844692113L814.6523124966126,148.46786908367318L814.97981031391,148.081046433355L815.3073081312075,147.69945569780637L815.9623037658023,147.28306609030287L816.6172994003972,146.91755395767518L817.5997928522895,146.55995106329166L819.5647797560742,147.10429010770568L820.219775390669,147.6378554361289L822.5122601117512,148.1600366837833L823.822251380941,148.69497554989783L824.4772470155359,149.19366274097578L825.7872382847256,148.84031012571347L826.114736102023,149.33898343076746L826.7697317366179,148.93314608194515L827.7522251885104,148.5966651062796L828.4072208231053,148.20124484095905L829.3897142749976,148.7116624097135L830.0447099095924,149.2128719243879L831.0272033614847,148.80729215143464L831.3547011787821,149.33281088528562L831.6821989960797,148.92713965860423L834.957177169054,149.42402872128312L835.2846749863514,149.01323452302637L835.9396706209465,148.60280836747486L836.2671684382439,149.1545089191843L836.5946662555414,148.70205599082462L836.9221640728388,148.2573853930244L837.9046575247311,147.82274077417213L838.2321553420285,147.39782395513046L838.8871509766234,147.03002189433727L839.8696444285157,147.56482723455815L840.5246400631107,147.1922093124897L841.1796356977055,146.8286447019582L841.8346313323004,147.36702863510075L844.7821116879775,146.99913089586238L845.1096095052749,146.59538531292958L846.0921029571672,147.13893932251858L846.7470985917621,146.82565908390302L847.4020942263569,146.4692552876326L848.0570898609518,146.12002697552336L848.7120854955467,145.77775668212L849.0395833128442,145.43975946275506L850.0220767647365,145.12648039712545L851.9870636685212,145.71637681249246L852.3145614858186,145.38223475375767L853.6245527550085,145.95303370438427L854.6070462069007,146.50949115646046L855.589539658793,146.16007205698884L856.2445352933879,145.81562177939466L856.5720331106853,145.4796088377724L857.8820243798752,146.0428173862138L859.192015649065,146.61365413672317L860.1745091009573,146.26148238467837L860.5020069182547,146.816546457099L860.8295047355522,147.35547551596414L861.1570025528496,147.88373574130424L862.139496004742,148.40138335386607L863.4494872739317,148.01260557833965L864.1044829085266,147.6326968134733L865.4144741777163,147.26074794384306L865.7419719950137,146.89553381326706L866.7244654469062,147.4331173155662L868.3619545333934,147.06635257308798L869.3444479852857,147.60051661792747L869.6719458025831,147.2284141958259L870.326941437178,146.8641904459305L870.981937071773,146.56701120412689L871.6369327063678,146.26524775790207L871.9644305236653,145.92380023568666L872.9469239755576,146.4808077408375L873.274421792855,146.13040260747476L873.92941742745,146.68664968782818L874.9119108793423,146.33337311152565L875.2394086966398,146.8846920381954L875.8944043312347,147.4721444086103L877.8593912350192,147.9981286129063L878.8418846869115,148.48196069720072L879.8243781388039,148.09145143814044L880.1518759561014,148.6050381230283L881.4618672252911,148.2128173028279L883.4268541290758,147.88154230742023L887.6843257539425,148.39897991420068L888.9943170231323,148.01132660063325L889.6493126577273,148.5266371444701L891.2868017442145,148.1385628400872L892.2692951961068,147.7570828487833L892.9242908307017,147.38181402439363L894.2342820998915,147.01590800367757L895.8717711863786,146.65496157918415L897.1817624555686,146.30275799839214L898.4917537247583,146.9015129265115L899.4742471766506,147.44777212025937L902.4217275323276,147.9751947616886L904.3867144361122,148.49224720223833L907.6616926090867,148.99780090183552L907.9891904263841,148.59806995510124L908.3166882436816,149.10254305374374L909.2991816955739,148.7009301239853L909.6266795128713,148.3078465209816L911.2641685993585,147.92138085380736L911.9191642339534,147.54298204179025L913.2291555031431,147.180382575083L913.5566533204407,146.8170914927457L913.8841511377381,146.461223388204L914.2116489550355,147.01470092963729L914.5391467723331,147.54937888570052L914.8666445896305,147.17866426252078L915.1941424069279,146.81238105041805L917.8141249453074,147.35167856070404L918.7966183971997,147.880300580061L920.7616053009845,148.39797255783185L925.3465747431486,148.90534679965097L925.6740725604461,149.4023341483942L926.0015703777435,148.99411384127293L928.2940550988257,149.49141628382486L929.9315441853129,149.0811597557369L930.9140376372052,149.62452584429388L931.5690332718001,149.162582053857L931.8965310890976,148.7088905887889L932.224028906395,149.21062697422113L932.5515267236925,149.69943155780936L933.8615179928822,150.1806386624183L936.4815005312618,149.75720545169324L936.8089983485593,150.23795254664824L937.7914918004516,150.71094923754674L938.4464874350464,151.17214121820587L938.7739852523439,150.7272049448922L939.4289808869387,150.29241990404137L943.358954694508,149.86664677235154L944.013950329103,149.4489676505232L944.9964437809954,149.93612602011623L945.6514394155902,149.51751432200797L947.2889285020774,149.10862786879096L948.2714219539697,149.601544379362L949.253915405862,150.08446009996143L952.2013957615391,149.66304432829946L952.5288935788365,150.14361407660394L953.5113870307288,149.7199495043274L954.4938804826212,149.26638467551027L955.1488761172161,149.75648928000294L955.4763739345135,149.34368804133328L957.4413608382981,148.97142593072294L958.4238542901905,149.46767670317178L958.751352107488,149.95463866905385L960.3888411939752,149.53616303108578L961.0438368285701,149.12563023823816L961.6988324631649,148.7730665668362L962.6813259150573,149.27294082172702L963.0088237323548,148.86759235451518L963.3363215496522,148.47039541980945L965.6288062707342,148.1306083849176L967.2662953572216,147.74671420764255L967.9212909918165,148.22086377880677L968.2487888091139,148.73163986661737L968.5762866264113,149.22935455877305L969.886277895601,149.7198010674265L970.2137757128985,150.20106063255926L972.1787626166832,149.7258534038236L973.4887538858729,150.21347727172534L974.4712473377652,150.68532340264022L974.7987451550626,151.14695512742585L975.4537407896576,151.60263102584855L977.7462255107397,151.149287862507L978.0737233280372,151.6022563587452L979.7112124145243,151.15035002573364L983.6411862220937,150.70788288712424L985.278675308581,151.1726137716293L985.9336709431758,151.67395498300723L986.2611687604733,151.22069384821194L987.2436622123656,151.67146859297586L987.571160029663,151.2157976835891L990.5186403853401,150.7723010593794L992.4836272891247,151.2324395126992L993.7936185583145,150.78687612169708L994.1211163756119,150.35148788322005L995.4311076448017,149.9246803573979L996.0861032793965,149.506741071866L996.7410989139914,149.16270692885334L997.3960945485865,148.7600033193865L998.0510901831813,149.26032514948557L999.0335836350736,148.85538567864145L999.3610814523711,149.35316080804031L999.6885792696685,149.84162873271598L1000.6710727215608,150.37311984586407L1000.9985705388582,150.84961693670877L1001.3260683561557,150.41461892336338L1001.6535661734531,150.8806556677507L1002.6360596253455,150.44165435283887L1002.9635574426429,150.90874185924045L1003.2910552599403,150.42124270051272L1004.2735487118326,150.93781186649386L1004.6010465291301,150.44920935080316L1005.2560421637249,150.8683281559516L1005.5835399810225,150.48246359789675L1006.8935312502123,150.05392023449028L1007.5485268848072,150.52870790447105L1007.8760247021046,150.99226091295537L1008.203522519402,150.5527450680038L1009.5135137885918,150.12372715907622L1010.1685094231866,150.5960804656637L1010.8235050577816,150.16415779926822L1011.8059985096739,150.6364984653772L1014.7534788653509,151.0985738271911L1015.7359723172433,151.55187251252872L1016.3909679518381,151.9967151219505L1017.045963586433,151.53570693014493L1017.7009592210279,151.08512637189602" style="fill: none;" fill="none"></path></g></g></g></g><g opacity="0.2"><g><g><g><path stroke="rgb(255, 112, 67)" stroke-width="2px" d="M13.592651387064185,129.016587228549L15.557638290848852,178.51127696730234L16.540131742741185,129.00963017410865L16.86762956003863,173.77287103992768L17.85012301193096,173.71373015124377L19.815109915715624,129.1661698249577L23.745083723284953,129.0107323990881L25.055074992474733,173.86424904629098L25.710070627069616,173.7769836428081L26.365066261664506,173.7380028045553L26.692564078961954,129.0054938674652L27.347559713556837,129.0082909114992L29.312546617341503,129.0286287401528L29.64004443463895,129.01706130380902L29.967542251936393,129.01502278019103L30.29504006923384,173.76297471887534L33.242520424910836,176.2391646168612L34.22501387680316,130.90888233256672L35.2075073286955,128.9893041973365L35.53500514599294,174.41395116213218L35.86250296329038,173.85498087495813L36.19000078058784,173.7772325323196L37.82748986707505,173.7590991536249L40.447472405454604,173.81426966200638L40.774970222752046,173.7115968125738L42.739957126536716,127.86363619625052L45.35993966491627,173.7650250943748L46.3424331168086,128.13442798475745L46.66993093410604,173.79760591661767L48.96241565518815,175.0525423892218L50.59990474167537,131.48720674222994L53.21988728005493,129.01241536626108L54.20238073194726,129.00831461526218L54.52987854924471,129.0069872045342L57.4773589049217,129.0114672157411L58.13235453951659,128.84245938555426L58.45985235681403,128.68087083318628L58.787350174111474,131.2124208696576L61.079834895193585,173.77448289581164L62.717323981680806,173.49489701123184L63.372319616275696,129.00968943351614L63.69981743357314,126.13546594724176L65.00980870276291,173.77308437379466L66.64729778925013,173.7662695419323L66.97479560654759,176.21773641510958L67.95728905843991,173.7478635699631L69.92227596222459,173.77808586778758L70.24977377952202,173.68873453316073L70.9047694141169,129.02066427578495L71.88726286600924,173.80034370124415L72.54225850060412,128.97780787228174L72.86975631790158,176.32704631818206L73.52475195249646,126.5117394810967L74.17974758709134,129.1575535071074L74.5072454043888,128.9970553278374L76.7997301254709,173.78500736658344L79.41971266385046,173.7757628990136L79.7472104811479,173.6516499959479L80.07470829844534,128.90709954725406L81.38469956763512,129.04760360243395L84.65967774060957,173.77415104312962L84.987175557907,129.00575460885824L85.64217119250188,173.73757613682133L86.95216246169167,128.9841841845286L87.934655913584,129.01246277378706L88.26215373088144,130.80873393389362L88.58965154817889,131.48163635792505L89.57214500007122,126.76629419194896L93.50211880764054,173.82029041780828L95.4671057114252,173.7067849486849L96.44959916331754,173.77722068043806L97.10459479791243,128.98247751359264L97.43209261520988,173.8346667500675L98.08708824980476,173.77287103992768L99.39707951899454,173.8201007877043L100.70707078818431,129.71862157730692L101.36206642277921,129.16746168004119L102.99955550926643,128.8682727834608L107.58452495143065,173.78149920965953L109.22201403791787,129.00554127499123L109.5495118552153,174.57673675453168L110.8595031244051,173.7449835627587L111.18700094170252,129.01598278259254L112.49699221089232,173.77365326410666L112.82449002818974,173.78187846986748L113.47948566278464,172.24254424879467L114.46197911467696,129.09476223892156L116.09946820116419,129.00108496754729L116.42696601846164,176.328302617621L116.75446383575907,178.96951811360978L118.39195292224629,128.76065769944276L118.71945073954375,129.00857535665517L119.0469485568412,173.9043795170492L120.02944200873351,173.74226948189522L122.97692236441053,173.7916207164603L123.63191799900541,176.34500191865422L125.59690490279007,126.53565657796327L127.56189180657474,173.77737475489758L127.88938962387218,129.00864646794417L129.85437652765685,173.76685028412578L130.8368699795492,173.80470519363607L132.14686124873896,129.4424253308361L133.45685251792875,173.84846234013327L134.11184815252363,173.77378363480312L135.4218394217134,129.00333682503225L135.74933723901086,173.92677957308382L136.07683505630828,128.8825898563125L136.7318306909032,128.94298704443537L138.3693197773904,129.00181978420028L140.00680886387764,129.05930140947424L140.33430668117506,129.00302867611327L145.57427175793418,129.00947609964916L147.8667564790163,173.81870226568728L149.83174338280097,129.48390691608532L150.1592412000984,131.48327191757204L150.81423683469325,132.50044779540906L152.77922373847792,173.74190207356872L155.72670409415494,173.95589964592875L156.3816997287498,173.78296884296546L156.70919754604728,129.0073901685052L157.69169099793962,176.47545557832225L159.65667790172424,171.29860114674477L162.27666044010383,173.7764266043776L162.60415825740125,129.02239465048393L163.5866517092936,173.8899202216195L163.91414952659102,173.76090063961288L166.86162988226803,129.83671372457076L167.18912769956546,173.71022199431985L170.79160368983736,172.98606018280185L171.7740971417297,128.803158546501L172.10159495902715,128.95353521897016L172.756590593622,129.0340569018797L173.41158622821692,173.93372477564264L177.99655567038113,173.77308437379466L179.63404475686835,126.37089172135333L180.28904039146323,173.77306067003167L181.27153384335557,173.807691867774L181.92652947795045,129.0648599418976L183.56401856443767,129.15242164241798L183.89151638173513,173.77948438980454L185.85650328551978,128.9925516128675L186.5114989201147,128.99240939028948L186.83899673741212,128.97825824377875L187.493992372007,129.0114198082151L187.82149018930446,173.83981046663843L188.8039836411968,173.7698369582637L189.45897927579168,129.01326870172906L191.0964683622789,173.942483316071L191.42396617957635,128.94286852562038L194.37144653525334,129.0608065984247L195.02644216984822,176.249736495159L196.336433439038,171.30007078005076L196.66393125633545,176.24588463367158L196.9914290736329,176.34363895228174L198.30142034282267,173.833635636377L199.61141161201243,173.77244437219366L199.9389094293099,129.0061575728292L200.92140288120223,174.11827042247575L201.5763985157971,128.9863649307246L202.23139415039202,173.78977182294634L202.55889196768945,173.77358215281765L202.88638978498687,129.1615001836468L203.21388760228433,173.77271696546816L203.8688832368792,129.01191758723812L204.19638105417667,173.7815466171855L205.8338701406639,129.2266144206066L206.16136795796132,173.77298955874267L208.45385267904342,174.65473398668172L209.10884831363833,173.77531252751663L211.073835217423,129.00831461526218L211.72883085201786,173.5189918863209L213.36631993850511,126.54620475249806L215.0038090249923,130.90226898268986L215.65880465958722,129.06132808121066L219.58877846715652,128.90463435590212L221.88126318823862,176.31289517167133L222.2087610055361,176.07746939755967L222.86375664013096,172.66204159447938L223.19125445742844,129.00864646794417L223.51875227472587,128.9902049403305L223.8462500920233,129.00936943271563L224.5012457266182,128.90792917895905L225.48373917851055,129.15397423889445L226.7937304477003,173.7649302793228L227.12122826499774,173.71199977654481L228.4312195341875,173.69795529696754L229.41371298607984,173.781297727674L230.72370425526964,128.8813098531105L231.70619770716195,173.7236146204146L232.03369552445943,128.9976716256754L232.6886911590543,128.93634999079552L233.01618897635177,173.8348326764085L233.67118461094663,173.7743643769966L233.99868242824408,129.14974311719905L234.32618024554154,129.0184124183L235.30867369743387,173.73027537781743L235.6361715147313,129.00385830781826L235.96366933202873,173.77341622647663L236.61866496662364,129.01389685144858L237.27366060121852,129.017345748965L237.60115841851598,128.99328642952048L239.89364313959808,171.20269572164858L240.87613659149042,129.00037385465734L242.1861278606802,129.0439176672875L243.16862131257253,131.28733661261768L243.8236169471674,176.23016903880287L244.4786125817623,131.42441547404414L245.78860385095206,173.77962661238251L247.09859512014185,173.89616616316985L248.08108857203416,129.09505853595905L248.40858638933162,129.29674200344078L248.73608420662907,172.31223331201338L249.0635820239265,128.98404196195062L251.02856892771118,127.84737541483281L252.99355583149585,128.96742562408792L253.64855146609074,173.51521113612245L253.97604928338816,173.77343993023962L255.28604055257796,128.9917219811625L256.26853400447027,173.91272324162506L256.5960318217677,128.96768636548094L257.5785252736601,173.77370067163267L257.9060230909575,129.04016062085205L258.23352090825495,173.75918211679542L258.88851654284986,128.97539008845578L259.5435121774447,173.87260462274833L261.5084990812294,173.7674665819638L262.4909925331217,173.77308437379466L262.81849035041915,174.28710047444008L263.80098380231146,173.76471694545583L264.128481619609,173.84079417280287L264.4559794369064,174.54156037024035L265.1109750715013,129.27358342699023L265.43847288879874,174.0318227988163L267.4034597925834,173.77135399909568L268.7134510617732,173.80360296865658L269.0409488790706,173.7655939846868L269.6959445136655,173.77189918564468L270.3509401482604,129.13258159278735L271.00593578285526,176.24453351918058L271.3334336001527,173.7858725539329L271.6609314174502,129.00881239428514L271.9884292347476,127.03971709814888L272.315927052045,129.00932202518965L273.29842050393734,173.7751940087016L273.9534161385323,173.78830218964035L274.60841177312716,173.83208303990057L275.59090522501947,173.77415104312962L276.2459008596144,128.97882713409072L276.57339867691184,173.73191093746442L276.9008964942093,173.79715554512072L278.8658833979939,173.79311405352928L279.19338121529137,173.77346363400264L279.8483768498862,128.61276992208852L280.8308703017786,173.79634961717872L282.14086157096835,173.54148675740745L283.1233550228607,129.29432421961485L284.10584847475303,173.6586663097958L284.43334629205043,129.3349287656331L285.0883419266454,175.58530816639987L285.74333756124025,126.51214244506772L286.3983331958351,171.29997596499877L288.0358222823224,173.84045046823942L289.01831573421475,128.7923022230472L289.6733113688096,128.9946849515374L294.58577862827127,128.9947560628264L295.89576989746104,128.89702544797925L296.5507655320559,128.94056926060944L296.87826334935335,173.8551942088251L298.18825461854317,128.97676490670978L298.843250253138,173.77829920165456L300.15324152232785,128.2978417268764L300.8082371569227,126.54314696707115L301.46323279151756,171.38983693053007L302.4457262434099,173.77948438980454L303.1007218780048,129.0082909114992L303.42821969530223,177.69996827111643L304.0832153298971,129.47610837805846L305.3932065990869,131.4942704636038L306.7031978682767,131.0116855526958L308.9956825893588,173.77917624088553L309.32318040665626,173.78747255793536L309.65067822395366,126.67655174523264L309.9781760412511,126.52802396627743L310.633171675846,171.3350575342381L311.61566512773834,176.26271430540126L311.9431629450358,126.46658381258257L312.2706607623332,126.551158838965L313.25315421422556,173.75733322328148L313.580652031523,173.78876441301884L313.90814984882047,173.7982577701002L314.23564766611787,173.8522549422132L316.85563020449746,173.78484144024242L317.18312802179486,173.84976604709823L318.1656214736872,176.16872888510798L320.45810619476936,173.84144602628538L321.44059964666167,128.98214566091065L324.06058218504126,173.09532267834828L324.38808000233865,129.02578428859286L325.04307563693357,173.77308437379466L325.37057345423096,171.64368052849233L325.6980712715284,173.63352846913475L326.6805647234208,129.00874128299617L327.00806254071824,129.01138425257062L327.6630581753131,128.99918866650734L328.31805380990795,173.79659850669023L329.9555428963952,173.7653569470568L330.2830407136926,126.50522094627186L331.59303198288245,128.76518511817574L331.92052980017985,173.7170486780637L332.2480276174773,173.7061212433209L332.57552543477476,173.77396141302563L333.5580188866671,129.00660794432622L333.8855167039645,173.76159990062135L334.213014521262,173.77277622487568L335.19550797315435,173.77479104473062L335.52300579045175,128.95040632225425L338.14298832883134,173.82186671804772L339.4529795980211,175.10469066782082L340.107975232616,173.754856180048L340.76297086721087,127.48795525647051L341.09046868450827,129.13229714763136L342.07296213640063,173.783644400211L343.05545558829294,173.77163844425166L343.3829534055904,173.75118209678305L343.7104512228879,129.0012745976513L344.0379490401853,128.95628485547815L345.0204424920776,129.00369238147724L347.64042503045715,132.57282723572823L348.2954206650521,128.93274701881958L349.60541193424183,128.98965975378155L349.9329097515393,128.9737071212828L350.91540320343165,173.89713801745282L351.5703988380265,173.781321431437L352.22539447262136,173.81475558914786L353.86288355910864,128.88066985150957L356.1553682801907,128.86810685711976L356.48286609748817,173.8303289614386L357.46535954938054,128.8147496866078L358.1203551839754,129.01920649436047L360.08534208776007,174.2060099012186L360.4128399050575,173.66506632580567L361.06783553965244,173.81989930571876L361.7228311742473,131.4000361537991L363.03282244343706,173.27532905456695L364.3428137126268,173.78935700709386L364.99780934722173,173.79086219604432L366.63529843370895,173.77237326090466L366.9627962510064,173.4967459047458L367.2902940683038,128.99888051758836L369.58277878938594,173.76931547547773L369.9102766066834,128.89508173941329L371.875263510468,129.0233902085299L373.18525477965784,173.7701806628272L373.5127525969553,173.86014829529205L373.8402504142527,131.33755303453225L376.78773076992974,174.9940415021389L377.4427264045246,129.05633843909928L378.4252198564169,173.8084148325455L380.3902067602016,173.82600302469118L380.7177045774991,131.486045257843L382.0276958466888,127.92289560374942L383.01018929858117,173.78186661798597L383.3376871158786,129.02429095152388L383.6651849331761,171.57164479273672L388.2501543753403,173.8713720270723L389.2326478272326,128.9916745736365L390.21514127912496,131.48170746921406L390.54263909642236,131.07344570719118L390.8701369137198,129.0110998074146L391.8526303656122,129.01763019412098L392.18012818290964,129.01087462166615L392.50762600020704,173.7921659030093L398.40258671156107,176.31607147591322L399.0575823461559,173.82128597585424L399.3850801634534,128.97245082184384L400.04007579804824,173.7910281223853L400.36757361534575,173.77438808075965L402.33256051913037,128.93492776501552L402.6600583364278,173.81795559715283L403.31505397102273,173.78289773167646L403.9700496056176,129.80350475260835L404.62504524021244,128.99947311166335L405.28004087480736,174.0657784393132L406.26253432669967,173.82248301588572L406.91752996129463,174.0274850101874L407.5725255958895,174.31571091638054L408.22752123048434,171.24044396422536L408.88251686507925,173.76804732415727L409.53751249967416,173.70785161801987L412.81249067264855,171.3019670810907L414.1224819418384,128.95415151680817L415.4324732110281,129.03210134143222L415.7599710283256,129.5906923683983L416.08746884562305,129.00779313247617L416.7424644802179,128.9314433118546L417.7249579321102,128.7594014000038L418.7074513840026,173.70313456918296L419.36244701859744,173.91700177084647L420.3449404704898,173.77487400790113L422.3099273742745,128.79073777468923L422.96492300886933,129.00978424856814L423.61991864346425,128.90795288272204L423.94741646076164,129.02448058162787L424.929909912654,173.77699549468957L425.25740772995147,129.00525682983522L425.5849055472489,173.79076738099232L426.5673989991413,174.2650322710875L429.1873815375208,129.0219205752239L430.824870624008,129.10379337262438L431.4798662586029,173.84654233533027L433.4448531623876,176.18079410047477L434.75484443157734,176.25101649836097L435.08234224887474,131.3845457446789L435.40984006617225,176.25588762165737L435.7373378834697,173.68941009040623L437.7023247872544,129.00805387386916L438.68481823914664,173.69372417527214L440.97730296022877,173.81040594863745L441.6322985948236,173.70686791185537L442.614792046716,129.06598587064008L442.94228986401345,129.00974869292367L443.92478331590576,129.3017316455522L445.88977021969043,128.77416884435254L446.54476585428534,128.8138963511398L447.52725930617765,128.91219585629898L448.50975275807,129.00881239428514L448.8372505753675,173.7865836668229L449.1647483926649,129.36548291613948L449.49224620996233,128.9530848474732L449.81974402725973,173.84107861795889L451.7847309310444,178.716444887945L453.7497178348291,173.74551689742617L455.71470473861376,129.06225252796764L457.0246960078035,173.82084745623877L457.67969164239844,129.5857264300499L459.3171807288856,176.24448611165457L460.6271719980754,171.341433846485L462.9196567191575,171.33853013551752L463.5746523537524,129.01111165929612L464.5571458056448,129.0017960804373L465.21214144023963,173.80458667482108L465.5396392575371,128.92501959208172L466.52213270942946,128.9999945944493L466.84963052672686,128.9892093822845L467.5046261613217,129.2957938529208L467.83212397861917,175.25997401923095L468.81461743051153,171.50815426354237L474.38208032456805,129.03767172573714L474.70957814186556,129.00364497395125L475.03707595916296,173.95328038011732L476.6745650456502,129.01810426938098L477.65705849754255,129.05857844470273L478.9670497667323,129.0759177473369L479.2945475840298,129.4561024020868L479.62204540132717,173.82184301428472L480.93203667051694,128.85450089715803L481.25953448781445,128.964178208557L481.58703230511185,129.05162139026237L482.24202793970676,173.76002360038188L482.8970235743016,128.9794908394547L483.5520192088965,173.77453030333766L484.2070148434914,173.89788468598735L486.82699738187097,129.00577831262123L488.4644864683582,129.03181689627624L488.79198428565564,173.80389926569407L491.7394646413326,173.73662798630136L492.0669624586301,129.0009664487323L495.66943844890193,129.09943188023246L498.28942098728146,173.7751703049386L498.616918804579,174.12406599252913L499.5994122564713,129.0119649947641L500.25440789106614,176.2706787697691L500.5819057083636,173.75053024330057L503.2018882467432,130.3436779557238L503.52938606404064,173.77166214801466L503.85688388133804,173.76990806955268L504.1843816986355,173.76542805834578L505.16687515052786,173.90314692137324L505.8218707851227,129.017582786595L506.14936860242017,128.65982189164268L506.4768664197176,128.96038560647705L509.09684895809715,128.98401825818763L510.7343380445844,173.75726211199247L511.06183586188183,173.8875498453195L512.0443293137741,128.9917219811625L514.3368140348563,173.9622996619386L514.9918096694511,131.48339043638703L518.2667878424256,129.01312647915108L519.9042769289129,173.835650456232L520.2317747462102,173.72542795828403L520.8867703808052,129.00938128459717L521.2142681981026,131.2552654212793L523.1792551018873,173.7868799638604L523.5067529191847,173.66155816888173L525.4717398229693,131.51925422980537L525.7992376402668,131.9783961191068L528.7467179959439,128.7861155409043L530.0567092651336,128.99392643112142L530.7117048997285,128.99987607563432L532.0216961689182,129.01819908443298L534.9691765245952,174.12595044168756L535.6241721591902,129.09416964484657L536.6066656110825,173.8457127036253L537.2616612456774,173.88591428567256L537.5891590629748,129.7479668359004L539.226648149462,173.5719460928619L540.2091416013544,173.73087982377396L541.8466306878415,173.76632880133977L542.5016263224364,129.00274423095726L543.8116175916263,173.29634244046605L544.4666132262212,173.860622370552L544.7941110435186,173.77410363560364L545.121608860816,128.8451379107732L545.7766044954109,129.02527465768833L546.4316001300058,128.99871459124736L548.069089216493,128.92957071457764L549.0515826683853,129.04670285943996L549.7065783029802,173.31711878873514L550.6890717548725,174.84620113231065L551.6715652067649,173.8083437212565L552.9815564759547,128.99440050638142L555.2740411970368,129.05375472893232L555.6015390143342,129.445649042604L555.9290368316316,130.80162280499377L558.2215215527137,129.0273013294248L558.8765171873087,173.5678334899815L559.5315128219036,173.72916130095646L560.5140062737959,173.85402087255662L560.8415040910934,129.00456942070824L562.806490994878,172.066140844552L563.1339888121754,178.7914791497201L564.4439800813652,129.00947609964916L565.753971350555,129.0106612877991L566.7364648024474,174.0984896322526L567.0639626197448,173.888012068698L567.3914604370422,173.78977182294634L567.7189582543397,128.93002108607465L568.3739538889345,173.7657599110278L569.3564473408268,129.17023502031216L571.648932061909,173.61787213367356L571.9764298792064,173.7701806628272L573.6139189656936,129.40350375199083L574.2689146002886,173.74276726091824L574.5964124175861,126.548978092769L574.9239102348835,173.7710458501767L577.8713905905604,173.79362368443378L579.1813818597502,173.74971246347707L579.8363774943451,173.8084148325455L580.1638753116425,128.99252790910447L580.8188709462374,131.42664362776608L582.4563600327245,129.00639461045924L582.7838578500222,129.01371907322607L583.438853484617,129.04627619170594L583.7663513019145,171.39005026439708L584.0938491192119,173.8386489822514L585.0763425711042,129.01414574096006L585.7313382056991,131.41372507693134L586.0588360229965,168.81635493731258L586.3863338402939,174.63350726691561L589.333814195971,128.93535443274953L590.3163076478633,171.30028411391774L593.2637880035403,129.01888649356L595.2287749073249,129.0560776977063L595.5562727246223,173.7759525291176L597.521259628407,128.02728697599943L597.8487574457046,129.08511480738073L598.176255263002,173.8402134306094L598.8312508975969,131.47587634351615L600.7962378013816,173.7259138854255L602.7612247051661,173.77818068283958L603.0887225224636,128.9756034223228L605.7087050608432,129.177061704056L606.0362028781407,173.76628139381376L607.018696330033,128.9962019923694L608.0011897819253,176.2497957545665L609.3111810511151,171.30007078005076L609.96617668571,171.30011818757674L611.2761679548997,129.00487756962724L613.2411548586845,131.47672967898413L614.5511461278742,173.75632581335398L614.8786439451716,128.963870059638L615.8611373970639,173.79210664360178L616.5161330316588,129.00238867451228L617.4986264835511,171.3040530122347L618.8086177527409,131.48335488074252L619.4636133873358,129.0122020323941L620.1186090219308,173.8006755539261L620.4461068392282,129.74900980147237L620.7736046565255,174.10128667628655L623.0660893776078,129.01616056081505L623.7210850122026,128.99248050157848L624.0485828295001,173.77189918564468L626.0135697332846,129.0326583798627L626.3410675505822,173.18169919071866L626.6685653678796,173.87880315677268L627.3235610024745,173.8248296884227L627.9785566370693,128.98382862808364L631.9085304446387,173.73001463642444L634.8560108003156,126.50019574851592L636.1660020695055,172.48362337038168L637.8034911559927,129.01351759124057L638.1309889732901,173.76950510558171L639.7684780597774,174.07790291408747L640.0959758770748,129.0123086993276L640.4234736943723,131.46107334352294L641.733464963562,173.941084794054L642.0609627808594,173.74274355715525L644.0259496846442,173.7487643129571L645.335940953834,173.77035844104972L645.6634387711314,129.00972498916065L645.9909365884288,129.00926276578215L646.6459322230237,173.73082056436644L646.9734300403211,173.77308437379466L648.6109191268084,128.74465765941807L649.5934125787007,173.77317918884665L650.2484082132955,174.0662288108102L651.2309016651878,173.77493326730863L652.2133951170802,174.8754515758521L653.1958885689726,129.00423756802624L653.8508842035675,173.42591906090314L655.8158711073521,173.7762606780366L656.1433689246495,131.25608320110277L656.7983645592444,173.8127170655299L657.4533601938394,128.9703885944629L660.4008405495163,131.4760659736202L660.7283383668138,131.4813756165321L661.0558361841112,131.4805222810641L661.3833340014087,128.9975768106234L665.968303443573,129.00724794592716L667.2782947127627,129.00889535745566L668.5882859819525,131.485713405161L668.9157837992499,131.483745992832L669.8982772511422,173.8072296443955L670.2257750684397,176.23931869132068L671.208268520332,176.52701126284632L671.8632641549269,176.22000012447603L672.5182597895217,173.8458075186773L674.1557488760089,173.77586956594712L675.1382423279014,131.51866163573038L675.7932379624963,131.47575782470116L676.1207357797937,128.04978184708605L676.7757314143886,173.96150558587814L677.7582248662809,173.80591408554903L678.7407183181733,129.06797698673205L679.3957139527681,128.98197973456968L680.3782074046604,129.0074375760312L681.3607008565527,129.02374576497488L681.6881986738503,129.00779313247617L682.6706921257424,128.9204684695858L683.6531855776349,173.7925214594543L686.2731681160144,129.00326571374328L686.6006659333118,131.48030894719707L687.2556615679067,129.00850424536617L688.893150654394,173.7811673569775L690.5306397408812,126.53527731775529L690.8581375581787,173.93656922720263L691.1856353754761,129.00648942551123L691.8406310100711,129.22481293461863L692.1681288273685,128.9692034063129L692.8231244619634,174.0608243528463L693.4781200965582,129.0496895335779L694.4606135484505,173.7867258894009L694.7881113657479,173.62266029379944L696.0981026349378,129.1683861267982L697.735591721425,129.05699029258173L698.3905873560199,128.6678574672995L700.3555742598045,176.01067219342696L700.683072077102,129.0014168202293L701.0105698943995,129.2055536271815L701.3380677116969,129.00774572495018L701.6655655289943,128.94365074979936L702.6480589808866,173.8242370943477L703.3030546154815,129.01224943992008L704.2855480673738,129.05472658321528L704.6130458846712,173.77746956994957L705.5955393365637,173.76918510478123L706.2505349711586,173.86413052747594L706.9055306057534,129.00862276418115L707.2330284230509,173.83265193021256L707.5605262403483,173.7833718069365L708.870517509538,128.11892572375578L710.1805087787279,129.04621693229848L710.5080065960253,129.00859906041816L710.8355044133227,129.48973804178323L712.1454956825125,173.7742695619446L712.47299349981,129.03085689387473L713.1279891344049,129.19646323407116L713.4554869517023,173.79669332174223L714.1104825862973,173.7758577140656L714.4379804035947,129.08370443348227L714.7654782208921,131.4210850953427L715.420473855487,128.98235899477766L715.7479716727844,128.9857012253606L716.4029673073793,173.77298955874267L717.3854607592716,173.112389387708L718.0404563938664,173.76991992143422L718.367954211164,129.17224984016713L720.3329411149487,129.0538021364583L720.660438932246,128.48948665072783L720.9879367495435,129.06470586743814L722.2979280187334,173.77559697267262L722.9529236533282,128.99435309885544L723.6079192879231,177.60444210622825L724.9179105571128,173.7809540231105L727.210395278195,173.68562934020778L728.1928887300872,129.2167773589618L728.8478843646822,174.27597155771178L729.5028799992771,131.48166006168807L729.8303778165745,171.29947818597574L731.1403690857642,171.3026781939807L731.7953647203592,173.7440354122387L732.1228625376566,129.00852794912916L732.4503603549541,182.1395645621187L733.4328538068464,129.01082721414014L734.7428450760361,126.54222252031417L735.0703428933335,126.54812475730103L736.052836345226,173.94100183088352L737.0353297971183,129.01528352158405L740.3103079700927,173.87216610313283L740.6378057873902,129.14321273049265L741.6202992392825,173.77854809116607L741.9477970565799,173.69528862363012L742.6027926911748,176.33902857037833L743.5852861430672,129.01310277538806L744.240281777662,173.76945769805573L744.5677795949596,173.70631087342488L745.2227752295544,173.79644443223071L745.5502730468519,173.79419257474575L745.8777708641493,129.02367465368587L746.2052686814467,173.83489193581602L746.8602643160416,173.77289474369067L747.5152599506365,128.99653384505137L747.8427577679339,129.04868212365045L749.1527490371237,128.9954671757164L749.4802468544212,129.18253727330895L750.135242489016,128.0358440344423L751.1177359409083,176.62502632284946L751.7727315755033,129.01399166650057L752.7552250273956,173.82759117681212L756.6851988349649,129.31596575523344L757.9951901041547,128.9861990043836L758.977683556047,176.48759190497805L760.6151726425343,129.76951355646696L761.2701682771291,129.0062760916442L762.2526617290215,129.0490376800954L764.2176486328061,129.0062760916442L764.5451464501035,173.781985136801L765.2001420846984,128.82152896282568L766.1826355365909,129.05235620691536L767.1651289884832,128.2975335779574L767.4926268057806,128.87417502044767L767.8201246230781,128.96398857845298L770.7676049787551,129.05408658161434L771.0951027960525,129.08881259440867L771.4226006133499,173.80994372525896L771.7500984306474,129.0116568458451L772.4050940652422,174.05760064107835L773.0600896998371,129.00857535665517L774.0425831517294,129.05793844310176L775.6800722382167,129.08132220530084L776.3350678728116,129.0059916464882L776.662565690109,173.67184560202355L776.9900635074065,129.00952350717515L777.3175613247039,129.43749494813216L779.9375438630835,171.30148115394923L782.8850242187605,129.00907313567816L784.5225133052477,129.0335117153307L787.1424958436272,129.1728305823606L787.4699936609246,173.77355844905466L788.452487112817,172.61445629025778L789.7624783820067,129.0023175632233L790.7449718338991,173.3417469984917L792.0549631030889,129.02049834944395L793.0374565549813,129.04734286104096L794.0199500068736,129.00774572495018L794.347447824171,128.2868905883706L794.6749456414684,173.83506971403847L795.3299412760633,176.2429927745856L797.9499238144429,129.02576058482987L798.6049194490378,173.45597543238657L799.2599150836327,173.7802666139835L799.9149107182275,174.67098291621792L801.5523998047148,128.98641233825057L803.189888891202,173.77296585497967L805.8098714295816,174.16495498370335L806.1373692468791,130.7439041420898L806.4648670641765,173.76936288300374L807.7748583333662,129.01376648075208L808.7573517852585,174.73987790337614L809.7398452371509,173.62874030900886L812.3598277755304,129.00757979860919L813.0148234101252,128.4645028845263L814.3248146793152,173.98830268994914L814.6523124966126,129.02225242790593L814.97981031391,129.12673861520796L815.3073081312075,129.0015116352813L815.9623037658023,126.87997743929483L816.6172994003972,129.0074612797942L817.5997928522895,129.03741098434412L819.5647797560742,173.77690067963758L820.219775390669,173.78255402711298L822.5122601117512,173.74691541944313L823.822251380941,174.90697758064152L824.4772470155359,173.62933290308382L825.7872382847256,131.52603350602323L826.114736102023,173.77397326490717L826.7697317366179,129.04711767529247L827.7522251885104,132.10909866828638L828.4072208231053,128.82565341758757L829.3897142749976,173.7221212833456L830.0447099095924,173.77213622327469L831.0272033614847,128.93388479944355L831.3547011787821,175.08322691042474L831.6821989960797,129.0492510139624L834.957177169054,173.77159103672568L835.2846749863514,128.8843202310115L835.9396706209465,128.49192813831678L836.2671684382439,176.18783411808565L836.5946662555414,126.53186397588334L836.9221640728388,126.46852752114853L837.9046575247311,126.52515581095446L838.2321553420285,126.57690112558251L838.8871509766234,129.0077220211872L839.8696444285157,173.77028732976072L840.5246400631107,128.93393220696956L841.1796356977055,129.01397981461906L841.8346313323004,173.7478398662001L844.7821116879775,128.97214267292486L845.1096095052749,126.81185282443411L846.0921029571672,173.77308437379466L846.7470985917621,131.47492819299617L847.4020942263569,129.0054701637022L848.0570898609518,129.00784054000218L848.7120854955467,129.00651312927423L849.0395833128442,128.87789651123862L850.0220767647365,129.77580690554336L851.9870636685212,174.62129982897082L852.3145614858186,129.00927461766364L853.6245527550085,173.92218104306187L854.6070462069007,173.7759051215916L855.589539658793,129.0385369130866L856.2445352933879,128.9375588827085L856.5720331106853,129.01497537266505L857.8820243798752,173.64003515207813L859.192015649065,174.58465381137353L860.1745091009573,129.00506719973123L860.5020069182547,174.01468497816765L860.8295047355522,173.76299842263833L861.1570025528496,173.76848584377274L862.139496004742,173.7661154674728L863.4494872739317,128.96249524138403L864.1044829085266,129.0171679707425L865.4144741777163,129.03525394191118L865.7419719950137,129.00004200197532L866.7244654469062,173.7747080815601L868.3619545333934,129.09488075773655L869.3444479852857,173.77455400710065L869.6719458025831,128.9953960644274L870.326941437178,129.01722723015L870.981937071773,132.00522877882233L871.6369327063678,131.47883931389111L871.9644305236653,129.1928721139767L872.9469239755576,173.7741747468926L873.274421792855,128.96055153281804L873.92941742745,173.9427559093455L874.9119108793423,129.0228213182179L875.2394086966398,173.8993187636488L875.8944043312347,176.25730984743737L877.8593912350192,173.77135399909568L878.8418846869115,172.18973226483166L879.8243781388039,128.95649818934515L880.1518759561014,173.77078510878368L881.4618672252911,128.99399754241043L883.4268541290758,131.64906788787246L887.6843257539425,173.7534221023865L888.9943170231323,129.0163146352745L889.6493126577273,173.77685327211157L891.2868017442145,129.12292230936504L892.2692951961068,129.06456364486013L892.9242908307017,128.99364198596544L894.2342820998915,129.08651332939775L895.8717711863786,128.96858710847494L897.1817624555686,129.04478285463702L898.4917537247583,176.24050387947068L899.4742471766506,174.2144721446094L902.4217275323276,173.8189037476728L904.3867144361122,173.82781636256064L907.6616926090867,173.7699317733157L907.9891904263841,129.01125388187413L908.3166882436816,173.82172449546974L909.2991816955739,129.0218968714609L909.6266795128713,129.04675026696597L911.2641685993585,128.98456344473664L911.9191642339534,129.0014405239923L913.2291555031431,129.41300896095362L913.5566533204407,129.01582870813303L913.8841511377381,129.0236865055674L914.2116489550355,174.13510009420543L914.5391467723331,173.7485983866161L914.8666445896305,129.0136479619371L915.1941424069279,128.86450388514385L917.8141249453074,173.7772562360826L918.7966183971997,173.78277921286147L920.7616053009845,173.76389916563232L925.3465747431486,173.76668435778478L925.6740725604461,173.75471395747L926.0015703777435,128.99131901719147L928.2940550988257,173.85923570041652L929.9315441853129,128.97859009646072L930.9140376372052,176.2494639018845L931.5690332718001,126.52733655715042L931.8965310890976,126.47800902634836L932.224028906395,173.79570961557772L932.5515267236925,173.65085591988745L933.8615179928822,173.7597865627519L936.4815005312618,129.00897832062614L936.8089983485593,173.79455998307225L937.7914918004516,173.8877868829495L938.4464874350464,173.77054807115368L938.7739852523439,128.9253277410007L939.4289808869387,128.98795308284556L943.358954694508,129.00376349276627L944.013950329103,128.98269084745968L944.9964437809954,173.806885939832L945.6514394155902,129.00554127499123L947.2889285020774,129.07319181459195L948.2714219539697,173.754453216077L949.253915405862,173.74733023529564L952.2013957615391,129.0136716657001L952.5288935788365,173.69153157719467L953.5113870307288,128.96038560647705L954.4938804826212,127.04170821424083L955.1488761172161,173.77161474048867L955.4763739345135,129.11642747830314L957.4413608382981,130.73058262728406L958.4238542901905,173.78396440101145L958.751352107488,173.81577485095687L960.3888411939752,129.03085689387473L961.0438368285701,129.00952350717515L961.6988324631649,131.4974467678458L962.6813259150573,173.76677917283678L963.0088237323548,129.00551757122824L963.3363215496522,129.00774572495018L965.6288062707342,131.48104376385007L967.2662953572216,128.9358996192985L967.9212909918165,171.45419264707388L968.2487888091139,173.75966804393693L968.5762866264113,173.61737435465056L969.886277895601,173.75167987580608L970.2137757128985,173.78277921286147L972.1787626166832,126.44069930338702L973.4887538858729,174.10704669069543L974.4712473377652,173.80578371485257L974.7987451550626,173.7669095435333L975.4537407896576,173.93074995338623L977.7462255107397,128.93547295156452L978.0737233280372,173.7977125835512L979.7112124145243,129.0069397970082L983.6411862220937,129.02699318050583L985.278675308581,173.94442702463695L985.9336709431758,176.2396742477657L986.2611687604733,129.01089832542914L987.2436622123656,173.75943100630693L987.571160029663,128.88792320298742L990.5186403853401,129.04096654879405L992.4836272891247,173.77922364841154L993.7936185583145,128.95427003562315L994.1211163756119,129.01746426777999L995.4311076448017,129.01111165929612L996.0861032793965,129.0277161452773L996.7410989139914,132.3050339732407L997.3960945485865,129.02752651517332L998.0510901831813,173.77609475169558L999.0335836350736,129.01335166489957L999.3610814523711,173.74414207917218L999.6885792696685,173.77655697507407L1000.6710727215608,176.4161843189419L1000.9985705388582,174.19797432556174L1001.3260683561557,129.0997163253885L1001.6535661734531,173.71645608398873L1002.6360596253455,128.9305899763866L1002.9635574426429,173.79602961637823L1003.2910552599403,126.53378398068631L1004.2735487118326,176.2497009395145L1004.6010465291301,126.50768613762378L1005.2560421637249,171.40514956142778L1005.5835399810225,131.57510029543232L1006.8935312502123,129.05529547352728L1007.5485268848072,173.79330368363327L1007.8760247021046,173.7063582809509L1008.203522519402,129.01646870973403L1009.5135137885918,129.10184966405842L1010.1685094231866,173.74139244266425L1010.8235050577816,128.99994718692332L1011.8059985096739,173.7811910607405L1014.7534788653509,173.74026651392177L1015.7359723172433,173.76350805354284L1016.3909679518381,173.79400294464176L1017.045963586433,128.94630557125532L1017.7009592210279,129.00667905561522" style="fill: none;" fill="none"></path></g></g></g></g></g></g><g transform="translate(50, 378)" clip-path="url(#clip_1)"><clipPath id="clip_1"><rect width="1079" height="22"></rect></clipPath><g><g><line x1="11.955162300576966" y1="0" x2="11.955162300576966" y2="5" style="visibility: inherit;" fill="rgb(0, 0, 0)" stroke="rgb(204, 204, 204)" stroke-width="1px"></line><line x1="175.70407094929902" y1="0" x2="175.70407094929902" y2="5" style="visibility: inherit;" fill="rgb(0, 0, 0)" stroke="rgb(204, 204, 204)" stroke-width="1px"></line><line x1="339.4529795980211" y1="0" x2="339.4529795980211" y2="5" style="visibility: inherit;" fill="rgb(0, 0, 0)" stroke="rgb(204, 204, 204)" stroke-width="1px"></line><line x1="503.2018882467432" y1="0" x2="503.2018882467432" y2="5" style="visibility: inherit;" fill="rgb(0, 0, 0)" stroke="rgb(204, 204, 204)" stroke-width="1px"></line><line x1="666.9507968954653" y1="0" x2="666.9507968954653" y2="5" style="visibility: inherit;" fill="rgb(0, 0, 0)" stroke="rgb(204, 204, 204)" stroke-width="1px"></line><line x1="830.6997055441873" y1="0" x2="830.6997055441873" y2="5" style="visibility: inherit;" fill="rgb(0, 0, 0)" stroke="rgb(204, 204, 204)" stroke-width="1px"></line><line x1="994.4486141929094" y1="0" x2="994.4486141929094" y2="5" style="visibility: inherit;" fill="rgb(0, 0, 0)" stroke="rgb(204, 204, 204)" stroke-width="1px"></line></g><g transform="translate(0, 8)"><text x="11.955162300576966" y="0" dx="0em" dy="0.95em" style="text-anchor: middle; visibility: inherit; font-family: &quot;Helvetica Neue&quot;, sans-serif; font-size: 12px; font-weight: 200;" fill="rgb(50, 49, 63)" stroke="none" stroke-width="1px">0</text><text x="175.70407094929902" y="0" dx="0em" dy="0.95em" style="text-anchor: middle; visibility: inherit; font-family: &quot;Helvetica Neue&quot;, sans-serif; font-size: 12px; font-weight: 200;" fill="rgb(50, 49, 63)" stroke="none" stroke-width="1px">500</text><text x="339.4529795980211" y="0" dx="0em" dy="0.95em" style="text-anchor: middle; visibility: inherit; font-family: &quot;Helvetica Neue&quot;, sans-serif; font-size: 12px; font-weight: 200;" fill="rgb(50, 49, 63)" stroke="none" stroke-width="1px">1k</text><text x="503.2018882467432" y="0" dx="0em" dy="0.95em" style="text-anchor: middle; visibility: inherit; font-family: &quot;Helvetica Neue&quot;, sans-serif; font-size: 12px; font-weight: 200;" fill="rgb(50, 49, 63)" stroke="none" stroke-width="1px">1.5k</text><text x="666.9507968954653" y="0" dx="0em" dy="0.95em" style="text-anchor: middle; visibility: inherit; font-family: &quot;Helvetica Neue&quot;, sans-serif; font-size: 12px; font-weight: 200;" fill="rgb(50, 49, 63)" stroke="none" stroke-width="1px">2k</text><text x="830.6997055441873" y="0" dx="0em" dy="0.95em" style="text-anchor: middle; visibility: inherit; font-family: &quot;Helvetica Neue&quot;, sans-serif; font-size: 12px; font-weight: 200;" fill="rgb(50, 49, 63)" stroke="none" stroke-width="1px">2.5k</text><text x="994.4486141929094" y="0" dx="0em" dy="0.95em" style="text-anchor: middle; visibility: inherit; font-family: &quot;Helvetica Neue&quot;, sans-serif; font-size: 12px; font-weight: 200;" fill="rgb(50, 49, 63)" stroke="none" stroke-width="1px">3k</text></g><line x1="0" y1="0" x2="1079" y2="0" fill="rgb(0, 0, 0)" stroke="rgb(204, 204, 204)" stroke-width="1px"></line></g></g></g></g></svg>