<svg viewBox="0 0 1112.2000732421875 400" xmlns="http://www.w3.org/2000/svg"><g><g><g><g><g><line x1="50" y1="358.09912956070434" x2="45" y2="358.09912956070434" style="visibility: inherit;" fill="rgb(0, 0, 0)" stroke="rgb(204, 204, 204)" stroke-width="1px"></line><line x1="50" y1="319.35873643023433" x2="45" y2="319.35873643023433" style="visibility: inherit;" fill="rgb(0, 0, 0)" stroke="rgb(204, 204, 204)" stroke-width="1px"></line><line x1="50" y1="280.61834329976426" x2="45" y2="280.61834329976426" style="visibility: inherit;" fill="rgb(0, 0, 0)" stroke="rgb(204, 204, 204)" stroke-width="1px"></line><line x1="50" y1="241.87795016929425" x2="45" y2="241.87795016929425" style="visibility: inherit;" fill="rgb(0, 0, 0)" stroke="rgb(204, 204, 204)" stroke-width="1px"></line><line x1="50" y1="203.1375570388242" x2="45" y2="203.1375570388242" style="visibility: inherit;" fill="rgb(0, 0, 0)" stroke="rgb(204, 204, 204)" stroke-width="1px"></line><line x1="50" y1="164.39716390835423" x2="45" y2="164.39716390835423" style="visibility: inherit;" fill="rgb(0, 0, 0)" stroke="rgb(204, 204, 204)" stroke-width="1px"></line><line x1="50" y1="125.65677077788416" x2="45" y2="125.65677077788416" style="visibility: inherit;" fill="rgb(0, 0, 0)" stroke="rgb(204, 204, 204)" stroke-width="1px"></line><line x1="50" y1="86.9163776474141" x2="45" y2="86.9163776474141" style="visibility: inherit;" fill="rgb(0, 0, 0)" stroke="rgb(204, 204, 204)" stroke-width="1px"></line><line x1="50" y1="48.175984516944084" x2="45" y2="48.175984516944084" style="visibility: inherit;" fill="rgb(0, 0, 0)" stroke="rgb(204, 204, 204)" stroke-width="1px"></line><line x1="50" y1="9.435591386474073" x2="45" y2="9.435591386474073" style="visibility: inherit;" fill="rgb(0, 0, 0)" stroke="rgb(204, 204, 204)" stroke-width="1px"></line></g><g transform="translate(40, 0)"><text x="0" y="358.09912956070434" dx="0em" dy="0.3em" style="text-anchor: end; visibility: inherit; font-family: &quot;Helvetica Neue&quot;, sans-serif; font-size: 12px; font-weight: 200;" fill="rgb(50, 49, 63)" stroke="none" stroke-width="1px">-0.9</text><text x="0" y="319.35873643023433" dx="0em" dy="0.3em" style="text-anchor: end; visibility: inherit; font-family: &quot;Helvetica Neue&quot;, sans-serif; font-size: 12px; font-weight: 200;" fill="rgb(50, 49, 63)" stroke="none" stroke-width="1px">-0.8</text><text x="0" y="280.61834329976426" dx="0em" dy="0.3em" style="text-anchor: end; visibility: inherit; font-family: &quot;Helvetica Neue&quot;, sans-serif; font-size: 12px; font-weight: 200;" fill="rgb(50, 49, 63)" stroke="none" stroke-width="1px">-0.7</text><text x="0" y="241.87795016929425" dx="0em" dy="0.3em" style="text-anchor: end; visibility: inherit; font-family: &quot;Helvetica Neue&quot;, sans-serif; font-size: 12px; font-weight: 200;" fill="rgb(50, 49, 63)" stroke="none" stroke-width="1px">-0.6</text><text x="0" y="203.1375570388242" dx="0em" dy="0.3em" style="text-anchor: end; visibility: inherit; font-family: &quot;Helvetica Neue&quot;, sans-serif; font-size: 12px; font-weight: 200;" fill="rgb(50, 49, 63)" stroke="none" stroke-width="1px">-0.5</text><text x="0" y="164.39716390835423" dx="0em" dy="0.3em" style="text-anchor: end; visibility: inherit; font-family: &quot;Helvetica Neue&quot;, sans-serif; font-size: 12px; font-weight: 200;" fill="rgb(50, 49, 63)" stroke="none" stroke-width="1px">-0.4</text><text x="0" y="125.65677077788416" dx="0em" dy="0.3em" style="text-anchor: end; visibility: inherit; font-family: &quot;Helvetica Neue&quot;, sans-serif; font-size: 12px; font-weight: 200;" fill="rgb(50, 49, 63)" stroke="none" stroke-width="1px">-0.3</text><text x="0" y="86.9163776474141" dx="0em" dy="0.3em" style="text-anchor: end; visibility: inherit; font-family: &quot;Helvetica Neue&quot;, sans-serif; font-size: 12px; font-weight: 200;" fill="rgb(50, 49, 63)" stroke="none" stroke-width="1px">-0.2</text><text x="0" y="48.175984516944084" dx="0em" dy="0.3em" style="text-anchor: end; visibility: inherit; font-family: &quot;Helvetica Neue&quot;, sans-serif; font-size: 12px; font-weight: 200;" fill="rgb(50, 49, 63)" stroke="none" stroke-width="1px">-0.1</text><text x="0" y="9.435591386474073" dx="0em" dy="0.3em" style="text-anchor: end; visibility: inherit; font-family: &quot;Helvetica Neue&quot;, sans-serif; font-size: 12px; font-weight: 200;" fill="rgb(50, 49, 63)" stroke="none" stroke-width="1px">0</text></g><line x1="50" y1="0" x2="50" y2="378" fill="rgb(0, 0, 0)" stroke="rgb(204, 204, 204)" stroke-width="1px"></line></g></g><g transform="translate(50, 0)" clip-path="url(#clip_0)"><clipPath id="clip_0"><rect width="1062" height="378"></rect></clipPath><g><g><g><line x1="20.406854572447475" y1="0" x2="20.406854572447475" y2="378" fill="rgb(0, 0, 0)" stroke="rgb(60, 60, 60)" stroke-width="1px" opacity="0.25"></line><line x1="97.96009570739669" y1="0" x2="97.96009570739669" y2="378" fill="rgb(0, 0, 0)" stroke="rgb(60, 60, 60)" stroke-width="1px" opacity="0.25"></line><line x1="175.51333684234592" y1="0" x2="175.51333684234592" y2="378" fill="rgb(0, 0, 0)" stroke="rgb(60, 60, 60)" stroke-width="1px" opacity="0.25"></line><line x1="253.06657797729514" y1="0" x2="253.06657797729514" y2="378" fill="rgb(0, 0, 0)" stroke="rgb(60, 60, 60)" stroke-width="1px" opacity="0.25"></line><line x1="330.6198191122444" y1="0" x2="330.6198191122444" y2="378" fill="rgb(0, 0, 0)" stroke="rgb(60, 60, 60)" stroke-width="1px" opacity="0.25"></line><line x1="408.1730602471936" y1="0" x2="408.1730602471936" y2="378" fill="rgb(0, 0, 0)" stroke="rgb(60, 60, 60)" stroke-width="1px" opacity="0.25"></line><line x1="485.7263013821428" y1="0" x2="485.7263013821428" y2="378" fill="rgb(0, 0, 0)" stroke="rgb(60, 60, 60)" stroke-width="1px" opacity="0.25"></line><line x1="563.279542517092" y1="0" x2="563.279542517092" y2="378" fill="rgb(0, 0, 0)" stroke="rgb(60, 60, 60)" stroke-width="1px" opacity="0.25"></line><line x1="640.8327836520411" y1="0" x2="640.8327836520411" y2="378" fill="rgb(0, 0, 0)" stroke="rgb(60, 60, 60)" stroke-width="1px" opacity="0.25"></line><line x1="718.3860247869904" y1="0" x2="718.3860247869904" y2="378" fill="rgb(0, 0, 0)" stroke="rgb(60, 60, 60)" stroke-width="1px" opacity="0.25"></line><line x1="795.9392659219396" y1="0" x2="795.9392659219396" y2="378" fill="rgb(0, 0, 0)" stroke="rgb(60, 60, 60)" stroke-width="1px" opacity="0.25"></line><line x1="873.4925070568889" y1="0" x2="873.4925070568889" y2="378" fill="rgb(0, 0, 0)" stroke="rgb(60, 60, 60)" stroke-width="1px" opacity="0.25"></line><line x1="951.0457481918381" y1="0" x2="951.0457481918381" y2="378" fill="rgb(0, 0, 0)" stroke="rgb(60, 60, 60)" stroke-width="1px" opacity="0.25"></line><line x1="1028.5989893267872" y1="0" x2="1028.5989893267872" y2="378" fill="rgb(0, 0, 0)" stroke="rgb(60, 60, 60)" stroke-width="1px" opacity="0.25"></line></g><g><line x1="0" y1="358.09912956070434" x2="1062.2" y2="358.09912956070434" fill="rgb(0, 0, 0)" stroke="rgb(60, 60, 60)" stroke-width="1px" opacity="0.25"></line><line x1="0" y1="319.35873643023433" x2="1062.2" y2="319.35873643023433" fill="rgb(0, 0, 0)" stroke="rgb(60, 60, 60)" stroke-width="1px" opacity="0.25"></line><line x1="0" y1="280.61834329976426" x2="1062.2" y2="280.61834329976426" fill="rgb(0, 0, 0)" stroke="rgb(60, 60, 60)" stroke-width="1px" opacity="0.25"></line><line x1="0" y1="241.87795016929425" x2="1062.2" y2="241.87795016929425" fill="rgb(0, 0, 0)" stroke="rgb(60, 60, 60)" stroke-width="1px" opacity="0.25"></line><line x1="0" y1="203.1375570388242" x2="1062.2" y2="203.1375570388242" fill="rgb(0, 0, 0)" stroke="rgb(60, 60, 60)" stroke-width="1px" opacity="0.25"></line><line x1="0" y1="164.39716390835423" x2="1062.2" y2="164.39716390835423" fill="rgb(0, 0, 0)" stroke="rgb(60, 60, 60)" stroke-width="1px" opacity="0.25"></line><line x1="0" y1="125.65677077788416" x2="1062.2" y2="125.65677077788416" fill="rgb(0, 0, 0)" stroke="rgb(60, 60, 60)" stroke-width="1px" opacity="0.25"></line><line x1="0" y1="86.9163776474141" x2="1062.2" y2="86.9163776474141" fill="rgb(0, 0, 0)" stroke="rgb(60, 60, 60)" stroke-width="1px" opacity="0.25"></line><line x1="0" y1="48.175984516944084" x2="1062.2" y2="48.175984516944084" fill="rgb(0, 0, 0)" stroke="rgb(60, 60, 60)" stroke-width="1px" opacity="0.25"></line><line x1="0" y1="9.435591386474073" x2="1062.2" y2="9.435591386474073" fill="rgb(0, 0, 0)" stroke="rgb(60, 60, 60)" stroke-width="1px" opacity="0.25"></line></g></g></g><g><g><line x1="0" y1="9.435591386474073" x2="1062.2" y2="9.435591386474073" fill="rgb(0, 0, 0)" stroke="rgb(153, 153, 153)" stroke-width="1.5px"></line></g></g><g><g><line x1="97.96009570739669" y1="0" x2="97.96009570739669" y2="378" fill="rgb(0, 0, 0)" stroke="rgb(153, 153, 153)" stroke-width="1.5px"></line></g></g><g><g><g><g><g><path stroke="rgb(255, 112, 67)" stroke-width="2px" d="M98.70460682229222,458.2811290795606L99.9454586804514,232.67609903530158L100.31771423789915,157.54008807149515L101.06222535279466,120.02127182942456L103.04758832584938,97.54928812709176L103.2957586974812,167.51231389750927L103.54392906911305,142.78885679023102L103.66801425492895,124.30296750516791L103.91618462656079,109.9752587870218L104.66069574145631,98.55807409581405L104.78478092727222,89.25743379399466L105.03295129890407,130.4999540707549L106.14971797124734,118.97742417747116L106.89422908614286,153.08775603980465L107.01831427195876,140.53547173308525L107.14239945777469,129.62352699212641L107.2664846435906,158.74291190180756L107.8869105726702,184.43882518535202L108.87959205919755,171.10143957240538L109.74818835990898,159.19584608718304L110.74086984643633,148.51656743230294L111.11312540388408,172.17383565897126L111.2372105897,193.57095547268324L112.10580689041144,181.19673742195332L112.72623281949103,169.9287415700496L113.71891430601838,159.63793601913312L114.21525504928205,150.2143709864269L115.33202172162532,141.56377331605646L115.70427727907308,162.68975593938532L116.69695876560043,153.5003257929339L117.31738469468002,145.01193406983543L117.68964025212779,165.08052722749036L118.80640692447105,183.6814946451249L118.93049211028696,200.94801498970122L120.04725878263024,216.99847525167868L120.17134396844615,205.2052941767991L120.79176989752575,194.21517864132102L121.03994026915758,210.21501005937546L121.1640254549735,199.12095999881473L121.66036619823717,188.74951305995356L122.65304768476453,179.04466131636406L123.64572917129188,195.42494847386067L123.76981435710779,210.7780570571178L123.89389954292372,200.03175104256087L124.39024028618739,214.94600336212324L125.75517733016251,204.09067070192498L126.49968844505801,193.88794845164145L127.1201143741376,184.29295689337113L127.49236993158536,199.764524076537L128.9813921613764,189.9376192228189L129.7259032762719,204.97318062807003L130.3463292053515,219.14174136019508L130.71858476279925,232.49918747610883L131.2149255060629,221.07574878893223L131.7112662493266,210.29770446468112L131.95943662095846,223.99075276616495L134.3170551514609,213.12480132771742L134.93748108054046,226.5895169150946L135.0615662663564,239.31061980007013L135.681992195436,251.3325613248587L136.17833293869967,262.6970136782111L136.3024181245156,273.44265711978085L136.5505884961474,260.16346212671397L137.54326998267476,270.99542634855L137.6673551684907,257.8961462368478L138.41186628338622,245.49895425658798L138.53595146920213,233.7639167580715L138.66003665501805,222.65360386102859L139.03229221246582,235.3226059213471L140.14905888480905,247.32132734808982L141.1417403713364,235.56463615238582L143.12710334439114,247.5178017073551L143.6234440876548,258.8436408971981L144.36795520255032,246.54254303391878L144.86429594581398,234.8840320273849L145.11246631744584,223.83321080685332L146.60148854723684,236.31612805622507L146.72557373305278,248.15102747611883L148.71093670610747,236.45764472219298L150.32404412171442,225.36908186568746L150.4481293075303,237.7288694006779L150.69629967916217,249.45142503668512L151.44081079405765,237.73033935597778L152.55757746640094,226.61170883127852L152.8057478380328,238.87207734847553L152.92983302384872,250.50396119178535L153.30208858129646,261.5402937222454L154.04659969619198,272.0123855608029L155.16336636853524,259.19581280052483L155.535621925983,247.03320850362365L155.65970711179892,258.22106461819124L156.77647378414218,246.1194654248088L156.9005589699581,257.3430436982784L158.76183675719687,267.99612514085135L159.01000712882873,278.10806653077583L159.25817750046056,287.7067817255032L160.99537010188342,274.1452492549837L161.61579603096303,283.93667996179283L161.86396640259485,270.5740238379178L162.23622196004263,257.8876707960311L163.22890344656997,245.8430000462555L163.97341456146546,234.40718955290055L164.22158493309732,223.5491669733254L164.59384049054506,213.2394465872465L165.3383516054406,226.07076779484058L165.95877753452015,215.63927669661857L167.19962939267936,228.34436702995495L167.44779976431118,240.40903320273796L167.94414050757487,229.26444882963335L168.6886516224704,218.68116032055593L169.18499236573408,208.63071394237554L169.30907755155,221.67549601679045L169.9295034806296,211.47818936532764L170.17767385226142,224.37610695976414L170.30175903807734,236.62553640462886L170.54992940970916,248.25913117025783L170.79809978134102,259.30804846456147L170.92218496715694,269.80187923790993L171.54261089623654,257.20107357819387L171.66669608205243,245.23307215303754L172.7834627543957,256.42857445820124L173.52797386929123,267.0621358334116L173.77614424092306,254.60380495457989L174.39657017000266,242.77061871111445L175.01699609908226,254.08527058769002L175.26516647071406,264.8323752968742L176.7541887005051,275.040487522338L177.62278500121656,284.73304483361443L177.74687018703244,293.9432904971293L177.9950405586643,280.1460543260142L178.11912574448021,267.040341809309L178.24321093029616,254.59151247509004L178.36729611611204,242.7665187351884L178.6154664877439,231.53401134055116L178.98772204519165,220.86427843730425L179.4840627884553,233.26721444207908L180.1044887175349,222.51177402469168L180.47674427498268,212.29503702130086L180.97308501824634,225.12510625907257L181.3453405756941,237.31276182891705L181.71759613314185,226.35665677984053L181.8416813189578,215.94913368522705L182.21393687640554,206.06268226050196L182.33802206222146,196.67118896262102L182.7102776196692,187.7498259981146L182.83436280548514,179.27505108171283L183.45478873456472,193.75364779662638L183.57887392038063,207.5075480563387L184.44747022109206,220.57311073223664L184.81972577853983,210.4573003435597L185.31606652180352,200.84773690917837L185.68832207925126,191.71905787382846L186.18466282251492,205.57311926630956L186.6810035657786,218.73397059692718L187.17734430904227,231.23616446972247L187.54959986649,243.11304749867028L187.67368505230596,254.39565227224818L187.79777023812187,242.58976432242486L188.6663665388333,253.89812834343726L189.41087765372882,264.64084297614784L189.65904802536065,274.8461338031657L189.78313321117656,262.01813490349394L190.27947395444025,249.83184390515362L190.7758146977039,238.25514537706044L191.14807025515168,249.7794466031869L191.2721554409676,238.20561869983536L191.3962406267835,249.73225654233968L191.64441099841537,260.6822629347253L191.8925813700472,248.5635084198695L193.00934804239046,237.05090748572886L193.1334332282064,226.1141291766316L193.50568878565414,238.24492231772382L193.62977397147006,249.76900145465834L193.75385915728597,238.19647704005268L194.00202952891783,249.72263203253542L194.12611471473375,238.15257704871382L194.87062582962923,227.16116025319647L195.36696657289292,239.23897006314724L195.49105175870883,250.7127086710217L195.7392221303407,239.09340268305098L195.98739250197252,228.05517797370268L196.35964805942027,217.5689500469949L196.48373324523618,207.60711508789166L196.60781843105212,198.14347120635372L196.73190361686804,189.1530835880731L197.10415917431578,180.61228052167596L197.60049991757947,195.01725095153174L198.22092584665907,208.70194161009852L198.34501103247499,199.18371372755252L198.46909621829087,190.14146424702867L199.21360733318642,181.5513782799251L199.9581184480819,173.39084319484488L200.4544591913456,165.6383774827338L200.82671474879336,180.7918697827595L201.32305549205702,172.66937391895942L201.8193962353207,164.95304334373935L202.06756660695254,180.14069376045398L202.6879925360321,194.5689126595439L203.06024809347988,185.75759478898456L205.66603699561418,199.90493417192175L205.914207367246,190.82685074134054L206.03829255306195,182.20268479325438L206.5346332963256,196.52763270335055L206.78280366795744,210.13624736756324L207.27914441122113,200.54662893210485L207.52731478285295,213.95419530380855L208.51999626938033,226.69154364236596L209.26450738427582,216.27417131348173L209.76084812753948,228.89534702978457L210.62944442825093,218.36781565290076L210.75352961406682,208.36668238740222L210.87761479988276,221.38319334319334L211.00169998569868,233.74883393013457L211.62212591477828,245.49598375198764L211.8702962864101,234.13845011468337L212.24255184385788,223.34882037916168L212.36663702967377,213.09868893761706L212.61480740130563,203.36107929289875L213.60748888783297,216.62785706754565L213.73157407364891,229.23135273601852L214.10382963109666,241.20464894286826L214.9724259318081,230.06175397400844L215.34468148925586,219.47601665192425L216.4614481615991,209.41956634729976L216.70961853323095,222.3833772638623L216.83370371904687,234.69905000018267L216.95778890486278,223.88146006997368L217.33004446231055,236.12217307636357L217.45412964812644,247.75074580888455L217.95047039139016,236.2805699036357L218.57089632046973,225.3838904256217L218.69498150628564,237.549383965252L219.19132224954933,249.10659246474225L219.31540743536524,237.56864790097197L219.43949262118116,249.12500600359462L219.56357780699707,237.58612109671495L220.05991855026073,226.62422360325718L220.18400373607668,238.72772909223826L220.55625929352442,227.70874442094876L220.68034447934033,239.75797847949218L221.67302596586768,228.6874792854028L222.16936670913137,240.6877965099182L222.41753708076322,229.570823554042L222.66570745239503,219.0096716819022L222.78979263821097,208.97661524095366L223.65838893892237,199.44521387724564L223.78247412473831,190.39036199059657L223.90655931055423,181.78827568029774L224.27881486800197,196.13352424329568L225.39558154034526,187.24426942948844L225.89192228360892,178.79948719860167L226.8846037701363,170.7769536935684L227.13277414176812,163.15554819050314L228.3736259999273,178.43236130617473L230.1108186013502,170.42817826010312L232.8406926893004,185.34127506027033L233.33703343256408,176.99166000466144L234.8260556623551,191.5769163778566L235.07422603398692,182.91550582777498L235.57056677725058,197.20447221340518L236.06690752051426,188.26169815277905L237.0595890070416,202.2833545918895L238.05227049356898,193.08659525711033L238.54861123683267,206.8669745127964L239.78946309499185,197.44106977375526L240.03763346662367,188.48645737909814L240.2858038382555,202.49661491012165L242.2711668113102,193.28922948790927L243.76018904110123,184.5422108349049L244.7528705276286,198.74973103163538L245.00104089926043,212.24688542471867L245.2492112708923,225.06926632642345L247.48274461557878,214.73323577460064L247.97908535884247,227.43123562403576L248.72359647373798,239.49425830539104L250.21261870352902,228.43697713222576L252.1979816765837,240.4498365161606L252.6943224198474,251.862086776689L257.6577298524842,240.18642877865852L257.90590022411595,229.0945509105672L258.8985817106433,241.0745185373821L259.14675208227516,252.4554086307823L259.394922453907,240.7500731449912L263.8619891432801,229.63002289553992L265.1028410014393,219.06598144256114L266.8400336028621,231.54741090233253L267.088203974494,220.88745717585982L268.577226204285,210.76054254256184L269.07356694754867,201.13997459741617L270.3144188057079,214.51762290608224L270.81075954897153,227.22631907397576L271.3071002922352,216.78246023624288L272.29978177876256,229.37799722385157L274.781485495081,218.82655592134194L276.76684846813566,208.80268928350577L277.01501883976744,199.28001739423746L277.26318921139926,212.75065295036885L277.759529954663,203.03058306893067L279.7448929277177,216.31370845531475L280.48940404261316,228.93274656269563L281.97842627240425,218.40356523258575L282.47476701566785,230.91815640835176L282.97110775893157,242.8067891951254L283.2192781305634,254.1011240645628L283.96378924545894,264.83085515066705L284.4601299887226,252.50677089604747L285.20464110361814,263.3161225016133L287.19000407667284,251.06777738229L288.9271966780957,261.949092374861L290.41621890788673,272.2863299335001L291.40890039441405,282.1065530878675L291.6570707660459,291.4359843367182L291.9052411376777,277.78162672992346L292.1534115093096,287.32720723403196L293.64243373910057,296.3956056012608L296.124137455419,305.01034150882197L296.6204781986826,313.19455990950485L297.3649893135782,320.9694564837494L297.61315968521,305.83844401217146L298.3576708001055,291.4639863206427L299.84669302989647,277.80825450434253L300.3430337731602,264.83529725014444L301.0875448880557,275.02814311195635L301.83205600295116,284.71132352621197L302.57656711784676,271.39320253429986L302.82473748947854,258.74098824401165L304.31375971926957,246.72138993119282L307.29180417885163,235.30276235847046L310.0216782668018,224.45507199210203L311.01435975332924,214.1497742755198L313.2478930980157,204.35974957139925L314.4887449561749,195.0592244110467L314.7369153278068,186.2237272769967L315.4814264427023,200.3472092274106L315.7295968143341,191.24729151708533L316.2259375575978,205.11963907035076L316.4741079292296,218.29833456505324L321.43751536186636,230.81818530024097L321.6856857334982,242.712036535274L321.9338561051301,231.4938901741062L323.1747079632893,243.35387762238145L323.91921907818477,232.10364962624027L324.9119005647121,243.9330613258316L325.4082413079758,255.17117328801916L326.4009227945032,243.3300539802887L326.64909316613495,232.08101663922872L327.3936042810305,243.9116869389243L328.38628576755787,255.15080984750705L328.88262651082147,243.31071626174636L332.35701171366725,232.06264180659932L334.59054505835377,243.89420078867158L334.8387154299856,232.61693365141096L337.56858951793583,221.90354143239628L339.5539524909905,211.72582865233974L339.80212286262235,224.5742652171143L340.5466339775179,214.26298681804164L341.0429747207815,226.98439458369035L341.2911450924134,239.06982200241362L343.2765080654681,228.0337923287796L343.5246784370999,217.54954798590467L343.7728488087318,230.10668077482342L344.7655302952591,219.51879894584738L345.26187103852277,209.4603146808888L345.7582117817865,222.42200610445136L347.7435747548412,212.21836841584988L348.9844266130004,202.52488895068774L349.23259698463215,215.83333317582026L349.9771080995277,205.95911817824617L351.71430070095056,196.57860931844246L354.6923451605326,187.6671391845076L355.93319701869177,179.20124198496643L356.18136739032366,171.15864080444481L356.6777081335873,163.51817026427736L356.92587850521915,156.25971921383652L358.4149007350102,149.36416358720572L360.15209333643304,142.81341287689622L360.40026370806487,159.10700831534797L362.6337970527514,152.0691020921015L363.62647853927876,167.90032639199356L364.1228192825424,182.940012562396L365.1155007690698,197.22762667317193L367.3490341137563,188.28369010837315L369.0862267151792,202.30421500993174L369.334397086811,193.1064530712217L370.5752489449702,184.36857865467385L372.5606119180249,198.5848521962122L373.05695266128856,189.57305609318814L374.7941452627115,203.52908728585788L375.04231563434325,216.78723840614933L376.0349971208706,229.38263667782803L377.27584897902983,218.8309461562305L378.0203600939254,231.3239627635689L378.516700837189,220.6752151759487L379.2612119520845,210.55890612408996L380.00572306698007,200.94841137191915L380.9984045535074,191.81843731790687L382.9837675265621,183.14496023610744L384.96913049961677,174.90514257768888L385.4654712428804,167.07734813078824L385.96181198614414,159.64094456177335L386.70632310103963,175.09345431641174L386.9544934726715,189.77355332854538L388.4435157024625,181.2023308405977L388.6916860740943,195.5768012960393L390.677049047149,209.23259210034635L391.4215601620446,199.68840151046606L391.6697305336764,213.13869312136754L391.9179009053082,203.39920844937748L392.1660712769401,216.66397818492348L392.6624120202037,206.74822695129268L393.4069231350993,197.3282661664388L395.1441157365221,210.896532214506L395.392286108154,223.78621408534602L397.1294787095768,236.03134951595226L397.3776490812087,247.66435286611087L397.6258194528405,236.19858751772966L399.85935279752704,247.82332825876645L400.85203428405435,258.8668365803839L401.34837502731807,269.35807712110005L401.5965453989499,279.32486878056744L402.09288614221356,288.7932123285869L403.33373800037276,275.2710092033985L403.5819083720046,262.42490815311777L404.07824911526825,250.22112658774518L404.32641948690014,261.1446849544553L404.57458985853197,249.00491512674026L405.81544171669117,237.47210665878268L409.28982691953684,249.03306522123393L411.5233602642234,237.49885733077295L413.01238249401445,249.05858688734145L414.7495750954373,260.04036691150225L414.99774546706914,247.95579566868406L417.2312788117557,236.4754599156093L418.9684714131785,248.08629237826779L420.9538343862332,259.1166594180934L421.2020047578651,269.5955473605336L421.9465158727606,257.03323614596223L423.68370847418345,245.09902779225447L424.1800492174471,256.27863336918995L425.1727307039745,244.38216092729888L427.65443442029283,233.08051210768545L427.90260479192466,244.86117046957543L428.64711590682015,233.53556309113446L429.88796776497935,245.29354279512128L430.8806492515067,256.4636004226876L434.1068640827206,267.0750812773066L434.6032048259843,277.1560181074705L434.8513751976161,264.2156695018661L436.34039742740714,274.4395168839162L436.588567799039,261.63499911240297L436.83673817067086,249.47070030226135L437.3330789139345,260.4318584901084L437.8294196571982,270.844933368291L440.80746411678024,258.22010955891L444.03367894799413,268.74358946409586L445.2745308061533,278.7410939571813L446.7635530359443,265.72149040503365L448.25257526573535,275.8701113965508L448.5007456373672,285.5113036475374L449.9897678671582,294.6702607937584L450.9824493536856,280.85419832262176L451.47879009694924,267.7289389751143L451.9751308402129,277.7772683567365L453.46415307000393,287.3229965406404L454.2086641848995,296.3914775701315L454.70500492816313,282.489360610386L455.4495160430586,291.79960887333334L456.19402715795417,300.64422003129937L456.93853827284966,309.04669992295175L459.17207161753623,294.51182473203517L459.66841236079983,280.70368406428304L462.64645682038196,267.58595851183765L462.89462719201373,277.64120138747637L463.1427975636456,287.1938553023575L466.61718276649134,273.751618301673L467.6098642530187,260.9814833373506L468.60254573954603,248.84986955319644L469.5952272260734,237.32483761283171L469.84339759770523,248.89322427945578L470.5879087126007,259.88324010397935L471.0842494558644,247.8065384815481L471.5805901991281,258.8508031589736L473.5659531721828,269.342953894125L474.06229391544645,279.3103816371325L474.806805030342,288.77943106565147L475.5513161452375,297.77492873111305L476.29582726013297,283.8036334409304L476.7921680033967,293.0482304080061L477.53667911829217,301.8304635984882L478.28119023318766,287.6563857921942L478.52936060481954,296.70826201382124L356.6777081335873,305.3075051695315L359.2834970357216,313.4768184949502L361.1447748229604,298.72043679850344L361.5170303804082,284.7018678368481L361.8892859378559,271.3842279005651L362.6337970527514,258.73247804298376L363.00605261019916,246.71331221463083L363.75056372509465,257.81230978761334L364.4950748399902,245.83915699025354L365.9840970697812,234.46465490544807L367.47311929957226,223.65888138855152L369.334397086811,235.91055201157468L370.0789082017065,225.03249056670046L372.68469710384085,237.21557309510314L373.42920821873633,248.78951766083063L373.8014637761841,237.26749696523953L374.91823044852737,248.83884302834676L375.6627415634229,237.31435490983188L377.1517637932139,226.36609466090894L378.26853046555715,238.48236998367736L379.0130415804527,249.99282923119512L379.7575526953482,238.4106429571011L380.12980825279595,249.92479246577494L383.8523638272735,238.34600687540245L384.2246193847213,227.3461594099987L385.7136416145123,239.41358158727832L386.8304082868556,228.3603386452556L387.94717495919883,217.8597711277045L388.3194305166466,207.88424584067803L389.4361971889898,220.9247960239225L389.8084527464376,233.3131131874456L390.5529638613331,245.0821715120909L392.41424164857193,233.74551177392598L392.78649720601965,222.97569079544L395.392286108154,212.74435913405L395.7645416656017,225.5416750509871L397.25356389539274,215.18204071316035L397.99807501028823,205.34038058762766L398.7425861251837,195.9908259821701L400.2316083549748,209.62566384650432L403.9541639294523,222.579078474437L404.6986750443479,234.88470460649535L405.4431861592434,224.05788761794787L405.81544171669117,236.28959638390268L407.30446394648214,247.9097635845984L408.4212306188254,258.9489639891907L411.39927507840747,269.436208991767L412.8882973081985,256.8818531523984L414.0050639805418,244.9552024049088L418.0998751124671,256.1421377958056L419.5888973422581,266.7694885790974L420.33340845715367,276.8656496244913L421.45017512949687,263.93981482616687L422.1946862443924,274.17753345064244L422.56694180184013,261.3861044610115L423.3114529167357,271.75146242159667L424.0559640316312,259.08133582886535L424.428219589079,269.5619991851711L425.1727307039745,279.5185046818629L425.91724181886997,288.9772611042629L426.28949737631774,297.96306585089815L427.7785196061087,306.49955726912754L428.1507751635565,314.6092472075186L428.89528627845203,299.79623310732313L430.0120529507953,285.72386798030743L431.87333073803404,272.3551084095526L436.34039742740714,282.17203464556667L437.8294196571982,291.4980198963775L438.94618632954143,277.8405752436167L442.668741904019,287.3832881747186L444.90227524870556,296.4488954776609L445.2745308061533,305.06121779724117L446.0190419210488,313.242730035823L447.1358085933921,298.49805911252014L448.25257526573535,284.4906153853375L448.6248308231831,293.7007454905945L448.9970863806309,279.93315820807913L452.71964195510844,266.8539525987971L453.0918975125562,276.94586504301884L453.46415307000393,264.01602178288283L454.2086641848995,274.2498076768264L458.6757308742725,283.9718557848178L459.0479864317203,293.20797928867705L459.42024198916806,301.9823404903833L459.7924975466158,287.8006757669868L462.77054200619784,274.3280948570372L466.1208420232276,284.0463532978157L467.98211981046643,270.76149255226267L472.4491864998395,280.6580741809578L477.6607643041081,267.5426221957562L478.7775309764514,255.08293068700124L479.14978653389915,265.7634311725298L479.52204209134686,275.9099874525398L480.26655320624235,285.54902426263743L483.2445976658245,272.18902881429017L483.98910878071996,259.49701870643935L484.73361989561545,247.43961718585692L485.47813101051094,258.50234569234135L489.20068658498855,269.0119377735016L492.1787310445706,256.47877471309147L492.5509866020184,267.0895684342878L494.41226438925713,277.1697301051295L496.6457977339437,286.7457613097383L499.6238421935257,295.84315259163253L501.8573755382123,304.4856142726405L502.22963109566,312.6959759606716L502.9741422105555,320.4957733821538L503.71865332545104,305.3884427869386L505.57993111268985,313.5537646499791L512.6527867041972,298.79351197757586L513.3972978190926,307.2885272716149L514.8863200488837,292.84153127263835L515.2585756063314,279.1169156692833L518.981131180809,266.07853315520344L519.7256422957045,276.20932971786436L520.8424089680477,263.31632419224815L521.2146645254956,273.58518963912405L521.5869200829433,283.3405379222204L525.3094756574209,270.0909702545558L525.6817312148686,257.5038659610767L526.7984978872119,268.0633751014775L527.5430090021074,278.09496651254256L529.0320312318984,287.6250014441281L529.7765423467939,296.67839608269196L530.8933090191372,305.27914869861615L531.6378201340326,290.9326435648098L532.3823312489283,277.3034659968011L533.1268423638238,264.35574615263926L536.4771423808535,274.5726635925692L537.9661646106446,261.76148271406527L539.4551868404357,272.10792167001216L540.1996979553311,281.93716336995965L541.3164646276743,268.75776096624736L542.4332313000176,278.7545730472822L544.6667646447041,288.2515191240841L545.039020202152,297.2735786422207L546.5280424319429,305.8446529489263L547.6448091042863,291.46988414814143L548.7615757766295,277.8138497464579L549.506086891525,264.8406176421354L552.8563869085548,275.0333376897379L553.9731535808982,262.199125415483L554.3454091383458,250.00661740489562L554.7176646957936,260.9409959004275L555.0899202532413,271.328595434391L556.2066869255846,281.19674110022055L557.6957091553757,290.5715810834829L559.9292425000622,276.96045086677236L560.3014980575099,286.54702685205655L561.4182647298533,295.6540893094868L564.3963091894352,281.7888232904929L566.2575869766741,291.13410765549645L567.3743536490173,300.012042365277L568.4911203213605,308.44609419421283L568.8633758788083,316.4585404142114L569.6078869937038,301.5530668491792L570.7246536660471,309.9100951632083L571.0969092234949,317.8492466613549L571.8414203383904,325.3914729120974L574.074953683077,310.0393532994477L575.1917203554201,295.4548413992611L576.3084870277635,304.11674634917557L576.6807425852112,289.82836421922565L578.1697648150023,298.7714960456324L580.4032981596888,307.2675036082219L585.2426204065096,292.8215761107207L586.7316426363006,301.6150404152305L587.4761537511961,309.9690347059635L589.3374315384349,317.9051838083954L591.1987093256737,325.44456701963844L594.5490093427036,332.60700185228563L596.0380315724946,339.4113126341931L597.5270538022855,345.87539171325363L598.6438204746288,329.4990611513482L604.2276538363452,336.4587412590141L607.9502094108227,320.5532409107133L608.3224649682704,305.44303693907085L608.6947205257183,313.60536354715674L609.8114871980615,321.3597700989648L612.045020542748,306.2092373588024L614.2785538874346,291.81623587386275L614.6508094448824,278.14286714486485L615.0230650023301,287.6702368792716L615.3953205597779,296.7215498564531L615.7675761172256,305.3202209842323L616.1398316746734,290.9716662770833L616.5120872321211,299.8577022738182L619.4901316917033,285.7822596475457L628.0520095130016,294.92779830326066L628.4242650704493,281.09886761654445L628.796520627897,290.4786105104201L631.4023095300314,276.87213055419323L635.4971206619567,263.94597863671567L636.2416317768523,274.1833936888711L637.7306540066432,261.3916745737218L640.7086984662252,249.23953390973088L641.080954023673,237.6950112471996L642.1977206960163,249.24489615918029L642.9422318109118,260.21741151736L643.3144873683596,248.12400132449247L644.0589984832551,259.15244365993067L651.1318540747624,269.62949158788535L652.9931318620013,279.58250008174525L654.1098985343446,266.5207910103416L655.2266652066877,254.11217316527654L658.5769652237176,242.32399718072483L658.9492207811654,231.12526059107336L661.182754125852,243.00372540015516L661.9272652407474,231.77098623578058L662.2995207981952,221.09990077065316L664.5330541428817,233.47951118806532L665.6498208152249,222.7229786933573L666.0220763726727,212.50428436892156L667.8833541599115,225.31360402409183L668.627865274807,214.96538189678043L669.3723763897026,227.6517690582484L670.4891430620457,239.70376989752924L670.8613986194936,228.6360406310996L673.8394430790755,218.12169494160725L675.7007208663143,230.65036574245082L676.4452319812099,220.03530264283722L676.8174875386577,209.95098288449796L677.1897430961054,200.37088892778198L681.2845542280307,213.78694993733777L685.0071098025082,204.01506051436405L687.9851542620904,217.24902839995926L694.3134987387022,207.3040379402387L696.1747765259411,220.3735038450706L696.9192876408365,232.789360217326L697.2915431982842,222.06734739396867L698.4083098706275,234.39869400826154L702.1308654451051,246.1134201823702L704.3643987897916,234.72520840169852L705.8534210195827,246.4235672922027L707.7146988068214,257.53707982051014L708.4592099217169,245.57766138958092L709.2037210366124,234.21625602140767L709.948232151508,223.4228989851231L710.6927432664036,235.68652574754245L712.1817654961945,247.33697117184084L712.5540210536423,235.8875853053567L713.6707877259855,247.52785998728848L714.0430432834332,236.06892794820143L714.4152988408811,225.18291941999505L715.904321070672,237.35834657743698L716.6488321855676,226.40788963156564L717.7655988579108,238.52190202269827L718.1378544153586,250.03036157714604L718.8823655302541,238.44630214945872L720.7436433174929,227.44144280677156L721.4881544323883,216.9868241221114L721.8604099898362,207.0549398353453L722.2326655472839,197.61964629925643L724.4661988919705,211.17336642274802L725.210710006866,201.532159061888L726.3274766792092,192.37300918268673L729.677776696239,206.18890876092036L730.7945433685824,219.3141542157919L731.5390544834778,209.26590746527967L732.2835655983733,199.7200638158636L733.0280767132689,190.651505998873L479.77021246297875,182.03637029996358L484.2372791523518,196.36921727770184L486.22264212540654,209.98546577959326L487.21532361193385,200.40364710084572L488.70434584172483,213.81814178407677L492.67507178783427,204.04469969608817L494.66043476088896,194.75991354874745L496.6457977339437,185.93937883158748L499.6238421935257,177.55986969573175L503.09822739637144,169.59932389385514L504.09090888289876,184.55407168315372L506.57261259921717,198.76110748316836L510.04699780206283,189.74050614196523L511.53602003185387,181.17093371326854L512.0323607751176,173.02984279239087L514.5140644914359,187.813048473011L515.0104052346996,201.85703845102324L515.5067459779632,215.19881969370536L516.4994274644906,227.8734633829986L517.9884496942816,239.91455730730954L520.4701534106,251.35343489788886L521.959175640391,262.2205279373478L522.4555163836548,250.02696423258834L523.4481978701821,238.4430740948521L526.4262423297641,227.43836230025101L531.3896497624008,239.5010173136801L534.8640349652466,228.44340373992293L536.3530571950376,217.93869162681995L536.8493979383013,207.9592243558016L540.323783141147,220.99588475770796L540.8201238844107,233.3808483768539L541.3164646276743,245.14653379664668L541.812805370938,233.8066241940517L544.2945090872564,223.03375914011804L545.7835313170474,212.79953502977372L557.6957091553757,203.07700192025715L559.1847313851666,193.8405960434932L560.177412871694,185.06602027427377L562.6591165880124,176.730181952668L564.1481388178034,168.81111880611405L564.6444795610671,161.2880151669331L565.6371610475944,176.65819908256495L566.1335017908582,168.74274373866882L569.6078869937038,161.22305538919903L570.6005684802311,154.07936184818593L571.5932499667585,147.2928495205624L576.0603166561316,140.8456535728906L578.54202037245,157.23814953324376L579.0383611157137,172.8109583496802L582.0164055752957,165.0878719697504L583.009087061823,180.2680745907782L584.0017685483505,172.1721202759798L584.9944500348777,186.9982374826016L586.9798130079325,201.0830165013891L588.4688352377235,191.9463254820433L590.4541982107783,205.78370471907346L594.9212649001513,218.9292935039027L595.4176056434148,231.41749432144405L595.9139463866786,243.28125507971248L598.8919908462607,232.03465559511162L602.8627167923701,243.86763910845463L604.8480797654248,255.1089480459495L605.8407612519521,265.78814304531477L606.3371019952158,275.9335122229393L606.8334427384794,285.57149055899197L608.8188057115342,294.7275538144904L611.3005094278526,303.425883180435L614.7748946306982,289.1720395907074L618.7456205768077,275.63089626234205L620.7309835498623,285.2841347064374L622.7163465229171,294.4545980820667L623.7090280094444,280.6493227881955L626.6870724690265,290.051632978676L628.1760946988176,276.4665157536806L629.1687761853449,263.5606278352003L630.1614576718722,273.8171510990229L631.1541391583995,283.56100752806304L632.6431613881905,270.3004175346604L633.6358428747179,257.7028264452553L635.1248651045089,245.73512241491935L637.1102280775636,256.88305949619826L641.080954023673,267.4735881778764L643.5626577399914,255.01735876100003L644.0589984832551,265.7011747885454L646.0443614563098,253.33356430930496L649.5187466591555,241.58434647684024L654.978494835056,252.9397946457347L656.467517064847,241.21024393720532L656.9638578081107,230.06719154606873L658.4528800379017,241.9985598074008L660.9345837542201,230.81609393186181L663.9126282138021,242.70996396443473L664.4089689570658,254.00914280448632L666.3943319301204,242.22614316087834L667.3870134166478,253.54937680377287L670.3650578762299,264.3064556918448L670.8613986194936,274.5258399639217L671.8540801060209,284.23381629199423L673.8394430790755,293.45670091494355L677.3138282819214,302.21830737851786L680.2918727415033,310.5420644296505L681.7808949712944,318.44946044517377L684.7589394308765,325.96168062494L688.7296653769858,333.09825054089265L690.2186876067768,317.3607955104643L691.2113690933043,324.92734964534907L691.7077098365679,332.1157261654687L694.1894135528863,338.944663077616L694.6857542961499,345.4319591791368L696.1747765259411,351.5949020211184L697.1674580124683,357.4498270310137L697.663798755732,340.49478105326557L698.6564802422594,346.9047606028083L701.1381839585777,330.47698468749894L706.1015913912145,337.3877455272836L709.0796358507965,343.9528274695293L710.0723173373239,327.6726464790534L710.5686580805876,334.723621920153L712.5540210536423,318.9048988980385L713.0503617969059,303.8771131815834L715.0357247699606,312.11764823146353L716.028406256488,319.94658602282067L719.00645071607,327.38365666706846L719.5027914593337,311.9319249802861L720.9918136891248,297.252779300566L722.9771766621794,283.30759898670766L728.9332655813436,270.05964305193174L731.4149692976619,257.4741189732283L731.9113100409255,245.51785955292323L732.903991527453,234.15941252635653L737.3710582168261,223.36889997393192L737.8673989600896,213.11791939917376L740.8454434196717,225.89674434052844L741.3417841629355,238.03651027033948L748.2905545686268,249.56927404901572L750.2759175416816,238.00823897933913L751.2685990282089,227.02528106332744L752.2612805147362,216.59147508405425L753.7503027445273,229.19637285756886L755.2393249743183,218.65400651581515L759.7063916636914,231.15599246472718L762.6844361232734,243.03283524315358L763.6771176098008,231.79865444127327L769.1368657857012,243.6434079939124L769.6332065289649,232.3786852771268L772.611250988547,221.67720100528783L776.0856361913927,234.02800875686728L787.9978140297209,223.2440663929171L788.4941547729845,235.51638771045808L789.4868362595118,247.17529385446332L790.9758584893029,258.2512639276978L791.9685399758303,268.77341240619677L802.3916955843674,278.76947193362975L803.8807178141584,288.2653867368002L805.8660807872131,274.7695754738534L806.3624215304768,261.948539764856L806.8587622737405,249.76857027322953L807.8514437602678,260.7148234160561L809.8368067333225,248.59653801003913L811.3258289631136,237.08414955601768L812.3185104496409,248.66455907969845L813.3111919361683,237.14878689049934L816.785577139014,248.72602920246243L818.274599368805,259.7243516711431L818.7709401120687,270.1728226713961L820.2599623418597,257.58162864345945L822.7416660581781,268.1372889045662L826.7123920042875,255.64787214224788L828.6977549773421,243.78293545447494L829.6904364638696,255.02842415609183L830.6831179503969,243.19445986762668L831.1794586936605,231.9521880208164L834.1575031532427,221.27203149817717L836.1428661262973,211.1258845335004L837.1355476128247,224.0042465631324L838.1282290993521,213.7214853815468L839.6172513291431,226.47001425930694L844.0843180185161,238.58120213015178L845.0769995050434,227.56959721115314L845.5733402483071,239.62581286172778L847.5587032213618,228.56197221065875L850.0404069376802,240.56863376626453L851.0330884242076,251.97492529837206L855.9964958568444,262.8108422170826L856.9891773433717,273.10495174432066L857.981858829899,282.884425068418L864.4342884923268,292.17492934452525L866.4196514653815,278.4836363329774L867.4123329519089,265.47690393106905L872.3757403845456,275.6378281370838L874.857444100864,285.29046829473856L878.3318293037097,271.9433925629116L879.8208515335008,259.2636752358908L880.8135330200281,247.21794666160517L883.7915774796102,258.2917448396572L890.7403478853015,246.2946070124149L891.2366886285653,234.89733415841047L891.7330293718289,246.5871745071591L892.7257108583563,235.17527847390906L894.2147330881473,224.3339749332141L895.2074145746747,236.55199247965206L898.1854590342567,225.6418411158563L900.1708220073115,237.79446766226948L900.667162750575,226.8221988893881L903.6452072101572,238.9156782371119L904.1415479534209,250.40444667173162L904.6378886966845,238.80167894837714L907.1195924130028,227.77905076574413L907.6159331562666,217.30754417853635L909.6012961293212,229.87691789931876L915.0610443052216,241.81771209690822L918.0390887648038,253.1612449103106L920.0244517378584,241.42064535690292L921.0171332243858,230.26705673102987L922.5061554541768,242.18845713329492L923.4988369407041,230.9964860004781L926.4768814002862,220.36411169247157L927.9659036300772,232.78057852790656L929.9512666031319,244.57618969406664L931.9366295761865,255.78198104709338L932.929311062714,266.4275105417572L934.4183332925049,276.5408628533048L935.4110147790324,263.6312760527022L937.3963777520871,251.36715935570027L938.3890592386143,239.71626234819266L939.8780814684054,228.64790672739935L942.3597851847238,218.1329717740299L944.3451481577785,208.14377606373L944.8414889010421,198.6540389843914L945.8341703875695,189.6387939545113L950.3012370769426,181.07429847603464L950.7975778202062,172.9380375851882L956.2573259961066,165.20858281156188L957.250007482634,180.3828745822972L957.7463482258977,172.28118546341443L961.2207334287434,187.10178475565806L962.2134149152708,178.66414146895465L962.7097556585344,170.6483959330611L963.2060964017982,185.55065779289615L963.7024371450618,177.19057951348344L965.6878001181166,169.2485039934877L966.6804816046438,161.7035351358759L977.5999779564447,154.53582222574374L979.0890001862357,147.72649207473393L983.5560668756087,163.77480525444528L985.0450891053999,156.50350921097194L986.0377705919271,172.11306851638093L987.0304520784546,164.4248800917772" style="fill: none;" fill="none"></path></g></g></g></g><g opacity="0.2"><g><g><g><path style="fill: none;" stroke="rgb(255, 112, 67)" stroke-width="2px" d="M98.70460682229222,458.2811290795606L99.9454586804514,18.35132049325523L100.31771423789915,18.35062776104394L101.06222535279466,18.34996966544321L103.04758832584938,18.349450116284743L103.2957586974812,468.2247457870059L103.54392906911305,18.349415479674178L103.66801425492895,18.349403934137342L103.91618462656079,18.34939238860045L104.66069574145631,18.34936929752672L104.78478092727222,18.34936929752672L105.03295129890407,468.3916018856344L106.14971797124734,18.34934620645305L106.89422908614286,468.4889538523958L107.01831427195876,18.349334660916213L107.14239945777469,18.349334660916213L107.2664846435906,468.5030855895063L107.8869105726702,468.52548393100506L108.87959205919755,18.34932311537932L109.74818835990898,18.34932311537932L110.74086984643633,18.34932311537932L111.11312540388408,468.58353489031197L111.2372105897,468.58519744761907L112.10580689041144,18.349311569842484L112.72623281949103,18.349311569842484L113.71891430601838,18.349311569842484L114.21525504928205,18.349311569842484L115.33202172162532,18.349311569842484L115.70427727907308,468.6212195226067L116.69695876560043,18.349311569842484L117.31738469468002,18.349311569842484L117.68964025212779,468.633457791673L120.04725878263024,468.6429251318941L120.17134396844615,18.34923075108452L120.79176989752575,18.34920766001079L121.03994026915758,468.6456498785919L121.1640254549735,18.349173023400226L121.66036619823717,18.34916147786339L122.65304768476453,18.349115295715933L123.64572917129188,468.6539626651275L123.76981435710779,468.65405502942235L123.89389954292372,18.34910375017904L124.39024028618739,468.6552557652553L125.75517733016251,18.349034476957968L126.49968844505801,18.34905756803164L127.1201143741376,18.349034476957968L127.49236993158536,468.6619983587786L128.9813921613764,18.349046022494804L129.7259032762719,468.667540216469L130.71858476279925,468.66666275566797L131.2149255060629,18.349046022494804L131.7112662493266,18.349046022494804L131.95943662095846,468.66864858800704L134.3170551514609,18.349046022494804L134.93748108054046,468.67248170624293L136.3024181245156,468.6742366278449L136.5505884961474,18.34908065910537L137.54326998267476,468.67354389563354L137.6673551684907,18.349069113568532L138.41186628338622,18.34905756803164L138.53595146920213,18.34905756803164L138.66003665501805,18.34909220464226L139.03229221246582,468.6766380995107L140.14905888480905,468.67765410675395L141.1417403713364,18.349069113568532L143.12710334439114,468.6766380995107L143.6234440876548,468.67756174245915L144.36795520255032,18.34908065910537L144.86429594581398,18.349046022494804L145.11246631744584,18.34905756803164L146.60148854723684,468.68245705008565L146.72557373305278,468.6826417786753L148.71093670610747,18.349069113568532L150.32404412171442,18.349022931421075L150.4481293075303,468.6864287147638L150.69629967916217,468.6854588896679L151.44081079405765,18.34909220464226L152.55757746640094,18.34905756803164L152.8057478380328,468.6855050718154L154.04659969619198,468.68735235771214L155.16336636853524,18.349034476957968L155.535621925983,18.34909220464226L155.65970711179892,468.6883683649554L156.77647378414218,18.349034476957968L156.9005589699581,468.68795272562863L159.25817750046056,468.68693671838537L160.99537010188342,18.34909220464226L161.61579603096303,468.68919964360896L161.86396640259485,18.349115295715933L162.23622196004263,18.34916147786339L163.22890344656997,18.34916147786339L163.97341456146546,18.348884384978817L164.22158493309732,18.349069113568532L164.59384049054506,18.34909220464226L165.3383516054406,468.6902156508522L165.95877753452015,18.348930567126217L167.19962939267936,468.69049274373674L167.44779976431118,468.6899385579677L167.94414050757487,18.349046022494804L168.6886516224704,18.348999840347403L169.18499236573408,18.349149932326497L169.30907755155,468.69169347956966L169.9295034806296,18.34920766001079L170.17767385226142,468.69173966171707L170.92218496715694,468.6910931116532L171.54261089623654,18.34880356622085L171.66669608205243,18.349069113568532L172.7834627543957,468.6916472974222L173.52797386929123,468.69243239392836L173.77614424092306,18.348930567126217L174.39657017000266,18.34920766001079L175.01699609908226,468.6920167546016L177.74687018703244,468.69155493312735L177.9950405586643,18.34923075108452L178.11912574448021,18.348237834914926L178.24321093029616,18.34930002430559L178.36729611611204,18.349311569842484L178.6154664877439,18.34889593051571L178.98772204519165,18.34918456893712L179.4840627884553,468.69127784024283L180.1044887175349,18.34930002430559L180.47674427498268,18.34930002430559L180.97308501824634,468.6909083830635L181.3453405756941,468.69275566896033L181.71759613314185,18.349046022494804L181.8416813189578,18.34912684125277L182.21393687640554,18.34909220464226L182.33802206222146,18.349219205547627L182.7102776196692,18.348976749273675L182.83436280548514,18.34912684125277L183.45478873456472,468.69312512613965L184.44747022109206,468.693494583319L184.81972577853983,18.349069113568532L185.31606652180352,18.34920766001079L185.68832207925126,18.349219205547627L186.18466282251492,468.69206293674904L187.67368505230596,468.69335603687676L187.79777023812187,18.34925384215819L188.6663665388333,468.69210911889644L189.65904802536065,468.69377167620354L189.78313321117656,18.349311569842484L190.27947395444025,18.349311569842484L190.7758146977039,18.349311569842484L191.14807025515168,468.6925247582232L191.2721554409676,18.34930002430559L191.3962406267835,468.69446440841483L191.64441099841537,468.69275566896033L191.8925813700472,18.348838202831416L193.00934804239046,18.34909220464226L193.1334332282064,18.34927693323192L193.50568878565414,468.69423349767777L193.62977397147006,468.69423349767777L193.75385915728597,18.34930002430559L194.00202952891783,468.6904465615893L194.12611471473375,18.349311569842484L194.87062582962923,18.349311569842484L195.36696657289292,468.69118547594803L195.49105175870883,468.69012328655737L195.7392221303407,18.349311569842484L195.98739250197252,18.349415479674178L196.35964805942027,18.34912684125277L196.48373324523618,18.348953658199946L196.60781843105212,18.349311569842484L196.73190361686804,18.34932311537932L197.10415917431578,18.34930002430559L197.60049991757947,468.6920167546016L198.22092584665907,468.69330985472936L198.34501103247499,18.349115295715933L198.46909621829087,18.349311569842484L199.21360733318642,18.34930002430559L199.9581184480819,18.34930002430559L200.4544591913456,18.349311569842484L200.82671474879336,468.69377167620354L201.32305549205702,18.349311569842484L201.8193962353207,18.349403934137342L202.06756660695254,468.6936331297613L202.6879925360321,468.6938640404984L203.06024809347988,18.34905756803164L205.66603699561418,468.69446440841483L205.914207367246,18.349311569842484L206.03829255306195,18.348988294810567L206.5346332963256,468.69303276184485L206.78280366795744,468.69215530104384L207.27914441122113,18.34908065910537L207.52731478285295,468.6910469295058L208.51999626938033,468.69492622988906L209.26450738427582,18.34894211266311L209.76084812753948,468.69210911889644L210.62944442825093,18.34913838678966L210.75352961406682,18.34913838678966L210.87761479988276,468.6919705724542L211.62212591477828,468.6878141791864L211.8702962864101,18.348999840347403L212.24255184385788,18.34918456893712L212.36663702967377,18.349196114473898L212.61480740130563,18.34920766001079L213.60748888783297,468.69312512613965L214.10382963109666,468.69441822626743L214.9724259318081,18.34927693323192L215.34468148925586,18.349288478768756L216.4614481615991,18.349069113568532L216.70961853323095,468.6932636725819L216.83370371904687,468.6945567727097L216.95778890486278,18.349149932326497L217.33004446231055,468.6936793119087L217.45412964812644,468.6917858438645L217.95047039139016,18.348953658199946L218.57089632046973,18.34853801887317L218.69498150628564,468.69210911889644L219.19132224954933,468.69206293674904L219.31540743536524,18.349115295715933L219.43949262118116,468.69446440841483L219.56357780699707,18.34858420102057L220.05991855026073,18.34932311537932L220.18400373607668,468.69312512613965L220.55625929352442,18.34908065910537L220.68034447934033,468.69234002963356L221.67302596586768,18.34894211266311L222.16936670913137,468.69284803325513L222.41753708076322,18.349196114473898L222.66570745239503,18.3485611099469L222.78979263821097,18.349242296621355L223.65838893892237,18.349219205547627L223.78247412473831,18.348745838536615L223.90655931055423,18.349149932326497L224.27881486800197,468.69243239392836L225.39558154034526,18.348907476052545L225.89192228360892,18.34905756803164L226.8846037701363,18.34920766001079L227.13277414176812,18.349196114473898L228.3736259999273,468.6911392938006L230.1108186013502,18.349034476957968L232.8406926893004,468.68952291864093L233.33703343256408,18.349288478768756L234.8260556623551,468.69626551216425L235.07422603398692,18.348999840347403L235.57056677725058,468.69437204412L236.06690752051426,18.349265387695084L237.0595890070416,468.69441822626743L238.05227049356898,18.34842256350464L238.54861123683267,468.69381785835094L239.78946309499185,18.349115295715933L240.03763346662367,18.349034476957968L240.2858038382555,468.6892920079038L242.2711668113102,18.34910375017904L243.76018904110123,18.349034476957968L244.7528705276286,468.69234002963356L245.2492112708923,468.6942796798252L247.48274461557878,18.34882665729458L247.97908535884247,468.69303276184485L248.72359647373798,468.69150875098L250.21261870352902,18.348792020684016L252.1979816765837,468.69400258694066L252.6943224198474,468.69469531915195L257.6577298524842,18.349069113568532L257.90590022411595,18.348999840347403L258.8985817106433,468.69377167620354L259.14675208227516,468.6922014831913L259.394922453907,18.348815111757744L263.8619891432801,18.349173023400226L265.1028410014393,18.349288478768756L266.8400336028621,468.69446440841483L267.088203974494,18.34842256350464L268.577226204285,18.349242296621355L269.07356694754867,18.34925384215819L270.3144188057079,468.69284803325513L270.81075954897153,468.69146256883255L271.3071002922352,18.34920766001079L272.29978177876256,468.69312512613965L274.781485495081,18.34923075108452L276.76684846813566,18.34927693323192L277.01501883976744,18.34930002430559L277.26318921139926,468.6926633046655L277.759529954663,18.34930002430559L279.7448929277177,468.69303276184485L280.48940404261316,468.69441822626743L281.97842627240425,18.34916147786339L282.47476701566785,468.69534186921584L283.96378924545894,468.6957113263952L284.4601299887226,18.34920766001079L285.20464110361814,468.69377167620354L287.19000407667284,18.34925384215819L288.9271966780957,468.69404876908806L291.6570707660459,468.6951571406262L291.9052411376777,18.348861293905145L292.1534115093096,468.6932174904345L297.3649893135782,468.6924785760758L297.61315968521,18.34923075108452L298.3576708001055,18.349311569842484L299.84669302989647,18.34936929752672L300.3430337731602,18.34912684125277L301.0875448880557,468.6922014831913L301.83205600295116,468.69173966171707L302.57656711784676,18.348919021589438L302.82473748947854,18.348930567126217L304.31375971926957,18.349034476957968L307.29180417885163,18.348849748368252L310.0216782668018,18.34896520373684L311.01435975332924,18.34912684125277L313.2478930980157,18.349288478768756L314.4887449561749,18.34925384215819L314.7369153278068,18.349288478768756L315.4814264427023,468.69335603687676L315.7295968143341,18.348861293905145L316.2259375575978,468.69423349767777L321.6856857334982,468.6952033227736L321.9338561051301,18.349115295715933L323.1747079632893,468.6936331297613L323.91921907818477,18.34932311537932L324.9119005647121,468.6918782081593L325.4082413079758,468.69529568706844L326.4009227945032,18.348792020684016L326.64909316613495,18.349311569842484L327.3936042810305,468.69441822626743L328.38628576755787,468.6941411333829L328.88262651082147,18.34894211266311L332.35701171366725,18.34923075108452L334.59054505835377,468.69381785835094L334.8387154299856,18.348861293905145L337.56858951793583,18.34909220464226L339.5539524909905,18.349288478768756L339.80212286262235,468.6945567727097L340.5466339775179,18.348699656389158L341.0429747207815,468.6911392938006L341.2911450924134,468.69294039755L343.2765080654681,18.34923075108452L343.5246784370999,18.348907476052545L343.7728488087318,468.6922014831913L344.7655302952591,18.349046022494804L345.26187103852277,18.349115295715933L345.7582117817865,468.6941411333829L347.7435747548412,18.34925384215819L348.9844266130004,18.348780475147123L349.23259698463215,468.69377167620354L349.9771080995277,18.349034476957968L351.71430070095056,18.34894211266311L354.6923451605326,18.34920766001079L355.93319701869177,18.349196114473898L356.18136739032366,18.349219205547627L356.6777081335873,18.34923075108452L356.92587850521915,18.349149932326497L358.4149007350102,18.3486072920943L360.15209333643304,18.349149932326497L360.40026370806487,468.68532034322567L362.6337970527514,18.348884384978817L363.62647853927876,468.6935869476139L365.1155007690698,468.6922938474861L367.3490341137563,18.34889593051571L369.0862267151792,468.6941873155303L369.334397086811,18.348976749273675L370.5752489449702,18.34896520373684L372.5606119180249,468.69404876908806L373.05695266128856,18.348930567126217L374.7941452627115,468.6936793119087L376.0349971208706,468.6952033227736L377.27584897902983,18.34882665729458L378.0203600939254,468.69127784024283L378.516700837189,18.349011385884296L379.2612119520845,18.349034476957968L380.00572306698007,18.349011385884296L380.9984045535074,18.348930567126217L382.9837675265621,18.34889593051571L384.96913049961677,18.3486072920943L385.4654712428804,18.34925384215819L385.96181198614414,18.34927693323192L386.70632310103963,468.6911392938006L386.9544934726715,468.6954342335107L388.4435157024625,18.34910375017904L388.6916860740943,468.69173966171707L390.677049047149,468.6926171225181L391.4215601620446,18.348780475147123L391.6697305336764,468.69423349767777L391.9179009053082,18.348999840347403L392.1660712769401,468.6946029548571L392.6624120202037,18.348953658199946L393.4069231350993,18.349011385884296L395.1441157365221,468.6935869476139L397.3776490812087,468.69141638668515L397.6258194528405,18.349046022494804L399.85935279752704,468.69340221902416L402.09288614221356,468.69173966171707L403.33373800037276,18.349149932326497L403.5819083720046,18.348988294810567L404.07824911526825,18.34927693323192L404.32641948690014,468.6922938474861L404.57458985853197,18.349288478768756L405.81544171669117,18.348745838536615L409.28982691953684,468.69127784024283L411.5233602642234,18.348907476052545L413.01238249401445,468.6934484011716L414.7495750954373,468.6941873155303L414.99774546706914,18.34894211266311L417.2312788117557,18.34908065910537L418.9684714131785,468.69210911889644L421.2020047578651,468.69441822626743L421.9465158727606,18.34932311537932L423.68370847418345,18.349069113568532L424.1800492174471,468.6911392938006L425.1727307039745,18.34918456893712L427.65443442029283,18.34918456893712L427.90260479192466,468.6936793119087L428.64711590682015,18.349022931421075L429.88796776497935,468.6951571406262L434.6032048259843,468.69381785835094L434.8513751976161,18.349046022494804L436.34039742740714,468.6926171225181L436.588567799039,18.34916147786339L436.83673817067086,18.349022931421075L437.3330789139345,468.6938640404984L437.8294196571982,468.69335603687676L440.80746411678024,18.348457200115206L444.03367894799413,468.6897076472306L445.2745308061533,468.6936793119087L446.7635530359443,18.349022931421075L448.25257526573535,468.6939102226458L449.9897678671582,468.6904465615893L450.9824493536856,18.349011385884296L451.47879009694924,18.349011385884296L451.9751308402129,468.6955265978055L454.2086641848995,468.6926171225181L454.70500492816313,18.34913838678966L455.4495160430586,468.6943258619726L456.93853827284966,468.69381785835094L459.17207161753623,18.349196114473898L459.66841236079983,18.349011385884296L462.64645682038196,18.349173023400226L462.89462719201373,468.69081601876866L463.1427975636456,468.6942796798252L466.61718276649134,18.349115295715933L467.6098642530187,18.348919021589438L468.60254573954603,18.34920766001079L469.5952272260734,18.34923075108452L469.84339759770523,468.6925709403706L470.5879087126007,468.6935407654664L471.0842494558644,18.34920766001079L471.5805901991281,468.6918320260119L475.5513161452375,468.6893843721987L476.29582726013297,18.349022931421075L476.7921680033967,468.69557277995295L477.53667911829217,468.6928942154026L478.28119023318766,18.348907476052545L478.52936060481954,468.6939102226458L359.2834970357216,468.69377167620354L361.1447748229604,18.34918456893712L361.5170303804082,18.34905756803164L361.8892859378559,18.349069113568532L362.6337970527514,18.34923075108452L363.00605261019916,18.34916147786339L363.75056372509465,468.6932636725819L364.4950748399902,18.34925384215819L365.9840970697812,18.349115295715933L367.47311929957226,18.34918456893712L369.334397086811,468.6922938474861L370.0789082017065,18.34932311537932L372.68469710384085,468.6941411333829L373.42920821873633,468.69446440841483L373.8014637761841,18.34910375017904L374.91823044852737,468.69441822626743L375.6627415634229,18.34908065910537L377.1517637932139,18.349149932326497L378.26853046555715,468.6916011152748L379.0130415804527,468.69155493312735L379.7575526953482,18.34910375017904L380.12980825279595,468.6936331297613L383.8523638272735,18.34908065910537L384.2246193847213,18.34905756803164L385.7136416145123,468.6946029548571L386.8304082868556,18.348722747462887L387.94717495919883,18.348988294810567L388.3194305166466,18.349265387695084L389.4361971889898,468.695249504921L390.5529638613331,468.6942796798252L392.41424164857193,18.348976749273675L392.78649720601965,18.34909220464226L395.392286108154,18.34905756803164L395.7645416656017,468.6906774723264L397.25356389539274,18.348988294810567L397.99807501028823,18.348838202831416L398.7425861251837,18.349288478768756L400.2316083549748,468.68758326844926L404.6986750443479,468.6916011152748L405.4431861592434,18.348364835820348L405.81544171669117,468.69206293674904L411.39927507840747,468.6938640404984L412.8882973081985,18.34909220464226L414.0050639805418,18.348838202831416L418.0998751124671,468.6939102226458L420.33340845715367,468.6927094868129L421.45017512949687,18.348953658199946L422.1946862443924,468.6941873155303L422.56694180184013,18.348953658199946L423.3114529167357,468.6932636725819L424.0559640316312,18.348930567126217L424.428219589079,468.6946029548571L428.1507751635565,468.69335603687676L428.89528627845203,18.34896520373684L430.0120529507953,18.348930567126217L431.87333073803404,18.34867656531543L436.34039742740714,468.6936331297613L437.8294196571982,468.69173966171707L438.94618632954143,18.34912684125277L442.668741904019,468.6948338655942L446.0190419210488,468.69146256883255L447.1358085933921,18.349311569842484L448.25257526573535,18.34918456893712L448.6248308231831,468.6932174904345L448.9970863806309,18.348999840347403L452.71964195510844,18.349046022494804L453.0918975125562,468.6922014831913L453.46415307000393,18.348999840347403L454.2086641848995,468.69173966171707L459.42024198916806,468.6952033227736L459.7924975466158,18.349046022494804L462.77054200619784,18.34905756803164L466.1208420232276,468.6932636725819L467.98211981046643,18.34913838678966L472.4491864998395,468.69312512613965L477.6607643041081,18.349034476957968L478.7775309764514,18.348792020684016L479.14978653389915,468.69294039755L480.26655320624235,468.6907236544738L483.2445976658245,18.349115295715933L483.98910878071996,18.34882665729458L484.73361989561545,18.348988294810567L485.47813101051094,468.6941873155303L489.20068658498855,468.6941873155303L492.1787310445706,18.34867656531543L492.5509866020184,468.69464913700455L502.9741422105555,468.6919243903067L503.71865332545104,18.34916147786339L505.57993111268985,468.69488004774166L512.6527867041972,18.348711201925994L513.3972978190926,468.69381785835094L514.8863200488837,18.3486072920943L515.2585756063314,18.349219205547627L518.981131180809,18.349265387695084L519.7256422957045,468.69446440841483L520.8424089680477,18.349219205547627L521.2146645254956,468.6936331297613L521.5869200829433,468.69215530104384L525.3094756574209,18.34918456893712L525.6817312148686,18.348884384978817L526.7984978872119,468.69404876908806L530.8933090191372,468.6934484011716L531.6378201340326,18.349046022494804L532.3823312489283,18.34909220464226L533.1268423638238,18.349069113568532L536.4771423808535,468.69409495123546L537.9661646106446,18.349046022494804L539.4551868404357,468.6902618329996L540.1996979553311,468.69275566896033L541.3164646276743,18.349115295715933L542.4332313000176,468.69400258694066L546.5280424319429,468.6950647763313L547.6448091042863,18.34927693323192L548.7615757766295,18.349196114473898L549.506086891525,18.34920766001079L552.8563869085548,468.6950185941839L553.9731535808982,18.34909220464226L554.3454091383458,18.34896520373684L554.7176646957936,468.6941873155303L557.6957091553757,468.6935407654664L559.9292425000622,18.348976749273675L560.3014980575099,468.6919705724542L561.4182647298533,468.68827600066055L564.3963091894352,18.348768929610287L566.2575869766741,468.6945105905623L568.8633758788083,468.6950185941839L569.6078869937038,18.349069113568532L570.7246536660471,468.6936331297613L571.8414203383904,468.69377167620354L574.074953683077,18.34908065910537L575.1917203554201,18.349115295715933L576.3084870277635,468.69294039755L576.6807425852112,18.34910375017904L578.1697648150023,468.6910007473583L580.4032981596888,468.6916472974222L585.2426204065096,18.348953658199946L586.7316426363006,468.69086220091606L597.5270538022855,468.6928942154026L598.6438204746288,18.348780475147123L604.2276538363452,468.6926633046655L607.9502094108227,18.348734292999723L608.3224649682704,18.34916147786339L608.6947205257183,468.68956910078833L609.8114871980615,468.693494583319L612.045020542748,18.349115295715933L614.2785538874346,18.34920766001079L614.6508094448824,18.348861293905145L615.0230650023301,468.6902618329996L615.7675761172256,468.69497241203646L616.1398316746734,18.34912684125277L616.5120872321211,468.69238621178096L619.4901316917033,18.348849748368252L628.0520095130016,468.69303276184485L628.4242650704493,18.34918456893712L628.796520627897,468.69372549405614L631.4023095300314,18.349011385884296L635.4971206619567,18.34909220464226L636.2416317768523,468.6942796798252L637.7306540066432,18.349011385884296L640.7086984662252,18.348861293905145L641.080954023673,18.34908065910537L642.1977206960163,468.6927094868129L642.9422318109118,468.6952033227736L643.3144873683596,18.34920766001079L644.0589984832551,468.69284803325513L652.9931318620013,468.6896614650832L654.1098985343446,18.348318653672948L655.2266652066877,18.348434109041477L658.5769652237176,18.348653474241758L658.9492207811654,18.349265387695084L661.182754125852,468.6945567727097L661.9272652407474,18.34894211266311L662.2995207981952,18.34927693323192L664.5330541428817,468.69210911889644L665.6498208152249,18.348861293905145L666.0220763726727,18.34909220464226L667.8833541599115,468.6906774723264L668.627865274807,18.34916147786339L669.3723763897026,468.69312512613965L670.4891430620457,468.6917858438645L670.8613986194936,18.34918456893712L673.8394430790755,18.34912684125277L675.7007208663143,468.6951109584787L676.4452319812099,18.34910375017904L676.8174875386577,18.348907476052545L677.1897430961054,18.34910375017904L681.2845542280307,468.69210911889644L685.0071098025082,18.34916147786339L687.9851542620904,468.69441822626743L694.3134987387022,18.349219205547627L696.1747765259411,468.69335603687676L696.9192876408365,468.690631290179L697.2915431982842,18.34910375017904L698.4083098706275,468.6942796798252L702.1308654451051,468.6932174904345L704.3643987897916,18.34918456893712L705.8534210195827,468.69238621178096L707.7146988068214,468.69381785835094L708.4592099217169,18.348711201925994L709.2037210366124,18.349554026116436L709.948232151508,18.349115295715933L710.6927432664036,468.6954342335107L712.1817654961945,468.6954342335107L712.5540210536423,18.34925384215819L713.6707877259855,468.69307894399225L714.0430432834332,18.349219205547627L714.4152988408811,18.348757384073394L715.904321070672,468.69146256883255L716.6488321855676,18.34920766001079L717.7655988579108,468.6881374542183L718.1378544153586,468.6910931116532L718.8823655302541,18.349173023400226L720.7436433174929,18.349115295715933L721.4881544323883,18.349069113568532L721.8604099898362,18.34913838678966L722.2326655472839,18.349069113568532L724.4661988919705,468.69404876908806L725.210710006866,18.349219205547627L726.3274766792092,18.34916147786339L729.677776696239,468.6910007473583L730.7945433685824,468.69381785835094L731.5390544834778,18.349219205547627L732.2835655983733,18.349034476957968L733.0280767132689,18.348907476052545L479.77021246297875,18.348792020684016L484.2372791523518,468.69330985472936L486.22264212540654,468.6941873155303L487.21532361193385,18.34909220464226L488.70434584172483,468.6935407654664L492.67507178783427,18.34930002430559L494.66043476088896,18.348976749273675L496.6457977339437,18.349219205547627L499.6238421935257,18.349196114473898L503.09822739637144,18.348953658199946L504.09090888289876,468.6942796798252L506.57261259921717,468.6947876834468L510.04699780206283,18.34908065910537L511.53602003185387,18.34905756803164L512.0323607751176,18.349115295715933L514.5140644914359,468.6939564047932L521.959175640391,468.69529568706844L522.4555163836548,18.34925384215819L523.4481978701821,18.34916147786339L526.4262423297641,18.348838202831416L531.3896497624008,468.69146256883255L534.8640349652466,18.348745838536615L536.3530571950376,18.34916147786339L536.8493979383013,18.34934620645305L540.323783141147,468.69243239392836L541.3164646276743,468.6945567727097L541.812805370938,18.348341744746676L544.2945090872564,18.34932311537932L545.7835313170474,18.34927693323192L557.6957091553757,18.34887283944198L559.1847313851666,18.348884384978817L560.177412871694,18.34908065910537L562.6591165880124,18.34925384215819L564.1481388178034,18.348919021589438L564.6444795610671,18.349046022494804L565.6371610475944,468.69169347956966L566.1335017908582,18.34909220464226L569.6078869937038,18.348976749273675L570.6005684802311,18.34918456893712L571.5932499667585,18.349115295715933L576.0603166561316,18.348930567126217L578.54202037245,468.69557277995295L579.0383611157137,468.6943258619726L582.0164055752957,18.34923075108452L583.009087061823,468.6919243903067L584.0017685483505,18.348988294810567L584.9944500348777,468.69446440841483L586.9798130079325,468.69381785835094L588.4688352377235,18.349196114473898L590.4541982107783,468.6939102226458L595.9139463866786,468.6927094868129L598.8919908462607,18.349265387695084L602.8627167923701,468.6943258619726L611.3005094278526,468.6941411333829L614.7748946306982,18.349011385884296L618.7456205768077,18.349173023400226L620.7309835498623,468.69566514424776L622.7163465229171,468.69340221902416L623.7090280094444,18.34909220464226L626.6870724690265,468.6955265978055L628.1760946988176,18.349288478768756L629.1687761853449,18.348757384073394L630.1614576718722,468.6910931116532L631.1541391583995,468.6942796798252L632.6431613881905,18.34920766001079L633.6358428747179,18.348595746557464L635.1248651045089,18.348745838536615L637.1102280775636,468.6938640404984L641.080954023673,468.6936331297613L643.5626577399914,18.348999840347403L644.0589984832551,468.6936793119087L646.0443614563098,18.34896520373684L649.5187466591555,18.34920766001079L654.978494835056,468.69330985472936L656.467517064847,18.348780475147123L656.9638578081107,18.349196114473898L658.4528800379017,468.6945567727097L660.9345837542201,18.349242296621355L663.9126282138021,468.693494583319L664.4089689570658,468.6935407654664L666.3943319301204,18.349149932326497L667.3870134166478,468.69081601876866L688.7296653769858,468.69307894399225L690.2186876067768,18.349149932326497L691.2113690933043,468.6918782081593L697.1674580124683,468.69340221902416L697.663798755732,18.348907476052545L698.6564802422594,468.69437204412L701.1381839585777,18.349242296621355L706.1015913912145,468.6922014831913L709.0796358507965,468.6893843721987L710.0723173373239,18.34920766001079L710.5686580805876,468.69215530104384L712.5540210536423,18.34916147786339L713.0503617969059,18.34918456893712L715.0357247699606,468.6878141791864L719.00645071607,468.68799890777603L719.5027914593337,18.349022931421075L720.9918136891248,18.349011385884296L722.9771766621794,18.349173023400226L728.9332655813436,18.348480291188935L731.4149692976619,18.34916147786339L731.9113100409255,18.348930567126217L732.903991527453,18.348919021589438L737.3710582168261,18.34916147786339L737.8673989600896,18.349288478768756L740.8454434196717,468.69441822626743L748.2905545686268,468.6917858438645L750.2759175416816,18.348572655483792L751.2685990282089,18.34908065910537L752.2612805147362,18.34916147786339L753.7503027445273,468.6894305543461L755.2393249743183,18.349046022494804L759.7063916636914,468.69372549405614L762.6844361232734,468.69284803325513L763.6771176098008,18.349219205547627L769.1368657857012,468.69372549405614L769.6332065289649,18.348953658199946L772.611250988547,18.348999840347403L776.0856361913927,468.69335603687676L787.9978140297209,18.34916147786339L788.4941547729845,468.69049274373674L803.8807178141584,468.6877679970389L805.8660807872131,18.34916147786339L806.3624215304768,18.348861293905145L806.8587622737405,18.349149932326497L807.8514437602678,468.6936331297613L809.8368067333225,18.349115295715933L811.3258289631136,18.348768929610287L812.3185104496409,468.69234002963356L813.3111919361683,18.349115295715933L816.785577139014,468.6936331297613L818.7709401120687,468.69377167620354L820.2599623418597,18.34894211266311L822.7416660581781,468.6948338655942L826.7123920042875,18.348953658199946L828.6977549773421,18.34913838678966L829.6904364638696,468.6927094868129L830.6831179503969,18.34913838678966L831.1794586936605,18.349022931421075L834.1575031532427,18.34905756803164L836.1428661262973,18.34909220464226L837.1355476128247,468.69312512613965L838.1282290993521,18.349022931421075L839.6172513291431,468.69206293674904L844.0843180185161,468.69377167620354L845.0769995050434,18.34910375017904L845.5733402483071,468.6939102226458L847.5587032213618,18.348999840347403L850.0404069376802,468.6952033227736L864.4342884923268,468.6945105905623L866.4196514653815,18.349069113568532L867.4123329519089,18.348988294810567L872.3757403845456,468.69538805136324L874.857444100864,468.690631290179L878.3318293037097,18.348953658199946L879.8208515335008,18.349046022494804L880.8135330200281,18.34910375017904L883.7915774796102,468.6939102226458L890.7403478853015,18.348988294810567L891.2366886285653,18.349149932326497L891.7330293718289,468.6941411333829L892.7257108583563,18.34925384215819L894.2147330881473,18.34920766001079L895.2074145746747,468.6943258619726L898.1854590342567,18.34896520373684L900.1708220073115,468.69437204412L900.667162750575,18.34909220464226L903.6452072101572,468.6917858438645L904.1415479534209,468.6910469295058L904.6378886966845,18.34909220464226L907.1195924130028,18.349115295715933L907.6159331562666,18.348919021589438L909.6012961293212,468.6950185941839L918.0390887648038,468.6883683649554L920.0244517378584,18.34925384215819L921.0171332243858,18.34887283944198L922.5061554541768,468.6950647763313L923.4988369407041,18.349034476957968L926.4768814002862,18.348999840347403L927.9659036300772,468.6934484011716L934.4183332925049,468.6945567727097L935.4110147790324,18.34912684125277L937.3963777520871,18.34894211266311L938.3890592386143,18.349219205547627L939.8780814684054,18.349149932326497L942.3597851847238,18.34920766001079L944.3451481577785,18.34905756803164L944.8414889010421,18.349034476957968L945.8341703875695,18.34913838678966L950.3012370769426,18.348884384978817L950.7975778202062,18.34908065910537L956.2573259961066,18.34894211266311L957.250007482634,468.69441822626743L957.7463482258977,18.34909220464226L961.2207334287434,468.6931713082871L962.2134149152708,18.348919021589438L962.7097556585344,18.34923075108452L963.2060964017982,468.6936331297613L963.7024371450618,18.34909220464226L965.6878001181166,18.349069113568532L966.6804816046438,18.34912684125277L977.5999779564447,18.34927693323192L979.0890001862357,18.349219205547627L983.5560668756087,468.69275566896033L985.0450891053999,18.348884384978817L986.0377705919271,468.69469531915195L987.0304520784546,18.34930002430559" fill="none"></path></g></g></g></g></g></g><g transform="translate(50, 378)" clip-path="url(#clip_1)"><clipPath id="clip_1"><rect width="1062" height="22"></rect></clipPath><g><g><line x1="20.406854572447475" y1="0" x2="20.406854572447475" y2="5" style="visibility: inherit;" fill="rgb(0, 0, 0)" stroke="rgb(204, 204, 204)" stroke-width="1px"></line><line x1="97.96009570739669" y1="0" x2="97.96009570739669" y2="5" style="visibility: inherit;" fill="rgb(0, 0, 0)" stroke="rgb(204, 204, 204)" stroke-width="1px"></line><line x1="175.51333684234592" y1="0" x2="175.51333684234592" y2="5" style="visibility: inherit;" fill="rgb(0, 0, 0)" stroke="rgb(204, 204, 204)" stroke-width="1px"></line><line x1="253.06657797729514" y1="0" x2="253.06657797729514" y2="5" style="visibility: inherit;" fill="rgb(0, 0, 0)" stroke="rgb(204, 204, 204)" stroke-width="1px"></line><line x1="330.6198191122444" y1="0" x2="330.6198191122444" y2="5" style="visibility: inherit;" fill="rgb(0, 0, 0)" stroke="rgb(204, 204, 204)" stroke-width="1px"></line><line x1="408.1730602471936" y1="0" x2="408.1730602471936" y2="5" style="visibility: inherit;" fill="rgb(0, 0, 0)" stroke="rgb(204, 204, 204)" stroke-width="1px"></line><line x1="485.7263013821428" y1="0" x2="485.7263013821428" y2="5" style="visibility: inherit;" fill="rgb(0, 0, 0)" stroke="rgb(204, 204, 204)" stroke-width="1px"></line><line x1="563.279542517092" y1="0" x2="563.279542517092" y2="5" style="visibility: inherit;" fill="rgb(0, 0, 0)" stroke="rgb(204, 204, 204)" stroke-width="1px"></line><line x1="640.8327836520411" y1="0" x2="640.8327836520411" y2="5" style="visibility: inherit;" fill="rgb(0, 0, 0)" stroke="rgb(204, 204, 204)" stroke-width="1px"></line><line x1="718.3860247869904" y1="0" x2="718.3860247869904" y2="5" style="visibility: inherit;" fill="rgb(0, 0, 0)" stroke="rgb(204, 204, 204)" stroke-width="1px"></line><line x1="795.9392659219396" y1="0" x2="795.9392659219396" y2="5" style="visibility: inherit;" fill="rgb(0, 0, 0)" stroke="rgb(204, 204, 204)" stroke-width="1px"></line><line x1="873.4925070568889" y1="0" x2="873.4925070568889" y2="5" style="visibility: inherit;" fill="rgb(0, 0, 0)" stroke="rgb(204, 204, 204)" stroke-width="1px"></line><line x1="951.0457481918381" y1="0" x2="951.0457481918381" y2="5" style="visibility: inherit;" fill="rgb(0, 0, 0)" stroke="rgb(204, 204, 204)" stroke-width="1px"></line><line x1="1028.5989893267872" y1="0" x2="1028.5989893267872" y2="5" style="visibility: inherit;" fill="rgb(0, 0, 0)" stroke="rgb(204, 204, 204)" stroke-width="1px"></line></g><g transform="translate(0, 8)"><text x="20.406854572447475" y="0" dx="0em" dy="0.95em" style="text-anchor: middle; visibility: inherit; font-family: &quot;Helvetica Neue&quot;, sans-serif; font-size: 12px; font-weight: 200;" fill="rgb(50, 49, 63)" stroke="none" stroke-width="1px">-10k</text><text x="97.96009570739669" y="0" dx="0em" dy="0.95em" style="text-anchor: middle; visibility: inherit; font-family: &quot;Helvetica Neue&quot;, sans-serif; font-size: 12px; font-weight: 200;" fill="rgb(50, 49, 63)" stroke="none" stroke-width="1px">0</text><text x="175.51333684234592" y="0" dx="0em" dy="0.95em" style="text-anchor: middle; visibility: inherit; font-family: &quot;Helvetica Neue&quot;, sans-serif; font-size: 12px; font-weight: 200;" fill="rgb(50, 49, 63)" stroke="none" stroke-width="1px">10k</text><text x="253.06657797729514" y="0" dx="0em" dy="0.95em" style="text-anchor: middle; visibility: inherit; font-family: &quot;Helvetica Neue&quot;, sans-serif; font-size: 12px; font-weight: 200;" fill="rgb(50, 49, 63)" stroke="none" stroke-width="1px">20k</text><text x="330.6198191122444" y="0" dx="0em" dy="0.95em" style="text-anchor: middle; visibility: inherit; font-family: &quot;Helvetica Neue&quot;, sans-serif; font-size: 12px; font-weight: 200;" fill="rgb(50, 49, 63)" stroke="none" stroke-width="1px">30k</text><text x="408.1730602471936" y="0" dx="0em" dy="0.95em" style="text-anchor: middle; visibility: inherit; font-family: &quot;Helvetica Neue&quot;, sans-serif; font-size: 12px; font-weight: 200;" fill="rgb(50, 49, 63)" stroke="none" stroke-width="1px">40k</text><text x="485.7263013821428" y="0" dx="0em" dy="0.95em" style="text-anchor: middle; visibility: inherit; font-family: &quot;Helvetica Neue&quot;, sans-serif; font-size: 12px; font-weight: 200;" fill="rgb(50, 49, 63)" stroke="none" stroke-width="1px">50k</text><text x="563.279542517092" y="0" dx="0em" dy="0.95em" style="text-anchor: middle; visibility: inherit; font-family: &quot;Helvetica Neue&quot;, sans-serif; font-size: 12px; font-weight: 200;" fill="rgb(50, 49, 63)" stroke="none" stroke-width="1px">60k</text><text x="640.8327836520411" y="0" dx="0em" dy="0.95em" style="text-anchor: middle; visibility: inherit; font-family: &quot;Helvetica Neue&quot;, sans-serif; font-size: 12px; font-weight: 200;" fill="rgb(50, 49, 63)" stroke="none" stroke-width="1px">70k</text><text x="718.3860247869904" y="0" dx="0em" dy="0.95em" style="text-anchor: middle; visibility: inherit; font-family: &quot;Helvetica Neue&quot;, sans-serif; font-size: 12px; font-weight: 200;" fill="rgb(50, 49, 63)" stroke="none" stroke-width="1px">80k</text><text x="795.9392659219396" y="0" dx="0em" dy="0.95em" style="text-anchor: middle; visibility: inherit; font-family: &quot;Helvetica Neue&quot;, sans-serif; font-size: 12px; font-weight: 200;" fill="rgb(50, 49, 63)" stroke="none" stroke-width="1px">90k</text><text x="873.4925070568889" y="0" dx="0em" dy="0.95em" style="text-anchor: middle; visibility: inherit; font-family: &quot;Helvetica Neue&quot;, sans-serif; font-size: 12px; font-weight: 200;" fill="rgb(50, 49, 63)" stroke="none" stroke-width="1px">100k</text><text x="951.0457481918381" y="0" dx="0em" dy="0.95em" style="text-anchor: middle; visibility: inherit; font-family: &quot;Helvetica Neue&quot;, sans-serif; font-size: 12px; font-weight: 200;" fill="rgb(50, 49, 63)" stroke="none" stroke-width="1px">110k</text><text x="1028.5989893267872" y="0" dx="0em" dy="0.95em" style="text-anchor: middle; visibility: inherit; font-family: &quot;Helvetica Neue&quot;, sans-serif; font-size: 12px; font-weight: 200;" fill="rgb(50, 49, 63)" stroke="none" stroke-width="1px">120k</text></g><line x1="0" y1="0" x2="1062.2" y2="0" fill="rgb(0, 0, 0)" stroke="rgb(204, 204, 204)" stroke-width="1px"></line></g></g></g></g></svg>