<svg viewBox="0 0 1112.2000732421875 400" xmlns="http://www.w3.org/2000/svg"><g><g><g><g><g><line x1="50" y1="366.7818623124971" x2="45" y2="366.7818623124971" style="visibility: inherit;" fill="rgb(0, 0, 0)" stroke="rgb(204, 204, 204)" stroke-width="1px"></line><line x1="50" y1="337.60626660163695" x2="45" y2="337.60626660163695" style="visibility: inherit;" fill="rgb(0, 0, 0)" stroke="rgb(204, 204, 204)" stroke-width="1px"></line><line x1="50" y1="308.4306708907768" x2="45" y2="308.4306708907768" style="visibility: inherit;" fill="rgb(0, 0, 0)" stroke="rgb(204, 204, 204)" stroke-width="1px"></line><line x1="50" y1="279.2550751799166" x2="45" y2="279.2550751799166" style="visibility: inherit;" fill="rgb(0, 0, 0)" stroke="rgb(204, 204, 204)" stroke-width="1px"></line><line x1="50" y1="250.07947946905648" x2="45" y2="250.07947946905648" style="visibility: inherit;" fill="rgb(0, 0, 0)" stroke="rgb(204, 204, 204)" stroke-width="1px"></line><line x1="50" y1="220.90388375819632" x2="45" y2="220.90388375819632" style="visibility: inherit;" fill="rgb(0, 0, 0)" stroke="rgb(204, 204, 204)" stroke-width="1px"></line><line x1="50" y1="191.72828804733615" x2="45" y2="191.72828804733615" style="visibility: inherit;" fill="rgb(0, 0, 0)" stroke="rgb(204, 204, 204)" stroke-width="1px"></line><line x1="50" y1="162.552692336476" x2="45" y2="162.552692336476" style="visibility: inherit;" fill="rgb(0, 0, 0)" stroke="rgb(204, 204, 204)" stroke-width="1px"></line><line x1="50" y1="133.37709662561588" x2="45" y2="133.37709662561588" style="visibility: inherit;" fill="rgb(0, 0, 0)" stroke="rgb(204, 204, 204)" stroke-width="1px"></line><line x1="50" y1="104.20150091475574" x2="45" y2="104.20150091475574" style="visibility: inherit;" fill="rgb(0, 0, 0)" stroke="rgb(204, 204, 204)" stroke-width="1px"></line><line x1="50" y1="75.02590520389555" x2="45" y2="75.02590520389555" style="visibility: inherit;" fill="rgb(0, 0, 0)" stroke="rgb(204, 204, 204)" stroke-width="1px"></line><line x1="50" y1="45.85030949303547" x2="45" y2="45.85030949303547" style="visibility: inherit;" fill="rgb(0, 0, 0)" stroke="rgb(204, 204, 204)" stroke-width="1px"></line><line x1="50" y1="16.674713782175218" x2="45" y2="16.674713782175218" style="visibility: inherit;" fill="rgb(0, 0, 0)" stroke="rgb(204, 204, 204)" stroke-width="1px"></line></g><g transform="translate(40, 0)"><text x="0" y="366.7818623124971" dx="0em" dy="0.3em" style="text-anchor: end; visibility: inherit; font-family: &quot;Helvetica Neue&quot;, sans-serif; font-size: 12px; font-weight: 200;" fill="rgb(50, 49, 63)" stroke="none" stroke-width="1px">-0.2</text><text x="0" y="337.60626660163695" dx="0em" dy="0.3em" style="text-anchor: end; visibility: inherit; font-family: &quot;Helvetica Neue&quot;, sans-serif; font-size: 12px; font-weight: 200;" fill="rgb(50, 49, 63)" stroke="none" stroke-width="1px">-0.1</text><text x="0" y="308.4306708907768" dx="0em" dy="0.3em" style="text-anchor: end; visibility: inherit; font-family: &quot;Helvetica Neue&quot;, sans-serif; font-size: 12px; font-weight: 200;" fill="rgb(50, 49, 63)" stroke="none" stroke-width="1px">0</text><text x="0" y="279.2550751799166" dx="0em" dy="0.3em" style="text-anchor: end; visibility: inherit; font-family: &quot;Helvetica Neue&quot;, sans-serif; font-size: 12px; font-weight: 200;" fill="rgb(50, 49, 63)" stroke="none" stroke-width="1px">0.1</text><text x="0" y="250.07947946905648" dx="0em" dy="0.3em" style="text-anchor: end; visibility: inherit; font-family: &quot;Helvetica Neue&quot;, sans-serif; font-size: 12px; font-weight: 200;" fill="rgb(50, 49, 63)" stroke="none" stroke-width="1px">0.2</text><text x="0" y="220.90388375819632" dx="0em" dy="0.3em" style="text-anchor: end; visibility: inherit; font-family: &quot;Helvetica Neue&quot;, sans-serif; font-size: 12px; font-weight: 200;" fill="rgb(50, 49, 63)" stroke="none" stroke-width="1px">0.3</text><text x="0" y="191.72828804733615" dx="0em" dy="0.3em" style="text-anchor: end; visibility: inherit; font-family: &quot;Helvetica Neue&quot;, sans-serif; font-size: 12px; font-weight: 200;" fill="rgb(50, 49, 63)" stroke="none" stroke-width="1px">0.4</text><text x="0" y="162.552692336476" dx="0em" dy="0.3em" style="text-anchor: end; visibility: inherit; font-family: &quot;Helvetica Neue&quot;, sans-serif; font-size: 12px; font-weight: 200;" fill="rgb(50, 49, 63)" stroke="none" stroke-width="1px">0.5</text><text x="0" y="133.37709662561588" dx="0em" dy="0.3em" style="text-anchor: end; visibility: inherit; font-family: &quot;Helvetica Neue&quot;, sans-serif; font-size: 12px; font-weight: 200;" fill="rgb(50, 49, 63)" stroke="none" stroke-width="1px">0.6</text><text x="0" y="104.20150091475574" dx="0em" dy="0.3em" style="text-anchor: end; visibility: inherit; font-family: &quot;Helvetica Neue&quot;, sans-serif; font-size: 12px; font-weight: 200;" fill="rgb(50, 49, 63)" stroke="none" stroke-width="1px">0.7</text><text x="0" y="75.02590520389555" dx="0em" dy="0.3em" style="text-anchor: end; visibility: inherit; font-family: &quot;Helvetica Neue&quot;, sans-serif; font-size: 12px; font-weight: 200;" fill="rgb(50, 49, 63)" stroke="none" stroke-width="1px">0.8</text><text x="0" y="45.85030949303547" dx="0em" dy="0.3em" style="text-anchor: end; visibility: inherit; font-family: &quot;Helvetica Neue&quot;, sans-serif; font-size: 12px; font-weight: 200;" fill="rgb(50, 49, 63)" stroke="none" stroke-width="1px">0.9</text><text x="0" y="16.674713782175218" dx="0em" dy="0.3em" style="text-anchor: end; visibility: inherit; font-family: &quot;Helvetica Neue&quot;, sans-serif; font-size: 12px; font-weight: 200;" fill="rgb(50, 49, 63)" stroke="none" stroke-width="1px">1</text></g><line x1="50" y1="0" x2="50" y2="378" fill="rgb(0, 0, 0)" stroke="rgb(204, 204, 204)" stroke-width="1px"></line></g></g><g transform="translate(50, 0)" clip-path="url(#clip_0)"><clipPath id="clip_0"><rect width="1062" height="378"></rect></clipPath><g><g><g><line x1="22.368278337268496" y1="0" x2="22.368278337268496" y2="378" fill="rgb(0, 0, 0)" stroke="rgb(60, 60, 60)" stroke-width="1px" opacity="0.25"></line><line x1="169.76829537712823" y1="0" x2="169.76829537712823" y2="378" fill="rgb(0, 0, 0)" stroke="rgb(60, 60, 60)" stroke-width="1px" opacity="0.25"></line><line x1="317.16831241698793" y1="0" x2="317.16831241698793" y2="378" fill="rgb(0, 0, 0)" stroke="rgb(60, 60, 60)" stroke-width="1px" opacity="0.25"></line><line x1="464.5683294568477" y1="0" x2="464.5683294568477" y2="378" fill="rgb(0, 0, 0)" stroke="rgb(60, 60, 60)" stroke-width="1px" opacity="0.25"></line><line x1="611.9683464967076" y1="0" x2="611.9683464967076" y2="378" fill="rgb(0, 0, 0)" stroke="rgb(60, 60, 60)" stroke-width="1px" opacity="0.25"></line><line x1="759.3683635365672" y1="0" x2="759.3683635365672" y2="378" fill="rgb(0, 0, 0)" stroke="rgb(60, 60, 60)" stroke-width="1px" opacity="0.25"></line><line x1="906.7683805764269" y1="0" x2="906.7683805764269" y2="378" fill="rgb(0, 0, 0)" stroke="rgb(60, 60, 60)" stroke-width="1px" opacity="0.25"></line><line x1="1054.1683976162867" y1="0" x2="1054.1683976162867" y2="378" fill="rgb(0, 0, 0)" stroke="rgb(60, 60, 60)" stroke-width="1px" opacity="0.25"></line></g><g><line x1="0" y1="366.7818623124971" x2="1062.2" y2="366.7818623124971" fill="rgb(0, 0, 0)" stroke="rgb(60, 60, 60)" stroke-width="1px" opacity="0.25"></line><line x1="0" y1="337.60626660163695" x2="1062.2" y2="337.60626660163695" fill="rgb(0, 0, 0)" stroke="rgb(60, 60, 60)" stroke-width="1px" opacity="0.25"></line><line x1="0" y1="308.4306708907768" x2="1062.2" y2="308.4306708907768" fill="rgb(0, 0, 0)" stroke="rgb(60, 60, 60)" stroke-width="1px" opacity="0.25"></line><line x1="0" y1="279.2550751799166" x2="1062.2" y2="279.2550751799166" fill="rgb(0, 0, 0)" stroke="rgb(60, 60, 60)" stroke-width="1px" opacity="0.25"></line><line x1="0" y1="250.07947946905648" x2="1062.2" y2="250.07947946905648" fill="rgb(0, 0, 0)" stroke="rgb(60, 60, 60)" stroke-width="1px" opacity="0.25"></line><line x1="0" y1="220.90388375819632" x2="1062.2" y2="220.90388375819632" fill="rgb(0, 0, 0)" stroke="rgb(60, 60, 60)" stroke-width="1px" opacity="0.25"></line><line x1="0" y1="191.72828804733615" x2="1062.2" y2="191.72828804733615" fill="rgb(0, 0, 0)" stroke="rgb(60, 60, 60)" stroke-width="1px" opacity="0.25"></line><line x1="0" y1="162.552692336476" x2="1062.2" y2="162.552692336476" fill="rgb(0, 0, 0)" stroke="rgb(60, 60, 60)" stroke-width="1px" opacity="0.25"></line><line x1="0" y1="133.37709662561588" x2="1062.2" y2="133.37709662561588" fill="rgb(0, 0, 0)" stroke="rgb(60, 60, 60)" stroke-width="1px" opacity="0.25"></line><line x1="0" y1="104.20150091475574" x2="1062.2" y2="104.20150091475574" fill="rgb(0, 0, 0)" stroke="rgb(60, 60, 60)" stroke-width="1px" opacity="0.25"></line><line x1="0" y1="75.02590520389555" x2="1062.2" y2="75.02590520389555" fill="rgb(0, 0, 0)" stroke="rgb(60, 60, 60)" stroke-width="1px" opacity="0.25"></line><line x1="0" y1="45.85030949303547" x2="1062.2" y2="45.85030949303547" fill="rgb(0, 0, 0)" stroke="rgb(60, 60, 60)" stroke-width="1px" opacity="0.25"></line><line x1="0" y1="16.674713782175218" x2="1062.2" y2="16.674713782175218" fill="rgb(0, 0, 0)" stroke="rgb(60, 60, 60)" stroke-width="1px" opacity="0.25"></line></g></g></g><g><g><line x1="0" y1="308.4306708907768" x2="1062.2" y2="308.4306708907768" fill="rgb(0, 0, 0)" stroke="rgb(153, 153, 153)" stroke-width="1.5px"></line></g></g><g><g><line x1="22.368278337268496" y1="0" x2="22.368278337268496" y2="378" fill="rgb(0, 0, 0)" stroke="rgb(153, 153, 153)" stroke-width="1.5px"></line></g></g><g><g><g><g><g><path stroke="rgb(255, 112, 67)" stroke-width="2px" d="M24.13707854174681,89.61370305932564L25.61107871214541,71.19476637317678L26.49547881438457,65.05595602341947L26.790278848464286,61.98717712994738L27.674678950703445,60.14641067588167L29.44347915518176,65.30897321116692L32.9810795641384,68.9950134957702L34.160279700457274,66.87076716630997L34.74987976861671,69.60672262584717L35.33947983677615,67.80682465278016L35.63427987085587,69.9955159987195L36.22387993901531,71.818062310811L37.99268014349363,70.20112170516165L38.28748017757335,68.81639628667693L38.582280211653064,67.61744176182833L38.877080245732785,66.56942482495685L41.53028055245026,68.15497720234549L42.41468065468942,67.17022755432669L43.29908075692858,66.29021158028729L43.593880791008296,65.49921769099637L43.88868082508802,64.7845269045423L44.18348085916774,66.16842592745348L45.657481029566334,65.4675448693452L48.015881302204086,64.82607137802887L48.310681336283814,67.34518117461636L50.079481540762124,68.435160279216L52.43788181339988,71.0718702323914L53.322281915639046,70.94544034266698L53.61708194971876,73.55324207355602L55.6806821882768,75.86471152838192L57.15468235867539,78.22441988258993L59.513082631313154,79.88952873714373L60.3974827335523,80.28921158900926L60.69228276763203,82.06672830471234L63.345483074349495,83.80333377697559L63.935083142508944,84.12101715381772L64.22988317658866,85.71517006965195L64.52468321066837,85.8606588600851L66.58828344922641,87.33616392700054L68.062283619625,87.4183411159633L68.65188368778446,86.2012493254241L68.94668372186416,86.32057645958463L70.12588385818304,86.43403271840276L71.59988402858164,86.54201945955185L71.89468406266137,87.86641109980599L72.77908416490052,90.3346459761267L74.54788436937885,89.28152915537953L74.84268440345856,88.34021915018934L75.432284471618,89.54146299222651L76.31668457385716,91.83802630661052L76.9062846420166,92.11815871124162L77.20108467609631,93.12291321065516L77.79068474425576,92.9006349370012L78.3802848124152,91.70333519957137L78.67508484649493,91.64103431869711L80.73868508505295,92.43916685615898L83.0970853576907,92.35653343862447L83.39188539177043,92.27705160153835L83.68668542585014,92.65498313948342L84.86588556216903,92.37322701596531L87.81388590296622,91.84303319454665L88.10868593704593,91.77983184057717L88.69828600520538,90.70653863164767L89.87748614152426,91.22789168428642L90.76188624376341,92.11896828479644L91.05668627784314,91.06046812874075L91.35148631192284,92.00487600609426L92.23588641416201,92.2129347378517L95.77348682311865,92.15259021638792L97.54228702759696,92.08550175278742L98.42668712983613,92.17438728811447L99.01628719799555,91.15599405743762L99.31108723207528,91.36136955788652L99.90068730023472,92.25654873317654L101.0798874365536,92.18880399503848L102.25908757287247,91.94382295361032L102.8486876410319,92.16606554837551L104.32268781143051,92.10170623799581L108.44988828854659,91.2170464615944L109.92388845894519,90.26683036607267L110.2186884930249,90.25061013163753L111.39788862934377,90.2348688270149L111.6926886634235,89.3224668185282L112.87188879974236,88.43658359323337L113.16668883382209,88.88699429651086L113.75628890198152,88.80875117856397L114.64068900422069,87.94681812466956L116.11468917461929,88.62725388813328L116.409489208699,89.52507214883059L116.70428924277873,88.65647186385337L118.17828941317732,89.44508952394938L118.47308944725705,89.43011434919168L118.76788948133675,89.06650930897604L119.65228958357592,89.44214453027115L122.3054898902934,89.44616566531045L122.89508995845283,88.98489555990875L124.66389016293115,88.14657835815808L126.43269036740946,89.02686804060579L126.72749040148919,87.72876570031349L128.4962906059675,87.34090919235268L129.38069070820666,86.56007018714848L130.55989084452554,86.58412194307107L131.73909098084442,87.76544623351265L132.32869104900385,88.38558369266747L133.50789118532273,89.24222847113964L133.80269121940245,89.0275550356252L134.09749125348216,90.47467688857381L134.68709132164162,89.63311604916862L136.1610914920402,89.54724911628676L137.6350916624388,89.84893635886738L137.92989169651855,89.84367273475664L142.64669224179406,89.02442537214148L144.71029248035208,89.84977621120629L146.4790926848304,89.84453044623729L146.7738927189101,89.09748129363555L147.36349278706956,88.30206393708556L149.13229299154787,89.38845523300114L151.78549329826532,89.93733269802476L152.37509336642478,89.93140443756698L152.6698934005045,91.08389194651L153.55429350274363,90.95229355499674L155.32309370722197,91.72020883565699L157.68149397985974,92.63835816034191L157.97629401393945,93.3667377138924L158.8606941161786,94.07798924446433L159.1554941502583,94.4030903689627L161.8086944569758,95.01656520024181L162.1034944910555,94.30575205195129L165.34629486593244,95.62934833654288L166.23069496817158,95.49965302745017L166.5254950022513,95.88991103597516L167.11509507041075,95.04252017575067L167.70469513857017,94.89273250058562L171.83189561568625,93.99806453465135L173.30589578608485,94.68466491490994L173.89549585424427,95.35563359927608L174.77989595648344,95.23309962969341L175.3694960246429,95.11334106095279L176.84349619504147,94.36785105938213L177.1382962291212,94.0823285296944L178.90709643359952,94.7616994360493L179.49669650175895,94.87912342893071L179.7914965358387,94.22455290242453L180.38109660399812,93.35556912034832L180.67589663807783,94.0387163995083L181.560296740317,93.94532613498461L182.14989680847643,93.85400779370366L183.62389697887502,94.53272238556826L183.91869701295474,93.66204361612353L186.57189731967222,93.78955974809884L187.16149738783167,94.31949680189058L188.34069752415053,94.22080317113529L188.63549755823024,93.36014955256314L188.93029759230998,94.04512386925387L190.10949772862887,93.95244968964346L191.28869786494772,94.62378621370425L191.58349789902746,94.51919954436971L192.46789800126663,94.08387853088175L193.05749806942606,93.99072399576579L193.6470981375855,94.62373023401955L193.9418981716652,93.76076717080315L194.23669820574491,93.78222478669113L194.53149823982466,94.45316338877859L195.12109830798408,93.73260144381766L195.41589834206383,92.89080681170037L196.8898985124624,92.06708020343939L197.18469854654214,92.0162721062797L199.24829878510016,91.21182367196303L199.83789885325962,91.6606899508838L201.60669905773793,90.86469521419104L202.19629912589735,90.83885899960978L203.67029929629595,90.81357287069915L205.14429946669455,90.03660725984139L205.73389953485398,90.02788992454396L209.27149994381062,90.01935751049808L211.33510018236865,89.26017059677031L211.62990021644836,89.26744485846626L212.21950028460782,89.27456534445957L212.51430031868753,89.28153547231051L212.80910035276727,89.28835857684481L213.10390038684696,89.29503791243059L213.69350045500641,89.30157665518038L214.57790055724558,88.56004262660707L215.75710069356444,88.58164065732177L216.05190072764415,87.85560247150323L217.23110086396306,87.14478607525876L218.11550096620223,86.44885828755372L219.2947011025211,86.51360638968401L220.17910120476026,86.5770007713669L220.47390123883997,85.89363509816638L221.0635013069994,85.96963977956801L221.3583013410791,85.29927255410433L221.94790140923857,85.3873454938975L222.24270144331828,84.7294199784165L222.537501477398,84.8290440655374L223.42190157963714,84.92659741710264L223.71670161371688,85.02212463609658L224.0115016477966,85.85866579881474L224.60110171595605,86.58350338725865L225.19070178411548,86.14142779209283L225.48550181819522,85.46990898040133L227.54910205675324,85.55420880950152L228.43350215899238,86.24631495504156L229.61270229531127,85.57335570117067L230.49710239755044,85.65546808002341L231.08670246570986,85.73588569803991L231.6763025338693,86.33238941237482L232.8555026701882,85.6770826156112L234.03470280650706,85.04158230314795L234.91910290874623,85.1343579632246L235.21390294282594,85.90128669616661L235.50870297690568,85.23697661802123L235.80350301098537,85.7769127684727L237.5723032154637,86.59386720980353L239.34110341994202,86.65505880028832L239.93070348810144,87.45378951259192L240.22550352218119,86.75892915103816L241.40470365850004,86.81673131868376L242.2891037607392,86.24418118938257L242.58390379481892,86.31237231700248L243.46830389705806,85.64128684764717L243.7631039311378,85.8479073936652L244.05790396521752,85.9240649499078L244.64750403337698,86.03184622653725L245.2371041015364,85.36703738520174L247.0059043060147,85.9979868958302L247.89030440825388,86.0710459393523L248.18510444233357,85.4073138377899L249.06950454457274,84.75567232589214L249.36430457865248,84.11731871575643L249.6591046127322,84.96460251709567L250.24870468089165,85.25916277164538L250.54350471497136,85.42157830440709L252.31230491944967,86.24207136100426L253.49150505576853,86.07254106387916L253.78630508984824,84.67268754577742L254.3759051580077,84.03682199670902L254.96550522616715,83.41388520475891L255.55510529432658,82.0683388403113L255.8499053284063,80.75013298287422L256.14470536248604,79.96139082910736L256.4395053965657,80.15590145322665L256.73430543064546,79.611652142033L257.61870553288463,78.91016575872538L258.20830560104406,79.12576419089328L258.7979056692035,78.60714146246329L259.68230577144266,78.09439345044274L260.2719058396021,78.32632642519195L260.5667058736818,77.0851824136248L260.8615059077615,78.4194511487052L262.63030611223985,78.39098566995483L262.92510614631954,78.16017083784516L263.514706214479,77.65681720678646L264.39910631671813,77.16365152400965L265.57830645303704,77.41410256856079L266.4627065552762,77.58487284514268L267.3471066575154,77.82679461705567L267.64190669159507,78.06382439303388L268.23150675975455,77.5512641224305L268.821106827914,76.32732783011585L269.41070689607335,75.12812522054645L270.884707066472,75.16182137701338L271.7691071687112,75.4522897375528L272.3587072368706,75.00396400962171L276.7807077480664,75.29754759740871L277.95990788438525,74.11963018769524L278.54950795254473,73.6076577697803L278.8443079866244,73.19655842891189L280.02350812294327,72.79375387452109L280.6131081911027,73.1315974866182L281.7923083274216,73.46262677845237L282.38190839558104,73.05458269817814L282.9715084637405,72.654766125891L283.8559085659797,72.99528790668768L284.44550863413906,72.59672579880811L284.7403086682188,72.7667729669829L285.32990873637823,72.9508864457639L286.50910887269714,73.28535955294865L287.688309009016,73.61309484130538L289.751909247574,74.56473048779588L290.04670928165376,74.13484815131858L290.34150931573345,74.60703558971363L290.6363093498132,75.13050161789681L291.2259094179726,75.13227975834349L292.1103095202118,77.57939274243296L292.4051095542915,79.28413487470237L292.6999095883712,80.11235186374847L293.5843096906104,80.84346360335547L293.8791097246901,81.75090162414506L294.17390975876987,81.97111557425171L294.4687097928495,82.89798188690969L296.8271100654873,83.46095165037985L297.121910099567,84.88506483642595L298.0063102018062,85.71120279199909L300.0699104403642,85.81242393879535L300.95431054260337,85.6603615802851L303.31271081524113,85.73962484376176L303.6075108493209,86.3179813595342L304.1971109174803,85.65292299012981L304.49191095156,85.00122861792528L304.78671098563973,85.09368945888014L305.6711110878789,85.91532019024828L305.9659111219586,85.25845591728654L306.55551119011807,85.36275163449028L307.1451112582775,85.78433994994549L308.6191114286761,85.13018568464088L308.91391146275583,85.22003797473104L310.09311159907463,85.33357677760932L310.3879116331544,85.87437111352125L310.6827116672341,86.08909746943084L310.9775117013138,86.5369824251573L311.86191180355297,86.08855202789692L312.1567118376327,85.63537429055458L312.45151187171246,85.57970384394878L313.3359119739516,85.66052305685741L313.6307120080313,86.47034373939482L315.9891122806691,86.53331511174258L317.16831241698793,86.59502292417943L317.7579124851474,85.92494188944693L318.34751255330684,85.26830470505791L318.6423125873866,84.6248408178381L319.5267126896257,83.9942851522813L320.41111279186487,84.10683847122237L320.70591282594455,83.4866951514636L321.0007128600243,82.87899002028149L321.29551289410404,82.28347291221809L322.1799129963432,82.43027597007256L324.5383132689809,81.84377762158744L325.12791333714034,81.26904004917293L326.30711347345925,81.43614592574704L326.601913507539,80.86960075139757L327.4863136097781,81.04469675794127L328.0759136779376,80.4860179615024L328.665513746097,80.00766046374764L330.13951391649556,80.20000252814202L332.20311415505364,80.38848898134955L332.4979141891334,79.95028598400756L333.38231429137255,79.58604324547241L333.971914359532,79.0566449553209L335.74071456401026,78.63966646989371L336.03551459809,78.12923728021008L336.62511466624943,78.06450787378145L337.21471473440886,78.29571800782185L338.39391487072777,78.5222949718617L339.5731150070466,78.42527446651411L340.16271507520605,78.50926018223635L341.63671524560465,78.73154965651588L341.9315152796844,78.21934981555103L342.22631531376413,78.44743457588163L344.28991555232216,77.94093982203276L344.58471558640184,78.17458958602128L346.3535157908802,78.40355864627162L347.53271592719904,78.6279409224835L347.8275159612788,78.84782844383818L348.1223159953585,79.0633113872903L350.77551630207597,78.54453897289261L351.3651163702354,78.03615747625082L352.24951647247457,77.53795846574764L354.0183166769529,77.47683415324047L354.31311671103265,77.7197401188854L355.49231684735145,78.68766761942612L356.3767169495906,78.90633408259299L356.67151698367036,79.66988616958622L356.9663170177501,80.59874702384906L361.09351749486615,80.66912943955339L361.9779175971053,80.11829235686207L362.8623176993445,80.3083150629472L363.1571177334242,79.8717045594999L363.4519177675039,80.0666573404747L364.3363178697431,80.98751034936703L364.63111790382277,81.67330446409233L364.92591793790245,81.51338052868914L370.2323185513374,81.1068811776741L370.8219186194969,82.0068782614199L371.1167186535766,82.13971246361154L371.70631872173607,82.98082527986708L372.00111875581575,83.84211143699247L373.7699189602941,83.22785702669256L374.06471899437383,83.539553203531L374.6543190625332,82.9313645039037L375.2439191306927,83.06507198925169L375.8335191988521,83.19610291953848L376.42311926701154,83.32451092118026L377.3075193692507,82.89452590924475L377.8971194374102,82.92397620569062L378.4867195055696,83.1661281655717L379.07631957372905,82.88570967105971L379.6659196418884,83.75000013548498L380.2555197100479,83.86731951639393L383.2035200508451,83.6811403221057L384.382720187164,83.79983561500268L385.56192032348287,83.9161552574966L385.85672035756255,83.40146871718014L386.1515203916423,83.48959417203127L386.7411204598017,83.5039164311313L387.6255205620409,84.34476017612224L388.50992066428006,83.72054398366504L389.09952073243954,83.91679532957443L389.98392083467866,84.03076945997174L391.752721039157,83.4128470936372L392.3423211073164,84.25141865834081L392.93192117547585,83.73728270505529L393.2267212095556,83.12524302741855L394.11112131179476,83.98464732739808L394.4059213458745,84.82685382848194L394.70072137995413,84.92261705440802L395.5851214821933,85.19182184686935L397.94352175483107,85.16078367178801L399.4175219252297,86.87580879828425L400.0071219933891,88.92218181372783L401.77592219786743,89.8820077733481L402.95512233418634,89.8766403761802L403.249922368266,89.89723991052932L403.54472240234577,91.35068779914889L403.8395224364255,92.7750533088618L405.6083226409038,92.71181214438968L406.49272274314296,93.06807023164896L408.556322981701,92.87413760512169L409.14592304986047,93.70897526229561L410.0303231520996,94.25721475974711L410.32512318617927,94.87475090744164L411.20952328841844,94.0968556269259L412.9783234928968,94.07503963352912L413.5679235610562,95.08056124079422L414.4523236632953,96.43025581462729L415.3367237655345,97.28709769678585L415.63152379961423,97.12941958569445L415.92632383369397,96.95134385784013L416.22112386777366,97.13380282991477L416.5159239018534,96.9479383697805L418.28472410633174,96.80122940332086L420.05352431081,95.92794746322687L421.82232451528836,96.2809201876633L423.00152465160727,96.29183498214331L423.5911247197667,95.74521900826392L425.06512489016524,96.35206929109455L426.24432502648415,96.21728222208799L428.30792526504223,96.0851916764509L428.89752533320166,95.30533536930488L429.78192543544077,95.19148702670674L430.3715255036002,95.32602895173403L430.66632553767994,95.08446009426109L431.5507256399191,94.97503075366149L431.8455256739988,94.13830790268895L432.4351257421583,93.31832372287198L432.72992577623796,93.51734068429073L433.61432587847713,93.43925858618877L438.6259264578324,92.633263043108L438.9207264919121,92.57286490068174L439.21552652599183,93.17217948110118L440.6895266963904,92.37153167019454L441.57392679862954,92.99806937374825L442.75312693494845,92.20090763483495L443.0479269690282,91.41969247803394L443.3427270031079,92.11303318347768L444.5219271394268,91.95645210462459L444.8167271735065,92.63905377151093L445.11152720758616,91.84976673414832L445.70112727574565,92.53449966511863L446.2907273439051,91.79238038850582L446.8803274120645,91.61251171561906L447.469927480224,91.08336516705049L449.8283277528617,91.73279506314464L451.3023279232603,91.83970788561771L451.59712795734004,91.06573350137427L454.25032826405754,91.03669052447498L454.5451282981372,91.00822850089617L457.78792867301416,90.98033580785739L460.1463289456519,91.16477615670806L460.4411289797316,90.71832038028685L461.3255290819708,90.1320595028485L461.9151291501302,90.80643099771481L462.20992918420995,91.51201627571754L464.5683294568477,91.30997168385244L464.8631294909274,91.80722284813606L465.1579295250071,92.49278801826142L465.45272955908683,92.97516632715377L466.337129661326,92.65921013733532L466.92672972948543,93.32773180704777L467.2215297635652,93.50411402583791L467.51632979764486,94.15573494004025L469.8747300702826,93.53417780952333L471.3487302406812,93.37651987588555L471.64353027476096,93.30125927387394L472.52793037700013,93.92271319470996L474.5915306155581,94.26179702044669L475.1811306837176,94.16883018184956L478.1291310245148,94.07772287642581L479.60313119491343,93.98843790573403L479.89793122899306,93.76468437488654L480.48753129715254,93.68166066345071L480.78233133123223,93.60029758802233L482.55113153571057,93.74331274899646L482.8459315697903,93.66071673012323L484.61473177426865,93.57977278310744L484.9095318083483,93.50044786051302L487.5627321150658,93.42270957609003L488.7419322513847,93.3465261915419L489.3315323195441,93.27186660355693L490.510732455863,93.92812014757942L493.1639327625805,93.8418283365811L493.7535328307399,93.02784386773601L494.637932932979,93.6889764716255L495.2275330011385,92.87805042580084L495.5223330352182,92.81276105738272L496.99633320561685,92.84138204616312L497.880733307856,92.77682616733534L499.3547334782546,92.71356149713125L499.944333546414,93.38097704919846L501.1235336827329,92.57621470133142L501.7131337508923,91.78754866867865L502.00793378497207,91.5969130923308L502.30273381905175,91.34787887663464L502.89233388721124,91.2757086142189L503.48193395537066,91.02827416325295L504.9559341257692,90.9999819010904L505.8403342280084,91.70166663549497L506.42993429616786,91.30426927962822L507.314334398407,91.74814263784793L508.1987345006462,91.57638466019301L509.37793463696505,91.59641411048892L511.4415348755231,90.88618415430358L511.7363349096028,90.86073387636429L512.0311349436826,90.71770904320937L514.0947351822406,91.12179016955548L514.6843352504,90.93751438190753L515.2739353185594,90.19329196095543L516.1583354207986,90.53148794555847L516.4531354548783,90.51313182867858L518.2219356593566,90.49514285073525L518.5167356934363,89.7481077793712L519.6959358297552,89.74541962719712L520.8751359660741,90.14665551736948L521.7595360683133,90.1359962481938L522.054336102393,90.52150402051171L522.3491361364727,91.23275199336143L522.6439361705524,91.07734097728093L523.2335362387118,91.04806766160698L524.117936340951,90.32995775542764L526.181536579509,90.02820818606506L526.4763366135888,89.29051497224157L527.9503367839874,89.29697884749112L528.5399368521468,89.30331344074074L528.8347368862266,89.64919117985113L529.1295369203062,89.79233081724811L531.7827372270237,89.78875820422365L532.9619373633426,89.20687873333429L533.551537431502,89.41342766726632L533.8463374655818,89.7236272912931L534.4359375337413,90.1297084896895L535.9099377041398,90.11938822998434L536.2047377382196,90.10927438145688L536.794337806379,90.1535772825132L537.0891378404586,89.95097075862014L537.3839378745383,90.21355255974805L538.2683379767776,90.8353921081013L538.857938044937,90.81095801022707L539.1527380790167,90.05761344332478L539.4475381130965,90.04873512505702L542.1007384198139,90.04003437753397L542.985138522053,89.302109030834L545.6383388287705,88.83590590842499L547.4071390332488,88.7522230578951L547.7019390673286,88.73608591589141L549.4707392718069,88.1761014944608L549.7655393058866,88.18945864197696L550.0603393399664,88.21794383218287L550.6499394081258,88.24585930663096L552.418739612604,88.30043523326685L554.1875398170823,89.05609801943223L554.4823398511621,88.33785320706085L556.8407401238,88.35674061754384L557.1355401578796,89.11127684221992L558.0199402601187,88.56797650476437L558.904340362358,89.01304157037788L560.0835404986768,88.29569300164047L560.6731405668363,89.05144963932997L561.8523407031552,89.06269480314944L563.6211409076334,89.05217491857798L564.8003410439522,89.79280140980183L565.095141078032,89.49439726096034L565.9795411802712,89.18509702120264L566.5691412484306,88.84741892835183L567.4535413506698,88.56091205001138L568.6327414869886,87.85257275952785L569.2223415551481,88.61719077811489L569.8119416233075,88.63712116474017L570.1067416573873,87.9272579882508L570.401541691467,87.96098711884548L572.465141930025,87.99404165775292L573.0547419981845,88.75582974956905L573.3495420322641,88.7700264834175L575.1183422367425,88.93771071214297L575.4131422708222,88.97890144847344L575.707942304902,89.16484622853164L576.2975423730614,89.90321761319791L576.8871424412208,89.90521805824682L580.4247428501774,89.16999370051468L583.0779431568949,90.50682552678842L584.2571432932137,90.31748054806297L585.7311434636124,89.6566169127214L586.0259434976921,90.75628074207003L587.4999436680906,91.37853010573104L587.7947437021704,92.80202049373429L588.0895437362501,93.46764731127433L589.268743872569,93.66629425549394L589.5635439066488,93.5852420487522L591.3323441111271,93.17259520021838L592.5115442474458,93.83081023588397L592.8063442815256,94.47586085260144L593.1011443156053,93.82237798411029L593.6907443837648,94.66217130968238L593.9855444178446,94.32338726874985L595.4595445882431,93.49980031487638L596.3439446904823,94.15147088110967L596.9335447586418,95.38322995413063L597.8179448608809,95.99723167851471L598.70234496312,95.33656453377546L599.5867450653592,95.53085583000876L600.1763451335187,95.25894199821704L601.945145337997,94.75673744683093L602.2399453720767,94.0220829533423L602.8295454402361,93.93391505405339L603.4191455083956,93.11811818830154L606.0723458151131,93.04802965560737L606.3671458491929,93.09272265588436L606.6619458832726,92.29374985187258L606.9567459173524,92.36425224596428L611.0839463944683,93.76802529884708L612.2631465307873,94.41433066490254L613.4423466671061,94.3183178335475L613.7371467011858,94.2242252698777L614.621546803425,94.86140649822863L614.9163468375046,95.3903736576832L615.8007469397439,95.36465471012258L616.3903470079033,95.97902718503934L616.9799470760628,96.58111214649733L618.4539472464613,96.71032413087897L619.3383473487004,96.56839135825555L619.9279474168599,97.26666653391243L620.2227474509397,98.57239015284944L620.8123475190991,99.12260758512161L621.6967476213382,99.37436483260495L622.5811477235774,98.79369237544842L623.1707477917367,99.37281344478703L624.055147893976,99.17763081781527L624.9395479962151,99.33401645786296L625.2343480302949,98.41021839133481L626.118748132534,99.26335200937672L627.0031482347732,99.07035864799889L629.3615485074109,99.39115238434209L629.6563485414907,99.92499430642681L630.2459486096501,100.14753350957983L631.7199487800486,100.61357539098242L633.1939489504473,100.39357755034763L633.488748984527,99.90095981168821L633.7835490186067,100.06526881117878L634.3731490867661,99.91031981883151L634.667949120846,100.71485830924638L635.2575491890053,99.76344377126713L635.8471492571648,100.94948451036021L636.7315493594039,101.0171561217619L637.0263493934837,101.49919494885506L638.2055495298025,101.3664524055298L639.6795497002012,100.40200611453736L640.2691497683605,99.87829978446183L642.0379499728389,100.40239847928626L642.3327500069186,100.84074623409936L642.6275500409982,100.64719062950434L642.922350075078,100.4568265448496L643.2171501091577,100.51436425062775L644.1015502113969,100.78649680896149L644.6911502795564,101.29243145659933L645.5755503817954,101.14647558129599L645.8703504158752,100.18642909021332L646.7547505181144,100.77520961914877L647.3443505862738,101.2813699619449L647.9339506544333,101.6396989072523L648.228750688513,102.12856942220242L648.5235507225927,101.22619408199597L649.7027508589116,102.4527253461664L650.8819509952305,102.764731069194L651.1767510293101,102.76655236655546L651.4715510633899,102.84322982601532L652.6507511997087,103.24155138945048L652.9455512337885,103.69838475298627L653.535151301948,102.68730027770152L653.8299513360276,103.36216935843277L654.419551404187,103.14892637705083L654.7143514382668,104.10180612794909L655.0091514723465,104.55571189832119L655.598751540506,103.60065261684241L655.8935515745857,104.05030389218359L656.4831516427452,103.50584611529291L657.3675517449843,103.22800303239364L657.9571518131437,103.08237044998577L658.2519518472234,103.40869702041294L660.0207520517017,103.25980844671943L660.3155520857815,103.96107000881341L660.6103521198612,102.97968877183104L661.7895522561801,102.98763066520519L662.3791523243395,102.39544299796057L662.9687523924989,102.86919841368479L664.1479525288179,101.87469795197194L666.2115527673759,101.62947789418553L667.0959528696151,100.65977188491973L667.6855529377744,100.43885037002781L668.2751530059338,101.51818521547705L668.5699530400136,100.58385673733204L669.7491531763326,100.36445353442485L670.338753244492,100.14943840069793L670.6335532785716,99.2093332688163L670.9283533126514,98.28803026065077L671.8127534148905,98.11454362228676L672.9919535512095,97.94452672042587L673.286753585289,97.04851988650171L674.1711536875283,96.17043320778606L675.0555537897674,95.30990828044105L678.0035541305647,95.19598412002176L678.2983541646444,95.08433844502838L679.1827542668835,94.24553544857446L679.4775543009632,94.15289875793366L680.0671543691227,93.33272457934765L680.9515544713619,93.25834411589983L681.5411545395214,93.18545126302956L681.835954573601,93.11401626847356L682.4255546417604,92.31461977723234L682.7203546758401,92.26060142073692L683.0151547099199,91.47827324654293L683.3099547439996,91.44098182812138L683.899554812159,90.67504606454457L684.4891548803184,89.92442902793834L684.7839549143982,89.18882434329993L685.9631550507171,88.46793176314515L686.2579550847968,87.76145704495684L686.8475551529563,87.06911183108542L687.7319552551953,86.3906135310504L688.3215553233548,87.00702679967236L689.205955425594,86.54440161178445L692.7435558345505,85.87639753314357L693.9227559708695,85.79862662163498L694.8071560731087,85.87492817395452L696.2811562435072,85.9497036942945L696.8707563116667,85.29359359420829L697.7551564139058,85.11706573420963L699.5239566183841,85.90439723943769L699.8187566524639,86.70797347294638L700.4083567206234,86.7660880805737L701.2927568228624,86.82304039541884L702.1771569251017,87.35018566724716L702.4719569591814,87.39545602674599L702.7667569932611,88.16921105542866L705.4199572999786,87.82105234758416L705.7147573340583,87.70942413639148L706.0095573681381,87.74750972389597L706.3043574022176,87.055443536746L706.8939574703771,87.83599879801949L707.4835575385366,88.60094294701673L708.3679576407757,88.20302813878624L709.8419578111743,88.2312416432543L710.4315578793338,88.25889087739307L710.7263579134135,88.28598712661875L711.0211579474933,88.26722098813872L711.315957981573,88.9246161883795L713.6743582542107,88.54580237355793L716.3275585609282,89.29655042282508L717.8015587313267,88.90775898287922L720.1599590039646,88.6759862082663L720.4547590380442,88.84434578964101L721.3391591402834,88.8597329377339L722.5183592766023,88.87481234275805L723.4027593788414,88.88959015957909L724.5819595151603,88.90407241996508L725.4663596173995,88.18887502426071L726.3507597196386,88.74512231104393L726.6455597537184,88.47957337445075L726.9403597877981,89.23164597545014L727.5299598559575,88.54880170543277L729.8883601285953,87.8852420807703L730.4779601967548,88.22342005862293L731.0675602649142,88.2512257225427L731.6571603330736,88.27847527302936L733.1311605034722,87.57578984119033L734.6051606738707,86.88715812174195L736.9635609465086,86.21229904028769L737.2583609805883,86.28032712930587L737.553161014668,86.34699465620167L738.7323611509869,85.68293885051736L739.616761253226,85.03216416415341L740.5011613554652,85.12379495278793L742.8595616281028,85.21359312522469L743.4491616962623,85.30159533380476L744.6283618325812,84.65844752465301L744.923161866661,84.02816267449168L745.2179619007406,84.13987349401395L745.5127619348204,83.51996012823741L746.1023620029799,82.91244503232309L746.6919620711393,82.31708024077301L747.5763621733785,82.4630127113931L749.3451623778568,82.60602653203654L749.9347624460162,82.74618007572525L751.9983626845742,82.88353054801968L753.1775628208932,82.28874405190703L753.7671628890525,82.43524324498549L754.9463630253715,81.94579237780528L755.2411630594511,83.35961899427951L755.8307631276106,83.54605925520309L756.7151632298498,84.09751929807373L757.3047632980092,84.20784298210043L758.1891634002484,84.53182970920096L758.7787634684078,84.20019922064773L759.6631635706469,84.30846930555117L759.9579636047267,84.41457398843448L760.2527636388063,85.24794652272254L763.2007639796036,85.3352616596253L763.4955640136833,85.4208304935458L764.0851640818427,85.50468795055309L764.3799641159225,85.5868682581949L764.6747641500021,84.9380150191497L764.969564184082,85.03152878592715L765.853964286321,85.12317227713243L766.1487643204008,84.48359296076484L766.7383643885603,84.58619516890514L767.6227644907993,84.68674533263822L768.2123645589588,84.7852844928621L768.8019646271183,84.15246293560864L769.3915646952777,84.26168774414043L772.0447650019952,83.63933812384857L772.339565036075,83.02943549730202L773.223965138314,82.43173092457283L773.8135652064735,81.84598044453367L774.4031652746329,82.00133490461735L774.9927653427924,82.15358227519096L775.5823654109519,81.58507946637508L775.8771654450314,81.73092956249337L776.7615655472707,81.19477368450441L778.530365751749,81.31819910126666L778.8251657858287,80.7547192626339L780.0043659221476,80.20250902176457L780.8887660243868,80.57563811432004L781.7731661266259,80.77899008834976L782.3627661947854,80.95568435500655L782.6575662288651,80.89020439910348L783.836766365184,80.45517154043586L785.0159665015028,80.63834217787502L785.900366603742,80.62087970548782L786.1951666378218,80.42653653501691L786.4899666719014,80.18685432462485L786.7847667059812,79.64600138731572L787.6691668082203,79.74860714607019L788.8483669445392,79.43147672882492L789.4379670126987,79.63512126225027L790.6171671490175,79.83469290473727L790.9119671830972,79.30088319790008L791.7963672853364,79.50713960162545L793.2703674557349,79.70927087701904L794.1547675579741,79.90735952665756L794.4495675920539,79.37209648867076L795.0391676602133,78.8475387120721L795.6287677283727,78.33347209160894L796.2183677965322,77.82968680413461L796.5131678306119,78.06536713568306L797.3975679328511,77.56694394802759L797.6923679669308,77.07848922465416L798.2819680350902,77.32919350780003L799.1663681373293,76.84549379385908L799.4611681714091,76.37146807468014L800.0507682395686,75.38677513232142L801.8195684440469,75.67131369761609L802.703968546286,76.62170074845113L803.5883686485251,76.88154080059263L803.8831686826048,78.49682091032219L805.0623688189238,80.83548719445002L806.8311690234021,81.01105151551474L810.6635694664384,82.43953733366766L811.8427696027574,82.58302065113782L812.4323696709166,82.72363430214142L813.9063698413154,83.5908255872202L814.7907699435544,84.169771114208L815.3803700117139,84.27864975517991L816.5595701480328,83.91963764682737L818.0335703184313,84.03351895715633L819.2127704547503,83.41573273537563L820.3919705910691,82.81030223846818L821.2763706933083,82.9463702572233L823.9295710000258,82.35032701045736L825.6983712045042,82.49559453383188L828.6463715453012,83.36734661121096L828.941171579381,84.22166364648422L829.2359716134607,85.27949705713928L830.1203717156999,85.21148729715048L830.4151717497796,84.57014171005608L831.8891719201782,84.68583409661272L832.4787719883377,84.7843914772788L833.6579721246565,84.15158780726432L833.9527721587363,84.63991634223822L834.2475721928159,84.65269870237978L834.5423722268957,84.75191879082979L834.8371722609754,84.8491544774588L835.1319722950551,84.94444545030541L835.4267723291348,84.30844070180467L837.7851726017726,84.41454595024834L838.6695727040117,84.51852909367182L840.43837290849,84.6204325741777L844.5655733856062,85.23892722071366L844.8603734196859,85.32642273846949L845.1551734537657,84.81890257704589L847.2187736923236,84.38632521531758L848.6927738627222,85.22026267379272L849.5771739649614,85.36388246444335L850.1667740331209,84.71948897702157L850.4615740672006,84.81737325964235L850.7563741012802,85.5532515420091L851.0511741353599,84.90507067338467L852.2303742716789,84.99924332198611L854.5887745443166,85.09153251758067L854.8835745783963,85.18197592922974L855.7679746806356,84.54122057340777L856.357574748795,84.64267022400315L856.6523747828746,84.01270098260096L857.2419748510341,84.12472102506553L860.7795752599908,84.23450066664401L861.3691753281502,83.61269481676788L862.2535754303893,83.7327149825569L862.8431754985487,83.85033474499306L864.3171756689474,83.23621221389925L865.2015757711865,82.63437213360982L866.0859758734257,82.04456885510155L868.7391761801431,81.46656164233167L869.0339762142229,81.62950447179952L869.918376316462,81.78918844463334L870.8027764187012,81.34092895677179L871.3923764868607,80.87529401018742L871.6871765209403,80.51390382885836L873.4559767254186,80.69589981460655L874.3403768276578,80.82954651193614L874.6351768617376,81.76381875957054L876.1091770321361,81.96112405573399L876.6987771002956,82.8435655336703L877.288377168455,83.52996832616219L878.1727772706942,83.69306220018683L878.4675773047738,85.22920117081372L878.7623773388535,86.70305379744417L880.8259775774117,88.22004657613883L882.2999777478102,89.17973697363334L882.8895778159697,88.52454743626578L883.1843778500494,89.40411749921373L883.4791778841292,89.40830921043613L884.658378020448,90.14180698364441L884.9531780545277,90.13124490510921L886.721978259006,89.92709144656732L887.9011783953249,90.54103248217626L888.7855784975641,91.64156783390314L889.0803785316438,91.78989561266548L889.6699785998032,91.58392993660328L891.7335788383613,91.87829325693593L892.0283788724411,91.3392722810658L893.5023790428396,92.45143521776026L897.0399794517963,93.55480467727648L898.5139796221948,94.82609191381727L899.1035796903543,95.00350700214153L899.3983797244339,94.1916210577865L900.2827798266732,93.37067280212818L900.5775798607528,92.70169168555526L903.2307801674702,92.59314582925964L904.9995803719486,92.4465721424275L906.1787805082676,93.11930465574221L906.4735805423472,93.31043161782407L907.6527806786662,93.95177738278136L908.2423807468255,94.1113053940453L908.831980814985,94.75074324205582L909.4215808831444,96.05676890632344L910.0111809513038,96.65729748389884L910.8955810535431,96.85534576486157L911.1903810876228,97.3177612858791L911.4851811217026,97.71873724991639L912.3695812239416,98.07444255371342L912.6643812580214,98.62450571491888L912.9591812921011,98.81560742016302L913.2539813261807,98.63156933248234L914.13838142842,98.53259899343948L914.4331814624996,99.17753476189716L914.7279814965794,98.31153964263814L915.6123815988185,98.14033679258665L915.9071816328983,97.96980411753282L916.4967817010578,97.80268209599546L916.7915817351374,96.9095126205359L917.9707818714563,96.92580348834417L918.5603819396157,96.05017158515193L918.8551819736954,95.92144221437024L919.1499820077752,97.2540672195023L920.329182144094,96.73183351490894L920.9187822122535,96.5894709055213L921.508382280413,97.01338701017971L922.3927823826521,96.86539333088706L925.0459826893696,96.35341883222071L925.9303827916087,96.33536365509951L926.5199828597682,96.070041053063L927.1095829279277,95.80930495666269L927.699182996087,95.68539291850743" style="fill: none;" fill="none"></path></g></g></g></g><g opacity="0.2"><g><g><g><path stroke="rgb(255, 112, 67)" stroke-width="2px" d="M24.13707854174681,89.61370305932564L25.61107871214541,53.14420842075043L26.49547881438457,53.14420842075043L26.790278848464286,53.14420842075043L27.674678950703445,53.14420842075043L29.44347915518176,89.61370305932564L32.9810795641384,89.61370305932564L34.160279700457274,53.14420842075043L34.74987976861671,89.61370305932564L35.33947983677615,53.14420842075043L35.63427987085587,89.61370305932564L36.22387993901531,89.61370305932564L37.99268014349363,53.14420842075043L38.28748017757335,53.14420842075043L38.582280211653064,53.14420842075043L38.877080245732785,53.14420842075043L41.53028055245026,89.61370305932564L42.41468065468942,53.14420842075043L43.29908075692858,53.14420842075043L43.593880791008296,53.14420842075043L43.88868082508802,53.14420842075043L44.18348085916774,89.61370305932564L45.657481029566334,53.14420842075043L48.015881302204086,53.14420842075043L48.310681336283814,114.77186557335233L50.079481540762124,89.61370305932564L52.43788181339988,123.86308465767848L53.322281915639046,68.34083401074412L53.61708194971876,128.75823340455133L55.6806821882768,126.08319769790083L57.15468235867539,130.7781178675086L59.513082631313154,117.8637398241267L60.3974827335523,89.61370305932564L60.69228276763203,124.44829328040939L63.345483074349495,126.08319769790083L63.935083142508944,92.01206370393976L64.22988317658866,126.08319769790083L64.52468321066837,89.61370305932564L66.58828344922641,126.08319769790083L68.062283619625,89.61370305932564L68.65188368778446,53.14420842075043L68.94668372186416,89.61370305932564L70.12588385818304,89.61370305932564L71.59988402858164,89.61370305932564L71.89468406266137,126.08319769790083L72.77908416490052,162.552692336476L74.54788436937885,58.05260835538394L74.84268440345856,60.06258051253593L75.432284471618,126.08319769790083L76.31668457385716,162.552692336476L76.9062846420166,100.84587585751405L77.20108467609631,124.78531167778621L77.79068474425576,85.81833333654492L78.3802848124152,53.14420842075043L78.67508484649493,89.61370305932564L80.73868508505295,118.67390561860509L83.0970853576907,89.61370305932564L83.39188539177043,89.61370305932564L83.68668542585014,105.43614294583114L84.86588556216903,82.75904796485639L87.81388590296622,73.5938169971846L88.10868593704593,89.58601816311182L88.69828600520538,53.14420842075043L89.87748614152426,109.61983159603312L90.76188624376341,123.79832425975118L91.05668627784314,53.14420842075043L91.35148631192284,126.08319769790083L92.23588641416201,99.77433820996174L95.77348682311865,89.9442349829036L97.54228702759696,89.61370305932564L98.42668712983613,95.47088455961858L99.01628719799555,53.14420842075043L99.31108723207528,99.07501634039971L99.90068730023472,126.08319769790083L101.0798874365536,89.61370305932564L102.25908757287247,82.57780927871283L102.8486876410319,100.71061635829852L104.32268781143051,89.61370305932564L108.44988828854659,56.834872892209944L109.92388845894519,53.14420842075043L110.2186884930249,89.61370305932564L111.39788862934377,89.61370305932564L111.6926886634235,53.14420842075043L112.87188879974236,53.14420842075043L113.16668883382209,106.91326780091799L113.75628890198152,85.66326661572919L114.64068900422069,53.14420842075043L116.11468917461929,116.21881876076895L116.409489208699,126.08319769790083L116.70428924277873,53.14420842075043L118.17828941317732,121.8153066183852L118.47308944725705,88.8130496004182L118.76788948133675,74.02717605098394L119.65228958357592,105.03645095174915L122.3054898902934,89.61370305932564L122.89508995845283,69.69876773602601L124.66389016293115,52.97522969178709L126.43269036740946,126.08319769790083L126.72749040148919,32.905105917600395L128.4962906059675,70.9078081941077L129.38069070820666,53.37313051482005L130.55989084452554,87.60948699554461L131.73909098084442,138.2776640996622L132.32869104900385,114.97943273491524L133.50789118532273,126.08319769790083L133.80269121940245,79.76954870403841L134.09749125348216,153.0532601530774L134.68709132164162,53.14420842075043L136.1610914920402,85.81449014429415L137.6350916624388,102.99707228737498L137.92989169651855,89.61370305932564L142.64669224179406,53.14420842075043L144.71029248035208,126.08319769790083L146.4790926848304,89.61370305932564L146.7738927189101,56.150697721518725L147.36349278706956,53.14420842075043L149.13229299154787,137.5117906611239L151.78549329826532,114.30231790835893L152.37509336642478,89.66769904094872L152.6698934005045,142.45384026546446L153.55429350274363,85.0748930111447L155.32309370722197,126.08319769790083L157.68149397985974,133.80215368855303L157.97629401393945,126.08319769790083L158.8606941161786,126.08319769790083L159.1554941502583,109.05815165708196L161.8086944569758,122.71918717774815L162.1034944910555,62.152998856801844L165.34629486593244,155.6002879947593L166.23069496817158,89.61370305932564L166.5254950022513,113.62918539413488L167.11509507041075,56.46408309505466L167.70469513857017,88.06307063118857L171.83189561568625,53.14420842075043L173.30589578608485,126.08319769790083L173.89549585424427,126.08319769790083L174.77989595648344,89.61370305932564L175.3694960246429,89.61370305932564L176.84349619504147,60.08704825686567L177.1382962291212,80.93556627692351L178.90709643359952,126.08319769790083L179.49669650175895,100.2996034675864L179.7914965358387,63.971367881740434L180.38109660399812,53.14420842075043L180.67589663807783,125.6879227664057L181.560296740317,89.61370305932564L182.14989680847643,89.61370305932564L183.62389697887502,126.08319769790083L183.91869701295474,53.14420842075043L186.57189731967222,99.72992412395035L187.16149738783167,119.03231372850894L188.34069752415053,89.61370305932564L188.63549755823024,53.14420842075043L188.93029759230998,126.08319769790083L190.10949772862887,89.61370305932564L191.28869786494772,126.08319769790083L191.58349789902746,89.61370305932564L192.46789800126663,73.64748256861418L193.05749806942606,89.61370305932564L193.6470981375855,124.3920713774827L193.9418981716652,53.14420842075043L194.23669820574491,94.79298718260401L194.53149823982466,126.08319769790083L195.12109830798408,59.73641348151432L195.41589834206383,53.14420842075043L196.8898985124624,53.14420842075043L197.18469854654214,89.61370305932564L199.24829878510016,53.14420842075043L199.83789885325962,112.91673406688358L201.60669905773793,53.14420842075043L202.19629912589735,89.61370305932564L203.67029929629595,89.61370305932564L205.14429946669455,53.14420842075043L205.73389953485398,89.61370305932564L209.27149994381062,89.61370305932564L211.33510018236865,53.14420842075043L211.62990021644836,89.61370305932564L212.21950028460782,89.61370305932564L212.51430031868753,89.61370305932564L212.80910035276727,89.61370305932564L213.10390038684696,89.61370305932564L213.69350045500641,89.61370305932564L214.57790055724558,53.14420842075043L215.75710069356444,89.61370305932564L216.05190072764415,53.14420842075043L217.23110086396306,53.14420842075043L218.11550096620223,53.14420842075043L219.2947011025211,89.61370305932564L220.17910120476026,89.61370305932564L220.47390123883997,53.14420842075043L221.0635013069994,89.61370305932564L221.3583013410791,53.14420842075043L221.94790140923857,89.61370305932564L222.24270144331828,53.14420842075043L222.537501477398,89.61370305932564L223.42190157963714,89.61370305932564L223.71670161371688,89.61370305932564L224.0115016477966,126.08319769790083L224.60110171595605,121.4501164045094L225.19070178411548,64.86848372714161L225.48550181819522,53.14420842075043L227.54910205675324,89.61370305932564L228.43350215899238,119.58667247317243L229.61270229531127,53.14420842075043L230.49710239755044,89.61370305932564L231.08670246570986,89.61370305932564L231.6763025338693,115.10568420885517L232.8555026701882,54.057323075521424L234.03470280650706,54.36801299747884L234.91910290874623,89.61370305932564L235.21390294282594,122.9407532975097L235.50870297690568,53.14420842075043L235.80350301098537,111.86863815305998L237.5723032154637,126.08319769790083L239.34110341994202,89.61370305932564L239.93070348810144,126.08319769790083L240.22550352218119,53.14420842075043L241.40470365850004,89.61370305932564L242.2891037607392,58.53222483627411L242.58390379481892,89.61370305932564L243.46830389705806,53.14420842075043L243.7631039311378,95.8558124350539L244.05790396521752,89.61370305932564L244.64750403337698,91.2547635404224L245.2371041015364,53.14420842075043L247.0059043060147,116.58637401602988L247.89030440825388,89.61370305932564L248.18510444233357,53.21595960277199L249.06950454457274,53.14420842075043L249.36430457865248,53.14420842075043L249.6591046127322,126.08319769790083L250.24870468089165,99.55691091262412L250.54350471497136,93.3066108420989L252.31230491944967,126.08319769790083L253.49150505576853,77.83906628343999L253.78630508984824,16.674713782175218L254.3759051580077,53.14420842075043L254.96550522616715,53.14420842075043L255.55510529432658,16.674713782175218L255.8499053284063,16.674713782175218L256.14470536248604,41.615988089180064L256.4395053965657,89.61370305932564L256.73430543064546,53.14420842075043L257.61870553288463,44.79093441860613L258.20830560104406,89.61370305932564L258.7979056692035,53.37469561573664L259.68230577144266,53.14420842075043L260.2719058396021,89.61370305932564L260.5667058736818,16.674713782175218L260.8615059077615,143.3713198127918L262.63030611223985,77.00511095502912L262.92510614631954,66.92123530934771L263.514706214479,53.14420842075043L264.39910631671813,53.14420842075043L265.57830645303704,89.61370305932564L266.4627065552762,85.90417042681588L267.3471066575154,89.61370305932564L267.64190669159507,89.61370305932564L268.23150675975455,52.57266834602467L268.821106827914,16.674713782175218L269.41070689607335,16.674713782175218L270.884707066472,76.80446501751965L271.7691071687112,89.61370305932564L272.3587072368706,53.14420842075043L276.7807077480664,89.61370305932564L277.95990788438525,16.674713782175218L278.54950795254473,48.63730904125816L278.8443079866244,53.14420842075043L280.02350812294327,53.14420842075043L280.6131081911027,89.61370305932564L281.7923083274216,89.61370305932564L282.38190839558104,53.14420842075043L282.9715084637405,53.14420842075043L283.8559085659797,89.61370305932564L284.44550863413906,53.14420842075043L284.7403086682188,81.06687824382715L285.32990873637823,81.93827426416539L286.50910887269714,89.61370305932564L287.688309009016,89.61370305932564L289.751909247574,121.02863472766614L290.04670928165376,53.14420842075043L290.34150931573345,97.66499953461505L290.6363093498132,100.69426974872505L291.2259094179726,75.2191221290542L292.1103095202118,197.10151252019685L292.4051095542915,162.552692336476L292.6999095883712,120.56938194870202L293.5843096906104,116.5592803801623L293.8791097246901,126.08319769790083L294.17390975876987,92.73016678450102L294.4687097928495,128.18478042870515L296.8271100654873,110.96929638635515L297.121910099567,154.47529345589962L298.0063102018062,126.08319769790083L300.0699104403642,90.75920042019294L300.95431054260337,78.22853295153345L303.31271081524113,89.61370305932564L303.6075108493209,114.58721844521261L304.1971109174803,53.14420842075043L304.49191095156,53.14420842075043L304.78671098563973,89.61370305932564L305.6711110878789,126.08319769790083L305.9659111219586,53.14420842075043L306.55551119011807,90.46202253614894L307.1451112582775,106.39772355898646L308.6191114286761,53.14420842075043L308.91391146275583,89.61370305932564L310.09311159907463,90.88571274428563L310.3879116331544,112.32070885781786L310.6827116672341,96.59022734516833L310.9775117013138,108.44151928594755L311.86191180355297,64.15650193016529L312.1567118376327,63.470309518292595L312.45151187171246,82.85674504207321L313.3359119739516,89.61370305932564L313.6307120080313,126.08319769790083L315.9891122806691,89.61370305932564L317.16831241698793,89.61370305932564L317.7579124851474,53.14420842075043L318.34751255330684,53.14420842075043L318.6423125873866,53.14420842075043L319.5267126896257,53.14420842075043L320.41111279186487,89.61370305932564L320.70591282594455,53.14420842075043L321.0007128600243,53.14420842075043L321.29551289410404,53.14420842075043L322.1799129963432,89.61370305932564L324.5383132689809,53.14420842075043L325.12791333714034,53.14420842075043L326.30711347345925,89.61370305932564L326.601913507539,53.14420842075043L327.4863136097781,89.61370305932564L328.0759136779376,53.14420842075043L328.665513746097,56.596212392436996L330.13951391649556,89.61370305932564L332.20311415505364,89.61370305932564L332.4979141891334,58.50254008888908L333.38231429137255,61.757863045388206L333.971914359532,53.14420842075043L335.74071456401026,58.229395198920145L336.03551459809,53.14420842075043L336.62511466624943,74.89599834981482L337.21471473440886,89.61370305932564L338.39391487072777,89.61370305932564L339.5731150070466,73.67582828521506L340.16271507520605,82.620693043828L341.63671524560465,89.61370305932564L341.9315152796844,53.14420842075043L342.22631531376413,89.61370305932564L344.28991555232216,53.14420842075043L344.58471558640184,89.61370305932564L346.3535157908802,89.61370305932564L347.53271592719904,89.61370305932564L347.8275159612788,89.61370305932564L348.1223159953585,89.61370305932564L350.77551630207597,53.14420842075043L351.3651163702354,53.14420842075043L352.24951647247457,53.14420842075043L354.0183166769529,74.48390727847129L354.31311671103265,89.61370305932564L355.49231684735145,126.08319769790083L356.3767169495906,89.61370305932564L356.67151698367036,117.05899971282594L356.9663170177501,126.08319769790083L361.09351749486615,84.11566004936424L361.9779175971053,53.14420842075043L362.8623176993445,89.61370305932564L363.1571177334242,58.49068010194321L363.4519177675039,89.61370305932564L364.3363178697431,126.08319769790083L364.63111790382277,115.25815981815339L364.92591793790245,73.68146264851487L370.2323185513374,61.199261138239706L370.8219186194969,126.08319769790083L371.1167186535766,88.64518383210662L371.70631872173607,124.1742267199007L372.00111875581575,126.02393254319185L373.7699189602941,53.14420842075043L374.06471899437383,98.80529728243715L374.6543190625332,53.14420842075043L375.2439191306927,89.61370305932564L375.8335191988521,89.61370305932564L376.42311926701154,89.61370305932564L377.3075193692507,61.83444865024103L377.8971194374102,84.36642399622565L378.4867195055696,95.0266045794234L379.07631957372905,69.15084329513081L379.6659196418884,126.08319769790083L380.2555197100479,89.61370305932564L383.2035200508451,74.56188408413885L384.382720187164,89.61370305932564L385.56192032348287,89.61370305932564L385.85672035756255,58.19099805643265L386.1515203916423,87.80620279075242L386.7411204598017,84.20546206195735L387.6255205620409,125.53200393509096L388.50992066428006,53.14420842075043L389.09952073243954,93.5299507428993L389.98392083467866,89.61370305932564L391.752721039157,53.14420842075043L392.3423211073164,125.32871471603343L392.93192117547585,58.55225812800677L393.2267212095556,53.14420842075043L394.11112131179476,126.08319769790083L394.4059213458745,126.08319769790083L394.70072137995413,89.61370305932564L395.5851214821933,98.37924203291533L397.94352175483107,83.64032151097939L399.4175219252297,170.88992405422508L400.0071219933891,189.16859853923887L401.77592219786743,136.90159259375775L402.95512233418634,89.61370305932564L403.249922368266,90.90637207638486L403.54472240234577,162.552692336476L403.8395224364255,162.552692336476L405.6083226409038,89.61370305932564L406.49272274314296,110.52080802369528L408.556322981701,83.37352397472785L409.14592304986047,134.60722421004735L410.0303231520996,121.1152891484158L410.32512318617927,125.1277731483508L411.20952328841844,55.98770115605879L412.9783234928968,93.00626797620134L413.5679235610562,144.34154326100887L414.4523236632953,162.552692336476L415.3367237655345,139.26451239761573L415.63152379961423,89.40460557686646L415.92632383369397,88.22719754731048L416.22112386777366,106.0727216586472L416.5159239018534,87.84214794180389L418.28472410633174,89.61370305932564L420.05352431081,53.14420842075043L421.82232451528836,113.57378082168685L423.00152465160727,96.82657497358673L423.5911247197667,68.9652049364106L425.06512489016524,126.08319769790083L426.24432502648415,89.61370305932564L428.30792526504223,89.61370305932564L428.89752533320166,57.09786201623103L429.78192543544077,89.61370305932564L430.3715255036002,101.91767435521922L430.66632553767994,83.24918540190822L431.5507256399191,89.61370305932564L431.8455256739988,53.14420842075043L432.4351257421583,53.14420842075043L432.72992577623796,103.26795647601989L433.61432587847713,89.61370305932564L438.6259264578324,53.14420842075043L438.9207264919121,89.61370305932564L439.21552652599183,122.5352182600057L440.6895266963904,53.14420842075043L441.57392679862954,123.69502759925487L442.75312693494845,53.14420842075043L443.0479269690282,53.14420842075043L443.3427270031079,126.08319769790083L444.5219271394268,84.28476050839896L444.8167271735065,126.08319769790083L445.11152720758616,53.178484130824245L445.70112727574565,126.08319769790083L446.2907273439051,55.43195121058051L446.8803274120645,82.79975797869844L447.469927480224,65.15752308641919L449.8283277528617,123.55204693551741L451.3023279232603,97.07798235082493L451.59712795734004,53.14420842075043L454.25032826405754,89.61370305932564L454.5451282981372,89.61370305932564L457.78792867301416,89.61370305932564L460.1463289456519,100.20164554021676L460.4411289797316,68.84366615523072L461.3255290819708,61.40743695015908L461.9151291501302,123.84819880896055L462.20992918420995,126.08319769790083L464.5683294568477,81.4104874550639L464.8631294909274,116.17083972266977L465.1579295250071,126.08319769790083L465.45272955908683,116.61012876994198L466.337129661326,77.1783676264979L466.92672972948543,126.08319769790083L467.2215297635652,102.1463008191156L467.51632979764486,126.08319769790083L469.8747300702826,63.07971249953715L471.3487302406812,85.65173703897682L471.64353027476096,89.61370305932564L472.52793037700013,124.3722293758621L474.5915306155581,110.87598159170477L475.1811306837176,89.61370305932564L478.1291310245148,89.61370305932564L479.60313119491343,89.61370305932564L479.89793122899306,82.80132307961503L480.48753129715254,89.61370305932564L480.78233133123223,89.61370305932564L482.55113153571057,100.7507177217841L482.8459315697903,89.61370305932564L484.61473177426865,89.61370305932564L484.9095318083483,89.61370305932564L487.5627321150658,89.61370305932564L488.7419322513847,89.61370305932564L489.3315323195441,89.61370305932564L490.510732455863,126.08319769790083L493.1639327625805,89.61370305932564L493.7535328307399,53.14420842075043L494.637932932979,126.08319769790083L495.2275330011385,53.14420842075043L495.5223330352182,89.61370305932564L496.99633320561685,94.24375849094497L497.880733307856,89.61370305932564L499.3547334782546,89.61370305932564L499.944333546414,126.08319769790083L501.1235336827329,53.14420842075043L501.7131337508923,53.14420842075043L502.00793378497207,82.25607670028825L502.30273381905175,79.14559513861633L502.89233388721124,87.73947732167426L503.48193395537066,78.90436091733608L504.9559341257692,89.61370305932564L505.8403342280084,126.08319769790083L506.42993429616786,71.8323654755801L507.314334398407,113.49731694690536L508.1987345006462,83.16047895995678L509.37793463696505,92.57783029528429L511.4415348755231,56.08585037354044L511.7363349096028,89.61370305932564L512.0311349436826,83.70967287159544L514.0947351822406,110.92126517822538L514.6843352504,81.90822432656648L515.2739353185594,53.727278072228614L516.1583354207986,107.1026971818585L516.4531354548783,89.61370305932564L518.2219356593566,89.61370305932564L518.5167356934363,53.14420842075043L519.6959358297552,89.61370305932564L520.8751359660741,109.80679159552739L521.7595360683133,89.61370305932564L522.054336102393,109.41099496372675L522.3491361364727,126.08319769790083L522.6439361705524,83.46235214675062L523.2335362387118,89.61370305932564L524.117936340951,55.143242261496425L526.181536579509,75.24275515289503L526.4763366135888,53.14420842075043L527.9503367839874,89.61370305932564L528.5399368521468,89.61370305932564L528.8347368862266,106.59690873564045L529.1295369203062,96.80605476156899L531.7827372270237,89.61370305932564L532.9619373633426,60.695246473060536L533.551537431502,99.53416477930273L533.8463374655818,104.9231724254069L534.4359375337413,110.02738387471851L535.9099377041398,89.61370305932564L536.2047377382196,89.61370305932564L536.794337806379,92.32438828685446L537.0891378404586,80.02339068270248L537.3839378745383,103.07988351587386L538.2683379767776,121.30511849959049L538.857938044937,89.61370305932564L539.1527380790167,53.14420842075043L539.4475381130965,89.61370305932564L542.1007384198139,89.61370305932564L542.985138522053,53.14420842075043L545.6383388287705,65.99222618526801L547.4071390332488,84.65181145336447L547.7019390673286,87.94537504225946L549.4707392718069,60.73717378761552L549.7655393058866,88.84395164851617L550.0603393399664,89.61370305932564L550.6499394081258,89.61370305932564L552.418739612604,90.9746278663593L554.1875398170823,126.08319769790083L554.4823398511621,53.14420842075043L556.8407401238,89.28221468518751L557.1355401578796,126.08319769790083L558.0199402601187,61.94650987587033L558.904340362358,110.82102915952157L560.0835404986768,53.14593003175872L560.6731405668363,126.08319769790083L561.8523407031552,89.61370305932564L563.6211409076334,88.53670494857533L564.8003410439522,126.08319769790083L565.095141078032,74.8727131261777L565.9795411802712,74.02950631234864L566.5691412484306,72.30132188022719L567.4535413506698,74.52218269088752L568.6327414869886,53.14420842075043L569.2223415551481,126.08319769790083L569.8119416233075,89.61370305932564L570.1067416573873,53.14420842075043L570.401541691467,89.61370305932564L572.465141930025,89.61370305932564L573.0547419981845,126.08319769790083L573.3495420322641,89.46566190262445L575.1183422367425,97.15418537545372L575.4131422708222,90.99723487959926L575.707942304902,98.27608449250056L576.2975423730614,126.08319769790083L576.8871424412208,90.00323928745979L580.4247428501774,53.14420842075043L583.0779431568949,156.0112139354205L584.2571432932137,81.03962809786793L585.7311434636124,57.27447495966544L586.0259434976921,144.63952108552135L587.4999436680906,121.86858960959069L587.7947437021704,162.552692336476L588.0895437362501,126.08319769790083L589.268743872569,103.39994665332074L589.5635439066488,89.61370305932564L591.3323441111271,72.95299512188353L592.5115442474458,126.08319769790083L592.8063442815256,126.08319769790083L593.1011443156053,61.80185977115514L593.6907443837648,135.81186499555236L593.9855444178446,77.72304013548859L595.4595445882431,53.14420842075043L596.3439446904823,126.08319769790083L596.9335447586418,155.7391820061034L597.8179448608809,126.08319769790083L598.70234496312,62.96399937176909L599.5867450653592,105.05109334032454L600.1763451335187,81.93521362237288L601.945145337997,70.14880380959232L602.2399453720767,58.024140908711786L602.8295454402361,89.61370305932564L603.4191455083956,53.14420842075043L606.0723458151131,89.61370305932564L606.3671458491929,95.28267247939112L606.6619458832726,53.14420842075043L606.9567459173524,95.81885866341173L611.0839463944683,162.552692336476L612.2631465307873,126.08319769790083L613.4423466671061,89.61370305932564L613.7371467011858,89.61370305932564L614.621546803425,126.08319769790083L614.9163468375046,121.30969207226906L615.8007469397439,94.1044297293463L616.3903470079033,126.08319769790083L616.9799470760628,126.08319769790083L618.4539472464613,103.04169505350859L619.3383473487004,89.61370305932564L619.9279474168599,131.48206547977966L620.2227474509397,162.552692336476L620.8123475190991,126.08319769790083L621.6967476213382,111.71044123041099L622.5811477235774,70.34080691204002L623.1707477917367,127.74968237388745L624.055147893976,89.61370305932564L624.9395479962151,106.99689635989557L625.2343480302949,53.14420842075043L626.118748132534,141.0668130531438L627.0031482347732,89.61370305932564L629.3615485074109,115.11001432139108L629.6563485414907,126.08319769790083L630.2459486096501,111.05193371475218L631.7199487800486,123.44958499550998L633.1939489504473,89.61370305932564L633.488748984527,75.76273384742365L633.7835490186067,108.11639565553696L634.3731490867661,92.3178322530149L634.667949120846,140.13717788869744L635.2575491890053,53.14420842075043L635.8471492571648,159.06538664411482L636.7315493594039,104.33305981980396L637.0263493934837,125.11906075324833L638.2055495298025,94.86207769306725L639.6795497002012,53.14420842075043L640.2691497683605,74.21672716199566L642.0379499728389,126.08319769790083L642.3327500069186,122.31975603381898L642.6275500409982,91.1629790666683L642.922350075078,91.12899898676767L643.2171501091577,103.33370810452772L644.1015502113969,114.12097488215431L644.6911502795564,126.08319769790083L645.5755503817954,93.99464659505111L645.8703504158752,53.14420842075043L646.7547505181144,129.62542104242488L647.3443505862738,126.08319769790083L647.9339506544333,119.19779706542522L648.228750688513,126.08319769790083L648.5235507225927,57.009851174687014L649.7027508589116,162.552692336476L650.8819509952305,118.0529953049653L651.1767510293101,102.85579584463557L651.4715510633899,106.60042151769778L652.6507511997087,122.75928854123379L652.9455512337885,126.08319769790083L653.535151301948,53.14420842075043L653.8299513360276,136.4307232879904L654.419551404187,92.70002989685116L654.7143514382668,150.79287184926764L655.0091514723465,126.7970750059873L655.598751540506,56.802788323419406L655.8935515745857,126.08319769790083L656.4831516427452,76.82743722097342L657.3675517449843,89.61370305932564L657.9571518131437,95.94637960809513L658.2519518472234,119.3986864630773L660.0207520517017,95.96427392857504L660.3155520857815,138.32286073613187L660.6103521198612,54.89204356438046L661.7895522561801,103.3767831597549L662.3791523243395,73.37826782094697L662.9687523924989,126.08319769790083L664.1479525288179,53.14420842075043L666.2115527673759,89.61370305932564L667.0959528696151,53.14420842075043L667.6855529377744,89.61370305932564L668.2751530059338,154.4055595150595L668.5699530400136,54.80178941152252L669.7491531763326,89.61370305932564L670.338753244492,89.61370305932564L670.6335532785716,53.14420842075043L670.9283533126514,53.14420842075043L671.8127534148905,89.61370305932564L672.9919535512095,89.61370305932564L673.286753585289,53.14420842075043L674.1711536875283,53.14420842075043L675.0555537897674,53.14420842075043L678.0035541305647,89.61370305932564L678.2983541646444,89.61370305932564L679.1827542668835,53.14420842075043L679.4775543009632,89.61370305932564L680.0671543691227,53.14420842075043L680.9515544713619,89.61370305932564L681.5411545395214,89.61370305932564L681.835954573601,89.61370305932564L682.4255546417604,53.14420842075043L682.7203546758401,89.61370305932564L683.0151547099199,53.14420842075043L683.3099547439996,89.61370305932564L683.899554812159,53.14420842075043L684.4891548803184,53.14420842075043L684.7839549143982,53.14420842075043L685.9631550507171,53.14420842075043L686.2579550847968,53.14420842075043L686.8475551529563,53.14420842075043L687.7319552551953,53.14420842075043L688.3215553233548,117.21126664200199L689.205955425594,63.875774995755876L692.7435558345505,53.14420842075043L693.9227559708695,81.9878531832016L694.8071560731087,89.61370305932564L696.2811562435072,89.61370305932564L696.8707563116667,53.14420842075043L697.7551564139058,76.46720316000022L699.5239566183841,124.48362978110441L699.8187566524639,126.08319769790083L700.4083567206234,89.61370305932564L701.2927568228624,89.61370305932564L702.1771569251017,113.18029706124076L702.4719569591814,89.61370305932564L702.7667569932611,126.08319769790083L705.4199572999786,70.76127996829257L705.7147573340583,82.23964314066382L706.0095573681381,89.61370305932564L706.3043574022176,53.14420842075043L706.8939574703771,126.08319769790083L707.4835575385366,126.08319769790083L708.3679576407757,68.70520689414121L709.8419578111743,89.61370305932564L710.4315578793338,89.61370305932564L710.7263579134135,89.61370305932564L711.0211579474933,87.34768039221603L711.315957981573,121.13697449111595L713.6743582542107,69.98392912303245L716.3275585609282,126.08319769790083L717.8015587313267,69.85698204868515L720.1599590039646,77.31912236893174L720.4547590380442,97.09396377018459L721.3391591402834,89.61370305932564L722.5183592766023,89.61370305932564L723.4027593788414,89.61370305932564L724.5819595151603,89.61370305932564L725.4663596173995,53.14420842075043L726.3507597196386,116.00123495333975L726.6455597537184,75.46767754462212L726.9403597877981,126.08319769790083L727.5299598559575,55.08943756998542L729.8883601285953,55.37082532478178L730.4779601967548,104.79413854983744L731.0675602649142,89.61370305932564L731.6571603330736,89.61370305932564L733.1311605034722,53.14420842075043L734.6051606738707,53.14420842075043L736.9635609465086,53.14420842075043L737.2583609805883,89.61370305932564L737.553161014668,89.61370305932564L738.7323611509869,53.14420842075043L739.616761253226,53.14420842075043L740.5011613554652,89.61370305932564L742.8595616281028,89.61370305932564L743.4491616962623,89.61370305932564L744.6283618325812,53.14420842075043L744.923161866661,53.14420842075043L745.2179619007406,89.61370305932564L745.5127619348204,53.14420842075043L746.1023620029799,53.14420842075043L746.6919620711393,53.14420842075043L747.5763621733785,89.61370305932564L749.3451623778568,89.61370305932564L749.9347624460162,89.61370305932564L751.9983626845742,89.61370305932564L753.1775628208932,53.14420842075043L753.7671628890525,89.61370305932564L754.9463630253715,57.96270200272971L755.2411630594511,152.6371172093608L755.8307631276106,92.6816312660759L756.7151632298498,111.11905915406459L757.3047632980092,89.61370305932564L758.1891634002484,100.40717807058815L758.7787634684078,67.95030655202936L759.6631635706469,89.61370305932564L759.9579636047267,89.61370305932564L760.2527636388063,126.08319769790083L763.2007639796036,89.61370305932564L763.4955640136833,89.61370305932564L764.0851640818427,89.61370305932564L764.3799641159225,89.61370305932564L764.6747641500021,53.14420842075043L764.969564184082,89.61370305932564L765.853964286321,89.61370305932564L766.1487643204008,53.14420842075043L766.7383643885603,89.61370305932564L767.6227644907993,89.61370305932564L768.2123645589588,89.61370305932564L768.8019646271183,53.14420842075043L769.3915646952777,89.61370305932564L772.0447650019952,53.14420842075043L772.339565036075,53.14420842075043L773.223965138314,53.14420842075043L773.8135652064735,53.14420842075043L774.4031652746329,89.61370305932564L774.9927653427924,89.61370305932564L775.5823654109519,53.72844320291102L775.8771654450314,88.87758392821314L776.7615655472707,54.92313690259044L778.530365751749,87.36604424297099L778.8251657858287,53.14420842075043L780.0043659221476,53.14420842075043L780.8887660243868,98.85896285386673L781.7731661266259,90.74323639084349L782.3627661947854,89.61370305932564L782.6575662288651,77.6816866912697L783.836766365184,59.138562321379254L785.0159665015028,89.61370305932564L785.900366603742,79.7652185915025L786.1951666378218,70.90372154171433L786.4899666719014,68.4424264502423L786.7847667059812,53.14420842075043L787.6691668082203,84.77628914626558L788.8483669445392,63.89208682530898L789.4379670126987,89.61370305932564L790.6171671490175,89.61370305932564L790.9119671830972,53.14420842075043L791.7963672853364,89.61370305932564L793.2703674557349,89.61370305932564L794.1547675579741,89.61370305932564L794.4495675920539,53.14420842075043L795.0391676602133,53.14420842075043L795.6287677283727,53.14420842075043L796.2183677965322,53.14420842075043L796.5131678306119,89.61370305932564L797.3975679328511,53.14420842075043L797.6923679669308,53.14420842075043L798.2819680350902,89.61370305932564L799.1663681373293,53.14420842075043L799.4611681714091,53.14420842075043L800.0507682395686,27.136822149370914L801.8195684440469,89.61370305932564L802.703968546286,123.19066513387205L803.5883686485251,89.61370305932564L803.8831686826048,157.64554448257587L805.0623688189238,195.4301325563433L806.8311690234021,89.61370305932564L810.6635694664384,152.43534092118935L811.8427696027574,89.61370305932564L812.4323696709166,89.61370305932564L813.9063698413154,126.08319769790083L814.7907699435544,112.53810137513506L815.3803700117139,89.61370305932564L816.5595701480328,66.32804467194211L818.0335703184313,89.61370305932564L819.2127704547503,53.14420842075043L820.3919705910691,53.14420842075043L821.2763706933083,89.61370305932564L823.9295710000258,53.14420842075043L825.6983712045042,89.61370305932564L828.6463715453012,126.08319769790083L828.941171579381,126.08319769790083L829.2359716134607,137.11333335776501L830.1203717156999,81.87900910945643L830.4151717497796,53.14420842075043L831.8891719201782,90.35476095333058L832.4787719883377,89.61370305932564L833.6579721246565,53.14420842075043L833.9527721587363,108.56801422003002L834.2475721928159,85.27903434070129L834.5423722268957,89.61370305932564L834.8371722609754,89.61370305932564L835.1319722950551,89.61370305932564L835.4267723291348,53.14420842075043L837.7851726017726,89.61370305932564L838.6695727040117,89.61370305932564L840.43837290849,89.61370305932564L844.5655733856062,115.54516454623939L844.8603734196859,89.61370305932564L845.1551734537657,59.95041494684557L847.2187736923236,63.190034724148006L848.6927738627222,126.08319769790083L849.5771739649614,92.40125213187025L850.1667740331209,53.14420842075043L850.4615740672006,89.61370305932564L850.7563741012802,121.61128701889993L851.0511741353599,53.14420842075043L852.2303742716789,89.61370305932564L854.5887745443166,89.61370305932564L854.8835745783963,89.61370305932564L855.7679746806356,53.14420842075043L856.357574748795,89.61370305932564L856.6523747828746,53.14420842075043L857.2419748510341,89.61370305932564L860.7795752599908,89.61370305932564L861.3691753281502,53.14420842075043L862.2535754303893,89.61370305932564L862.8431754985487,89.61370305932564L864.3171756689474,53.14420842075043L865.2015757711865,53.14420842075043L866.0859758734257,53.14420842075043L868.7391761801431,53.14420842075043L869.0339762142229,89.61370305932564L869.918376316462,89.61370305932564L870.8027764187012,59.37621420056149L871.3923764868607,58.059181779233654L871.6871765209403,62.80578505910995L873.4559767254186,89.61370305932564L874.3403768276578,87.37823464011035L874.6351768617376,127.54315861293557L876.1091770321361,91.62908350964511L876.6987771002956,126.08319769790083L877.288377168455,117.16370496414714L878.1727772706942,91.684661982195L878.4675773047738,160.50001031431069L878.7623773388535,158.9218321100413L880.8259775774117,162.552692336476L882.2999777478102,136.20456620554015L882.8895778159697,56.42026026938959L883.1843778500494,132.5030503677255L883.4791778841292,89.61370305932564L884.658378020448,126.08319769790083L884.9531780545277,89.61370305932564L886.721978259006,79.92357202424313L887.9011783953249,120.6241430907732L888.7855784975641,145.56779982917328L889.0803785316438,99.05795674040866L889.6699785998032,81.49161185257492L891.7335788383613,106.30209589298158L892.0283788724411,64.92724457155526L893.5023790428396,146.94741889715536L897.0399794517963,147.61990798100254L898.5139796221948,157.11916626429937L899.1035796903543,103.69684629720172L899.3983797244339,54.40920993160603L900.2827798266732,53.14420842075043L900.5775798607528,59.92161708997992L903.2307801674702,87.27439888929831L904.9995803719486,85.26446151216663L906.1787805082676,126.08319769790083L906.4735805423472,102.67565272913373L907.6527806786662,125.37771976473351L908.2423807468255,101.92817792137066L908.831980814985,126.08319769790083L909.4215808831444,160.05202626194614L910.0111809513038,126.08319769790083L910.8955810535431,106.55971150385574L911.1903810876228,119.97612175125568L911.4851811217026,117.36655943295011L912.3695812239416,115.50400239213252L912.6643812580214,125.57760054179485L912.9591812921011,108.1795909525477L913.2539813261807,89.61370305932564L914.13838142842,93.68305239256415L914.4331814624996,130.77938733825206L914.7279814965794,55.87777890168218L915.6123815988185,89.75139715996698L915.9071816328983,89.61370305932564L916.4967817010578,89.61370305932564L916.7915817351374,53.14420842075043L917.9707818714563,97.72405600920183L918.5603819396157,53.14420842075043L918.8551819736954,89.61370305932564L919.1499820077752,162.552692336476L920.329182144094,71.14238204148728L920.9187822122535,89.61370305932564L921.508382280413,117.785276098174L922.3927823826521,89.61370305932564L925.0459826893696,71.26666844427632L925.9303827916087,95.45065997777397L926.5199828597682,83.0692335765184L927.1095829279277,83.03323625543635L927.699182996087,89.61370305932564" style="fill: none;" fill="none"></path></g></g></g></g></g></g><g transform="translate(50, 378)" clip-path="url(#clip_1)"><clipPath id="clip_1"><rect width="1062" height="22"></rect></clipPath><g><g><line x1="22.368278337268496" y1="0" x2="22.368278337268496" y2="5" style="visibility: inherit;" fill="rgb(0, 0, 0)" stroke="rgb(204, 204, 204)" stroke-width="1px"></line><line x1="169.76829537712823" y1="0" x2="169.76829537712823" y2="5" style="visibility: inherit;" fill="rgb(0, 0, 0)" stroke="rgb(204, 204, 204)" stroke-width="1px"></line><line x1="317.16831241698793" y1="0" x2="317.16831241698793" y2="5" style="visibility: inherit;" fill="rgb(0, 0, 0)" stroke="rgb(204, 204, 204)" stroke-width="1px"></line><line x1="464.5683294568477" y1="0" x2="464.5683294568477" y2="5" style="visibility: inherit;" fill="rgb(0, 0, 0)" stroke="rgb(204, 204, 204)" stroke-width="1px"></line><line x1="611.9683464967076" y1="0" x2="611.9683464967076" y2="5" style="visibility: inherit;" fill="rgb(0, 0, 0)" stroke="rgb(204, 204, 204)" stroke-width="1px"></line><line x1="759.3683635365672" y1="0" x2="759.3683635365672" y2="5" style="visibility: inherit;" fill="rgb(0, 0, 0)" stroke="rgb(204, 204, 204)" stroke-width="1px"></line><line x1="906.7683805764269" y1="0" x2="906.7683805764269" y2="5" style="visibility: inherit;" fill="rgb(0, 0, 0)" stroke="rgb(204, 204, 204)" stroke-width="1px"></line><line x1="1054.1683976162867" y1="0" x2="1054.1683976162867" y2="5" style="visibility: inherit;" fill="rgb(0, 0, 0)" stroke="rgb(204, 204, 204)" stroke-width="1px"></line></g><g transform="translate(0, 8)"><text x="22.368278337268496" y="0" dx="0em" dy="0.95em" style="text-anchor: middle; visibility: inherit; font-family: &quot;Helvetica Neue&quot;, sans-serif; font-size: 12px; font-weight: 200;" fill="rgb(50, 49, 63)" stroke="none" stroke-width="1px">0</text><text x="169.76829537712823" y="0" dx="0em" dy="0.95em" style="text-anchor: middle; visibility: inherit; font-family: &quot;Helvetica Neue&quot;, sans-serif; font-size: 12px; font-weight: 200;" fill="rgb(50, 49, 63)" stroke="none" stroke-width="1px">500</text><text x="317.16831241698793" y="0" dx="0em" dy="0.95em" style="text-anchor: middle; visibility: inherit; font-family: &quot;Helvetica Neue&quot;, sans-serif; font-size: 12px; font-weight: 200;" fill="rgb(50, 49, 63)" stroke="none" stroke-width="1px">1k</text><text x="464.5683294568477" y="0" dx="0em" dy="0.95em" style="text-anchor: middle; visibility: inherit; font-family: &quot;Helvetica Neue&quot;, sans-serif; font-size: 12px; font-weight: 200;" fill="rgb(50, 49, 63)" stroke="none" stroke-width="1px">1.5k</text><text x="611.9683464967076" y="0" dx="0em" dy="0.95em" style="text-anchor: middle; visibility: inherit; font-family: &quot;Helvetica Neue&quot;, sans-serif; font-size: 12px; font-weight: 200;" fill="rgb(50, 49, 63)" stroke="none" stroke-width="1px">2k</text><text x="759.3683635365672" y="0" dx="0em" dy="0.95em" style="text-anchor: middle; visibility: inherit; font-family: &quot;Helvetica Neue&quot;, sans-serif; font-size: 12px; font-weight: 200;" fill="rgb(50, 49, 63)" stroke="none" stroke-width="1px">2.5k</text><text x="906.7683805764269" y="0" dx="0em" dy="0.95em" style="text-anchor: middle; visibility: inherit; font-family: &quot;Helvetica Neue&quot;, sans-serif; font-size: 12px; font-weight: 200;" fill="rgb(50, 49, 63)" stroke="none" stroke-width="1px">3k</text><text x="1054.1683976162867" y="0" dx="0em" dy="0.95em" style="text-anchor: middle; visibility: hidden; font-family: &quot;Helvetica Neue&quot;, sans-serif; font-size: 12px; font-weight: 200;" fill="rgb(50, 49, 63)" stroke="none" stroke-width="1px">3.5k</text></g><line x1="0" y1="0" x2="1062.2" y2="0" fill="rgb(0, 0, 0)" stroke="rgb(204, 204, 204)" stroke-width="1px"></line></g></g></g></g></svg>