<svg viewBox="0 0 1129 400" xmlns="http://www.w3.org/2000/svg"><g><g><g><g><g><line x1="40" y1="368.6487471278792" x2="35" y2="368.6487471278792" style="visibility: inherit;" fill="rgb(0, 0, 0)" stroke="rgb(204, 204, 204)" stroke-width="1px"></line><line x1="40" y1="332.385876436613" x2="35" y2="332.385876436613" style="visibility: inherit;" fill="rgb(0, 0, 0)" stroke="rgb(204, 204, 204)" stroke-width="1px"></line><line x1="40" y1="296.12300574534686" x2="35" y2="296.12300574534686" style="visibility: inherit;" fill="rgb(0, 0, 0)" stroke="rgb(204, 204, 204)" stroke-width="1px"></line><line x1="40" y1="259.86013505408073" x2="35" y2="259.86013505408073" style="visibility: inherit;" fill="rgb(0, 0, 0)" stroke="rgb(204, 204, 204)" stroke-width="1px"></line><line x1="40" y1="223.59726436281457" x2="35" y2="223.59726436281457" style="visibility: inherit;" fill="rgb(0, 0, 0)" stroke="rgb(204, 204, 204)" stroke-width="1px"></line><line x1="40" y1="187.33439367154844" x2="35" y2="187.33439367154844" style="visibility: inherit;" fill="rgb(0, 0, 0)" stroke="rgb(204, 204, 204)" stroke-width="1px"></line><line x1="40" y1="151.0715229802823" x2="35" y2="151.0715229802823" style="visibility: inherit;" fill="rgb(0, 0, 0)" stroke="rgb(204, 204, 204)" stroke-width="1px"></line><line x1="40" y1="114.80865228901615" x2="35" y2="114.80865228901615" style="visibility: inherit;" fill="rgb(0, 0, 0)" stroke="rgb(204, 204, 204)" stroke-width="1px"></line><line x1="40" y1="78.54578159774996" x2="35" y2="78.54578159774996" style="visibility: inherit;" fill="rgb(0, 0, 0)" stroke="rgb(204, 204, 204)" stroke-width="1px"></line><line x1="40" y1="42.282910906483835" x2="35" y2="42.282910906483835" style="visibility: inherit;" fill="rgb(0, 0, 0)" stroke="rgb(204, 204, 204)" stroke-width="1px"></line><line x1="40" y1="6.020040215217705" x2="35" y2="6.020040215217705" style="visibility: inherit;" fill="rgb(0, 0, 0)" stroke="rgb(204, 204, 204)" stroke-width="1px"></line></g><g transform="translate(30, 0)"><text x="0" y="368.6487471278792" dx="0em" dy="0.3em" style="text-anchor: end; visibility: inherit; font-family: &quot;Helvetica Neue&quot;, sans-serif; font-size: 12px; font-weight: 200;" fill="rgb(50, 49, 63)" stroke="none" stroke-width="1px">0</text><text x="0" y="332.385876436613" dx="0em" dy="0.3em" style="text-anchor: end; visibility: inherit; font-family: &quot;Helvetica Neue&quot;, sans-serif; font-size: 12px; font-weight: 200;" fill="rgb(50, 49, 63)" stroke="none" stroke-width="1px">0.1</text><text x="0" y="296.12300574534686" dx="0em" dy="0.3em" style="text-anchor: end; visibility: inherit; font-family: &quot;Helvetica Neue&quot;, sans-serif; font-size: 12px; font-weight: 200;" fill="rgb(50, 49, 63)" stroke="none" stroke-width="1px">0.2</text><text x="0" y="259.86013505408073" dx="0em" dy="0.3em" style="text-anchor: end; visibility: inherit; font-family: &quot;Helvetica Neue&quot;, sans-serif; font-size: 12px; font-weight: 200;" fill="rgb(50, 49, 63)" stroke="none" stroke-width="1px">0.3</text><text x="0" y="223.59726436281457" dx="0em" dy="0.3em" style="text-anchor: end; visibility: inherit; font-family: &quot;Helvetica Neue&quot;, sans-serif; font-size: 12px; font-weight: 200;" fill="rgb(50, 49, 63)" stroke="none" stroke-width="1px">0.4</text><text x="0" y="187.33439367154844" dx="0em" dy="0.3em" style="text-anchor: end; visibility: inherit; font-family: &quot;Helvetica Neue&quot;, sans-serif; font-size: 12px; font-weight: 200;" fill="rgb(50, 49, 63)" stroke="none" stroke-width="1px">0.5</text><text x="0" y="151.0715229802823" dx="0em" dy="0.3em" style="text-anchor: end; visibility: inherit; font-family: &quot;Helvetica Neue&quot;, sans-serif; font-size: 12px; font-weight: 200;" fill="rgb(50, 49, 63)" stroke="none" stroke-width="1px">0.6</text><text x="0" y="114.80865228901615" dx="0em" dy="0.3em" style="text-anchor: end; visibility: inherit; font-family: &quot;Helvetica Neue&quot;, sans-serif; font-size: 12px; font-weight: 200;" fill="rgb(50, 49, 63)" stroke="none" stroke-width="1px">0.7</text><text x="0" y="78.54578159774996" dx="0em" dy="0.3em" style="text-anchor: end; visibility: inherit; font-family: &quot;Helvetica Neue&quot;, sans-serif; font-size: 12px; font-weight: 200;" fill="rgb(50, 49, 63)" stroke="none" stroke-width="1px">0.8</text><text x="0" y="42.282910906483835" dx="0em" dy="0.3em" style="text-anchor: end; visibility: inherit; font-family: &quot;Helvetica Neue&quot;, sans-serif; font-size: 12px; font-weight: 200;" fill="rgb(50, 49, 63)" stroke="none" stroke-width="1px">0.9</text><text x="0" y="6.020040215217705" dx="0em" dy="0.3em" style="text-anchor: end; visibility: inherit; font-family: &quot;Helvetica Neue&quot;, sans-serif; font-size: 12px; font-weight: 200;" fill="rgb(50, 49, 63)" stroke="none" stroke-width="1px">1</text></g><line x1="40" y1="0" x2="40" y2="378" fill="rgb(0, 0, 0)" stroke="rgb(204, 204, 204)" stroke-width="1px"></line></g></g><g transform="translate(40, 0)" clip-path="url(#clip_0)"><clipPath id="clip_0"><rect width="1089" height="378"></rect></clipPath><g><g><g><line x1="7.199539515720386" y1="0" x2="7.199539515720386" y2="378" fill="rgb(0, 0, 0)" stroke="rgb(60, 60, 60)" stroke-width="1px" opacity="0.25"></line><line x1="76.58038266162282" y1="0" x2="76.58038266162282" y2="378" fill="rgb(0, 0, 0)" stroke="rgb(60, 60, 60)" stroke-width="1px" opacity="0.25"></line><line x1="145.96122580752527" y1="0" x2="145.96122580752527" y2="378" fill="rgb(0, 0, 0)" stroke="rgb(60, 60, 60)" stroke-width="1px" opacity="0.25"></line><line x1="215.34206895342774" y1="0" x2="215.34206895342774" y2="378" fill="rgb(0, 0, 0)" stroke="rgb(60, 60, 60)" stroke-width="1px" opacity="0.25"></line><line x1="284.7229120993302" y1="0" x2="284.7229120993302" y2="378" fill="rgb(0, 0, 0)" stroke="rgb(60, 60, 60)" stroke-width="1px" opacity="0.25"></line><line x1="354.1037552452326" y1="0" x2="354.1037552452326" y2="378" fill="rgb(0, 0, 0)" stroke="rgb(60, 60, 60)" stroke-width="1px" opacity="0.25"></line><line x1="423.484598391135" y1="0" x2="423.484598391135" y2="378" fill="rgb(0, 0, 0)" stroke="rgb(60, 60, 60)" stroke-width="1px" opacity="0.25"></line><line x1="492.8654415370375" y1="0" x2="492.8654415370375" y2="378" fill="rgb(0, 0, 0)" stroke="rgb(60, 60, 60)" stroke-width="1px" opacity="0.25"></line><line x1="562.24628468294" y1="0" x2="562.24628468294" y2="378" fill="rgb(0, 0, 0)" stroke="rgb(60, 60, 60)" stroke-width="1px" opacity="0.25"></line><line x1="631.6271278288424" y1="0" x2="631.6271278288424" y2="378" fill="rgb(0, 0, 0)" stroke="rgb(60, 60, 60)" stroke-width="1px" opacity="0.25"></line><line x1="701.0079709747449" y1="0" x2="701.0079709747449" y2="378" fill="rgb(0, 0, 0)" stroke="rgb(60, 60, 60)" stroke-width="1px" opacity="0.25"></line><line x1="770.3888141206473" y1="0" x2="770.3888141206473" y2="378" fill="rgb(0, 0, 0)" stroke="rgb(60, 60, 60)" stroke-width="1px" opacity="0.25"></line><line x1="839.7696572665498" y1="0" x2="839.7696572665498" y2="378" fill="rgb(0, 0, 0)" stroke="rgb(60, 60, 60)" stroke-width="1px" opacity="0.25"></line><line x1="909.1505004124523" y1="0" x2="909.1505004124523" y2="378" fill="rgb(0, 0, 0)" stroke="rgb(60, 60, 60)" stroke-width="1px" opacity="0.25"></line><line x1="978.5313435583547" y1="0" x2="978.5313435583547" y2="378" fill="rgb(0, 0, 0)" stroke="rgb(60, 60, 60)" stroke-width="1px" opacity="0.25"></line><line x1="1047.912186704257" y1="0" x2="1047.912186704257" y2="378" fill="rgb(0, 0, 0)" stroke="rgb(60, 60, 60)" stroke-width="1px" opacity="0.25"></line></g><g><line x1="0" y1="368.6487471278792" x2="1089" y2="368.6487471278792" fill="rgb(0, 0, 0)" stroke="rgb(60, 60, 60)" stroke-width="1px" opacity="0.25"></line><line x1="0" y1="332.385876436613" x2="1089" y2="332.385876436613" fill="rgb(0, 0, 0)" stroke="rgb(60, 60, 60)" stroke-width="1px" opacity="0.25"></line><line x1="0" y1="296.12300574534686" x2="1089" y2="296.12300574534686" fill="rgb(0, 0, 0)" stroke="rgb(60, 60, 60)" stroke-width="1px" opacity="0.25"></line><line x1="0" y1="259.86013505408073" x2="1089" y2="259.86013505408073" fill="rgb(0, 0, 0)" stroke="rgb(60, 60, 60)" stroke-width="1px" opacity="0.25"></line><line x1="0" y1="223.59726436281457" x2="1089" y2="223.59726436281457" fill="rgb(0, 0, 0)" stroke="rgb(60, 60, 60)" stroke-width="1px" opacity="0.25"></line><line x1="0" y1="187.33439367154844" x2="1089" y2="187.33439367154844" fill="rgb(0, 0, 0)" stroke="rgb(60, 60, 60)" stroke-width="1px" opacity="0.25"></line><line x1="0" y1="151.0715229802823" x2="1089" y2="151.0715229802823" fill="rgb(0, 0, 0)" stroke="rgb(60, 60, 60)" stroke-width="1px" opacity="0.25"></line><line x1="0" y1="114.80865228901615" x2="1089" y2="114.80865228901615" fill="rgb(0, 0, 0)" stroke="rgb(60, 60, 60)" stroke-width="1px" opacity="0.25"></line><line x1="0" y1="78.54578159774996" x2="1089" y2="78.54578159774996" fill="rgb(0, 0, 0)" stroke="rgb(60, 60, 60)" stroke-width="1px" opacity="0.25"></line><line x1="0" y1="42.282910906483835" x2="1089" y2="42.282910906483835" fill="rgb(0, 0, 0)" stroke="rgb(60, 60, 60)" stroke-width="1px" opacity="0.25"></line><line x1="0" y1="6.020040215217705" x2="1089" y2="6.020040215217705" fill="rgb(0, 0, 0)" stroke="rgb(60, 60, 60)" stroke-width="1px" opacity="0.25"></line></g></g></g><g><g><line x1="0" y1="368.6487471278792" x2="1089" y2="368.6487471278792" fill="rgb(0, 0, 0)" stroke="rgb(153, 153, 153)" stroke-width="1.5px"></line></g></g><g><g><line x1="7.199539515720386" y1="0" x2="7.199539515720386" y2="378" fill="rgb(0, 0, 0)" stroke="rgb(153, 153, 153)" stroke-width="1.5px"></line></g></g><g><g><g><g><g><path stroke="rgb(255, 112, 67)" stroke-width="2px" d="M7.893347947179411,166.02812943054872L10.668581673015508,176.78886894620538L11.709294320204046,168.60374757679926L12.056198535933557,171.66138448767666L13.096911183122094,183.15376754233478L15.178336477499167,187.83766140446966L19.341187066253315,188.6823777280514L20.728803929171363,200.0467441201687L21.42261236063039,203.42789918136418L22.11642079208941,201.6683460787347L22.463325007818923,204.77918524721628L24.197846086466484,200.11297549377304L25.238558733655022,201.72665550111824L25.585462949384535,200.5582535486321L25.932367165114048,201.51445398257752L26.279271380843557,200.48766590961537L29.40140932240917,202.7014757090799L30.442121969597707,198.86760116523504L31.482834616786242,198.14398837605387L31.829738832515755,197.49357728483565L32.17664304824527,196.90590674833538L32.52354726397478,196.3724211621777L34.258068342622344,195.88605165340803L37.03330206845843,195.44090856573752L37.38020628418795,195.03204128441502L39.461631578565026,194.65526391697077L42.23686530440112,194.3070096451671L43.27757795158966,193.98422115131717L43.62448216731917,193.6842637486824L46.05281167742575,193.40485211412008L47.78733275607331,193.14399667913264L50.56256648190941,192.89995653330308L51.60327912909794,192.6712008607779L51.95018334482746,192.45638150303503L55.07232128639307,192.13275667695817L55.766129717852095,192.49515941050976L56.113033933581605,192.2991007299543L56.459938149311114,191.945515199815L58.88826765941771,190.11354991081225L60.62278873806526,188.4591110167498L61.316597169524286,188.53585151109107L61.6635013852538,188.3315859931798L63.05111824817185,188.78460538599828L64.7856393268194,188.76762893414633L65.13254354254893,187.27691817687355L66.17325618973746,186.49515738398813L68.25468148411453,185.44757844104132L68.60158569984405,184.1207162642092L69.29539413130307,181.72804226104205L70.33610677849161,181.79720620684358L71.02991520995063,180.62987308859215L71.37681942568014,180.48776966021643L72.07062785713916,180.48125740751468L72.76443628859819,179.44942346297236L73.1113405043277,178.40030021680434L75.5396700144343,178.7306931492024L78.3149037402704,179.04826645220152L78.66180795599989,179.2501590237435L79.00871217172941,179.54710449332916L80.39632903464747,178.7246791068162L83.86537119194257,177.68800604101688L84.2122754076721,177.83183589317986L84.90608383913111,178.5468660358564L86.29370070204916,178.6195319647709L87.3344133492377,178.80070045541885L87.68131756496722,179.75767761871762L88.02822178069673,181.06268438412386L89.06893442788525,181.2521740504809L93.23178501663942,181.47393414772841L95.31321031101649,180.81652022939406L96.35392295820503,180.49918406985753L97.04773138966405,179.55363643117138L97.39463560539356,179.73346630458045L98.08844403685258,179.9870031570563L99.47606089977064,179.7552799739825L100.86367776268868,179.09744275327938L101.55748619414771,178.43486752833053L103.29200727279526,178.65932550784223L108.14866629300845,178.51405893622388L109.883187371656,179.65083139270251L110.23009158738552,178.82806344287718L111.61770845030355,179.7603179274336L111.96461266603308,179.27567521311454L113.35222952895113,180.0256092004006L113.69913374468064,179.89003765163298L114.39294217613967,178.80571287520874L115.4336548233282,179.64518551932915L117.16817590197576,181.2505153803121L117.51508011770527,181.96397586297888L117.86198433343478,180.10982023584006L119.59650541208235,179.59570457763297L119.94340962781185,179.84463632038114L120.29031384354137,178.9133781705905L121.3310264907299,179.1114541916833L124.45316443229551,178.86502355936946L125.14697286375454,179.8027922795381L127.22839815813161,179.01167707538158L129.30982345250868,178.20531077822378L129.6567276682382,178.1512025319154L131.73815296261526,179.35613574867955L132.7788656098038,180.30236233793957L134.16648247272187,181.14724875628167L135.5540993356399,181.23710782378114L136.24790776709895,180.3945126250812L137.635524630017,181.08359706117298L137.9824288457465,180.24910567208332L138.329333061476,180.35828072009622L139.02314149293503,180.46471121819224L140.75766257158259,180.61114003756353L142.49218365023017,180.3784645752967L142.83908786595964,181.24669812865827L148.38955531763187,180.4210573550867L150.81788482773845,180.62524963657185L152.89931012211554,180.82444182388804L153.24621433784503,181.38247620536578L153.94002276930405,181.92372255223228L154.63383120076307,182.64641907941132L156.0214480636811,181.61825290215117L159.14358600524673,181.0926726408277L159.83739443670575,180.34919549877725L160.18429865243527,179.53035052087162L161.22501129962382,178.02946009541918L163.3064365940009,177.00475199315684L166.081670319837,175.939544867116L166.42857453556647,176.15556556209197L167.46928718275504,177.90705003357556L167.81619139848456,179.61367239358165L170.93832934005013,181.21623186776498L171.28523355577966,182.21048711933702L175.1011799288043,180.41503543201407L176.14189257599284,180.72642328357313L176.48879679172236,180.86488201182777L177.18260522318135,181.05212097956493L177.87641365464043,180.90052115003436L182.7330726748536,181.60743752168375L184.46759375350118,180.2200613593543L185.16140218496017,179.5189253007193L186.2021148321487,181.60018939595946L186.89592326360773,181.53677651723493L188.63044434225532,183.1981428111008L188.97734855798478,183.35743179886518L191.05877385236187,184.24766283347762L191.7525822838209,184.21752038681947L192.0994864995504,185.5317199552843L192.79329493100946,186.32315227735467L193.14019914673895,186.88123062006605L194.1809117939275,187.6173545129566L194.87472022538654,188.24688430396802L196.60924130403407,188.51843972273332L196.9561455197636,189.9808201691327L200.0782834613292,190.70912585883926L200.77209189278824,190.54376084434097L202.15970875570628,191.11316275548384L202.50661297143577,190.08522568656494L202.8535171871653,189.10062952225456L204.24113405008333,187.71152731602677L205.6287509130014,186.8712174032516L205.9756551287309,186.88087786208075L207.01636777591943,187.52379497053923L207.71017620737848,187.54405887708756L208.40398463883747,187.88091679975585L208.750888854567,187.82267912384185L209.09779307029652,188.35257589524144L209.44469728602604,189.22545490588882L210.13850571748503,189.162548631534L210.48540993321456,190.0173376949263L212.21993101186212,190.2514997270409L212.56683522759164,190.1444640953277L214.99516473769822,190.9110641117929L215.68897316915726,190.79054473847896L217.77039846353432,191.60874691667414L218.46420689499337,192.4095285361224L220.19872797364093,193.19328183017825L221.93324905228846,193.96038933066728L222.6270574837475,194.4040866109309L226.78990807250165,194.89578431585358L229.21823758260823,195.09444821018812L229.56514179833772,195.8206389354263L230.25895022979677,195.59987940956609L230.6058544455263,195.65747465298023L230.95275866125579,196.370903913039L231.2996628769853,196.7343240654634L231.99347130844433,196.82745422415238L233.03418395563287,197.5157909602234L234.4218008185509,197.3644060389121L234.76870503428043,197.11283472203985L236.15632189719847,196.8665327642826L237.197034544387,197.55274174959075L238.58465140730505,198.2246038258146L239.62536405449362,197.95591588394208L239.97226827022308,197.69283566931352L240.66607670168213,198.0128067545763L241.01298091741165,198.41950717128822L241.70678934887067,198.8879195712406L242.05369356460017,200.15692392975862L242.4005977803297,199.61516554496765L243.44131042751823,199.54985655165325L243.78821464324776,199.57113957246364L244.13511885897725,201.0763620803909L244.82892729043627,199.87380079351584L245.52273572189532,200.44930373221575L245.8696399376248,201.60683397429622L248.29796944773142,201.2689334940895L249.33868209491993,201.20702022655834L250.72629895783797,202.36214938888153L251.7670116050265,202.05683790862207L252.46082003648556,201.75782394789547L253.15462846794458,202.09750073913983L254.54224533086264,201.30285020535695L255.92986219378068,202.18006236837653L256.97057484096916,200.97422241631548L257.3174790566987,201.65006366882514L257.6643832724282,202.76637603099658L258.01128748815773,204.15739642530036L260.0927127825348,204.30189033053173L262.1741380769119,204.54614961150202L262.86794650837095,205.04111621727193L263.2148507241004,205.35581173350747L264.60246758701845,204.94536553673024L265.643180234207,205.1140673233872L265.9900844499365,205.67145997625764L267.03079709712506,206.04335922560665L267.3777013128546,205.96140813129418L267.72460552858405,205.53919506155864L268.4184139600431,205.12560927463923L269.11222239150214,204.72047086179404L271.1936476858792,204.3236038109169L272.23436033306774,204.8505552941143L272.58126454879726,205.36675723235282L273.6219771959858,204.95707945197086L273.9688814117153,204.55575234941006L274.3157856274448,204.33598630426073L275.0095940589038,203.94969018906158L275.35649827463334,203.61441737825703L277.4379235690104,204.37999138258314L278.8255404319285,204.964054361087L279.172444647658,203.39959744311645L279.86625307911703,202.59245803484177L280.5600615105761,202.97956300140072L281.25386994203507,202.2251922375308L281.6007741577646,201.40852714440618L281.94767837349406,200.25690274760748L282.29458258922364,201.68383400290318L282.6414868049531,200.7909514651762L283.6821994521416,201.3875191511328L284.37600788360066,201.6250914801813L285.0698163150597,200.26240111087372L286.1105289622482,199.47480340586105L286.8043373937072,199.0974518388009L287.1512416094368,198.58125887498005L287.49814582516626,200.17949708200342L289.5795711195434,199.97905679986926L289.92647533527287,201.02702790536884L290.6202837667319,199.88495644478587L291.66099641392043,199.09979975059787L293.04861327683847,198.53456545685333L294.08932592402704,197.05062174527578L295.13003857121555,196.2592031632944L295.4769427869451,196.94584543331047L296.17075121840406,197.31101335336143L296.8645596498631,197.69818726808577L297.5583680813221,196.7551564023176L299.29288915996966,196.79149197599497L300.3336018071583,198.3043556349321L301.0274102386172,198.188285046749L306.23097347455996,197.98801813106465L307.618590337478,197.89444387454648L308.312398768937,197.88567022811972L308.65930298466657,196.17555729629277L310.04691984758455,196.73332261931557L310.7407282790436,197.05480059478626L312.1283451419617,197.72461486600125L312.8221535734207,197.69929494199053L313.51596200487967,197.9056536411967L314.55667465206824,197.80699132643633L315.2504830835273,197.48898234101816L315.59738729925675,197.49979524149174L316.2911957307158,196.3858630850154L317.67881259363384,197.70332204205022L319.0664294565519,197.55218423275937L321.4947589666585,197.88810958275457L321.84166318238795,196.40243934166435L322.1885673981175,196.73177039033618L322.535471613847,196.9766423052242L323.22928004530604,196.72632617816205L324.26999269249455,196.21370194507838L324.6168969082241,197.66755033176926L324.9638011239536,197.23340293575924L326.0045137711421,196.5937340871376L326.35141798687164,194.9687177332763L326.69832220260116,194.8708593901774L327.0452264183307,195.5507351338192L329.82046014416676,195.03146494344531L330.16736435989634,194.6389590562327L331.20807700708485,195.35619020023367L333.6364065171914,195.31963138578095L334.67711916438,194.6595902168042L337.45235289021605,195.26266659832473L337.79925710594557,195.569350809925L338.4930655374046,195.98878530543433L338.8399697531341,195.87049505193957L339.18687396886355,195.69938972471033L340.2275866160522,195.48652240703035L340.57449083178165,195.00250281197444L341.2682992632407,194.74140757413778L341.96210769469974,196.36466477583093L343.69662877334724,196.15845935376547L344.04353298907677,196.5426832820121L345.4311498519948,197.16359441807583L345.7780540677243,197.1720380063823L346.12495828345385,196.83838430584876L346.4718624991834,195.7849045640983L347.5125751463719,196.8924341159525L347.8594793621014,196.927118697822L348.2063835778309,196.46941843860247L349.2470962250195,194.95160626830577L349.59400044074897,193.9339646628589L352.36923416658504,192.48616333031882L353.75685102950314,191.74520939471705L354.45065946096213,191.69981002037196L355.1444678924212,191.0544171561772L355.4913721081506,190.85809261504318L356.5320847553392,191.1620984506538L357.5727974025277,190.38872278389908L357.9197016182572,192.29305914803936L358.2666058339868,192.49093729683068L358.61351004971624,191.8825516166831L359.65422269690475,192.38571500129075L362.4294564227409,192.37154951674273L363.12326485419993,192.32328040447229L364.5108817171179,189.85010524243648L364.8577859328475,189.84358020574746L365.898498580036,190.53839998091965L366.59230701149505,189.6213029566926L367.2861154429541,188.55483101650051L369.0206365216016,189.3928384714733L371.4489660317082,190.37162806631474L371.79587024743773,190.9799398534319L372.83658289462625,193.1007230450296L373.53039132608524,192.94012942323633L375.6118166204624,194.3507466926689L375.95872083619184,195.50103386202295L376.6525292676509,196.492122165813L377.34633769910994,197.1259469704232L378.7339545620279,198.6544956762056L380.121571424946,198.71614743086047L380.81537985640506,198.77338804647985L382.54990093505256,197.6462839818337L382.8968051507821,198.8206383284393L383.2437093665116,200.29323697183912L385.6720388766182,200.62956959839943L386.0189430923477,200.4393219318396L388.1003683867248,201.88167414269992L389.4879852496428,202.40751212403217L389.8348894653724,203.28383953567948L390.18179368110185,204.5247495535366L393.30393162266745,205.9049035470146L393.9977400541265,206.01217754086454L395.038452701315,206.7473939756902L397.11987799569215,207.35252046094573L397.4667822114216,207.47733851025075L398.8543990743397,207.02908074127308L399.8951117215282,206.5897999675249L400.2420159372577,206.15931617978848L400.5889201529872,206.78021045826176L405.44557917320043,206.39105529679784L406.48629182038894,206.00969271889275L407.52700446757746,205.63596606457563L407.87390868330704,205.26972311960736L408.2208128990365,204.9108134307043L409.261525546225,204.5590895674099L409.60842976195454,204.21440835865926L409.95533397768406,203.87662777937103L416.1996098608153,203.83043555698796L416.89341829227425,202.96545105824637L417.2403225080038,202.6977955357635L417.9341309394629,201.52980923028673L418.28103515519234,201.40530594528974L419.32174780238086,200.73123645870038L420.3624604495694,200.75201217259513L420.70936466529895,199.62167485020814L421.40317309675794,198.3359854307871L422.096981528217,197.07807850868122L422.79078995967603,196.11859976781165L423.484598391135,195.9879614441533L424.5253110383236,195.77001914746074L425.2191194697826,195.64634184064266L425.9129279012416,196.34185002980433L426.6067363327006,196.16163171358727L427.30054476415967,195.985022251547L427.9943531956187,195.81195714133676L431.46339535291384,195.64238268853512L432.8510122158319,195.4760594616809L434.2386290787499,195.31702466666712L434.58553329447943,195.15798355869012L434.9324375102089,195.0015820779076L435.62624594166795,194.84851567600035L436.66695858885646,194.698200599309L437.7076712360451,194.55180248018786L438.401479667504,194.40727169587322L439.4421923146926,193.92704509697197L441.5236176090697,193.01212006900528L442.21742604052866,192.94357736526652L442.9112344719877,191.88318796974403L443.25813868771723,190.2235383599046L444.2988513349058,189.37298883180634L444.6457555506353,189.16673304618612L444.9926597663648,190.4626657067395L446.03337241355337,191.562129052282L448.80860613938944,193.59173632422454L450.543127218037,195.03885449506947L451.236935649496,196.05958639771626L453.3183609438731,195.81680556090618L454.7059778067911,195.55689656812945L455.05288202252063,197.1013653035876L455.39978623825016,198.62548777366894L455.7466904539796,199.74442070364537L457.82811574835677,200.41454985371894L458.8688283955453,200.24818385922822L461.2971579056519,202.18366498854894L461.9909663371109,201.6778715766399L463.03167898429945,202.70653293188013L463.37858320002897,202.84793236864317L464.4192958472175,202.80842314924146L464.76620006294695,203.0858180352158L466.5007211415945,202.08925575469473L466.8476253573241,201.78855965722934L467.19452957305356,201.6517954720012L468.23524222024207,202.18191031643926L469.27595486743064,203.18259535459813L469.62285908316017,202.36406713259248L469.96976329888963,202.8006548818463L470.3166675146192,202.51858984427213L470.6635717303487,202.53023005106598L472.74499702472576,202.94411094518216L474.82642231910285,202.97766224782606L476.90784761347993,203.5263489369073L478.29546447639797,204.0640587089108L478.98927290785696,203.6843119021534L480.7237939865045,202.11017905284268L482.1114108494226,200.13620708223044L484.53974035952916,200.62303334369676L485.2335487909882,200.63349855593262L486.2742614381767,201.22906388093682L486.96806986963577,200.6957710429374L487.31497408536524,200.38340526422658L488.35568673255386,200.98396859934357L488.70259094828333,201.45514329179002L489.3963993797424,201.79599061184254L489.74330359547184,201.27232917607338L490.7840162426604,201.8078233253656L496.68138791006214,201.61805202897173L497.0282921257916,201.77434782969823L497.3751963415212,200.7952548275143L499.1097174201687,200.40124634158298L500.15043006735726,198.95826151909108L501.5380469302753,198.8404696511651L501.8849511460048,197.2014936055352L502.2318553617343,197.0492378203285L503.6194722246523,196.80981881890384L503.96637644038185,195.94883328390597L504.3132806561114,195.45564616549171L505.0070890875704,194.3600997661347L505.70089751902947,193.01230472222267L506.39470595048846,194.6218237855349L507.08851438194745,195.29250147234768L509.8637481077836,194.90805070261766L511.59826918643114,193.378958967228L511.94517340216066,191.54006643450532L515.0673113437263,191.56289993258267L515.4142155594558,191.20895729742972L519.2301619324804,189.99771900662893L522.0053956583165,190.8510846716636L522.352299874046,191.28474383476447L523.3930125212346,191.5523014364613L524.0868209526936,191.84294231224143L524.433725168423,193.10200041502677L527.2089588942592,192.94153793189577L527.5558631099886,192.41883304073988L527.9027673257182,192.2720351513409L528.2496715414477,192.73586707818538L529.2903841886363,194.35087629291687L529.9841926200953,195.37773495875047L530.3310968358248,195.17175637698764L530.6780010515544,195.28113157240756L533.4532347773904,194.44865510576605L535.1877558560379,194.50552455418244L535.5346600717675,194.17278558570078L536.575372718956,194.03601074001227L539.0037022290626,193.90197210105347L539.6975106605216,193.77061406908177L543.1665528178168,193.6418838860197L544.9010738964643,193.51572812013598L545.2479781121939,193.39209570565993L545.9417865436528,193.2709365985204L546.2886907593823,193.15220089128363L548.3701160537595,193.03584010732766L548.717020269489,192.9218067399046L550.798445563866,192.8100538004243L551.1453497795956,192.70053610499448L554.2674877211612,192.5932089413974L555.6551045840793,192.48802892425417L556.3489130155382,192.38495223926017L557.7365298784563,192.28393724557756L560.8586678200219,192.18494270313852L561.5524762514808,192.08792862922618L562.5931888986694,191.9928549764096L563.2869973301285,191.89968293073767L563.633901545858,191.80837445475734L565.3684226245056,191.7188922719748L566.409135271694,191.63119941932703L568.1436563503415,191.54526097011015L568.8374647818007,192.15521350607878L570.2250816447188,192.05879456065256L570.9188900761777,191.10280632374284L571.2657942919072,190.53158304448496L571.6126985076368,189.60614107380573L572.3065069390958,190.42220108340607L573.0003153705547,190.31534186738725L574.7348364492024,190.21968828892193L575.7755490963909,189.96419121973668L576.4693575278499,189.36595193629884L577.5100701750384,190.95855417926944L578.550782822227,190.97627201178636L579.9383996851451,191.71982445723975L582.3667291952517,191.54191136230503L582.7136334109811,192.27415002280162L583.0605376267106,192.9917432206429L585.4888671368172,192.3836481915281L586.1826755682762,192.42980256054543L586.8764839997353,192.70257181224653L587.9171966469238,192.55015157925843L588.2641008626534,193.65457895424666L590.3455261570305,194.0212062595377L590.6924303727599,194.74894128415167L592.080047235678,193.7367144290202L593.4676640985961,193.6536817539341L594.5083767457845,193.86379054595886L594.8552809615142,192.87161168805923L595.2021851772436,193.62216080148096L595.5490893929731,192.63485426467682L596.242897824432,192.92137412462014L597.2836104716207,192.95298643497125L599.7119399817271,191.73010371528622L600.0588441974568,190.3230866837185L601.7933652761044,190.21821104339335L602.4871737075633,190.00871732672186L602.8340779232929,189.97969482629875L603.1809821390224,188.95255233618033L606.303120080588,189.82984024901742L607.690736943506,188.8699909491945L608.0376411592356,189.24309757517648L608.3845453749651,188.29833844545252L608.7314495906945,188.79074512881377L609.4252580221536,187.94263483511534L611.1597791008011,186.70584565960095L611.5066833165307,185.73728437948114L612.2004917479896,185.56167032541555L612.5473959637192,184.50798030067108L612.8943001794487,183.657926424356L613.9350128266373,184.5929386404326L614.6288212580962,184.68834678555777L614.9757254738258,185.388987969572L615.3226296895554,185.46649630420367L618.444767631121,186.23436006289765L619.4854802783094,186.29563381657783L622.607618219875,186.3317201407784L624.6890435142521,185.96596654020962L625.0359477299817,185.0867543674561L627.1173730243587,185.25898413771267L627.4642772400882,185.4125089282773L627.8111814558176,185.1562670176152L628.5049898872768,185.72522064469933L630.5864151816538,186.51314431687777L632.6678404760308,186.5295757202728L633.0147446917605,186.5457742421734L635.7899784175964,186.56155303554553L636.136882633326,186.57711826826252L637.1775952805145,187.12135097437647L638.2183079277031,188.44010088734981L639.6059247906212,188.41797446228477L640.2997332220801,188.39629489562375L641.6873500849982,188.3749987813264L643.7687753793753,188.35416706962505L645.1563922422934,187.82122776638846L645.5032964580229,186.11132554503763L646.5440091052114,186.72435921636438L647.2378175366704,185.82998193730728L648.278530183859,185.2283502395791L649.666147046777,184.43814889991864L650.359955478236,185.13334193298252L651.053763909695,184.43187331693315L651.4006681254247,184.2344896562722L651.7475723411541,184.34158847574733L654.1759018512606,183.75272290660584L654.8697102827197,182.71515639029883L655.2166144984492,183.0943325359654L657.2980397928262,182.85595802674223L657.6449440085557,183.85210403713907L657.9918482242854,183.04565726480394L658.6856566557443,183.13143245027246L659.3794650872032,182.82311127172687L663.5423156759575,182.7085299420069L666.6644536175231,182.32792609061562L668.0520704804412,182.21495290611185L669.7865915590887,180.55299928183692L670.1334957748182,179.25814541375178L671.8680168534657,179.62284225125467L672.2149210691953,179.68378945711237L672.5618252849248,178.1474971102511L673.9494421478428,176.7542291850374L674.2963463635723,176.39600996852528L676.3777716579494,176.61483562003485L677.7653885208675,176.82910618695172L678.112292736597,177.03936364970966L678.4591969523265,177.2452067019728L679.1530053837855,177.435536864445L679.4999095995151,177.63352469196886L681.2344306781627,177.82752593139062L682.2751433253511,178.01771758060443L682.9689517568103,178.20374959592385L684.0096644039987,178.38495082755549L685.0503770511873,178.56412401897214L686.0910896983759,178.73862435514994L686.7848981298348,178.91058396705327L688.8663234242118,178.26268690431715L689.2132276399414,176.72117323950832L689.9070360714004,175.210490040479L690.6008445028594,174.3426252479996L693.722982444425,175.41650754190698L694.0698866601546,175.56466553260162L694.4167908758841,176.61643469764527L694.7636950916136,175.72870179224637L699.6203541118268,175.11463139335632L701.0079709747449,176.17540108903614L702.3955878376628,176.3083811274852L702.7424920533924,175.71252867102908L703.7832047005809,176.0351673807427L704.1301089163104,175.3042998822164L705.170821563499,175.82972144337415L705.864629994958,176.87618897921544L706.5584384264171,177.18803279396494L708.2929595050646,179.11390777864247L709.3336721522531,180.40709853542174L710.0274805837121,180.39060852229758L710.3743847994416,181.805037257203L711.0681932309008,183.31566500599067L712.1089058780893,182.5796668887513L713.1496185252779,181.30075199862344L713.8434269567368,182.15670625896757L714.8841396039254,183.06329169506108L715.9248522511139,183.96508705504064L716.2717564668434,184.12267407632345L717.312469114032,185.00328168200508L718.3531817612205,184.68970099434517L721.1284154870566,184.6523946196117L721.4753197027861,185.1497025192891L722.1691281342452,185.3671285735464L723.9036492128927,184.5901014197409L725.6381702915403,183.82861485984103L725.9850745072697,183.8222657536831L726.3319787229992,182.7100223831417L727.0257871544583,183.9538418366016L727.3726913701878,184.11165370403089L728.066499801647,184.99248139679818L728.7603082331059,185.03931970946198L729.8010208802945,185.08522125321264L730.147925096024,185.1302047635337L731.535541958942,185.17428860119495L733.2700630375896,185.21749119203437L733.9638714690485,185.25982972879413L736.0452967634255,184.5704224952599L736.3922009791552,185.08796315932577L736.7391051948847,183.13623003504088L737.0860094106141,185.07239489231733L737.4329136263436,185.20483943625243L738.4736262735322,185.63330172254135L739.1674347049913,185.02225238373245L740.2081473521798,185.0485127670106L740.5550515679092,183.79329945890964L741.5957642150978,184.81868433332284L742.2895726465568,185.4925374889717L742.9833810780159,185.52937508238185L743.3302852937454,185.56547592243987L743.6771895094749,185.6008547442717L745.0648063723929,185.63552598829816L746.452423235311,185.66950510299216L746.7993274510405,185.70282019647988L747.1462316667701,185.73555717353372L748.533848529688,185.76753393173158L748.8807527454176,185.79887115364727L749.5745611768766,185.829983225112L749.9214653926061,185.86007016218568L750.6152738240651,185.8895925362489L750.9621780397946,185.91922433526065L751.3090822555242,185.9475290409892L752.0028906869832,185.97193212186548L752.3497949027127,185.99907848892258L753.0436033341717,186.11104486077278L754.0843159813602,186.13547294877438L754.7781244128194,186.15946218737022L755.1250286285488,186.1829547813136L757.2064539229259,186.20598443933187L757.5533581386553,186.22855350357042L757.900262354385,186.2506711859294L759.2878792173029,186.2736468345136L759.981687648762,186.29486653970397L760.675496080221,186.31730194854822L762.063112943139,186.33763817550954L764.4914424532457,186.35757329718288L765.5321551004341,186.37710928367005L766.2259635318933,186.3962549822678L766.9197719633522,186.41501690188963L767.2666761790817,186.4334035827068L768.6542930419997,186.45142814924708L769.3481014734588,186.46908314604218L769.6950056891884,186.48639455285752L770.0419099049178,186.50335627288706L771.0826225521063,186.51992731598833L772.4702394150244,186.53609820422216L772.817143630754,186.55200619460612L773.8578562779425,186.56748535933497L774.898568925131,186.5827491791173L778.3676110824262,186.59774100835185L778.7145152981557,186.61240922493678L779.7552279453442,187.4883378327134L780.1021321610737,188.34678567867084L780.7959405925327,187.46500267736576L781.8366532397213,187.91764735959146L782.5304616711802,186.38431378048728L782.8773658869098,186.11922829455213L783.5711743183688,186.19104214353635L783.9180785340983,187.9081614221951L784.2649827498278,189.1708614139485L784.6118869655573,187.87808207683554L785.3056953970164,188.63786408758497L785.9995038284753,189.5134391049987L786.346408044205,190.8716555001311L787.7340249071231,190.97514188612794L788.0809291228525,193.01859818060439L788.7747375543115,193.93392801043038L789.8154502015001,193.24116692792393L790.509258632959,192.21645938536307L791.5499712801476,192.02615900278488L795.7128218689016,191.88722357437305L797.1004387318197,191.75106685612883L798.1411513790083,192.52420529416057L799.8756724576559,192.46550955933694L800.5694808891149,193.224359130926L801.6101935363034,193.1065602230729L803.6916188306805,192.99111729460253L804.03852304641,192.8779827935916L804.732331477869,192.7671109837314L805.7730441250575,192.65845661115432L806.8137567722462,192.5519753270715L807.1606609879756,192.4476241019591L807.5075652037051,192.34535947002354L810.6297031452707,192.24514013165052L810.9766073610003,192.1469251809321L811.3235115767299,192.05067453008013L811.6704157924593,191.9563493253506L812.3642242239183,191.86391062550166L813.0580326553774,191.7733207004044L814.0987453025658,191.68454214224684L815.8332663812134,191.5975391559486L816.5270748126725,191.51227666233217L816.873979028402,191.428718986943L817.2208832441314,191.34683289796544L817.567787459861,191.2665845313598L820.3430211856971,191.1879407003679L823.4651591272627,191.11086974654214L825.1996802059102,191.03534021231758L827.9749139317464,190.9613212692814L828.3218181474758,190.88878313787703L829.3625307946645,190.8176953372784L830.7501476575824,190.7480292931381L831.790860304771,190.6797570025965L833.178477167689,190.61285015827738L834.2191898148776,190.54728145124008L835.2599024620661,190.48302411872328L835.6068066777956,190.42005150093445L835.9537108935252,190.3583383358516L836.6475193249842,190.297859866694L839.4227530508203,190.23859053495545L840.1165614822793,190.180506590162L840.8103699137383,190.12358475684954L841.5041783451974,190.06780136048954L843.2386994238449,190.0131332000445L844.9732205024925,189.95955840307226L847.7484542283286,189.90705553458022L848.0953584440581,189.8556022914143L848.4422626597876,189.8051785456327L849.8298795227056,189.75576284270426L850.8705921698942,189.7073358863371L851.9113048170827,189.65987746930452L854.6865385429188,189.61336043964286L855.3803469743777,189.52385597013298L856.7679638372958,189.4779822311693L857.1148680530254,189.20311793839124L857.461772268755,189.21084396748108L857.8086764844844,189.2563486729998L858.5024849159435,190.170797529317L859.1962933474025,190.11406987933975L860.237005994591,190.05847678256436L862.3184312889681,190.00399554791878L863.0122397204271,189.9506035058656L865.4405692305336,189.89827973711982L866.8281860934517,189.84700201163392L867.5219945249108,189.79674984082314L868.9096113878287,189.7475027135872L869.2565156035583,189.69924052904858L869.9503240350174,189.65194402063426L870.991036682206,189.60559301024173L871.6848451136649,189.5601694524792L872.7255577608535,189.51565436600168L873.4193661923124,189.47202914909113L874.4600788395011,189.42927600435138L874.8069830552305,189.38737143831426L875.15388727096,189.39141239692967L878.6229294282551,190.25684384498967L878.9698336439848,190.4759627310587L879.6636420754437,190.41313134601359L880.0105462911732,190.6228576147899L880.3574505069026,190.95319108460836L880.7043547226323,191.7873869517993L881.7450673698207,191.57159000504882L882.0919715855503,190.19642230603228L882.7857800170093,190.22938233022154L883.8264926641978,189.04238704855L884.5203010956569,189.09842777902273L885.2141095271159,188.42459502950666L885.9079179585749,188.07955694786637L889.0300559001406,188.15237252073382L889.37696011587,188.56114096189833L890.4176727630585,188.49150593140558L891.1114811945176,188.4232636016527L891.8052896259766,188.44658671779487L892.4990980574357,188.5574743215881L893.1929064888947,188.48791262415972L893.5398107046242,188.12794532632347L894.5805233518128,187.94912063543237L896.6619486461898,188.79829781681804L897.0088528619192,188.81412024823516L898.3964697248373,189.09303520147978L899.4371823720259,188.19639108272048L900.4778950192144,187.3176798477052L901.1717034506735,186.45654283870485L901.5186076664029,186.42899977296207L902.906224529321,186.77319349839027L904.2938413922391,186.05365428146752L905.3345540394275,186.9407407854445L905.6814582551572,186.99371435862682L906.0283624708866,186.9554278622293L906.3752666866161,186.91790709580948L907.4159793338047,186.9463809750372L908.8035961967228,187.03579507845785L909.4974046281817,186.1802957708453L910.8850214910998,185.6792421352544L911.2319257068293,185.2190376964807L912.2726383540179,185.30644533215815L914.0071594326654,184.98094573060072L915.0478720798538,185.13507102752845L915.3947762955835,185.13395739897877L916.0885847270425,184.31649484936761L916.7823931585015,183.5153815515988L917.4762015899605,183.5466617133865L917.82310580569,183.6675168692244L918.8638184528786,183.0467171521975L919.2107226686081,183.70809123897956L919.9045311000671,183.73551720686874L920.9452437472556,183.58660034487195L921.2921479629852,183.70665672777525L921.9859563944441,183.82431198291425L924.0673816888212,184.7528702616132L925.1080943360098,184.8496012455334L926.1488069831984,184.9233586281372L926.4957111989278,184.16738048185235L927.8833280618459,184.7227585855394L929.9647533562229,183.91352001796898L934.4745081607066,184.84340919459774L935.8621250236247,184.8481288028244L936.5559334550836,185.75932580271484L938.2904545337312,185.7908275929422L939.3311671809198,187.35206359572067L940.0249756123787,186.78018383788984L941.4125924752968,187.80595698556758L943.1471135539445,188.3411655488442L944.5347304168624,189.97434070256384L945.9223472797805,189.27144808448347L946.9630599269691,189.23270742791013L950.0851978685346,188.4634164048119L952.1666231629118,189.01737121861902L955.6356653202068,189.1998119942429L955.9825695359364,189.3603839170769L956.3294737516659,190.13623572753968L957.3701863988545,190.08019931793598L957.717090614584,190.02528363655492L959.4516116932315,190.65195534737197L960.1454201246905,191.45407410606998L961.5330369876085,191.73242322564192L961.8799412033381,192.55103484430938L962.2268454190677,192.66785794387184L962.5737496347971,192.56118908943844L962.9206538505266,193.34728609970708L963.2675580662561,193.3327263387866L963.6144622819857,193.21276011638034L966.3896960078217,193.09519321847557L967.4304086550103,193.8436341328157L969.5118339493873,194.96550582180612L974.3684929696005,195.63419277353137L974.71539718533,194.56162501331124L975.0623014010596,193.5105086087271L977.4906309111661,194.26294697011357L979.2251519898136,196.620302678468L980.2658646370023,196.16066922809728L980.9596730684613,196.31215755406458L981.3065772841908,196.6701024465317L981.6534814999202,197.4757376949911L982.0003857156498,197.87582034676686L983.3880025785679,197.66499181147634L986.1632363044039,198.38357844100233L986.5101405201334,198.7308162630405L987.550853167322,198.35630314142895L988.2446615987809,198.51690096388364L988.5915658145105,197.73878683459972L989.2853742459696,197.33306811096585L993.4482248347238,196.24912584279423L994.1420332661827,195.0732197592532L995.1827459133713,195.55865352716177L995.8765543448303,193.5810247817965L997.6110754234778,194.23593594041168L998.6517880706664,194.1148165980724L999.6925007178548,193.28748521959878L1002.8146386594206,193.12332330618935L1003.16154287515,192.91734454940715L1004.2022555223385,193.55110412848956L1005.2429681695271,193.42676991860358L1005.9367766009861,193.30492239294486L1006.2836808167156,193.18551225011484L1008.3651061110928,193.06848987788163L1009.4058187582813,192.95380795311925L1009.7527229740107,192.8414196668774L1011.4872440526583,192.7312791463845L1012.1810524841173,192.62334143632464L1012.8748609155764,192.51756291277542L1013.915573562765,192.41389952743148L1014.2624777784944,192.31230940981496L1014.6093819942239,192.21275109457056L1017.0377115043306,192.11518437793714L1018.7722325829781,192.0195689956546L1019.4660410144371,191.9258654887481L1019.8129452301665,191.83403605199655L1020.1598494458962,191.74404320399614L1021.5474663088143,191.65585064525834L1021.8943705245438,191.56942193771022L1023.9757958189208,191.4847218043273L1025.3634126818388,191.40171567362583L1026.4041253290272,191.32036923326442L1026.7510295447569,191.24065015401007L1027.444837976216,191.16252502406584L1029.8731674863225,191.08596239673216L1030.220071702052,191.0109310219564L1031.9545927806996,190.93740070697402L1036.1174433694537,190.86534099830163L1037.8519644481012,190.79472248381262L1038.5457728795602,190.72551590733585L1038.8926770952899,190.65769389468488L1039.9333897424783,190.59121405682123L1040.280293958208,190.57117816274004L1043.4024318997735,190.50644290500358L1045.4838571941505,190.44300235242977L1046.8714740570686,190.3808366629345L1047.2183782727982,190.3198952666038L1048.605995135716,190.26020814574937L1049.299803567175,190.2017411368323L1049.9936119986342,190.14434058376872L1050.6874204300932,190.0881840095102L1051.3812288615522,190.0331721810981L1052.4219415087407,189.97911534079228L1052.7688457244703,189.9260505861542L1053.1157499401997,189.8738651337424L1054.1564625873882,189.82830313620806L1054.5033668031178,189.77824641222162L1054.8502710188475,189.72933563890027L1055.197175234577,189.68061372479386L1056.2378878817653,189.63437406640034L1056.584792097495,189.58868548897553L1056.9316963132244,189.54315699053362L1057.972408960413,189.49915290975505L1058.3193131761425,189.45713686244872L1059.0131216076015,189.4622599497284L1059.360025823331,189.5222234018698L1060.747642686249,189.47846637489144L1061.441451117708,189.4356035090887L1061.7883553334377,189.3933251274413L1062.1352595491671,189.35245385438068L1063.5228764120852,189.31209351522608L1064.2166848435443,189.27143502472748L1064.9104932750033,189.23241623698823L1065.9512059221918,189.1946224322949" style="fill: none;" fill="none"></path></g></g></g></g><g opacity="0.2"><g><g><g><path stroke="rgb(255, 112, 67)" stroke-width="2px" d="M7.893347947179411,166.02812943054872L10.668581673015508,187.33439367154844L11.709294320204046,152.72133807160378L12.056198535933557,180.4722465489663L13.096911183122094,226.87033482571303L15.178336477499167,209.88887612168682L19.341187066253315,193.40748714097657L20.728803929171363,273.48156225968734L21.42261236063039,228.15297389560465L22.11642079208941,187.33439367154844L22.463325007818923,232.6629820356311L24.197846086466484,154.55133907412218L25.238558733655022,218.7491731235394L25.585462949384535,187.33439367154844L25.932367165114048,213.0572704234923L26.279271380843557,187.33439367154844L29.40140932240917,232.6629820356311L30.442121969597707,144.26083099183424L31.482834616786242,187.33439367154844L31.829738832515755,187.3344152859037L32.17664304824527,187.33439367154844L32.52354726397478,187.33439367154844L34.258068342622344,187.33439367154844L37.03330206845843,187.3344152859037L37.38020628418795,187.33439367154844L39.461631578565026,187.33439367154844L42.23686530440112,187.33439367154844L43.27757795158966,187.33439367154844L43.62448216731917,187.3344152859037L46.05281167742575,187.3344152859037L47.78733275607331,187.3344152859037L50.56256648190941,187.3344152859037L51.60327912909794,187.33439367154844L51.95018334482746,187.3344152859037L55.07232128639307,184.253699616214L55.766129717852095,201.49700542704824L56.113033933581605,187.33439367154844L56.459938149311114,182.82438553152198L58.88826765941771,142.00580530746572L60.62278873806526,144.26080937747895L61.316597169524286,190.6201755367758L61.6635013852538,182.69437518462775L63.05111824817185,201.4807082031815L64.7856393268194,188.2847336436592L65.13254354254893,144.26080937747895L66.17325618973746,163.6216303445119L68.25468148411453,154.3828767892188L68.60158569984405,144.26080937747895L69.29539413130307,108.94310418167407L70.33610677849161,183.92686895031412L71.02991520995063,144.26080937747895L71.37681942568014,176.00972514744802L72.07062785713916,180.2737619246056L72.76443628859819,146.21913480718126L73.1113405043277,144.26080937747895L75.5396700144343,189.5907594459431L78.3149037402704,189.58939774156164L78.66180795599989,186.01535602739744L79.00871217172941,189.5894193559169L80.39632903464747,150.66159808701744L83.86537119194257,142.005826921821L84.2122754076721,182.82438553152198L84.90608383913111,203.57096765739624L86.29370070204916,181.1829913930101L87.3344133492377,185.24156210905764L87.68131756496722,214.0373085197315L88.02822178069673,228.15297389560465L89.06893442788525,188.13872867387187L93.23178501663942,189.5894193559169L95.31321031101649,156.59484667790758L96.35392295820503,168.73013998171234L97.04773138966405,144.26083099183424L97.39463560539356,186.48765130420313L98.08844403685258,189.5675456283929L99.47606089977064,170.94705955775592L100.86367776268868,153.94728268764612L101.55748619414771,152.96086835660495L103.29200727279526,187.33642542094296L108.14866629300845,172.86829475383053L109.883187371656,224.06175469593555L110.23009158738552,146.52108735017583L111.61770845030355,216.54790234070475L111.96461266603308,160.05878486637283L113.35222952895113,209.90195280661968L113.69913374468064,174.46421228887348L114.39294217613967,135.21431551223148L115.4336548233282,213.54090242963233L117.16817590197576,246.3463927278194L117.51508011770527,211.0152650173975L117.86198433343478,104.30364766799022L119.59650541208235,158.49291128514253L119.94340962781185,190.10207944117232L120.29031384354137,140.39493063858228L121.3310264907299,187.33448012896946L124.45316443229551,168.59768721267363L125.14697286375454,219.01176592560392L127.22839815813161,145.82067416794675L129.30982345250868,144.26083099183424L129.6567276682382,175.8660112993184L131.73815296261526,230.40797796561787L132.7788656098038,220.51854585955098L134.16648247272187,217.16611612987666L135.5540993356399,185.0793896015352L136.24790776709895,144.26083099183424L137.635524630017,210.71844588377735L137.9824288457465,144.26083099183424L138.329333061476,185.0793896015352L139.02314149293503,185.0793896015352L140.75766257158259,186.97661124891494L142.49218365023017,170.23800063342247L142.83908786595964,219.18014175308628L148.38955531763187,144.26083099183424L150.81788482773845,189.5894193559169L152.89931012211554,189.5894193559169L153.24621433784503,205.99322360841825L153.94002276930405,205.84708895249938L154.63383120076307,214.65934804978463L156.0214480636811,135.97736709600665L159.14358600524673,157.71341117701385L159.83739443670575,147.21010976718247L160.18429865243527,142.9593874328656L161.22501129962382,110.86699794344577L163.3064365940009,131.06355957099626L166.081670319837,128.09387684428174L166.42857453556647,185.87615957951732L167.46928718275504,256.8612902392482L167.81619139848456,256.67944866843834L170.93832934005013,253.70602665826374L171.28523355577966,227.2592851486327L175.1011799288043,98.93222101339632L176.14189257599284,194.88063513813768L176.48879679172236,187.16837380878957L177.18260522318135,189.58939774156164L177.87641365464043,173.97791090985874L182.7330726748536,213.935029390637L184.46759375350118,116.68402614609818L185.16140218496017,147.36489016520565L186.2021148321487,277.17747651599007L186.89592326360773,178.62078249167388L188.63044434225532,259.69504028572703L188.97734855798478,190.70124017618176L191.05877385236187,225.34215668005768L191.7525822838209,182.82438553152198L192.0994864995504,246.34499860190505L192.79329493100946,222.98904505151526L193.14019914673895,212.76599537199658L194.1809117939275,221.79876412165342L194.87472022538654,217.51097316806414L196.60924130403407,201.15552022828146L196.9561455197636,258.1061041874333L200.0782834613292,224.67256556843063L200.77209189278824,182.82438553152198L202.15970875570628,217.7197246111738L202.50661297143577,142.0058701505315L202.8535171871653,143.00458304971613L204.24113405008333,122.61699375036997L205.6287509130014,147.45761574927488L205.9756551287309,187.33439367154844L207.01636777591943,217.73232578029092L207.71017620737848,188.49700822667637L208.40398463883747,203.73560420141843L208.750888854567,185.0793896015352L209.09779307029652,213.3334802693712L209.44469728602604,230.40797796561787L210.13850571748503,186.1923343682736L210.48540993321456,230.40797796561787L212.21993101186212,201.32434995722423L212.56683522759164,185.0793896015352L214.99516473769822,227.21337625805856L215.68897316915726,185.0793896015352L217.77039846353432,230.40797796561787L218.46420689499337,230.40797796561787L220.19872797364093,230.40797796561787L221.93324905228846,230.40797796561787L222.6270574837475,215.49867669327546L226.78990807250165,218.2867772214432L229.21823758260823,204.55094091056966L229.56514179833772,230.40797796561787L230.25895022979677,185.0793896015352L230.6058544455263,198.40377504566248L230.95275866125579,230.40797796561787L231.2996628769853,214.08215830689787L231.99347130844433,201.27537182820308L233.03418395563287,230.40797796561787L234.4218008185509,190.12679545641313L234.76870503428043,185.0793896015352L236.15632189719847,185.0793896015352L237.197034544387,230.40797796561787L238.58465140730505,230.40797796561787L239.62536405449362,185.0793896015352L239.97226827022308,185.0793896015352L240.66607670168213,213.36064951393413L241.01298091741165,217.93584654942742L241.70678934887067,221.37512275854002L242.05369356460017,261.10356136065803L242.4005977803297,173.58552390445257L243.44131042751823,196.4107369614112L243.78821464324776,200.59451963748506L244.13511885897725,273.48156225968734L244.82892729043627,142.005826921821L245.52273572189532,228.15297389560465L245.8696399376248,257.34819682021026L248.29796944773142,184.99148401868916L249.33868209491993,198.22348970843143L250.72629895783797,258.04525977737393L251.7670116050265,187.3344152859037L252.46082003648556,187.3344152859037L253.15462846794458,218.48753135310633L254.54224533086264,162.94760829005637L255.92986219378068,244.53315365780583L256.97057484096916,142.73717024642843L257.3174790566987,234.29990200260397L257.6643832724282,256.71074625485613L258.01128748815773,271.3954959903932L260.0927127825348,211.2882435171649L262.1741380769119,216.35938193411926L262.86794650837095,228.98573177509616L263.2148507241004,220.58351861146522L264.60246758701845,185.0793896015352L265.643180234207,213.2814112875477L265.9900844499365,232.6630036499864L267.03079709712506,224.05672935833738L267.3777013128546,201.99108797395687L267.72460552858405,185.0793896015352L268.4184139600431,185.0793896015352L269.11222239150214,185.0793896015352L271.1936476858792,185.0793896015352L272.23436033306774,230.40797796561787L272.58126454879726,230.40797796561787L273.6219771959858,185.0793896015352L273.9688814117153,185.0793896015352L274.3157856274448,193.6686966243044L275.0095940589038,185.19558837541774L275.35649827463334,187.33439367154844L277.4379235690104,241.5611581950784L278.8255404319285,233.33495072633687L279.172444647658,127.39270715961851L279.86625307911703,163.3720277699592L280.5600615105761,221.79288501702246L281.25386994203507,165.55669872795346L281.6007741577646,161.70562582241047L281.94767837349406,144.26080937747895L282.29458258922364,271.0770733086898L282.6414868049531,157.3625021193533L283.6821994521416,230.40797796561787L284.37600788360066,213.18364955870274L285.0698163150597,133.95424182923222L286.1105289622482,161.14514397614036L286.8043373937072,180.73053809433392L287.1512416094368,173.45311436412436L287.49814582516626,277.9915703997138L289.5795711195434,190.21913198208765L289.92647533527287,252.0617361961469L290.6202837667319,144.26080937747895L291.66099641392043,160.85440928352614L293.04861327683847,170.99843688021105L294.08932592402704,124.74994155622494L295.13003857121555,157.6953199616605L295.4769427869451,230.40797796561787L296.17075121840406,215.1086888813032L296.8645596498631,216.5704244988866L297.5583680813221,150.78363273682038L299.29288915996966,198.56298638651418L300.3336018071583,272.069539659204L301.0274102386172,192.5282800120294L306.23097347455996,188.22136035403423L307.618590337478,193.33056165060304L308.312398768937,197.4577147158934L308.65930298466657,112.75310981222145L310.04691984758455,223.94457246888865L310.7407282790436,212.73986361648616L312.1283451419617,230.40797796561787L312.8221535734207,196.46371374615566L313.51596200487967,207.9765352328021L314.55667465206824,192.99160533140181L315.2504830835273,181.96677114348043L315.59738729925675,198.02762042105724L316.2911957307158,142.00580530746572L317.67881259363384,262.0239654507325L319.0664294565519,190.17283403311882L321.4947589666585,214.29094217154042L321.84166318238795,123.85385361581905L322.1885673981175,212.8148438148862L322.535471613847,208.9359100054119L323.22928004530604,184.50036263845124L324.26999269249455,171.17444257510044L324.6168969082241,268.68563942826984L324.9638011239536,176.02470389564382L326.0045137711421,165.34312728362062L326.35141798687164,115.57486389153041L326.69832220260116,190.08948907923283L327.0452264183307,228.7714470570397L329.82046014416676,169.65698514965453L330.16736435989634,175.45784581457175L331.20807700708485,230.40797796561787L333.6364065171914,193.532872015845L334.67711916438,162.39936016886395L337.45235289021605,224.7401752716867L337.79925710594557,210.56038010375448L338.4930655374046,216.4921589184869L338.8399697531341,190.08779235234485L339.18687396886355,187.33439367154844L340.2275866160522,185.0793896015352L340.57449083178165,171.3376093429649L341.2682992632407,181.975265585098L341.96210769469974,275.73656632970057L343.69662877334724,186.07527102018062L344.04353298907677,215.33153288404299L345.4311498519948,227.52786512710452L345.7780540677243,197.5849692324919L346.12495828345385,180.52051140426389L346.4718624991834,144.26080937747895L347.5125751463719,251.06205065097555L347.8594793621014,198.62361465302098L348.2063835778309,174.0815301289794L349.2470962250195,120.70693317596522L349.59400044074897,144.15371024716126L352.36923416658504,121.66127180379925L353.75685102950314,155.49733456082546L354.45065946096213,189.47877547133643L355.1444678924212,159.47941207360475L355.4913721081506,181.25287060356857L356.5320847553392,206.03610648925584L357.5727974025277,152.54885551662193L357.9197016182572,285.47151523512906L358.2666058339868,202.17331860316142L358.61351004971624,162.1127754324598L359.65422269690475,217.00739111201835L362.4294564227409,191.67836033446073L363.12326485419993,189.96116465204892L364.5108817171179,68.81871220553182L364.8577859328475,189.52425207480533L365.898498580036,224.54296589428634L366.59230701149505,144.73736268227105L367.2861154429541,136.3590333812034L369.0206365216016,230.40797796561787L371.4489660317082,238.27826184627835L371.79587024743773,220.75429363238152L372.83658289462625,296.9066115002573L373.53039132608524,185.0793896015352L375.6118166204624,263.39913557549596L375.95872083619184,251.80768106441042L376.6525292676509,245.00696193947974L377.34633769910994,228.15297389560465L378.7339545620279,273.48156225968734L380.121571424946,201.7342445903917L380.81537985640506,201.5755952227768L382.54990093505256,142.46802829471986L382.8968051507821,256.31310696112155L383.2437093665116,272.38802718397324L385.6720388766182,217.0958694752788L386.0189430923477,191.12494638236095L388.1003683867248,272.499276270501L389.4879852496428,228.15297389560465L389.8348894653724,246.1902398182371L390.18179368110185,265.2826537216403L393.30393162266745,273.48156225968734L393.9977400541265,211.26472709864106L395.038452701315,242.74696495340126L397.11987799569215,236.98271900629598L397.4667822114216,213.58917809210752L398.8543990743397,185.0793896015352L399.8951117215282,185.0793896015352L400.2420159372577,185.0793896015352L400.5889201529872,237.18455385572216L405.44557917320043,187.3344152859037L406.48629182038894,187.3344152859037L407.52700446757746,187.33439367154844L407.87390868330704,187.3344152859037L408.2208128990365,187.3344152859037L409.261525546225,187.33439367154844L409.60842976195454,187.3344152859037L409.95533397768406,187.33439367154844L416.1996098608153,201.56822472763284L416.89341829227425,160.6033801615262L417.2403225080038,189.58939774156164L417.9341309394629,144.3272302911957L418.28103515519234,195.30764834067176L419.32174780238086,167.71776681000287L420.3624604495694,201.76954083253275L420.70936466529895,144.26080937747895L421.40317309675794,135.36581052825505L422.096981528217,135.4680680429943L422.79078995967603,149.12464451312616L423.484598391135,189.5894193559169L424.5253110383236,185.0953193813625L425.2191194697826,189.58864123912753L425.9129279012416,230.40804280868366L426.6067363327006,187.3344152859037L427.30054476415967,187.33450174332472L427.9943531956187,187.33497725914046L431.46339535291384,187.33631734916668L432.8510122158319,187.32918461193054L434.2386290787499,187.52709645587686L434.58553329447943,187.36769058582783L434.9324375102089,187.34053214844252L435.62624594166795,187.35077735283616L436.66695858885646,187.33518259551548L437.7076712360451,187.3806051630962L438.401479667504,187.32749869222022L439.4421923146926,170.4032207650367L441.5236176090697,148.1943842770528L442.21742604052866,189.58598267343044L442.9112344719877,139.93923518661694L443.25813868771723,108.92391063420246L444.2988513349058,147.70771545399865L444.6457555506353,179.06296897160112L444.9926597663648,253.94631344569905L446.03337241355337,245.42165495951517L448.80860613938944,293.01684349520855L450.543127218037,265.92972267508554L451.236935649496,246.06306095188202L453.3183609438731,183.92343226782762L454.7059778067911,182.82438553152198L455.05288202252063,272.76269041806546L455.39978623825016,273.2904265161153L455.7466904539796,254.5598585341346L457.82811574835677,233.24367330407014L458.8688283955453,192.0980030418509L461.2971579056519,297.00225502228676L461.9909663371109,176.89911263772308L463.03167898429945,253.10073825353783L463.37858320002897,209.7751305771264L464.4192958472175,200.87284769017955L464.76620006294695,216.67557833723083L466.5007211415945,153.26681955532283L466.8476253573241,187.057146336617L467.19452957305356,194.95155183774864L468.23524222024207,228.15297389560465L469.27595486743064,252.20771955157895L469.62285908316017,162.26295197281246L469.96976329888963,224.189917015455L470.3166675146192,188.6996428072472L470.6635717303487,203.10050960078775L472.74499702472576,223.22111838395145L474.82642231910285,204.6214253230754L476.90784761347993,230.40797796561787L478.29546447639797,230.40797796561787L478.98927290785696,185.0793896015352L480.7237939865045,124.98852080959466L482.1114108494226,103.42491605485878L484.53974035952916,224.4742970876225L485.2335487909882,201.14622605551926L486.2742614381767,230.40797796561787L486.96806986963577,174.56774505057314L487.31497408536524,185.0793896015352L488.35568673255386,230.40797796561787L488.70259094828333,224.5399398845498L489.3963993797424,218.49555027890813L489.74330359547184,175.61586836588413L490.7840162426604,228.0440807738003L496.68138791006214,192.32028507135388L497.0282921257916,209.43201349453741L497.3751963415212,152.82478437588242L499.1097174201687,181.0968365729402L500.15043006735726,128.25920504767228L501.5380469302753,193.0692440954989L501.8849511460048,116.89952126804923L502.2318553617343,189.5894193559169L503.6194722246523,185.0793896015352L503.96637644038185,153.764425242139L504.3132806561114,171.29165722368023L505.0070890875704,140.68307160856517L505.70089751902947,126.97606884760964L506.39470595048846,273.48156225968734L507.08851438194745,228.15297389560465L509.8637481077836,176.07149897478365L511.59826918643114,118.45945090158284L511.94517340216066,101.44138828692235L515.0673113437263,192.68165547696066L515.4142155594558,173.86707249608088L519.2301619324804,130.6514170448816L522.0053956583165,232.6629820356311L522.352299874046,212.5325387208237L523.3930125212346,204.6617144812817L524.0868209526936,206.0833770842114L524.433725168423,254.79173733737343L527.2089588942592,185.0793896015352L527.5558631099886,166.80793213965103L527.9027673257182,185.0793896015352L528.2496715414477,215.46223489030558L529.2903841886363,273.48156225968734L529.9841926200953,245.69084013993427L530.3310968358248,185.0793896015352L530.6780010515544,200.6402123845066L533.4532347773904,153.65957400476844L535.1877558560379,197.2919758397529L535.5346600717675,177.86944588845012L536.575372718956,187.33439367154844L539.0037022290626,187.3344152859037L539.6975106605216,187.33439367154844L543.1665528178168,187.3344152859037L544.9010738964643,187.33439367154844L545.2479781121939,187.33439367154844L545.9417865436528,187.3344152859037L546.2886907593823,187.3344152859037L548.3701160537595,187.3344152859037L548.717020269489,187.3344152859037L550.798445563866,187.33439367154844L551.1453497795956,187.33439367154844L554.2674877211612,187.33439367154844L555.6551045840793,187.3344152859037L556.3489130155382,187.33439367154844L557.7365298784563,187.33439367154844L560.8586678200219,187.33439367154844L561.5524762514808,187.3344152859037L562.5931888986694,187.3344152859037L563.2869973301285,187.3344152859037L563.633901545858,187.3344152859037L565.3684226245056,187.3344152859037L566.409135271694,187.33439367154844L568.1436563503415,187.3344152859037L568.8374647818007,222.0419256183384L570.2250816447188,187.3344152859037L570.9188900761777,144.26083099183424L571.2657942919072,162.54249042940154L571.6126985076368,144.26083099183424L572.3065069390958,230.40797796561787L573.0003153705547,185.0793896015352L574.7348364492024,185.5327939318429L575.7755490963909,177.44517770903414L576.4693575278499,160.0530138335182L577.5100701750384,268.99401143477695L578.550782822227,191.84442342593013L579.9383996851451,228.15297389560465L582.3667291952517,182.82438553152198L582.7136334109811,228.15297389560465L583.0605376267106,228.15297389560465L585.4888671368172,162.58768604625206L586.1826755682762,194.69131500040754L586.8764839997353,206.0679660489104L587.9171966469238,185.08172395190337L588.2641008626534,247.77035725958433L590.3455261570305,211.9855658465917L590.6924303727599,230.40722146318376L592.080047235678,144.1386018128339L593.4676640985961,189.5851613279305L594.5083767457845,204.15892134920293L594.8552809615142,144.25577323270318L595.2021851772436,230.39838119188207L595.5490893929731,144.25771852467665L596.242897824432,206.96059569247456L597.2836104716207,194.50196244114454L599.7119399817271,131.80988164379943L600.0588441974568,121.38041487153924L601.7933652761044,185.0793896015352L602.4871737075633,179.74369147618754L602.8340779232929,188.5576148788279L603.1809821390224,138.62335323833403L606.303120080588,232.81629265749658L607.690736943506,141.83807791064123L608.0376411592356,207.52505458011265L608.3845453749651,142.00580530746572L608.7314495906945,212.91833334787532L609.4252580221536,146.38580310059797L611.1597791008011,126.10399445589854L611.5066833165307,138.27840974272553L612.2004917479896,176.95669328013807L612.5473959637192,132.8778253228847L612.8943001794487,142.00580530746572L613.9350128266373,230.40797796561787L614.6288212580962,189.36328997117752L614.9757254738258,219.72000350443747L615.3226296895554,189.2643610671484L618.444767631121,223.8592606086739L619.4854802783094,189.2980146182896L622.607618219875,188.09993090617857L624.6890435142521,168.04423003186332L625.0359477299817,142.00580530746572L627.1173730243587,193.69815699052498L627.4642772400882,192.93514863546037L627.8111814558176,172.6005361208586L628.5049898872768,213.60368132448758L630.5864151816538,225.12104182573879L632.6678404760308,187.3347070796997L633.0147446917605,187.33949465939L635.7899784175964,187.3347070796997L636.136882633326,187.33980806754127L637.1775952805145,213.78852729067867L638.2183079277031,253.0583092741607L639.6059247906212,187.3337884696011L640.2997332220801,187.33400461315372L641.6873500849982,187.33149734794347L643.7687753793753,187.33342102556168L645.1563922422934,161.70739819954184L645.5032964580229,102.32673389276357L646.5440091052114,216.7627922607085L647.2378175366704,142.00580530746572L648.278530183859,155.7486014407333L649.666147046777,145.7185463393391L650.359955478236,219.19757373060418L651.053763909695,150.06013542317268L651.4006681254247,174.56275213450786L651.7475723411541,189.58939774156164L654.1759018512606,154.89848723396727L654.8697102827197,131.87470309522686L655.2166144984492,201.6738540817928L657.2980397928262,171.17567459335035L657.6449440085557,232.6629820356311L657.9918482242854,143.5299847973978L658.6856566557443,187.33439367154844L659.3794650872032,167.71545407398995L663.5423156759575,177.09407412217627L666.6644536175231,163.6784328701375L668.0520704804412,176.67929464471985L669.7865915590887,99.11767218153472L670.1334957748182,115.81061166436098L671.8680168534657,197.49290288625812L672.2149210691953,182.6701887210908L672.5618252849248,102.869513582075L673.9494421478428,108.48440433432751L674.2963463635723,158.8433448269873L676.3777716579494,187.3372467664429L677.7653885208675,187.32832003772012L678.112292736597,187.34193708153447L678.4591969523265,187.3314757335882L679.1530053837855,186.76167810020067L679.4999095995151,187.33489080171944L681.2344306781627,187.33355071169328L682.2751433253511,187.3370738516008L682.9689517568103,187.31928523722107L684.0096644039987,187.2637795729111L685.0503770511873,187.3435797725343L686.0910896983759,187.28911159727687L686.7848981298348,187.3365767214298L688.8663234242118,146.51583506184747L689.2132276399414,101.18724669776475L689.9070360714004,101.18724669776475L690.6008445028594,131.81738182507496L693.722982444425,228.03658059252476L694.0698866601546,182.82438553152198L694.4167908758841,228.15297389560465L694.7636950916136,132.2299134095843L699.6203541118268,145.02526589434606L701.0079709747449,228.15297389560465L702.3955878376628,182.82438553152198L702.7424920533924,146.51583506184747L703.7832047005809,191.84442342593013L704.1301089163104,139.49188287578232L705.170821563499,201.57531423615842L705.864629994958,228.15297389560465L706.5584384264171,192.46834340489096L708.2929595050646,273.48156225968734L709.3336721522531,243.77330099860927L710.0274805837121,179.58259968642813L710.3743847994416,251.11189335420715L711.0681932309008,257.33626569610624L712.1089058780893,146.51583506184747L713.1496185252779,118.63405166338026L713.8434269567368,224.09838022092512L714.8841396039254,227.48589004918784L715.9248522511139,228.15297389560465L716.2717564668434,191.84442342593013L717.312469114032,228.15297389560465L718.3531817612205,169.32427537912366L721.1284154870566,182.82438553152198L721.4753197027861,209.51774683467974L722.1691281342452,196.02098690734687L723.9036492128927,146.51583506184747L725.6381702915403,146.51583506184747L725.9850745072697,183.51116005558143L726.3319787229992,128.21018368994058L727.0257871544583,244.90090029821457L727.3726913701878,191.84442342593013L728.066499801647,228.15297389560465L728.7603082331059,187.33439367154844L729.8010208802945,187.33439367154844L730.147925096024,187.33439367154844L731.535541958942,187.33439367154844L733.2700630375896,187.3344152859037L733.9638714690485,187.3344152859037L736.0452967634255,150.78951184145137L736.3922009791552,210.4474234831611L736.7391051948847,87.50142600496497L737.0860094106141,279.9443571508805L737.4329136263436,191.69461432961694L738.4736262735322,206.6279291506542L739.1674347049913,155.0808691636587L740.2081473521798,186.3352700996139L740.5550515679092,122.28791519152296L741.5957642150978,235.062488877741L742.2895726465568,218.51130714389333L742.9833810780159,187.3344152859037L743.3302852937454,187.3344152859037L743.6771895094749,187.3344152859037L745.0648063723929,187.3344152859037L746.452423235311,187.33448012896946L746.7993274510405,187.33525824575887L747.1462316667701,187.3396675742321L748.533848529688,187.33439367154844L748.8807527454176,187.33439367154844L749.5745611768766,187.35447340758577L749.9214653926061,187.33432882848263L750.6152738240651,187.33618766303508L750.9621780397946,187.37118130420248L751.3090822555242,187.33445851461423L752.0028906869832,187.16768214942118L752.3497949027127,187.32924945499636L753.0436033341717,191.59739295965343L754.0843159813602,187.33244837957494L754.7781244128194,187.33493403042993L755.1250286285488,187.3340910705748L757.2064539229259,187.33443690025894L757.5533581386553,187.33443690025894L757.900262354385,187.33443690025894L759.2878792173029,187.3994528808837L759.981687648762,187.33463142945632L760.675496080221,187.41663629331612L762.063112943139,187.33411268493003L764.4914424532457,187.33439367154844L765.5321551004341,187.33437205719315L766.2259635318933,187.33439367154844L766.9197719633522,187.33435044283792L767.2666761790817,187.33435044283792L768.6542930419997,187.33463142945632L769.3481014734588,187.33417752799582L769.6950056891884,187.33465304381156L770.0419099049178,187.33448012896946L771.0826225521063,187.33190802069345L772.4702394150244,187.32847133820695L772.817143630754,187.33149734794347L773.8578562779425,187.32596407299667L774.898568925131,187.33067600244357L778.3676110824262,187.33234030779866L778.7145152981557,187.3311515182593L779.7552279453442,230.40882092547304L780.1021321610737,230.41071218155838L780.7959405925327,144.25765368161092L781.8366532397213,210.09722769922416L782.5304616711802,111.25099857901074L782.8773658869098,173.13004459603988L783.5711743183688,189.70991938649635L783.9180785340983,272.0469742723117L784.2649827498278,251.04313809012228L784.6118869655573,124.53191755470837L785.3056953970164,225.86716936934465L785.9995038284753,232.41660000001224L786.346408044205,257.42423612201804L787.7340249071231,196.04597310202846L788.0809291228525,293.1479237526882L788.7747375543115,238.78507524843567L789.8154502015001,159.29588458308453L790.509258632959,142.00580530746572L791.5499712801476,182.701443078798L795.7128218689016,185.0793896015352L797.1004387318197,185.0793896015352L798.1411513790083,230.40797796561787L799.8756724576559,189.5894193559169L800.5694808891149,230.40797796561787L801.6101935363034,187.3344152859037L803.6916188306805,187.3344152859037L804.03852304641,187.33439367154844L804.732331477869,187.33439367154844L805.7730441250575,187.33439367154844L806.8137567722462,187.33439367154844L807.1606609879756,187.3344152859037L807.5075652037051,187.33439367154844L810.6297031452707,187.33439367154844L810.9766073610003,187.33439367154844L811.3235115767299,187.33439367154844L811.6704157924593,187.3344152859037L812.3642242239183,187.3344152859037L813.0580326553774,187.3344152859037L814.0987453025658,187.33439367154844L815.8332663812134,187.33439367154844L816.5270748126725,187.3344152859037L816.873979028402,187.33439367154844L817.2208832441314,187.3344152859037L817.567787459861,187.3344152859037L820.3430211856971,187.33439367154844L823.4651591272627,187.33439367154844L825.1996802059102,187.33439367154844L827.9749139317464,187.33439367154844L828.3218181474758,187.3344152859037L829.3625307946645,187.33439367154844L830.7501476575824,187.33439367154844L831.790860304771,187.3344152859037L833.178477167689,187.3344152859037L834.2191898148776,187.3344152859037L835.2599024620661,187.3344152859037L835.6068066777956,187.33439367154844L835.9537108935252,187.33439367154844L836.6475193249842,187.3344152859037L839.4227530508203,187.33439367154844L840.1165614822793,187.33439367154844L840.8103699137383,187.3344152859037L841.5041783451974,187.3344152859037L843.2386994238449,187.33439367154844L844.9732205024925,187.33439367154844L847.7484542283286,187.3344152859037L848.0953584440581,187.33439367154844L848.4422626597876,187.3344152859037L849.8298795227056,187.33439367154844L850.8705921698942,187.3344152859037L851.9113048170827,187.3344152859037L854.6865385429188,187.334026227509L855.3803469743777,185.13813741913427L856.7679638372958,187.23016925048043L857.1148680530254,175.73476893417427L857.461772268755,189.5894193559169L857.8086764844844,191.48607903005987L858.5024849159435,234.97878728699322L859.1962933474025,187.3344152859037L860.237005994591,187.3344152859037L862.3184312889681,187.3344152859037L863.0122397204271,187.33439367154844L865.4405692305336,187.3344152859037L866.8281860934517,187.33439367154844L867.5219945249108,187.33439367154844L868.9096113878287,187.33439367154844L869.2565156035583,187.33439367154844L869.9503240350174,187.3344152859037L870.991036682206,187.33439367154844L871.6848451136649,187.3344152859037L872.7255577608535,187.3344152859037L873.4193661923124,187.33439367154844L874.4600788395011,187.33437205719315L874.8069830552305,187.33404784186425L875.15388727096,189.5894193559169L878.6229294282551,232.6629820356311L878.9698336439848,201.21278746254518L879.6636420754437,187.33439367154844L880.0105462911732,200.89944415432808L880.3574505069026,207.13953013250182L880.7043547226323,232.6629820356311L881.7450673698207,180.99754022487167L882.0919715855503,122.81320886742833L882.7857800170093,191.84442342593013L883.8264926641978,130.8796214077261L884.5203010956569,191.84442342593013L885.2141095271159,155.40679202663762L885.9079179585749,171.17269181232433L889.0300559001406,191.7203354123774L889.37696011587,208.59079359496127L890.4176727630585,185.0793896015352L891.1114811945176,185.0793896015352L891.8052896259766,189.5894193559169L892.4990980574357,193.99096666124424L893.1929064888947,185.0793896015352L893.5398107046242,170.4895484999487L894.5805233518128,179.1867111554697L896.6619486461898,230.40797796561787L897.0088528619192,189.5894193559169L898.3964697248373,202.75986736187616L899.4371823720259,144.26083099183424L900.4778950192144,144.26083099183424L901.1717034506735,144.26083099183424L901.5186076664029,185.0793896015352L902.906224529321,203.63868543242862L904.2938413922391,150.7962339059375L905.3345540394275,230.40797796561787L905.6814582551572,189.5894193559169L906.0283624708866,185.0793896015352L906.3752666866161,185.0793896015352L907.4159793338047,188.34160101235057L908.8035961967228,191.41708600806714L909.4974046281817,144.26083099183424L910.8850214910998,161.1276147340238L911.2319257068293,162.66902086509876L912.2726383540179,189.5894193559169L914.0071594326654,169.03146570840443L915.0478720798538,192.68721036626272L915.3947762955835,185.0793896015352L916.0885847270425,144.26083099183424L916.7823931585015,144.26083099183424L917.4762015899605,185.0793896015352L917.82310580569,189.5894193559169L918.8638184528786,152.62753176977154L919.2107226686081,216.11542070628963L919.9045311000671,185.0793896015352L920.9452437472556,176.28967427678705L921.2921479629852,189.5894193559169L921.9859563944441,189.5894193559169L924.0673816888212,230.2522249216079L925.1080943360098,189.5894193559169L926.1488069831984,188.53747029972476L926.4957111989278,147.12445207728356L927.8833280618459,211.93628511659685L929.9647533562229,144.26083099183424L934.4745081607066,230.40797796561787L935.8621250236247,185.0793896015352L936.5559334550836,230.40797796561787L938.2904545337312,187.3344152859037L939.3311671809198,263.85262636322466L940.0249756123787,158.7580761954831L941.4125924752968,238.0688403581556L943.1471135539445,214.56638470780754L944.5347304168624,269.99992191426344L945.9223472797805,154.82971035552717L946.9630599269691,187.3344152859037L950.0851978685346,150.7681568584536L952.1666231629118,216.16115668202167L955.6356653202068,198.13940986646656L955.9825695359364,197.22840802093063L956.3294737516659,228.15297389560465L957.3701863988545,187.3344152859037L957.717090614584,187.3344152859037L959.4516116932315,221.3588687633838L960.1454201246905,230.7578927629364L961.5330369876085,205.3715299080493L961.8799412033381,232.6630036499864L962.2268454190677,198.39218975124265L962.5737496347971,187.3344152859037L962.9206538505266,231.8660391428069L963.2675580662561,192.619298062033L963.6144622819857,187.3344152859037L966.3896960078217,187.3344152859037L967.4304086550103,230.51723853146166L969.5118339493873,249.93721798884366L974.3684929696005,228.39985306139454L974.71539718533,142.00580530746572L975.0623014010596,142.00580530746572L977.4906309111661,231.13242631089707L979.2251519898136,312.13073126056344L980.2658646370023,173.63863037532855L980.9596730684613,203.73508545689216L981.3065772841908,214.2094020163187L981.6534814999202,236.95186451416106L982.0003857156498,217.47987011084373L983.3880025785679,187.33439367154844L986.1632363044039,233.5943229894675L986.5101405201334,215.74546940164424L987.550853167322,180.00516033177854L988.2446615987809,206.38619420141643L988.5915658145105,159.6111947976304L989.2853742459696,177.45285080515177L993.4482248347238,143.13595510099182L994.1420332661827,137.45382208952265L995.1827459133713,219.34490798324L995.8765543448303,96.67721694338309L997.6110754234778,226.32658249041484L998.6517880706664,188.17996886370966L999.6925007178548,152.7482479439036L1002.8146386594206,185.0793896015352L1003.16154287515,182.82438553152198L1004.2022555223385,224.605323309214L1005.2429681695271,187.33439367154844L1005.9367766009861,187.33439367154844L1006.2836808167156,187.3344152859037L1008.3651061110928,187.33439367154844L1009.4058187582813,187.33439367154844L1009.7527229740107,187.33439367154844L1011.4872440526583,187.33439367154844L1012.1810524841173,187.33439367154844L1012.8748609155764,187.3344152859037L1013.915573562765,187.33439367154844L1014.2624777784944,187.33439367154844L1014.6093819942239,187.33439367154844L1017.0377115043306,187.3344152859037L1018.7722325829781,187.3344152859037L1019.4660410144371,187.33439367154844L1019.8129452301665,187.33439367154844L1020.1598494458962,187.33439367154844L1021.5474663088143,187.3344152859037L1021.8943705245438,187.3344152859037L1023.9757958189208,187.3344152859037L1025.3634126818388,187.3344152859037L1026.4041253290272,187.33439367154844L1026.7510295447569,187.3344152859037L1027.444837976216,187.33439367154844L1029.8731674863225,187.33439367154844L1030.220071702052,187.33439367154844L1031.9545927806996,187.3344152859037L1036.1174433694537,187.3344152859037L1037.8519644481012,187.3344152859037L1038.5457728795602,187.33439367154844L1038.8926770952899,187.3344152859037L1039.9333897424783,187.33370201218008L1040.280293958208,189.5894193559169L1043.4024318997735,187.3344152859037L1045.4838571941505,187.3344152859037L1046.8714740570686,187.33471788687734L1047.2183782727982,187.33376685524587L1048.605995135716,187.33553923237724L1049.299803567175,187.33685770804817L1049.9936119986342,187.33171349149606L1050.6874204300932,187.336511878364L1051.3812288615522,187.33759259612702L1052.4219415087407,187.33033017275937L1052.7688457244703,187.32587761557565L1053.1157499401997,187.31677797201078L1054.1564625873882,187.5957652625407L1054.5033668031178,187.32546694282567L1054.8502710188475,187.3327077518381L1055.197175234577,187.29323993913172L1056.2378878817653,187.3686308102817L1056.584792097495,187.34994520015866L1056.9316963132244,187.3122605717613L1057.972408960413,187.34295295623173L1058.3193131761425,187.39835054876542L1059.0131216076015,189.71329122591706L1059.360025823331,192.46043255086545L1060.747642686249,187.33437205719315L1061.441451117708,187.33532308882465L1061.7883553334377,187.321684430655L1062.1352595491671,187.3497614781389L1063.5228764120852,187.33443690025894L1064.2166848435443,187.27916899385687L1064.9104932750033,187.32049564111568L1065.9512059221918,187.3427260055015" style="fill: none;" fill="none"></path></g></g></g></g></g></g><g transform="translate(40, 378)" clip-path="url(#clip_1)"><clipPath id="clip_1"><rect width="1089" height="22"></rect></clipPath><g><g><line x1="7.199539515720386" y1="0" x2="7.199539515720386" y2="5" style="visibility: inherit;" fill="rgb(0, 0, 0)" stroke="rgb(204, 204, 204)" stroke-width="1px"></line><line x1="76.58038266162282" y1="0" x2="76.58038266162282" y2="5" style="visibility: inherit;" fill="rgb(0, 0, 0)" stroke="rgb(204, 204, 204)" stroke-width="1px"></line><line x1="145.96122580752527" y1="0" x2="145.96122580752527" y2="5" style="visibility: inherit;" fill="rgb(0, 0, 0)" stroke="rgb(204, 204, 204)" stroke-width="1px"></line><line x1="215.34206895342774" y1="0" x2="215.34206895342774" y2="5" style="visibility: inherit;" fill="rgb(0, 0, 0)" stroke="rgb(204, 204, 204)" stroke-width="1px"></line><line x1="284.7229120993302" y1="0" x2="284.7229120993302" y2="5" style="visibility: inherit;" fill="rgb(0, 0, 0)" stroke="rgb(204, 204, 204)" stroke-width="1px"></line><line x1="354.1037552452326" y1="0" x2="354.1037552452326" y2="5" style="visibility: inherit;" fill="rgb(0, 0, 0)" stroke="rgb(204, 204, 204)" stroke-width="1px"></line><line x1="423.484598391135" y1="0" x2="423.484598391135" y2="5" style="visibility: inherit;" fill="rgb(0, 0, 0)" stroke="rgb(204, 204, 204)" stroke-width="1px"></line><line x1="492.8654415370375" y1="0" x2="492.8654415370375" y2="5" style="visibility: inherit;" fill="rgb(0, 0, 0)" stroke="rgb(204, 204, 204)" stroke-width="1px"></line><line x1="562.24628468294" y1="0" x2="562.24628468294" y2="5" style="visibility: inherit;" fill="rgb(0, 0, 0)" stroke="rgb(204, 204, 204)" stroke-width="1px"></line><line x1="631.6271278288424" y1="0" x2="631.6271278288424" y2="5" style="visibility: inherit;" fill="rgb(0, 0, 0)" stroke="rgb(204, 204, 204)" stroke-width="1px"></line><line x1="701.0079709747449" y1="0" x2="701.0079709747449" y2="5" style="visibility: inherit;" fill="rgb(0, 0, 0)" stroke="rgb(204, 204, 204)" stroke-width="1px"></line><line x1="770.3888141206473" y1="0" x2="770.3888141206473" y2="5" style="visibility: inherit;" fill="rgb(0, 0, 0)" stroke="rgb(204, 204, 204)" stroke-width="1px"></line><line x1="839.7696572665498" y1="0" x2="839.7696572665498" y2="5" style="visibility: inherit;" fill="rgb(0, 0, 0)" stroke="rgb(204, 204, 204)" stroke-width="1px"></line><line x1="909.1505004124523" y1="0" x2="909.1505004124523" y2="5" style="visibility: inherit;" fill="rgb(0, 0, 0)" stroke="rgb(204, 204, 204)" stroke-width="1px"></line><line x1="978.5313435583547" y1="0" x2="978.5313435583547" y2="5" style="visibility: inherit;" fill="rgb(0, 0, 0)" stroke="rgb(204, 204, 204)" stroke-width="1px"></line><line x1="1047.912186704257" y1="0" x2="1047.912186704257" y2="5" style="visibility: inherit;" fill="rgb(0, 0, 0)" stroke="rgb(204, 204, 204)" stroke-width="1px"></line></g><g transform="translate(0, 8)"><text x="7.199539515720386" y="0" dx="0em" dy="0.95em" style="text-anchor: middle; visibility: inherit; font-family: &quot;Helvetica Neue&quot;, sans-serif; font-size: 12px; font-weight: 200;" fill="rgb(50, 49, 63)" stroke="none" stroke-width="1px">0</text><text x="76.58038266162282" y="0" dx="0em" dy="0.95em" style="text-anchor: middle; visibility: inherit; font-family: &quot;Helvetica Neue&quot;, sans-serif; font-size: 12px; font-weight: 200;" fill="rgb(50, 49, 63)" stroke="none" stroke-width="1px">200</text><text x="145.96122580752527" y="0" dx="0em" dy="0.95em" style="text-anchor: middle; visibility: inherit; font-family: &quot;Helvetica Neue&quot;, sans-serif; font-size: 12px; font-weight: 200;" fill="rgb(50, 49, 63)" stroke="none" stroke-width="1px">400</text><text x="215.34206895342774" y="0" dx="0em" dy="0.95em" style="text-anchor: middle; visibility: inherit; font-family: &quot;Helvetica Neue&quot;, sans-serif; font-size: 12px; font-weight: 200;" fill="rgb(50, 49, 63)" stroke="none" stroke-width="1px">600</text><text x="284.7229120993302" y="0" dx="0em" dy="0.95em" style="text-anchor: middle; visibility: inherit; font-family: &quot;Helvetica Neue&quot;, sans-serif; font-size: 12px; font-weight: 200;" fill="rgb(50, 49, 63)" stroke="none" stroke-width="1px">800</text><text x="354.1037552452326" y="0" dx="0em" dy="0.95em" style="text-anchor: middle; visibility: inherit; font-family: &quot;Helvetica Neue&quot;, sans-serif; font-size: 12px; font-weight: 200;" fill="rgb(50, 49, 63)" stroke="none" stroke-width="1px">1k</text><text x="423.484598391135" y="0" dx="0em" dy="0.95em" style="text-anchor: middle; visibility: inherit; font-family: &quot;Helvetica Neue&quot;, sans-serif; font-size: 12px; font-weight: 200;" fill="rgb(50, 49, 63)" stroke="none" stroke-width="1px">1.2k</text><text x="492.8654415370375" y="0" dx="0em" dy="0.95em" style="text-anchor: middle; visibility: inherit; font-family: &quot;Helvetica Neue&quot;, sans-serif; font-size: 12px; font-weight: 200;" fill="rgb(50, 49, 63)" stroke="none" stroke-width="1px">1.4k</text><text x="562.24628468294" y="0" dx="0em" dy="0.95em" style="text-anchor: middle; visibility: inherit; font-family: &quot;Helvetica Neue&quot;, sans-serif; font-size: 12px; font-weight: 200;" fill="rgb(50, 49, 63)" stroke="none" stroke-width="1px">1.6k</text><text x="631.6271278288424" y="0" dx="0em" dy="0.95em" style="text-anchor: middle; visibility: inherit; font-family: &quot;Helvetica Neue&quot;, sans-serif; font-size: 12px; font-weight: 200;" fill="rgb(50, 49, 63)" stroke="none" stroke-width="1px">1.8k</text><text x="701.0079709747449" y="0" dx="0em" dy="0.95em" style="text-anchor: middle; visibility: inherit; font-family: &quot;Helvetica Neue&quot;, sans-serif; font-size: 12px; font-weight: 200;" fill="rgb(50, 49, 63)" stroke="none" stroke-width="1px">2k</text><text x="770.3888141206473" y="0" dx="0em" dy="0.95em" style="text-anchor: middle; visibility: inherit; font-family: &quot;Helvetica Neue&quot;, sans-serif; font-size: 12px; font-weight: 200;" fill="rgb(50, 49, 63)" stroke="none" stroke-width="1px">2.2k</text><text x="839.7696572665498" y="0" dx="0em" dy="0.95em" style="text-anchor: middle; visibility: inherit; font-family: &quot;Helvetica Neue&quot;, sans-serif; font-size: 12px; font-weight: 200;" fill="rgb(50, 49, 63)" stroke="none" stroke-width="1px">2.4k</text><text x="909.1505004124523" y="0" dx="0em" dy="0.95em" style="text-anchor: middle; visibility: inherit; font-family: &quot;Helvetica Neue&quot;, sans-serif; font-size: 12px; font-weight: 200;" fill="rgb(50, 49, 63)" stroke="none" stroke-width="1px">2.6k</text><text x="978.5313435583547" y="0" dx="0em" dy="0.95em" style="text-anchor: middle; visibility: inherit; font-family: &quot;Helvetica Neue&quot;, sans-serif; font-size: 12px; font-weight: 200;" fill="rgb(50, 49, 63)" stroke="none" stroke-width="1px">2.8k</text><text x="1047.912186704257" y="0" dx="0em" dy="0.95em" style="text-anchor: middle; visibility: inherit; font-family: &quot;Helvetica Neue&quot;, sans-serif; font-size: 12px; font-weight: 200;" fill="rgb(50, 49, 63)" stroke="none" stroke-width="1px">3k</text></g><line x1="0" y1="0" x2="1089" y2="0" fill="rgb(0, 0, 0)" stroke="rgb(204, 204, 204)" stroke-width="1px"></line></g></g></g></g></svg>