<svg viewBox="0 0 1112.2000732421875 400" xmlns="http://www.w3.org/2000/svg"><g><g><g><g><g><line x1="50" y1="347.5852779904095" x2="45" y2="347.5852779904095" style="visibility: inherit;" fill="rgb(0, 0, 0)" stroke="rgb(204, 204, 204)" stroke-width="1px"></line><line x1="50" y1="302.6943251695933" x2="45" y2="302.6943251695933" style="visibility: inherit;" fill="rgb(0, 0, 0)" stroke="rgb(204, 204, 204)" stroke-width="1px"></line><line x1="50" y1="257.80337234877715" x2="45" y2="257.80337234877715" style="visibility: inherit;" fill="rgb(0, 0, 0)" stroke="rgb(204, 204, 204)" stroke-width="1px"></line><line x1="50" y1="212.91241952796094" x2="45" y2="212.91241952796094" style="visibility: inherit;" fill="rgb(0, 0, 0)" stroke="rgb(204, 204, 204)" stroke-width="1px"></line><line x1="50" y1="168.02146670714473" x2="45" y2="168.02146670714473" style="visibility: inherit;" fill="rgb(0, 0, 0)" stroke="rgb(204, 204, 204)" stroke-width="1px"></line><line x1="50" y1="123.13051388632852" x2="45" y2="123.13051388632852" style="visibility: inherit;" fill="rgb(0, 0, 0)" stroke="rgb(204, 204, 204)" stroke-width="1px"></line><line x1="50" y1="78.23956106551259" x2="45" y2="78.23956106551259" style="visibility: inherit;" fill="rgb(0, 0, 0)" stroke="rgb(204, 204, 204)" stroke-width="1px"></line><line x1="50" y1="33.348608244696436" x2="45" y2="33.348608244696436" style="visibility: inherit;" fill="rgb(0, 0, 0)" stroke="rgb(204, 204, 204)" stroke-width="1px"></line></g><g transform="translate(40, 0)"><text x="0" y="347.5852779904095" dx="0em" dy="0.3em" style="text-anchor: end; visibility: inherit; font-family: &quot;Helvetica Neue&quot;, sans-serif; font-size: 12px; font-weight: 200;" fill="rgb(50, 49, 63)" stroke="none" stroke-width="1px">0.58</text><text x="0" y="302.6943251695933" dx="0em" dy="0.3em" style="text-anchor: end; visibility: inherit; font-family: &quot;Helvetica Neue&quot;, sans-serif; font-size: 12px; font-weight: 200;" fill="rgb(50, 49, 63)" stroke="none" stroke-width="1px">0.6</text><text x="0" y="257.80337234877715" dx="0em" dy="0.3em" style="text-anchor: end; visibility: inherit; font-family: &quot;Helvetica Neue&quot;, sans-serif; font-size: 12px; font-weight: 200;" fill="rgb(50, 49, 63)" stroke="none" stroke-width="1px">0.62</text><text x="0" y="212.91241952796094" dx="0em" dy="0.3em" style="text-anchor: end; visibility: inherit; font-family: &quot;Helvetica Neue&quot;, sans-serif; font-size: 12px; font-weight: 200;" fill="rgb(50, 49, 63)" stroke="none" stroke-width="1px">0.64</text><text x="0" y="168.02146670714473" dx="0em" dy="0.3em" style="text-anchor: end; visibility: inherit; font-family: &quot;Helvetica Neue&quot;, sans-serif; font-size: 12px; font-weight: 200;" fill="rgb(50, 49, 63)" stroke="none" stroke-width="1px">0.66</text><text x="0" y="123.13051388632852" dx="0em" dy="0.3em" style="text-anchor: end; visibility: inherit; font-family: &quot;Helvetica Neue&quot;, sans-serif; font-size: 12px; font-weight: 200;" fill="rgb(50, 49, 63)" stroke="none" stroke-width="1px">0.68</text><text x="0" y="78.23956106551259" dx="0em" dy="0.3em" style="text-anchor: end; visibility: inherit; font-family: &quot;Helvetica Neue&quot;, sans-serif; font-size: 12px; font-weight: 200;" fill="rgb(50, 49, 63)" stroke="none" stroke-width="1px">0.7</text><text x="0" y="33.348608244696436" dx="0em" dy="0.3em" style="text-anchor: end; visibility: inherit; font-family: &quot;Helvetica Neue&quot;, sans-serif; font-size: 12px; font-weight: 200;" fill="rgb(50, 49, 63)" stroke="none" stroke-width="1px">0.72</text></g><line x1="50" y1="0" x2="50" y2="378" fill="rgb(0, 0, 0)" stroke="rgb(204, 204, 204)" stroke-width="1px"></line></g></g><g transform="translate(50, 0)" clip-path="url(#clip_0)"><clipPath id="clip_0"><rect width="1062" height="378"></rect></clipPath><g><g><g><line x1="75.94121997641183" y1="0" x2="75.94121997641183" y2="378" fill="rgb(0, 0, 0)" stroke="rgb(60, 60, 60)" stroke-width="1px" opacity="0.25"></line><line x1="156.3200700474091" y1="0" x2="156.3200700474091" y2="378" fill="rgb(0, 0, 0)" stroke="rgb(60, 60, 60)" stroke-width="1px" opacity="0.25"></line><line x1="236.6989201184063" y1="0" x2="236.6989201184063" y2="378" fill="rgb(0, 0, 0)" stroke="rgb(60, 60, 60)" stroke-width="1px" opacity="0.25"></line><line x1="317.0777701894035" y1="0" x2="317.0777701894035" y2="378" fill="rgb(0, 0, 0)" stroke="rgb(60, 60, 60)" stroke-width="1px" opacity="0.25"></line><line x1="397.45662026040077" y1="0" x2="397.45662026040077" y2="378" fill="rgb(0, 0, 0)" stroke="rgb(60, 60, 60)" stroke-width="1px" opacity="0.25"></line><line x1="477.835470331398" y1="0" x2="477.835470331398" y2="378" fill="rgb(0, 0, 0)" stroke="rgb(60, 60, 60)" stroke-width="1px" opacity="0.25"></line><line x1="558.2143204023953" y1="0" x2="558.2143204023953" y2="378" fill="rgb(0, 0, 0)" stroke="rgb(60, 60, 60)" stroke-width="1px" opacity="0.25"></line><line x1="638.5931704733925" y1="0" x2="638.5931704733925" y2="378" fill="rgb(0, 0, 0)" stroke="rgb(60, 60, 60)" stroke-width="1px" opacity="0.25"></line><line x1="718.9720205443898" y1="0" x2="718.9720205443898" y2="378" fill="rgb(0, 0, 0)" stroke="rgb(60, 60, 60)" stroke-width="1px" opacity="0.25"></line><line x1="799.350870615387" y1="0" x2="799.350870615387" y2="378" fill="rgb(0, 0, 0)" stroke="rgb(60, 60, 60)" stroke-width="1px" opacity="0.25"></line><line x1="879.7297206863843" y1="0" x2="879.7297206863843" y2="378" fill="rgb(0, 0, 0)" stroke="rgb(60, 60, 60)" stroke-width="1px" opacity="0.25"></line><line x1="960.1085707573816" y1="0" x2="960.1085707573816" y2="378" fill="rgb(0, 0, 0)" stroke="rgb(60, 60, 60)" stroke-width="1px" opacity="0.25"></line><line x1="1040.4874208283788" y1="0" x2="1040.4874208283788" y2="378" fill="rgb(0, 0, 0)" stroke="rgb(60, 60, 60)" stroke-width="1px" opacity="0.25"></line></g><g><line x1="0" y1="347.5852779904095" x2="1062.2" y2="347.5852779904095" fill="rgb(0, 0, 0)" stroke="rgb(60, 60, 60)" stroke-width="1px" opacity="0.25"></line><line x1="0" y1="302.6943251695933" x2="1062.2" y2="302.6943251695933" fill="rgb(0, 0, 0)" stroke="rgb(60, 60, 60)" stroke-width="1px" opacity="0.25"></line><line x1="0" y1="257.80337234877715" x2="1062.2" y2="257.80337234877715" fill="rgb(0, 0, 0)" stroke="rgb(60, 60, 60)" stroke-width="1px" opacity="0.25"></line><line x1="0" y1="212.91241952796094" x2="1062.2" y2="212.91241952796094" fill="rgb(0, 0, 0)" stroke="rgb(60, 60, 60)" stroke-width="1px" opacity="0.25"></line><line x1="0" y1="168.02146670714473" x2="1062.2" y2="168.02146670714473" fill="rgb(0, 0, 0)" stroke="rgb(60, 60, 60)" stroke-width="1px" opacity="0.25"></line><line x1="0" y1="123.13051388632852" x2="1062.2" y2="123.13051388632852" fill="rgb(0, 0, 0)" stroke="rgb(60, 60, 60)" stroke-width="1px" opacity="0.25"></line><line x1="0" y1="78.23956106551259" x2="1062.2" y2="78.23956106551259" fill="rgb(0, 0, 0)" stroke="rgb(60, 60, 60)" stroke-width="1px" opacity="0.25"></line><line x1="0" y1="33.348608244696436" x2="1062.2" y2="33.348608244696436" fill="rgb(0, 0, 0)" stroke="rgb(60, 60, 60)" stroke-width="1px" opacity="0.25"></line></g></g></g><g><g><line x1="0" y1="1649.422909794078" x2="1062.2" y2="1649.422909794078" fill="rgb(0, 0, 0)" stroke="rgb(153, 153, 153)" stroke-width="1.5px"></line></g></g><g><g><line x1="75.94121997641183" y1="0" x2="75.94121997641183" y2="378" fill="rgb(0, 0, 0)" stroke="rgb(153, 153, 153)" stroke-width="1.5px"></line></g></g><g><g><g><g><g><path stroke="rgb(255, 112, 67)" stroke-width="2px" d="M75.94121997641183,13.851453096767841L76.7450084771218,145.43426030796914L78.35258547854176,189.50500292531052L79.15637397925173,211.84304445855904L79.9601624799617,169.0713621915857L80.76395098067167,140.84402239278245L81.56773948138164,162.85552865606638L82.37152798209162,179.39229578523808L83.17531648280159,192.271926789728L83.97910498351156,202.65885509857327L84.78289348422153,181.93214189645536L85.5866819849315,192.12359424072173L86.39047048564149,174.98088030598456L87.19425898635144,160.5257619927236L87.99804748706141,148.0887324164134L88.80183598777138,159.69787862828767L89.60562448848135,148.64696590480057L90.40941298919134,139.05559020544237L91.21320148990131,130.81850750559877L92.01698999061128,123.84389968288627L92.82077849132125,117.85057816215124L93.62456699203122,130.32567357310435L94.4283554927412,141.59862369051876L95.23214399345117,134.91896030195727L96.03593249416114,129.11345962606154L96.83972099487112,123.92602450575222L97.64350949558109,135.00633001293585L99.25108649700104,129.7003632260253L100.05487499771101,125.191758301346L100.85866349842098,121.13426590755643L101.66245199913095,131.9881744386836L102.46624049984092,142.14416683391235L103.27002900055089,151.6065460346713L104.07381750126086,146.48693010354188L104.87760600197083,141.91862019759822L105.6813945026808,137.86261802764065L106.48518300339079,134.1235728000645L107.28897150410076,143.90985898601335L108.09276000481073,153.0940714772858L109.70033700623067,149.1077514369679L110.50412550694065,145.6301676785609L111.30791400765062,142.55021855292722L112.1117025083606,151.87103280256898L112.91549100907056,148.58613302984693L113.71927950978053,157.64932943999185L114.52306801049052,154.30299060939424L115.32685651120049,162.91439289946726L116.13064501191046,159.49044502468263L116.93443351262043,167.9665861186094L117.73822201333039,164.53003933139846L118.54201051404037,172.65914098190655L119.34579901475034,169.2734591973414L120.14958751546031,165.9975108125565L120.95337601617028,174.07784532010731L121.75716451688025,170.81919446074357L122.56095301759024,178.64596760110817L123.3647415183002,186.08765448063593L124.16853001901018,193.1475905103149L124.97231851972015,199.90465606793128L125.77610702043012,195.8552513055927L126.5798955211401,192.17386486547585L127.38368402185007,188.72316657501065L128.18747252256003,195.87644455637167L128.99126102327,202.63567294889043L129.79504952397997,198.9369214124265L130.59883802468997,205.65296036276234L131.40262652539994,212.03060480022612L132.2064150261099,218.143038841318L133.01020352681988,213.9781298637013L133.81399202752985,219.9325248480702L134.61778052823982,215.6951438553749L135.4215690289498,211.78766900340915L136.22535752965976,208.15869353531968L137.02914603036973,204.81045167690223L137.8329345310797,201.653561729348L138.63672303178967,208.32678880492844L139.44051153249964,204.98960635198637L140.24430003320964,201.85791796841139L141.0480885339196,199.0036649736807L141.85187703462958,196.39562627938557L142.65566553533955,193.98675592157142L143.45945403604952,201.14396255167418L144.2632425367595,207.98136851507903L145.06703103746946,205.05292610687752L145.87081953817943,202.33492537549319L146.6746080388894,199.91061555940124L147.47839653959937,197.6316669521012L148.28218504030937,204.84103853861836L149.08597354101934,202.54708285587304L149.8897620417293,200.46363310025677L150.69355054243928,207.61519369467723L151.49733904314925,205.42101092459413L152.30112754385922,212.38382627538445L153.1049160445692,219.02549941076822L153.90870454527916,216.3894432642377L154.71249304598913,213.9124595217246L155.5162815466991,211.51286441246606L156.3200700474091,218.17043371527734L157.12385854811907,224.51306607291724L157.92764704882902,230.515357122615L158.731435549539,236.21027528088626L159.53522405024896,241.62317210508212L160.33901255095893,237.8767870318891L161.1428010516689,243.21189268259215L161.94658955237887,248.30416650543197L162.75037805308884,253.13211819072512L163.5541665537988,257.73650429764587L164.3579550545088,262.1100500723138L165.16174355521878,257.51632898321367L165.96553205592875,261.93201504081065L166.76932055663872,257.3707229916088L167.5731090573487,253.1243854955668L168.37689755805866,257.8355955120299L169.18068605876863,253.64268730995786L169.9844745594786,258.3578694220149L170.78826306018857,254.26006049889904L171.59205156089854,250.41742694034835L172.39584006160854,255.34666043089842L173.1996285623185,251.46931018595825L174.00341706302848,256.38097765237796L174.80720556373845,261.065575212872L175.61099406444842,265.57165972469L176.4147825651584,261.3466834561465L177.21857106586836,265.8780235407127L178.02235956657833,261.79245388883436L179.62993656799827,257.91810898054723L180.43372506870827,254.2809598427666L181.23751356941824,250.88247703598262L182.84509057083818,247.7852891295766L183.64887907154815,244.90310261384283L184.45266757225812,250.47202968631586L185.2564560729681,247.49045320905932L186.06024457367806,252.94323805583383L186.86403307438803,249.85056763181476L187.66782157509797,255.17056270891885L188.471610075808,260.20199244874647L189.27539857651794,256.72826104641865L190.0791870772279,253.46653077155747L190.88297557793788,250.38670616720935L191.68676407864785,247.51964901692452L192.49055257935782,244.8652809663876L193.2943410800678,250.55530903913314L194.09812958077777,255.96267679534674L194.90191808148774,252.95828431033038L195.7057065821977,250.12312779516014L196.5094950829077,247.4756788675743L197.31328358361768,245.00341362100906L198.92086058503762,250.7771920176825L199.7246490857476,248.2030703969518L200.52843758645756,253.82621262100213L201.33222608716753,259.1756237831677L202.1360145878775,264.25787393377664L202.93980308858747,269.1106079033249L203.74359158929744,273.7403078286658L204.54738009000744,278.147864016345L205.3511685907174,282.3489898819297L206.15495709142735,278.30591721626536L206.95874559213732,282.4902151522989L207.7625340928473,278.4453702403426L208.56632259355726,282.6245642382277L209.37011109426723,278.58640172971184L210.1738995949772,274.77531358002847L210.9776880956872,279.1621650768853L211.78147659639717,283.3343846086533L213.3890535978171,287.31223421885386L214.19284209852708,291.0908819957321L214.99663059923705,286.73882338631734L215.80041909994702,290.5800740510738L216.604207600657,286.23323527702746L217.40799610136696,290.08044682147846L218.2117846020769,293.7547454685714L219.0155731027869,289.30807038587966L219.81936160349687,285.10674038643106L220.62315010420684,281.1363205869906L221.4269386049168,277.38434292942895L222.23072710562678,281.74035835235384L223.03451560633675,277.9908689707261L223.83830410704672,282.33940367768633L224.6420926077567,286.46812422234547L225.44588110846666,282.4799563304184L226.24966960917664,286.6025571178615L227.05345810988663,290.5069086312049L227.8572466105966,286.30782900456427L228.66103511130657,290.2352868979376L229.46482361201654,286.0676051442685L231.07240061343649,290.0463870384403L231.87618911414646,293.82903170843053L234.28755461627637,289.60683369661996L235.09134311698637,293.45161714400405L235.89513161769634,297.10990480741674L236.6989201184063,292.7717381148108L237.50270861911628,288.6778772349684L238.30649711982625,292.6050436017203L239.11028562053622,288.51339120041064L240.71786262195616,292.4545495046897L241.52165112266613,296.210319148995L242.3254396233761,299.77686636747666L243.1292281240861,295.3721874338772L243.93301662479607,291.1905018306729L245.540593626216,287.21942069105285L246.34438212692598,291.2476355001144L247.14817062763595,295.0808751530976L247.95195912834592,298.7242203999316L248.7557476290559,294.40619637686996L249.55953612976583,298.0862426088403L250.3633246304758,293.8178907957079L251.1671131311858,297.5504486100359L251.97090163189577,301.10872500008327L252.77469013260574,296.73686333527144L253.5784786333157,292.58749740945854L254.38226713402568,296.40455735115984L255.18605563473565,300.0326767332419L256.7936326361556,303.50321106589666L257.5974211368656,299.06672531783545L258.40120963757556,302.61624949016743L259.20499813828553,298.2467032343407L260.0087866389955,301.8430633126494L260.8125751397055,297.52421095745683L261.61636364041544,293.41727339796927L262.4201521411254,297.2718305673146L263.2239406418354,300.9302502749068L264.02772914254535,296.67458971701285L264.8315176432553,292.64596519814205L266.43909464467527,296.5608329267749L267.24288314538524,292.5529783030547L268.0466716460952,288.7519152143571L268.8504601468052,285.1363532683684L269.65424864751515,289.4280083996374L270.4580371482251,285.78381546927244L271.2618256489351,290.03835771753563L272.0656141496451,286.37375079188064L272.869402650355,282.8975007844093L273.67319115106505,279.6031128263446L274.47697965177497,276.48198859242325L275.280768152485,281.2146082951587L276.0845566531949,285.71224658607724L276.88834515390494,282.29097809806115L277.69213365461485,279.0498588654718L278.4959221553249,283.6731639220923L279.29971065603485,288.0677164269262L280.1034991567448,292.2443521771956L280.9072876574548,296.21018105362555L281.71107615816476,292.2820596164528L282.5148646588747,288.5555500040163L283.3186531595847,285.01608296004963L284.12244166029467,289.3594647731636L284.92623016100464,285.79727550385604L285.7300186617146,282.4138122055717L286.5338071624246,279.1981249959988L287.33759566313455,283.8318944378941L288.1413841638446,288.2337266854058L288.9451726645545,292.4201955485609L290.55274966597443,288.71865863983993L291.35653816668446,285.2022796825743L292.1603266673944,289.5521464185472L293.7679036688143,293.6982185913643L294.57169216952434,297.64184946488024L295.3754806702343,301.3885255062014L296.1792691709443,304.9479674310808L296.98305767165425,308.3333030759629L297.78684617236416,303.87881683711663L298.5906346730742,299.64767767982164L299.3944231737841,295.6288319027054L300.19821167449413,291.81715667854286L301.00200017520405,288.19531650487374L301.8057886759141,284.7631845753056L302.609577176624,289.1518722848756L303.413365677334,293.31156614471445L304.217154178044,297.2518161403339L305.02094267875395,293.3384702438194L305.8247311794639,297.27284600010205L306.6285196801739,301.0072516265857L308.23609668159384,296.9192118797839L309.8436736830138,293.02973471060216L310.64746218372375,296.9265675010364L311.4512506844338,300.61505271542035L312.2550391851437,304.0914532499516L313.0588276858537,307.374126238959L313.8626161865636,310.4727380160841L314.66640468727365,313.4105592134998L315.47019318798357,308.62753532456964L316.2739816886936,304.0564308409647L317.0777701894035,299.69124530250997L317.88155869011354,302.99569152884214L318.68534719082345,306.06982863414726L319.4891356915335,301.5137418270579L320.29292419224345,304.6179207417675L322.70428969437336,300.03990338973927L323.5080781950833,303.0285345218043L324.3118666957933,305.8341270705372L325.11565519650327,301.16054884688276L325.91944369721324,296.71317776390913L327.52702069863324,292.44902304281186L328.33080919934315,295.61120851435453L329.1345977000531,298.5537834306026L329.9383862007631,301.31423123757486L330.74217470147306,296.668839721048L331.54596320218303,299.41992448953494L332.349751702893,294.86189023856053L333.153540203603,297.6317605782549L333.95732870431294,300.1897626922692L334.7611172050229,295.55289365148855L335.5649057057329,291.0798449157284L336.3686942064429,286.7792757454103L337.1724827071528,282.7058293124476L337.97627120786285,278.8526245972564L338.78005970857276,275.21985404166077L339.5838482092828,278.71277061245735L340.3876367099927,281.9964376928226L341.19142521070273,285.0829967703099L341.99521371141265,288.0038159550321L342.7990022121227,283.90054884343755L343.60279071283264,286.74806952999427L344.4065792135426,282.58082136084505L345.2103677142526,278.6046973824741L346.01415621496255,274.80040848812297L346.8179447156725,277.85304497349773L347.6217332163825,280.69207018888346L348.42552171709247,283.4107103393005L349.22931021780244,285.9578850393375L350.0330987185124,288.36450973813197L350.8368872192224,283.97156340551646L351.64067571993235,286.36256238631626L352.4444642206424,288.62451263462793L353.2482527213523,284.1772331767699L354.0520412220623,279.9448926230622L354.8558297227722,275.9170584217827L355.65961822348225,272.1442773035601L356.46340672419217,275.0603364973081L357.2671952249022,277.82588346946557L358.0709837256121,280.44022271528166L358.87477222632214,276.606976712681L359.6785607270321,279.3098946766927L360.482349227742,277.18912819042316L361.28613772845205,279.80432715531936L362.08992622916196,282.29414433904424L362.893714729872,284.6380984269634L363.6975032305819,286.8276691323304L364.50129173129193,284.47681333379285L365.30508023200184,286.66579905719306L366.10886873271187,288.72960231766916L366.9126572334218,290.65978590531597L367.7164457341318,292.49296530281947L368.5202342348418,290.0554290708194L369.32402273555175,291.89564128505197L370.1278112362617,293.6245844668307L370.9315997369717,295.2537086287573L371.73538823768166,292.83987517840285L373.3429652391016,290.62786760123765L374.1467537398116,288.5355444397622L374.95054224052154,286.59646845682045L375.75433074123157,284.74660009736857L376.5581192419415,286.7135650471153L377.3619077426515,284.90726221202135L378.1656962433614,283.19833170432923L378.96948474407145,285.1872693735211L379.77327324478136,287.0362900534161L380.5770617454914,288.76142680201224L381.3808502462013,290.3882258838011L382.18463874691133,288.4929970818951L382.98842724762125,286.72025007041424L383.7922157483313,285.02377194474775L384.59600424904124,283.43441976396116L385.3997927497512,285.2523081821994L386.2035812504612,287.0002663606389L387.00736975117115,288.64797653490865L387.8111582518811,287.05875363532925L388.6149467525911,288.6852777286522L389.41873525330107,290.22664935198645L390.222523754011,291.6852263753206L391.026312254721,290.044861372605L391.830100755431,288.5178137305527L393.4376777568509,290.0077296919462L394.2414662575609,291.40484131361006L395.04525475827086,292.71774217311633L395.8490432589808,293.9581682410723L396.6528317596908,292.38433841172525L397.45662026040077,290.91878004084424L398.26040876111074,289.57573264028366L399.0641972618207,290.98909938354115L399.8679857625307,292.32449310276013L400.6717742632407,291.0019468662889L401.4755627639506,289.7513342312305L402.27935126466065,288.5885443704793L403.08313976537056,290.0086464770555L403.8869282660806,291.34723462964746L405.49450526750053,292.59992259532294L406.29829376821044,293.7918959838472L407.10208226892047,294.9236887359076L407.90587076963044,293.6542413707856L408.7096592703404,292.46963191294833L409.5134477710504,293.65061400699585L410.31723627176035,292.5015721730823L411.9248132731803,293.6528489277L412.72860177389026,292.5512828378619L413.53239027460023,293.6918863885896L414.3361787753102,292.6303235477046L415.1399672760202,291.64197356149555L415.94375577673014,292.8218951337383L416.74754427744017,291.85385424122614L417.5513327781501,293.00259888553353L418.3551212788601,292.0442393920871L419.15890977957,293.17573197883615L419.96269828028005,292.23572042692155L420.76648678098996,293.347584984112L421.5702752817,292.4289754832588L423.1778522831199,291.5740029638142L424.7854292845398,290.7890846838063L425.58921778524984,290.05920569199594L426.39300628595976,289.3782359409762L427.1967947866698,290.60091303561586L428.0005832873797,291.7576868236159L428.8043717880897,292.84970521360515L429.60816028879964,292.07161378961615L430.41194878950967,293.1427917801043L431.2157372902196,294.1587318634238L432.0195257909296,295.12068415918617L432.8233142916396,296.0331474712772L433.62710279234955,296.8954991153733L434.4308912930595,295.9896097431781L435.2346797937695,295.13933638824716L436.03846829447946,294.3429283977925L436.8422567951894,293.59878285512514L437.6460452958994,292.8983264953914L438.44983379660937,293.9039603704631L439.25362229731934,293.2109150820041L440.05741079802937,292.5660678363078L440.8611992987393,291.9648213388826L441.6649877994493,291.40324965199636L442.4687763001592,290.87879375762077L443.27256480086925,290.3921130328681L444.07635330157916,291.5131975922327L444.8801418022892,291.0131252844393L445.6839303029991,292.0998346623912L446.48771880370913,293.1272116843102L447.29150730441904,294.0997882579392L448.09529580512907,293.49502301020993L448.89908430583904,294.44658013313835L449.702872806549,293.83745917102067L450.506661307259,294.76816187142015L451.31044980796895,295.6513126672528L452.1142383086789,295.0032202780721L452.91802680938883,294.3932518369815L453.72181531009886,295.28673971805415L454.5256038108088,294.66758550280935L455.3293923115188,294.0891820943608L456.1331808122288,293.54375924519894L456.93696931293874,293.0327449930507L457.7407578136487,293.98863253750403L459.34833481506865,293.46888695269195L460.1521233157786,294.3970139459666L460.9559118164886,293.86848193690207L461.75970031719856,294.7734183298005L462.56348881790854,295.6318570089507L463.3672773186185,296.4467182053593L464.1710658193285,295.8345647338681L464.9748543200385,295.25794224106147L465.7786428207484,296.0884154208926L466.58243132145844,295.5069335327036L467.38621982216836,296.32365942893796L468.1900083228784,297.0981509722488L468.9937968235883,297.8326603550206L469.7975853242983,297.18205401497306L470.60137382500824,296.5671821538131L471.40516232571827,295.9874754953272L472.20895082642824,296.7732375170656L473.8165278278482,296.195884195392L474.62031632855815,296.97002840221364L475.4241048292681,297.7053918166856L476.2278933299781,298.40313083345615L477.03168183068806,299.06497281912664L477.835470331398,299.6936558127792L479.44304733281797,300.2893326775354L480.24683583352794,299.5659819994044L481.05062433423797,298.8827120800281L481.8544128349479,298.23718441780625L482.6582013356579,297.6265887801744L483.4619898363678,298.32387309624335L484.26577833707785,298.98606576121716L485.06956683778776,299.61419222686743L485.87335533849773,300.2098889104277L486.6771438392077,299.5113541960789L487.4809323399177,300.1105472199605L489.0885093413376,299.4224447263744L489.89229784204764,300.02376204592537L490.69608634275755,299.344828466323L491.4998748434676,299.9485683373089L492.3036633441775,300.5217198583505L493.1074518448875,299.82474489320026L493.91124034559743,300.4036795407787L495.5188173470174,300.95261055080573L496.3226058477274,300.24098100247204L497.1263943484374,300.79728436226395L497.93018284914734,301.32534444057853L501.1453368519872,300.60762727435815L501.9491253526972,301.1439326915176L502.75291385340716,300.43756046565295L503.55670235411714,299.76838653686326L504.36049085482716,300.3456639784574L505.1642793555371,299.6852054663442L505.9680678562471,299.0589806382941L506.771856356957,299.6710527582194L507.57564485766704,300.2519861302883L508.37943335837696,299.60171678246223L509.183221859087,298.98571349161716L509.9870103597969,299.6004321993428L510.7907988605069,300.1838865190954L511.59458736121684,300.7381480550406L512.3983758619269,300.0706879977065L513.2021643626368,299.43811271899176L514.0059528633468,298.8376946567996L514.8097413640568,299.45814867722765L515.6135298647667,300.0473258042513L516.4173183654767,299.4192365147378L517.2211068661867,300.01007161113614L518.0248953668967,299.38607924854114L518.8286838676066,299.977896591652L519.6324723683166,299.357252191074L520.4362608690266,298.7683490734891L522.0438378704465,299.3902502125633L522.8476263711565,298.80235952465364L523.6514148718665,299.4223527736991L524.4552033725764,300.01141994229783L525.2589918732864,300.57106050955935L526.0627803739964,301.1025250595337L526.8665688747063,300.4335559565331L527.6703573754163,299.79914572804137L528.4741458761263,300.36861736104623L529.2779343768362,299.7383638034896L530.0817228775462,299.1405393542449L530.8855113782562,298.57359613990246L531.6892998789663,299.2037967319082L532.4930883796761,298.63447998292486L533.2968768803861,299.26112799801325L534.1006653810961,299.85632320542896L534.9044538818061,300.42175865247367L535.708242382516,299.7945539804207L536.512030883226,300.3627166679607L537.3158193839361,300.9022504751067L538.119607884646,301.4146537386107L538.9233963853559,301.90127629638187L539.7271848860659,302.36362124045013L540.5309733867759,302.8027017733037L541.3347618874859,302.0607110122643L542.1385503881958,302.51495712434667L542.9423388889057,301.7890058462456L543.7461273896158,301.09985382754274L544.5499158903258,300.4460557723892L545.3537043910356,300.980907550274L546.1574928917457,300.3342408103474L546.9612813924557,300.8745629294161L547.7650698931656,301.38770839997335L548.5688583938755,301.87511632572415L549.3726468945856,301.1851171373134L550.9802238960054,301.682326851808L551.7840123967154,302.1545824307525L552.5878008974255,301.4521952948481L553.3915893981355,301.93597751946055L554.1953778988453,302.3954769830168L554.9991663995554,301.6823762848744L555.8029549002654,301.00533197803395L556.6067434009753,301.51111621555157L557.4105319016852,300.8432436360419L558.2143204023953,301.3569985051942L559.0181089031053,300.69730006032944L559.8218974038152,300.07097451555586L560.6256859045252,300.62321574454086L561.4294744052352,300.00134361415985L562.2332629059451,300.5569125349303L563.0370514066551,301.0846762525691L564.644628408075,301.58593137740746L565.448416908785,300.91720111657213L566.252205409495,300.2820612220631L567.055993910205,299.67889237902364L567.8597824109149,299.10616292761176L568.6635709116249,299.7060293228557L569.467359412335,299.13255174811763L570.2711479130448,298.58785508048777L571.0749364137548,298.0707477777216L571.8787249144648,298.7222511449952L572.6825134151749,299.34112582971954L573.4863019158847,298.78705067390865L574.2900904165947,298.26094015754484L575.0938789173047,298.90280012036254L575.8976674180147,298.37146403062815L576.7014559187246,297.86703589831586L577.5052444194346,298.52857769554845L578.3090329201447,298.0166015865595L579.1128214208545,298.67057813882775L579.9166099215645,299.29184248493584L580.7203984222745,298.7422449676098L581.5241869229845,299.3598590795468L582.3279754236944,299.9465724180671L583.1317639244044,299.364753478124L583.9355524251143,298.81217264918985L585.5431294265343,299.42606963103066L586.3469179272442,298.8708310401186L587.1507064279543,299.4817148311339L587.9544949286643,300.06201429695966L588.7582834293742,299.47529286859356L589.5620719300841,300.05589336472616L590.3658604307942,299.4698258251801L591.1696489315042,300.05070636275667L591.973437432214,300.60252280563475L592.7772259329241,301.1267350478223L593.5810144336341,301.6247232993542L594.3848029343441,302.09782551685544L595.1885914350539,301.4105510430443L595.992379935764,300.7577540105685L596.796168436474,301.2741511783238L597.599956937184,301.76468835205145L598.4037454378938,301.09443864650876L599.2075339386039,300.45782183316123L600.0113224393139,299.8530960639405L600.8151109400238,300.4145990328353L603.2264764421537,300.9479800283726L604.0302649428637,301.45465852776726L604.8340534435737,300.8006394442218L605.6378419442837,301.31465821573096L606.4416304449936,301.80297604866473L607.2454189457035,301.13177521363804L608.0492074464136,300.494201313095L608.8529959471235,301.0234483413351L609.6567844478335,300.39135767713964L610.4605729485436,300.92575357645035L611.2643614492534,301.4333962344297L612.0681499499634,301.9156634487831L612.8719384506734,302.3738106131457L613.6757269513834,302.80902366219675L615.2833039528033,302.08816930599795L616.0870924535133,302.5376042169477L616.8908809542232,301.8304813755689L617.6946694549332,302.29282075085973L618.4984579556432,301.59811100388976L619.3022464563533,302.072048829945L620.1060349570631,302.52230314324345L620.9098234577731,301.8163266441248L621.713611958483,302.2793202418019L622.5174004591931,301.58555309121454L623.321188959903,302.0600586094442L624.124977460613,302.51082547321585L624.928765961323,302.9390539937987L625.732554462033,302.2124807659888L626.5363429627429,302.655626521933L627.3401314634528,301.94333169608865L628.1439199641629,302.39990814843514L628.9477084648729,302.8336490888908L629.7514969655828,303.2456829145043L630.5552854662927,302.50402574376903L631.3590739670028,302.93250729027244L632.1628624677128,302.20654234711515L633.7704394691327,302.6499047527243L634.5742279698427,303.0710990380529L635.3780164705527,303.4712402983888L637.7893819726826,302.7187400612199L638.5931704733925,302.00389828227594L639.3969589741024,302.4573862018538L640.2007474748125,302.88819303617964L641.0045359755225,302.16497894758623L641.8083244762323,302.61039276607875L642.6121129769424,301.90114896226936L643.4159014776524,301.2274074842897L644.2196899783623,301.7196931866739L645.0234784790722,302.1873579146656L645.8272669797823,302.63163940625816L646.6310554804923,301.9215071915439L647.4348439812022,301.2469016553853L648.2386324819121,300.60605984240067L649.8462094833321,299.997306944978L650.6499979840421,299.41901176024624L651.4537864847521,298.86966478111736L652.257574985462,298.3478052187646L653.061363486172,297.85207208089594L653.865151986882,298.51307772853716L654.668940487592,298.0091411686386L655.4727289883019,298.6622866726194L656.2765174890119,298.1509431797031L657.080305989722,297.6651735507054L657.8840944904318,297.2037258495237L658.6878829911418,296.76536391194776L659.4916714918518,296.34893344979696L661.0992484932717,297.0850759611733L661.9030369939817,297.784404657708L662.7068254946917,298.4487535408691L663.5106139954017,297.9482405578247L664.3144024961116,298.60439764597993L665.1181909968216,299.22774687972765L665.9219794975317,298.6883310546528L666.7257679982416,299.3074769286934L667.5295564989515,298.76411473680963L668.3333449996614,298.24792734379344L669.1371335003715,297.7575626989744L669.9409220010815,298.4232403015257L670.7447105017914,299.05562733467644L671.5484990025013,298.5249178259528L672.3522875032114,298.02075717121187L673.1560760039213,298.67326167160496L673.9598645046312,299.293134257705L674.7636530053413,299.8820065252272L675.5674415060513,300.44143517937295L676.3712300067612,299.84150217114694L677.9788070081812,300.4029560429969L678.7825955088912,300.9363439105274L679.586384009601,300.31173235847615L680.390172510311,300.8496747209597L681.1939610110211,300.2294166962064L681.9977495117311,299.6401916405104L682.8015380124409,299.0804412161459L683.605326513151,299.67994144647236L684.409115013861,300.2494666652825L685.2129035145709,299.65928593604565L686.0166920152808,300.22983724110424L686.8204805159909,300.7718609809098L687.6242690167009,300.155573914438L688.4280575174108,299.5701078905627L689.2318460181208,299.0139285464281L690.0356345188308,299.61674772096734L690.8394230195407,299.0582631424054L691.6432115202507,298.5277027927714L692.4470000209607,298.0236771498925L693.2507885216706,298.6760022049852L694.0545770223806,298.16458834858855L694.8583655230906,297.6787518742849L695.6621540238006,298.3483165038847L696.4659425245105,297.85330031108947L697.2697310252205,297.38304161720737L698.0735195259306,296.93629585801926L698.8773080266404,297.6429832884323L699.6810965273504,298.31433634732474L701.2886735287705,297.8210592979973L702.0924620294803,297.35244610113585L702.8962505301903,298.03831264084675L703.7000390309003,297.558843466116L704.5038275316102,298.23439013757775L705.3076160323202,298.8761594754664L706.1114045330302,299.4858403464608L706.9151930337403,298.9340081649961L707.7189815344501,298.40977428187773L708.5227700351601,297.91176547146154L709.32655853587,297.43866379083954L710.1303470365801,298.12021275679217L710.93413553729,298.76768427444716L711.737924038,299.3827822162194L712.5417125387099,298.83614307690607L713.34550103942,299.44781807855543L714.1492895401299,298.89793383539853L714.9530780408398,299.50651929912317L715.7568665415499,298.95370668421106L716.5606550422599,298.42854138931796L717.3644435429698,299.06058978607325L718.1682320436797,298.5300937146333L718.9720205443898,299.15706449512277L719.7758090450998,298.62175137750364L720.5795975458096,299.2441392748496L721.3833860465197,298.70447910751733L722.1871745472297,299.3227306183626L722.9909630479397,298.7791475731281L723.7947515486495,299.39366566069293L724.5985400493596,299.97745784387945L725.4023285500696,300.5320604179066L726.2061170507795,301.0589328632326L727.8136940521995,301.55945499701886L728.6174825529095,300.9040624899443L729.4212710536194,301.4123281423949L730.2250595543294,300.7642919780515L731.0288480550394,301.2795461560969L731.8326365557493,300.6381557803419L732.6364250564592,300.0288349233747L733.4402135571693,300.5808619541539L734.2440020578792,301.1052876333941L735.0477905585892,300.4726168730474L735.8515790592991,301.00245480634294L736.6553675600092,301.50579415370066L737.4591560607191,301.98396653369036L738.2629445614291,302.4382369839537L739.0667330621391,302.8697872224307L739.870521562849,303.279759948984L740.674310063559,302.5383789514044L741.478098564269,302.96492209150904L742.281887064979,302.23928298680306L743.0856755656889,302.6807809251378L743.8894640663989,301.9693555680235L744.6932525671089,301.293501478765L745.4970410678188,300.6514400939695L746.3008295685288,301.17233017694576L747.1046180692388,301.66717575577326L747.9084065699489,302.1372790556593L748.7121950706587,301.4530421705656L749.5159835713687,301.93384546043876L750.3197720720786,301.2597802551061L751.1235605727887,300.6194249993132L751.9273490734986,300.0110875063098L752.7311375742086,299.43316688795676L753.5349260749186,298.88414898979477L754.3387145756286,298.36258198654076L755.1425030763385,298.99791497488854L755.9462915770484,299.60147462454546L756.7500800777585,299.04404133955387L757.5538685784685,298.51447971881186L759.1614455798883,298.01140286838L759.9652340805984,298.6642881233623L760.7690225813084,298.15372085270315L761.5728110820182,297.6686819455768L762.3765995827283,298.3387032466994L763.1803880834383,298.9752234827658L763.9841765841483,298.44910944413624L764.7879650848581,299.0801093703308L766.3955420862782,299.6795593002156L767.199330586988,300.24903673360626L768.003119087698,300.79004029532734L768.8069075884081,300.1731921053431L769.610696089118,299.5871863248581L771.218273090538,299.0304808333974L772.022061591248,298.50161061650977L772.8258500919579,297.9991839104665L773.6296385926678,298.6526801133445L774.4334270933779,298.1426999324595L775.2372155940878,297.6582187606187L776.0410040947978,298.3287632209891L776.8447925955077,297.8349788847219L777.6485810962178,298.4966853388873L778.4523695969277,299.1253064703444L779.2561580976377,298.59170835015595L780.0599465983477,299.2155783310495L780.8637350990576,298.67746661782576L781.6675235997676,299.2970486853359L782.4713121004776,299.8856516494706L783.2751006011875,300.4448244653986L784.0788891018975,299.8452504454574L784.8826776026075,300.4064433215861L785.6864661033176,300.9395765539082L786.4902546040274,301.4460531246142L787.2940431047374,301.9272058667849L788.0978316054474,302.38429428257405L788.9016201061575,301.6877467717739L789.7054086068673,301.02602663651385L790.5091971075773,301.5281740138166L791.3129856082872,302.0052140222541L792.1167741089973,302.4584020302697L792.9205626097072,302.88893063788464L793.7243511104172,302.167151309319L794.5281396111272,302.6122424529813L795.3319281118372,301.90429753366095L796.1357166125471,301.23176323885286L796.939505113257,300.59285565878514L797.7432936139671,299.985893457721L798.547082114677,299.40927936671L799.350870615387,298.8614959802497L800.1546591160969,298.3411017631122L800.958447616807,298.97749538408493L801.7622361175169,298.4513011967557L802.5660246182268,299.0821848460462L803.3698131189369,299.6815243128724L804.1736016196469,299.1201286791039L804.9773901203567,299.71757095427716L805.7811786210667,300.2851411156917L806.5849671217768,300.8243327690353L807.3887556224868,301.33657152898496L808.1925441231966,300.6924302236842L808.9963326239066,300.08049598364835L809.8001211246167,299.4991584556144L811.4076981260365,300.077649241962L812.2114866267466,299.49645405101217L813.0152751274566,300.07508005759007L813.8190636281665,300.624774763839L815.4266406295865,301.1469847347755L816.2304291302964,300.512322769185L817.0342176310064,301.040155339854L817.8380061317164,301.54159628198965L818.6417946324264,302.01796517701854L819.4455831331363,301.33975418931607L820.2493716338463,300.69545375099864L821.0531601345563,300.08336833459697L821.8569486352662,300.6326486269956L823.4645256366863,300.0237034667943L824.2683141373961,299.44520556460293L825.0721026381062,298.8956325575211L825.8758911388162,299.5042996387733L826.6796796395262,300.082533365963L827.4834681402361,300.6318554067932L828.2872566409461,301.15371134558194L829.0910451416561,300.5187130494513L829.8948336423659,299.9154646681272L830.698622143076,299.34237870586935L832.306199144496,298.79794704172434L833.109987645206,299.4114983987664L833.9137761459159,299.99437218795646L834.7175646466259,300.5481022876871L835.5213531473358,299.94338444445106L837.1289301487558,300.49966393135696L837.9327186494658,301.02812944391735L838.7365071501757,300.3994102428698L840.3440841515957,299.8021270018748L841.1478726523056,299.23470792292943L841.9516611530157,298.69565979793146L842.7554496537256,299.3143255171632L843.5592381544355,299.9020579504333L844.3630266551455,300.46040376203996L845.1668151558556,299.8600708450863L845.9706036565655,300.42051601196033L846.7743921572754,300.95293892049074L847.5781806579854,300.3279792456147L848.3819691586955,299.73426755448247L849.1857576594053,300.3010028858868L849.9895461601153,300.8394014507208L850.7933346608254,300.2201186493331L851.5971231615354,299.63179998801473L852.4009116622452,300.20365869774247L853.2047001629552,299.6161630340039L854.8122771643752,299.05804215345205L855.6160656650851,298.52782731692787L856.4198541657951,298.02412322222995L857.2236426665052,297.54560433226675L858.0274311672151,297.0910113868019L858.831219667925,296.6591480886102L859.6350081686351,297.379639393308L860.438796669345,296.93334469479095L861.242585170055,296.50936473119975L862.0463736707649,296.10658376578806L862.850162171475,295.72394184864703L863.6539506721849,295.360432027363L864.4577391728948,295.0150976971433L865.2615276736049,295.8177915214146L866.0653161743148,296.58035065447217L866.8691046750248,297.3047818308769L867.6728931757347,296.8622300104815L868.4766816764447,296.4418057811059L869.2804701771547,297.173164201179L870.0842586778647,296.73719326226853L870.8880471785745,297.45378230828356L871.6918356792846,297.0037804640177L872.4956241799946,296.57628540123864L873.2994126807046,297.30091984030514L874.1032011814145,297.98932255741823L874.9069896821245,297.5125503899691L876.5145666835444,298.1903715795989L877.3183551842544,298.8343017097473L878.9259321856744,298.3152805846816L879.7297206863843,298.9529652645759L880.5335091870943,299.55876571047554L881.3372976878043,300.13427613408015L882.1410861885142,300.6810110365045L882.9448746892243,300.0696477558277L883.7486631899342,299.48885263918464L885.3562401913541,298.93710396764715L886.1600286920642,298.4129427296865L886.9638171927741,299.0457443023306L887.767605693484,298.5161443583624L888.571394194194,298.0130311008659L889.3751826949041,298.665828254951L890.1789711956139,299.2859855513319L890.9827596963239,299.87513498289377L892.590336697744,300.4348269428775L893.3941251984538,300.9665343048621L894.1979136991638,300.3409015500408L895.0017021998739,299.7465504329605L895.8054907005837,299.1819168717342L896.6092792012937,299.77626973727575L897.4130677020038,300.3409049595404L898.2168562027138,299.7465536719851L899.0206447034236,299.1819199488076L899.8244332041336,299.7762726604955L900.6282217048437,299.21014629861924L901.4320102055536,298.67233294410994L902.2357987062635,299.2921650060328L903.0395872069735,299.8810054648595L903.8433757076835,300.44040390074497L904.6471642083935,299.84107766612954L905.4509527091034,299.27171105397156L906.2547412098135,299.8615742104014L907.0585297105234,299.2911894603031L907.8623182112334,298.74931725843635L908.6661067119433,298.23453866666296L909.4698952126533,298.87626044245803L910.2736837133633,298.3551413807568L911.0774722140733,298.9908330208473L911.8812607147831,298.46397864095326L912.6850492154932,297.9634736693273L913.4888377162032,297.48798725700937L914.2926262169132,298.16703660328733L915.0964147176231,298.8121334822514L915.9002032183331,299.42497551726706L917.507780219753,300.00717545053215L918.311568720463,300.560265387134L919.115357221173,299.95494607819893L919.919145721883,300.5106474834173L920.7229342225929,299.9078090696683L921.5267227233029,299.33511257660666L922.3305112240129,298.7910442189247L923.1342997247228,299.4049407171067L923.9380882254329,299.9881423903798L924.7418767261428,300.54218397998915L925.5456652268527,299.93776874141145L926.3494537275627,300.4943290134693L928.7608192296926,301.0230612719241L929.5646077304027,301.5253569174562L930.3683962311126,300.87178303200517L931.1721847318225,301.3816425895334L931.9759732325325,300.7352544204784L932.7797617332426,300.1211856598763" style="fill: none;" fill="none"></path></g></g></g></g><g opacity="0.2"><g><g><g><path stroke="rgb(255, 112, 67)" stroke-width="2px" d="M75.94121997641183,13.851453096767841L76.7450084771218,270.4379271586122L78.35258547854176,271.14605362393445L79.15637397925173,272.3763447584714L79.9601624799617,18.32764717890535L80.76395098067167,19.518337815853897L81.56773948138164,273.64503232141334L82.37152798209162,274.1742876202637L83.17531648280159,274.6373191140254L83.97910498351156,275.62973969210225L84.78289348422153,23.91171869526437L85.5866819849315,275.6201071386348L86.39047048564149,25.270845232428428L87.19425898635144,26.866504471404255L87.99804748706141,27.024505105363403L88.80183598777138,278.0817596914273L89.60562448848135,31.091850806993705L90.40941298919134,33.01608714758146L91.21320148990131,36.479792831918246L92.01698999061128,41.332325426610396L92.82077849132125,44.799375747567865L93.62456699203122,286.63024953739364L94.4283554927412,286.4883031592136L95.23214399345117,47.01312383403837L96.03593249416114,51.01665386894683L96.83972099487112,52.704625078652384L97.64350949558109,290.05435472414206L99.25108649700104,54.12502535870664L100.05487499771101,59.90134658802009L100.85866349842098,61.45981346777438L101.66245199913095,293.94871581975275L102.46624049984092,295.76137508267584L103.27002900055089,296.5652919408134L104.07381750126086,67.11492506595584L104.87760600197083,70.29513935032702L105.6813945026808,73.5976335495489L106.48518300339079,74.2906422573459L107.28897150410076,301.9787869895196L108.09276000481073,302.74604663029487L109.70033700623067,83.61348237372334L110.50412550694065,88.04740024897598L111.30791400765062,91.17557198752996L112.1117025083606,308.42657746679316L112.91549100907056,93.04990634973774L113.71927950978053,311.8251296297599L114.52306801049052,97.04500790036212L115.32685651120049,311.074459386623L116.13064501191046,100.27378630846505L116.93443351262043,315.28281496817954L117.73822201333039,104.52415052597684L118.54201051404037,315.22769535667135L119.34579901475034,109.64773247240583L120.14958751546031,108.07682354442272L120.95337601617028,317.4759600930669L121.75716451688025,112.78513540803283L122.56095301759024,318.50075675363155L123.3647415183002,319.48234070905755L124.16853001901018,320.0786225257856L124.97231851972015,321.735287936722L125.77610702043012,122.64766608951703L126.5798955211401,125.44993643575566L127.38368402185007,126.02936128391568L128.18747252256003,326.1377662277406L128.99126102327,325.9883278635303L129.79504952397997,131.29769910328605L130.59883802468997,328.7088552907605L131.40262652539994,329.102184557348L132.2064150261099,330.5429202280557L133.01020352681988,137.2634605507927L133.81399202752985,329.7811457913383L134.61778052823982,137.4056744999024L135.4215690289498,139.4911223256051L136.22535752965976,140.92463358121222L137.02914603036973,142.69836127387106L137.8329345310797,143.02024910224165L138.63672303178967,332.4119031716704L139.44051153249964,142.86880395605897L140.24430003320964,143.5020105610789L141.0480885339196,145.76525926953494L141.85187703462958,147.7043457967183L142.65566553533955,148.9741036433788L143.45945403604952,334.99730727942665L144.2632425367595,335.95574634943785L145.06703103746946,150.20038121397096L145.87081953817943,151.38759342883404L146.6746080388894,154.43736688500022L147.47839653959937,154.85731945908802L148.28218504030937,340.2392893622264L149.08597354101934,159.4394716293675L149.8897620417293,161.2901259643011L150.69355054243928,342.1512174400502L151.49733904314925,164.12316696744966L152.30112754385922,343.496697859802L153.1049160445692,344.1474303607141L153.90870454527916,166.70776836241697L154.71249304598913,167.20986521190773L155.5162815466991,166.25196128375586L156.3200700474091,343.79075831148884L157.12385854811907,344.2325179163432L157.92764704882902,343.84815227589905L158.731435549539,343.77309863013187L159.53522405024896,343.8897595554598L160.33901255095893,167.0758121761524L161.1428010516689,344.06434958705734L161.94658955237887,344.5907953911464L162.75037805308884,344.44296245251405L163.5541665537988,344.8391012138629L164.3579550545088,344.8638515248556L165.16174355521878,170.57844943075347L165.96553205592875,345.5169921641346L166.76932055663872,171.01338597690176L167.5731090573487,172.7156722313437L168.37689755805866,347.06221428287114L169.18068605876863,174.21955464144912L169.9844745594786,347.6876613309312L170.78826306018857,176.61525096008253L171.59205156089854,177.59763762829752L172.39584006160854,348.7702533123006L173.1996285623185,177.97290585713355L174.00341706302848,349.4941664624723L174.80720556373845,349.8840173069744L175.61099406444842,351.01463827021615L176.4147825651584,181.2258994343699L177.21857106586836,351.8168159173109L178.02235956657833,184.3008245579233L179.62993656799827,184.4264491093946L180.43372506870827,185.2829436552086L181.23751356941824,186.40700913067397L182.84509057083818,189.02157846976218L183.64887907154815,190.21481103054242L184.45266757225812,356.1471838427885L185.2564560729681,190.90889002205802L186.06024457367806,356.42733060613347L186.86403307438803,191.15385120815384L187.66782157509797,356.14584598814025L188.471610075808,355.7051566670045L189.27539857651794,190.78901824557423L190.0791870772279,191.54865211485443L190.88297557793788,191.91937163788637L191.68676407864785,193.0891917423221L192.49055257935782,194.47066045211207L193.2943410800678,358.5876982921385L194.09812958077777,358.63211506646064L194.90191808148774,195.91206505014392L195.7057065821977,196.28853734816337L196.5094950829077,197.20376371303584L197.31328358361768,198.05664605129954L198.92086058503762,360.42069294571513L199.7246490857476,199.31944705378913L200.52843758645756,360.6146818697124L201.33222608716753,360.76813379786745L202.1360145878775,360.7788366350535L202.93980308858747,361.27464556769746L203.74359158929744,361.670249187187L204.54738009000744,361.86035833270427L205.3511685907174,362.14224430709197L206.15495709142735,201.51326110600058L206.95874559213732,361.96658399177585L207.7625340928473,201.616543484846L208.56632259355726,362.0064520602939L209.37011109426723,201.88224141798983L210.1738995949772,202.38340176922682L210.9776880956872,362.49182572668144L211.78147659639717,362.58801747589115L213.3890535978171,362.8745859415477L214.19284209852708,362.87003723574367L214.99663059923705,204.06628913126903L215.80041909994702,363.5499349679878L216.604207600657,203.65824346355072L217.40799610136696,363.16490040021944L218.2117846020769,363.5550188156511L219.0155731027869,204.83435148483323L219.81936160349687,205.29323562918532L220.62315010420684,205.70890706839867L221.4269386049168,206.10624989893097L222.23072710562678,364.4941927787274L223.03451560633675,206.75912296728026L223.83830410704672,364.9521404248257L224.6420926077567,364.9053155121367L225.44588110846666,206.71256562552094L226.24966960917664,364.9243130481419L227.05345810988663,364.68269649866676L227.8572466105966,206.53235660440075L228.66103511130657,364.85073104248784L229.46482361201654,206.8879583699074L231.07240061343649,365.63752336112765L231.87618911414646,365.6941146127489L234.28755461627637,209.39054927493652L235.09134311698637,366.49776389995674L235.89513161769634,366.61308697063646L236.6989201184063,210.35139648331455L237.50270861911628,210.8988466053812L238.30649711982625,367.2172621297893L239.11028562053622,210.77589776320644L240.71786262195616,367.3329865568635L241.52165112266613,367.56670976391393L242.3254396233761,367.53834724537086L243.1292281240861,211.68670920773965L243.93301662479607,211.74156124831816L245.540593626216,211.77166297790396L246.34438212692598,367.78103407856463L247.14817062763595,367.9100032666566L247.95195912834592,367.9455902003002L248.7557476290559,212.36620558358928L249.55953612976583,368.0051247321477L250.3633246304758,212.72140599270145L251.1671131311858,368.46721972765556L251.97090163189577,368.71432148118856L252.77469013260574,213.67342336040096L253.5784786333157,213.75128650092952L254.38226713402568,368.9271741557262L255.18605563473565,368.9655705841312L256.7936326361556,369.44211440984026L257.5974211368656,214.7750128777756L258.40120963757556,370.0560559079253L259.20499813828553,215.2266726070271L260.0087866389955,370.17285061871814L260.8125751397055,215.4672188727837L261.61636364041544,215.38654623749377L262.4201521411254,370.50744806624715L263.2239406418354,370.4393512646509L264.02772914254535,215.8180043615566L264.8315176432553,216.1029674016353L266.43909464467527,370.9425183978603L267.24288314538524,216.4045198393524L268.0466716460952,216.5324187437257L268.8504601468052,216.44131084217943L269.65424864751515,370.9687403489661L270.4580371482251,216.54472700648967L271.2618256489351,370.87402023986954L272.0656141496451,216.74674305837647L272.869402650355,216.84922272443293L273.67319115106505,217.01016663861822L274.47697965177497,217.18101067720062L275.280768152485,371.133831612561L276.0845566531949,371.1668766223729L276.88834515390494,217.2872363362722L277.69213365461485,217.4689169975055L278.4959221553249,371.51552154370864L279.29971065603485,371.5638180965107L280.1034991567448,371.60007395747846L280.9072876574548,371.5606072453549L281.71107615816476,217.64805573490705L282.5148646588747,217.75214082654142L283.3186531595847,217.76645587127777L284.12244166029467,371.88343157197926L284.92623016100464,218.11590350540246L285.7300186617146,218.1282117681664L286.5338071624246,218.10025060601785L287.33759566313455,371.8732638766525L288.1413841638446,371.868313814454L288.9451726645545,371.96290013808573L290.55274966597443,218.3896285664358L291.35653816668446,218.3912339920137L292.1603266673944,372.1994328398975L293.7679036688143,372.4734254718605L294.57169216952434,372.5706875047888L295.3754806702343,372.57523621059283L296.1792691709443,372.57724299256523L296.98305767165425,372.6545709912345L297.78684617236416,219.24371497388293L298.5906346730742,219.2561570221117L299.3944231737841,219.27087342324253L300.19821167449413,219.39542769099523L301.00200017520405,219.38044371893477L301.8057886759141,219.5527593976302L302.609577176624,372.5368397821879L303.413365677334,372.345660352952L304.217154178044,372.1164858517056L305.02094267875395,218.98497388491006L305.8247311794639,372.0259130920186L306.6285196801739,371.96089335611333L308.23609668159384,219.24652446864425L309.8436736830138,219.12972975785144L310.64746218372375,370.96633221059926L311.4512506844338,370.6962193571162L312.2550391851437,370.14301646006203L313.0588276858537,369.7448709167408L313.8626161865636,369.3463240170251L314.66640468727365,369.2291279498378L315.47019318798357,217.75013404456905L316.2739816886936,217.2054934172637L317.0777701894035,216.7527634042936L317.88155869011354,365.78013866663184L318.68534719082345,364.47840609387794L319.4891356915335,214.94813126926005L320.29292419224345,363.59729502253606L322.70428969437336,213.05760886580836L323.5080781950833,359.8125042226176L324.3118666957933,359.1403660473334L325.11565519650327,212.36259337603897L325.91944369721324,212.2131550118287L327.52702069863324,211.430108686204L328.33080919934315,355.69271461877565L329.1345977000531,354.46269105516836L329.9383862007631,353.76272550320044L330.74217470147306,208.40642339567884L331.54596320218303,351.69052243851553L332.349751702893,208.25925938437058L333.153540203603,350.2592855358104L333.95732870431294,348.7917927721375L334.7611172050229,207.45239924600693L335.5649057057329,206.09193485419462L336.3686942064429,205.06847604827817L337.1724827071528,205.310360168683L337.97627120786285,205.6417467650562L338.78005970857276,206.1972240150124L339.5838482092828,345.07817583950634L340.3876367099927,344.38610362996315L341.19142521070273,343.7276115720911L341.99521371141265,343.4993735690985L342.7990022121227,205.93848292603957L343.60279071283264,340.85095650740936L344.4065792135426,203.40311458212813L345.2103677142526,203.05834943927235L346.01415621496255,202.51892644509522L346.8179447156725,335.8531328979165L347.6217332163825,334.63354460056564L348.42552171709247,335.0648689391636L349.22931021780244,334.35420055000964L350.0330987185124,334.0903756133734L350.8368872192224,200.50558898493358L351.64067571993235,331.7915399712738L352.4444642206424,331.6015646112213L353.2482527213523,199.67892859777572L354.0520412220623,199.5304267318192L354.8558297227722,199.38821278270953L355.65961822348225,200.46143978154112L356.46340672419217,330.46545844392165L357.2671952249022,330.37127347668434L358.0709837256121,330.1126661731763L358.87477222632214,203.77530574527316L359.6785607270321,330.6653339283712L360.482349227742,236.89456649019397L361.28613772845205,329.4931056855686L362.08992622916196,329.60066919928846L362.893714729872,329.1732246391704L363.6975032305819,328.4295112402045L364.50129173129193,239.81055448153444L365.30508023200184,328.25652663418487L366.10886873271187,327.94186322091485L366.9126572334218,327.33327314142286L367.7164457341318,327.32337301702574L368.5202342348418,243.74224172183148L369.32402273555175,326.85967259593997L370.1278112362617,326.4745042427068L370.9315997369717,326.20706709852027L371.73538823768166,246.97704047585157L373.3429652391016,248.5997243787222L374.1467537398116,248.78140503995547L374.95054224052154,249.75402536923815L375.75433074123157,249.59910180097L376.5581192419415,324.08589855370917L377.3619077426515,250.58750881510213L378.1656962433614,250.72865248049322L378.96948474407145,322.9770846212339L379.77327324478136,322.1676825590386L380.5770617454914,321.53902465982276L381.3808502462013,321.29740811034753L382.18463874691133,252.48365020807648L382.98842724762125,253.03805717431408L383.7922157483313,252.7906878498514L384.59600424904124,253.23672858958022L385.3997927497512,319.79218784559384L386.2035812504612,320.21147149235753L387.00736975117115,319.9544696144274L387.8111582518811,256.86351875553953L388.6149467525911,319.5892352954533L389.41873525330107,319.51271000957297L390.222523754011,319.39818965168223L391.026312254721,258.8779264994198L391.830100755431,259.50390868933914L393.4376777568509,318.31613281217216L394.2414662575609,317.94996199494426L395.04525475827086,317.66285838742834L395.8490432589808,317.52626342784134L396.6528317596908,262.48157177996427L397.45662026040077,263.0731711054234L398.26040876111074,264.05783212654035L399.0641972618207,317.84306740854856L399.8679857625307,317.6969736809589L400.6717742632407,265.8735684551545L401.4755627639506,265.9896942386232L402.27935126466065,266.4955370811291L403.08313976537056,316.99058642667933L403.8869282660806,316.7804094614382L405.49450526750053,316.40099388319254L406.29829376821044,316.43939031159755L407.10208226892047,316.4277509761577L407.90587076963044,269.534741485574L408.7096592703404,269.9620522602272L409.5134477710504,316.0892737501487L410.31723627176035,270.66977736915504L411.9248132731803,315.5271072269512L412.72860177389026,271.62152716592493L413.53239027460023,315.3633538180046L414.3361787753102,272.46062960131155L415.1399672760202,272.86332385043687L415.94375577673014,315.2404049758298L416.74754427744017,273.461077307278L417.5513327781501,314.82874710056115L418.3551212788601,273.83540903786025L419.15890977957,314.6740911032227L419.96269828028005,274.3755009593615L420.76648678098996,314.4730115495897L421.5702752817,274.9753949836399L423.1778522831199,275.32952510903345L424.7854292845398,275.8756373764519L425.58921778524984,276.1915048589053L426.39300628595976,276.43981068162174L427.1967947866698,313.83177781668024L428.0005832873797,313.7363887802595L428.8043717880897,313.59805460962974L429.60816028879964,277.28787674315174L430.41194878950967,313.49517358717884L431.2157372902196,313.46159343550755L432.0195257909296,313.3977777687857L432.8233142916396,313.369950392102L433.62710279234955,313.2801803452039L434.4308912930595,278.7777116794505L435.2346797937695,278.9841426516765L436.03846829447946,279.21117658548565L436.8422567951894,279.4600175500614L437.6460452958994,279.5896556654775L438.44983379660937,313.0110039899747L439.25362229731934,280.0430546057718L440.05741079802937,280.3139701720437L440.8611992987393,280.54113789131776L441.6649877994493,280.73338760427225L442.4687763001592,280.9141317672517L443.27256480086925,281.14517926500565L444.07635330157916,312.81380421482163L444.8801418022892,281.51175143862804L445.6839303029991,312.7473128388033L446.48771880370913,312.64737509657846L447.29150730441904,312.5787431531229L448.09529580512907,282.004483305581L448.89908430583904,312.5261654654464L449.702872806549,282.26416089280764L450.506661307259,312.4515131760737L451.31044980796895,312.4311777854202L452.1142383086789,282.68946488548846L452.91802680938883,282.80385145791445L453.72181531009886,312.26300945613434L454.5256038108088,282.9036554146744L455.3293923115188,283.0995173351792L456.1331808122288,283.1807251123284L456.93696931293874,283.32347420329734L457.7407578136487,312.15049588021594L459.34833481506865,283.59372084224526L460.1521233157786,312.03142681652105L460.9559118164886,283.8263737655771L461.75970031719856,311.9672097934048L462.56348881790854,311.9421919114823L463.3672773186185,311.9290809359294L464.1710658193285,284.20364877638553L464.9748543200385,284.3021148784972L465.7786428207484,311.8674058366448L466.58243132145844,284.45877765780807L467.38621982216836,311.8414514564686L468.1900083228784,311.81349029432005L468.9937968235883,311.78833862693284L469.7975853242983,284.8205335546967L470.60137382500824,284.8846167923482L471.40516232571827,284.973048984598L472.20895082642824,311.70271592944437L473.8165278278482,285.22617108404813L474.62031632855815,311.6787683312406L475.4241048292681,311.6772966911275L476.2278933299781,311.6601721516298L477.03168183068806,311.63997054644113L477.835470331398,311.63863269179285L479.44304733281797,311.6071931075588L480.24683583352794,285.8223191153114L481.05062433423797,285.9005836122344L481.8544128349479,285.97215883591616L482.6582013356579,286.02527166545195L483.4619898363678,311.57227510123937L484.26577833707785,311.5677263954353L485.06956683778776,311.5485950739652L485.87335533849773,311.52812589784685L486.6771438392077,286.2391946237082L487.4809323399177,311.49521467349973L489.0885093413376,286.3484973484708L489.89229784204764,311.44879111720525L490.69608634275755,286.44509045407494L491.4998748434676,311.41962588587324L492.3036633441775,311.4115987579837L493.1074518448875,286.58222055552125L493.91124034559743,311.40343784462937L495.5188173470174,311.3822997411869L496.3226058477274,286.72001958429166L497.1263943484374,311.36704819819676L497.93018284914734,311.3584859284479L501.1453368519872,286.97100111630465L501.9491253526972,311.33373561745515L502.75291385340716,287.0164881743454L503.55670235411714,287.05408188996137L504.36049085482716,311.31393536866096L505.1642793555371,287.136493736294L505.9680678562471,287.16070890542744L506.771856356957,311.3004230367136L507.57564485766704,311.2897201995275L508.37943335837696,287.24659917384554L509.183221859087,287.28165096562986L509.9870103597969,311.28008764606005L510.7907988605069,311.2695185943388L511.59458736121684,311.26911723794433L512.3983758619269,287.38894690842005L513.2021643626368,287.41918242347066L514.0059528633468,287.4297514751919L514.8097413640568,311.2467750653185L515.6135298647667,311.2416912176551L516.4173183654767,287.4855400140242L517.2211068661867,311.2359384426676L518.0248953668967,287.53022435927596L518.8286838676066,311.2224261107202L519.6324723683166,287.56500858013067L520.4362608690266,287.5791898394022L522.0438378704465,311.2063718549411L522.8476263711565,287.6324364544028L523.6514148718665,311.2022245055315L524.4552033725764,311.2036961456446L525.2589918732864,311.2042312875039L526.0627803739964,311.20035150902396L526.8665688747063,287.7231429995546L527.6703573754163,287.7453513867157L528.4741458761263,311.1885783881193L529.2779343768362,287.763546209932L530.0817228775462,287.7818748186131L530.8855113782562,287.8016750674073L531.6892998789663,311.1776079800036L532.4930883796761,287.81746175225675L533.2968768803861,311.16744028467684L534.1006653810961,311.16503214630995L534.9044538818061,311.16503214630995L535.708242382516,287.8776652114283L536.512030883226,311.1578077312094L537.3158193839361,311.1533928108702L538.119607884646,311.15031574517917L538.9233963853559,311.14710489402336L539.7271848860659,311.14817517774196L540.5309733867759,311.14523189751577L541.3347618874859,287.96288655252226L542.1385503881958,311.14563325391026L542.9423388889057,287.9959315623342L543.7461273896158,288.0059654721961L544.5499158903258,288.0238927244827L545.3537043910356,311.14309133007856L546.1574928917457,288.0475727517569L546.9612813924557,311.1406831917117L547.7650698931656,311.13747234055586L548.5688583938755,311.135866914978L549.3726468945856,288.075132557511L550.9802238960054,311.1293114272015L551.7840123967154,311.127438430694L552.5878008974255,288.1068397126747L553.3915893981355,311.1278397870884L554.1953778988453,311.1259667905809L554.9991663995554,288.133463020175L555.8029549002654,288.1414901480645L556.6067434009753,311.1210167283823L557.4105319016852,288.15366462536366L558.2143204023953,311.11834101908585L559.0181089031053,288.1630296079014L559.8218974038152,288.17078916486133L560.6256859045252,311.11579909525415L561.4294744052352,288.18577313692185L562.2332629059451,311.11272202956314L563.0370514066551,311.11218688770384L564.644628408075,311.10977874933695L565.448416908785,288.2113261607035L566.252205409495,288.2144032263945L567.055993910205,288.21868436126897L567.8597824109149,288.2243033507916L568.6635709116249,311.10349083249014L569.467359412335,288.23647782809076L570.2711479130448,288.23861839552796L571.0749364137548,288.2457090251637L571.8787249144648,311.1008151231937L572.6825134151749,311.0997448394751L573.4863019158847,288.25962271350556L574.2900904165947,288.2648403466338L575.0938789173047,311.0981394138971L575.8976674180147,288.2760783256791L576.7014559187246,288.28290138438524L577.5052444194346,311.0978718429675L578.3090329201447,288.28905551576725L579.1128214208545,311.0961326319248L579.9166099215645,311.0958650609951L580.7203984222745,288.29989213841816L581.5241869229845,311.09452720634687L582.3279754236944,311.0941258499524L583.1317639244044,288.3101936192097L583.9355524251143,288.31313689943585L585.5431294265343,311.0901122860076L586.3469179272442,288.32129781279025L587.1507064279543,311.0885068604297L587.9544949286643,311.08770414764075L588.7582834293742,288.327585729637L589.5620719300841,311.08730279124626L590.3658604307942,288.334542573808L591.1696489315042,311.08743657671107L591.973437432214,311.0870352203166L592.7772259329241,311.08676764938696L593.5810144336341,311.08650007845733L594.3848029343441,311.08676764938696L595.1885914350539,288.3523360406298L595.992379935764,288.3546103935318L596.796168436474,311.08569736566835L597.599956937184,311.08489465287937L598.4037454378938,288.3596942411952L599.2075339386039,288.3621023795621L600.0113224393139,288.3633064487455L600.8151109400238,311.08315544183665L603.2264764421537,311.0822189435829L604.0302649428637,311.08155001625875L604.8340534435737,288.37427685686123L605.6378419442837,311.08101487439944L606.4416304449936,311.08101487439944L607.2454189457035,288.3789593481301L608.0492074464136,288.38029720277837L608.8529959471235,311.0791418778919L609.6567844478335,288.3816350574266L610.4605729485436,311.0792756633567L611.2643614492534,311.0786067360326L612.0681499499634,311.0787405214974L612.8719384506734,311.0786067360326L613.6757269513834,311.07807159417325L615.2833039528033,288.3919365382182L616.0870924535133,311.07686752498984L616.8908809542232,288.395147389374L617.6946694549332,311.0772688813843L618.4984579556432,288.3986258114595L619.3022464563533,311.07686752498984L620.1060349570631,311.0771350959195L620.9098234577731,288.40277316086906L621.713611958483,311.0761985976657L622.5174004591931,288.40397723005253L623.321188959903,311.0756634558064L624.124977460613,311.0753958848768L624.928765961323,311.0753958848768L625.732554462033,288.4075894376028L626.5363429627429,311.0753958848768L627.3401314634528,288.40973000504L628.1439199641629,311.07486074301744L628.9477084648729,311.0747269575526L629.7514969655828,311.0743256011582L630.5552854662927,288.41253949980137L631.3590739670028,311.073656673834L632.1628624677128,288.4132084271255L633.7704394691327,311.0737904592989L634.5742279698427,311.0737904592989L635.3780164705527,311.0739242447637L637.7893819726826,288.421235555015L638.5931704733925,288.42190448233913L639.3969589741024,311.073656673834L640.2007474748125,311.0735228883692L641.0045359755225,288.4239112643115L641.8083244762323,311.0732553174396L642.6121129769424,288.42551668988943L643.4159014776524,288.42631940267836L644.2196899783623,311.0731215319747L645.0234784790722,311.0729877465099L645.8272669797823,311.0729877465099L646.6310554804923,288.4289951119749L647.4348439812022,288.42939646836936L648.2386324819121,288.43006539569353L649.8462094833321,288.43100189394727L650.6499979840421,288.43140325034176L651.4537864847521,288.4320721776659L652.257574985462,288.43247353406036L653.061363486172,288.4331424613845L653.865151986882,311.072185033721L654.668940487592,288.43434653056795L655.4727289883019,311.0720512482561L656.2765174890119,288.43541681428655L657.080305989722,288.43555059975137L657.8840944904318,288.4362195270755L658.6878829911418,288.43648709800516L659.4916714918518,288.4367546689348L661.0992484932717,311.0717836773265L661.9030369939817,311.0716498918616L662.7068254946917,311.071382320932L663.5106139954017,288.4384938799775L664.3144024961116,311.071382320932L665.1181909968216,311.071382320932L665.9219794975317,288.4394303782313L666.7257679982416,311.0712485354672L667.5295564989515,288.4402330910203L668.3333449996614,288.4403668764851L669.1371335003715,288.4406344474147L669.9409220010815,311.0711147500024L670.7447105017914,311.0709809645375L671.5484990025013,288.4414371602037L672.3522875032114,288.4417047311333L673.1560760039213,311.0708471790727L673.9598645046312,311.0707133936079L674.7636530053413,311.070579608143L675.5674415060513,311.070579608143L676.3712300067612,288.4427750148519L677.9788070081812,311.070579608143L678.7825955088912,311.0707133936079L679.586384009601,288.4441128695002L680.390172510311,311.070579608143L681.1939610110211,288.4445142258947L681.9977495117311,288.4449155822891L682.8015380124409,288.4451831532188L683.605326513151,311.0704458226782L684.409115013861,311.0704458226782L685.2129035145709,288.4458520805429L686.0166920152808,311.0703120372134L686.8204805159909,311.0703120372134L687.6242690167009,288.4461196514726L688.4280575174108,288.4462534369374L689.2318460181208,288.4465210078671L690.0356345188308,311.0703120372134L690.8394230195407,288.44705614972634L691.6432115202507,288.44705614972634L692.4470000209607,288.4471899351912L693.2507885216706,311.0701782517486L694.0545770223806,288.4477250770505L694.8583655230906,288.4478588625153L695.6621540238006,311.0700444662838L696.4659425245105,288.44799264798013L697.2697310252205,288.448126433445L698.0735195259306,288.448126433445L698.8773080266404,311.0700444662838L699.6810965273504,311.0700444662838L701.2886735287705,288.4487953607691L702.0924620294803,288.4487953607691L702.8962505301903,311.0697768953541L703.7000390309003,288.4489291462339L704.5038275316102,311.0697768953541L705.3076160323202,311.0697768953541L706.1114045330302,311.0697768953541L706.9151930337403,288.4491967171636L707.7189815344501,288.4493305026284L708.5227700351601,288.44959807355804L709.32655853587,288.4497318590229L710.1303470365801,311.0696431098893L710.93413553729,311.0696431098893L711.737924038,311.0696431098893L712.5417125387099,288.4499994299525L713.34550103942,311.0696431098893L714.1492895401299,288.4501332154174L714.9530780408398,311.0696431098893L715.7568665415499,288.4502670008822L716.5606550422599,288.450400786347L717.3644435429698,311.0695093244244L718.1682320436797,288.45066835727664L718.9720205443898,311.0695093244244L719.7758090450998,288.4508021427415L720.5795975458096,311.0695093244244L721.3833860465197,288.4509359282063L722.1871745472297,311.0695093244244L722.9909630479397,288.45106971367113L723.7947515486495,311.0695093244244L724.5985400493596,311.0695093244244L725.4023285500696,311.0695093244244L726.2061170507795,311.0695093244244L727.8136940521995,311.0693755389596L728.6174825529095,288.45160485553043L729.4212710536194,311.0693755389596L730.2250595543294,288.45160485553043L731.0288480550394,311.0693755389596L731.8326365557493,288.45173864099525L732.6364250564592,288.45173864099525L733.4402135571693,311.0693755389596L734.2440020578792,311.0693755389596L735.0477905585892,288.4518724264601L735.8515790592991,311.0693755389596L736.6553675600092,311.0692417534948L737.4591560607191,311.0692417534948L738.2629445614291,311.0693755389596L739.0667330621391,311.0692417534948L739.870521562849,311.0692417534948L740.674310063559,288.45213999738974L741.478098564269,311.0692417534948L742.281887064979,288.45213999738974L743.0856755656889,311.0692417534948L743.8894640663989,288.4522737828546L744.6932525671089,288.4522737828546L745.4970410678188,288.4522737828546L746.3008295685288,311.0692417534948L747.1046180692388,311.0692417534948L747.9084065699489,311.0692417534948L748.7121950706587,288.4525413537842L749.5159835713687,311.06910796803L750.3197720720786,288.4525413537842L751.1235605727887,288.45267513924904L751.9273490734986,288.45267513924904L752.7311375742086,288.45267513924904L753.5349260749186,288.45280892471385L754.3387145756286,288.45280892471385L755.1425030763385,311.0692417534948L755.9462915770484,311.06910796803L756.7500800777585,288.45280892471385L757.5538685784685,288.45280892471385L759.1614455798883,288.4529427101787L759.9652340805984,311.06910796803L760.7690225813084,288.4529427101787L761.5728110820182,288.4529427101787L762.3765995827283,311.06910796803L763.1803880834383,311.06910796803L763.9841765841483,288.4529427101787L764.7879650848581,311.06910796803L766.3955420862782,311.06910796803L767.199330586988,311.06910796803L768.003119087698,311.06910796803L768.8069075884081,288.45307649564353L769.610696089118,288.45307649564353L771.218273090538,288.45307649564353L772.022061591248,288.45307649564353L772.8258500919579,288.45307649564353L773.6296385926678,311.06910796803L774.4334270933779,288.45307649564353L775.2372155940878,288.45307649564353L776.0410040947978,311.06910796803L776.8447925955077,288.45307649564353L777.6485810962178,311.06910796803L778.4523695969277,311.06910796803L779.2561580976377,288.45334406657315L780.0599465983477,311.06910796803L780.8637350990576,288.45334406657315L781.6675235997676,311.06910796803L782.4713121004776,311.06910796803L783.2751006011875,311.06910796803L784.0788891018975,288.45334406657315L784.8826776026075,311.06910796803L785.6864661033176,311.06910796803L786.4902546040274,311.06910796803L787.2940431047374,311.06910796803L788.0978316054474,311.06897418256517L788.9016201061575,288.45334406657315L789.7054086068673,288.45334406657315L790.5091971075773,311.06897418256517L791.3129856082872,311.06897418256517L792.1167741089973,311.06897418256517L792.9205626097072,311.06897418256517L793.7243511104172,288.45334406657315L794.5281396111272,311.06897418256517L795.3319281118372,288.45334406657315L796.1357166125471,288.45361163750283L796.939505113257,288.45361163750283L797.7432936139671,288.45361163750283L798.547082114677,288.45361163750283L799.350870615387,288.45361163750283L800.1546591160969,288.45361163750283L800.958447616807,311.06897418256517L801.7622361175169,288.45361163750283L802.5660246182268,311.06897418256517L803.3698131189369,311.06897418256517L804.1736016196469,288.45361163750283L804.9773901203567,311.06897418256517L805.7811786210667,311.06897418256517L806.5849671217768,311.06897418256517L807.3887556224868,311.06910796803L808.1925441231966,288.45374542296764L808.9963326239066,288.45374542296764L809.8001211246167,288.45374542296764L811.4076981260365,311.06897418256517L812.2114866267466,288.45374542296764L813.0152751274566,311.06897418256517L813.8190636281665,311.06897418256517L815.4266406295865,311.06897418256517L816.2304291302964,288.45374542296764L817.0342176310064,311.06897418256517L817.8380061317164,311.06897418256517L818.6417946324264,311.06897418256517L819.4455831331363,288.45374542296764L820.2493716338463,288.45374542296764L821.0531601345563,288.45374542296764L821.8569486352662,311.06897418256517L823.4645256366863,288.45374542296764L824.2683141373961,288.45374542296764L825.0721026381062,288.45374542296764L825.8758911388162,311.06897418256517L826.6796796395262,311.06897418256517L827.4834681402361,311.06897418256517L828.2872566409461,311.06897418256517L829.0910451416561,288.45374542296764L829.8948336423659,288.45374542296764L830.698622143076,288.45374542296764L832.306199144496,288.45374542296764L833.109987645206,311.06897418256517L833.9137761459159,311.06897418256517L834.7175646466259,311.06897418256517L835.5213531473358,288.45374542296764L837.1289301487558,311.06897418256517L837.9327186494658,311.06897418256517L838.7365071501757,288.45374542296764L840.3440841515957,288.45374542296764L841.1478726523056,288.45374542296764L841.9516611530157,288.45374542296764L842.7554496537256,311.06897418256517L843.5592381544355,311.06897418256517L844.3630266551455,311.06897418256517L845.1668151558556,288.45374542296764L845.9706036565655,311.06897418256517L846.7743921572754,311.06897418256517L847.5781806579854,288.45374542296764L848.3819691586955,288.45374542296764L849.1857576594053,311.06897418256517L849.9895461601153,311.06897418256517L850.7933346608254,288.45374542296764L851.5971231615354,288.45374542296764L852.4009116622452,311.06897418256517L853.2047001629552,288.45374542296764L854.8122771643752,288.45374542296764L855.6160656650851,288.45374542296764L856.4198541657951,288.45374542296764L857.2236426665052,288.45374542296764L858.0274311672151,288.45374542296764L858.831219667925,288.45374542296764L859.6350081686351,311.06897418256517L860.438796669345,288.45374542296764L861.242585170055,288.45374542296764L862.0463736707649,288.45374542296764L862.850162171475,288.45374542296764L863.6539506721849,288.45374542296764L864.4577391728948,288.45374542296764L865.2615276736049,311.06897418256517L866.0653161743148,311.06897418256517L866.8691046750248,311.06897418256517L867.6728931757347,288.45374542296764L868.4766816764447,288.45374542296764L869.2804701771547,311.06897418256517L870.0842586778647,288.45374542296764L870.8880471785745,311.06897418256517L871.6918356792846,288.45374542296764L872.4956241799946,288.45387920843245L873.2994126807046,311.06897418256517L874.1032011814145,311.06897418256517L874.9069896821245,288.45387920843245L876.5145666835444,311.06897418256517L877.3183551842544,311.06897418256517L878.9259321856744,288.45387920843245L879.7297206863843,311.06897418256517L880.5335091870943,311.06897418256517L881.3372976878043,311.06897418256517L882.1410861885142,311.06897418256517L882.9448746892243,288.45374542296764L883.7486631899342,288.45374542296764L885.3562401913541,288.45387920843245L886.1600286920642,288.45387920843245L886.9638171927741,311.06897418256517L887.767605693484,288.45374542296764L888.571394194194,288.45387920843245L889.3751826949041,311.06897418256517L890.1789711956139,311.06897418256517L890.9827596963239,311.06897418256517L892.590336697744,311.06897418256517L893.3941251984538,311.06897418256517L894.1979136991638,288.45387920843245L895.0017021998739,288.45387920843245L895.8054907005837,288.45387920843245L896.6092792012937,311.06897418256517L897.4130677020038,311.06897418256517L898.2168562027138,288.45387920843245L899.0206447034236,288.45387920843245L899.8244332041336,311.06897418256517L900.6282217048437,288.45374542296764L901.4320102055536,288.45387920843245L902.2357987062635,311.06897418256517L903.0395872069735,311.06897418256517L903.8433757076835,311.06897418256517L904.6471642083935,288.45387920843245L905.4509527091034,288.45374542296764L906.2547412098135,311.06897418256517L907.0585297105234,288.45387920843245L907.8623182112334,288.45374542296764L908.6661067119433,288.45374542296764L909.4698952126533,311.06897418256517L910.2736837133633,288.45387920843245L911.0774722140733,311.06897418256517L911.8812607147831,288.45374542296764L912.6850492154932,288.45387920843245L913.4888377162032,288.45374542296764L914.2926262169132,311.06897418256517L915.0964147176231,311.06897418256517L915.9002032183331,311.06897418256517L917.507780219753,311.06897418256517L918.311568720463,311.06897418256517L919.115357221173,288.45387920843245L919.919145721883,311.06897418256517L920.7229342225929,288.45387920843245L921.5267227233029,288.45387920843245L922.3305112240129,288.45374542296764L923.1342997247228,311.06897418256517L923.9380882254329,311.06897418256517L924.7418767261428,311.06897418256517L925.5456652268527,288.45387920843245L926.3494537275627,311.06897418256517L928.7608192296926,311.06897418256517L929.5646077304027,311.06897418256517L930.3683962311126,288.45387920843245L931.1721847318225,311.06897418256517L931.9759732325325,288.45387920843245L932.7797617332426,288.45387920843245" style="fill: none;" fill="none"></path></g></g></g></g></g></g><g transform="translate(50, 378)" clip-path="url(#clip_1)"><clipPath id="clip_1"><rect width="1062" height="22"></rect></clipPath><g><g><line x1="75.94121997641183" y1="0" x2="75.94121997641183" y2="5" style="visibility: inherit;" fill="rgb(0, 0, 0)" stroke="rgb(204, 204, 204)" stroke-width="1px"></line><line x1="156.3200700474091" y1="0" x2="156.3200700474091" y2="5" style="visibility: inherit;" fill="rgb(0, 0, 0)" stroke="rgb(204, 204, 204)" stroke-width="1px"></line><line x1="236.6989201184063" y1="0" x2="236.6989201184063" y2="5" style="visibility: inherit;" fill="rgb(0, 0, 0)" stroke="rgb(204, 204, 204)" stroke-width="1px"></line><line x1="317.0777701894035" y1="0" x2="317.0777701894035" y2="5" style="visibility: inherit;" fill="rgb(0, 0, 0)" stroke="rgb(204, 204, 204)" stroke-width="1px"></line><line x1="397.45662026040077" y1="0" x2="397.45662026040077" y2="5" style="visibility: inherit;" fill="rgb(0, 0, 0)" stroke="rgb(204, 204, 204)" stroke-width="1px"></line><line x1="477.835470331398" y1="0" x2="477.835470331398" y2="5" style="visibility: inherit;" fill="rgb(0, 0, 0)" stroke="rgb(204, 204, 204)" stroke-width="1px"></line><line x1="558.2143204023953" y1="0" x2="558.2143204023953" y2="5" style="visibility: inherit;" fill="rgb(0, 0, 0)" stroke="rgb(204, 204, 204)" stroke-width="1px"></line><line x1="638.5931704733925" y1="0" x2="638.5931704733925" y2="5" style="visibility: inherit;" fill="rgb(0, 0, 0)" stroke="rgb(204, 204, 204)" stroke-width="1px"></line><line x1="718.9720205443898" y1="0" x2="718.9720205443898" y2="5" style="visibility: inherit;" fill="rgb(0, 0, 0)" stroke="rgb(204, 204, 204)" stroke-width="1px"></line><line x1="799.350870615387" y1="0" x2="799.350870615387" y2="5" style="visibility: inherit;" fill="rgb(0, 0, 0)" stroke="rgb(204, 204, 204)" stroke-width="1px"></line><line x1="879.7297206863843" y1="0" x2="879.7297206863843" y2="5" style="visibility: inherit;" fill="rgb(0, 0, 0)" stroke="rgb(204, 204, 204)" stroke-width="1px"></line><line x1="960.1085707573816" y1="0" x2="960.1085707573816" y2="5" style="visibility: inherit;" fill="rgb(0, 0, 0)" stroke="rgb(204, 204, 204)" stroke-width="1px"></line><line x1="1040.4874208283788" y1="0" x2="1040.4874208283788" y2="5" style="visibility: inherit;" fill="rgb(0, 0, 0)" stroke="rgb(204, 204, 204)" stroke-width="1px"></line></g><g transform="translate(0, 8)"><text x="75.94121997641183" y="0" dx="0em" dy="0.95em" style="text-anchor: middle; visibility: inherit; font-family: &quot;Helvetica Neue&quot;, sans-serif; font-size: 12px; font-weight: 200;" fill="rgb(50, 49, 63)" stroke="none" stroke-width="1px">0</text><text x="156.3200700474091" y="0" dx="0em" dy="0.95em" style="text-anchor: middle; visibility: inherit; font-family: &quot;Helvetica Neue&quot;, sans-serif; font-size: 12px; font-weight: 200;" fill="rgb(50, 49, 63)" stroke="none" stroke-width="1px">100</text><text x="236.6989201184063" y="0" dx="0em" dy="0.95em" style="text-anchor: middle; visibility: inherit; font-family: &quot;Helvetica Neue&quot;, sans-serif; font-size: 12px; font-weight: 200;" fill="rgb(50, 49, 63)" stroke="none" stroke-width="1px">200</text><text x="317.0777701894035" y="0" dx="0em" dy="0.95em" style="text-anchor: middle; visibility: inherit; font-family: &quot;Helvetica Neue&quot;, sans-serif; font-size: 12px; font-weight: 200;" fill="rgb(50, 49, 63)" stroke="none" stroke-width="1px">300</text><text x="397.45662026040077" y="0" dx="0em" dy="0.95em" style="text-anchor: middle; visibility: inherit; font-family: &quot;Helvetica Neue&quot;, sans-serif; font-size: 12px; font-weight: 200;" fill="rgb(50, 49, 63)" stroke="none" stroke-width="1px">400</text><text x="477.835470331398" y="0" dx="0em" dy="0.95em" style="text-anchor: middle; visibility: inherit; font-family: &quot;Helvetica Neue&quot;, sans-serif; font-size: 12px; font-weight: 200;" fill="rgb(50, 49, 63)" stroke="none" stroke-width="1px">500</text><text x="558.2143204023953" y="0" dx="0em" dy="0.95em" style="text-anchor: middle; visibility: inherit; font-family: &quot;Helvetica Neue&quot;, sans-serif; font-size: 12px; font-weight: 200;" fill="rgb(50, 49, 63)" stroke="none" stroke-width="1px">600</text><text x="638.5931704733925" y="0" dx="0em" dy="0.95em" style="text-anchor: middle; visibility: inherit; font-family: &quot;Helvetica Neue&quot;, sans-serif; font-size: 12px; font-weight: 200;" fill="rgb(50, 49, 63)" stroke="none" stroke-width="1px">700</text><text x="718.9720205443898" y="0" dx="0em" dy="0.95em" style="text-anchor: middle; visibility: inherit; font-family: &quot;Helvetica Neue&quot;, sans-serif; font-size: 12px; font-weight: 200;" fill="rgb(50, 49, 63)" stroke="none" stroke-width="1px">800</text><text x="799.350870615387" y="0" dx="0em" dy="0.95em" style="text-anchor: middle; visibility: inherit; font-family: &quot;Helvetica Neue&quot;, sans-serif; font-size: 12px; font-weight: 200;" fill="rgb(50, 49, 63)" stroke="none" stroke-width="1px">900</text><text x="879.7297206863843" y="0" dx="0em" dy="0.95em" style="text-anchor: middle; visibility: inherit; font-family: &quot;Helvetica Neue&quot;, sans-serif; font-size: 12px; font-weight: 200;" fill="rgb(50, 49, 63)" stroke="none" stroke-width="1px">1k</text><text x="960.1085707573816" y="0" dx="0em" dy="0.95em" style="text-anchor: middle; visibility: inherit; font-family: &quot;Helvetica Neue&quot;, sans-serif; font-size: 12px; font-weight: 200;" fill="rgb(50, 49, 63)" stroke="none" stroke-width="1px">1.1k</text><text x="1040.4874208283788" y="0" dx="0em" dy="0.95em" style="text-anchor: middle; visibility: inherit; font-family: &quot;Helvetica Neue&quot;, sans-serif; font-size: 12px; font-weight: 200;" fill="rgb(50, 49, 63)" stroke="none" stroke-width="1px">1.2k</text></g><line x1="0" y1="0" x2="1062.2" y2="0" fill="rgb(0, 0, 0)" stroke="rgb(204, 204, 204)" stroke-width="1px"></line></g></g></g></g></svg>