<svg viewBox="0 0 1112.2000732421875 400" xmlns="http://www.w3.org/2000/svg"><g><g><g><g><g><line x1="50" y1="378" x2="45" y2="378" style="visibility: inherit;" fill="rgb(0, 0, 0)" stroke="rgb(204, 204, 204)" stroke-width="1px"></line><line x1="50" y1="343.6363636363636" x2="45" y2="343.6363636363636" style="visibility: inherit;" fill="rgb(0, 0, 0)" stroke="rgb(204, 204, 204)" stroke-width="1px"></line><line x1="50" y1="309.27272727272725" x2="45" y2="309.27272727272725" style="visibility: inherit;" fill="rgb(0, 0, 0)" stroke="rgb(204, 204, 204)" stroke-width="1px"></line><line x1="50" y1="274.9090909090909" x2="45" y2="274.9090909090909" style="visibility: inherit;" fill="rgb(0, 0, 0)" stroke="rgb(204, 204, 204)" stroke-width="1px"></line><line x1="50" y1="240.54545454545453" x2="45" y2="240.54545454545453" style="visibility: inherit;" fill="rgb(0, 0, 0)" stroke="rgb(204, 204, 204)" stroke-width="1px"></line><line x1="50" y1="206.1818181818182" x2="45" y2="206.1818181818182" style="visibility: inherit;" fill="rgb(0, 0, 0)" stroke="rgb(204, 204, 204)" stroke-width="1px"></line><line x1="50" y1="171.81818181818178" x2="45" y2="171.81818181818178" style="visibility: inherit;" fill="rgb(0, 0, 0)" stroke="rgb(204, 204, 204)" stroke-width="1px"></line><line x1="50" y1="137.4545454545454" x2="45" y2="137.4545454545454" style="visibility: inherit;" fill="rgb(0, 0, 0)" stroke="rgb(204, 204, 204)" stroke-width="1px"></line><line x1="50" y1="103.09090909090907" x2="45" y2="103.09090909090907" style="visibility: inherit;" fill="rgb(0, 0, 0)" stroke="rgb(204, 204, 204)" stroke-width="1px"></line><line x1="50" y1="68.7272727272728" x2="45" y2="68.7272727272728" style="visibility: inherit;" fill="rgb(0, 0, 0)" stroke="rgb(204, 204, 204)" stroke-width="1px"></line><line x1="50" y1="34.363636363636374" x2="45" y2="34.363636363636374" style="visibility: inherit;" fill="rgb(0, 0, 0)" stroke="rgb(204, 204, 204)" stroke-width="1px"></line><line x1="50" y1="0" x2="45" y2="0" style="visibility: inherit;" fill="rgb(0, 0, 0)" stroke="rgb(204, 204, 204)" stroke-width="1px"></line></g><g transform="translate(40, 0)"><text x="0" y="378" dx="0em" dy="0.3em" style="text-anchor: end; visibility: hidden; font-family: &quot;Helvetica Neue&quot;, sans-serif; font-size: 12px; font-weight: 200;" fill="rgb(50, 49, 63)" stroke="none" stroke-width="1px">0.7</text><text x="0" y="343.6363636363636" dx="0em" dy="0.3em" style="text-anchor: end; visibility: inherit; font-family: &quot;Helvetica Neue&quot;, sans-serif; font-size: 12px; font-weight: 200;" fill="rgb(50, 49, 63)" stroke="none" stroke-width="1px">0.75</text><text x="0" y="309.27272727272725" dx="0em" dy="0.3em" style="text-anchor: end; visibility: inherit; font-family: &quot;Helvetica Neue&quot;, sans-serif; font-size: 12px; font-weight: 200;" fill="rgb(50, 49, 63)" stroke="none" stroke-width="1px">0.8</text><text x="0" y="274.9090909090909" dx="0em" dy="0.3em" style="text-anchor: end; visibility: inherit; font-family: &quot;Helvetica Neue&quot;, sans-serif; font-size: 12px; font-weight: 200;" fill="rgb(50, 49, 63)" stroke="none" stroke-width="1px">0.85</text><text x="0" y="240.54545454545453" dx="0em" dy="0.3em" style="text-anchor: end; visibility: inherit; font-family: &quot;Helvetica Neue&quot;, sans-serif; font-size: 12px; font-weight: 200;" fill="rgb(50, 49, 63)" stroke="none" stroke-width="1px">0.9</text><text x="0" y="206.1818181818182" dx="0em" dy="0.3em" style="text-anchor: end; visibility: inherit; font-family: &quot;Helvetica Neue&quot;, sans-serif; font-size: 12px; font-weight: 200;" fill="rgb(50, 49, 63)" stroke="none" stroke-width="1px">0.95</text><text x="0" y="171.81818181818178" dx="0em" dy="0.3em" style="text-anchor: end; visibility: inherit; font-family: &quot;Helvetica Neue&quot;, sans-serif; font-size: 12px; font-weight: 200;" fill="rgb(50, 49, 63)" stroke="none" stroke-width="1px">1</text><text x="0" y="137.4545454545454" dx="0em" dy="0.3em" style="text-anchor: end; visibility: inherit; font-family: &quot;Helvetica Neue&quot;, sans-serif; font-size: 12px; font-weight: 200;" fill="rgb(50, 49, 63)" stroke="none" stroke-width="1px">1.05</text><text x="0" y="103.09090909090907" dx="0em" dy="0.3em" style="text-anchor: end; visibility: inherit; font-family: &quot;Helvetica Neue&quot;, sans-serif; font-size: 12px; font-weight: 200;" fill="rgb(50, 49, 63)" stroke="none" stroke-width="1px">1.1</text><text x="0" y="68.7272727272728" dx="0em" dy="0.3em" style="text-anchor: end; visibility: inherit; font-family: &quot;Helvetica Neue&quot;, sans-serif; font-size: 12px; font-weight: 200;" fill="rgb(50, 49, 63)" stroke="none" stroke-width="1px">1.15</text><text x="0" y="34.363636363636374" dx="0em" dy="0.3em" style="text-anchor: end; visibility: inherit; font-family: &quot;Helvetica Neue&quot;, sans-serif; font-size: 12px; font-weight: 200;" fill="rgb(50, 49, 63)" stroke="none" stroke-width="1px">1.2</text><text x="0" y="0" dx="0em" dy="0.3em" style="text-anchor: end; visibility: hidden; font-family: &quot;Helvetica Neue&quot;, sans-serif; font-size: 12px; font-weight: 200;" fill="rgb(50, 49, 63)" stroke="none" stroke-width="1px">1.25</text></g><line x1="50" y1="0" x2="50" y2="378" fill="rgb(0, 0, 0)" stroke="rgb(204, 204, 204)" stroke-width="1px"></line></g></g><g transform="translate(50, 0)" clip-path="url(#clip_0)"><clipPath id="clip_0"><rect width="1062" height="378"></rect></clipPath><g><g><g><line x1="0" y1="0" x2="0" y2="378" fill="rgb(0, 0, 0)" stroke="rgb(60, 60, 60)" stroke-width="1px" opacity="0.25"></line><line x1="96.56363636363638" y1="0" x2="96.56363636363638" y2="378" fill="rgb(0, 0, 0)" stroke="rgb(60, 60, 60)" stroke-width="1px" opacity="0.25"></line><line x1="193.12727272727275" y1="0" x2="193.12727272727275" y2="378" fill="rgb(0, 0, 0)" stroke="rgb(60, 60, 60)" stroke-width="1px" opacity="0.25"></line><line x1="289.6909090909091" y1="0" x2="289.6909090909091" y2="378" fill="rgb(0, 0, 0)" stroke="rgb(60, 60, 60)" stroke-width="1px" opacity="0.25"></line><line x1="386.2545454545455" y1="0" x2="386.2545454545455" y2="378" fill="rgb(0, 0, 0)" stroke="rgb(60, 60, 60)" stroke-width="1px" opacity="0.25"></line><line x1="482.8181818181818" y1="0" x2="482.8181818181818" y2="378" fill="rgb(0, 0, 0)" stroke="rgb(60, 60, 60)" stroke-width="1px" opacity="0.25"></line><line x1="579.3818181818182" y1="0" x2="579.3818181818182" y2="378" fill="rgb(0, 0, 0)" stroke="rgb(60, 60, 60)" stroke-width="1px" opacity="0.25"></line><line x1="675.9454545454546" y1="0" x2="675.9454545454546" y2="378" fill="rgb(0, 0, 0)" stroke="rgb(60, 60, 60)" stroke-width="1px" opacity="0.25"></line><line x1="772.509090909091" y1="0" x2="772.509090909091" y2="378" fill="rgb(0, 0, 0)" stroke="rgb(60, 60, 60)" stroke-width="1px" opacity="0.25"></line><line x1="869.0727272727273" y1="0" x2="869.0727272727273" y2="378" fill="rgb(0, 0, 0)" stroke="rgb(60, 60, 60)" stroke-width="1px" opacity="0.25"></line><line x1="965.6363636363636" y1="0" x2="965.6363636363636" y2="378" fill="rgb(0, 0, 0)" stroke="rgb(60, 60, 60)" stroke-width="1px" opacity="0.25"></line><line x1="1062.2" y1="0" x2="1062.2" y2="378" fill="rgb(0, 0, 0)" stroke="rgb(60, 60, 60)" stroke-width="1px" opacity="0.25"></line></g><g><line x1="0" y1="378" x2="1062.2" y2="378" fill="rgb(0, 0, 0)" stroke="rgb(60, 60, 60)" stroke-width="1px" opacity="0.25"></line><line x1="0" y1="343.6363636363636" x2="1062.2" y2="343.6363636363636" fill="rgb(0, 0, 0)" stroke="rgb(60, 60, 60)" stroke-width="1px" opacity="0.25"></line><line x1="0" y1="309.27272727272725" x2="1062.2" y2="309.27272727272725" fill="rgb(0, 0, 0)" stroke="rgb(60, 60, 60)" stroke-width="1px" opacity="0.25"></line><line x1="0" y1="274.9090909090909" x2="1062.2" y2="274.9090909090909" fill="rgb(0, 0, 0)" stroke="rgb(60, 60, 60)" stroke-width="1px" opacity="0.25"></line><line x1="0" y1="240.54545454545453" x2="1062.2" y2="240.54545454545453" fill="rgb(0, 0, 0)" stroke="rgb(60, 60, 60)" stroke-width="1px" opacity="0.25"></line><line x1="0" y1="206.1818181818182" x2="1062.2" y2="206.1818181818182" fill="rgb(0, 0, 0)" stroke="rgb(60, 60, 60)" stroke-width="1px" opacity="0.25"></line><line x1="0" y1="171.81818181818178" x2="1062.2" y2="171.81818181818178" fill="rgb(0, 0, 0)" stroke="rgb(60, 60, 60)" stroke-width="1px" opacity="0.25"></line><line x1="0" y1="137.4545454545454" x2="1062.2" y2="137.4545454545454" fill="rgb(0, 0, 0)" stroke="rgb(60, 60, 60)" stroke-width="1px" opacity="0.25"></line><line x1="0" y1="103.09090909090907" x2="1062.2" y2="103.09090909090907" fill="rgb(0, 0, 0)" stroke="rgb(60, 60, 60)" stroke-width="1px" opacity="0.25"></line><line x1="0" y1="68.7272727272728" x2="1062.2" y2="68.7272727272728" fill="rgb(0, 0, 0)" stroke="rgb(60, 60, 60)" stroke-width="1px" opacity="0.25"></line><line x1="0" y1="34.363636363636374" x2="1062.2" y2="34.363636363636374" fill="rgb(0, 0, 0)" stroke="rgb(60, 60, 60)" stroke-width="1px" opacity="0.25"></line><line x1="0" y1="0" x2="1062.2" y2="0" fill="rgb(0, 0, 0)" stroke="rgb(60, 60, 60)" stroke-width="1px" opacity="0.25"></line></g></g></g><g><g><line x1="0" y1="859.090909090909" x2="1062.2" y2="859.090909090909" fill="rgb(0, 0, 0)" stroke="rgb(153, 153, 153)" stroke-width="1.5px"></line></g></g><g><g><line x1="96.56363636363638" y1="0" x2="96.56363636363638" y2="378" fill="rgb(0, 0, 0)" stroke="rgb(153, 153, 153)" stroke-width="1.5px"></line></g></g><g><g><g><g><g><path stroke="rgb(255, 112, 67)" stroke-width="2px" d="M96.56363636363638,36.9995966824618L101.3918181818182,38.14761515263865L106.22000000000001,39.19963301591082L111.04818181818182,41.19619425523348L115.87636363636364,41.10152017235765L120.70454545454545,56.23950209683579L125.53272727272727,76.15467261674064L130.3609090909091,94.73035857577366L135.1890909090909,108.33150501955464L140.0172727272727,92.58652366671481L144.84545454545454,104.72259847531836L149.67363636363635,116.31623541547941L154.50181818181818,126.12518018308731L159.33,110.22377862049012L164.15818181818182,119.25678607929206L168.98636363636365,127.25972565717268L173.81454545454545,112.99864294281923L178.64272727272729,121.63104980409122L183.4709090909091,129.39168236413292L188.29909090909092,115.28044617673868L193.12727272727275,102.50742994911008L197.95545454545456,91.56668382205248L202.7836363636364,81.55932574736511L207.6118181818182,91.79891516911357L212.44000000000003,81.45628412659022L217.26818181818183,71.3267848707485L222.09636363636363,61.27597353615232L226.92454545454544,73.43416954804405L231.75272727272727,63.89526351542963L236.5809090909091,55.17020805872636L241.4090909090909,66.71979777844314L246.23727272727274,77.22171050811318L251.06545454545454,69.41382729497371L255.89363636363638,61.74295029208673L260.7218181818182,71.72691685456994L265.55,81.28646417820096L270.3781818181818,90.07990425739945L275.2063636363637,81.35581779624954L280.0345454545454,90.19849532449035L284.8627272727273,98.48024309552653L289.6909090909091,106.53336357814834L294.51909090909095,97.08540266423609L299.3472727272727,87.90139290720549L304.17545454545456,95.95876985329028L309.00363636363636,86.54796640999905L313.8318181818182,78.28664420637051L318.66,70.13648267462366L323.48818181818183,79.76677617594822L328.31636363636363,88.99624484634194L333.1445454545455,97.37138607352983L337.9727272727273,89.00892308755607L342.80090909090916,97.11125030384329L347.6290909090909,89.00758513759695L352.45727272727277,104.07774998487662L357.28545454545457,102.25013249081422L362.1136363636364,100.71738590893773L366.9418181818182,115.87230433591361L371.77,126.6956083620226L376.59818181818184,137.58290989812866L381.42636363636365,146.66321700625917L386.2545454545455,154.8524974048568L391.08272727272725,162.50515648472026L395.9109090909091,170.64521434193463L400.7390909090909,178.61165610275492L405.5672727272728,185.67583363172815L410.3954545454545,192.52322970659495L415.2236363636364,198.2972318098949L420.0518181818182,204.7798873484454L424.88000000000005,210.07465193912154L429.70818181818186,215.79263156026437L434.53636363636366,220.28245169595948L439.36454545454546,224.66078363495103L444.19272727272727,229.4195420955123L449.02090909090913,233.20437685326206L453.8490909090909,237.13267066051952L458.67727272727274,240.39706732303034L463.50545454545454,245.32770783974763L468.3336363636364,248.93306135931778L473.1618181818182,251.64742294001866L477.99,254.66443198278094L482.8181818181818,257.22617883576663L487.6463636363637,259.3219806360672L492.4745454545455,262.5295280043156L497.30272727272734,265.4741688685084L502.1309090909091,267.4587615435071L506.95909090909095,270.17288024716123L511.78727272727275,271.688616252302L516.6154545454546,274.00475596376845L521.4436363636364,276.9656486624958L526.2718181818183,278.72287806302415L531.1,280.66242628838296L535.9281818181818,281.57049523526695L540.7563636363636,284.56947498286877L545.5845454545455,284.4128244235819L550.4127272727274,284.8605180171962L555.2409090909091,285.0988796300886L560.0690909090908,286.9208071405519L564.8972727272728,287.66854498204617L569.7254545454546,290.269341749544L574.5536363636364,292.901622970421L579.3818181818182,295.894537447862L584.21,298.6095810804174L589.0381818181819,301.02589369612423L593.8663636363636,300.9439989373115L598.6945454545454,300.6903756678494L603.5227272727274,300.7382280665402L608.3509090909091,300.4663048688792L613.179090909091,300.5896401479473L618.0072727272727,301.07404434828067L622.8354545454545,301.53664554412137L627.6636363636364,301.8856980336236L632.4918181818182,303.0859405626185L637.32,303.9852655583675L642.1481818181818,304.18263281039793L646.9763636363637,304.8575898227237L651.8045454545455,304.8707368941953L656.6327272727273,305.1840216362916L661.4609090909091,305.2890447005313L666.289090909091,306.2992852725122L671.1172727272727,306.7948137996598L675.9454545454546,306.6768535402027L680.7736363636363,306.5266894393947L685.6018181818183,306.95972232652474L690.4300000000001,306.91746027227794L695.2581818181818,307.73902398274475L700.0863636363637,308.5688357471569L704.9145454545455,309.35511666977015L709.7427272727273,309.8790786032526L714.5709090909091,310.27218499994547L719.3990909090909,310.86296336805714L724.2272727272727,310.8076272278061L729.0554545454546,310.7164334615327L733.8836363636364,311.2295443535214L738.7118181818182,311.8483667137189L743.54,310.43041928149626L748.3681818181819,309.6947034495109L753.1963636363637,310.84664142494694L758.0245454545454,311.90330081956836L762.8527272727273,312.1392312793963L767.6809090909092,311.60228362776184L772.509090909091,311.6316546280358L777.3372727272728,312.0731333708774L782.1654545454545,311.8551191734757L786.9936363636365,311.385966076548L791.8218181818182,311.1621487128941L796.6500000000001,311.2890986552009L801.4781818181818,312.1230915805864L806.3063636363636,310.6755115213731L811.1345454545456,311.49992715650365L815.9627272727273,312.3820520101933L820.790909090909,312.9011577465956L825.6190909090909,312.95518799686545L830.4472727272728,313.3372509774375L835.2754545454546,313.5060070761901L840.1036363636364,312.15406783454176L844.9318181818181,313.0605432771273L849.7600000000001,311.94991757977454L854.5881818181819,313.2180114731755L859.4163636363637,314.36788192966935L864.2445454545455,315.39505461874626L869.0727272727273,316.92638808031757L873.9009090909092,316.1328530444785L878.7290909090909,316.96140165084137L883.5572727272728,317.7852717252382L888.3854545454545,317.38803887757314L893.2136363636364,318.2006506765506L898.0418181818183,319.0763807778259L902.87,317.3259948098129L907.6981818181818,318.1565875073013L912.5263636363637,319.46544615468923L917.3545454545455,316.7726666121955L922.1827272727273,318.3676914103068L927.0109090909091,319.65256148169357L931.8390909090909,317.5103675197465L936.6672727272728,314.833733840895L941.4954545454545,313.45486100848063L946.3236363636364,312.47882332817136L951.1518181818183,313.56886699294137L955.98,312.2318101819623L960.8081818181819,313.8394482989214L965.6363636363636,315.2596242771633L970.4645454545456,314.18842078358495L975.2927272727273,315.4145347516825L980.1209090909091,316.5471568023985L984.949090909091,317.6309883751806L989.7772727272727,315.55012322198996L994.6054545454547,316.92654627913896L999.4336363636364,317.51785847756605L1004.2618181818182,315.4552914382588" style="fill: none;" fill="none"></path></g></g></g></g><g opacity="0.2"><g><g><g><path stroke="rgb(255, 112, 67)" stroke-width="2px" d="M96.56363636363638,36.9995966824618L101.3918181818182,39.2382326993075L106.22000000000001,41.14849610762161L111.04818181818182,46.60662564364344L115.87636363636364,40.76785260980779L120.70454545454545,121.30500359968704L125.53272727272727,176.3927858526056L130.3609090909091,201.19859998876396L135.1890909090909,195.310997095975L140.0172727272727,-18.026083165949046L144.84545454545454,197.2480104186318L149.67363636363635,211.30056381225583L154.50181818181818,211.78824793208727L159.33,-36.80853756991297L164.15818181818182,207.18566504391757L168.98636363636365,208.86943492022428L173.81454545454545,-38.70495492761785L178.64272727272729,217.0684680071744L183.4709090909091,218.27364791523325L188.29909090909092,-51.65945096449417L202.7836363636364,-47.06387303092265L207.6118181818182,226.5541596846147L212.44000000000003,-57.674945484508214L222.09636363636363,-79.36621752652258L226.92454545454544,246.60897601734507L231.75272727272727,-74.24039320512247L236.5809090909091,-73.15114324743098L241.4090909090909,239.06119888479057L246.23727272727274,236.07123028148303L251.06545454545454,-50.19889744845301L255.89363636363638,-57.18255043029785L260.7218181818182,228.25886249542233L265.55,232.7519059181213L270.3781818181818,230.79424641349098L275.2063636363637,-59.55636978149414L280.0345454545454,234.28533554077146L284.8627272727273,234.54734542153096L289.6909090909091,239.8790990222584L294.51909090909095,-60.509944829073845L299.3472727272727,-66.35633728720927L304.17545454545456,232.18098163604733L309.00363636363636,-73.54104475541544L318.66,-70.0878888910467L323.48818181818183,246.3212403384122L328.31636363636363,249.40538666465065L333.1445454545455,243.6105686968023L337.9727272727273,-57.652332999489545L342.80090909090916,239.80249513279307L347.6290909090909,-54.26996404474431L352.45727272727277,371.52128544720733L357.28545454545457,69.70167420127171L362.1136363636364,73.32909367301244L366.9418181818182,387.52920432524246L371.77,321.28846927122635L376.59818181818184,333.88214869932693L381.42636363636365,310.8224935965104L386.2545454545455,303.2805334437977L391.08272727272725,301.54203479940236L395.9109090909091,318.8758154348893L400.7390909090909,323.9953721653331L405.5672727272728,314.85874024304474L410.3954545454545,317.98594041304153L415.2236363636364,304.2880179665305L420.0518181818182,323.9876708117398L424.88000000000005,307.60046026923436L429.70818181818186,321.2797847661105L434.53636363636366,303.2359639081088L439.36454545454546,305.66918199712575L444.19272727272727,317.58510134436864L449.02090909090913,303.41555291956115L453.8490909090909,310.0933638485995L458.67727272727274,301.09679005362767L463.50545454545454,337.1103267236189L468.3336363636364,316.11524885351L473.1618181818182,302.27653091604054L477.99,310.99106311798096L482.8181818181818,305.095513083718L487.6463636363637,298.51745106957173L492.4745454545455,322.5645589828491L497.30272727272734,320.630126432939L502.1309090909091,304.65878898447204L506.95909090909095,321.0821303454312L511.78727272727275,300.1379715312611L516.6154545454546,317.50386844981796L521.4436363636364,332.60622284629125L526.2718181818183,311.76271416924214L531.1,317.1494423259388L535.9281818181818,298.6617285555059L540.7563636363636,341.0415809804743L545.5845454545455,281.4616974917325L550.4127272727274,293.2981863888827L555.2409090909091,289.59309794686055L560.0690909090908,321.2858065691861L564.8972727272728,301.7774586244063L569.7254545454546,339.3603099476207L574.5536363636364,342.60327620939773L579.3818181818182,352.4232394045049L584.21,349.9052654613148L589.0381818181819,346.6905238411643L593.8663636363636,299.3958969549699L598.6945454545454,295.89477148923004L603.5227272727274,301.64325844157827L608.3509090909091,295.3222495859319L613.179090909091,302.923321723938L618.0072727272727,310.2415739406239L622.8354545454545,310.2932713248513L627.6636363636364,308.4941859678788L632.4918181818182,325.81375187093556L637.32,321.017774885351L642.1481818181818,307.9212134534662L646.9763636363637,317.64474587007L651.8045454545455,305.1198460839011L656.6327272727273,311.12092104825103L661.4609090909091,307.2795432264154L666.289090909091,325.4487159035422L671.1172727272727,316.1888213591142L675.9454545454546,304.4403654878789L680.7736363636363,303.67932428013194L685.6018181818183,315.1715872504494L690.4300000000001,306.1159424348311L695.2581818181818,323.3217495137995L700.0863636363637,324.30936618284744L704.9145454545455,324.2711461674083L709.7427272727273,319.8195999318903L714.5709090909091,317.7306896989995L719.3990909090909,322.0727374336936L724.2272727272727,309.75757663900197L729.0554545454546,308.98584365844727L733.8836363636364,320.96747029911387L738.7118181818182,323.59318126331675L743.54,283.5173034667969L748.3681818181819,295.7298478213223L753.1963636363637,332.7130176804282L758.0245454545454,331.96201281114054L762.8527272727273,316.6181308572942L767.6809090909092,301.40844908627594L772.509090909091,312.1892790360884L777.3372727272728,320.4551664265719L782.1654545454545,307.7156938206066L786.9936363636365,302.4778721549294L791.8218181818182,306.9122542034496L796.6500000000001,313.69972749189895L801.4781818181818,327.96009453860194L806.3063636363636,283.18610429763794L811.1345454545456,327.15591755780304L815.9627272727273,329.134387102994L820.790909090909,322.75967359542847L825.6190909090909,313.9813184738159L830.4472727272728,320.59346307407725L835.2754545454546,316.71112060546875L840.1036363636364,286.47675340825856L844.9318181818181,330.2775055711919L849.7600000000001,290.85509581999344L854.5881818181819,337.3041304675015L859.4163636363637,336.2088177420876L864.2445454545455,334.90573232824147L869.0727272727273,346.01378787647593L873.9009090909092,301.0595941543579L878.7290909090909,332.69994995810765L883.5572727272728,333.435142473741L888.3854545454545,309.84229152852834L893.2136363636364,333.63701625303787L898.0418181818183,335.7119165767323L902.87,284.07499616796315L907.6981818181818,333.934993093664L912.5263636363637,344.32948545976114L917.3545454545455,265.6182107058438L922.1827272727273,348.66846084594727L927.0109090909091,344.0614947405728L931.8390909090909,276.81438120928675L936.6672727272728,263.9844586632468L941.4954545454545,287.2595878080888L946.3236363636364,293.93633365631104L951.1518181818183,334.27733464674515L955.98,286.8304831331426L960.8081818181819,344.3814286318692L965.6363636363636,342.24032943898976L970.4645454545456,293.8374449990012L975.2927272727273,338.70864434675735L980.1209090909091,338.06517167524856L984.949090909091,338.22214820168233L989.7772727272727,276.01667664267796L994.6054545454547,343.0767046321522L999.4336363636364,328.7520230900157L1004.2618181818182,276.2690598314459" style="fill: none;" fill="none"></path></g></g></g></g></g></g><g transform="translate(50, 378)" clip-path="url(#clip_1)"><clipPath id="clip_1"><rect width="1062" height="22"></rect></clipPath><g><g><line x1="0" y1="0" x2="0" y2="5" style="visibility: inherit;" fill="rgb(0, 0, 0)" stroke="rgb(204, 204, 204)" stroke-width="1px"></line><line x1="96.56363636363638" y1="0" x2="96.56363636363638" y2="5" style="visibility: inherit;" fill="rgb(0, 0, 0)" stroke="rgb(204, 204, 204)" stroke-width="1px"></line><line x1="193.12727272727275" y1="0" x2="193.12727272727275" y2="5" style="visibility: inherit;" fill="rgb(0, 0, 0)" stroke="rgb(204, 204, 204)" stroke-width="1px"></line><line x1="289.6909090909091" y1="0" x2="289.6909090909091" y2="5" style="visibility: inherit;" fill="rgb(0, 0, 0)" stroke="rgb(204, 204, 204)" stroke-width="1px"></line><line x1="386.2545454545455" y1="0" x2="386.2545454545455" y2="5" style="visibility: inherit;" fill="rgb(0, 0, 0)" stroke="rgb(204, 204, 204)" stroke-width="1px"></line><line x1="482.8181818181818" y1="0" x2="482.8181818181818" y2="5" style="visibility: inherit;" fill="rgb(0, 0, 0)" stroke="rgb(204, 204, 204)" stroke-width="1px"></line><line x1="579.3818181818182" y1="0" x2="579.3818181818182" y2="5" style="visibility: inherit;" fill="rgb(0, 0, 0)" stroke="rgb(204, 204, 204)" stroke-width="1px"></line><line x1="675.9454545454546" y1="0" x2="675.9454545454546" y2="5" style="visibility: inherit;" fill="rgb(0, 0, 0)" stroke="rgb(204, 204, 204)" stroke-width="1px"></line><line x1="772.509090909091" y1="0" x2="772.509090909091" y2="5" style="visibility: inherit;" fill="rgb(0, 0, 0)" stroke="rgb(204, 204, 204)" stroke-width="1px"></line><line x1="869.0727272727273" y1="0" x2="869.0727272727273" y2="5" style="visibility: inherit;" fill="rgb(0, 0, 0)" stroke="rgb(204, 204, 204)" stroke-width="1px"></line><line x1="965.6363636363636" y1="0" x2="965.6363636363636" y2="5" style="visibility: inherit;" fill="rgb(0, 0, 0)" stroke="rgb(204, 204, 204)" stroke-width="1px"></line><line x1="1062.2" y1="0" x2="1062.2" y2="5" style="visibility: inherit;" fill="rgb(0, 0, 0)" stroke="rgb(204, 204, 204)" stroke-width="1px"></line></g><g transform="translate(0, 8)"><text x="0" y="0" dx="0em" dy="0.95em" style="text-anchor: middle; visibility: hidden; font-family: &quot;Helvetica Neue&quot;, sans-serif; font-size: 12px; font-weight: 200;" fill="rgb(50, 49, 63)" stroke="none" stroke-width="1px">-20</text><text x="96.56363636363638" y="0" dx="0em" dy="0.95em" style="text-anchor: middle; visibility: inherit; font-family: &quot;Helvetica Neue&quot;, sans-serif; font-size: 12px; font-weight: 200;" fill="rgb(50, 49, 63)" stroke="none" stroke-width="1px">0</text><text x="193.12727272727275" y="0" dx="0em" dy="0.95em" style="text-anchor: middle; visibility: inherit; font-family: &quot;Helvetica Neue&quot;, sans-serif; font-size: 12px; font-weight: 200;" fill="rgb(50, 49, 63)" stroke="none" stroke-width="1px">20</text><text x="289.6909090909091" y="0" dx="0em" dy="0.95em" style="text-anchor: middle; visibility: inherit; font-family: &quot;Helvetica Neue&quot;, sans-serif; font-size: 12px; font-weight: 200;" fill="rgb(50, 49, 63)" stroke="none" stroke-width="1px">40</text><text x="386.2545454545455" y="0" dx="0em" dy="0.95em" style="text-anchor: middle; visibility: inherit; font-family: &quot;Helvetica Neue&quot;, sans-serif; font-size: 12px; font-weight: 200;" fill="rgb(50, 49, 63)" stroke="none" stroke-width="1px">60</text><text x="482.8181818181818" y="0" dx="0em" dy="0.95em" style="text-anchor: middle; visibility: inherit; font-family: &quot;Helvetica Neue&quot;, sans-serif; font-size: 12px; font-weight: 200;" fill="rgb(50, 49, 63)" stroke="none" stroke-width="1px">80</text><text x="579.3818181818182" y="0" dx="0em" dy="0.95em" style="text-anchor: middle; visibility: inherit; font-family: &quot;Helvetica Neue&quot;, sans-serif; font-size: 12px; font-weight: 200;" fill="rgb(50, 49, 63)" stroke="none" stroke-width="1px">100</text><text x="675.9454545454546" y="0" dx="0em" dy="0.95em" style="text-anchor: middle; visibility: inherit; font-family: &quot;Helvetica Neue&quot;, sans-serif; font-size: 12px; font-weight: 200;" fill="rgb(50, 49, 63)" stroke="none" stroke-width="1px">120</text><text x="772.509090909091" y="0" dx="0em" dy="0.95em" style="text-anchor: middle; visibility: inherit; font-family: &quot;Helvetica Neue&quot;, sans-serif; font-size: 12px; font-weight: 200;" fill="rgb(50, 49, 63)" stroke="none" stroke-width="1px">140</text><text x="869.0727272727273" y="0" dx="0em" dy="0.95em" style="text-anchor: middle; visibility: inherit; font-family: &quot;Helvetica Neue&quot;, sans-serif; font-size: 12px; font-weight: 200;" fill="rgb(50, 49, 63)" stroke="none" stroke-width="1px">160</text><text x="965.6363636363636" y="0" dx="0em" dy="0.95em" style="text-anchor: middle; visibility: inherit; font-family: &quot;Helvetica Neue&quot;, sans-serif; font-size: 12px; font-weight: 200;" fill="rgb(50, 49, 63)" stroke="none" stroke-width="1px">180</text><text x="1062.2" y="0" dx="0em" dy="0.95em" style="text-anchor: middle; visibility: hidden; font-family: &quot;Helvetica Neue&quot;, sans-serif; font-size: 12px; font-weight: 200;" fill="rgb(50, 49, 63)" stroke="none" stroke-width="1px">200</text></g><line x1="0" y1="0" x2="1062.2" y2="0" fill="rgb(0, 0, 0)" stroke="rgb(204, 204, 204)" stroke-width="1px"></line></g></g></g></g></svg>