<?xml version="1.0" encoding="utf-8"?>
<!-- Generator: Adobe Illustrator 23.0.3, SVG Export Plug-In . SVG Version: 6.00 Build 0)  -->
<svg version="1.1" id="Layer_1" xmlns="http://www.w3.org/2000/svg" xmlns:xlink="http://www.w3.org/1999/xlink" x="0px" y="0px"
	 viewBox="0 0 762 400" style="enable-background:new 0 0 762 400;" xml:space="preserve">
<style type="text/css">
	.st0{fill:none;stroke:#CCCCCC;}
	.st1{display:none;fill:#32313F;enable-background:new    ;}
	.st2{font-family:'Roboto-Thin';}
	.st3{font-size:12px;}
	.st4{fill:#32313F;}
	.st5{font-family:'Roboto-Regular';}
	.st6{opacity:0.25;fill:none;stroke:#3C3C3C;enable-background:new    ;}
	.st7{opacity:0.25;fill:none;stroke:#3C3C3C;stroke-width:3;enable-background:new    ;}
	.st8{fill:none;stroke:#999999;stroke-width:1.5;}
	.st9{fill:none;stroke:#CC3311;stroke-width:2;}
	.st10{opacity:0.2;}
</style>
<g>
	<line class="st0" x1="61.8" y1="376.2" x2="56.8" y2="376.2"/>
	<line class="st0" x1="61.8" y1="341.8" x2="56.8" y2="341.8"/>
	<line class="st0" x1="61.8" y1="307.4" x2="56.8" y2="307.4"/>
	<line class="st0" x1="61.8" y1="272.9" x2="56.8" y2="272.9"/>
	<line class="st0" x1="61.8" y1="238.5" x2="56.8" y2="238.5"/>
	<line class="st0" x1="61.8" y1="204.1" x2="56.8" y2="204.1"/>
	<line class="st0" x1="61.8" y1="169.7" x2="56.8" y2="169.7"/>
	<line class="st0" x1="61.8" y1="135.3" x2="56.8" y2="135.3"/>
	<line class="st0" x1="61.8" y1="100.8" x2="56.8" y2="100.8"/>
	<line class="st0" x1="61.8" y1="66.4" x2="56.8" y2="66.4"/>
	<line class="st0" x1="61.8" y1="32" x2="56.8" y2="32"/>
</g>
<text transform="matrix(1 0 0 1 21.2754 379.7846)" class="st1 st2 st3">1e-10</text>
<text transform="matrix(1 0 0 1 27.8438 345.3676)" class="st4 st5 st3">1e-9</text>
<text transform="matrix(1 0 0 1 27.8438 310.9506)" class="st4 st5 st3">1e-8</text>
<text transform="matrix(1 0 0 1 27.8438 276.5334)" class="st4 st5 st3">1e-7</text>
<text transform="matrix(1 0 0 1 27.8438 242.1164)" class="st4 st5 st3">1e-6</text>
<text transform="matrix(1 0 0 1 27.8438 207.6994)" class="st4 st5 st3">1e-5</text>
<text transform="matrix(1 0 0 1 27.8438 173.2824)" class="st4 st5 st3">1e-4</text>
<text transform="matrix(1 0 0 1 27.8438 138.8653)" class="st4 st5 st3">1e-3</text>
<text transform="matrix(1 0 0 1 29.5195 104.4483)" class="st4 st5 st3">0.01</text>
<text transform="matrix(1 0 0 1 36.0879 70.0312)" class="st4 st5 st3">0.1</text>
<text transform="matrix(1 0 0 1 45.2285 35.6142)" class="st4 st5 st3">1</text>
<line class="st0" x1="61.8" y1="0" x2="61.8" y2="378"/>
<line class="st6" x1="140.2" y1="0" x2="140.2" y2="378"/>
<line class="st6" x1="364.3" y1="0" x2="364.3" y2="378"/>
<line class="st6" x1="588.4" y1="0" x2="588.4" y2="378"/>
<g>
	<line class="st7" x1="61" y1="376.2" x2="741" y2="376.2"/>
	<line class="st6" x1="61" y1="341.8" x2="741" y2="341.8"/>
	<line class="st6" x1="61" y1="307.4" x2="741" y2="307.4"/>
	<line class="st6" x1="61" y1="272.9" x2="741" y2="272.9"/>
	<line class="st6" x1="61" y1="238.5" x2="741" y2="238.5"/>
	<line class="st6" x1="61" y1="204.1" x2="741" y2="204.1"/>
	<line class="st6" x1="61" y1="169.7" x2="741" y2="169.7"/>
	<line class="st6" x1="61" y1="135.3" x2="741" y2="135.3"/>
	<line class="st6" x1="61" y1="100.8" x2="741" y2="100.8"/>
	<line class="st6" x1="61" y1="66.4" x2="741" y2="66.4"/>
	<line class="st6" x1="61" y1="32" x2="741" y2="32"/>
</g>
<g>
	<g>
		<line class="st8" x1="140.2" y1="0" x2="140.2" y2="378"/>
	</g>
</g>
<g>
	<g>
		<g>
			<g>
				<g>
					<path class="st9" d="M141,31.9l0.3,0.1l1,0l0.2,0l0.2,0l0.5,0l0.7,0l1,0l0.5,0l0.2,0l0.4,0l0.7,0l0.2,0l0.2,0l0.1,0l0.2,0
						l0.1,0l1.7,0l0.1,0l2.4,0l0.3,0l0.5,0l0.1,0l0,0l1.6,0l0.7,0l0.1,0l1.3,0l0.2,0l0.2,0l0.1,0l1.6,0l0.4,0l0.1,0l0.3,0l0.2,0
						l0.5,0l1.1,0l1.2,0l1.2,0l0.2,0l0.2,0l0.1,0l0.3,0l0.1,0l0.3,0l0.4,0l1,0l0.7,0.1l0.2,0.1l0.5,0.2l0.1,0.2l0.3,0.2l0.4,0.3
						l0.4,0.3l0.2,0.3l0.2,0.3l0.2,0.3l0.9,0.3l0.7,0.3l0.1,0.3l0.4,0.3l0.3,0.1l0.3,0.1l0.3,0.1l0.9,0.2l0.8,0.2l0.1,0.1l0.8,0.2
						l0.4,0.2l1.1,0.3l0.6,0.3l0.8,0.4l1.2,0.6l0,0.5l0.3,0.4l0.2,0.2l0.2,0.5l0.1,0.1l0.1,0l0.1,0.3l0,0.2l1.7,0.9l0.4,1l0.2,0.7
						l0.2-0.5l0.1,0.4l0.8,0.8l0.7,0.5l0.2,0.6l0.4,0.2l0.1,0.8l0.1,0.4l0.1,0.4l0.1,0.4l0.1,0.1l0,0l0.4-0.1l0.1,0.3l0.1,0.1
						l0.3,0.5l0.7,0.7l0.5,0.6l0.1,0.3l0.3-0.2l0.6,0l0,0.5l0.3,0.2l1.4,0.6l0.4,0.8l0.4,0.9l0.5,1l2.2,2.5l0.2,1.5l0.7,1.8l0.2,1.7
						l1.1,1.2l0.2,1.5l0.2,2l0,0.5l0.3,0.2l1,2.5l0.9,0.9l0.2,0.4l1.6,1.3l0.4,1.9l0.6,1.8l0.1,1.3l0.3,1.4l0.1,1.6l0-0.1l0.7,1.4
						l0.2,1.3l0.5,1.1l0-0.8l0.3,0.8l0.6,2.1l0.1,0.5l0.3,0.9l0.4-0.5l1.3,0.5l0.4,1.6l0.5,1.3l0.1-0.1l0.7,0.4l0.2,2l0,2.8l0.2,0.3
						l0.3-0.3l0.8-1.1l1.1,0l0.1-0.9l2.7,2.1l0.7,0.1l2,0l0.1,2.7l0.1,3l0.1,3.2l0.2,2.7l0.8-0.4l0,0.1l2,0.1l0.8-1.6l1.2,0.9
						l0.5,0.7l0,0.6l0,2.7l0-3.5l1.2,1.4l0.3,0.3l1.2,2.4l0,1.2l0.1,0.7l0.5,1.7l0.9,2.1l0,1.4l0.4,1l0.5,0.1l0.3,0.7l0.6-1.5
						l0.2,2.2l0.3,1.6l1-0.7l0.4,0.1l0.3-4.7l2.6,1.2l0.2-0.6l0.1,1.7l0.5,1.6l0.4,0l0.6,0l0.3-0.6l0.1,1.6l0.3,3.4l0.6,2.2l0.2,1.8
						l1.6,0.6l1.7,0.4l0.4,3.2l0.6,2.5l1.8-7.9l1.7,1.2l0.2-1.8l1.3-1.1l0-0.7l0.4,1.5l0.4,2.2l3.5,0.3l0.4-0.9l0,2.4l1,0.3l0.1,3.4
						l0.2,1.6l0.3-4.7l0.1,3.5l0.4-0.8l0.2,1.3l0.3,3.4l0.3,3l0.6,1l0.9-1.8l0.9-0.4l0.2-0.8l0.1,1l1-14.2l1.5-0.4l0.2,3.4l0.3-2.2
						l0.2,1.6l1,2.6l0.2,0.5l0.6,2.5l0.9,4.1l0.1,2.5l0.3,0.1l0.9,2.2l0.7-0.3l0.3-1.6l0.5-1.5l0.7,2l0.2,3l0.3,1.4l0.5-2.8l0.2,2.3
						l0.3,1.4l3.1-1.2l0.8-1.2l0.1-2.7l1.2,0.1l0.2-0.6l0.8,1.7l0.3,0.5l0.2-0.2l0.1,3.3l0.2-2.1l0.5,2.8l0.2-3.8l0.1-1.1l0.1-4.8
						l0.8-12.4l0.1-6.9l0.1-1.2l1,2.6l0.1-0.7l1.7,4.9l0.8-2.1l0.1,2.4l0.2,0.5l0,2.8l0.2-3.6l1.1,1l0.6,4.6l0.2,2.2l0.9,4.2
						l0.2,0.4l1.1,1.9l0.1-1.4l0.2-3.1l0.1,2.6l0.2,1.4l2.2-0.3l1.4-0.6l0.1,0.7l0,0.5l0.3,1.8l0.5,0.5l1.2,0.4l0.6,0.2l1.3-0.2
						l0.5,4.3l0.3-0.7l2.7-1.4l2.2,3.6l0.1-3.6l0.8-3.6l0.3,4.2l0.7-2.2l0.4,2.1l0.3,2.4l0.1,4l0.6,2.9l0.9-7.6l0.2-6.4l2.5-7.3
						l0.9-1.4l0.9,3.4l0-0.1l0.1-0.7l0.4,3.9l0.3,0.4l0.1-2.3l0.2,1.5l0.3-2.7l1.4-0.4l0.8,2.7l0.3,4.4l0.8,4.2l2,2.1l0,1.7l0.1,2.5
						l0.4,4.1l1.4,3.5l0.2,3.5l0.2,2.5l0.1-3.6l0.6,2.2l2.5-14.6l0.6-1.5l1.4,2.7l0.4,3.5l0.3,3.1l0.3,1.1l0.1,0.6l0.4,1.4l0.4,2.4
						l0.6,3.1l0.3-7.6l0.8,2.3l0,3.5l0.6-0.1l0.6-8.5l0-4.1l1.3,2.7l0.4,2.9l0.3,0l0-7.2l0.1,1.6l0.9,3.7l0.6,0.4l0.3-4.2l0.2,2.5
						l0.5-4.7l0,0.6l1.5,2.8l0.3,0.7l1.4,4.1l0.4,3.7l0.8,1.2l0.4,1l0.3,1.4l1.2,2.2l0.3-0.4l0.7-0.8l0.5-3.9l1.7-1.3l0.1-4.7
						l0.3,3.2l0.1-7.9l0.4-18.1l0.1-6.5l0.2-2.7l0.8-0.6l0.1,0.5l0-0.5l0.1,0.1l1,2.8l1.8,4.7l0.2,3.9l0.5-0.4l0.2,1.8l3.2,0.2
						l1,4.4l0.5-0.6l1.3,4.1l0.1,2.3l0.5,0.5l0.1,0.9l0.1,2.7l0,4.7l0.1-3.3l0.1,0l0.2,3.5l0.1,1.5l0.6-4.8l0.2,2.2l0.9-2.7l0.3,2.3
						l0.1-2.4l0.7,3l1,1.4l0.9,0.3l0.3-5.9l0.6,3.6l0.6,2.6l0.6,0.4l0.3,2.3l0.1,3.2l0.6-5.8l1.1,1.1l0.3,4l0.2,0.5l0.3-3.1l0.2,3.9
						l0.8-4l0.9,4l0.3-0.1l0.5-3.9l0.7,0.9l1.1,2.6l1.1,2.2l0.4-0.6l0.2-1.4l0.3,2.3l1.8,3.1l3.2-9.3l0.6,3.9l0,3.5l0.2-8.4l0.2,2.7
						l1,1.4l0.2-3.3l0.4,2l0.1-5.3l0.2,3.2l0.6,2.7l0,0.7l0.4,3.7l0.1,0l1.3,0l0.5,3.5l0.8-1.5l1.7,3.4l1.6,0.2l0.3-7.2l1.9,2.2
						l0.6,3.6l0.8,2.4l1.4-30.8l0.2-9.3l0.1-5.3l0-4.5l0.9-2.1l0.6,2.3l0.4,0l0.2,0.6l0.4-4.1l0.7-0.3l0.5,2l0.1-0.1l0.5,4.6
						l0.3,1.2l0.4,2.9l0.9,3l1.4,3.8l0.6,0.6l0.1-0.7l0.5-3.7l1.6,4.9l0.2-0.6l1.5,4.3l0.5-2.3l0.2,2.3l0.2,3l0.9-3.9l1,3.5l0,3.4
						l0.2,0.9l0.8-3.6l0.2,2.7l0.5,4.8l0.4,0.7l0.9,2.3l1.9-1.8l0.3,3.1l2,2.9l1.3,4.6l0.7-2.1l2.4,4.5l1-5.1l0.2,0.2l0.7,3.8
						l0.1,0.4l1.5-4l0.1,1.1l0.7,3.1l0.3-0.6l0.1-1.2l0.3,1.3l0.1,4l1.2,1.5l0.2,1l1.9,3.6l0.7,0.9l1.3,3.2l1.4-7.4l0.2-7.3l0.3,1.2
						l1-0.8l0.8,1.7l1.8,1.6l0.4,2.2l0.1,1.7l1.2-53.5l0.2-10.8l1.8,2.8l0.4,4l0.1,3l0.5,2.7l0.6,2l0.2,1.1l0.1,2.2l0.4-0.7l0.1-1.5
						l0.3,2.1l0.1,1.4l0.1,4.3l1-0.7l0.1,0l0.1,0.1l0.2-0.9l1,4.2l0.6,0.1l0.1,1.6l0.1-5.1l0.1,3.1l0.3,2.7l2.2,0.7l0.2,2.1l1-2.1
						l0.1,2l1.4-1.8l0.1-0.4l0.2-1.7l0.4,4.7l0.3,4l0.5,1l1.1-4.9l0.1,4.7l0.6,3.1l0.1,4l0.9,3.9l1.1-4.7l0-0.1l0.7,0.3l0.5,2.7
						l0.4-1.1l0.1,1.3l0.3,3.4l0.5,2l0.2,3.4l0.7,1.4l1.7,1.9l0.6-6.1l0.1,2.6l1-7.5l0,2.5l0.2,2.7l0.1,2.2l0.4,3.6l0.6-1l0.3-3.1
						l0,3.1l0.2,0.5l0.3-2.3l0.3,3.9l0.2,1.7l0.2,3.9l0.4-0.6l1.5,1.1l0.5,0.9l0.1,2.4l0.4-8.3l0.8,0l0.8,3.8l1.2,2.1l0.2-0.2
						l0.2-2.7l0.1-4.4l2.1,1.6l0.4,2.3l0.2-2.1l0.9,3.6l0.5,3.2l0.5-3.1l0.7,0.1l0.2,1.6l0.1-7.9l0,1.1l0.1,2l0.4-3.9l0,2.7l0.5,2
						l0.2,2.2l0.5,3.3l0.8,1.3l0.5-1.9l0.7-6.5l0.5-6.5l0.7,4.4l0.4,3.2l0.1-1.4l0.2-0.9l0.2-1.9l0.1-0.2l0.7,3.8l0.3,4l0.2,0.5
						l0.3,0.2l0.2,0.3l0.3-0.5l1.4-0.2l1-37.9l0-7.5l0.4-6l0.8-3.4l0.2,1.5l0.3,1.1l0.9,0.7l0.6,2.2l0.3-1l0.1,2.9l0.5,2.3l1.9,1.8
						l0.2,3.4l0.9,3.8l0.6,1.6l0.6-2.4l0.2-1.1l0.2,0.9l0.2,2.3l0.5-0.7l0-1.5l0.3-0.3l0.1,1.8l0.4,3.7l0.3,2.3l0.2,0.1l0.5,3.2
						l1.4,1.1l0.4-0.5l0-0.3l0.1,3.1l0.2,4.3l1.5,3.1l1.4,2.2l1.7,1.7l1,0.8l0.1,0.6l2.9-0.7l0.8-1.4l0.2,0.5l0.3-4l0.8,4.4l0.5-6.2
						l3.4-4l0.3,3l0.9,0.7l1.8,0.9l0.1-0.5l0,2.4l0.7-1.9l1.5-0.8l0.7,2.7l0.5,0l0.2-4.5l0.2,1.7l0.2,3.1l1.1-25.3l0.5-13l0.3-3.8
						l0.9-3.2l0.8,0.7l0,2.5l0.1-1.8l0.8,1.9l0.4,0.3l1.3,2.1l0.1-0.5l0.4-0.7l0.3,0.9l0.8,0.7l0,2.7l1.9,1.4l0.8,2.8l0,2.5l0.1,2.9
						l1.1-0.1l0.3,3.8l0.7-2.3l0.1-0.4l0.2-1.7l1,2.9l0.7,0.7l1.1-3.2l0.5-2.7l0.5-0.8l0-0.5l0,1.4l0.5-8.5l0.8,0.5l0.6-5.9l1.5,2.8
						l1.2,1.8l2.4-4.5l0.4-1.3l1.4,1.4l1.3-1.8l0.4,2.9l0.1,2.3l0.1,2.9l1.2,1.3l0-4.7l0.5-0.8l0-1.1l1,1l0.1,3.2l0.3-0.8l0.2-1.7
						l0.2-4.6l0.4-1.7l1.5,3.3l0.4,0.5l1,1l0.5-3.6l0.6,1.1l0.9,1.8l0.3,3l0,0.7l0-1.7l0,0.7l2.2-2.5l0.1-4.3l0.2,2.6l1.4-0.7l1,1.4
						l1.6,3.1l0.2-0.3l0-0.4l1.1,0.8l0-0.7l0.7-1.2l0.2,1.5l1.2,2.2l0.1-4.8l0.6,2.8l1.1-3.8l0.9-1l0.7,0.4l0.9,3.7l1.1,0.6l0.4-6.4
						l1.7-2.3l2.2,1.4l1.1,0.2l0.6,1.2l0,1.4l2,2.6l1.5,0.7l0.4,0.2l0.7,1.9l0.7-0.9l0.5,1.9l1-4.4l0.5,1.1l1.8-4l0.1,2.8l0.2,1.7
						l0.1-2.9l0.1-1.4l0.3-1.1l0.6,1.9l0.4,2l0.1,2.2l2.4-4.3l1.1-1.3l0.5,0.6l0.3-0.7l1-1l0.4,2l0.3,1.6l0.6-0.6l0.7-1.8l0.3-1.2
						l0.6-0.5l0.8-2.7l0.6,0.2l0.3,3.2l1.5,0.5l0.5,2l0,1.5l0.4,0l0.4,1.3l0.7-3.1l1.3,2.4l0-0.5l0.6-0.5l0,0.4l0.4,1.8l0.2-0.8
						l0.4-4l0.3-2.2l0.8-0.1l0.5,2l1,2.2l0.7-5.1l0.1,2.1l0-1.7l1.1-0.4l0.3,3l0.3,2l0.2,0.1l0,1.9l0-3.4l0.3,1.2l0.2-0.4l1.3,1.8
						l0.6-1.4l0.4,1.5l0.5,0.2l0.3-4.3l0.5-0.2l0.2-0.1l0.6,1.4l0.4,1.3l0.3,1.7l0.1-2l0.5,0.9l0.2-0.2l0.2,3.2l0.7-2.1l0.6,0.5
						l0.6,0.7l0.5-1.9l0.1-1.7l0.1-1l0.5,1.2l0-0.8l0.1,1.7l1,0.4l0.8,1.2l0.3-3.5l0.4-0.7l0,0.8l0.1-0.8l0.1,3.7l0.8,0.4l0.6,0.6
						l0-1.2l0.9-0.7l0.5,1l0.2,1.4l0.3,1.7l0.1-5.2l0.4-5.3l0.5,2.2l0-0.9l0.9,3.7l1.1,0l2.8,2.2l0.3,3.7l1.3,0.8l0.2-0.4l1.7-1.5
						l0.5,0.1l0.1,0.5l0.4-1.1l0.8-1.8l0.4-2.1l0.4,0.6l2.1-1.4l0.2,3.9l0.9,1l0.2,1.3l0.2-5.3l0.1,0.9l0,2.2l1.1-3.1l1,1.9l0.6,1.1
						l0.3,1.3l1.1,1.4l0.1,1.7l0.1,0.2l0.4-1.9l0.1-1.2l0.4,0.1l0.1-4.1l0.1-0.2l0.4-6.2l0-1.7l1.3,2.9l2,3.6l0.2,1.3l2.2-0.2
						l0.9-0.8l0.2,2.6l0.7,2.9l0,2.8l0.9,2.3l0.8-1.2l0.1-8.4l0.2-3.1l0.1-1.6l2,2.5l0.3,3.9l0-0.9l0.3-4.5l0,2.4l0.3,0.7l0.6,2.1
						l0.1,1.5l0.6-2.9l1.6,1.6l0,1.2l0.4,0.9l0.7-1.4l0.4,1.4l0.4-1.9l0,1.1l0.6,3.6l1.9-1.2l0.4-2.9l0.4-2.5l1.9,2.5l2.8,1.1
						l0.5-1.3l0.3-0.1l0.1,0.2l0.2,1.1l1.5-4.3l0.1-0.4l0.1,3.1l0.3,0.5l0.5,0.8l0.3,2.4l1.1,0.3l0.2,0.5l0.3-3.3l1.1,1.8l0.5-2.4
						l0.4,3.2l0.9,0.4l0.3,1.9l0.5-0.5l0.2,0.6l1.1-2.7l0.8-4l0.2,3.1l0-1l0.1,0.3l0.6-4.1l2,5l0.4-1.9l1.4-1.5l2.2-1.4l0.6,2.9
						l0.1,2.9l0.2,0.9l1.2,2.5l0.7-1.9l1,0.3l0.8,3.3l2.3-4.6l0.8-4.6l0.1,2.8l0.7-2.9l1.2,1.7l1.2-2.2l0.9-3.2l0.1,0.5l0-1.4l0.9,1
						l0.6,3.6l0.9-0.1l0.6,4.3l1,0.5l0.5,1l1.8,2.3l0.8,2.8l0.1-0.6l0.2-1.9l0.3,2.5l0.6-2l1-6.1l1,1.5l0.8,0.8l0.6-4.4l0,2.4
						l0.8,0.6l0.3,1.1"/>
				</g>
			</g>
		</g>
	</g>
	<g class="st10">
		<g>
			<g>
				<g>
					<path class="st9" d="M141,31.9l0.3,0.2l1,0l0.2,0l0.2,0l0.5,0l0.7,0l1,0l0.5,0l0.2,0l0.4,0l0.7,0l0.2,0l0.2,0l0.1,0l0.2,0
						l0.1,0l1.7,0l0.1,0l2.4,0l0.3,0l0.5,0l0.1,0l0,0l1.6,0l0.7,0l0.1,0l1.3,0l0.2,0l0.2,0l0.1,0l1.6,0l0.4,0l0.1,0l0.3,0l0.2,0
						l0.5,0l1.1,0l1.2,0l1.2,0l0.2,0l0.2,0l0.1,0l0.3,0l0.1,0l0.3,0l0.4,0l1,0l0.7,0.2l0.2,0.1l0.5,0.5l0.1,0.1l0.3,0.3l0.4,0.6
						l0.4,0.4l0.2,0.3l0.2,0.2l0.2,0.2l0.9,0.3l0.7,0.4l0.1,0.2l0.4,0.3l0.3-0.3l0.3,0.1l0.3,0.2l0.9,0.3l0.8,0.3l0.1-0.2l0.8,0.4
						l0.4,0.4l1.1,0.3l0.6,0.5l0.8,0.7l1.2,1l0,0.2l0.3,0.3l0.2-0.3l0.2,1.2l0.1-0.8l0.1-0.4l0.1,1.2l0,0l1.7,2.7l0.4,1.5l0.2-0.4
						l0.2-3.4l0.1,2.6l0.8,1.9l0.7-0.4l0.2,0.7l0.4-0.7l0.1,2.5l0.1-0.7l0.1,0.2l0.1,0.6l0.1-0.8l0-0.1l0.4-0.3l0.1,1.3l0.1-0.5
						l0.3,1.6l0.7,1.1l0.5,0.6l0.1-0.6l0.3-1.6l0.6,0.7l0,1.8l0.3-0.7l1.4,1.8l0.4,1.4l0.4,1.1l0.5,1.4l2.2,8.4l0.2-2.8l0.7,2.9
						l0.2,1.4l1.1-0.4l0.2,2.6l0.2,3.9l0-4.6l0.3-0.5l1,10.6l0.9-5.3l0.2-1.2l1.6,4.3l0.4,4.2l0.6,1.3l0.1-0.4l0.3,1.7l0.1,2.4
						l0-5.4l0.7,5.7l0.2,1l0.5,0.5l0-5.7l0.3,4.6l0.6,6.9l0.1-5l0.3,2l0.4-4.2l1.3,2.9l0.4,5.3l0.5,0.2l0.1-4.1l0.7,1.4l0.2,7.4
						l0,6.7l0.2-9.3l0.3-1.7l0.8-2.7l1.1,2.2l0.1-2.7l2.7,11l0.7-6.6l2-0.3l0.1,12.4l0.1,4.8l0.1,4.7l0.2-0.7l0.8-11.1l0,1.4l2,0
						l0.8-5.1l1.2,6.6l0.5,0.2l0,0.2l0,10.8l0-19.4l1.2,11.7l0.3-3l1.2,10.1l0-4l0.1-0.8l0.5,5.2l0.9,3.6l0-1.4l0.4,0l0.5-2.7
						l0.3,2.2l0.6-6.4l0.2,12.9l0.3-1.2l1-6.9l0.4,1.8l0.3-12.5l2.6,12.2l0.2-5.4l0.1,8.1l0.5,1.5l0.4-5.1l0.6,0l0.3-2l0.1,7.9
						l0.3,13.3l0.6-5.2l0.2,0.1l1.6-3.5l1.7-0.1l0.4,15.5l0.6-2.1l1.8-27.1l1.7,15.3l0.2-9l1.3,0.2h0l0.4,7.6l0.4,5.2l3.5-6.5
						l0.4-3.7l0,12.8l1-7.4l0.1,17.3l0.2-8.1l0.3-17.1l0.1,26.5l0.4-18l0.2,7l0.3,14l0.3,0.4l0.6-7.9l0.9-8.5l0.9,2.3l0.2-1.5
						l0.1,5.7l1-30.7l1.5,12.5l0.2,19.3l0.3-21.6l0.2,11l1,6.7l0.2-7.3l0.6,10l0.9,17.8l0.1-11.4l0.3-8.1l0.9,9.2l0.7-8.2l0.3-4.4
						l0.5-1.3l0.7,11.5l0.2,8.3l0.3-6.3l0.5-12.1l0.2,15.3l0.3-2.4l3.1-7.9l0.8-1l0.1-5.4l1.2,5.5l0.2-2.3l0.8,8.6l0.3-3.7l0.2-2
						l0.1,17.7l0.2-20.1l0.5,17.7l0.2-21l0.1,2.9l0.1-10l0.8-17.6l0.1-3.5l0.1,5.8l1,14.8l0.1-11.9l1.7,49.8l0.8-49.5l0.1,14.6
						l0.2-6.2l0,11.9l0.2-20.3l1.1,10.2l0.6,35.2l0.2-23.6l0.9,19.5l0.2-21.6l1.1,6.8l0.1-10.2l0.2-5.9l0.1,17.7l0.2-3.9l2.2-5.2
						l1.4-1.2l0.1,3.8h0l0.3,6.1l0.5-4l1.2,0.2l0.6-0.4l1.3-1.3l0.5,30.1l0.3-27.5l2.7-2.8l2.2,22.8l0.1-26.1l0.8-3.7l0.3,34.2
						l0.7-30.3l0.4,13.1l0.3,4.2l0.1,17.1l0.6-7.4l0.9-28.9l0.2-5.5l2.5-8l0.9,5.6l0.9,21.1l0-15.1l0.1-2l0.4,25.3l0.3-18.5l0.1-7.7
						l0.2,10.4l0.3-12.3l1.4,3.8l0.8,13.6l0.3,21.2l0.8,1.7l2-15.1h0l0.1,6.4l0.4,17.5l1.4-3.1l0.2,3.1l0.2-4.1l0.1-18.7l0.6,15.9
						l2.5-35.8l0.6,9.3l1.4,15.4l0.4,9.8l0.3-0.4l0.3-8.4l0.1-1l0.4,4.1l0.4,6.3l0.6,7.4l0.3-30.2l0.8,20.2l0,11.3l0.6-15.8
						l0.6-19.1l0-0.3l1.3,19.6l0.4,4.4l0.3-11.3l0-17l0.1,16.4l0.9,16.7l0.6-16.4l0.3-12.2l0.2,18.6l0.5-21.3l0,9.6l1.5,11.9
						l0.3-7.8l1.4,24.6l0.4-1.8l0.8-12.2l0.4,0.2l0.3,2.8l1.2,5.4l0.3-8.8l0.7-1.7l0.5-8.8l1.7,2.5l0.1-9.5l0.3,24.1l0.1-31.6
						l0.4-22.7l0.1-0.8l0.2,1.6l0.8,3l0.1,3.3l0-2.9l0.1,1.5l1,12.7l1.8,28.4l0.2-10l0.5-21.3l0.2,8.2l3.2-4.7l1,31.3l0.5-29.5
						l1.3,28.4l0.1-13l0.5-5.8l0.1,1.9l0.1,10.5l0,30.9l0.1-45.5l0.1,5.8l0.2,18.8l0.1-9.3l0.6-16.9l0.2,17.4l0.9-15.3l0.3,14.9
						l0.1-14.5l0.7,19.5l1-6.6l0.9-3.1l0.3-15.3l0.6,29.3l0.6-5l0.6-7.7l0.3,9.3l0.1,8.6l0.6-27.8l1.1,13l0.3,21.4l0.2-18.9l0.3-10
						l0.2,29.2l0.8-30.4l0.9,31.7l0.3-21.3l0.5-10.2l0.7,10.1l1.1,9.6l1.1-0.2l0.4-9.1l0.2-3l0.3,13l1.8,7.7l3.2-33.1l0.6,35.4
						l0-1.5l0.2-34.2l0.2,23.4l1-4.4l0.2-13.5l0.4,14.2l0.1-19.7L375,171l0.6-0.5l0-7.6l0.4,19.7l0.1-17.6l1.3-0.1l0.5,19.4
						l0.8-20.5l1.7,20.9l1.6-13.7l0.3-17.5l1.9,19.5l0.6,12.7l0.8-6l1.4-56.1l0.2-3.6l0.1-2.1l0-3.6l0.9,1l0.6,14.4l0.4-8.1l0.2,2.4
						l0.4-12.6l0.7,6l0.5,9l0.1-6.7l0.5,36.9l0.3-27.4l0.4,10.6l0.9,3.6l1.4,10.9l0.6-16.8l0.1-3.9l0.5-8.5l1.6,56.4l0.2-47.1
						l1.5,31.9l0.5-32.9l0.2,14.9l0.2,7l0.9-22.6l1,25.7l0,2.4l0.2-11.3l0.8-12.3l0.2,19.2l0.5,34.1l0.4-36.9l0.9,8l1.9-13l0.3,19.2
						l2,1.7l1.3,26.8l0.7-39.8l2.4,38.9l1-43.4l0.2,8.6l0.7,21.3l0.1-16.4l1.5-11.8l0.1,10.9l0.7,12.4l0.3-14.4l0.1-2.3l0.3,7.7
						l0.1,20.3l1.2-14.2l0.2-0.8l1.9,17.1l0.7-12.9l1.3,14.1l1.4-30.8l0.2-7.3l0.3,14.5l1-6l0.8,8.5l1.8,1.5l0.4,4.4l0.1-0.1l1.2-77
						l0.2-4.8l1.8,25.6l0.4,14.4l0.1-6l0.5,0.4l0.6-1.1l0.2-2.2l0.1,6.1l0.4-9.4l0.1-3l0.3,11.9l0.1-1.2l0.1,25l1-27.2l0.1,1.5
						l0.1,0.5l0.2-3.3l1,29.9l0.6-23.4l0.1,6.2l0.1-17.9l0.1,23.6l0.3,0.1l2.2-7.3l0.2,7.1l1-13.1l0.1,12.5l1.4-11.7l0.1,2.4
						l0.2-4.4l0.4,44.7l0.3-11.3l0.5-17.2l1.1-15.7l0.1,48.1l0.6-20.1l0.1,12.7l0.9,2.6l1.1-32l0,7.4l0.7,1l0.5,11.6l0.4-13.1
						l0.1,7.6l0.3,14.1l0.5-6.4l0.2,11.8l0.7-9.2l1.7,4.1l0.6-21.2l0.1,21.1l1-27.2l0,21.4l0.2,3.8l0.1-0.5l0.4,13.1l0.6-19.8
						l0.3-6.5l0,21.1l0.2-10.8l0.3-8l0.3,27.7l0.2-12.5l0.2,18.5L460,170l1.5,5.5l0.5,0.2l0.1,8.3l0.4-27.3l0.8,10.5l0.8,22.1l1.2-9
						l0.2-7.9l0.2-7.2l0.1-6.7l2.1,13.8l0.4,5l0.2-14l0.9,24.4l0.5-0.4l0.5-21.7l0.7,6l0.2,6l0.1-23l0,14.6l0.1,5.3l0.4-17.1l0,19.6
						l0.5-1.5l0.2,2.8l0.5,9.6l0.8-8.7l0.5-9.3l0.7-12l0.5-6.5l0.7,40.7l0.4-10.9l0.1-17.3l0.2,0.1l0.2-3.8l0.1,3.3l0.7,23l0.3,5.5
						l0.2-18.5l0.3-0.5l0.2,0.3l0.3-2.2l1.4,0.3l1-55h0l0.4-4.7l0.8-0.6l0.2,11.9l0.3-0.4l0.9-0.4l0.6,7.8l0.3-10.7l0.1,15.9
						l0.5-0.9l1.9-0.1l0.2,12.1l0.9,7.5l0.6-11.8l0.6-11.8l0.2,1.2l0.2,5.6l0.2,7.4l0.5-9.8l0-3l0.3,2.2l0.1,7.8l0.4,15.9l0.3-7.4
						l0.2-7.4l0.5,15.6l1.4-8.7l0.4-4.7h0l0.1,16.7l0.2,17.3l1.5-10l1.4-2.8l1.7-0.7l1-2.3l0.1-0.1l2.9-3.9l0.8-2.6l0.2,4.6
						l0.3-11.9l0.8,38.2l0.5-42.3l3.4-1.8l0.3,21.6l0.9-9.3l1.8,1.7l0.1-4.2l0,11.6l0.7-13.7l1.5,1.3l0.7,14.1l0.5-9.7l0.2-11.9
						l0.2,14.3l0.2,10.6l1.1-54.4l0.5-9.8l0.3,2.8l0.9-2.4l0.8,8.5l0,9.1l0.1-14.1l0.8,11.4l0.4-4.7l1.3,7.9l0.1-8.4l0.4-1.1
						l0.3,4.8l0.8,0.2l0,10.6l1.9-4.2l0.8,8.8l0,1.3l0.1,5l1.1-11.6l0.3,22.4l0.7-25.1l0.1,3.2l0.2-4.3l1,17.6l0.7-8.6l1.1-11l0.5-2
						l0.5,2.6l0-0.1l0,6.6l0.5-23.3l0.8,12.5l0.6-15.9l1.5,22.1l1.2-3.2l2.4-17.5l0.4,3.3l1.4,8.1l1.3-9.5l0.4,17.6l0.1-0.9l0.1,6.4
						l1.2-6.1l0-16.1l0.5,5l0-1.8l1,6l0.1,13.6l0.3-15.5l0.2-3.6l0.2-8.6l0.4,2.4l1.5,20.3l0.4-11.8l1,2.4l0.5-12.5l0.6,10.5
						l0.9,4.1l0.3,9.3l0-9.2l0-7.1l0,6.1l2.2-9.1l0.1-6.6l0.2,19.1l1.4-11.7l1,7.3l1.6,11.7l0.2-13.7l0-0.8l1.1,4.1l0-4.4l0.7-2.3
						l0.2,8.8l1.2,4.7l0.1-19.6l0.6,21.2l1.1-21.1l0.9,3.3l0.7,3.6l0.9,20.1l1.1-15.1l0.4-17.3l1.7,2.5l2.2,10l1.1-3.3l0.6,3.8
						l0,2.1l2,7.7l1.5-6.6l0.4-1.2l0.7,7.6l0.7-9l0.5,9.9l1-17.7l0.5,11.2l1.8-13.7l0.1,20.4l0.2-3.9l0.1-13.5l0.1,1.1l0.3-0.5
						l0.6,10.5l0.4,2l0.1,3.2l2.4-18.7l1.1,3.1l0.5,4.8l0.3-3.7l1-1.5l0.4,10.8l0.3-0.3l0.6-6.9l0.7-4.1l0.3,0l0.6,1l0.8-6.7
						l0.6,5.9l0.3,15.9l1.5-11.3l0.5,7l0-0.6l0.4-4.4l0.4,4.9l0.7-12.3l1.3,16.4l0-10.1l0.6-0.4l0,2.6l0.4,6.4l0.2-8.4l0.4-8.9
						l0.3,0.3l0.8,4l0.5,8.6l1,3l0.7-20.3l0.1,16.8l0-11.9l1.1,2.2l0.3,15.4l0.3-2.9l0.2-6.3l0,7.6l0-15.4l0.3,10.5l0.2-4.5l1.3,8.3
						l0.6-9.9l0.4,8.7l0.5-3.8l0.3-12l0.5,6.4l0.2,0.2l0.6,5.7l0.4,1l0.3,3.2l0.1-11.2l0.5,7.4l0.2-3.2l0.2,17.1l0.7-19.6l0.6,5.9
						l0.6,1.4l0.5-7.8l0.1-1.3l0.1,0.3l0.5,6.9l0-6l0.1,8.9l1-4.1l0.8,3.7l0.3-13l0.4,3.8l0,4.6l0.1-4.6l0.1,22.5l0.8-15.5l0.6,1.2
						l0-5.6l0.9,0.3l0.5,5.6l0.2,2.6l0.3,2.9l0.1-18.6l0.4-5.4l0.5,17.5l0-10.1l0.9,22.8l1.1-17l2.8,9.5l0.3,13.2L631,120l0.2-3.6
						l1.7-3.7l0.5,3.6l0.1,1.4l0.4-4.8l0.8-3.1l0.4-2.5l0.4,6.4l2.1-5.9l0.2,26.5l0.9-16.1l0.2,2.3l0.2-17.2l0.1,11.4l0,7.3
						l1.1-16.1l1,13.3l0.6-1.8l0.3,1.8l1.1,1.9l0.1,2.7l0.1-4.4l0.4-6.3l0.1,0.1l0.4,3l0.1-11.2l0.1,6.1l0.4-14.6l0,3.7l1.3,17.8
						l2,8.9l0.2-11.6l2.2-4.3l0.9-2.2l0.2,13.5l0.7,4.9l0,2l0.9-0.2l0.8-11.7l0.1-16.5l0.2,2.1l0.1,0.7l2,14.3l0.3,15.2l0-22.6
						l0.3-9.9l0,18l0.3-5.8l0.6,7.2l0.1-0.9l0.6-12.8l1.6,11.7h0l0.4,0l0.7-7l0.4,8.3l0.4-9.7l0,8.2l0.6,16.5l1.9-19.9l0.4-5.8
						l0.4-1.9l1.9,15.8l2.8-4.2l0.5-7.4l0.3,2.4l0.1,1.2l0.2,3.5l1.5-14.5l0.1,5.9l0.1,16.8l0.3-11l0.5,1.6l0.3,8.7l1.1-7.1l0.2,0.8
						l0.3-10.5l1.1,13.6l0.5-12.8l0.4,20.8l0.9-11.7l0.3,6.9l0.5-7.7l0.2,3.3l1.1-9.4l0.8-5.6l0.2,22.3l0-15.8l0.1,3.4l0.6-11.9
						l2,68.3l0.4-62.2l1.4-0.6l2.2-1.4l0.6,17.3l0.1,2.5l0.2-7.5l1.2,8.5l0.7-14.3l1,5l0.8,16.6l2.3-26.1l0.8-4.7l0.1,21.1l0.7-19
						l1.2,12.1l1.2-11.5l0.9-4.8l0.1,7.7l0-5.8l0.9,6.8l0.6,16.9l0.9-16.4l0.6,29.5l1-23.3l0.5,2.4l1.8,7.5l0.8,5.3l0.1-12.2
						l0.2-4.6l0.3,14.9l0.6-14.5l1-11.2l1,14.8l0.8-1.2l0.6-14l0,18.2l0.8-6.2l0.3,2.5"/>
				</g>
			</g>
		</g>
	</g>
</g>
<text transform="matrix(1 0 0 1 136.9061 397.4)" class="st4 st5 st3">0</text>
<text transform="matrix(1 0 0 1 354.8773 397.4)" class="st4 st5 st3">50k</text>
<text transform="matrix(1 0 0 1 575.6873 397.4)" class="st4 st5 st3">100k</text>
<text transform="matrix(1 0 0 1 1472.0643 397.4)" class="st1 st2 st3">300k</text>
</svg>
